<svg width="43" height="42" viewBox="0 0 43 42" fill="none" xmlns="http://www.w3.org/2000/svg">
<path d="M25.3334 3.44775H6.66669C5.60582 3.44775 4.58841 3.86918 3.83826 4.61933C3.08811 5.36947 2.66669 6.38689 2.66669 7.44775V26.1144C2.66669 27.1753 3.08811 28.1927 3.83826 28.9428C4.58841 29.693 5.60582 30.1144 6.66669 30.1144H25.3334C25.5527 30.1114 25.7713 30.0891 25.9867 30.0478L26.3867 29.9544H26.48H26.5467L27.04 29.7678L27.2134 29.6744C27.3467 29.5944 27.4934 29.5278 27.6267 29.4344C27.8047 29.3034 27.974 29.1609 28.1334 29.0078L28.2267 28.8878C28.3576 28.7551 28.478 28.6124 28.5867 28.4611L28.7067 28.2878C28.7998 28.1393 28.8801 27.9832 28.9467 27.8211C28.9833 27.7571 29.0145 27.6902 29.04 27.6211C29.1067 27.4611 29.1467 27.2878 29.2 27.1144V26.9144C29.2756 26.6539 29.3204 26.3854 29.3334 26.1144V7.44775C29.3334 6.38689 28.9119 5.36947 28.1618 4.61933C27.4116 3.86918 26.3942 3.44775 25.3334 3.44775ZM6.66669 27.4478C6.31307 27.4478 5.97393 27.3073 5.72388 27.0572C5.47383 26.8072 5.33335 26.468 5.33335 26.1144V20.3678L9.72002 15.9678C9.84397 15.8428 9.99144 15.7436 10.1539 15.6759C10.3164 15.6082 10.4907 15.5734 10.6667 15.5734C10.8427 15.5734 11.017 15.6082 11.1795 15.6759C11.3419 15.7436 11.4894 15.8428 11.6134 15.9678L23.08 27.4478H6.66669ZM26.6667 26.1144C26.6654 26.2788 26.6338 26.4415 26.5734 26.5944C26.5429 26.6594 26.5072 26.7218 26.4667 26.7811C26.431 26.8375 26.3909 26.891 26.3467 26.9411L19.2134 19.8078L20.3867 18.6344C20.5106 18.5094 20.6581 18.4103 20.8206 18.3426C20.9831 18.2749 21.1573 18.24 21.3334 18.24C21.5094 18.24 21.6836 18.2749 21.8461 18.3426C22.0086 18.4103 22.1561 18.5094 22.28 18.6344L26.6667 23.0344V26.1144ZM26.6667 19.2611L24.16 16.7811C23.397 16.0571 22.3852 15.6535 21.3334 15.6535C20.2815 15.6535 19.2697 16.0571 18.5067 16.7811L17.3334 17.9544L13.4934 14.1144C12.7303 13.3904 11.7186 12.9868 10.6667 12.9868C9.61482 12.9868 8.60306 13.3904 7.84002 14.1144L5.33335 16.5944V7.44775C5.33335 7.09413 5.47383 6.75499 5.72388 6.50495C5.97393 6.2549 6.31307 6.11442 6.66669 6.11442H25.3334C25.687 6.11442 26.0261 6.2549 26.2762 6.50495C26.5262 6.75499 26.6667 7.09413 26.6667 7.44775V19.2611ZM18 8.78109C17.6045 8.78109 17.2178 8.89839 16.8889 9.11815C16.56 9.33791 16.3036 9.65027 16.1523 10.0157C16.0009 10.3812 15.9613 10.7833 16.0385 11.1713C16.1156 11.5592 16.3061 11.9156 16.5858 12.1953C16.8655 12.475 17.2219 12.6655 17.6098 12.7427C17.9978 12.8198 18.3999 12.7802 18.7654 12.6288C19.1308 12.4775 19.4432 12.2211 19.663 11.8922C19.8827 11.5633 20 11.1767 20 10.7811C20 10.2507 19.7893 9.74195 19.4142 9.36687C19.0392 8.9918 18.5305 8.78109 18 8.78109Z" fill="#03FF49"/>
<path d="M38.1945 37.5264L30.8079 37.5098L38.135 30.14L38.1945 37.5264Z" fill="#03FF49"/>
</svg>
