<svg width="43" height="42" viewBox="0 0 43 42" fill="none" xmlns="http://www.w3.org/2000/svg">
<path fill-rule="evenodd" clip-rule="evenodd" d="M27.9999 29.6689L3.99986 29.6689C3.64623 29.6689 3.30709 29.5285 3.05705 29.2784C2.807 29.0284 2.66652 28.6892 2.66652 28.3356V27.0023H5.33319L26.6665 27.0023H29.3332V28.3356C29.3332 28.6892 29.1927 29.0284 28.9427 29.2784C28.6926 29.5285 28.3535 29.6689 27.9999 29.6689Z" fill="#00FF47"/>
<path d="M29.3332 4.33561C29.3332 3.98199 29.1927 3.64285 28.9427 3.3928C28.6926 3.14275 28.3535 3.00228 27.9999 3.00228L3.99986 3.00228C3.64623 3.00228 3.30709 3.14275 3.05705 3.3928C2.807 3.64285 2.66652 3.98199 2.66652 4.33561L2.66652 27.0023H5.33319L5.33319 5.66895L26.6665 5.66895L26.6665 27.0023H29.3332L29.3332 4.33561Z" fill="#868686"/>
<path d="M38.1945 37.5264L30.8079 37.5098L38.135 30.14L38.1945 37.5264Z" fill="#D9D9D9"/>
</svg>
