<svg width="43" height="43" viewBox="0 0 43 43" fill="none" xmlns="http://www.w3.org/2000/svg">
<path fill-rule="evenodd" clip-rule="evenodd" d="M2.6665 28.8903L2.6665 4.8903C2.6665 4.53668 2.80698 4.19754 3.05703 3.94749C3.30708 3.69744 3.64622 3.55696 3.99984 3.55696H5.33317V6.22363L5.33317 27.557V30.2236H3.99984C3.64622 30.2236 3.30708 30.0832 3.05703 29.8331C2.80698 29.5831 2.6665 29.2439 2.6665 28.8903Z" fill="#00FF47"/>
<path d="M27.9998 30.2236C28.3535 30.2236 28.6926 30.0832 28.9426 29.8331C29.1927 29.5831 29.3332 29.2439 29.3332 28.8903V4.8903C29.3332 4.53668 29.1927 4.19754 28.9426 3.94749C28.6926 3.69744 28.3535 3.55696 27.9998 3.55696H5.33317V6.22363H26.6665V27.557H5.33317V30.2236H27.9998Z" fill="#868686"/>
<path d="M38.1945 38.0811L30.8079 38.0645L38.135 30.6947L38.1945 38.0811Z" fill="#D9D9D9"/>
</svg>
