<svg width="43" height="41" viewBox="0 0 43 41" fill="none" xmlns="http://www.w3.org/2000/svg">
<path d="M16 24.0002C15.7363 24.0002 15.4785 24.0784 15.2593 24.2249C15.04 24.3714 14.8691 24.5796 14.7682 24.8233C14.6673 25.0669 14.6409 25.335 14.6923 25.5936C14.7438 25.8523 14.8707 26.0898 15.0572 26.2763C15.2437 26.4628 15.4813 26.5898 15.7399 26.6412C15.9985 26.6927 16.2666 26.6663 16.5103 26.5653C16.7539 26.4644 16.9621 26.2935 17.1086 26.0743C17.2552 25.855 17.3334 25.5972 17.3334 25.3335C17.3334 24.9799 17.1929 24.6407 16.9428 24.3907C16.6928 24.1406 16.3536 24.0002 16 24.0002ZM24 1.3335H8.00002C7.6464 1.3335 7.30726 1.47397 7.05721 1.72402C6.80716 1.97407 6.66669 2.31321 6.66669 2.66683V14.6668C6.66669 15.7277 7.08811 16.7451 7.83826 17.4953C8.58841 18.2454 9.60582 18.6668 10.6667 18.6668H12V21.8268C11.3211 22.5966 10.8788 23.546 10.7261 24.5609C10.5733 25.5759 10.7167 26.6133 11.139 27.5488C11.5613 28.4843 12.2446 29.2781 13.1068 29.8349C13.969 30.3917 14.9736 30.6878 16 30.6878C17.0264 30.6878 18.031 30.3917 18.8932 29.8349C19.7555 29.2781 20.4387 28.4843 20.861 27.5488C21.2833 26.6133 21.4267 25.5759 21.274 24.5609C21.1213 23.546 20.6789 22.5966 20 21.8268V18.6668H21.3334C22.3942 18.6668 23.4116 18.2454 24.1618 17.4953C24.9119 16.7451 25.3334 15.7277 25.3334 14.6668V2.66683C25.3334 2.31321 25.1929 1.97407 24.9428 1.72402C24.6928 1.47397 24.3536 1.3335 24 1.3335ZM16 28.0002C15.4635 27.9961 14.9407 27.8303 14.4999 27.5244C14.0591 27.2185 13.7208 26.7868 13.5293 26.2856C13.3377 25.7844 13.3018 25.2371 13.4262 24.7152C13.5507 24.1933 13.8296 23.721 14.2267 23.3602C14.3648 23.2355 14.4753 23.0833 14.5511 22.9134C14.6269 22.7435 14.6662 22.5596 14.6667 22.3735V18.6668H17.3334V22.3735C17.3338 22.5596 17.3732 22.7435 17.4489 22.9134C17.5247 23.0833 17.6352 23.2355 17.7734 23.3602C18.1704 23.721 18.4494 24.1933 18.5738 24.7152C18.6982 25.2371 18.6623 25.7844 18.4708 26.2856C18.2792 26.7868 17.941 27.2185 17.5002 27.5244C17.0594 27.8303 16.5365 27.9961 16 28.0002ZM22.6667 14.6668C22.6667 15.0205 22.5262 15.3596 22.2762 15.6096C22.0261 15.8597 21.687 16.0002 21.3334 16.0002H10.6667C10.3131 16.0002 9.97393 15.8597 9.72388 15.6096C9.47383 15.3596 9.33335 15.0205 9.33335 14.6668V13.3335H22.6667V14.6668ZM22.6667 10.6668H9.33335V4.00016H22.6667V10.6668Z" fill="white"/>
<path d="M38.1945 36.7452L30.8079 36.7286L38.135 29.3588L38.1945 36.7452Z" fill="#D9D9D9"/>
</svg>
