<svg width="43" height="42" viewBox="0 0 43 42" fill="none" xmlns="http://www.w3.org/2000/svg">
<path fill-rule="evenodd" clip-rule="evenodd" d="M29.3332 4.44515V28.4452C29.3332 28.7988 29.1927 29.1379 28.9427 29.388C28.6926 29.638 28.3535 29.7785 27.9999 29.7785H26.6665V27.1118V5.77848V3.11182H27.9999C28.3535 3.11182 28.6926 3.25229 28.9427 3.50234C29.1927 3.75239 29.3332 4.09153 29.3332 4.44515Z" fill="#00FF47"/>
<path d="M3.99986 3.11182C3.64623 3.11182 3.30709 3.25229 3.05705 3.50234C2.807 3.75239 2.66652 4.09153 2.66652 4.44515V28.4452C2.66652 28.7988 2.807 29.1379 3.05705 29.388C3.30709 29.638 3.64623 29.7785 3.99986 29.7785H26.6665V27.1118H5.33319V5.77848L26.6665 5.77848V3.11182L3.99986 3.11182Z" fill="#868686"/>
<path d="M38.1945 37.6358L30.8079 37.6192L38.135 30.2494L38.1945 37.6358Z" fill="#D9D9D9"/>
</svg>
