<svg width="43" height="42" viewBox="0 0 43 42" fill="none" xmlns="http://www.w3.org/2000/svg">
<path fill-rule="evenodd" clip-rule="evenodd" d="M4.00002 2.6665H28C28.3536 2.6665 28.6928 2.80698 28.9428 3.05703C29.1929 3.30708 29.3334 3.64622 29.3334 3.99984V5.33317H26.6667H5.33335H2.66669V3.99984C2.66669 3.64622 2.80716 3.30708 3.05721 3.05703C3.30726 2.80698 3.6464 2.6665 4.00002 2.6665Z" fill="#00FF47"/>
<path d="M2.66669 27.9998C2.66669 28.3535 2.80716 28.6926 3.05721 28.9426C3.30726 29.1927 3.6464 29.3332 4.00002 29.3332H28C28.3536 29.3332 28.6928 29.1927 28.9428 28.9426C29.1929 28.6926 29.3334 28.3535 29.3334 27.9998V5.33317H26.6667V26.6665H5.33335V5.33317H2.66669V27.9998Z" fill="#868686"/>
<path d="M38.1945 37.1905L30.8079 37.1739L38.135 29.8041L38.1945 37.1905Z" fill="#D9D9D9"/>
</svg>
