<svg width="32" height="32" viewBox="0 0 32 32" fill="none" xmlns="http://www.w3.org/2000/svg">
<path d="M0.658 20.666C1.66158 23.9469 3.69197 26.8189 6.45027 28.8593C9.20857 30.8996 12.5491 32.0006 15.98 32C24.828 32 32 24.836 32 16C32 7.164 24.828 1.19957e-06 15.982 1.19957e-06C11.9205 -0.00156997 8.01026 1.54032 5.04291 4.31345C2.07557 7.08659 0.272928 10.8837 0 14.936L0.006 14.948L8.614 18.486C9.39036 17.972 10.3099 17.7178 11.24 17.76L15.16 12.072L15.158 11.992C15.1596 10.3787 15.801 8.83195 16.9416 7.69101C18.0822 6.55006 19.6287 5.90812 21.242 5.906C22.8553 5.90812 24.4018 6.55006 25.5424 7.69101C26.683 8.83195 27.3244 10.3787 27.326 11.992C27.3254 12.8027 27.163 13.605 26.8484 14.3522C26.5339 15.0993 26.0734 15.7762 25.494 16.3431C24.9145 16.9101 24.2278 17.3557 23.474 17.6539C22.7202 17.9522 21.9145 18.097 21.104 18.08L15.496 22.08C15.515 22.8209 15.3485 23.5549 15.0116 24.2151C14.6747 24.8752 14.1781 25.4407 13.567 25.8601C12.9558 26.2794 12.2495 26.5393 11.5124 26.6162C10.7752 26.693 10.0305 26.5843 9.346 26.3C8.68905 26.0262 8.10765 25.5984 7.65093 25.0525C7.19421 24.5067 6.87559 23.8589 6.722 23.164L0.66 20.666H0.658Z" fill="#E2E6FF"/>
</svg>
