<svg width="22" height="22" viewBox="0 0 22 22" fill="none" xmlns="http://www.w3.org/2000/svg">
<circle cx="11" cy="11" r="11" fill="#E2E6FF"/>
<path d="M10.7059 6.79412C10.7059 6.35554 11.0614 6 11.5 6C11.9386 6 12.2941 6.35554 12.2941 6.79412V14.2059C12.2941 14.6445 11.9386 15 11.5 15C11.0614 15 10.7059 14.6445 10.7059 14.2059V6.79412Z" fill="#0BD863"/>
<path d="M7.79412 11.2941C7.35554 11.2941 7 10.9386 7 10.5C7 10.0614 7.35554 9.70588 7.79412 9.70588H15.2059C15.6445 9.70588 16 10.0614 16 10.5C16 10.9386 15.6445 11.2941 15.2059 11.2941H7.79412Z" fill="#0BD863"/>
</svg>
