<svg width="20" height="22" viewBox="0 0 20 22" fill="none" xmlns="http://www.w3.org/2000/svg">
<path d="M13.7105 11.7116C14.6909 10.9402 15.4065 9.88251 15.7577 8.68553C16.109 7.48855 16.0784 6.21185 15.6703 5.03306C15.2621 3.85426 14.4967 2.83198 13.4806 2.10845C12.4644 1.38491 11.2479 0.996094 10.0005 0.996094C8.75303 0.996094 7.5366 1.38491 6.52041 2.10845C5.50423 2.83198 4.73883 3.85426 4.3307 5.03306C3.92257 6.21185 3.892 7.48855 4.24325 8.68553C4.59449 9.88251 5.31009 10.9402 6.29048 11.7116C4.61056 12.3846 3.14477 13.5009 2.04938 14.9415C0.953983 16.3821 0.270048 18.0929 0.070485 19.8916C0.0560396 20.0229 0.0676015 20.1558 0.10451 20.2826C0.141419 20.4095 0.202952 20.5278 0.285596 20.6309C0.452504 20.8391 0.695269 20.9724 0.960485 21.0016C1.2257 21.0308 1.49164 20.9534 1.69981 20.7865C1.90798 20.6196 2.04131 20.3768 2.07049 20.1116C2.29007 18.1568 3.22217 16.3514 4.6887 15.0404C6.15524 13.7294 8.05338 13.0046 10.0205 13.0046C11.9876 13.0046 13.8857 13.7294 15.3523 15.0404C16.8188 16.3514 17.7509 18.1568 17.9705 20.1116C17.9977 20.3573 18.1149 20.5842 18.2996 20.7486C18.4843 20.913 18.7233 21.0031 18.9705 21.0016H19.0805C19.3426 20.9714 19.5822 20.8389 19.747 20.6328C19.9119 20.4268 19.9886 20.164 19.9605 19.9016C19.76 18.0978 19.0724 16.3826 17.9713 14.9398C16.8703 13.497 15.3974 12.3811 13.7105 11.7116ZM10.0005 11.0016C9.20936 11.0016 8.436 10.767 7.7782 10.3275C7.12041 9.88794 6.60772 9.26323 6.30497 8.53232C6.00222 7.80142 5.923 6.99715 6.07734 6.22123C6.23168 5.4453 6.61265 4.73257 7.17206 4.17316C7.73147 3.61375 8.4442 3.23279 9.22012 3.07845C9.99605 2.92411 10.8003 3.00332 11.5312 3.30607C12.2621 3.60882 12.8868 4.12151 13.3264 4.77931C13.7659 5.43711 14.0005 6.21046 14.0005 7.00159C14.0005 8.06246 13.5791 9.07987 12.8289 9.83002C12.0788 10.5802 11.0614 11.0016 10.0005 11.0016Z" fill="white" fill-opacity="0.5"/>
</svg>
