<svg width="26" height="24" viewBox="0 0 26 24" fill="none" xmlns="http://www.w3.org/2000/svg">
<g filter="url(#filter0_dd_32_8852)">
<path d="M10.0104 8.11091C9.42462 7.52513 9.42462 6.57538 10.0104 5.98959C10.5962 5.40381 11.5459 5.40381 12.1317 5.98959L22.0312 15.8891C22.617 16.4749 22.617 17.4246 22.0312 18.0104C21.4454 18.5962 20.4957 18.5962 19.9099 18.0104L10.0104 8.11091Z" fill="#4E4D57"/>
<path d="M12.1317 18.0104C11.5459 18.5962 10.5962 18.5962 10.0104 18.0104C9.42462 17.4246 9.42462 16.4749 10.0104 15.8891L19.9099 5.98959C20.4957 5.40381 21.4454 5.40381 22.0312 5.98959C22.617 6.57538 22.617 7.52513 22.0312 8.11091L12.1317 18.0104Z" fill="#4E4D57"/>
</g>
<defs>
<filter id="filter0_dd_32_8852" x="-0.429688" y="0.550781" width="25.9004" height="22.8984" filterUnits="userSpaceOnUse" color-interpolation-filters="sRGB">
<feFlood flood-opacity="0" result="BackgroundImageFix"/>
<feColorMatrix in="SourceAlpha" type="matrix" values="0 0 0 0 0 0 0 0 0 0 0 0 0 0 0 0 0 0 127 0" result="hardAlpha"/>
<feOffset dx="-5"/>
<feGaussianBlur stdDeviation="2.5"/>
<feComposite in2="hardAlpha" operator="out"/>
<feColorMatrix type="matrix" values="0 0 0 0 0 0 0 0 0 0 0 0 0 0 0 0 0 0 0.25 0"/>
<feBlend mode="normal" in2="BackgroundImageFix" result="effect1_dropShadow_32_8852"/>
<feColorMatrix in="SourceAlpha" type="matrix" values="0 0 0 0 0 0 0 0 0 0 0 0 0 0 0 0 0 0 127 0" result="hardAlpha"/>
<feOffset/>
<feGaussianBlur stdDeviation="1.5"/>
<feComposite in2="hardAlpha" operator="out"/>
<feColorMatrix type="matrix" values="0 0 0 0 0.0100001 0 0 0 0 1 0 0 0 0 0.2872 0 0 0 0.26 0"/>
<feBlend mode="normal" in2="effect1_dropShadow_32_8852" result="effect2_dropShadow_32_8852"/>
<feBlend mode="normal" in="SourceGraphic" in2="effect2_dropShadow_32_8852" result="shape"/>
</filter>
</defs>
</svg>
