<svg width="22" height="22" viewBox="0 0 22 22" fill="none" xmlns="http://www.w3.org/2000/svg">
<circle cx="11" cy="11" r="11" fill="#E2E6FF"/>
<path d="M8.18198 8.94107C7.87186 8.63095 7.87186 8.12814 8.18198 7.81802C8.4921 7.5079 8.99491 7.5079 9.30503 7.81802L14.5459 13.0589C14.8561 13.3691 14.8561 13.8719 14.5459 14.182C14.2358 14.4921 13.733 14.4921 13.4229 14.182L8.18198 8.94107Z" fill="#E75B5B"/>
<path d="M9.30503 14.182C8.99491 14.4921 8.4921 14.4921 8.18198 14.182C7.87186 13.8719 7.87186 13.3691 8.18198 13.0589L13.4229 7.81802C13.733 7.5079 14.2358 7.5079 14.5459 7.81802C14.8561 8.12814 14.8561 8.63095 14.5459 8.94107L9.30503 14.182Z" fill="#E75B5B"/>
</svg>
