<svg width="25" height="28" viewBox="0 0 25 28" fill="none" xmlns="http://www.w3.org/2000/svg">
<path d="M13.9363 3.67704V4.78647H15.8447V3.83971C15.2252 3.60824 14.5758 3.43914 13.9041 3.34004C13.9252 3.44918 13.9363 3.56185 13.9363 3.67704Z" fill="white" fill-opacity="0.5"/>
<path d="M8.46522 4.78647H10.3736V3.67704C10.3736 3.60791 10.3776 3.53969 10.3853 3.47259C9.71654 3.62386 9.07381 3.84531 8.46522 4.12882V4.78647Z" fill="white" fill-opacity="0.5"/>
<path fill-rule="evenodd" clip-rule="evenodd" d="M8.46522 3.67704C8.46522 1.64962 10.1205 0 12.1548 0C14.1892 0 15.8447 1.64962 15.8447 3.67704V3.83971C15.2252 3.60824 14.5758 3.43914 13.9041 3.34004C13.7456 2.52177 13.0214 1.9019 12.1548 1.9019C11.2422 1.9019 10.4874 2.5897 10.3853 3.47259C9.71654 3.62386 9.07381 3.84531 8.46522 4.12882V3.67704ZM8.23704 24C8.80771 26.0266 10.5029 27.5 12.5 27.5H12.5634C14.5605 27.5 16.2557 26.0266 16.8264 24H24.0459C24.3952 24 24.7161 23.8098 24.8831 23.5049C25.0506 23.1996 25.0373 22.8275 24.8483 22.5349L22.1375 18.332V12.9372C22.1375 8.77167 19.515 5.21104 15.8447 3.83971V4.78647H13.9363V3.67704C13.9363 3.56185 13.9252 3.44918 13.9041 3.34004C13.4457 3.2724 12.9768 3.23737 12.5 3.23737C11.7738 3.23737 11.0661 3.31863 10.3853 3.47259C10.3776 3.53969 10.3736 3.60791 10.3736 3.67704V4.78647H8.46522V4.12882C5.16056 5.66831 2.86257 9.0377 2.86257 12.9372V18.332L0.151697 22.5346C-0.0372512 22.8271 -0.0505773 23.1993 0.116703 23.5046C0.283983 23.8098 0.604945 24 0.954185 24H8.23704ZM10.3116 24C10.0716 23.5632 9.9331 23.0493 9.9331 22.5H8.0317C8.0317 23.0224 8.10365 23.5263 8.23704 24H10.3116ZM10.3116 24H14.7518C14.2998 24.8227 13.4878 25.5 12.5634 25.5H12.5C11.5756 25.5 10.7637 24.8227 10.3116 24ZM4.61923 19.1254L2.7019 22.0981H22.2978L20.3805 19.1254C20.2816 18.972 20.2291 18.7935 20.2291 18.6113V12.9372C20.2291 8.63762 16.7621 5.13932 12.5 5.13932C8.23823 5.13932 4.77096 8.63756 4.77096 12.9372V18.6113C4.77096 18.7935 4.71815 18.9723 4.61923 19.1254Z" fill="white" fill-opacity="0.5"/>
<path d="M9.9331 22.5H8.0317C8.0317 23.0224 8.10365 23.5263 8.23704 24H10.3116C10.0716 23.5632 9.9331 23.0493 9.9331 22.5Z" fill="white" fill-opacity="0.5"/>
</svg>
