<svg width="45" height="32" viewBox="0 0 45 32" fill="none" xmlns="http://www.w3.org/2000/svg">
<mask id="mask0_3_214" style="mask-type:alpha" maskUnits="userSpaceOnUse" x="0" y="0" width="45" height="32">
<path d="M40.5333 0H4.26667C1.91025 0 0 1.91025 0 4.26667V27.7333C0 30.0898 1.91025 32 4.26667 32H40.5333C42.8897 32 44.8 30.0898 44.8 27.7333V4.26667C44.8 1.91025 42.8897 0 40.5333 0Z" fill="white"/>
</mask>
<g mask="url(#mask0_3_214)">
<path d="M40.5333 0H4.26667C1.91025 0 0 1.91025 0 4.26667V27.7333C0 30.0898 1.91025 32 4.26667 32H40.5333C42.8897 32 44.8 30.0898 44.8 27.7333V4.26667C44.8 1.91025 42.8897 0 40.5333 0Z" fill="#FFE100"/>
<path fill-rule="evenodd" clip-rule="evenodd" d="M0 0H14.9333V32H0V0Z" fill="#0006AB"/>
<path fill-rule="evenodd" clip-rule="evenodd" d="M29.8667 0H44.8V32H29.8667V0Z" fill="#D20636"/>
<path fill-rule="evenodd" clip-rule="evenodd" d="M25.4635 21.1947C26.7733 20.7958 27.7333 19.5776 27.7333 18.1334V11.7334C27.7333 9.95202 26.2997 8.53336 24.5333 8.53336H20.2667C18.5045 8.53336 17.0667 9.96269 17.0667 11.7334V18.1334C17.0667 19.5883 18.0224 20.8 19.3365 21.1968C19.7333 22.5195 20.9536 23.4667 22.4 23.4667C23.8549 23.4667 25.0667 22.5067 25.4635 21.1947Z" fill="#C8B47C"/>
<path fill-rule="evenodd" clip-rule="evenodd" d="M19.2 10.6667H21.3333V13.8667H19.2V10.6667ZM23.4667 14.9333H25.6V18.1333H23.4667V14.9333Z" fill="#D20636"/>
<path fill-rule="evenodd" clip-rule="evenodd" d="M23.4667 10.6667H25.6V13.8667H23.4667V10.6667ZM19.2 14.9333H21.3333V18.1333H19.2V14.9333Z" fill="#FFE100"/>
<path d="M40.5333 1.06668H4.26667C2.49935 1.06668 1.06667 2.49937 1.06667 4.26668V27.7333C1.06667 29.5007 2.49935 30.9333 4.26667 30.9333H40.5333C42.3006 30.9333 43.7333 29.5007 43.7333 27.7333V4.26668C43.7333 2.49937 42.3006 1.06668 40.5333 1.06668Z" stroke="black" stroke-opacity="0.1" stroke-width="2.13333"/>
</g>
</svg>
