<svg width="45" height="32" viewBox="0 0 45 32" fill="none" xmlns="http://www.w3.org/2000/svg">
<mask id="mask0_3_213" style="mask-type:alpha" maskUnits="userSpaceOnUse" x="0" y="0" width="45" height="32">
<path d="M40.6667 0H4.40001C2.0436 0 0.133347 1.91025 0.133347 4.26667V27.7333C0.133347 30.0898 2.0436 32 4.40001 32H40.6667C43.0231 32 44.9333 30.0898 44.9333 27.7333V4.26667C44.9333 1.91025 43.0231 0 40.6667 0Z" fill="white"/>
</mask>
<g mask="url(#mask0_3_213)">
<path d="M40.6667 0H4.40001C2.0436 0 0.133347 1.91025 0.133347 4.26667V27.7333C0.133347 30.0898 2.0436 32 4.40001 32H40.6667C43.0231 32 44.9333 30.0898 44.9333 27.7333V4.26667C44.9333 1.91025 43.0231 0 40.6667 0Z" fill="white"/>
<path fill-rule="evenodd" clip-rule="evenodd" d="M0.133347 21.3333H44.9333V32H0.133347V21.3333Z" fill="black"/>
<path fill-rule="evenodd" clip-rule="evenodd" d="M0.133347 0H44.9333V10.6667H0.133347V0Z" fill="#007E35"/>
<path fill-rule="evenodd" clip-rule="evenodd" d="M0.133347 0V32H12.9333V0H0.133347Z" fill="#FF0400"/>
<path d="M40.6667 1.06668H4.4C2.63269 1.06668 1.2 2.49937 1.2 4.26668V27.7333C1.2 29.5007 2.63269 30.9333 4.4 30.9333H40.6667C42.434 30.9333 43.8667 29.5007 43.8667 27.7333V4.26668C43.8667 2.49937 42.434 1.06668 40.6667 1.06668Z" stroke="black" stroke-opacity="0.1" stroke-width="2.13333"/>
</g>
</svg>
