<svg width="46" height="32" viewBox="0 0 46 32" fill="none" xmlns="http://www.w3.org/2000/svg">
<g clip-path="url(#clip0_3_212)">
<mask id="mask0_3_212" style="mask-type:alpha" maskUnits="userSpaceOnUse" x="0" y="0" width="46" height="32">
<path d="M40.8 0H4.53336C2.17694 0 0.266693 1.91025 0.266693 4.26667V27.7333C0.266693 30.0898 2.17694 32 4.53336 32H40.8C43.1564 32 45.0667 30.0898 45.0667 27.7333V4.26667C45.0667 1.91025 43.1564 0 40.8 0Z" fill="white"/>
</mask>
<g mask="url(#mask0_3_212)">
<path d="M40.8 0H4.53336C2.17694 0 0.266693 1.91025 0.266693 4.26667V27.7333C0.266693 30.0898 2.17694 32 4.53336 32H40.8C43.1564 32 45.0667 30.0898 45.0667 27.7333V4.26667C45.0667 1.91025 43.1564 0 40.8 0Z" fill="#C10000"/>
<path fill-rule="evenodd" clip-rule="evenodd" d="M0.266693 0H15.2V32H0.266693V0Z" fill="black"/>
<path fill-rule="evenodd" clip-rule="evenodd" d="M30.1333 0H45.0667V32H30.1333V0Z" fill="#009B00"/>
<path fill-rule="evenodd" clip-rule="evenodd" d="M22.6667 21.3333C25.6107 21.3333 28 18.944 28 16C28 13.056 25.6107 10.6667 22.6667 10.6667C19.7227 10.6667 17.3333 13.056 17.3333 16C17.3333 18.944 19.7227 21.3333 22.6667 21.3333ZM22.6667 19.2C24.4331 19.2 25.8667 17.2907 25.8667 14.9333C25.8667 12.576 24.4331 10.6667 22.6667 10.6667C20.9003 10.6667 19.4667 12.576 19.4667 14.9333C19.4667 17.2907 20.9003 19.2 22.6667 19.2ZM22.6667 17.0667C23.2555 17.0667 23.7333 16.1109 23.7333 14.9333C23.7333 13.7557 23.2555 12.8 22.6667 12.8C22.0779 12.8 21.6 13.7557 21.6 14.9333C21.6 16.1109 22.0779 17.0667 22.6667 17.0667Z" fill="white"/>
<path d="M40.8 1.06668H4.53331C2.766 1.06668 1.33331 2.49937 1.33331 4.26668V27.7333C1.33331 29.5007 2.766 30.9333 4.53331 30.9333H40.8C42.5673 30.9333 44 29.5007 44 27.7333V4.26668C44 2.49937 42.5673 1.06668 40.8 1.06668Z" stroke="black" stroke-opacity="0.1" stroke-width="2.13333"/>
</g>
</g>
<defs>
<clipPath id="clip0_3_212">
<rect width="44.8" height="32" fill="white" transform="translate(0.266693)"/>
</clipPath>
</defs>
</svg>
