<svg width="46" height="32" viewBox="0 0 46 32" fill="none" xmlns="http://www.w3.org/2000/svg">
<g clip-path="url(#clip0_3_211)">
<mask id="mask0_3_211" style="mask-type:alpha" maskUnits="userSpaceOnUse" x="0" y="0" width="46" height="32">
<path d="M40.9333 0H4.66666C2.31025 0 0.399994 1.91025 0.399994 4.26667V27.7333C0.399994 30.0898 2.31025 32 4.66666 32H40.9333C43.2897 32 45.2 30.0898 45.2 27.7333V4.26667C45.2 1.91025 43.2897 0 40.9333 0Z" fill="white"/>
</mask>
<g mask="url(#mask0_3_211)">
<path d="M40.9333 0H4.66666C2.31025 0 0.399994 1.91025 0.399994 4.26667V27.7333C0.399994 30.0898 2.31025 32 4.66666 32H40.9333C43.2897 32 45.2 30.0898 45.2 27.7333V4.26667C45.2 1.91025 43.2897 0 40.9333 0Z" fill="black"/>
<path d="M22.8 19.2C26.9237 19.2 30.2666 15.8571 30.2666 11.7333C30.2666 7.6096 26.9237 4.26666 22.8 4.26666C18.6763 4.26666 15.3333 7.6096 15.3333 11.7333C15.3333 15.8571 18.6763 19.2 22.8 19.2Z" fill="#FDD200"/>
<path fill-rule="evenodd" clip-rule="evenodd" d="M0.399994 19.2H45.2V32H0.399994V19.2Z" fill="white"/>
<path fill-rule="evenodd" clip-rule="evenodd" d="M0.399994 12.8H45.2V19.2H0.399994V12.8Z" fill="#0070C9"/>
<path fill-rule="evenodd" clip-rule="evenodd" d="M23.8667 32H0.399994V0L23.8667 32Z" fill="#D0091E"/>
<path fill-rule="evenodd" clip-rule="evenodd" d="M21.7333 32H45.2V0L21.7333 32Z" fill="#D0091E"/>
<path d="M40.9333 1.06668H4.66668C2.89936 1.06668 1.46667 2.49937 1.46667 4.26668V27.7333C1.46667 29.5007 2.89936 30.9333 4.66668 30.9333H40.9333C42.7007 30.9333 44.1333 29.5007 44.1333 27.7333V4.26668C44.1333 2.49937 42.7007 1.06668 40.9333 1.06668Z" stroke="black" stroke-opacity="0.1" stroke-width="2.13333"/>
</g>
</g>
<defs>
<clipPath id="clip0_3_211">
<rect width="44.8" height="32" fill="white" transform="translate(0.399994)"/>
</clipPath>
</defs>
</svg>
