<svg width="46" height="32" viewBox="0 0 46 32" fill="none" xmlns="http://www.w3.org/2000/svg">
<g clip-path="url(#clip0_3_210)">
<mask id="mask0_3_210" style="mask-type:alpha" maskUnits="userSpaceOnUse" x="0" y="0" width="46" height="32">
<path d="M41.0667 0H4.79999C2.44358 0 0.533325 1.91025 0.533325 4.26667V27.7333C0.533325 30.0898 2.44358 32 4.79999 32H41.0667C43.4231 32 45.3333 30.0898 45.3333 27.7333V4.26667C45.3333 1.91025 43.4231 0 41.0667 0Z" fill="white"/>
</mask>
<g mask="url(#mask0_3_210)">
<path d="M41.0667 0H4.79999C2.44358 0 0.533325 1.91025 0.533325 4.26667V27.7333C0.533325 30.0898 2.44358 32 4.79999 32H41.0667C43.4231 32 45.3333 30.0898 45.3333 27.7333V4.26667C45.3333 1.91025 43.4231 0 41.0667 0Z" fill="#E71910"/>
<path fill-rule="evenodd" clip-rule="evenodd" d="M22.9333 8.53333L19.7333 6.39999L17.6 8.53333H19.7333L17.6 10.6667L13.3333 8.53333V19.2L19.7333 17.0667L17.6 21.3333H15.4667L17.6 23.4667L19.7333 21.3333L22.9333 25.6V8.53333ZM26.1333 6.39999L28.2667 8.53333H26.1333L28.2667 10.6667L32.5333 8.53333V19.2L26.1333 17.0667L28.2667 21.3333H30.4L28.2667 23.4667L26.1333 21.3333L22.9333 25.6V8.53333L26.1333 6.39999Z" fill="black"/>
<path d="M41.0667 1.06668H4.80001C3.03269 1.06668 1.60001 2.49937 1.60001 4.26668V27.7333C1.60001 29.5007 3.03269 30.9333 4.80001 30.9333H41.0667C42.834 30.9333 44.2667 29.5007 44.2667 27.7333V4.26668C44.2667 2.49937 42.834 1.06668 41.0667 1.06668Z" stroke="black" stroke-opacity="0.1" stroke-width="2.13333"/>
</g>
</g>
<defs>
<clipPath id="clip0_3_210">
<rect width="44.8" height="32" fill="white" transform="translate(0.533325)"/>
</clipPath>
</defs>
</svg>
