<svg width="46" height="32" viewBox="0 0 46 32" fill="none" xmlns="http://www.w3.org/2000/svg">
<mask id="mask0_3_209" style="mask-type:alpha" maskUnits="userSpaceOnUse" x="0" y="0" width="46" height="32">
<path d="M41.2 0H4.93332C2.57691 0 0.666656 1.91025 0.666656 4.26667V27.7333C0.666656 30.0898 2.57691 32 4.93332 32H41.2C43.5564 32 45.4667 30.0898 45.4667 27.7333V4.26667C45.4667 1.91025 43.5564 0 41.2 0Z" fill="white"/>
</mask>
<g mask="url(#mask0_3_209)">
<path d="M41.2 0H4.93332C2.57691 0 0.666656 1.91025 0.666656 4.26667V27.7333C0.666656 30.0898 2.57691 32 4.93332 32H41.2C43.5564 32 45.4667 30.0898 45.4667 27.7333V4.26667C45.4667 1.91025 43.5564 0 41.2 0Z" fill="#002EA3"/>
<path fill-rule="evenodd" clip-rule="evenodd" d="M0.666656 21.3333H45.4667V32H0.666656V21.3333Z" fill="#F4A900"/>
<path fill-rule="evenodd" clip-rule="evenodd" d="M0.666656 0H45.4667V10.6667H0.666656V0Z" fill="#DC0000"/>
<path d="M41.2 1.06668H4.93334C3.16603 1.06668 1.73334 2.49937 1.73334 4.26668V27.7333C1.73334 29.5007 3.16603 30.9333 4.93334 30.9333H41.2C42.9673 30.9333 44.4 29.5007 44.4 27.7333V4.26668C44.4 2.49937 42.9673 1.06668 41.2 1.06668Z" stroke="black" stroke-opacity="0.1" stroke-width="2.13333"/>
</g>
</svg>
