<svg width="46" height="32" viewBox="0 0 46 32" fill="none" xmlns="http://www.w3.org/2000/svg">
<g clip-path="url(#clip0_3_208)">
<mask id="mask0_3_208" style="mask-type:alpha" maskUnits="userSpaceOnUse" x="0" y="0" width="46" height="32">
<path d="M41.3333 0H5.06665C2.71024 0 0.799988 1.91025 0.799988 4.26667V27.7333C0.799988 30.0898 2.71024 32 5.06665 32H41.3333C43.6897 32 45.6 30.0898 45.6 27.7333V4.26667C45.6 1.91025 43.6897 0 41.3333 0Z" fill="white"/>
</mask>
<g mask="url(#mask0_3_208)">
<path d="M41.3333 0H5.06665C2.71024 0 0.799988 1.91025 0.799988 4.26667V27.7333C0.799988 30.0898 2.71024 32 5.06665 32H41.3333C43.6897 32 45.6 30.0898 45.6 27.7333V4.26667C45.6 1.91025 43.6897 0 41.3333 0Z" fill="white"/>
<path d="M28.5333 0H17.8666V32H28.5333V0Z" fill="#DC171D"/>
<path d="M45.6 10.6667H0.799988V21.3333H45.6V10.6667Z" fill="#012A87"/>
<path d="M17.8667 14.9333H15.7333V17.0667H17.8667V14.9333Z" fill="white"/>
<path d="M22.1333 17.0667H20V19.2H22.1333V17.0667Z" fill="white"/>
<path d="M26.4 17.0667H24.2667V19.2H26.4V17.0667Z" fill="white"/>
<path d="M30.6667 14.9333H28.5333V17.0667H30.6667V14.9333Z" fill="white"/>
<path d="M24.2666 12.8H22.1333V14.9333H24.2666V12.8Z" fill="white"/>
<path d="M41.3333 1.06668H5.06664C3.29933 1.06668 1.86664 2.49937 1.86664 4.26668V27.7333C1.86664 29.5007 3.29933 30.9333 5.06664 30.9333H41.3333C43.1006 30.9333 44.5333 29.5007 44.5333 27.7333V4.26668C44.5333 2.49937 43.1006 1.06668 41.3333 1.06668Z" stroke="black" stroke-opacity="0.1" stroke-width="2.13333"/>
</g>
</g>
<defs>
<clipPath id="clip0_3_208">
<rect width="44.8" height="32" fill="white" transform="translate(0.799988)"/>
</clipPath>
</defs>
</svg>
