<svg width="46" height="32" viewBox="0 0 46 32" fill="none" xmlns="http://www.w3.org/2000/svg">
<g clip-path="url(#clip0_3_207)">
<mask id="mask0_3_207" style="mask-type:alpha" maskUnits="userSpaceOnUse" x="0" y="0" width="46" height="32">
<path d="M41.4666 0H5.19995C2.84354 0 0.933289 1.91025 0.933289 4.26667V27.7333C0.933289 30.0898 2.84354 32 5.19995 32H41.4666C43.823 32 45.7333 30.0898 45.7333 27.7333V4.26667C45.7333 1.91025 43.823 0 41.4666 0Z" fill="white"/>
</mask>
<g mask="url(#mask0_3_207)">
<path d="M41.4666 0H5.19995C2.84354 0 0.933289 1.91025 0.933289 4.26667V27.7333C0.933289 30.0898 2.84354 32 5.19995 32H41.4666C43.823 32 45.7333 30.0898 45.7333 27.7333V4.26667C45.7333 1.91025 43.823 0 41.4666 0Z" fill="#D0091E"/>
<path fill-rule="evenodd" clip-rule="evenodd" d="M0.933289 17.0667H45.7333V32H0.933289V17.0667Z" fill="black"/>
<path fill-rule="evenodd" clip-rule="evenodd" d="M29.328 20.4502C30.2539 19.2086 30.8 17.6683 30.8 16C30.8 12.8704 28.8736 10.191 26.143 9.0795L24.8523 10.8864C27.0582 11.5414 28.6667 13.583 28.6667 16C28.6667 17.2672 28.2251 18.432 27.487 19.3451L20.1334 14.9334L25.8848 20.6848C25.1275 21.0987 24.2571 21.3334 23.3334 21.3334C21.5414 21.3334 19.9563 20.4502 18.9899 19.0934L17.6992 20.9003C19.0667 22.4726 21.0827 23.4667 23.3334 23.4667C24.848 23.4667 26.2603 23.0144 27.4379 22.2379L28.6667 23.4667L30.8 21.3334L29.328 20.4502ZM20.1334 10.6667H22.2667V12.8H20.1334V10.6667Z" fill="#FAD800"/>
<path d="M41.4667 1.06668H5.2C3.43269 1.06668 2 2.49937 2 4.26668V27.7333C2 29.5007 3.43269 30.9333 5.2 30.9333H41.4667C43.234 30.9333 44.6667 29.5007 44.6667 27.7333V4.26668C44.6667 2.49937 43.234 1.06668 41.4667 1.06668Z" stroke="black" stroke-opacity="0.1" stroke-width="2.13333"/>
</g>
</g>
<defs>
<clipPath id="clip0_3_207">
<rect width="44.8" height="32" fill="white" transform="translate(0.933289)"/>
</clipPath>
</defs>
</svg>
