<svg width="45" height="33" viewBox="0 0 45 33" fill="none" xmlns="http://www.w3.org/2000/svg">
<mask id="mask0_3_204" style="mask-type:alpha" maskUnits="userSpaceOnUse" x="0" y="0" width="45" height="33">
<path d="M40.5333 0.333344H4.26667C1.91025 0.333344 0 2.2436 0 4.60001V28.0667C0 30.4231 1.91025 32.3333 4.26667 32.3333H40.5333C42.8897 32.3333 44.8 30.4231 44.8 28.0667V4.60001C44.8 2.2436 42.8897 0.333344 40.5333 0.333344Z" fill="white"/>
</mask>
<g mask="url(#mask0_3_204)">
<path d="M40.5333 0.333344H4.26667C1.91025 0.333344 0 2.2436 0 4.60001V28.0667C0 30.4231 1.91025 32.3333 4.26667 32.3333H40.5333C42.8897 32.3333 44.8 30.4231 44.8 28.0667V4.60001C44.8 2.2436 42.8897 0.333344 40.5333 0.333344Z" fill="#00008E"/>
<path fill-rule="evenodd" clip-rule="evenodd" d="M8.53333 24.8667L10.6667 23.8L11.7333 21.6667L12.8 23.8L14.9333 24.8667L12.8 25.9333L11.7333 28.0667L10.6667 25.9333L8.53333 24.8667ZM29.8667 6.73334V8.86667H32V6.73334H29.8667ZM36.2667 8.86667V11H38.4V8.86667H36.2667ZM27.7333 13.1333V15.2667H29.8667V13.1333H27.7333ZM34.1333 15.2667V17.4H36.2667V15.2667H34.1333ZM32 21.6667V23.8H34.1333V21.6667H32Z" fill="#BDC4E7"/>
<path d="M19.2 2.46667H4.26666C3.08846 2.46667 2.13333 3.4218 2.13333 4.60001V15.2667C2.13333 16.4449 3.08846 17.4 4.26666 17.4H19.2C20.3782 17.4 21.3333 16.4449 21.3333 15.2667V4.60001C21.3333 3.4218 20.3782 2.46667 19.2 2.46667Z" fill="white"/>
<path fill-rule="evenodd" clip-rule="evenodd" d="M10.6667 11H4.26668V8.86666H10.6667V4.59999H12.8V8.86666H19.2V11H12.8V15.2667H10.6667V11ZM16 13.1333V15.2667H19.2V13.1333H16ZM16 4.59999V6.73332H19.2V4.59999H16ZM4.26668 13.1333V15.2667H7.46668V13.1333H4.26668ZM4.26668 4.59999V6.73332H7.46668V4.59999H4.26668Z" fill="#FF0000"/>
<path d="M40.5333 1.39999H4.26667C2.49935 1.39999 1.06667 2.83268 1.06667 4.59999V28.0667C1.06667 29.834 2.49935 31.2667 4.26667 31.2667H40.5333C42.3006 31.2667 43.7333 29.834 43.7333 28.0667V4.59999C43.7333 2.83268 42.3006 1.39999 40.5333 1.39999Z" stroke="black" stroke-opacity="0.1" stroke-width="2.13333"/>
</g>
</svg>
