<svg width="45" height="33" viewBox="0 0 45 33" fill="none" xmlns="http://www.w3.org/2000/svg">
<mask id="mask0_3_203" style="mask-type:alpha" maskUnits="userSpaceOnUse" x="0" y="0" width="45" height="33">
<path d="M40.6667 0.333344H4.40001C2.0436 0.333344 0.133347 2.2436 0.133347 4.60001V28.0667C0.133347 30.4231 2.0436 32.3333 4.40001 32.3333H40.6667C43.0231 32.3333 44.9333 30.4231 44.9333 28.0667V4.60001C44.9333 2.2436 43.0231 0.333344 40.6667 0.333344Z" fill="white"/>
</mask>
<g mask="url(#mask0_3_203)">
<path d="M40.6667 0.333344H4.40001C2.0436 0.333344 0.133347 2.2436 0.133347 4.60001V28.0667C0.133347 30.4231 2.0436 32.3333 4.40001 32.3333H40.6667C43.0231 32.3333 44.9333 30.4231 44.9333 28.0667V4.60001C44.9333 2.2436 43.0231 0.333344 40.6667 0.333344Z" fill="#3D87E0"/>
<path fill-rule="evenodd" clip-rule="evenodd" d="M9.70133 9.90132C11.5573 9.78399 12.9333 9.36799 12.9333 8.86666C12.9333 8.36746 11.5573 7.94932 9.70133 7.83199C9.58399 5.97599 9.16799 4.59999 8.66666 4.59999C8.16746 4.59999 7.74933 5.97599 7.63199 7.83199C5.77599 7.94932 4.39999 8.36532 4.39999 8.86666C4.39999 9.36586 5.77599 9.78399 7.63199 9.90132C7.74933 11.7573 8.16533 13.1333 8.66666 13.1333C9.16586 13.1333 9.58399 11.7573 9.70133 9.90132Z" fill="#D4062F"/>
<path fill-rule="evenodd" clip-rule="evenodd" d="M9.70133 9.90134C11.5573 9.78401 12.9333 9.36801 12.9333 8.86667C12.9333 8.36747 11.5573 7.94934 9.70133 7.83201C9.584 5.97601 9.168 4.60001 8.66666 4.60001C8.16746 4.60001 7.74933 5.97601 7.632 7.83201C5.776 7.94934 4.39999 8.36534 4.39999 8.86667C4.39999 9.36587 5.776 9.78401 7.632 9.90134C7.74933 11.7573 8.16533 13.1333 8.66666 13.1333C9.16586 13.1333 9.584 11.7573 9.70133 9.90134ZM9.76533 10.968L10.768 9.96534C10.608 12.5211 10.0747 14.2 8.66666 14.2C7.25866 14.2 6.72533 12.5189 6.56746 9.96747L7.56586 10.9659C5.01439 10.808 3.33333 10.2747 3.33333 8.86667C3.33333 7.45867 5.01439 6.92534 7.56586 6.76747L6.56746 7.76587C6.72533 5.21441 7.25866 3.53334 8.66666 3.53334C10.0747 3.53334 10.608 5.21441 10.7659 7.76587L9.76746 6.76747C12.3189 6.92534 14 7.45867 14 8.86667C14 10.2747 12.3189 10.808 9.76746 10.9659L9.76533 10.968Z" fill="white"/>
<path fill-rule="evenodd" clip-rule="evenodd" d="M0.133347 19.5333H44.9333V21.6667H0.133347V19.5333ZM0.133347 23.8H44.9333V25.9333H0.133347V23.8Z" fill="#FAD800"/>
<path d="M40.6667 1.39999H4.4C2.63269 1.39999 1.2 2.83268 1.2 4.59999V28.0667C1.2 29.834 2.63269 31.2667 4.4 31.2667H40.6667C42.434 31.2667 43.8667 29.834 43.8667 28.0667V4.59999C43.8667 2.83268 42.434 1.39999 40.6667 1.39999Z" stroke="black" stroke-opacity="0.1" stroke-width="2.13333"/>
</g>
</svg>
