<svg width="46" height="33" viewBox="0 0 46 33" fill="none" xmlns="http://www.w3.org/2000/svg">
<g clip-path="url(#clip0_3_202)">
<mask id="mask0_3_202" style="mask-type:alpha" maskUnits="userSpaceOnUse" x="0" y="0" width="46" height="33">
<path d="M40.8 0.333344H4.53336C2.17694 0.333344 0.266693 2.2436 0.266693 4.60001V28.0667C0.266693 30.4231 2.17694 32.3333 4.53336 32.3333H40.8C43.1564 32.3333 45.0667 30.4231 45.0667 28.0667V4.60001C45.0667 2.2436 43.1564 0.333344 40.8 0.333344Z" fill="white"/>
</mask>
<g mask="url(#mask0_3_202)">
<path d="M40.8 0.333344H4.53336C2.17694 0.333344 0.266693 2.2436 0.266693 4.60001V28.0667C0.266693 30.4231 2.17694 32.3333 4.53336 32.3333H40.8C43.1564 32.3333 45.0667 30.4231 45.0667 28.0667V4.60001C45.0667 2.2436 43.1564 0.333344 40.8 0.333344Z" fill="#E3002E"/>
<path fill-rule="evenodd" clip-rule="evenodd" d="M0.266693 21.6667H45.0667V32.3333H0.266693V21.6667Z" fill="#00AF62"/>
<path fill-rule="evenodd" clip-rule="evenodd" d="M0.266693 0.333344H45.0667V11H0.266693V0.333344Z" fill="#0097C5"/>
<path fill-rule="evenodd" clip-rule="evenodd" d="M25.8667 15.2667H28V17.4H25.8667V15.2667Z" fill="#FBDCE2"/>
<path fill-rule="evenodd" clip-rule="evenodd" d="M26.9333 19.5333C25.9605 20.8283 24.4117 21.6667 22.6667 21.6667C19.7227 21.6667 17.3333 19.2773 17.3333 16.3333C17.3333 13.3893 19.7227 11 22.6667 11C24.4117 11 25.9605 11.8384 26.9333 13.1333H23.7333C21.9669 13.1333 20.5333 14.5669 20.5333 16.3333C20.5333 18.0997 21.9669 19.5333 23.7333 19.5333H26.9333Z" fill="white"/>
<path d="M40.8 1.39999H4.53331C2.766 1.39999 1.33331 2.83268 1.33331 4.59999V28.0667C1.33331 29.834 2.766 31.2667 4.53331 31.2667H40.8C42.5673 31.2667 44 29.834 44 28.0667V4.59999C44 2.83268 42.5673 1.39999 40.8 1.39999Z" stroke="black" stroke-opacity="0.1" stroke-width="2.13333"/>
</g>
</g>
<defs>
<clipPath id="clip0_3_202">
<rect width="44.8" height="32" fill="white" transform="translate(0.266693 0.333344)"/>
</clipPath>
</defs>
</svg>
