<svg width="46" height="33" viewBox="0 0 46 33" fill="none" xmlns="http://www.w3.org/2000/svg">
<g clip-path="url(#clip0_3_201)">
<mask id="mask0_3_201" style="mask-type:alpha" maskUnits="userSpaceOnUse" x="0" y="0" width="46" height="33">
<path d="M40.9333 0.333344H4.66666C2.31025 0.333344 0.399994 2.2436 0.399994 4.60001V28.0667C0.399994 30.4231 2.31025 32.3333 4.66666 32.3333H40.9333C43.2897 32.3333 45.2 30.4231 45.2 28.0667V4.60001C45.2 2.2436 43.2897 0.333344 40.9333 0.333344Z" fill="white"/>
</mask>
<g mask="url(#mask0_3_201)">
<path d="M40.9333 0.333344H4.66666C2.31025 0.333344 0.399994 2.2436 0.399994 4.60001V28.0667C0.399994 30.4231 2.31025 32.3333 4.66666 32.3333H40.9333C43.2897 32.3333 45.2 30.4231 45.2 28.0667V4.60001C45.2 2.2436 43.2897 0.333344 40.9333 0.333344Z" fill="#FFCC00"/>
<path fill-rule="evenodd" clip-rule="evenodd" d="M0.399994 0.333344L45.2 30.2L44.9376 32.5467L0.399994 32.3333V0.333344Z" fill="#001C98"/>
<path fill-rule="evenodd" clip-rule="evenodd" d="M2.53333 6.73334H4.66666V8.86667H2.53333V6.73334ZM8.93332 11H11.0667V13.1333H8.93332V11ZM15.3333 15.2667H17.4667V17.4H15.3333V15.2667ZM21.7333 19.5333H23.8667V21.6667H21.7333V19.5333ZM28.1333 23.8H30.2667V25.9333H28.1333V23.8ZM34.5333 28.0667H36.6667V30.2H34.5333V28.0667Z" fill="white"/>
<path d="M40.9333 1.39999H4.66668C2.89936 1.39999 1.46667 2.83268 1.46667 4.59999V28.0667C1.46667 29.834 2.89936 31.2667 4.66668 31.2667H40.9333C42.7007 31.2667 44.1333 29.834 44.1333 28.0667V4.59999C44.1333 2.83268 42.7007 1.39999 40.9333 1.39999Z" stroke="black" stroke-opacity="0.1" stroke-width="2.13333"/>
</g>
</g>
<defs>
<clipPath id="clip0_3_201">
<rect width="44.8" height="32" fill="white" transform="translate(0.399994 0.333344)"/>
</clipPath>
</defs>
</svg>
