<svg width="46" height="33" viewBox="0 0 46 33" fill="none" xmlns="http://www.w3.org/2000/svg">
<g clip-path="url(#clip0_3_200)">
<mask id="mask0_3_200" style="mask-type:alpha" maskUnits="userSpaceOnUse" x="0" y="0" width="46" height="33">
<path d="M41.0667 0.333344H4.79999C2.44358 0.333344 0.533325 2.2436 0.533325 4.60001V28.0667C0.533325 30.4231 2.44358 32.3333 4.79999 32.3333H41.0667C43.4231 32.3333 45.3333 30.4231 45.3333 28.0667V4.60001C45.3333 2.2436 43.4231 0.333344 41.0667 0.333344Z" fill="white"/>
</mask>
<g mask="url(#mask0_3_200)">
<path d="M41.0667 0.333344H4.79999C2.44358 0.333344 0.533325 2.2436 0.533325 4.60001V28.0667C0.533325 30.4231 2.44358 32.3333 4.79999 32.3333H41.0667C43.4231 32.3333 45.3333 30.4231 45.3333 28.0667V4.60001C45.3333 2.2436 43.4231 0.333344 41.0667 0.333344Z" fill="#FFC800"/>
<path fill-rule="evenodd" clip-rule="evenodd" d="M0.533325 0.333344H15.4667V32.3333H0.533325V0.333344ZM30.4 0.333344H45.3333V32.3333H30.4V0.333344Z" fill="#002281"/>
<path fill-rule="evenodd" clip-rule="evenodd" d="M21.8667 21.6667H24V23.8H21.8667V21.6667ZM26.1333 17.4H28.2667V19.5333H26.1333V17.4ZM17.6 17.4H19.7333V19.5333H17.6V17.4Z" fill="#7F6300"/>
<path fill-rule="evenodd" clip-rule="evenodd" d="M24 17.4V8.86667H21.8667V17.4H19.7333V19.5333H21.8667V21.6667H24V19.5333H26.1333V17.4H24ZM26.1333 11H28.2667V17.4H26.1333V11ZM17.6 11H19.7333V17.4H17.6V11Z" fill="black"/>
<path d="M41.0667 1.39999H4.80001C3.03269 1.39999 1.60001 2.83268 1.60001 4.59999V28.0667C1.60001 29.834 3.03269 31.2667 4.80001 31.2667H41.0667C42.834 31.2667 44.2667 29.834 44.2667 28.0667V4.59999C44.2667 2.83268 42.834 1.39999 41.0667 1.39999Z" stroke="black" stroke-opacity="0.1" stroke-width="2.13333"/>
</g>
</g>
<defs>
<clipPath id="clip0_3_200">
<rect width="44.8" height="32" fill="white" transform="translate(0.533325 0.333344)"/>
</clipPath>
</defs>
</svg>
