<svg width="46" height="33" viewBox="0 0 46 33" fill="none" xmlns="http://www.w3.org/2000/svg">
<mask id="mask0_3_199" style="mask-type:alpha" maskUnits="userSpaceOnUse" x="0" y="0" width="46" height="33">
<path d="M41.2 0.333344H4.93332C2.57691 0.333344 0.666656 2.2436 0.666656 4.60001V28.0667C0.666656 30.4231 2.57691 32.3333 4.93332 32.3333H41.2C43.5564 32.3333 45.4667 30.4231 45.4667 28.0667V4.60001C45.4667 2.2436 43.5564 0.333344 41.2 0.333344Z" fill="white"/>
</mask>
<g mask="url(#mask0_3_199)">
<path d="M41.2 0.333344H4.93332C2.57691 0.333344 0.666656 2.2436 0.666656 4.60001V28.0667C0.666656 30.4231 2.57691 32.3333 4.93332 32.3333H41.2C43.5564 32.3333 45.4667 30.4231 45.4667 28.0667V4.60001C45.4667 2.2436 43.5564 0.333344 41.2 0.333344Z" fill="#006B4D"/>
<path d="M20.9333 25.9333C26.2353 25.9333 30.5333 21.6353 30.5333 16.3333C30.5333 11.0314 26.2353 6.73334 20.9333 6.73334C15.6314 6.73334 11.3333 11.0314 11.3333 16.3333C11.3333 21.6353 15.6314 25.9333 20.9333 25.9333Z" fill="#F7253B"/>
<path d="M41.2 1.39999H4.93334C3.16603 1.39999 1.73334 2.83268 1.73334 4.59999V28.0667C1.73334 29.834 3.16603 31.2667 4.93334 31.2667H41.2C42.9673 31.2667 44.4 29.834 44.4 28.0667V4.59999C44.4 2.83268 42.9673 1.39999 41.2 1.39999Z" stroke="black" stroke-opacity="0.1" stroke-width="2.13333"/>
</g>
</svg>
