<svg width="46" height="33" viewBox="0 0 46 33" fill="none" xmlns="http://www.w3.org/2000/svg">
<g clip-path="url(#clip0_3_198)">
<mask id="mask0_3_198" style="mask-type:alpha" maskUnits="userSpaceOnUse" x="0" y="0" width="46" height="33">
<path d="M41.3333 0.333344H5.06665C2.71024 0.333344 0.799988 2.2436 0.799988 4.60001V28.0667C0.799988 30.4231 2.71024 32.3333 5.06665 32.3333H41.3333C43.6897 32.3333 45.6 30.4231 45.6 28.0667V4.60001C45.6 2.2436 43.6897 0.333344 41.3333 0.333344Z" fill="white"/>
</mask>
<g mask="url(#mask0_3_198)">
<path d="M41.3333 0.333344H5.06665C2.71024 0.333344 0.799988 2.2436 0.799988 4.60001V28.0667C0.799988 30.4231 2.71024 32.3333 5.06665 32.3333H41.3333C43.6897 32.3333 45.6 30.4231 45.6 28.0667V4.60001C45.6 2.2436 43.6897 0.333344 41.3333 0.333344Z" fill="#FBE22B"/>
<path fill-rule="evenodd" clip-rule="evenodd" d="M0.799988 0.333344H15.7333V32.3333H0.799988V0.333344Z" fill="black"/>
<path fill-rule="evenodd" clip-rule="evenodd" d="M30.6666 0.333344H45.6V32.3333H30.6666V0.333344Z" fill="#F02532"/>
<path d="M41.3333 1.39999H5.06664C3.29933 1.39999 1.86664 2.83268 1.86664 4.59999V28.0667C1.86664 29.834 3.29933 31.2667 5.06664 31.2667H41.3333C43.1006 31.2667 44.5333 29.834 44.5333 28.0667V4.59999C44.5333 2.83268 43.1006 1.39999 41.3333 1.39999Z" stroke="black" stroke-opacity="0.1" stroke-width="2.13333"/>
</g>
</g>
<defs>
<clipPath id="clip0_3_198">
<rect width="44.8" height="32" fill="white" transform="translate(0.799988 0.333344)"/>
</clipPath>
</defs>
</svg>
