<svg width="46" height="33" viewBox="0 0 46 33" fill="none" xmlns="http://www.w3.org/2000/svg">
<g clip-path="url(#clip0_3_197)">
<mask id="mask0_3_197" style="mask-type:alpha" maskUnits="userSpaceOnUse" x="0" y="0" width="46" height="33">
<path d="M41.4666 0.333344H5.19995C2.84354 0.333344 0.933289 2.2436 0.933289 4.60001V28.0667C0.933289 30.4231 2.84354 32.3333 5.19995 32.3333H41.4666C43.823 32.3333 45.7333 30.4231 45.7333 28.0667V4.60001C45.7333 2.2436 43.823 0.333344 41.4666 0.333344Z" fill="white"/>
</mask>
<g mask="url(#mask0_3_197)">
<path d="M41.4666 0.333344H5.19995C2.84354 0.333344 0.933289 2.2436 0.933289 4.60001V28.0667C0.933289 30.4231 2.84354 32.3333 5.19995 32.3333H41.4666C43.823 32.3333 45.7333 30.4231 45.7333 28.0667V4.60001C45.7333 2.2436 43.823 0.333344 41.4666 0.333344Z" fill="#F22722"/>
<path fill-rule="evenodd" clip-rule="evenodd" d="M0.933289 17.4H45.7333V32.3333H0.933289V17.4Z" fill="#009F45"/>
<path fill-rule="evenodd" clip-rule="evenodd" d="M23.3334 20.0667L18.9451 22.3749L19.7835 17.4896L16.2294 14.0229L21.136 13.3104L23.3334 8.86667L25.5307 13.3125L30.4374 14.0251L26.8832 17.4875L27.7216 22.3771" fill="#FDD200"/>
<path d="M41.4667 1.39999H5.2C3.43269 1.39999 2 2.83268 2 4.59999V28.0667C2 29.834 3.43269 31.2667 5.2 31.2667H41.4667C43.234 31.2667 44.6667 29.834 44.6667 28.0667V4.59999C44.6667 2.83268 43.234 1.39999 41.4667 1.39999Z" stroke="black" stroke-opacity="0.1" stroke-width="2.13333"/>
</g>
</g>
<defs>
<clipPath id="clip0_3_197">
<rect width="44.8" height="32" fill="white" transform="translate(0.933289 0.333344)"/>
</clipPath>
</defs>
</svg>
