<svg width="45" height="33" viewBox="0 0 45 33" fill="none" xmlns="http://www.w3.org/2000/svg">
<g clip-path="url(#clip0_3_196)">
<mask id="mask0_3_196" style="mask-type:alpha" maskUnits="userSpaceOnUse" x="0" y="0" width="45" height="33">
<path d="M40.6 0.333344H4.33332C1.9769 0.333344 0.0666504 2.2436 0.0666504 4.60001V28.0667C0.0666504 30.4231 1.9769 32.3333 4.33332 32.3333H40.6C42.9564 32.3333 44.8666 30.4231 44.8666 28.0667V4.60001C44.8666 2.2436 42.9564 0.333344 40.6 0.333344Z" fill="white"/>
</mask>
<g mask="url(#mask0_3_196)">
<path d="M40.6 0.333344H4.33332C1.9769 0.333344 0.0666504 2.2436 0.0666504 4.60001V28.0667C0.0666504 30.4231 1.9769 32.3333 4.33332 32.3333H40.6C42.9564 32.3333 44.8666 30.4231 44.8666 28.0667V4.60001C44.8666 2.2436 42.9564 0.333344 40.6 0.333344Z" fill="#00976D"/>
<path fill-rule="evenodd" clip-rule="evenodd" d="M0.0666504 21.6667H44.8666V32.3333H0.0666504V21.6667Z" fill="#D82300"/>
<path fill-rule="evenodd" clip-rule="evenodd" d="M0.0666504 0.333344H44.8666V11H0.0666504V0.333344Z" fill="white"/>
<path d="M40.6 1.39999H4.3333C2.56599 1.39999 1.1333 2.83268 1.1333 4.59999V28.0667C1.1333 29.834 2.56599 31.2667 4.3333 31.2667H40.6C42.3673 31.2667 43.8 29.834 43.8 28.0667V4.59999C43.8 2.83268 42.3673 1.39999 40.6 1.39999Z" stroke="black" stroke-opacity="0.1" stroke-width="2.13333"/>
</g>
</g>
<defs>
<clipPath id="clip0_3_196">
<rect width="44.8" height="32" fill="white" transform="translate(0.0666504 0.333344)"/>
</clipPath>
</defs>
</svg>
