<svg width="45" height="33" viewBox="0 0 45 33" fill="none" xmlns="http://www.w3.org/2000/svg">
<mask id="mask0_3_194" style="mask-type:alpha" maskUnits="userSpaceOnUse" x="0" y="0" width="45" height="33">
<path d="M40.5333 0.666656H4.26667C1.91025 0.666656 0 2.57691 0 4.93332V28.4C0 30.7564 1.91025 32.6667 4.26667 32.6667H40.5333C42.8897 32.6667 44.8 30.7564 44.8 28.4V4.93332C44.8 2.57691 42.8897 0.666656 40.5333 0.666656Z" fill="white"/>
</mask>
<g mask="url(#mask0_3_194)">
<path d="M40.5333 0.666656H4.26667C1.91025 0.666656 0 2.57691 0 4.93332V28.4C0 30.7564 1.91025 32.6667 4.26667 32.6667H40.5333C42.8897 32.6667 44.8 30.7564 44.8 28.4V4.93332C44.8 2.57691 42.8897 0.666656 40.5333 0.666656Z" fill="#D0091E"/>
<path fill-rule="evenodd" clip-rule="evenodd" d="M0 0.666656L21.3333 17.7333L0 32.6667V0.666656ZM44.8 0.666656L23.4667 17.7333L44.8 32.6667V0.666656Z" fill="#08B731"/>
<path fill-rule="evenodd" clip-rule="evenodd" d="M15.2704 14.4395L0 3.86666V0.666656H3.2L17.8069 10.7787C19.072 9.78879 20.6656 9.19999 22.4 9.19999C24.1323 9.19999 25.728 9.78879 26.9931 10.7787L41.6 0.666656H44.8V3.86666L29.5296 14.4395C29.7493 15.1435 29.8667 15.8901 29.8667 16.6667C29.8667 17.4432 29.7493 18.1899 29.5296 18.8939L44.8 29.4667V32.6667H41.6L26.9931 22.5547C25.7259 23.5445 24.1344 24.1333 22.4 24.1333C20.6677 24.1333 19.072 23.5445 17.8069 22.5547L3.2 32.6667H0V29.4667L15.2704 18.8939C15.0507 18.1899 14.9333 17.4432 14.9333 16.6667C14.9333 15.8901 15.0507 15.1435 15.2704 14.4395V14.4395Z" fill="white"/>
<path fill-rule="evenodd" clip-rule="evenodd" d="M21.3333 13.4667H23.4667V15.6H21.3333V13.4667ZM23.4667 17.7333H25.6V19.8667H23.4667V17.7333ZM19.2 17.7333H21.3333V19.8667H19.2V17.7333Z" fill="#D0091E"/>
<path d="M40.5333 1.73334H4.26667C2.49935 1.73334 1.06667 3.16603 1.06667 4.93334V28.4C1.06667 30.1673 2.49935 31.6 4.26667 31.6H40.5333C42.3006 31.6 43.7333 30.1673 43.7333 28.4V4.93334C43.7333 3.16603 42.3006 1.73334 40.5333 1.73334Z" stroke="black" stroke-opacity="0.1" stroke-width="2.13333"/>
</g>
</svg>
