<svg width="45" height="33" viewBox="0 0 45 33" fill="none" xmlns="http://www.w3.org/2000/svg">
<mask id="mask0_3_193" style="mask-type:alpha" maskUnits="userSpaceOnUse" x="0" y="0" width="45" height="33">
<path d="M40.6667 0.666656H4.40001C2.0436 0.666656 0.133347 2.57691 0.133347 4.93332V28.4C0.133347 30.7564 2.0436 32.6667 4.40001 32.6667H40.6667C43.0231 32.6667 44.9333 30.7564 44.9333 28.4V4.93332C44.9333 2.57691 43.0231 0.666656 40.6667 0.666656Z" fill="white"/>
</mask>
<g mask="url(#mask0_3_193)">
<path d="M40.6667 0.666656H4.40001C2.0436 0.666656 0.133347 2.57691 0.133347 4.93332V28.4C0.133347 30.7564 2.0436 32.6667 4.40001 32.6667H40.6667C43.0231 32.6667 44.9333 30.7564 44.9333 28.4V4.93332C44.9333 2.57691 43.0231 0.666656 40.6667 0.666656Z" fill="#FDD200"/>
<path fill-rule="evenodd" clip-rule="evenodd" d="M17.2 17.7333H44.9333V32.6667H17.2V17.7333Z" fill="#EB0624"/>
<path fill-rule="evenodd" clip-rule="evenodd" d="M0.133347 0.666656H17.2V32.6667H0.133347V0.666656Z" fill="#00884F"/>
<path d="M40.6667 1.73334H4.4C2.63269 1.73334 1.2 3.16603 1.2 4.93334V28.4C1.2 30.1673 2.63269 31.6 4.4 31.6H40.6667C42.434 31.6 43.8667 30.1673 43.8667 28.4V4.93334C43.8667 3.16603 42.434 1.73334 40.6667 1.73334Z" stroke="black" stroke-opacity="0.1" stroke-width="2.13333"/>
</g>
</svg>
