<svg width="46" height="33" viewBox="0 0 46 33" fill="none" xmlns="http://www.w3.org/2000/svg">
<g clip-path="url(#clip0_3_192)">
<mask id="mask0_3_192" style="mask-type:alpha" maskUnits="userSpaceOnUse" x="0" y="0" width="46" height="33">
<path d="M40.8 0.666656H4.53336C2.17694 0.666656 0.266693 2.57691 0.266693 4.93332V28.4C0.266693 30.7564 2.17694 32.6667 4.53336 32.6667H40.8C43.1564 32.6667 45.0667 30.7564 45.0667 28.4V4.93332C45.0667 2.57691 43.1564 0.666656 40.8 0.666656Z" fill="white"/>
</mask>
<g mask="url(#mask0_3_192)">
<path d="M40.8 0.666656H4.53336C2.17694 0.666656 0.266693 2.57691 0.266693 4.93332V28.4C0.266693 30.7564 2.17694 32.6667 4.53336 32.6667H40.8C43.1564 32.6667 45.0667 30.7564 45.0667 28.4V4.93332C45.0667 2.57691 43.1564 0.666656 40.8 0.666656Z" fill="#F8E200"/>
<path fill-rule="evenodd" clip-rule="evenodd" d="M0.266693 0.666656L45.0667 22V30.5333L0.266693 9.19999V0.666656Z" fill="white"/>
<path fill-rule="evenodd" clip-rule="evenodd" d="M0.266693 7.06667L45.0667 28.4V32.6667L0.266693 11.3333V7.06667Z" fill="black"/>
<path fill-rule="evenodd" clip-rule="evenodd" d="M17.3333 15.6L19.4667 17.7333V26.2667L15.2 24.1333V19.8667L10.9333 15.6L15.2 11.3333L17.3333 13.4667V15.6ZM19.4667 19.8667H25.8667V22H19.4667V19.8667ZM28 15.6L25.8667 17.7333V26.2667L30.1334 24.1333V19.8667L34.4 15.6L30.1334 11.3333L28 13.4667V15.6ZM19.4667 13.4667H25.8667L22.6667 7.06667L19.4667 13.4667Z" fill="#D1091E"/>
<path d="M40.8 1.73334H4.53331C2.766 1.73334 1.33331 3.16603 1.33331 4.93334V28.4C1.33331 30.1673 2.766 31.6 4.53331 31.6H40.8C42.5673 31.6 44 30.1673 44 28.4V4.93334C44 3.16603 42.5673 1.73334 40.8 1.73334Z" stroke="black" stroke-opacity="0.1" stroke-width="2.13333"/>
</g>
</g>
<defs>
<clipPath id="clip0_3_192">
<rect width="44.8" height="32" fill="white" transform="translate(0.266693 0.666656)"/>
</clipPath>
</defs>
</svg>
