<svg width="46" height="33" viewBox="0 0 46 33" fill="none" xmlns="http://www.w3.org/2000/svg">
<g clip-path="url(#clip0_3_191)">
<mask id="mask0_3_191" style="mask-type:alpha" maskUnits="userSpaceOnUse" x="0" y="0" width="46" height="33">
<path d="M40.9333 0.666656H4.66666C2.31025 0.666656 0.399994 2.57691 0.399994 4.93332V28.4C0.399994 30.7564 2.31025 32.6667 4.66666 32.6667H40.9333C43.2897 32.6667 45.2 30.7564 45.2 28.4V4.93332C45.2 2.57691 43.2897 0.666656 40.9333 0.666656Z" fill="white"/>
</mask>
<g mask="url(#mask0_3_191)">
<path d="M40.9333 0.666656H4.66666C2.31025 0.666656 0.399994 2.57691 0.399994 4.93332V28.4C0.399994 30.7564 2.31025 32.6667 4.66666 32.6667H40.9333C43.2897 32.6667 45.2 30.7564 45.2 28.4V4.93332C45.2 2.57691 43.2897 0.666656 40.9333 0.666656Z" fill="#FFE200"/>
<path fill-rule="evenodd" clip-rule="evenodd" d="M19.6 15.6H21.7333V17.7333H19.6V15.6ZM23.8667 15.6H26V17.7333H23.8667V15.6Z" fill="#009BBE"/>
<path fill-rule="evenodd" clip-rule="evenodd" d="M26 15.6H28.1333V19.8667H26V15.6ZM23.8667 13.4667H26V15.6H23.8667V13.4667ZM19.6 13.4667H21.7333V15.6H19.6V13.4667ZM17.4667 15.6H19.6V19.8667H17.4667V15.6Z" fill="#D7280F"/>
<path fill-rule="evenodd" clip-rule="evenodd" d="M21.7333 17.7333H23.8667V19.8667H21.7333V17.7333Z" fill="#007B30"/>
<path fill-rule="evenodd" clip-rule="evenodd" d="M21.7333 13.4667H23.8667V15.6H21.7333V13.4667Z" fill="#3F291F"/>
<path fill-rule="evenodd" clip-rule="evenodd" d="M23.8667 17.7333H26V19.8667H23.8667V17.7333ZM19.6 17.7333H21.7333V19.8667H19.6V17.7333Z" fill="#EAA400"/>
<path fill-rule="evenodd" clip-rule="evenodd" d="M21.7333 15.6H23.8667V17.7333H21.7333V15.6Z" fill="#3B5B27"/>
<path fill-rule="evenodd" clip-rule="evenodd" d="M0.399994 22H45.2V32.6667H0.399994V22Z" fill="#007A30"/>
<path fill-rule="evenodd" clip-rule="evenodd" d="M0.399994 0.666656H45.2V11.3333H0.399994V0.666656Z" fill="#D7280F"/>
<path d="M40.9333 1.73334H4.66668C2.89936 1.73334 1.46667 3.16603 1.46667 4.93334V28.4C1.46667 30.1673 2.89936 31.6 4.66668 31.6H40.9333C42.7007 31.6 44.1333 30.1673 44.1333 28.4V4.93334C44.1333 3.16603 42.7007 1.73334 40.9333 1.73334Z" stroke="black" stroke-opacity="0.1" stroke-width="2.13333"/>
</g>
</g>
<defs>
<clipPath id="clip0_3_191">
<rect width="44.8" height="32" fill="white" transform="translate(0.399994 0.666656)"/>
</clipPath>
</defs>
</svg>
