<svg width="46" height="33" viewBox="0 0 46 33" fill="none" xmlns="http://www.w3.org/2000/svg">
<g clip-path="url(#clip0_3_190)">
<mask id="mask0_3_190" style="mask-type:alpha" maskUnits="userSpaceOnUse" x="0" y="0" width="46" height="33">
<path d="M41.0667 0.666656H4.79999C2.44358 0.666656 0.533325 2.57691 0.533325 4.93332V28.4C0.533325 30.7564 2.44358 32.6667 4.79999 32.6667H41.0667C43.4231 32.6667 45.3333 30.7564 45.3333 28.4V4.93332C45.3333 2.57691 43.4231 0.666656 41.0667 0.666656Z" fill="white"/>
</mask>
<g mask="url(#mask0_3_190)">
<path d="M41.0667 0.666656H4.79999C2.44358 0.666656 0.533325 2.57691 0.533325 4.93332V28.4C0.533325 30.7564 2.44358 32.6667 4.79999 32.6667H41.0667C43.4231 32.6667 45.3333 30.7564 45.3333 28.4V4.93332C45.3333 2.57691 43.4231 0.666656 41.0667 0.666656Z" fill="#009C34"/>
<path fill-rule="evenodd" clip-rule="evenodd" d="M22.9334 4.93333L38.9334 16.6667L22.9334 28.4L6.93335 16.6667" fill="#F8E23D"/>
<path d="M22.9333 24.1333C27.0571 24.1333 30.4 20.7904 30.4 16.6667C30.4 12.543 27.0571 9.20001 22.9333 9.20001C18.8096 9.20001 15.4667 12.543 15.4667 16.6667C15.4667 20.7904 18.8096 24.1333 22.9333 24.1333Z" fill="#002478"/>
<path fill-rule="evenodd" clip-rule="evenodd" d="M19.7333 19.8667V22H21.8667V19.8667H19.7333ZM24 19.8667V22H26.1333V19.8667H24Z" fill="#91A1C3"/>
<path d="M17.6 13.4667C17.6 13.4667 22.4299 14.32 25.9115 15.8091L30.4 17.7333" stroke="#C9D0E0" stroke-width="2.13333"/>
<path d="M41.0667 1.73334H4.80001C3.03269 1.73334 1.60001 3.16603 1.60001 4.93334V28.4C1.60001 30.1673 3.03269 31.6 4.80001 31.6H41.0667C42.834 31.6 44.2667 30.1673 44.2667 28.4V4.93334C44.2667 3.16603 42.834 1.73334 41.0667 1.73334Z" stroke="black" stroke-opacity="0.1" stroke-width="2.13333"/>
</g>
</g>
<defs>
<clipPath id="clip0_3_190">
<rect width="44.8" height="32" fill="white" transform="translate(0.533325 0.666656)"/>
</clipPath>
</defs>
</svg>
