<svg width="46" height="33" viewBox="0 0 46 33" fill="none" xmlns="http://www.w3.org/2000/svg">
<mask id="mask0_3_189" style="mask-type:alpha" maskUnits="userSpaceOnUse" x="0" y="0" width="46" height="33">
<path d="M41.2 0.666656H4.93332C2.57691 0.666656 0.666656 2.57691 0.666656 4.93332V28.4C0.666656 30.7564 2.57691 32.6667 4.93332 32.6667H41.2C43.5564 32.6667 45.4667 30.7564 45.4667 28.4V4.93332C45.4667 2.57691 43.5564 0.666656 41.2 0.666656Z" fill="white"/>
</mask>
<g mask="url(#mask0_3_189)">
<path d="M41.2 0.666656H4.93332C2.57691 0.666656 0.666656 2.57691 0.666656 4.93332V28.4C0.666656 30.7564 2.57691 32.6667 4.93332 32.6667H41.2C43.5564 32.6667 45.4667 30.7564 45.4667 28.4V4.93332C45.4667 2.57691 43.5564 0.666656 41.2 0.666656Z" fill="#D0091E"/>
<path fill-rule="evenodd" clip-rule="evenodd" d="M0.666656 0.666656H15.6V32.6667H0.666656V0.666656ZM15.6 0.666656L19.8667 3.86666L15.6 7.06666V0.666656ZM15.6 7.06666L19.8667 10.2667L15.6 13.4667V7.06666ZM15.6 13.4667L19.8667 16.6667L15.6 19.8667V13.4667ZM15.6 19.8667L19.8667 23.0667L15.6 26.2667V19.8667ZM15.6 26.2667L19.8667 29.4667L15.6 32.6667V26.2667Z" fill="white"/>
<path d="M41.2 1.73334H4.93334C3.16603 1.73334 1.73334 3.16603 1.73334 4.93334V28.4C1.73334 30.1673 3.16603 31.6 4.93334 31.6H41.2C42.9673 31.6 44.4 30.1673 44.4 28.4V4.93334C44.4 3.16603 42.9673 1.73334 41.2 1.73334Z" stroke="black" stroke-opacity="0.1" stroke-width="2.13333"/>
</g>
</svg>
