<svg width="46" height="33" viewBox="0 0 46 33" fill="none" xmlns="http://www.w3.org/2000/svg">
<g clip-path="url(#clip0_3_188)">
<mask id="mask0_3_188" style="mask-type:alpha" maskUnits="userSpaceOnUse" x="0" y="0" width="46" height="33">
<path d="M41.3333 0.666656H5.06665C2.71024 0.666656 0.799988 2.57691 0.799988 4.93332V28.4C0.799988 30.7564 2.71024 32.6667 5.06665 32.6667H41.3333C43.6897 32.6667 45.6 30.7564 45.6 28.4V4.93332C45.6 2.57691 43.6897 0.666656 41.3333 0.666656Z" fill="white"/>
</mask>
<g mask="url(#mask0_3_188)">
<path d="M41.3333 0.666656H5.06665C2.71024 0.666656 0.799988 2.57691 0.799988 4.93332V28.4C0.799988 30.7564 2.71024 32.6667 5.06665 32.6667H41.3333C43.6897 32.6667 45.6 30.7564 45.6 28.4V4.93332C45.6 2.57691 43.6897 0.666656 41.3333 0.666656Z" fill="#FF4D00"/>
<path fill-rule="evenodd" clip-rule="evenodd" d="M0.799988 32.6667L45.6 0.666656H0.799988V32.6667Z" fill="#FFD700"/>
<path fill-rule="evenodd" clip-rule="evenodd" d="M7.20001 22L8.26668 25.2L12.5333 26.2667L13.6 24.1333L22.1333 25.2L20 19.8667H24.2667L30.6667 22L32.8 19.8667L26.4 17.7333L28.5333 15.6H34.9333L36 13.4667H30.6667V11.3333H34.9333L37.0667 9.2L28.5333 7.06667L24.2667 11.3333L22.1333 13.4667L24.2667 15.6L17.8667 14.5333L13.6 22L11.4667 24.1333L7.20001 22Z" fill="white"/>
<path d="M41.3333 1.73334H5.06664C3.29933 1.73334 1.86664 3.16603 1.86664 4.93334V28.4C1.86664 30.1673 3.29933 31.6 5.06664 31.6H41.3333C43.1006 31.6 44.5333 30.1673 44.5333 28.4V4.93334C44.5333 3.16603 43.1006 1.73334 41.3333 1.73334Z" stroke="black" stroke-opacity="0.1" stroke-width="2.13333"/>
</g>
</g>
<defs>
<clipPath id="clip0_3_188">
<rect width="44.8" height="32" fill="white" transform="translate(0.799988 0.666656)"/>
</clipPath>
</defs>
</svg>
