<svg width="46" height="33" viewBox="0 0 46 33" fill="none" xmlns="http://www.w3.org/2000/svg">
<g clip-path="url(#clip0_3_187)">
<mask id="mask0_3_187" style="mask-type:alpha" maskUnits="userSpaceOnUse" x="0" y="0" width="46" height="33">
<path d="M41.4666 0.666656H5.19995C2.84354 0.666656 0.933289 2.57691 0.933289 4.93332V28.4C0.933289 30.7564 2.84354 32.6667 5.19995 32.6667H41.4666C43.823 32.6667 45.7333 30.7564 45.7333 28.4V4.93332C45.7333 2.57691 43.823 0.666656 41.4666 0.666656Z" fill="white"/>
</mask>
<g mask="url(#mask0_3_187)">
<path d="M41.4666 0.666656H5.19995C2.84354 0.666656 0.933289 2.57691 0.933289 4.93332V28.4C0.933289 30.7564 2.84354 32.6667 5.19995 32.6667H41.4666C43.823 32.6667 45.7333 30.7564 45.7333 28.4V4.93332C45.7333 2.57691 43.823 0.666656 41.4666 0.666656Z" fill="#F22722"/>
<path fill-rule="evenodd" clip-rule="evenodd" d="M13.7333 19.8667H0.933289V13.4667H13.7333V0.666656H20.1333V13.4667H45.7333V19.8667H20.1333V32.6667H13.7333V19.8667Z" fill="white"/>
<path fill-rule="evenodd" clip-rule="evenodd" d="M15.8666 17.7333H0.933289V15.6H15.8666V0.666656H18V15.6H45.7333V17.7333H18V32.6667H15.8666V17.7333Z" fill="#00256A"/>
<path d="M41.4667 1.73334H5.2C3.43269 1.73334 2 3.16603 2 4.93334V28.4C2 30.1673 3.43269 31.6 5.2 31.6H41.4667C43.234 31.6 44.6667 30.1673 44.6667 28.4V4.93334C44.6667 3.16603 43.234 1.73334 41.4667 1.73334Z" stroke="black" stroke-opacity="0.1" stroke-width="2.13333"/>
</g>
</g>
<defs>
<clipPath id="clip0_3_187">
<rect width="44.8" height="32" fill="white" transform="translate(0.933289 0.666656)"/>
</clipPath>
</defs>
</svg>
