<svg width="45" height="33" viewBox="0 0 45 33" fill="none" xmlns="http://www.w3.org/2000/svg">
<g clip-path="url(#clip0_3_186)">
<mask id="mask0_3_186" style="mask-type:alpha" maskUnits="userSpaceOnUse" x="0" y="0" width="45" height="33">
<path d="M40.6 0.666656H4.33332C1.9769 0.666656 0.0666504 2.57691 0.0666504 4.93332V28.4C0.0666504 30.7564 1.9769 32.6667 4.33332 32.6667H40.6C42.9564 32.6667 44.8666 30.7564 44.8666 28.4V4.93332C44.8666 2.57691 42.9564 0.666656 40.6 0.666656Z" fill="white"/>
</mask>
<g mask="url(#mask0_3_186)">
<path d="M40.6 0.666656H4.33332C1.9769 0.666656 0.0666504 2.57691 0.0666504 4.93332V28.4C0.0666504 30.7564 1.9769 32.6667 4.33332 32.6667H40.6C42.9564 32.6667 44.8666 30.7564 44.8666 28.4V4.93332C44.8666 2.57691 42.9564 0.666656 40.6 0.666656Z" fill="#73A9DD"/>
<path fill-rule="evenodd" clip-rule="evenodd" d="M0.0666504 19.8667H44.8666V22H0.0666504V19.8667Z" fill="white"/>
<path fill-rule="evenodd" clip-rule="evenodd" d="M0.0666504 13.4667H44.8666V19.8667H0.0666504V13.4667Z" fill="black"/>
<path fill-rule="evenodd" clip-rule="evenodd" d="M0.0666504 11.3333H44.8666V13.4667H0.0666504V11.3333Z" fill="white"/>
<path d="M40.6 1.73334H4.3333C2.56599 1.73334 1.1333 3.16603 1.1333 4.93334V28.4C1.1333 30.1673 2.56599 31.6 4.3333 31.6H40.6C42.3673 31.6 43.8 30.1673 43.8 28.4V4.93334C43.8 3.16603 42.3673 1.73334 40.6 1.73334Z" stroke="black" stroke-opacity="0.1" stroke-width="2.13333"/>
</g>
</g>
<defs>
<clipPath id="clip0_3_186">
<rect width="44.8" height="32" fill="white" transform="translate(0.0666504 0.666656)"/>
</clipPath>
</defs>
</svg>
