<svg width="45" height="33" viewBox="0 0 45 33" fill="none" xmlns="http://www.w3.org/2000/svg">
<g clip-path="url(#clip0_3_185)">
<mask id="mask0_3_185" style="mask-type:alpha" maskUnits="userSpaceOnUse" x="0" y="0" width="45" height="33">
<path d="M40.7333 0.666656H4.46668C2.11026 0.666656 0.200012 2.57691 0.200012 4.93332V28.4C0.200012 30.7564 2.11026 32.6667 4.46668 32.6667H40.7333C43.0898 32.6667 45 30.7564 45 28.4V4.93332C45 2.57691 43.0898 0.666656 40.7333 0.666656Z" fill="white"/>
</mask>
<g mask="url(#mask0_3_185)">
<path d="M40.7333 0.666656H4.46668C2.11026 0.666656 0.200012 2.57691 0.200012 4.93332V28.4C0.200012 30.7564 2.11026 32.6667 4.46668 32.6667H40.7333C43.0898 32.6667 45 30.7564 45 28.4V4.93332C45 2.57691 43.0898 0.666656 40.7333 0.666656Z" fill="#D0091E"/>
<path fill-rule="evenodd" clip-rule="evenodd" d="M6.60001 0.666656L10.8667 3.86666L6.60001 7.06666V0.666656ZM6.60001 7.06666L10.8667 10.2667L6.60001 13.4667V7.06666ZM6.60001 13.4667L10.8667 16.6667L6.60001 19.8667V13.4667ZM6.60001 19.8667L10.8667 23.0667L6.60001 26.2667V19.8667ZM6.60001 26.2667L10.8667 29.4667L6.60001 32.6667V26.2667ZM4.46668 0.666656L0.200012 3.86666L4.46668 7.06666V0.666656ZM4.46668 7.06666L0.200012 10.2667L4.46668 13.4667V7.06666ZM4.46668 13.4667L0.200012 16.6667L4.46668 19.8667V13.4667ZM4.46668 19.8667L0.200012 23.0667L4.46668 26.2667V19.8667ZM4.46668 26.2667L0.200012 29.4667L4.46668 32.6667V26.2667ZM4.46668 0.666656H6.60001V4.93332H4.46668V0.666656ZM4.46668 28.4H6.60001V32.6667H4.46668V28.4ZM4.46668 11.3333H6.60001V15.6H4.46668V11.3333ZM4.46668 7.06666H6.60001V9.19999H4.46668V7.06666ZM4.46668 24.1333H6.60001V26.2667H4.46668V24.1333ZM4.46668 17.7333H6.60001V22H4.46668V17.7333Z" fill="white"/>
<path fill-rule="evenodd" clip-rule="evenodd" d="M10.8667 24.1333H45V32.6667H10.8667V24.1333Z" fill="#46A753"/>
<path d="M40.7333 1.73334H4.46666C2.69935 1.73334 1.26666 3.16603 1.26666 4.93334V28.4C1.26666 30.1673 2.69935 31.6 4.46666 31.6H40.7333C42.5006 31.6 43.9333 30.1673 43.9333 28.4V4.93334C43.9333 3.16603 42.5006 1.73334 40.7333 1.73334Z" stroke="black" stroke-opacity="0.1" stroke-width="2.13333"/>
</g>
</g>
<defs>
<clipPath id="clip0_3_185">
<rect width="44.8" height="32" fill="white" transform="translate(0.200012 0.666656)"/>
</clipPath>
</defs>
</svg>
