<svg width="45" height="32" viewBox="0 0 45 32" fill="none" xmlns="http://www.w3.org/2000/svg">
<mask id="mask0_3_184" style="mask-type:alpha" maskUnits="userSpaceOnUse" x="0" y="0" width="45" height="32">
<path d="M40.5333 0H4.26667C1.91025 0 0 1.91025 0 4.26667V27.7333C0 30.0898 1.91025 32 4.26667 32H40.5333C42.8897 32 44.8 30.0898 44.8 27.7333V4.26667C44.8 1.91025 42.8897 0 40.5333 0Z" fill="white"/>
</mask>
<g mask="url(#mask0_3_184)">
<path d="M40.5333 0H4.26667C1.91025 0 0 1.91025 0 4.26667V27.7333C0 30.0898 1.91025 32 4.26667 32H40.5333C42.8897 32 44.8 30.0898 44.8 27.7333V4.26667C44.8 1.91025 42.8897 0 40.5333 0Z" fill="#003D89"/>
<path d="M22.4 25.6C27.7019 25.6 32 21.3019 32 16C32 10.6981 27.7019 6.4 22.4 6.4C17.0981 6.4 12.8 10.6981 12.8 16C12.8 21.3019 17.0981 25.6 22.4 25.6Z" fill="white"/>
<path fill-rule="evenodd" clip-rule="evenodd" d="M18.1333 17.0667H26.6667V19.2H18.1333V17.0667Z" fill="#CBCBCB"/>
<path fill-rule="evenodd" clip-rule="evenodd" d="M17.0667 10.6667H19.2V12.8H17.0667V10.6667ZM21.3333 8.53333H23.4667V10.6667H21.3333V8.53333ZM25.6 10.6667H27.7333V12.8H25.6V10.6667ZM27.7333 14.9333H29.8666V17.0667H27.7333V14.9333ZM25.6 19.2H27.7333V21.3333H25.6V19.2Z" fill="#5E9F47"/>
<path fill-rule="evenodd" clip-rule="evenodd" d="M23.4667 12.8H25.6V14.9333H23.4667V12.8Z" fill="#580A00"/>
<path fill-rule="evenodd" clip-rule="evenodd" d="M23.4667 14.9333H25.6V17.0667H23.4667V14.9333Z" fill="#B54B00"/>
<path fill-rule="evenodd" clip-rule="evenodd" d="M19.2 12.8H21.3333V14.9333H19.2V12.8Z" fill="#BD6100"/>
<path fill-rule="evenodd" clip-rule="evenodd" d="M19.2 14.9333H21.3333V17.0667H19.2V14.9333Z" fill="#F9B626"/>
<path fill-rule="evenodd" clip-rule="evenodd" d="M21.3333 21.3333H23.4667V23.4667H21.3333V21.3333ZM17.0667 19.2H19.2V21.3333H17.0667V19.2ZM14.9333 14.9333H17.0667V17.0667H14.9333V14.9333Z" fill="#5E9F47"/>
<path fill-rule="evenodd" clip-rule="evenodd" d="M0 27.7333H44.8V32H0V27.7333ZM0 0H44.8V4.26667H0V0Z" fill="#D0091E"/>
<path d="M40.5333 1.06667H4.26667C2.49935 1.06667 1.06667 2.49935 1.06667 4.26667V27.7333C1.06667 29.5006 2.49935 30.9333 4.26667 30.9333H40.5333C42.3006 30.9333 43.7333 29.5006 43.7333 27.7333V4.26667C43.7333 2.49935 42.3006 1.06667 40.5333 1.06667Z" stroke="black" stroke-opacity="0.1" stroke-width="2.13333"/>
</g>
</svg>
