<svg width="45" height="32" viewBox="0 0 45 32" fill="none" xmlns="http://www.w3.org/2000/svg">
<mask id="mask0_3_183" style="mask-type:alpha" maskUnits="userSpaceOnUse" x="0" y="0" width="45" height="32">
<path d="M40.6667 0H4.40001C2.0436 0 0.133347 1.91025 0.133347 4.26667V27.7333C0.133347 30.0898 2.0436 32 4.40001 32H40.6667C43.0231 32 44.9333 30.0898 44.9333 27.7333V4.26667C44.9333 1.91025 43.0231 0 40.6667 0Z" fill="white"/>
</mask>
<g mask="url(#mask0_3_183)">
<path d="M40.6667 0H4.40001C2.0436 0 0.133347 1.91025 0.133347 4.26667V27.7333C0.133347 30.0898 2.0436 32 4.40001 32H40.6667C43.0231 32 44.9333 30.0898 44.9333 27.7333V4.26667C44.9333 1.91025 43.0231 0 40.6667 0Z" fill="white"/>
<path fill-rule="evenodd" clip-rule="evenodd" d="M0.133347 0H10.8V32H0.133347V0ZM34.2667 0H44.9333V32H34.2667V0ZM22.5333 8.53333L20.4 12.8L17.2 10.6667V14.9333L15.0667 17.0667L19.3333 19.2H21.4667V23.4667H23.6V19.2H25.7333L30 17.0667L27.8667 14.9333V10.6667L24.4533 12.8L22.5333 8.53333Z" fill="#FF0000"/>
<path d="M40.6667 1.06667H4.4C2.63269 1.06667 1.2 2.49935 1.2 4.26667V27.7333C1.2 29.5006 2.63269 30.9333 4.4 30.9333H40.6667C42.434 30.9333 43.8667 29.5006 43.8667 27.7333V4.26667C43.8667 2.49935 42.434 1.06667 40.6667 1.06667Z" stroke="black" stroke-opacity="0.1" stroke-width="2.13333"/>
</g>
</svg>
