<svg width="46" height="32" viewBox="0 0 46 32" fill="none" xmlns="http://www.w3.org/2000/svg">
<g clip-path="url(#clip0_3_182)">
<mask id="mask0_3_182" style="mask-type:alpha" maskUnits="userSpaceOnUse" x="0" y="0" width="46" height="32">
<path d="M40.8 0H4.53336C2.17694 0 0.266693 1.91025 0.266693 4.26667V27.7333C0.266693 30.0898 2.17694 32 4.53336 32H40.8C43.1564 32 45.0667 30.0898 45.0667 27.7333V4.26667C45.0667 1.91025 43.1564 0 40.8 0Z" fill="white"/>
</mask>
<g mask="url(#mask0_3_182)">
<path d="M40.8 0H4.53336C2.17694 0 0.266693 1.91025 0.266693 4.26667V27.7333C0.266693 30.0898 2.17694 32 4.53336 32H40.8C43.1564 32 45.0667 30.0898 45.0667 27.7333V4.26667C45.0667 1.91025 43.1564 0 40.8 0Z" fill="#007BFF"/>
<path fill-rule="evenodd" clip-rule="evenodd" d="M9.8624 11.1573L6.7264 12.8064L7.32374 9.31413L4.78934 6.83946L8.2944 6.33386L9.8624 3.1552L11.4283 6.33386L14.9333 6.83946L12.3947 9.31413L12.9963 12.8043" fill="#FFE000"/>
<path fill-rule="evenodd" clip-rule="evenodd" d="M0.266693 29.8667L45.0667 6.4V-2.13333L0.266693 21.3333V29.8667Z" fill="#F8D800"/>
<path fill-rule="evenodd" clip-rule="evenodd" d="M0.266693 34.1333L45.0667 10.6667V2.13333L0.266693 25.6V34.1333Z" fill="#F8D800"/>
<path fill-rule="evenodd" clip-rule="evenodd" d="M0.266693 32L45.0667 8.53333V0L0.266693 23.4667V32Z" fill="#D00817"/>
<path d="M40.8 1.06667H4.53331C2.766 1.06667 1.33331 2.49935 1.33331 4.26667V27.7333C1.33331 29.5006 2.766 30.9333 4.53331 30.9333H40.8C42.5673 30.9333 44 29.5006 44 27.7333V4.26667C44 2.49935 42.5673 1.06667 40.8 1.06667Z" stroke="black" stroke-opacity="0.1" stroke-width="2.13333"/>
</g>
</g>
<defs>
<clipPath id="clip0_3_182">
<rect width="44.8" height="32" fill="white" transform="translate(0.266693)"/>
</clipPath>
</defs>
</svg>
