<svg width="46" height="32" viewBox="0 0 46 32" fill="none" xmlns="http://www.w3.org/2000/svg">
<g clip-path="url(#clip0_3_181)">
<mask id="mask0_3_181" style="mask-type:alpha" maskUnits="userSpaceOnUse" x="0" y="0" width="46" height="32">
<path d="M40.9333 0H4.66666C2.31025 0 0.399994 1.91025 0.399994 4.26667V27.7333C0.399994 30.0898 2.31025 32 4.66666 32H40.9333C43.2897 32 45.2 30.0898 45.2 27.7333V4.26667C45.2 1.91025 43.2897 0 40.9333 0Z" fill="white"/>
</mask>
<g mask="url(#mask0_3_181)">
<path d="M40.9333 0H4.66666C2.31025 0 0.399994 1.91025 0.399994 4.26667V27.7333C0.399994 30.0898 2.31025 32 4.66666 32H40.9333C43.2897 32 45.2 30.0898 45.2 27.7333V4.26667C45.2 1.91025 43.2897 0 40.9333 0Z" fill="white"/>
<path fill-rule="evenodd" clip-rule="evenodd" d="M0.399994 21.3333H45.2V32H0.399994V21.3333Z" fill="#FDD200"/>
<path fill-rule="evenodd" clip-rule="evenodd" d="M0.399994 17.0667H45.2V23.4667H0.399994V17.0667Z" fill="#20981D"/>
<path fill-rule="evenodd" clip-rule="evenodd" d="M0.399994 0H45.2V10.6667H0.399994V0Z" fill="#002D84"/>
<path fill-rule="evenodd" clip-rule="evenodd" d="M6.80002 4.26667H8.93335V6.4H6.80002V4.26667Z" fill="#FFCF00"/>
<path fill-rule="evenodd" clip-rule="evenodd" d="M4.66666 4.26666H6.79999V6.4H4.66666V4.26666ZM8.93332 4.26666H11.0667V6.4H8.93332V4.26666ZM6.79999 6.4H8.93332V8.53333H6.79999V6.4ZM6.79999 2.13333H8.93332V4.26666H6.79999V2.13333Z" fill="#A7972D"/>
<path fill-rule="evenodd" clip-rule="evenodd" d="M19.6 0H26V32H19.6V0Z" fill="#D4062E"/>
<path d="M40.9333 1.06667H4.66668C2.89936 1.06667 1.46667 2.49935 1.46667 4.26667V27.7333C1.46667 29.5006 2.89936 30.9333 4.66668 30.9333H40.9333C42.7007 30.9333 44.1333 29.5006 44.1333 27.7333V4.26667C44.1333 2.49935 42.7007 1.06667 40.9333 1.06667Z" stroke="black" stroke-opacity="0.1" stroke-width="2.13333"/>
</g>
</g>
<defs>
<clipPath id="clip0_3_181">
<rect width="44.8" height="32" fill="white" transform="translate(0.399994)"/>
</clipPath>
</defs>
</svg>
