<svg width="46" height="32" viewBox="0 0 46 32" fill="none" xmlns="http://www.w3.org/2000/svg">
<g clip-path="url(#clip0_3_180)">
<mask id="mask0_3_180" style="mask-type:alpha" maskUnits="userSpaceOnUse" x="0" y="0" width="46" height="32">
<path d="M41.0667 0H4.79999C2.44358 0 0.533325 1.91025 0.533325 4.26667V27.7333C0.533325 30.0898 2.44358 32 4.79999 32H41.0667C43.4231 32 45.3333 30.0898 45.3333 27.7333V4.26667C45.3333 1.91025 43.4231 0 41.0667 0Z" fill="white"/>
</mask>
<g mask="url(#mask0_3_180)">
<path d="M41.0667 0H4.79999C2.44358 0 0.533325 1.91025 0.533325 4.26667V27.7333C0.533325 30.0898 2.44358 32 4.79999 32H41.0667C43.4231 32 45.3333 30.0898 45.3333 27.7333V4.26667C45.3333 1.91025 43.4231 0 41.0667 0Z" fill="#00963F"/>
<path fill-rule="evenodd" clip-rule="evenodd" d="M13.3333 32L41.0667 0H45.3333V32H13.3333Z" fill="#DE2110"/>
<path fill-rule="evenodd" clip-rule="evenodd" d="M15.4667 32L45.3333 0H30.4L0.533325 32H15.4667Z" fill="#FCDF37"/>
<path d="M41.0667 1.06667H4.80001C3.03269 1.06667 1.60001 2.49935 1.60001 4.26667V27.7333C1.60001 29.5006 3.03269 30.9333 4.80001 30.9333H41.0667C42.834 30.9333 44.2667 29.5006 44.2667 27.7333V4.26667C44.2667 2.49935 42.834 1.06667 41.0667 1.06667Z" stroke="black" stroke-opacity="0.1" stroke-width="2.13333"/>
</g>
</g>
<defs>
<clipPath id="clip0_3_180">
<rect width="44.8" height="32" fill="white" transform="translate(0.533325)"/>
</clipPath>
</defs>
</svg>
