<svg width="46" height="32" viewBox="0 0 46 32" fill="none" xmlns="http://www.w3.org/2000/svg">
<mask id="mask0_3_179" style="mask-type:alpha" maskUnits="userSpaceOnUse" x="0" y="0" width="46" height="32">
<path d="M41.2 0H4.93332C2.57691 0 0.666656 1.91025 0.666656 4.26667V27.7333C0.666656 30.0898 2.57691 32 4.93332 32H41.2C43.5564 32 45.4667 30.0898 45.4667 27.7333V4.26667C45.4667 1.91025 43.5564 0 41.2 0Z" fill="white"/>
</mask>
<g mask="url(#mask0_3_179)">
<path d="M41.2 0H4.93332C2.57691 0 0.666656 1.91025 0.666656 4.26667V27.7333C0.666656 30.0898 2.57691 32 4.93332 32H41.2C43.5564 32 45.4667 30.0898 45.4667 27.7333V4.26667C45.4667 1.91025 43.5564 0 41.2 0Z" fill="#FF0400"/>
<path fill-rule="evenodd" clip-rule="evenodd" d="M19.8667 12.8H13.4667V19.2H19.8667V25.6H26.2667V19.2H32.6667V12.8H26.2667V6.4H19.8667V12.8Z" fill="white"/>
<path d="M41.2 1.06667H4.93334C3.16603 1.06667 1.73334 2.49935 1.73334 4.26667V27.7333C1.73334 29.5006 3.16603 30.9333 4.93334 30.9333H41.2C42.9673 30.9333 44.4 29.5006 44.4 27.7333V4.26667C44.4 2.49935 42.9673 1.06667 41.2 1.06667Z" stroke="black" stroke-opacity="0.1" stroke-width="2.13333"/>
</g>
</svg>
