<svg width="46" height="32" viewBox="0 0 46 32" fill="none" xmlns="http://www.w3.org/2000/svg">
<g clip-path="url(#clip0_3_177)">
<mask id="mask0_3_177" style="mask-type:alpha" maskUnits="userSpaceOnUse" x="0" y="0" width="46" height="32">
<path d="M41.4666 0H5.19995C2.84354 0 0.933289 1.91025 0.933289 4.26667V27.7333C0.933289 30.0898 2.84354 32 5.19995 32H41.4666C43.823 32 45.7333 30.0898 45.7333 27.7333V4.26667C45.7333 1.91025 43.823 0 41.4666 0Z" fill="white"/>
</mask>
<g mask="url(#mask0_3_177)">
<path d="M41.4666 0H5.19995C2.84354 0 0.933289 1.91025 0.933289 4.26667V27.7333C0.933289 30.0898 2.84354 32 5.19995 32H41.4666C43.823 32 45.7333 30.0898 45.7333 27.7333V4.26667C45.7333 1.91025 43.823 0 41.4666 0Z" fill="white"/>
<path fill-rule="evenodd" clip-rule="evenodd" d="M0.933289 0H20.1333V17.0667H0.933289V0Z" fill="#0034A9"/>
<path fill-rule="evenodd" clip-rule="evenodd" d="M10.5333 11.1509L7.39733 12.8L7.99467 9.30987L5.46027 6.8352L8.96533 6.32747L10.5333 3.1488L12.1013 6.32747L15.6064 6.83947L13.0677 9.30987L13.6693 12.8" fill="white"/>
<path fill-rule="evenodd" clip-rule="evenodd" d="M0.933289 17.0667H45.7333V32H0.933289V17.0667Z" fill="#D7280F"/>
<path d="M41.4667 1.06667H5.2C3.43269 1.06667 2 2.49935 2 4.26667V27.7333C2 29.5006 3.43269 30.9333 5.2 30.9333H41.4667C43.234 30.9333 44.6667 29.5006 44.6667 27.7333V4.26667C44.6667 2.49935 43.234 1.06667 41.4667 1.06667Z" stroke="black" stroke-opacity="0.1" stroke-width="2.13333"/>
</g>
</g>
<defs>
<clipPath id="clip0_3_177">
<rect width="44.8" height="32" fill="white" transform="translate(0.933289)"/>
</clipPath>
</defs>
</svg>
