<svg width="45" height="32" viewBox="0 0 45 32" fill="none" xmlns="http://www.w3.org/2000/svg">
<g clip-path="url(#clip0_3_176)">
<mask id="mask0_3_176" style="mask-type:alpha" maskUnits="userSpaceOnUse" x="0" y="0" width="45" height="32">
<path d="M40.6 0H4.33332C1.9769 0 0.0666504 1.91025 0.0666504 4.26667V27.7333C0.0666504 30.0898 1.9769 32 4.33332 32H40.6C42.9564 32 44.8666 30.0898 44.8666 27.7333V4.26667C44.8666 1.91025 42.9564 0 40.6 0Z" fill="white"/>
</mask>
<g mask="url(#mask0_3_176)">
<path d="M40.6 0H4.33332C1.9769 0 0.0666504 1.91025 0.0666504 4.26667V27.7333C0.0666504 30.0898 1.9769 32 4.33332 32H40.6C42.9564 32 44.8666 30.0898 44.8666 27.7333V4.26667C44.8666 1.91025 42.9564 0 40.6 0Z" fill="#D0091E"/>
<path fill-rule="evenodd" clip-rule="evenodd" d="M22.4667 18.6667L19.3307 20.3157L19.928 16.8235L17.3936 14.3488L20.8987 13.8432L22.4667 10.6667L24.0347 13.8453L27.5397 14.3509L25.0011 16.8256L25.5984 20.3157" fill="#FDD200"/>
<path fill-rule="evenodd" clip-rule="evenodd" d="M0.0666504 0H15V32H0.0666504V0Z" fill="#007B5D"/>
<path fill-rule="evenodd" clip-rule="evenodd" d="M29.9333 0H44.8667V32H29.9333V0Z" fill="#FDD200"/>
<path d="M40.6 1.06667H4.3333C2.56599 1.06667 1.1333 2.49935 1.1333 4.26667V27.7333C1.1333 29.5006 2.56599 30.9333 4.3333 30.9333H40.6C42.3673 30.9333 43.8 29.5006 43.8 27.7333V4.26667C43.8 2.49935 42.3673 1.06667 40.6 1.06667Z" stroke="black" stroke-opacity="0.1" stroke-width="2.13333"/>
</g>
</g>
<defs>
<clipPath id="clip0_3_176">
<rect width="44.8" height="32" fill="white" transform="translate(0.0666504)"/>
</clipPath>
</defs>
</svg>
