<svg width="45" height="32" viewBox="0 0 45 32" fill="none" xmlns="http://www.w3.org/2000/svg">
<g clip-path="url(#clip0_3_175)">
<mask id="mask0_3_175" style="mask-type:alpha" maskUnits="userSpaceOnUse" x="0" y="0" width="45" height="32">
<path d="M40.7333 0H4.46668C2.11026 0 0.200012 1.91025 0.200012 4.26667V27.7333C0.200012 30.0898 2.11026 32 4.46668 32H40.7333C43.0898 32 45 30.0898 45 27.7333V4.26667C45 1.91025 43.0898 0 40.7333 0Z" fill="white"/>
</mask>
<g mask="url(#mask0_3_175)">
<path d="M40.7333 0H4.46668C2.11026 0 0.200012 1.91025 0.200012 4.26667V27.7333C0.200012 30.0898 2.11026 32 4.46668 32H40.7333C43.0898 32 45 30.0898 45 27.7333V4.26667C45 1.91025 43.0898 0 40.7333 0Z" fill="#E02600"/>
<path fill-rule="evenodd" clip-rule="evenodd" d="M11.9291 15.424L8.79308 17.0731L9.39042 13.5808L6.85602 11.1061L10.3611 10.6005L11.9291 7.42187L13.495 10.6005L17 11.1061L14.4614 13.5808L15.063 17.0709L11.9291 15.424ZM19.4 6.4H21.5334V8.53333H19.4V6.4ZM21.5334 10.6667H23.6667V12.8H21.5334V10.6667ZM21.5334 14.9333H23.6667V17.0667H21.5334V14.9333ZM19.4 19.2H21.5334V21.3333H19.4V19.2Z" fill="#FFE000"/>
<path d="M40.7333 1.06667H4.46666C2.69935 1.06667 1.26666 2.49935 1.26666 4.26667V27.7333C1.26666 29.5006 2.69935 30.9333 4.46666 30.9333H40.7333C42.5006 30.9333 43.9333 29.5006 43.9333 27.7333V4.26667C43.9333 2.49935 42.5006 1.06667 40.7333 1.06667Z" stroke="black" stroke-opacity="0.1" stroke-width="2.13333"/>
</g>
</g>
<defs>
<clipPath id="clip0_3_175">
<rect width="44.8" height="32" fill="white" transform="translate(0.200012)"/>
</clipPath>
</defs>
</svg>
