<svg width="45" height="33" viewBox="0 0 45 33" fill="none" xmlns="http://www.w3.org/2000/svg">
<mask id="mask0_3_174" style="mask-type:alpha" maskUnits="userSpaceOnUse" x="0" y="0" width="45" height="33">
<path d="M40.5333 0.333328H4.26667C1.91025 0.333328 0 2.24358 0 4.6V28.0667C0 30.4231 1.91025 32.3333 4.26667 32.3333H40.5333C42.8897 32.3333 44.8 30.4231 44.8 28.0667V4.6C44.8 2.24358 42.8897 0.333328 40.5333 0.333328Z" fill="white"/>
</mask>
<g mask="url(#mask0_3_174)">
<path d="M40.5333 0.333328H4.26667C1.91025 0.333328 0 2.24358 0 4.6V28.0667C0 30.4231 1.91025 32.3333 4.26667 32.3333H40.5333C42.8897 32.3333 44.8 30.4231 44.8 28.0667V4.6C44.8 2.24358 42.8897 0.333328 40.5333 0.333328Z" fill="#003495"/>
<path fill-rule="evenodd" clip-rule="evenodd" d="M0 0.333328H44.8V15.2667H0V0.333328Z" fill="#FDD200"/>
<path fill-rule="evenodd" clip-rule="evenodd" d="M0 23.8H44.8V32.3333H0V23.8Z" fill="#D0091E"/>
<path d="M40.5333 1.4H4.26667C2.49935 1.4 1.06667 2.83269 1.06667 4.6V28.0667C1.06667 29.834 2.49935 31.2667 4.26667 31.2667H40.5333C42.3006 31.2667 43.7333 29.834 43.7333 28.0667V4.6C43.7333 2.83269 42.3006 1.4 40.5333 1.4Z" stroke="black" stroke-opacity="0.1" stroke-width="2.13333"/>
</g>
</svg>
