<svg width="45" height="33" viewBox="0 0 45 33" fill="none" xmlns="http://www.w3.org/2000/svg">
<mask id="mask0_3_173" style="mask-type:alpha" maskUnits="userSpaceOnUse" x="0" y="0" width="45" height="33">
<path d="M40.6667 0.333328H4.40001C2.0436 0.333328 0.133347 2.24358 0.133347 4.6V28.0667C0.133347 30.4231 2.0436 32.3333 4.40001 32.3333H40.6667C43.0231 32.3333 44.9333 30.4231 44.9333 28.0667V4.6C44.9333 2.24358 43.0231 0.333328 40.6667 0.333328Z" fill="white"/>
</mask>
<g mask="url(#mask0_3_173)">
<path d="M40.6667 0.333328H4.40001C2.0436 0.333328 0.133347 2.24358 0.133347 4.6V28.0667C0.133347 30.4231 2.0436 32.3333 4.40001 32.3333H40.6667C43.0231 32.3333 44.9333 30.4231 44.9333 28.0667V4.6C44.9333 2.24358 43.0231 0.333328 40.6667 0.333328Z" fill="#003495"/>
<path fill-rule="evenodd" clip-rule="evenodd" d="M0.133347 6.73333H44.9333V11H0.133347V6.73333Z" fill="white"/>
<path fill-rule="evenodd" clip-rule="evenodd" d="M0.133347 11H44.9333V21.6667H0.133347V11Z" fill="#D11C1F"/>
<path fill-rule="evenodd" clip-rule="evenodd" d="M0.133347 21.6667H44.9333V25.9333H0.133347V21.6667Z" fill="white"/>
<path d="M40.6667 1.4H4.4C2.63269 1.4 1.2 2.83269 1.2 4.6V28.0667C1.2 29.834 2.63269 31.2667 4.4 31.2667H40.6667C42.434 31.2667 43.8667 29.834 43.8667 28.0667V4.6C43.8667 2.83269 42.434 1.4 40.6667 1.4Z" stroke="black" stroke-opacity="0.1" stroke-width="2.13333"/>
</g>
</svg>
