<svg width="46" height="33" viewBox="0 0 46 33" fill="none" xmlns="http://www.w3.org/2000/svg">
<g clip-path="url(#clip0_3_172)">
<mask id="mask0_3_172" style="mask-type:alpha" maskUnits="userSpaceOnUse" x="0" y="0" width="46" height="33">
<path d="M40.8 0.333328H4.53336C2.17694 0.333328 0.266693 2.24358 0.266693 4.6V28.0667C0.266693 30.4231 2.17694 32.3333 4.53336 32.3333H40.8C43.1564 32.3333 45.0667 30.4231 45.0667 28.0667V4.6C45.0667 2.24358 43.1564 0.333328 40.8 0.333328Z" fill="white"/>
</mask>
<g mask="url(#mask0_3_172)">
<path d="M40.8 0.333328H4.53336C2.17694 0.333328 0.266693 2.24358 0.266693 4.6V28.0667C0.266693 30.4231 2.17694 32.3333 4.53336 32.3333H40.8C43.1564 32.3333 45.0667 30.4231 45.0667 28.0667V4.6C45.0667 2.24358 43.1564 0.333328 40.8 0.333328Z" fill="#003495"/>
<path fill-rule="evenodd" clip-rule="evenodd" d="M0.266693 6.73333H45.0667V13.1333H0.266693V6.73333ZM0.266693 19.5333H45.0667V25.9333H0.266693V19.5333Z" fill="white"/>
<path fill-rule="evenodd" clip-rule="evenodd" d="M0.266693 0.333328L25.8667 16.3333L0.266693 32.3333V0.333328Z" fill="#D10D24"/>
<path fill-rule="evenodd" clip-rule="evenodd" d="M9.86668 19L6.73068 20.6491L7.32801 17.1568L4.79361 14.6821L8.29868 14.1765L9.86668 11L11.4347 14.1787L14.9397 14.6843L12.4011 17.1589L12.9984 20.6491" fill="white"/>
<path d="M40.8 1.4H4.53331C2.766 1.4 1.33331 2.83269 1.33331 4.6V28.0667C1.33331 29.834 2.766 31.2667 4.53331 31.2667H40.8C42.5673 31.2667 44 29.834 44 28.0667V4.6C44 2.83269 42.5673 1.4 40.8 1.4Z" stroke="black" stroke-opacity="0.1" stroke-width="2.13333"/>
</g>
</g>
<defs>
<clipPath id="clip0_3_172">
<rect width="44.8" height="32" fill="white" transform="translate(0.266693 0.333328)"/>
</clipPath>
</defs>
</svg>
