<svg width="46" height="33" viewBox="0 0 46 33" fill="none" xmlns="http://www.w3.org/2000/svg">
<g clip-path="url(#clip0_3_171)">
<mask id="mask0_3_171" style="mask-type:alpha" maskUnits="userSpaceOnUse" x="0" y="0" width="46" height="33">
<path d="M40.9333 0.333328H4.66666C2.31025 0.333328 0.399994 2.24358 0.399994 4.6V28.0667C0.399994 30.4231 2.31025 32.3333 4.66666 32.3333H40.9333C43.2897 32.3333 45.2 30.4231 45.2 28.0667V4.6C45.2 2.24358 43.2897 0.333328 40.9333 0.333328Z" fill="white"/>
</mask>
<g mask="url(#mask0_3_171)">
<path d="M40.9333 0.333328H4.66666C2.31025 0.333328 0.399994 2.24358 0.399994 4.6V28.0667C0.399994 30.4231 2.31025 32.3333 4.66666 32.3333H40.9333C43.2897 32.3333 45.2 30.4231 45.2 28.0667V4.6C45.2 2.24358 43.2897 0.333328 40.9333 0.333328Z" fill="#003495"/>
<path fill-rule="evenodd" clip-rule="evenodd" d="M0.399994 17.4H45.2V19.5333H0.399994V17.4Z" fill="white"/>
<path fill-rule="evenodd" clip-rule="evenodd" d="M0.399994 19.5333H45.2V21.6667H0.399994V19.5333Z" fill="#D11C1F"/>
<path fill-rule="evenodd" clip-rule="evenodd" d="M0.399994 21.6667H45.2V23.8H0.399994V21.6667Z" fill="white"/>
<path fill-rule="evenodd" clip-rule="evenodd" d="M11.0667 15.2667H13.2V17.4H11.0667V15.2667ZM15.3333 13.1333H17.4667V15.2667H15.3333V13.1333ZM19.6 15.2667H21.7333V17.4H19.6V15.2667ZM21.7333 19.5333H23.8667V21.6667H21.7333V19.5333ZM8.93332 19.5333H11.0667V21.6667H8.93332V19.5333ZM19.6 23.8H21.7333V25.9333H19.6V23.8ZM15.3333 25.9333H17.4667V28.0667H15.3333V25.9333ZM11.0667 23.8H13.2V25.9333H11.0667V23.8Z" fill="#F8D300"/>
<path d="M40.9333 1.4H4.66668C2.89936 1.4 1.46667 2.83269 1.46667 4.6V28.0667C1.46667 29.834 2.89936 31.2667 4.66668 31.2667H40.9333C42.7007 31.2667 44.1333 29.834 44.1333 28.0667V4.6C44.1333 2.83269 42.7007 1.4 40.9333 1.4Z" stroke="black" stroke-opacity="0.1" stroke-width="2.13333"/>
</g>
</g>
<defs>
<clipPath id="clip0_3_171">
<rect width="44.8" height="32" fill="white" transform="translate(0.399994 0.333328)"/>
</clipPath>
</defs>
</svg>
