<svg width="46" height="33" viewBox="0 0 46 33" fill="none" xmlns="http://www.w3.org/2000/svg">
<g clip-path="url(#clip0_3_170)">
<mask id="mask0_3_170" style="mask-type:alpha" maskUnits="userSpaceOnUse" x="0" y="0" width="46" height="33">
<path d="M41.0667 0.333328H4.79999C2.44358 0.333328 0.533325 2.24358 0.533325 4.6V28.0667C0.533325 30.4231 2.44358 32.3333 4.79999 32.3333H41.0667C43.4231 32.3333 45.3333 30.4231 45.3333 28.0667V4.6C45.3333 2.24358 43.4231 0.333328 41.0667 0.333328Z" fill="white"/>
</mask>
<g mask="url(#mask0_3_170)">
<path d="M41.0667 0.333328H4.79999C2.44358 0.333328 0.533325 2.24358 0.533325 4.6V28.0667C0.533325 30.4231 2.44358 32.3333 4.79999 32.3333H41.0667C43.4231 32.3333 45.3333 30.4231 45.3333 28.0667V4.6C45.3333 2.24358 43.4231 0.333328 41.0667 0.333328Z" fill="#002B7F"/>
<path fill-rule="evenodd" clip-rule="evenodd" d="M11.2 11H10.1235C9.52696 11 9.06668 11.4776 9.06668 12.0667C9.06668 12.6385 9.53984 13.1333 10.1235 13.1333H11.2V14.2098C11.2 14.8064 11.6776 15.2667 12.2667 15.2667C12.8386 15.2667 13.3333 14.7935 13.3333 14.2098V13.1333H14.4099C15.0064 13.1333 15.4667 12.6558 15.4667 12.0667C15.4667 11.4948 14.9935 11 14.4099 11H13.3333V9.92349C13.3333 9.32694 12.8558 8.86666 12.2667 8.86666C11.6948 8.86666 11.2 9.33982 11.2 9.92349V11ZM6.93335 6.73333H9.06668V8.86666H6.93335V6.73333Z" fill="white"/>
<path d="M45.3333 19.5333H0.533325V23.8H45.3333V19.5333Z" fill="#F9E814"/>
<path d="M41.0667 1.4H4.80001C3.03269 1.4 1.60001 2.83269 1.60001 4.6V28.0667C1.60001 29.834 3.03269 31.2667 4.80001 31.2667H41.0667C42.834 31.2667 44.2667 29.834 44.2667 28.0667V4.6C44.2667 2.83269 42.834 1.4 41.0667 1.4Z" stroke="black" stroke-opacity="0.1" stroke-width="2.13333"/>
</g>
</g>
<defs>
<clipPath id="clip0_3_170">
<rect width="44.8" height="32" fill="white" transform="translate(0.533325 0.333328)"/>
</clipPath>
</defs>
</svg>
