<svg width="46" height="33" viewBox="0 0 46 33" fill="none" xmlns="http://www.w3.org/2000/svg">
<mask id="mask0_3_169" style="mask-type:alpha" maskUnits="userSpaceOnUse" x="0" y="0" width="46" height="33">
<path d="M41.2 0.333328H4.93332C2.57691 0.333328 0.666656 2.24358 0.666656 4.6V28.0667C0.666656 30.4231 2.57691 32.3333 4.93332 32.3333H41.2C43.5564 32.3333 45.4667 30.4231 45.4667 28.0667V4.6C45.4667 2.24358 43.5564 0.333328 41.2 0.333328Z" fill="white"/>
</mask>
<g mask="url(#mask0_3_169)">
<path d="M41.2 0.333328H4.93332C2.57691 0.333328 0.666656 2.24358 0.666656 4.6V28.0667C0.666656 30.4231 2.57691 32.3333 4.93332 32.3333H41.2C43.5564 32.3333 45.4667 30.4231 45.4667 28.0667V4.6C45.4667 2.24358 43.5564 0.333328 41.2 0.333328Z" fill="white"/>
<path fill-rule="evenodd" clip-rule="evenodd" d="M11.3333 13.1333C11.3333 13.1333 13.4667 19.5333 19.8667 19.5333C26.2667 19.5333 32.6667 13.1333 32.6667 13.1333H28.4L34.8 6.73333L22 11L17.7333 6.73333L15.6 11L11.3333 13.1333Z" fill="#DA7500"/>
<path fill-rule="evenodd" clip-rule="evenodd" d="M11.3333 19.5333L22 23.8V25.9333L9.20001 21.6667L11.3333 19.5333ZM34.8 19.5333L24.1333 23.8V25.9333L36.9333 21.6667L34.8 19.5333ZM22 23.8H24.1333V28.0667H22V23.8Z" fill="#435121"/>
<path d="M41.2 1.4H4.93334C3.16603 1.4 1.73334 2.83269 1.73334 4.6V28.0667C1.73334 29.834 3.16603 31.2667 4.93334 31.2667H41.2C42.9673 31.2667 44.4 29.834 44.4 28.0667V4.6C44.4 2.83269 42.9673 1.4 41.2 1.4Z" stroke="black" stroke-opacity="0.1" stroke-width="2.13333"/>
</g>
</svg>
