<svg width="46" height="33" viewBox="0 0 46 33" fill="none" xmlns="http://www.w3.org/2000/svg">
<g clip-path="url(#clip0_3_168)">
<mask id="mask0_3_168" style="mask-type:alpha" maskUnits="userSpaceOnUse" x="0" y="0" width="46" height="33">
<path d="M41.3333 0.333328H5.06665C2.71024 0.333328 0.799988 2.24358 0.799988 4.6V28.0667C0.799988 30.4231 2.71024 32.3333 5.06665 32.3333H41.3333C43.6897 32.3333 45.6 30.4231 45.6 28.0667V4.6C45.6 2.24358 43.6897 0.333328 41.3333 0.333328Z" fill="white"/>
</mask>
<g mask="url(#mask0_3_168)">
<path d="M41.3333 0.333328H5.06665C2.71024 0.333328 0.799988 2.24358 0.799988 4.6V28.0667C0.799988 30.4231 2.71024 32.3333 5.06665 32.3333H41.3333C43.6897 32.3333 45.6 30.4231 45.6 28.0667V4.6C45.6 2.24358 43.6897 0.333328 41.3333 0.333328Z" fill="#D90D08"/>
<path fill-rule="evenodd" clip-rule="evenodd" d="M0.799988 0.333328H45.6V15.2667H0.799988V0.333328Z" fill="white"/>
<path fill-rule="evenodd" clip-rule="evenodd" d="M0.799988 0.333328L22.1333 16.3333L0.799988 32.3333V0.333328Z" fill="#0B4380"/>
<path d="M41.3333 1.4H5.06664C3.29933 1.4 1.86664 2.83269 1.86664 4.6V28.0667C1.86664 29.834 3.29933 31.2667 5.06664 31.2667H41.3333C43.1006 31.2667 44.5333 29.834 44.5333 28.0667V4.6C44.5333 2.83269 43.1006 1.4 41.3333 1.4Z" stroke="black" stroke-opacity="0.1" stroke-width="2.13333"/>
</g>
</g>
<defs>
<clipPath id="clip0_3_168">
<rect width="44.8" height="32" fill="white" transform="translate(0.799988 0.333328)"/>
</clipPath>
</defs>
</svg>
