<svg width="46" height="33" viewBox="0 0 46 33" fill="none" xmlns="http://www.w3.org/2000/svg">
<g clip-path="url(#clip0_3_167)">
<mask id="mask0_3_167" style="mask-type:alpha" maskUnits="userSpaceOnUse" x="0" y="0" width="46" height="33">
<path d="M41.4666 0.333328H5.19995C2.84354 0.333328 0.933289 2.24358 0.933289 4.6V28.0667C0.933289 30.4231 2.84354 32.3333 5.19995 32.3333H41.4666C43.823 32.3333 45.7333 30.4231 45.7333 28.0667V4.6C45.7333 2.24358 43.823 0.333328 41.4666 0.333328Z" fill="white"/>
</mask>
<g mask="url(#mask0_3_167)">
<path d="M41.4666 0.333328H5.19995C2.84354 0.333328 0.933289 2.24358 0.933289 4.6V28.0667C0.933289 30.4231 2.84354 32.3333 5.19995 32.3333H41.4666C43.823 32.3333 45.7333 30.4231 45.7333 28.0667V4.6C45.7333 2.24358 43.823 0.333328 41.4666 0.333328Z" fill="#E00000"/>
<path fill-rule="evenodd" clip-rule="evenodd" d="M0.933289 21.6667H45.7333V32.3333H0.933289V21.6667Z" fill="#FFCF00"/>
<path fill-rule="evenodd" clip-rule="evenodd" d="M0.933289 0.333328H45.7333V11H0.933289V0.333328Z" fill="black"/>
<path d="M41.4667 1.4H5.2C3.43269 1.4 2 2.83269 2 4.6V28.0667C2 29.834 3.43269 31.2667 5.2 31.2667H41.4667C43.234 31.2667 44.6667 29.834 44.6667 28.0667V4.6C44.6667 2.83269 43.234 1.4 41.4667 1.4Z" stroke="black" stroke-opacity="0.1" stroke-width="2.13333"/>
</g>
</g>
<defs>
<clipPath id="clip0_3_167">
<rect width="44.8" height="32" fill="white" transform="translate(0.933289 0.333328)"/>
</clipPath>
</defs>
</svg>
