<svg width="45" height="33" viewBox="0 0 45 33" fill="none" xmlns="http://www.w3.org/2000/svg">
<g clip-path="url(#clip0_3_166)">
<mask id="mask0_3_166" style="mask-type:alpha" maskUnits="userSpaceOnUse" x="0" y="0" width="45" height="33">
<path d="M40.6 0.333328H4.33332C1.9769 0.333328 0.0666504 2.24358 0.0666504 4.6V28.0667C0.0666504 30.4231 1.9769 32.3333 4.33332 32.3333H40.6C42.9564 32.3333 44.8666 30.4231 44.8666 28.0667V4.6C44.8666 2.24358 42.9564 0.333328 40.6 0.333328Z" fill="white"/>
</mask>
<g mask="url(#mask0_3_166)">
<path d="M40.6 0.333328H4.33332C1.9769 0.333328 0.0666504 2.24358 0.0666504 4.6V28.0667C0.0666504 30.4231 1.9769 32.3333 4.33332 32.3333H40.6C42.9564 32.3333 44.8666 30.4231 44.8666 28.0667V4.6C44.8666 2.24358 42.9564 0.333328 40.6 0.333328Z" fill="#00AF1E"/>
<path fill-rule="evenodd" clip-rule="evenodd" d="M0.0666504 0.333328H44.8666V17.4H0.0666504V0.333328Z" fill="#67B1E9"/>
<path fill-rule="evenodd" clip-rule="evenodd" d="M0.0666504 0.333328L25.6666 16.3333L0.0666504 32.3333V0.333328Z" fill="white"/>
<path fill-rule="evenodd" clip-rule="evenodd" d="M9.66669 19L6.53069 20.6491L7.12803 17.1568L4.59363 14.6821L8.0987 14.1765L9.66669 11L11.2347 14.1787L14.7398 14.6843L12.2011 17.1589L12.7984 20.6491" fill="#D90D08"/>
<path d="M40.6 1.4H4.3333C2.56599 1.4 1.1333 2.83269 1.1333 4.6V28.0667C1.1333 29.834 2.56599 31.2667 4.3333 31.2667H40.6C42.3673 31.2667 43.8 29.834 43.8 28.0667V4.6C43.8 2.83269 42.3673 1.4 40.6 1.4Z" stroke="black" stroke-opacity="0.1" stroke-width="2.13333"/>
</g>
</g>
<defs>
<clipPath id="clip0_3_166">
<rect width="44.8" height="32" fill="white" transform="translate(0.0666504 0.333328)"/>
</clipPath>
</defs>
</svg>
