<svg width="45" height="33" viewBox="0 0 45 33" fill="none" xmlns="http://www.w3.org/2000/svg">
<g clip-path="url(#clip0_3_165)">
<mask id="mask0_3_165" style="mask-type:alpha" maskUnits="userSpaceOnUse" x="0" y="0" width="45" height="33">
<path d="M40.7333 0.333328H4.46668C2.11026 0.333328 0.200012 2.24358 0.200012 4.6V28.0667C0.200012 30.4231 2.11026 32.3333 4.46668 32.3333H40.7333C43.0898 32.3333 45 30.4231 45 28.0667V4.6C45 2.24358 43.0898 0.333328 40.7333 0.333328Z" fill="white"/>
</mask>
<g mask="url(#mask0_3_165)">
<path d="M40.7333 0.333328H4.46668C2.11026 0.333328 0.200012 2.24358 0.200012 4.6V28.0667C0.200012 30.4231 2.11026 32.3333 4.46668 32.3333H40.7333C43.0898 32.3333 45 30.4231 45 28.0667V4.6C45 2.24358 43.0898 0.333328 40.7333 0.333328Z" fill="#C8032B"/>
<path fill-rule="evenodd" clip-rule="evenodd" d="M13 19.5333H0.200012V13.1333H13V0.333328H19.4V13.1333H45V19.5333H19.4V32.3333H13V19.5333Z" fill="white"/>
<path d="M40.7333 1.4H4.46666C2.69935 1.4 1.26666 2.83269 1.26666 4.6V28.0667C1.26666 29.834 2.69935 31.2667 4.46666 31.2667H40.7333C42.5006 31.2667 43.9333 29.834 43.9333 28.0667V4.6C43.9333 2.83269 42.5006 1.4 40.7333 1.4Z" stroke="black" stroke-opacity="0.1" stroke-width="2.13333"/>
</g>
</g>
<defs>
<clipPath id="clip0_3_165">
<rect width="44.8" height="32" fill="white" transform="translate(0.200012 0.333328)"/>
</clipPath>
</defs>
</svg>
