<svg width="45" height="33" viewBox="0 0 45 33" fill="none" xmlns="http://www.w3.org/2000/svg">
<mask id="mask0_3_164" style="mask-type:alpha" maskUnits="userSpaceOnUse" x="0" y="0" width="45" height="33">
<path d="M40.5333 0.666666H4.26667C1.91025 0.666666 0 2.57692 0 4.93333V28.4C0 30.7564 1.91025 32.6667 4.26667 32.6667H40.5333C42.8897 32.6667 44.8 30.7564 44.8 28.4V4.93333C44.8 2.57692 42.8897 0.666666 40.5333 0.666666Z" fill="white"/>
</mask>
<g mask="url(#mask0_3_164)">
<path d="M40.5333 0.666666H4.26667C1.91025 0.666666 0 2.57692 0 4.93333V28.4C0 30.7564 1.91025 32.6667 4.26667 32.6667H40.5333C42.8897 32.6667 44.8 30.7564 44.8 28.4V4.93333C44.8 2.57692 42.8897 0.666666 40.5333 0.666666Z" fill="#006C3D"/>
<path fill-rule="evenodd" clip-rule="evenodd" d="M21.3333 15.6H0V17.7333H21.3333V32.6667H23.4667V17.7333H44.8V15.6H23.4667V0.666666H21.3333V15.6Z" fill="black"/>
<path fill-rule="evenodd" clip-rule="evenodd" d="M19.2 13.4667V15.6H21.3333V0.666666H19.2V13.4667H0V15.6H21.3333V13.4667H19.2ZM21.3333 15.6H44.8V13.4667H19.2V15.6H21.3333V13.4667H19.2V32.6667H21.3333V15.6Z" fill="#FDD200"/>
<path fill-rule="evenodd" clip-rule="evenodd" d="M25.6 19.8667V17.7333H23.4667V32.6667H25.6V19.8667H44.8V17.7333H23.4667V19.8667H25.6ZM0 17.7333H27.7333V19.8667H0V17.7333ZM23.4667 0.666666H25.6V19.8667H23.4667V0.666666Z" fill="white"/>
<path d="M22.4 24.1333C26.5237 24.1333 29.8667 20.7904 29.8667 16.6667C29.8667 12.5429 26.5237 9.2 22.4 9.2C18.2763 9.2 14.9333 12.5429 14.9333 16.6667C14.9333 20.7904 18.2763 24.1333 22.4 24.1333Z" fill="#D6172A"/>
<path fill-rule="evenodd" clip-rule="evenodd" d="M19.2 13.4667H21.3333V15.6H19.2V13.4667ZM23.4667 13.4667H25.6V15.6H23.4667V13.4667ZM23.4667 17.7333H25.6V19.8667H23.4667V17.7333ZM19.2 17.7333H21.3333V19.8667H19.2V17.7333Z" fill="#006C3D"/>
<path fill-rule="evenodd" clip-rule="evenodd" d="M21.3333 13.4667H23.4667V17.7333H21.3333V13.4667Z" fill="#955DCC"/>
<path d="M40.5333 1.73333H4.26667C2.49935 1.73333 1.06667 3.16602 1.06667 4.93333V28.4C1.06667 30.1673 2.49935 31.6 4.26667 31.6H40.5333C42.3006 31.6 43.7333 30.1673 43.7333 28.4V4.93333C43.7333 3.16602 42.3006 1.73333 40.5333 1.73333Z" stroke="black" stroke-opacity="0.1" stroke-width="2.13333"/>
</g>
</svg>
