<svg width="45" height="33" viewBox="0 0 45 33" fill="none" xmlns="http://www.w3.org/2000/svg">
<mask id="mask0_3_163" style="mask-type:alpha" maskUnits="userSpaceOnUse" x="0" y="0" width="45" height="33">
<path d="M40.6667 0.666666H4.40001C2.0436 0.666666 0.133347 2.57692 0.133347 4.93333V28.4C0.133347 30.7564 2.0436 32.6667 4.40001 32.6667H40.6667C43.0231 32.6667 44.9333 30.7564 44.9333 28.4V4.93333C44.9333 2.57692 43.0231 0.666666 40.6667 0.666666Z" fill="white"/>
</mask>
<g mask="url(#mask0_3_163)">
<path d="M40.6667 0.666666H4.40001C2.0436 0.666666 0.133347 2.57692 0.133347 4.93333V28.4C0.133347 30.7564 2.0436 32.6667 4.40001 32.6667H40.6667C43.0231 32.6667 44.9333 30.7564 44.9333 28.4V4.93333C44.9333 2.57692 43.0231 0.666666 40.6667 0.666666Z" fill="#002B64"/>
<path fill-rule="evenodd" clip-rule="evenodd" d="M0.133347 19.8667H19.3333V32.6667H0.133347V19.8667ZM25.7333 0.666666H44.9333V13.4667H25.7333V0.666666Z" fill="#D0091E"/>
<path fill-rule="evenodd" clip-rule="evenodd" d="M19.3333 19.8667H0.133347V13.4667H19.3333V0.666666H25.7333V13.4667H44.9333V19.8667H25.7333V32.6667H19.3333V19.8667Z" fill="white"/>
<path d="M22.5333 19.8667C24.3006 19.8667 25.7333 18.434 25.7333 16.6667C25.7333 14.8994 24.3006 13.4667 22.5333 13.4667C20.766 13.4667 19.3333 14.8994 19.3333 16.6667C19.3333 18.434 20.766 19.8667 22.5333 19.8667Z" fill="#007A1B"/>
<path d="M22.5333 17.7333C23.1224 17.7333 23.6 17.2558 23.6 16.6667C23.6 16.0776 23.1224 15.6 22.5333 15.6C21.9442 15.6 21.4667 16.0776 21.4667 16.6667C21.4667 17.2558 21.9442 17.7333 22.5333 17.7333Z" fill="#002B64"/>
<path fill-rule="evenodd" clip-rule="evenodd" d="M20.4 15.6C20.9888 15.6 21.4667 15.1221 21.4667 14.5333C21.4667 13.9445 20.9888 13.4667 20.4 13.4667C19.8112 13.4667 19.3333 13.9445 19.3333 14.5333C19.3333 15.1221 19.8112 15.6 20.4 15.6ZM24.6667 15.6C25.2555 15.6 25.7333 15.1221 25.7333 14.5333C25.7333 13.9445 25.2555 13.4667 24.6667 13.4667C24.0779 13.4667 23.6 13.9445 23.6 14.5333C23.6 15.1221 24.0779 15.6 24.6667 15.6Z" fill="#FDD200"/>
<path d="M40.6667 1.73333H4.4C2.63269 1.73333 1.2 3.16602 1.2 4.93333V28.4C1.2 30.1673 2.63269 31.6 4.4 31.6H40.6667C42.434 31.6 43.8667 30.1673 43.8667 28.4V4.93333C43.8667 3.16602 42.434 1.73333 40.6667 1.73333Z" stroke="black" stroke-opacity="0.1" stroke-width="2.13333"/>
</g>
</svg>
