<svg width="46" height="33" viewBox="0 0 46 33" fill="none" xmlns="http://www.w3.org/2000/svg">
<g clip-path="url(#clip0_3_162)">
<mask id="mask0_3_162" style="mask-type:alpha" maskUnits="userSpaceOnUse" x="0" y="0" width="46" height="33">
<path d="M40.8 0.666666H4.53336C2.17694 0.666666 0.266693 2.57692 0.266693 4.93333V28.4C0.266693 30.7564 2.17694 32.6667 4.53336 32.6667H40.8C43.1564 32.6667 45.0667 30.7564 45.0667 28.4V4.93333C45.0667 2.57692 43.1564 0.666666 40.8 0.666666Z" fill="white"/>
</mask>
<g mask="url(#mask0_3_162)">
<path d="M40.8 0.666666H4.53336C2.17694 0.666666 0.266693 2.57692 0.266693 4.93333V28.4C0.266693 30.7564 2.17694 32.6667 4.53336 32.6667H40.8C43.1564 32.6667 45.0667 30.7564 45.0667 28.4V4.93333C45.0667 2.57692 43.1564 0.666666 40.8 0.666666Z" fill="white"/>
<path fill-rule="evenodd" clip-rule="evenodd" d="M0.266693 0.666666H21.6V32.6667H0.266693V0.666666Z" fill="#357C58"/>
<path fill-rule="evenodd" clip-rule="evenodd" d="M28.111 22.5611C26.3574 24.816 23.6139 26.2667 20.5334 26.2667C15.232 26.2667 10.9333 21.968 10.9333 16.6667C10.9333 11.3653 15.232 7.06667 20.5334 7.06667C23.6139 7.06667 26.3574 8.51733 28.111 10.7723C26.7563 9.78667 25.0518 9.2 23.2 9.2C18.784 9.2 15.2 12.5429 15.2 16.6667C15.2 20.7904 18.784 24.1333 23.2 24.1333C25.0518 24.1333 26.7563 23.5467 28.111 22.5611Z" fill="#E82E2E"/>
<path fill-rule="evenodd" clip-rule="evenodd" d="M28 16.6667L30.1333 15.6L31.2 13.4667L32.2667 15.6L34.4 16.6667L32.2667 17.7333L31.2 19.8667L30.1333 17.7333L28 16.6667Z" fill="#E82E2E"/>
<path d="M40.8 1.73333H4.53331C2.766 1.73333 1.33331 3.16602 1.33331 4.93333V28.4C1.33331 30.1673 2.766 31.6 4.53331 31.6H40.8C42.5673 31.6 44 30.1673 44 28.4V4.93333C44 3.16602 42.5673 1.73333 40.8 1.73333Z" stroke="black" stroke-opacity="0.1" stroke-width="2.13333"/>
</g>
</g>
<defs>
<clipPath id="clip0_3_162">
<rect width="44.8" height="32" fill="white" transform="translate(0.266693 0.666666)"/>
</clipPath>
</defs>
</svg>
