<svg width="46" height="33" viewBox="0 0 46 33" fill="none" xmlns="http://www.w3.org/2000/svg">
<g clip-path="url(#clip0_3_161)">
<mask id="mask0_3_161" style="mask-type:alpha" maskUnits="userSpaceOnUse" x="0" y="0" width="46" height="33">
<path d="M40.9333 0.666666H4.66666C2.31025 0.666666 0.399994 2.57692 0.399994 4.93333V28.4C0.399994 30.7564 2.31025 32.6667 4.66666 32.6667H40.9333C43.2897 32.6667 45.2 30.7564 45.2 28.4V4.93333C45.2 2.57692 43.2897 0.666666 40.9333 0.666666Z" fill="white"/>
</mask>
<g mask="url(#mask0_3_161)">
<path d="M40.9333 0.666666H4.66666C2.31025 0.666666 0.399994 2.57692 0.399994 4.93333V28.4C0.399994 30.7564 2.31025 32.6667 4.66666 32.6667H40.9333C43.2897 32.6667 45.2 30.7564 45.2 28.4V4.93333C45.2 2.57692 43.2897 0.666666 40.9333 0.666666Z" fill="#004BA5"/>
<path fill-rule="evenodd" clip-rule="evenodd" d="M0.399994 24.1333H45.2V32.6667H0.399994V24.1333Z" fill="#F01616"/>
<path fill-rule="evenodd" clip-rule="evenodd" d="M0.399994 0.666666H45.2V17.7333H0.399994V0.666666Z" fill="#FFDF00"/>
<path fill-rule="evenodd" clip-rule="evenodd" d="M13.2 9.2H19.6L22.8 11.3333L26 9.2H32.4L26 11.3333L23.8667 13.4667H21.7333L19.6 11.3333L13.2 9.2Z" fill="#3D2620"/>
<path d="M22.8 22C24.5673 22 26 20.0897 26 17.7333C26 15.3769 24.5673 13.4667 22.8 13.4667C21.0327 13.4667 19.6 15.3769 19.6 17.7333C19.6 20.0897 21.0327 22 22.8 22Z" fill="#07A7D3"/>
<path fill-rule="evenodd" clip-rule="evenodd" d="M17.4666 15.6V19.8667L21.7333 22H23.8666L28.1333 19.8667V15.6L30.2666 19.8667L28.1333 22L23.8666 24.1333H21.7333L17.4666 22L15.3333 19.8667L17.4666 15.6Z" fill="#FFDF00"/>
<path d="M40.9333 1.73333H4.66668C2.89936 1.73333 1.46667 3.16602 1.46667 4.93333V28.4C1.46667 30.1673 2.89936 31.6 4.66668 31.6H40.9333C42.7007 31.6 44.1333 30.1673 44.1333 28.4V4.93333C44.1333 3.16602 42.7007 1.73333 40.9333 1.73333Z" stroke="black" stroke-opacity="0.1" stroke-width="2.13333"/>
</g>
</g>
<defs>
<clipPath id="clip0_3_161">
<rect width="44.8" height="32" fill="white" transform="translate(0.399994 0.666666)"/>
</clipPath>
</defs>
</svg>
