<svg width="46" height="33" viewBox="0 0 46 33" fill="none" xmlns="http://www.w3.org/2000/svg">
<g clip-path="url(#clip0_3_160)">
<mask id="mask0_3_160" style="mask-type:alpha" maskUnits="userSpaceOnUse" x="0" y="0" width="46" height="33">
<path d="M41.0667 0.666666H4.79999C2.44358 0.666666 0.533325 2.57692 0.533325 4.93333V28.4C0.533325 30.7564 2.44358 32.6667 4.79999 32.6667H41.0667C43.4231 32.6667 45.3333 30.7564 45.3333 28.4V4.93333C45.3333 2.57692 43.4231 0.666666 41.0667 0.666666Z" fill="white"/>
</mask>
<g mask="url(#mask0_3_160)">
<path d="M41.0667 0.666666H4.79999C2.44358 0.666666 0.533325 2.57692 0.533325 4.93333V28.4C0.533325 30.7564 2.44358 32.6667 4.79999 32.6667H41.0667C43.4231 32.6667 45.3333 30.7564 45.3333 28.4V4.93333C45.3333 2.57692 43.4231 0.666666 41.0667 0.666666Z" fill="black"/>
<path fill-rule="evenodd" clip-rule="evenodd" d="M0.533325 22H45.3333V32.6667H0.533325V22Z" fill="white"/>
<path fill-rule="evenodd" clip-rule="evenodd" d="M0.533325 0.666666H45.3333V11.3333H0.533325V0.666666Z" fill="#448FDC"/>
<path d="M41.0667 1.73333H4.80001C3.03269 1.73333 1.60001 3.16602 1.60001 4.93333V28.4C1.60001 30.1673 3.03269 31.6 4.80001 31.6H41.0667C42.834 31.6 44.2667 30.1673 44.2667 28.4V4.93333C44.2667 3.16602 42.834 1.73333 41.0667 1.73333Z" stroke="black" stroke-opacity="0.1" stroke-width="2.13333"/>
</g>
</g>
<defs>
<clipPath id="clip0_3_160">
<rect width="44.8" height="32" fill="white" transform="translate(0.533325 0.666666)"/>
</clipPath>
</defs>
</svg>
