<svg width="46" height="33" viewBox="0 0 46 33" fill="none" xmlns="http://www.w3.org/2000/svg">
<g clip-path="url(#clip0_3_158)">
<mask id="mask0_3_158" style="mask-type:alpha" maskUnits="userSpaceOnUse" x="0" y="0" width="46" height="33">
<path d="M41.3333 0.666666H5.06665C2.71024 0.666666 0.799988 2.57692 0.799988 4.93333V28.4C0.799988 30.7564 2.71024 32.6667 5.06665 32.6667H41.3333C43.6897 32.6667 45.6 30.7564 45.6 28.4V4.93333C45.6 2.57692 43.6897 0.666666 41.3333 0.666666Z" fill="white"/>
</mask>
<g mask="url(#mask0_3_158)">
<path d="M41.3333 0.666666H5.06665C2.71024 0.666666 0.799988 2.57692 0.799988 4.93333V28.4C0.799988 30.7564 2.71024 32.6667 5.06665 32.6667H41.3333C43.6897 32.6667 45.6 30.7564 45.6 28.4V4.93333C45.6 2.57692 43.6897 0.666666 41.3333 0.666666Z" fill="#3C87E0"/>
<path fill-rule="evenodd" clip-rule="evenodd" d="M0.799988 0.666666H45.6V17.7333H0.799988V0.666666Z" fill="#00AF1E"/>
<path fill-rule="evenodd" clip-rule="evenodd" d="M0.799988 0.666666L45.6 16.6667L0.799988 32.6667V0.666666Z" fill="#ED0030"/>
<path fill-rule="evenodd" clip-rule="evenodd" d="M20 16.6667C20 13.7227 17.6107 11.3333 14.6667 10.2667C11.7227 11.3333 9.33335 13.7227 9.33335 16.6667C9.33335 19.248 11.168 21.3984 13.6 21.8933V14.5291C13.6 13.9424 14.0949 13.4667 14.6667 13.4667C15.2555 13.4667 15.7333 13.9253 15.7333 14.5291V21.8933C18.1653 21.3984 20 19.248 20 16.6667V16.6667ZM22.1333 16.6667C22.1333 12.5429 18.7904 9.20002 14.6667 10.2667C10.5429 9.20002 7.20001 12.5429 7.20001 16.6667C7.20001 20.7904 10.5429 24.1334 14.6667 24.1334C18.7904 24.1334 22.1333 20.7904 22.1333 16.6667Z" fill="#FFC800"/>
<path d="M41.3333 1.73333H5.06664C3.29933 1.73333 1.86664 3.16602 1.86664 4.93333V28.4C1.86664 30.1673 3.29933 31.6 5.06664 31.6H41.3333C43.1006 31.6 44.5333 30.1673 44.5333 28.4V4.93333C44.5333 3.16602 43.1006 1.73333 41.3333 1.73333Z" stroke="black" stroke-opacity="0.1" stroke-width="2.13333"/>
</g>
</g>
<defs>
<clipPath id="clip0_3_158">
<rect width="44.8" height="32" fill="white" transform="translate(0.799988 0.666666)"/>
</clipPath>
</defs>
</svg>
