<svg width="46" height="33" viewBox="0 0 46 33" fill="none" xmlns="http://www.w3.org/2000/svg">
<g clip-path="url(#clip0_3_157)">
<mask id="mask0_3_157" style="mask-type:alpha" maskUnits="userSpaceOnUse" x="0" y="0" width="46" height="33">
<path d="M41.4666 0.666666H5.19995C2.84354 0.666666 0.933289 2.57692 0.933289 4.93333V28.4C0.933289 30.7564 2.84354 32.6667 5.19995 32.6667H41.4666C43.823 32.6667 45.7333 30.7564 45.7333 28.4V4.93333C45.7333 2.57692 43.823 0.666666 41.4666 0.666666Z" fill="white"/>
</mask>
<g mask="url(#mask0_3_157)">
<path d="M41.4666 0.666666H5.19995C2.84354 0.666666 0.933289 2.57692 0.933289 4.93333V28.4C0.933289 30.7564 2.84354 32.6667 5.19995 32.6667H41.4666C43.823 32.6667 45.7333 30.7564 45.7333 28.4V4.93333C45.7333 2.57692 43.823 0.666666 41.4666 0.666666Z" fill="#CD0B20"/>
<path fill-rule="evenodd" clip-rule="evenodd" d="M0.933289 9.2H45.7333V24.1333H0.933289V9.2Z" fill="#FFCB00"/>
<path fill-rule="evenodd" clip-rule="evenodd" d="M20.1333 13.9403V19.3163C20.1333 20.8096 18.6997 22.0043 16.9333 22.0043H12.6667C10.9045 22 9.46667 20.7989 9.46667 19.312V13.936C9.46667 12.7157 10.4224 11.696 11.7365 11.3653C12.1333 10.256 13.3536 11.2501 14.8 11.2501C16.2549 11.2501 17.4667 10.2624 17.8635 11.3675C19.1733 11.7067 20.1333 12.7285 20.1333 13.9403Z" fill="#C8B47C"/>
<path fill-rule="evenodd" clip-rule="evenodd" d="M20.1333 15.6H22.2666V22H20.1333V15.6ZM7.33331 15.6H9.46665V22H7.33331V15.6Z" fill="#B5B5B5"/>
<path fill-rule="evenodd" clip-rule="evenodd" d="M20.1333 19.8667H22.2666V22H20.1333V19.8667ZM7.33331 19.8667H9.46665V22H7.33331V19.8667Z" fill="#165C96"/>
<path fill-rule="evenodd" clip-rule="evenodd" d="M20.1333 13.4667H22.2666V15.6H20.1333V13.4667ZM7.33331 13.4667H9.46665V15.6H7.33331V13.4667Z" fill="#A0790A"/>
<path fill-rule="evenodd" clip-rule="evenodd" d="M11.6 13.4667H13.7334V16.6667H11.6V13.4667ZM15.8667 17.7333H18V20.9333H15.8667V17.7333Z" fill="#D20636"/>
<path fill-rule="evenodd" clip-rule="evenodd" d="M15.8666 13.4667H18V16.6667H15.8666V13.4667Z" fill="#A18793"/>
<path fill-rule="evenodd" clip-rule="evenodd" d="M11.6 17.7333H13.7334V20.9333H11.6V17.7333Z" fill="#FFE100"/>
<path fill-rule="evenodd" clip-rule="evenodd" d="M13.7334 13.4667L11.6 11.3333H18L15.8667 13.4667H13.7334Z" fill="#B6161A"/>
<path fill-rule="evenodd" clip-rule="evenodd" d="M13.7333 9.2H15.8667V11.3333H13.7333V9.2Z" fill="#AC9300"/>
<path d="M41.4667 1.73333H5.2C3.43269 1.73333 2 3.16602 2 4.93333V28.4C2 30.1673 3.43269 31.6 5.2 31.6H41.4667C43.234 31.6 44.6667 30.1673 44.6667 28.4V4.93333C44.6667 3.16602 43.234 1.73333 41.4667 1.73333Z" stroke="black" stroke-opacity="0.1" stroke-width="2.13333"/>
</g>
</g>
<defs>
<clipPath id="clip0_3_157">
<rect width="44.8" height="32" fill="white" transform="translate(0.933289 0.666666)"/>
</clipPath>
</defs>
</svg>
