<svg width="45" height="33" viewBox="0 0 45 33" fill="none" xmlns="http://www.w3.org/2000/svg">
<g clip-path="url(#clip0_3_156)">
<mask id="mask0_3_156" style="mask-type:alpha" maskUnits="userSpaceOnUse" x="0" y="0" width="45" height="33">
<path d="M40.6 0.666666H4.33332C1.9769 0.666666 0.0666504 2.57692 0.0666504 4.93333V28.4C0.0666504 30.7564 1.9769 32.6667 4.33332 32.6667H40.6C42.9564 32.6667 44.8666 30.7564 44.8666 28.4V4.93333C44.8666 2.57692 42.9564 0.666666 40.6 0.666666Z" fill="white"/>
</mask>
<g mask="url(#mask0_3_156)">
<path d="M40.6 0.666666H4.33332C1.9769 0.666666 0.0666504 2.57692 0.0666504 4.93333V28.4C0.0666504 30.7564 1.9769 32.6667 4.33332 32.6667H40.6C42.9564 32.6667 44.8666 30.7564 44.8666 28.4V4.93333C44.8666 2.57692 42.9564 0.666666 40.6 0.666666Z" fill="#FDDF00"/>
<path fill-rule="evenodd" clip-rule="evenodd" d="M0.0666504 22H44.8666V32.6667H0.0666504V22Z" fill="#DD0A07"/>
<path fill-rule="evenodd" clip-rule="evenodd" d="M0.0666504 0.666666H44.8666V11.3333H0.0666504V0.666666Z" fill="#008A2A"/>
<path d="M22.4667 26.2667C27.7686 26.2667 32.0667 21.9686 32.0667 16.6667C32.0667 11.3647 27.7686 7.06667 22.4667 7.06667C17.1648 7.06667 12.8667 11.3647 12.8667 16.6667C12.8667 21.9686 17.1648 26.2667 22.4667 26.2667Z" fill="#0643B2"/>
<path fill-rule="evenodd" clip-rule="evenodd" d="M22.4624 19.3333L19.3264 20.9824L19.9237 17.4901L17.3893 15.0155L20.8944 14.5099L22.4624 11.3312L24.0283 14.5099L27.5333 15.0155L24.9947 17.4901L25.5963 20.9803" fill="#FDDF00"/>
<path d="M40.6 1.73333H4.3333C2.56599 1.73333 1.1333 3.16602 1.1333 4.93333V28.4C1.1333 30.1673 2.56599 31.6 4.3333 31.6H40.6C42.3673 31.6 43.8 30.1673 43.8 28.4V4.93333C43.8 3.16602 42.3673 1.73333 40.6 1.73333Z" stroke="black" stroke-opacity="0.1" stroke-width="2.13333"/>
</g>
</g>
<defs>
<clipPath id="clip0_3_156">
<rect width="44.8" height="32" fill="white" transform="translate(0.0666504 0.666666)"/>
</clipPath>
</defs>
</svg>
