<svg width="45" height="33" viewBox="0 0 45 33" fill="none" xmlns="http://www.w3.org/2000/svg">
<g clip-path="url(#clip0_3_155)">
<mask id="mask0_3_155" style="mask-type:alpha" maskUnits="userSpaceOnUse" x="0" y="0" width="45" height="33">
<path d="M40.7333 0.666666H4.46668C2.11026 0.666666 0.200012 2.57692 0.200012 4.93333V28.4C0.200012 30.7564 2.11026 32.6667 4.46668 32.6667H40.7333C43.0898 32.6667 45 30.7564 45 28.4V4.93333C45 2.57692 43.0898 0.666666 40.7333 0.666666Z" fill="white"/>
</mask>
<g mask="url(#mask0_3_155)">
<path d="M40.7333 0.666666H4.46668C2.11026 0.666666 0.200012 2.57692 0.200012 4.93333V28.4C0.200012 30.7564 2.11026 32.6667 4.46668 32.6667H40.7333C43.0898 32.6667 45 30.7564 45 28.4V4.93333C45 2.57692 43.0898 0.666666 40.7333 0.666666Z" fill="white"/>
<path fill-rule="evenodd" clip-rule="evenodd" d="M13 19.8667H0.200012V13.4667H13V0.666666H19.4V13.4667H45V19.8667H19.4V32.6667H13V19.8667Z" fill="#003282"/>
<path d="M40.7333 1.73333H4.46666C2.69935 1.73333 1.26666 3.16602 1.26666 4.93333V28.4C1.26666 30.1673 2.69935 31.6 4.46666 31.6H40.7333C42.5006 31.6 43.9333 30.1673 43.9333 28.4V4.93333C43.9333 3.16602 42.5006 1.73333 40.7333 1.73333Z" stroke="black" stroke-opacity="0.1" stroke-width="2.13333"/>
</g>
</g>
<defs>
<clipPath id="clip0_3_155">
<rect width="44.8" height="32" fill="white" transform="translate(0.200012 0.666666)"/>
</clipPath>
</defs>
</svg>
