<svg width="45" height="32" viewBox="0 0 45 32" fill="none" xmlns="http://www.w3.org/2000/svg">
<mask id="mask0_3_154" style="mask-type:alpha" maskUnits="userSpaceOnUse" x="0" y="0" width="45" height="32">
<path d="M40.5333 0H4.26667C1.91025 0 0 1.91025 0 4.26667V27.7333C0 30.0898 1.91025 32 4.26667 32H40.5333C42.8897 32 44.8 30.0898 44.8 27.7333V4.26667C44.8 1.91025 42.8897 0 40.5333 0Z" fill="white"/>
</mask>
<g mask="url(#mask0_3_154)">
<path d="M40.5333 0H4.26667C1.91025 0 0 1.91025 0 4.26667V27.7333C0 30.0898 1.91025 32 4.26667 32H40.5333C42.8897 32 44.8 30.0898 44.8 27.7333V4.26667C44.8 1.91025 42.8897 0 40.5333 0Z" fill="#64BEE7"/>
<path fill-rule="evenodd" clip-rule="evenodd" d="M38.4 21.3333V13.8667C38.4 12.0853 36.9664 10.6667 35.2 10.6667H30.9333C29.1712 10.6667 27.7333 12.096 27.7333 13.8667V21.3333C27.7333 21.7216 29.8667 25.6 33.0667 25.6C36.2667 25.6 38.4 21.7109 38.4 21.3333Z" fill="white"/>
<path fill-rule="evenodd" clip-rule="evenodd" d="M34.1333 17.0667V19.4517H38.4V21.504H34.1333V25.6H32V21.504H27.7333V19.4517H32V17.0667H27.7333V10.6667H38.4V17.0667H34.1333Z" fill="#FF0000"/>
<path fill-rule="evenodd" clip-rule="evenodd" d="M29.8667 12.8H36.2667V14.9333H29.8667V12.8Z" fill="#FFD200"/>
<path d="M19.2 2.13333H4.26666C3.08846 2.13333 2.13333 3.08846 2.13333 4.26667V14.9333C2.13333 16.1115 3.08846 17.0667 4.26666 17.0667H19.2C20.3782 17.0667 21.3333 16.1115 21.3333 14.9333V4.26667C21.3333 3.08846 20.3782 2.13333 19.2 2.13333Z" fill="white"/>
<path fill-rule="evenodd" clip-rule="evenodd" d="M10.6667 10.6667H4.26668V8.53333H10.6667V4.26667H12.8V8.53333H19.2V10.6667H12.8V14.9333H10.6667V10.6667ZM16 12.8V14.9333H19.2V12.8H16ZM16 4.26667V6.4H19.2V4.26667H16ZM4.26668 12.8V14.9333H7.46668V12.8H4.26668ZM4.26668 4.26667V6.4H7.46668V4.26667H4.26668Z" fill="#FF0000"/>
<path d="M40.5333 1.06667H4.26667C2.49935 1.06667 1.06667 2.49936 1.06667 4.26667V27.7333C1.06667 29.5006 2.49935 30.9333 4.26667 30.9333H40.5333C42.3006 30.9333 43.7333 29.5006 43.7333 27.7333V4.26667C43.7333 2.49936 42.3006 1.06667 40.5333 1.06667Z" stroke="black" stroke-opacity="0.1" stroke-width="2.13333"/>
</g>
</svg>
