<svg width="45" height="32" viewBox="0 0 45 32" fill="none" xmlns="http://www.w3.org/2000/svg">
<mask id="mask0_3_153" style="mask-type:alpha" maskUnits="userSpaceOnUse" x="0" y="0" width="45" height="32">
<path d="M40.6667 0H4.40001C2.0436 0 0.133347 1.91025 0.133347 4.26667V27.7333C0.133347 30.0898 2.0436 32 4.40001 32H40.6667C43.0231 32 44.9333 30.0898 44.9333 27.7333V4.26667C44.9333 1.91025 43.0231 0 40.6667 0Z" fill="white"/>
</mask>
<g mask="url(#mask0_3_153)">
<path d="M40.6667 0H4.40001C2.0436 0 0.133347 1.91025 0.133347 4.26667V27.7333C0.133347 30.0898 2.0436 32 4.40001 32H40.6667C43.0231 32 44.9333 30.0898 44.9333 27.7333V4.26667C44.9333 1.91025 43.0231 0 40.6667 0Z" fill="#72B1DF"/>
<path fill-rule="evenodd" clip-rule="evenodd" d="M21.4667 8.53333H20.3893C19.792 8.53333 19.3333 9.0112 19.3333 9.6C19.3333 10.1717 19.8069 10.6667 20.3893 10.6667H21.4667V11.744C21.4667 12.3413 21.9445 12.8 22.5333 12.8C23.1051 12.8 23.6 12.3264 23.6 11.744V10.6667H24.6773C25.2747 10.6667 25.7333 10.1888 25.7333 9.6C25.7333 9.02827 25.2597 8.53333 24.6773 8.53333H23.6V7.456C23.6 6.85867 23.1221 6.4 22.5333 6.4C21.9616 6.4 21.4667 6.8736 21.4667 7.456V8.53333ZM30 14.9333H28.9227C28.3253 14.9333 27.8667 15.4112 27.8667 16C27.8667 16.5717 28.3403 17.0667 28.9227 17.0667H30V18.144C30 18.7413 30.4779 19.2 31.0667 19.2C31.6384 19.2 32.1333 18.7264 32.1333 18.144V17.0667H33.2107C33.808 17.0667 34.2667 16.5888 34.2667 16C34.2667 15.4283 33.7931 14.9333 33.2107 14.9333H32.1333V13.856C32.1333 13.2587 31.6555 12.8 31.0667 12.8C30.4949 12.8 30 13.2736 30 13.856V14.9333ZM21.4667 21.3333H20.3893C19.792 21.3333 19.3333 21.8112 19.3333 22.4C19.3333 22.9717 19.8069 23.4667 20.3893 23.4667H21.4667V24.544C21.4667 25.1413 21.9445 25.6 22.5333 25.6C23.1051 25.6 23.6 25.1264 23.6 24.544V23.4667H24.6773C25.2747 23.4667 25.7333 22.9888 25.7333 22.4C25.7333 21.8283 25.2597 21.3333 24.6773 21.3333H23.6V20.256C23.6 19.6587 23.1221 19.2 22.5333 19.2C21.9616 19.2 21.4667 19.6736 21.4667 20.256V21.3333ZM12.9333 14.9333H11.856C11.2587 14.9333 10.8 15.4112 10.8 16C10.8 16.5717 11.2736 17.0667 11.856 17.0667H12.9333V18.144C12.9333 18.7413 13.4112 19.2 14 19.2C14.5717 19.2 15.0667 18.7264 15.0667 18.144V17.0667H16.144C16.7413 17.0667 17.2 16.5888 17.2 16C17.2 15.4283 16.7264 14.9333 16.144 14.9333H15.0667V13.856C15.0667 13.2587 14.5888 12.8 14 12.8C13.4283 12.8 12.9333 13.2736 12.9333 13.856V14.9333Z" fill="white"/>
<path d="M40.6667 1.06667H4.4C2.63269 1.06667 1.2 2.49936 1.2 4.26667V27.7333C1.2 29.5006 2.63269 30.9333 4.4 30.9333H40.6667C42.434 30.9333 43.8667 29.5006 43.8667 27.7333V4.26667C43.8667 2.49936 42.434 1.06667 40.6667 1.06667Z" stroke="black" stroke-opacity="0.1" stroke-width="2.13333"/>
</g>
</svg>
