<svg width="46" height="32" viewBox="0 0 46 32" fill="none" xmlns="http://www.w3.org/2000/svg">
<g clip-path="url(#clip0_3_152)">
<mask id="mask0_3_152" style="mask-type:alpha" maskUnits="userSpaceOnUse" x="0" y="0" width="46" height="32">
<path d="M40.8 0H4.53336C2.17694 0 0.266693 1.91025 0.266693 4.26667V27.7333C0.266693 30.0898 2.17694 32 4.53336 32H40.8C43.1564 32 45.0667 30.0898 45.0667 27.7333V4.26667C45.0667 1.91025 43.1564 0 40.8 0Z" fill="white"/>
</mask>
<g mask="url(#mask0_3_152)">
<path d="M40.8 0H4.53336C2.17694 0 0.266693 1.91025 0.266693 4.26667V27.7333C0.266693 30.0898 2.17694 32 4.53336 32H40.8C43.1564 32 45.0667 30.0898 45.0667 27.7333V4.26667C45.0667 1.91025 43.1564 0 40.8 0Z" fill="white"/>
<path fill-rule="evenodd" clip-rule="evenodd" d="M0.266693 0H15.2V32H0.266693V0Z" fill="#001C98"/>
<path fill-rule="evenodd" clip-rule="evenodd" d="M30.1333 0H45.0667V32H30.1333V0Z" fill="#F02532"/>
<path d="M40.8 1.06667H4.53331C2.766 1.06667 1.33331 2.49936 1.33331 4.26667V27.7333C1.33331 29.5006 2.766 30.9333 4.53331 30.9333H40.8C42.5673 30.9333 44 29.5006 44 27.7333V4.26667C44 2.49936 42.5673 1.06667 40.8 1.06667Z" stroke="black" stroke-opacity="0.1" stroke-width="2.13333"/>
</g>
</g>
<defs>
<clipPath id="clip0_3_152">
<rect width="44.8" height="32" fill="white" transform="translate(0.266693)"/>
</clipPath>
</defs>
</svg>
