<svg width="46" height="32" viewBox="0 0 46 32" fill="none" xmlns="http://www.w3.org/2000/svg">
<g clip-path="url(#clip0_3_151)">
<mask id="mask0_3_151" style="mask-type:alpha" maskUnits="userSpaceOnUse" x="0" y="0" width="46" height="32">
<path d="M40.9333 0H4.66666C2.31025 0 0.399994 1.91025 0.399994 4.26667V27.7333C0.399994 30.0898 2.31025 32 4.66666 32H40.9333C43.2897 32 45.2 30.0898 45.2 27.7333V4.26667C45.2 1.91025 43.2897 0 40.9333 0Z" fill="white"/>
</mask>
<g mask="url(#mask0_3_151)">
<path d="M40.9333 0H4.66666C2.31025 0 0.399994 1.91025 0.399994 4.26667V27.7333C0.399994 30.0898 2.31025 32 4.66666 32H40.9333C43.2897 32 45.2 30.0898 45.2 27.7333V4.26667C45.2 1.91025 43.2897 0 40.9333 0Z" fill="#FDD200"/>
<path fill-rule="evenodd" clip-rule="evenodd" d="M0.399994 21.3333H45.2V32H0.399994V21.3333Z" fill="#3673C7"/>
<path fill-rule="evenodd" clip-rule="evenodd" d="M0.399994 0H45.2V10.6667H0.399994V0Z" fill="#009F5E"/>
<path d="M40.9333 1.06667H4.66668C2.89936 1.06667 1.46667 2.49936 1.46667 4.26667V27.7333C1.46667 29.5006 2.89936 30.9333 4.66668 30.9333H40.9333C42.7007 30.9333 44.1333 29.5006 44.1333 27.7333V4.26667C44.1333 2.49936 42.7007 1.06667 40.9333 1.06667Z" stroke="black" stroke-opacity="0.1" stroke-width="2.13333"/>
</g>
</g>
<defs>
<clipPath id="clip0_3_151">
<rect width="44.8" height="32" fill="white" transform="translate(0.399994)"/>
</clipPath>
</defs>
</svg>
