<svg width="46" height="32" viewBox="0 0 46 32" fill="none" xmlns="http://www.w3.org/2000/svg">
<g clip-path="url(#clip0_3_150)">
<mask id="mask0_3_150" style="mask-type:alpha" maskUnits="userSpaceOnUse" x="0" y="0" width="46" height="32">
<path d="M41.0667 0H4.79999C2.44358 0 0.533325 1.91025 0.533325 4.26667V27.7333C0.533325 30.0898 2.44358 32 4.79999 32H41.0667C43.4231 32 45.3333 30.0898 45.3333 27.7333V4.26667C45.3333 1.91025 43.4231 0 41.0667 0Z" fill="white"/>
</mask>
<g mask="url(#mask0_3_150)">
<path d="M41.0667 0H4.79999C2.44358 0 0.533325 1.91025 0.533325 4.26667V27.7333C0.533325 30.0898 2.44358 32 4.79999 32H41.0667C43.4231 32 45.3333 30.0898 45.3333 27.7333V4.26667C45.3333 1.91025 43.4231 0 41.0667 0Z" fill="#22438B"/>
<path fill-rule="evenodd" clip-rule="evenodd" d="M6.93334 2.13333L2.61121 2.1888L2.66667 6.4L38.8949 29.9264L43.2405 29.8475L43.1595 25.6619L6.93334 2.13333Z" fill="white"/>
<path fill-rule="evenodd" clip-rule="evenodd" d="M4.80002 2.13333L2.66669 4.26667L41.0667 29.8667L43.2 27.7333L4.80002 2.13333Z" fill="#C7152A"/>
<path fill-rule="evenodd" clip-rule="evenodd" d="M38.9333 2.13333H43.2V6.4C43.2 6.4 18.1333 22.1781 6.97173 29.9264C6.83733 30.0203 2.70933 29.9328 2.70933 29.9328L2.37866 25.8773L38.9333 2.13333Z" fill="white"/>
<path fill-rule="evenodd" clip-rule="evenodd" d="M41.1584 2.0736L43.2 4.26667L4.80002 29.8667L2.66669 27.7333L41.1584 2.0736Z" fill="#C7152A"/>
<path fill-rule="evenodd" clip-rule="evenodd" d="M17.6 2.13333H28.2667V10.6667H43.2V21.3333H28.2667V29.8667H17.6V21.3333H2.66669V10.6667H17.6V2.13333Z" fill="white"/>
<path fill-rule="evenodd" clip-rule="evenodd" d="M19.7334 2.13333H26.1334V12.8H43.2V19.2H26.1334V29.8667H19.7334V19.2H2.66669V12.8H19.7334V2.13333Z" fill="#C7152A"/>
<path d="M41.0667 1.06667H4.80001C3.03269 1.06667 1.60001 2.49936 1.60001 4.26667V27.7333C1.60001 29.5006 3.03269 30.9333 4.80001 30.9333H41.0667C42.834 30.9333 44.2667 29.5006 44.2667 27.7333V4.26667C44.2667 2.49936 42.834 1.06667 41.0667 1.06667Z" stroke="black" stroke-opacity="0.1" stroke-width="2.13333"/>
</g>
</g>
<defs>
<clipPath id="clip0_3_150">
<rect width="44.8" height="32" fill="white" transform="translate(0.533325)"/>
</clipPath>
</defs>
</svg>
