<svg width="46" height="32" viewBox="0 0 46 32" fill="none" xmlns="http://www.w3.org/2000/svg">
<mask id="mask0_3_149" style="mask-type:alpha" maskUnits="userSpaceOnUse" x="0" y="0" width="46" height="32">
<path d="M41.2 0H4.93332C2.57691 0 0.666656 1.91025 0.666656 4.26667V27.7333C0.666656 30.0898 2.57691 32 4.93332 32H41.2C43.5564 32 45.4667 30.0898 45.4667 27.7333V4.26667C45.4667 1.91025 43.5564 0 41.2 0Z" fill="white"/>
</mask>
<g mask="url(#mask0_3_149)">
<path d="M41.2 0H4.93332C2.57691 0 0.666656 1.91025 0.666656 4.26667V27.7333C0.666656 30.0898 2.57691 32 4.93332 32H41.2C43.5564 32 45.4667 30.0898 45.4667 27.7333V4.26667C45.4667 1.91025 43.5564 0 41.2 0Z" fill="#D0091E"/>
<path fill-rule="evenodd" clip-rule="evenodd" d="M7.06665 6.4H39.0667V25.6H7.06665V6.4Z" fill="#FDD200"/>
<path fill-rule="evenodd" clip-rule="evenodd" d="M7.06665 6.4L23.0667 16L7.06665 25.6V6.4Z" fill="#007B5D"/>
<path fill-rule="evenodd" clip-rule="evenodd" d="M9.20001 14.9333H11.3333V17.0667H9.20001V14.9333Z" fill="#F7BA03"/>
<path fill-rule="evenodd" clip-rule="evenodd" d="M39.0667 6.4L23.0667 16L39.0667 25.6V6.4Z" fill="#007B5D"/>
<path fill-rule="evenodd" clip-rule="evenodd" d="M15.6 2.13333H17.7333V4.26667H15.6V2.13333ZM22 2.13333H24.1333V4.26667H22V2.13333ZM28.4 2.13333H30.5333V4.26667H28.4V2.13333ZM15.6 27.7333H17.7333V29.8667H15.6V27.7333ZM22 27.7333H24.1333V29.8667H22V27.7333ZM28.4 27.7333H30.5333V29.8667H28.4V27.7333Z" fill="#F3A906"/>
<path d="M23.0667 21.3333C26.0122 21.3333 28.4 18.9455 28.4 16C28.4 13.0545 26.0122 10.6667 23.0667 10.6667C20.1212 10.6667 17.7333 13.0545 17.7333 16C17.7333 18.9455 20.1212 21.3333 23.0667 21.3333Z" fill="#D0091E"/>
<path fill-rule="evenodd" clip-rule="evenodd" d="M23.0667 18.6667L19.9307 20.3157L20.528 16.8235L17.9936 14.3488L21.4987 13.8432L23.0667 10.6667L24.6347 13.8453L28.1398 14.3509L25.6011 16.8256L26.1984 20.3157" fill="#FDD200"/>
<path d="M41.2 1.06667H4.93334C3.16603 1.06667 1.73334 2.49936 1.73334 4.26667V27.7333C1.73334 29.5006 3.16603 30.9333 4.93334 30.9333H41.2C42.9673 30.9333 44.4 29.5006 44.4 27.7333V4.26667C44.4 2.49936 42.9673 1.06667 41.2 1.06667Z" stroke="black" stroke-opacity="0.1" stroke-width="2.13333"/>
</g>
</svg>
