<svg width="46" height="32" viewBox="0 0 46 32" fill="none" xmlns="http://www.w3.org/2000/svg">
<g clip-path="url(#clip0_3_148)">
<mask id="mask0_3_148" style="mask-type:alpha" maskUnits="userSpaceOnUse" x="0" y="0" width="46" height="32">
<path d="M41.3333 0H5.06665C2.71024 0 0.799988 1.91025 0.799988 4.26667V27.7333C0.799988 30.0898 2.71024 32 5.06665 32H41.3333C43.6897 32 45.6 30.0898 45.6 27.7333V4.26667C45.6 1.91025 43.6897 0 41.3333 0Z" fill="white"/>
</mask>
<g mask="url(#mask0_3_148)">
<path d="M41.3333 0H5.06665C2.71024 0 0.799988 1.91025 0.799988 4.26667V27.7333C0.799988 30.0898 2.71024 32 5.06665 32H41.3333C43.6897 32 45.6 30.0898 45.6 27.7333V4.26667C45.6 1.91025 43.6897 0 41.3333 0Z" fill="white"/>
<path fill-rule="evenodd" clip-rule="evenodd" d="M20 19.2H0.799988V12.8H20V0H26.4V12.8H45.6V19.2H26.4V32H20V19.2Z" fill="#FF0000"/>
<path fill-rule="evenodd" clip-rule="evenodd" d="M32.8 23.4667H30.6666V25.6H32.8V27.7333H34.9333V25.6H37.0666V23.4667H34.9333V21.3333H32.8V23.4667ZM32.8 6.4H30.6666V8.53333H32.8V10.6667H34.9333V8.53333H37.0666V6.4H34.9333V4.26667H32.8V6.4ZM11.4666 6.4H9.33331V8.53333H11.4666V10.6667H13.6V8.53333H15.7333V6.4H13.6V4.26667H11.4666V6.4ZM11.4666 23.4667H9.33331V25.6H11.4666V27.7333H13.6V25.6H15.7333V23.4667H13.6V21.3333H11.4666V23.4667Z" fill="#FF0000"/>
<path d="M41.3333 1.06667H5.06664C3.29933 1.06667 1.86664 2.49936 1.86664 4.26667V27.7333C1.86664 29.5006 3.29933 30.9333 5.06664 30.9333H41.3333C43.1006 30.9333 44.5333 29.5006 44.5333 27.7333V4.26667C44.5333 2.49936 43.1006 1.06667 41.3333 1.06667Z" stroke="black" stroke-opacity="0.1" stroke-width="2.13333"/>
</g>
</g>
<defs>
<clipPath id="clip0_3_148">
<rect width="44.8" height="32" fill="white" transform="translate(0.799988)"/>
</clipPath>
</defs>
</svg>
