<svg width="46" height="32" viewBox="0 0 46 32" fill="none" xmlns="http://www.w3.org/2000/svg">
<g clip-path="url(#clip0_3_147)">
<mask id="mask0_3_147" style="mask-type:alpha" maskUnits="userSpaceOnUse" x="0" y="0" width="46" height="32">
<path d="M41.4666 0H5.19995C2.84354 0 0.933289 1.91025 0.933289 4.26667V27.7333C0.933289 30.0898 2.84354 32 5.19995 32H41.4666C43.823 32 45.7333 30.0898 45.7333 27.7333V4.26667C45.7333 1.91025 43.823 0 41.4666 0Z" fill="white"/>
</mask>
<g mask="url(#mask0_3_147)">
<path d="M41.4666 0H5.19995C2.84354 0 0.933289 1.91025 0.933289 4.26667V27.7333C0.933289 30.0898 2.84354 32 5.19995 32H41.4666C43.823 32 45.7333 30.0898 45.7333 27.7333V4.26667C45.7333 1.91025 43.823 0 41.4666 0Z" fill="#FDD200"/>
<path fill-rule="evenodd" clip-rule="evenodd" d="M0.933289 21.3333H45.7333V32H0.933289V21.3333Z" fill="#006C3D"/>
<path fill-rule="evenodd" clip-rule="evenodd" d="M0.933289 0H45.7333V10.6667H0.933289V0Z" fill="#D0091E"/>
<path fill-rule="evenodd" clip-rule="evenodd" d="M23.3333 18.6667L20.1973 20.3157L20.7947 16.8235L18.2603 14.3488L21.7653 13.8432L23.3333 10.6667L24.9013 13.8453L28.4064 14.3509L25.8677 16.8256L26.4651 20.3157" fill="black"/>
<path d="M41.4667 1.06667H5.2C3.43269 1.06667 2 2.49936 2 4.26667V27.7333C2 29.5006 3.43269 30.9333 5.2 30.9333H41.4667C43.234 30.9333 44.6667 29.5006 44.6667 27.7333V4.26667C44.6667 2.49936 43.234 1.06667 41.4667 1.06667Z" stroke="black" stroke-opacity="0.1" stroke-width="2.13333"/>
</g>
</g>
<defs>
<clipPath id="clip0_3_147">
<rect width="44.8" height="32" fill="white" transform="translate(0.933289)"/>
</clipPath>
</defs>
</svg>
