<svg width="45" height="32" viewBox="0 0 45 32" fill="none" xmlns="http://www.w3.org/2000/svg">
<g clip-path="url(#clip0_3_146)">
<mask id="mask0_3_146" style="mask-type:alpha" maskUnits="userSpaceOnUse" x="0" y="0" width="45" height="32">
<path d="M40.6 0H4.33332C1.9769 0 0.0666504 1.91025 0.0666504 4.26667V27.7333C0.0666504 30.0898 1.9769 32 4.33332 32H40.6C42.9564 32 44.8666 30.0898 44.8666 27.7333V4.26667C44.8666 1.91025 42.9564 0 40.6 0Z" fill="white"/>
</mask>
<g mask="url(#mask0_3_146)">
<path d="M40.6 0H4.33332C1.9769 0 0.0666504 1.91025 0.0666504 4.26667V27.7333C0.0666504 30.0898 1.9769 32 4.33332 32H40.6C42.9564 32 44.8666 30.0898 44.8666 27.7333V4.26667C44.8666 1.91025 42.9564 0 40.6 0Z" fill="white"/>
<path fill-rule="evenodd" clip-rule="evenodd" d="M0.0666504 21.3333H44.8666V32H0.0666504V21.3333Z" fill="#387822"/>
<path fill-rule="evenodd" clip-rule="evenodd" d="M0.0666504 12.8H44.8666V19.2H0.0666504V12.8Z" fill="#09148F"/>
<path fill-rule="evenodd" clip-rule="evenodd" d="M0.0666504 0H44.8666V10.6667H0.0666504V0Z" fill="#D0091E"/>
<path d="M40.6 1.06667H4.3333C2.56599 1.06667 1.1333 2.49936 1.1333 4.26667V27.7333C1.1333 29.5006 2.56599 30.9333 4.3333 30.9333H40.6C42.3673 30.9333 43.8 29.5006 43.8 27.7333V4.26667C43.8 2.49936 42.3673 1.06667 40.6 1.06667Z" stroke="black" stroke-opacity="0.1" stroke-width="2.13333"/>
</g>
</g>
<defs>
<clipPath id="clip0_3_146">
<rect width="44.8" height="32" fill="white" transform="translate(0.0666504)"/>
</clipPath>
</defs>
</svg>
