<svg width="45" height="32" viewBox="0 0 45 32" fill="none" xmlns="http://www.w3.org/2000/svg">
<g clip-path="url(#clip0_3_145)">
<mask id="mask0_3_145" style="mask-type:alpha" maskUnits="userSpaceOnUse" x="0" y="0" width="45" height="32">
<path d="M40.7333 0H4.46668C2.11026 0 0.200012 1.91025 0.200012 4.26667V27.7333C0.200012 30.0898 2.11026 32 4.46668 32H40.7333C43.0898 32 45 30.0898 45 27.7333V4.26667C45 1.91025 43.0898 0 40.7333 0Z" fill="white"/>
</mask>
<g mask="url(#mask0_3_145)">
<path d="M40.7333 0H4.46668C2.11026 0 0.200012 1.91025 0.200012 4.26667V27.7333C0.200012 30.0898 2.11026 32 4.46668 32H40.7333C43.0898 32 45 30.0898 45 27.7333V4.26667C45 1.91025 43.0898 0 40.7333 0Z" fill="#FDD200"/>
<path fill-rule="evenodd" clip-rule="evenodd" d="M0.200012 0H15.1333V32H0.200012V0Z" fill="#D0091E"/>
<path fill-rule="evenodd" clip-rule="evenodd" d="M30.0667 0H45V32H30.0667V0Z" fill="#00955E"/>
<path d="M40.7333 1.06667H4.46666C2.69935 1.06667 1.26666 2.49936 1.26666 4.26667V27.7333C1.26666 29.5006 2.69935 30.9333 4.46666 30.9333H40.7333C42.5006 30.9333 43.9333 29.5006 43.9333 27.7333V4.26667C43.9333 2.49936 42.5006 1.06667 40.7333 1.06667Z" stroke="black" stroke-opacity="0.1" stroke-width="2.13333"/>
</g>
</g>
<defs>
<clipPath id="clip0_3_145">
<rect width="44.8" height="32" fill="white" transform="translate(0.200012)"/>
</clipPath>
</defs>
</svg>
