<svg width="45" height="33" viewBox="0 0 45 33" fill="none" xmlns="http://www.w3.org/2000/svg">
<mask id="mask0_3_144" style="mask-type:alpha" maskUnits="userSpaceOnUse" x="0" y="0" width="45" height="33">
<path d="M40.5333 0.333336H4.26667C1.91025 0.333336 0 2.24359 0 4.6V28.0667C0 30.4231 1.91025 32.3333 4.26667 32.3333H40.5333C42.8897 32.3333 44.8 30.4231 44.8 28.0667V4.6C44.8 2.24359 42.8897 0.333336 40.5333 0.333336Z" fill="white"/>
</mask>
<g mask="url(#mask0_3_144)">
<path d="M40.5333 0.333336H4.26667C1.91025 0.333336 0 2.24359 0 4.6V28.0667C0 30.4231 1.91025 32.3333 4.26667 32.3333H40.5333C42.8897 32.3333 44.8 30.4231 44.8 28.0667V4.6C44.8 2.24359 42.8897 0.333336 40.5333 0.333336Z" fill="white"/>
<path fill-rule="evenodd" clip-rule="evenodd" d="M0 21.6667H44.8V32.3333H0V21.6667Z" fill="#E61D00"/>
<path fill-rule="evenodd" clip-rule="evenodd" d="M0 0.333336H44.8V11H0V0.333336Z" fill="#3A9B00"/>
<path fill-rule="evenodd" clip-rule="evenodd" d="M22.4 15.2667C22.9888 15.2667 23.4667 14.7888 23.4667 14.2C23.4667 13.6112 22.9888 13.1333 22.4 13.1333C21.8112 13.1333 21.3333 13.6112 21.3333 14.2C21.3333 14.7888 21.8112 15.2667 22.4 15.2667ZM26.6667 15.2667C27.2555 15.2667 27.7333 14.7888 27.7333 14.2C27.7333 13.6112 27.2555 13.1333 26.6667 13.1333C26.0779 13.1333 25.6 13.6112 25.6 14.2C25.6 14.7888 26.0779 15.2667 26.6667 15.2667ZM30.9333 15.2667C31.5221 15.2667 32 14.7888 32 14.2C32 13.6112 31.5221 13.1333 30.9333 13.1333C30.3445 13.1333 29.8667 13.6112 29.8667 14.2C29.8667 14.7888 30.3445 15.2667 30.9333 15.2667Z" fill="#FFD900"/>
<path fill-rule="evenodd" clip-rule="evenodd" d="M24.5333 17.4C25.1221 17.4 25.6 16.9221 25.6 16.3333C25.6 15.7445 25.1221 15.2667 24.5333 15.2667C23.9445 15.2667 23.4667 15.7445 23.4667 16.3333C23.4667 16.9221 23.9445 17.4 24.5333 17.4ZM28.8 17.4C29.3888 17.4 29.8667 16.9221 29.8667 16.3333C29.8667 15.7445 29.3888 15.2667 28.8 15.2667C28.2112 15.2667 27.7333 15.7445 27.7333 16.3333C27.7333 16.9221 28.2112 17.4 28.8 17.4Z" fill="#009432"/>
<path fill-rule="evenodd" clip-rule="evenodd" d="M25.6 15.2667H27.7333V19.5333H25.6V15.2667Z" fill="#A46620"/>
<path fill-rule="evenodd" clip-rule="evenodd" d="M0 0.333336V32.4037L14.9333 16.3333L0 0.333336Z" fill="#0071D1"/>
<path d="M40.5333 1.4H4.26667C2.49935 1.4 1.06667 2.83269 1.06667 4.6V28.0667C1.06667 29.834 2.49935 31.2667 4.26667 31.2667H40.5333C42.3006 31.2667 43.7333 29.834 43.7333 28.0667V4.6C43.7333 2.83269 42.3006 1.4 40.5333 1.4Z" stroke="black" stroke-opacity="0.1" stroke-width="2.13333"/>
</g>
</svg>
