<svg width="45" height="33" viewBox="0 0 45 33" fill="none" xmlns="http://www.w3.org/2000/svg">
<mask id="mask0_3_143" style="mask-type:alpha" maskUnits="userSpaceOnUse" x="0" y="0" width="45" height="33">
<path d="M40.6667 0.333336H4.40001C2.0436 0.333336 0.133347 2.24359 0.133347 4.6V28.0667C0.133347 30.4231 2.0436 32.3333 4.40001 32.3333H40.6667C43.0231 32.3333 44.9333 30.4231 44.9333 28.0667V4.6C44.9333 2.24359 43.0231 0.333336 40.6667 0.333336Z" fill="white"/>
</mask>
<g mask="url(#mask0_3_143)">
<path d="M40.6667 0.333336H4.40001C2.0436 0.333336 0.133347 2.24359 0.133347 4.6V28.0667C0.133347 30.4231 2.0436 32.3333 4.40001 32.3333H40.6667C43.0231 32.3333 44.9333 30.4231 44.9333 28.0667V4.6C44.9333 2.24359 43.0231 0.333336 40.6667 0.333336Z" fill="white"/>
<path fill-rule="evenodd" clip-rule="evenodd" d="M0.133347 0.333336H8.66668V8.86667H0.133347V0.333336ZM12.9333 0.333336H21.4667V8.86667H12.9333V0.333336ZM0.133347 13.1333H8.66668V21.6667H0.133347V13.1333ZM12.9333 13.1333H21.4667V21.6667H12.9333V13.1333ZM21.4667 0.333336H44.9333V4.6H21.4667V0.333336ZM21.4667 8.86667H44.9333V13.1333H21.4667V8.86667Z" fill="#005CB2"/>
<path fill-rule="evenodd" clip-rule="evenodd" d="M0.133347 17.4H44.9333V21.6667H0.133347V17.4ZM8.66668 17.4H12.9333V21.6667H8.66668V17.4ZM0.133347 25.9333H44.9333V30.2H0.133347V25.9333Z" fill="#005CB2"/>
<path d="M40.6667 1.4H4.4C2.63269 1.4 1.2 2.83269 1.2 4.6V28.0667C1.2 29.834 2.63269 31.2667 4.4 31.2667H40.6667C42.434 31.2667 43.8667 29.834 43.8667 28.0667V4.6C43.8667 2.83269 42.434 1.4 40.6667 1.4Z" stroke="black" stroke-opacity="0.1" stroke-width="2.13333"/>
</g>
</svg>
