<svg width="46" height="33" viewBox="0 0 46 33" fill="none" xmlns="http://www.w3.org/2000/svg">
<g clip-path="url(#clip0_3_142)">
<mask id="mask0_3_142" style="mask-type:alpha" maskUnits="userSpaceOnUse" x="0" y="0" width="46" height="33">
<path d="M40.8 0.333336H4.53336C2.17694 0.333336 0.266693 2.24359 0.266693 4.6V28.0667C0.266693 30.4231 2.17694 32.3333 4.53336 32.3333H40.8C43.1564 32.3333 45.0667 30.4231 45.0667 28.0667V4.6C45.0667 2.24359 43.1564 0.333336 40.8 0.333336Z" fill="white"/>
</mask>
<g mask="url(#mask0_3_142)">
<path d="M40.8 0.333336H4.53336C2.17694 0.333336 0.266693 2.24359 0.266693 4.6V28.0667C0.266693 30.4231 2.17694 32.3333 4.53336 32.3333H40.8C43.1564 32.3333 45.0667 30.4231 45.0667 28.0667V4.6C45.0667 2.24359 43.1564 0.333336 40.8 0.333336Z" fill="white"/>
<path fill-rule="evenodd" clip-rule="evenodd" d="M28 16.3333C28 13.3893 25.6107 11 22.6667 11C19.7227 11 17.3333 13.3893 17.3333 16.3333C17.3333 19.2773 19.7227 21.6667 22.6667 21.6667C25.6107 21.6667 28 19.2773 28 16.3333ZM22.6667 19.5333C24.4331 19.5333 25.8667 17.624 25.8667 15.2667C25.8667 12.9093 24.4331 11 22.6667 11C20.9003 11 19.4667 12.9093 19.4667 15.2667C19.4667 17.624 20.9003 19.5333 22.6667 19.5333Z" fill="#406421"/>
<path d="M22.6667 17.4C23.2558 17.4 23.7333 16.4449 23.7333 15.2667C23.7333 14.0885 23.2558 13.1333 22.6667 13.1333C22.0776 13.1333 21.6 14.0885 21.6 15.2667C21.6 16.4449 22.0776 17.4 22.6667 17.4Z" fill="#D5B852"/>
<path fill-rule="evenodd" clip-rule="evenodd" d="M0.266693 0.333336H15.2V32.3333H0.266693V0.333336ZM30.1334 0.333336H45.0667V32.3333H30.1334V0.333336Z" fill="#4596D2"/>
<path d="M40.8 1.4H4.53331C2.766 1.4 1.33331 2.83269 1.33331 4.6V28.0667C1.33331 29.834 2.766 31.2667 4.53331 31.2667H40.8C42.5673 31.2667 44 29.834 44 28.0667V4.6C44 2.83269 42.5673 1.4 40.8 1.4Z" stroke="black" stroke-opacity="0.1" stroke-width="2.13333"/>
</g>
</g>
<defs>
<clipPath id="clip0_3_142">
<rect width="44.8" height="32" fill="white" transform="translate(0.266693 0.333336)"/>
</clipPath>
</defs>
</svg>
