<svg width="46" height="33" viewBox="0 0 46 33" fill="none" xmlns="http://www.w3.org/2000/svg">
<g clip-path="url(#clip0_3_141)">
<mask id="mask0_3_141" style="mask-type:alpha" maskUnits="userSpaceOnUse" x="0" y="0" width="46" height="33">
<path d="M40.9333 0.333336H4.66666C2.31025 0.333336 0.399994 2.24359 0.399994 4.6V28.0667C0.399994 30.4231 2.31025 32.3333 4.66666 32.3333H40.9333C43.2897 32.3333 45.2 30.4231 45.2 28.0667V4.6C45.2 2.24359 43.2897 0.333336 40.9333 0.333336Z" fill="white"/>
</mask>
<g mask="url(#mask0_3_141)">
<path d="M40.9333 0.333336H4.66666C2.31025 0.333336 0.399994 2.24359 0.399994 4.6V28.0667C0.399994 30.4231 2.31025 32.3333 4.66666 32.3333H40.9333C43.2897 32.3333 45.2 30.4231 45.2 28.0667V4.6C45.2 2.24359 43.2897 0.333336 40.9333 0.333336Z" fill="#FDD200"/>
<path fill-rule="evenodd" clip-rule="evenodd" d="M0.399994 17.4H45.2V32.3333H0.399994V17.4Z" fill="#009F45"/>
<path fill-rule="evenodd" clip-rule="evenodd" d="M0.399994 0.333336H17.4667V32.3333H0.399994V0.333336Z" fill="#D0091E"/>
<path fill-rule="evenodd" clip-rule="evenodd" d="M10 19L6.86401 20.6491L7.46134 17.1568L4.92694 14.6821L8.43201 14.1765L10 11L11.568 14.1787L15.0731 14.6843L12.5344 17.1589L13.1317 20.6491" fill="black"/>
<path d="M40.9333 1.4H4.66668C2.89936 1.4 1.46667 2.83269 1.46667 4.6V28.0667C1.46667 29.834 2.89936 31.2667 4.66668 31.2667H40.9333C42.7007 31.2667 44.1333 29.834 44.1333 28.0667V4.6C44.1333 2.83269 42.7007 1.4 40.9333 1.4Z" stroke="black" stroke-opacity="0.1" stroke-width="2.13333"/>
</g>
</g>
<defs>
<clipPath id="clip0_3_141">
<rect width="44.8" height="32" fill="white" transform="translate(0.399994 0.333336)"/>
</clipPath>
</defs>
</svg>
