<svg width="46" height="33" viewBox="0 0 46 33" fill="none" xmlns="http://www.w3.org/2000/svg">
<g clip-path="url(#clip0_3_140)">
<mask id="mask0_3_140" style="mask-type:alpha" maskUnits="userSpaceOnUse" x="0" y="0" width="46" height="33">
<path d="M41.0667 0.333336H4.79999C2.44358 0.333336 0.533325 2.24359 0.533325 4.6V28.0667C0.533325 30.4231 2.44358 32.3333 4.79999 32.3333H41.0667C43.4231 32.3333 45.3333 30.4231 45.3333 28.0667V4.6C45.3333 2.24359 43.4231 0.333336 41.0667 0.333336Z" fill="white"/>
</mask>
<g mask="url(#mask0_3_140)">
<path d="M41.0667 0.333336H4.79999C2.44358 0.333336 0.533325 2.24359 0.533325 4.6V28.0667C0.533325 30.4231 2.44358 32.3333 4.79999 32.3333H41.0667C43.4231 32.3333 45.3333 30.4231 45.3333 28.0667V4.6C45.3333 2.24359 43.4231 0.333336 41.0667 0.333336Z" fill="#009F45"/>
<path fill-rule="evenodd" clip-rule="evenodd" d="M0.533325 32.3333V0.333336H6.93332L45.3333 13.1333V19.5333L6.93332 32.3333H0.533325Z" fill="white"/>
<path fill-rule="evenodd" clip-rule="evenodd" d="M0.533325 0.333336L45.3333 16.3333L0.533325 32.3333V0.333336Z" fill="#FDD200"/>
<path fill-rule="evenodd" clip-rule="evenodd" d="M0.533325 32.3333V0.333336H2.66666L24 16.3333L2.66666 32.3333H0.533325Z" fill="black"/>
<path fill-rule="evenodd" clip-rule="evenodd" d="M0.533325 0.333336L21.8667 16.3333L0.533325 32.3333V0.333336Z" fill="#D0091E"/>
<path d="M41.0667 1.4H4.80001C3.03269 1.4 1.60001 2.83269 1.60001 4.6V28.0667C1.60001 29.834 3.03269 31.2667 4.80001 31.2667H41.0667C42.834 31.2667 44.2667 29.834 44.2667 28.0667V4.6C44.2667 2.83269 42.834 1.4 41.0667 1.4Z" stroke="black" stroke-opacity="0.1" stroke-width="2.13333"/>
</g>
</g>
<defs>
<clipPath id="clip0_3_140">
<rect width="44.8" height="32" fill="white" transform="translate(0.533325 0.333336)"/>
</clipPath>
</defs>
</svg>
