<svg width="46" height="33" viewBox="0 0 46 33" fill="none" xmlns="http://www.w3.org/2000/svg">
<mask id="mask0_3_139" style="mask-type:alpha" maskUnits="userSpaceOnUse" x="0" y="0" width="46" height="33">
<path d="M41.2 0.333336H4.93332C2.57691 0.333336 0.666656 2.24359 0.666656 4.6V28.0667C0.666656 30.4231 2.57691 32.3333 4.93332 32.3333H41.2C43.5564 32.3333 45.4667 30.4231 45.4667 28.0667V4.6C45.4667 2.24359 43.5564 0.333336 41.2 0.333336Z" fill="white"/>
</mask>
<g mask="url(#mask0_3_139)">
<path d="M41.2 0.333336H4.93332C2.57691 0.333336 0.666656 2.24359 0.666656 4.6V28.0667C0.666656 30.4231 2.57691 32.3333 4.93332 32.3333H41.2C43.5564 32.3333 45.4667 30.4231 45.4667 28.0667V4.6C45.4667 2.24359 43.5564 0.333336 41.2 0.333336Z" fill="#DE2910"/>
<path fill-rule="evenodd" clip-rule="evenodd" d="M22.3307 16.3632C16.5451 13.9141 19.1093 6.37067 24.6453 6.74614C23.5232 7.32214 23.3611 8.39733 24.0011 9.39147C24.7179 10.5093 23.9371 12.3035 22.9685 12.7408C21.3771 13.4555 21.0592 15.3648 22.3285 16.3632H22.3307ZM22.8149 16.1029C23.3547 9.84587 31.3269 9.95254 32.6709 15.3307C31.7792 14.4453 30.7083 14.6224 29.9573 15.5397C29.1189 16.5637 27.1712 16.3717 26.4587 15.5888C25.2853 14.3003 23.3653 14.5861 22.8149 16.1051V16.1029ZM23.0112 16.728C29.1552 15.416 31.3824 23.0683 26.6315 25.9312C27.2203 24.8155 26.7381 23.8405 25.6416 23.3925C24.4171 22.8891 24.0288 20.9712 24.5707 20.0603C25.4624 18.5605 24.6261 16.8112 23.0133 16.7259L23.0112 16.728ZM15.0667 23.7573C16.304 23.9707 17.0827 23.2091 17.1701 22.0293C17.2704 20.7067 18.9728 19.7467 20.0075 19.9813C21.7099 20.3653 23.1157 19.0299 22.6955 17.4683C25.8443 22.9083 19.2544 27.3883 15.0645 23.7552L15.0667 23.7573ZM13.7931 12.0667C14.0384 13.2997 15.0261 13.752 16.1611 13.4107C17.4304 13.0309 18.9387 14.2768 19.0901 15.3307C19.3419 17.0544 21.0912 17.8864 22.3968 16.9392C18.4501 21.8245 11.9008 17.2805 13.7931 12.0645V12.0667Z" fill="white"/>
<path d="M41.2 1.4H4.93334C3.16603 1.4 1.73334 2.83269 1.73334 4.6V28.0667C1.73334 29.834 3.16603 31.2667 4.93334 31.2667H41.2C42.9673 31.2667 44.4 29.834 44.4 28.0667V4.6C44.4 2.83269 42.9673 1.4 41.2 1.4Z" stroke="black" stroke-opacity="0.1" stroke-width="2.13333"/>
</g>
</svg>
