<svg width="46" height="33" viewBox="0 0 46 33" fill="none" xmlns="http://www.w3.org/2000/svg">
<g clip-path="url(#clip0_3_137)">
<mask id="mask0_3_137" style="mask-type:alpha" maskUnits="userSpaceOnUse" x="0" y="0" width="46" height="33">
<path d="M41.4666 0.333336H5.19995C2.84354 0.333336 0.933289 2.24359 0.933289 4.6V28.0667C0.933289 30.4231 2.84354 32.3333 5.19995 32.3333H41.4666C43.823 32.3333 45.7333 30.4231 45.7333 28.0667V4.6C45.7333 2.24359 43.823 0.333336 41.4666 0.333336Z" fill="white"/>
</mask>
<g mask="url(#mask0_3_137)">
<path d="M41.4666 0.333336H5.19995C2.84354 0.333336 0.933289 2.24359 0.933289 4.6V28.0667C0.933289 30.4231 2.84354 32.3333 5.19995 32.3333H41.4666C43.823 32.3333 45.7333 30.4231 45.7333 28.0667V4.6C45.7333 2.24359 43.823 0.333336 41.4666 0.333336Z" fill="white"/>
<path fill-rule="evenodd" clip-rule="evenodd" d="M0.933289 21.6667H45.7333V32.3333H0.933289V21.6667Z" fill="#150A99"/>
<path fill-rule="evenodd" clip-rule="evenodd" d="M0.933289 0.333336H45.7333V11H0.933289V0.333336Z" fill="#FF0000"/>
<path fill-rule="evenodd" clip-rule="evenodd" d="M18 8.86666H20.1333V11H18V8.86666ZM22.2667 6.73333H24.4V11H22.2667V6.73333ZM26.5333 8.86666H28.6667V11H26.5333V8.86666Z" fill="#0091E0"/>
<path fill-rule="evenodd" clip-rule="evenodd" d="M24.4 6.73333H26.5334V11H24.4V6.73333ZM20.1334 6.73333H22.2667V11H20.1334V6.73333Z" fill="#150A99"/>
</g>
<mask id="mask1_3_137" style="mask-type:alpha" maskUnits="userSpaceOnUse" x="18" y="11" width="11" height="13">
<path d="M28.6667 18.4667C28.6667 21.4107 26.2773 23.8 23.3333 23.8C20.3893 23.8 18 21.4107 18 18.4667V11H28.6667V18.4667Z" fill="white"/>
</mask>
<g mask="url(#mask1_3_137)">
<path d="M28.6667 18.4667C28.6667 21.4107 26.2773 23.8 23.3333 23.8C20.3893 23.8 18 21.4107 18 18.4667V11H28.6667V18.4667Z" fill="#FF0000"/>
<path fill-rule="evenodd" clip-rule="evenodd" d="M20.1333 21.6667H22.2667V23.8H20.1333V21.6667ZM24.4 21.6667H26.5333V23.8H24.4V21.6667ZM22.2667 19.5333H24.4V21.6667H22.2667V19.5333ZM20.1333 17.4H22.2667V19.5333H20.1333V17.4ZM24.4 17.4H26.5333V19.5333H24.4V17.4ZM22.2667 15.2667H24.4V17.4H22.2667V15.2667ZM20.1333 13.1333H22.2667V15.2667H20.1333V13.1333ZM24.4 13.1333H26.5333V15.2667H24.4V13.1333ZM22.2667 11H24.4V13.1333H22.2667V11ZM26.5333 11H28.6667V13.1333H26.5333V11ZM26.5333 15.2667H28.6667V17.4H26.5333V15.2667ZM26.5333 19.5333H28.6667V21.6667H26.5333V19.5333ZM18 19.5333H20.1333V21.6667H18V19.5333ZM18 15.2667H20.1333V17.4H18V15.2667ZM18 11H20.1333V13.1333H18V11Z" fill="white"/>
<path d="M41.4667 1.4H5.2C3.43269 1.4 2 2.83269 2 4.6V28.0667C2 29.834 3.43269 31.2667 5.2 31.2667H41.4667C43.234 31.2667 44.6667 29.834 44.6667 28.0667V4.6C44.6667 2.83269 43.234 1.4 41.4667 1.4Z" stroke="black" stroke-opacity="0.1" stroke-width="2.13333"/>
</g>
</g>
<defs>
<clipPath id="clip0_3_137">
<rect width="44.8" height="32" fill="white" transform="translate(0.933289 0.333336)"/>
</clipPath>
</defs>
</svg>
