<svg width="45" height="33" viewBox="0 0 45 33" fill="none" xmlns="http://www.w3.org/2000/svg">
<g clip-path="url(#clip0_3_136)">
<mask id="mask0_3_136" style="mask-type:alpha" maskUnits="userSpaceOnUse" x="0" y="0" width="45" height="33">
<path d="M40.6 0.333336H4.33332C1.9769 0.333336 0.0666504 2.24359 0.0666504 4.6V28.0667C0.0666504 30.4231 1.9769 32.3333 4.33332 32.3333H40.6C42.9564 32.3333 44.8666 30.4231 44.8666 28.0667V4.6C44.8666 2.24359 42.9564 0.333336 40.6 0.333336Z" fill="white"/>
</mask>
<g mask="url(#mask0_3_136)">
<path d="M40.6 0.333336H4.33332C1.9769 0.333336 0.0666504 2.24359 0.0666504 4.6V28.0667C0.0666504 30.4231 1.9769 32.3333 4.33332 32.3333H40.6C42.9564 32.3333 44.8666 30.4231 44.8666 28.0667V4.6C44.8666 2.24359 42.9564 0.333336 40.6 0.333336Z" fill="#D4062E"/>
<path fill-rule="evenodd" clip-rule="evenodd" d="M0.0666504 0.333336H44.8666V17.4H0.0666504V0.333336Z" fill="#0017A2"/>
<path fill-rule="evenodd" clip-rule="evenodd" d="M17.1334 13.1333H27.8V19.5333H17.1334V13.1333Z" fill="white"/>
<path fill-rule="evenodd" clip-rule="evenodd" d="M21.4 15.2667H23.5333V19.5333H21.4V15.2667Z" fill="#F2B600"/>
<path fill-rule="evenodd" clip-rule="evenodd" d="M19.2667 16.3333C19.2667 14.5669 20.6875 13.1333 22.4667 13.1333C24.2331 13.1333 25.6667 14.5541 25.6667 16.3333V19.5333H19.2667V16.3333ZM21.4 16.344C21.4 15.7467 21.8949 15.2667 22.4667 15.2667C23.0555 15.2667 23.5333 15.7232 23.5333 16.344V19.5333H21.4V16.344Z" fill="#1C672C"/>
<path d="M40.6 1.4H4.3333C2.56599 1.4 1.1333 2.83269 1.1333 4.6V28.0667C1.1333 29.834 2.56599 31.2667 4.3333 31.2667H40.6C42.3673 31.2667 43.8 29.834 43.8 28.0667V4.6C43.8 2.83269 42.3673 1.4 40.6 1.4Z" stroke="black" stroke-opacity="0.1" stroke-width="2.13333"/>
</g>
</g>
<defs>
<clipPath id="clip0_3_136">
<rect width="44.8" height="32" fill="white" transform="translate(0.0666504 0.333336)"/>
</clipPath>
</defs>
</svg>
