<svg width="45" height="33" viewBox="0 0 45 33" fill="none" xmlns="http://www.w3.org/2000/svg">
<g clip-path="url(#clip0_3_135)">
<mask id="mask0_3_135" style="mask-type:alpha" maskUnits="userSpaceOnUse" x="0" y="0" width="45" height="33">
<path d="M40.7333 0.333336H4.46668C2.11026 0.333336 0.200012 2.24359 0.200012 4.6V28.0667C0.200012 30.4231 2.11026 32.3333 4.46668 32.3333H40.7333C43.0898 32.3333 45 30.4231 45 28.0667V4.6C45 2.24359 43.0898 0.333336 40.7333 0.333336Z" fill="white"/>
</mask>
<g mask="url(#mask0_3_135)">
<path d="M40.7333 0.333336H4.46668C2.11026 0.333336 0.200012 2.24359 0.200012 4.6V28.0667C0.200012 30.4231 2.11026 32.3333 4.46668 32.3333H40.7333C43.0898 32.3333 45 30.4231 45 28.0667V4.6C45 2.24359 43.0898 0.333336 40.7333 0.333336Z" fill="white"/>
<path fill-rule="evenodd" clip-rule="evenodd" d="M0.200012 21.6667H45V32.3333H0.200012V21.6667Z" fill="#41704C"/>
<path fill-rule="evenodd" clip-rule="evenodd" d="M0.200012 0.333336H45V11H0.200012V0.333336Z" fill="#CF273A"/>
<path d="M40.7333 1.4H4.46666C2.69935 1.4 1.26666 2.83269 1.26666 4.6V28.0667C1.26666 29.834 2.69935 31.2667 4.46666 31.2667H40.7333C42.5006 31.2667 43.9333 29.834 43.9333 28.0667V4.6C43.9333 2.83269 42.5006 1.4 40.7333 1.4Z" stroke="black" stroke-opacity="0.1" stroke-width="2.13333"/>
</g>
</g>
<defs>
<clipPath id="clip0_3_135">
<rect width="44.8" height="32" fill="white" transform="translate(0.200012 0.333336)"/>
</clipPath>
</defs>
</svg>
