<svg width="45" height="33" viewBox="0 0 45 33" fill="none" xmlns="http://www.w3.org/2000/svg">
<mask id="mask0_3_134" style="mask-type:alpha" maskUnits="userSpaceOnUse" x="0" y="0" width="45" height="33">
<path d="M40.5333 0.666672H4.26667C1.91025 0.666672 0 2.57692 0 4.93334V28.4C0 30.7564 1.91025 32.6667 4.26667 32.6667H40.5333C42.8897 32.6667 44.8 30.7564 44.8 28.4V4.93334C44.8 2.57692 42.8897 0.666672 40.5333 0.666672Z" fill="white"/>
</mask>
<g mask="url(#mask0_3_134)">
<path d="M40.5333 0.666672H4.26667C1.91025 0.666672 0 2.57692 0 4.93334V28.4C0 30.7564 1.91025 32.6667 4.26667 32.6667H40.5333C42.8897 32.6667 44.8 30.7564 44.8 28.4V4.93334C44.8 2.57692 42.8897 0.666672 40.5333 0.666672Z" fill="white"/>
<path fill-rule="evenodd" clip-rule="evenodd" d="M0 0.666672H44.8V17.7333H0V0.666672Z" fill="#D0091E"/>
<path d="M40.5333 1.73334H4.26667C2.49935 1.73334 1.06667 3.16603 1.06667 4.93334V28.4C1.06667 30.1673 2.49935 31.6 4.26667 31.6H40.5333C42.3006 31.6 43.7333 30.1673 43.7333 28.4V4.93334C43.7333 3.16603 42.3006 1.73334 40.5333 1.73334Z" stroke="black" stroke-opacity="0.1" stroke-width="2.13333"/>
</g>
</svg>
