<svg width="46" height="33" viewBox="0 0 46 33" fill="none" xmlns="http://www.w3.org/2000/svg">
<g clip-path="url(#clip0_3_131)">
<mask id="mask0_3_131" style="mask-type:alpha" maskUnits="userSpaceOnUse" x="0" y="0" width="46" height="33">
<path d="M40.9333 0.666672H4.66666C2.31025 0.666672 0.399994 2.57692 0.399994 4.93334V28.4C0.399994 30.7564 2.31025 32.6667 4.66666 32.6667H40.9333C43.2897 32.6667 45.2 30.7564 45.2 28.4V4.93334C45.2 2.57692 43.2897 0.666672 40.9333 0.666672Z" fill="white"/>
</mask>
<g mask="url(#mask0_3_131)">
<path d="M40.9333 0.666672H4.66666C2.31025 0.666672 0.399994 2.57692 0.399994 4.93334V28.4C0.399994 30.7564 2.31025 32.6667 4.66666 32.6667H40.9333C43.2897 32.6667 45.2 30.7564 45.2 28.4V4.93334C45.2 2.57692 43.2897 0.666672 40.9333 0.666672Z" fill="white"/>
<path fill-rule="evenodd" clip-rule="evenodd" d="M22.8 22C25.744 22 28.1333 19.6107 28.1333 16.6667C28.1333 13.7227 25.744 11.3333 22.8 11.3333C19.856 11.3333 17.4667 13.7227 17.4667 16.6667C17.4667 19.6107 19.856 22 22.8 22ZM22.8 19.8667C24.5664 19.8667 26 18.4331 26 16.6667C26 14.9003 24.5664 13.4667 22.8 13.4667C21.0336 13.4667 19.6 14.9003 19.6 16.6667C19.6 18.4331 21.0336 19.8667 22.8 19.8667Z" fill="#00008A"/>
<path d="M22.8 17.7333C23.3891 17.7333 23.8667 17.2558 23.8667 16.6667C23.8667 16.0776 23.3891 15.6 22.8 15.6C22.2109 15.6 21.7333 16.0776 21.7333 16.6667C21.7333 17.2558 22.2109 17.7333 22.8 17.7333Z" fill="#00008A"/>
<path fill-rule="evenodd" clip-rule="evenodd" d="M0.399994 22H45.2V32.6667H0.399994V22Z" fill="#018900"/>
<path fill-rule="evenodd" clip-rule="evenodd" d="M0.399994 0.666672H45.2V11.3333H0.399994V0.666672Z" fill="#FF991E"/>
<path d="M40.9333 1.73334H4.66668C2.89936 1.73334 1.46667 3.16603 1.46667 4.93334V28.4C1.46667 30.1673 2.89936 31.6 4.66668 31.6H40.9333C42.7007 31.6 44.1333 30.1673 44.1333 28.4V4.93334C44.1333 3.16603 42.7007 1.73334 40.9333 1.73334Z" stroke="black" stroke-opacity="0.1" stroke-width="2.13333"/>
</g>
</g>
<defs>
<clipPath id="clip0_3_131">
<rect width="44.8" height="32" fill="white" transform="translate(0.399994 0.666672)"/>
</clipPath>
</defs>
</svg>
