<svg width="46" height="33" viewBox="0 0 46 33" fill="none" xmlns="http://www.w3.org/2000/svg">
<g clip-path="url(#clip0_3_130)">
<mask id="mask0_3_130" style="mask-type:alpha" maskUnits="userSpaceOnUse" x="0" y="0" width="46" height="33">
<path d="M41.0667 0.666672H4.79999C2.44358 0.666672 0.533325 2.57692 0.533325 4.93334V28.4C0.533325 30.7564 2.44358 32.6667 4.79999 32.6667H41.0667C43.4231 32.6667 45.3333 30.7564 45.3333 28.4V4.93334C45.3333 2.57692 43.4231 0.666672 41.0667 0.666672Z" fill="white"/>
</mask>
<g mask="url(#mask0_3_130)">
<path d="M41.0667 0.666672H4.79999C2.44358 0.666672 0.533325 2.57692 0.533325 4.93334V28.4C0.533325 30.7564 2.44358 32.6667 4.79999 32.6667H41.0667C43.4231 32.6667 45.3333 30.7564 45.3333 28.4V4.93334C45.3333 2.57692 43.4231 0.666672 41.0667 0.666672Z" fill="white"/>
<path fill-rule="evenodd" clip-rule="evenodd" d="M0.533325 22H45.3333V32.6667H0.533325V22Z" fill="black"/>
<path fill-rule="evenodd" clip-rule="evenodd" d="M21.8667 17.7333H24V18.7893C24 19.408 24.4779 19.8667 25.0667 19.8667C25.6384 19.8667 26.1333 19.3845 26.1333 18.7893V14.5227C26.1333 13.9403 26.6283 13.4667 27.2 13.4667C27.7888 13.4667 28.2667 13.9275 28.2667 14.5227V17.7333H31.4453C32.0469 17.7333 32.5333 18.2283 32.5333 18.8C32.5333 19.3888 32.0597 19.8667 31.4453 19.8667H14.4213C13.8197 19.8667 13.3333 19.3717 13.3333 18.8C13.3333 18.3477 13.6107 17.9616 14.016 17.8059C14.0693 17.6693 14.1504 17.5392 14.2635 17.4283L17.2928 14.3989C17.7067 13.9851 18.3915 14 18.7968 14.4032C19.2149 14.8192 19.2277 15.4805 18.8053 15.9029L16.9749 17.7333H19.7333V16.6773C19.7333 16.08 20.2283 15.6 20.8 15.6C21.3888 15.6 21.8667 16.0565 21.8667 16.6773V17.7333Z" fill="#007B3A"/>
<path fill-rule="evenodd" clip-rule="evenodd" d="M0.533325 0.666672H45.3333V11.3333H0.533325V0.666672Z" fill="#D0091E"/>
<path d="M41.0667 1.73334H4.80001C3.03269 1.73334 1.60001 3.16603 1.60001 4.93334V28.4C1.60001 30.1673 3.03269 31.6 4.80001 31.6H41.0667C42.834 31.6 44.2667 30.1673 44.2667 28.4V4.93334C44.2667 3.16603 42.834 1.73334 41.0667 1.73334Z" stroke="black" stroke-opacity="0.1" stroke-width="2.13333"/>
</g>
</g>
<defs>
<clipPath id="clip0_3_130">
<rect width="44.8" height="32" fill="white" transform="translate(0.533325 0.666672)"/>
</clipPath>
</defs>
</svg>
