<svg width="46" height="33" viewBox="0 0 46 33" fill="none" xmlns="http://www.w3.org/2000/svg">
<mask id="mask0_3_129" style="mask-type:alpha" maskUnits="userSpaceOnUse" x="0" y="0" width="46" height="33">
<path d="M41.2 0.666672H4.93332C2.57691 0.666672 0.666656 2.57692 0.666656 4.93334V28.4C0.666656 30.7564 2.57691 32.6667 4.93332 32.6667H41.2C43.5564 32.6667 45.4667 30.7564 45.4667 28.4V4.93334C45.4667 2.57692 43.5564 0.666672 41.2 0.666672Z" fill="white"/>
</mask>
<g mask="url(#mask0_3_129)">
<path d="M41.2 0.666672H4.93332C2.57691 0.666672 0.666656 2.57692 0.666656 4.93334V28.4C0.666656 30.7564 2.57691 32.6667 4.93332 32.6667H41.2C43.5564 32.6667 45.4667 30.7564 45.4667 28.4V4.93334C45.4667 2.57692 43.5564 0.666672 41.2 0.666672Z" fill="white"/>
<path fill-rule="evenodd" clip-rule="evenodd" d="M23.0667 19.8667C26.0107 19.8667 28.4 18.4331 28.4 16.6667C28.4 14.9003 26.0107 13.4667 23.0667 13.4667C20.1227 13.4667 17.7333 14.9003 17.7333 16.6667C17.7333 18.4331 20.1227 19.8667 23.0667 19.8667ZM23.0667 18.2667C24.8331 18.2667 26.2667 17.1915 26.2667 15.8667C26.2667 14.544 24.8331 13.4667 23.0667 13.4667C21.3003 13.4667 19.8667 14.5419 19.8667 15.8667C19.8667 17.1893 21.3003 18.2667 23.0667 18.2667Z" fill="#DD0000"/>
<path d="M23.0667 17.7333C23.6558 17.7333 24.1333 16.7782 24.1333 15.6C24.1333 14.4218 23.6558 13.4667 23.0667 13.4667C22.4776 13.4667 22 14.4218 22 15.6C22 16.7782 22.4776 17.7333 23.0667 17.7333Z" fill="#DD0000"/>
<path fill-rule="evenodd" clip-rule="evenodd" d="M0.666656 22H45.4667V32.6667H0.666656V22Z" fill="#DD0000"/>
<path fill-rule="evenodd" clip-rule="evenodd" d="M0.666656 0.666672H45.4667V11.3333H0.666656V0.666672Z" fill="#17A03A"/>
<path d="M41.2 1.73334H4.93334C3.16603 1.73334 1.73334 3.16603 1.73334 4.93334V28.4C1.73334 30.1673 3.16603 31.6 4.93334 31.6H41.2C42.9673 31.6 44.4 30.1673 44.4 28.4V4.93334C44.4 3.16603 42.9673 1.73334 41.2 1.73334Z" stroke="black" stroke-opacity="0.1" stroke-width="2.13333"/>
</g>
</svg>
