<svg width="46" height="33" viewBox="0 0 46 33" fill="none" xmlns="http://www.w3.org/2000/svg">
<g clip-path="url(#clip0_3_128)">
<mask id="mask0_3_128" style="mask-type:alpha" maskUnits="userSpaceOnUse" x="0" y="0" width="46" height="33">
<path d="M41.3333 0.666672H5.06665C2.71024 0.666672 0.799988 2.57692 0.799988 4.93334V28.4C0.799988 30.7564 2.71024 32.6667 5.06665 32.6667H41.3333C43.6897 32.6667 45.6 30.7564 45.6 28.4V4.93334C45.6 2.57692 43.6897 0.666672 41.3333 0.666672Z" fill="white"/>
</mask>
<g mask="url(#mask0_3_128)">
<path d="M41.3333 0.666672H5.06665C2.71024 0.666672 0.799988 2.57692 0.799988 4.93334V28.4C0.799988 30.7564 2.71024 32.6667 5.06665 32.6667H41.3333C43.6897 32.6667 45.6 30.7564 45.6 28.4V4.93334C45.6 2.57692 43.6897 0.666672 41.3333 0.666672Z" fill="#003499"/>
<path fill-rule="evenodd" clip-rule="evenodd" d="M13.6 19.8667H0.799988V13.4667H13.6V0.666672H20V13.4667H45.6V19.8667H20V32.6667H13.6V19.8667Z" fill="white"/>
<path fill-rule="evenodd" clip-rule="evenodd" d="M15.7333 15.6H0.799988V17.7333H15.7333V32.6667H17.8667V17.7333H45.6V15.6H17.8667V0.666672H15.7333V15.6Z" fill="#D9251E"/>
<path d="M41.3333 1.73334H5.06664C3.29933 1.73334 1.86664 3.16603 1.86664 4.93334V28.4C1.86664 30.1673 3.29933 31.6 5.06664 31.6H41.3333C43.1006 31.6 44.5333 30.1673 44.5333 28.4V4.93334C44.5333 3.16603 43.1006 1.73334 41.3333 1.73334Z" stroke="black" stroke-opacity="0.1" stroke-width="2.13333"/>
</g>
</g>
<defs>
<clipPath id="clip0_3_128">
<rect width="44.8" height="32" fill="white" transform="translate(0.799988 0.666672)"/>
</clipPath>
</defs>
</svg>
