<svg width="45" height="33" viewBox="0 0 45 33" fill="none" xmlns="http://www.w3.org/2000/svg">
<g clip-path="url(#clip0_3_126)">
<mask id="mask0_3_126" style="mask-type:alpha" maskUnits="userSpaceOnUse" x="0" y="0" width="45" height="33">
<path d="M40.6 0.666672H4.33332C1.9769 0.666672 0.0666504 2.57692 0.0666504 4.93334V28.4C0.0666504 30.7564 1.9769 32.6667 4.33332 32.6667H40.6C42.9564 32.6667 44.8666 30.7564 44.8666 28.4V4.93334C44.8666 2.57692 42.9564 0.666672 40.6 0.666672Z" fill="white"/>
</mask>
<g mask="url(#mask0_3_126)">
<path d="M40.6 0.666672H4.33332C1.9769 0.666672 0.0666504 2.57692 0.0666504 4.93334V28.4C0.0666504 30.7564 1.9769 32.6667 4.33332 32.6667H40.6C42.9564 32.6667 44.8666 30.7564 44.8666 28.4V4.93334C44.8666 2.57692 42.9564 0.666672 40.6 0.666672Z" fill="#009C34"/>
<path fill-rule="evenodd" clip-rule="evenodd" d="M0.0666504 0.666672L21.4 17.7333L0.0666504 32.6667V0.666672ZM44.8666 0.666672L23.5333 17.7333L44.8666 32.6667V0.666672Z" fill="black"/>
<path fill-rule="evenodd" clip-rule="evenodd" d="M18.5562 16.6667L0.0666504 3.86667V0.666672H3.26665L22.4666 13.9573L41.6666 0.666672H44.8666V3.86667L26.377 16.6667L44.8666 29.4667V32.6667H41.6666L22.4666 19.376L3.26665 32.6667H0.0666504V29.4667L18.5562 16.6667Z" fill="#FFD300"/>
<path d="M40.6 1.73334H4.3333C2.56599 1.73334 1.1333 3.16603 1.1333 4.93334V28.4C1.1333 30.1673 2.56599 31.6 4.3333 31.6H40.6C42.3673 31.6 43.8 30.1673 43.8 28.4V4.93334C43.8 3.16603 42.3673 1.73334 40.6 1.73334Z" stroke="black" stroke-opacity="0.1" stroke-width="2.13333"/>
</g>
</g>
<defs>
<clipPath id="clip0_3_126">
<rect width="44.8" height="32" fill="white" transform="translate(0.0666504 0.666672)"/>
</clipPath>
</defs>
</svg>
