<svg width="45" height="32" viewBox="0 0 45 32" fill="none" xmlns="http://www.w3.org/2000/svg">
<mask id="mask0_3_124" style="mask-type:alpha" maskUnits="userSpaceOnUse" x="0" y="0" width="45" height="32">
<path d="M40.5333 0H4.26667C1.91025 0 0 1.91025 0 4.26667V27.7333C0 30.0898 1.91025 32 4.26667 32H40.5333C42.8897 32 44.8 30.0898 44.8 27.7333V4.26667C44.8 1.91025 42.8897 0 40.5333 0Z" fill="white"/>
</mask>
<g mask="url(#mask0_3_124)">
<path d="M40.5333 0H4.26667C1.91025 0 0 1.91025 0 4.26667V27.7333C0 30.0898 1.91025 32 4.26667 32H40.5333C42.8897 32 44.8 30.0898 44.8 27.7333V4.26667C44.8 1.91025 42.8897 0 40.5333 0Z" fill="white"/>
<path d="M22.4 23.4667C26.5237 23.4667 29.8667 20.1237 29.8667 16C29.8667 11.8763 26.5237 8.53333 22.4 8.53333C18.2763 8.53333 14.9333 11.8763 14.9333 16C14.9333 20.1237 18.2763 23.4667 22.4 23.4667Z" fill="#BE0028"/>
<path d="M40.5333 1.06667H4.26667C2.49935 1.06667 1.06667 2.49935 1.06667 4.26667V27.7333C1.06667 29.5006 2.49935 30.9333 4.26667 30.9333H40.5333C42.3006 30.9333 43.7333 29.5006 43.7333 27.7333V4.26667C43.7333 2.49935 42.3006 1.06667 40.5333 1.06667Z" stroke="black" stroke-opacity="0.1" stroke-width="2.13333"/>
</g>
</svg>
