<svg width="45" height="32" viewBox="0 0 45 32" fill="none" xmlns="http://www.w3.org/2000/svg">
<mask id="mask0_3_123" style="mask-type:alpha" maskUnits="userSpaceOnUse" x="0" y="0" width="45" height="32">
<path d="M40.6667 0H4.40001C2.0436 0 0.133347 1.91025 0.133347 4.26667V27.7333C0.133347 30.0898 2.0436 32 4.40001 32H40.6667C43.0231 32 44.9333 30.0898 44.9333 27.7333V4.26667C44.9333 1.91025 43.0231 0 40.6667 0Z" fill="white"/>
</mask>
<g mask="url(#mask0_3_123)">
<path d="M40.6667 0H4.40001C2.0436 0 0.133347 1.91025 0.133347 4.26667V27.7333C0.133347 30.0898 2.0436 32 4.40001 32H40.6667C43.0231 32 44.9333 30.0898 44.9333 27.7333V4.26667C44.9333 1.91025 43.0231 0 40.6667 0Z" fill="black"/>
<path fill-rule="evenodd" clip-rule="evenodd" d="M0.133347 21.3333H44.9333V23.4667H0.133347V21.3333Z" fill="white"/>
<path fill-rule="evenodd" clip-rule="evenodd" d="M0.133347 23.4667H44.9333V32H0.133347V23.4667Z" fill="#006700"/>
<path fill-rule="evenodd" clip-rule="evenodd" d="M0.133347 10.6667H44.9333V21.3333H0.133347V10.6667Z" fill="#BD0000"/>
<path fill-rule="evenodd" clip-rule="evenodd" d="M0.133347 8.53333H44.9333V10.6667H0.133347V8.53333Z" fill="white"/>
<path fill-rule="evenodd" clip-rule="evenodd" d="M26.6165 12.6165C26.7701 12.6165 27.6832 11.1872 27.6832 9.41654C27.6832 7.65014 26.7701 6.21654 26.6165 6.21654C26.4672 6.21654 25.5499 7.65014 25.5499 9.41654C25.5499 11.1872 26.4672 12.6165 26.6165 12.6165ZM20.3467 11.68C20.24 11.7867 18.576 11.424 17.3301 10.1717C16.0821 8.9216 15.7152 7.26187 15.824 7.1552C15.9307 7.04854 17.5904 7.4112 18.8405 8.66347C20.0907 9.9136 20.4555 11.5733 20.3488 11.6821L20.3467 11.68ZM24.3552 21.3504C24.4619 21.2501 26.1259 21.5915 27.3739 22.7584C28.6219 23.9317 28.9888 25.4827 28.8821 25.5829C28.7755 25.6832 27.1115 25.3419 25.8613 24.1749C24.6133 23.0016 24.2464 21.4507 24.3552 21.3504ZM20.3467 21.3504C20.24 21.2501 18.576 21.5915 17.3301 22.7584C16.0821 23.9317 15.7152 25.4827 15.824 25.5829C15.9307 25.6832 17.5904 25.3419 18.8405 24.1749C20.0907 23.0016 20.4555 21.4507 20.3488 21.3504H20.3467Z" fill="white"/>
<path fill-rule="evenodd" clip-rule="evenodd" d="M22.5333 25.6C23.2949 25.6 27.8667 21.3013 27.8667 16C27.8667 10.6987 23.2949 6.39999 22.5333 6.39999C21.7717 6.39999 17.2 10.6987 17.2 16C17.2 21.3013 21.7717 25.6 22.5333 25.6Z" fill="#BD0000"/>
<path fill-rule="evenodd" clip-rule="evenodd" d="M18.2667 19.2C18.416 19.2 19.3333 17.7664 19.3333 16C19.3333 14.2336 18.416 12.8 18.2667 12.8C18.1173 12.8 17.2 14.2336 17.2 16C17.2 17.7664 18.1173 19.2 18.2667 19.2ZM26.8 19.2C26.9493 19.2 27.8667 17.7664 27.8667 16C27.8667 14.2336 26.9493 12.8 26.8 12.8C26.6507 12.8 25.7333 14.2336 25.7333 16C25.7333 17.7664 26.6507 19.2 26.8 19.2Z" fill="black"/>
<path d="M23.6 16C23.6 14.2327 23.1224 12.8 22.5333 12.8C21.9442 12.8 21.4667 14.2327 21.4667 16C21.4667 17.7673 21.9442 19.2 22.5333 19.2C23.1224 19.2 23.6 17.7673 23.6 16Z" fill="white"/>
<path d="M40.6667 1.06667H4.4C2.63269 1.06667 1.2 2.49935 1.2 4.26667V27.7333C1.2 29.5006 2.63269 30.9333 4.4 30.9333H40.6667C42.434 30.9333 43.8667 29.5006 43.8667 27.7333V4.26667C43.8667 2.49935 42.434 1.06667 40.6667 1.06667Z" stroke="black" stroke-opacity="0.1" stroke-width="2.13333"/>
</g>
</svg>
