<svg width="46" height="32" viewBox="0 0 46 32" fill="none" xmlns="http://www.w3.org/2000/svg">
<g clip-path="url(#clip0_3_122)">
<mask id="mask0_3_122" style="mask-type:alpha" maskUnits="userSpaceOnUse" x="0" y="0" width="46" height="32">
<path d="M40.8 0H4.53336C2.17694 0 0.266693 1.91025 0.266693 4.26667V27.7333C0.266693 30.0898 2.17694 32 4.53336 32H40.8C43.1564 32 45.0667 30.0898 45.0667 27.7333V4.26667C45.0667 1.91025 43.1564 0 40.8 0Z" fill="white"/>
</mask>
<g mask="url(#mask0_3_122)">
<path d="M40.8 0H4.53336C2.17694 0 0.266693 1.91025 0.266693 4.26667V27.7333C0.266693 30.0898 2.17694 32 4.53336 32H40.8C43.1564 32 45.0667 30.0898 45.0667 27.7333V4.26667C45.0667 1.91025 43.1564 0 40.8 0Z" fill="#EB0624"/>
<path fill-rule="evenodd" clip-rule="evenodd" d="M22.0395 20.2347C22.2464 20.256 22.4555 20.2667 22.6667 20.2667C22.88 20.2667 23.0869 20.256 23.2939 20.2347L22.6667 18.6667L22.0395 20.2347ZM19.1467 19.072C18.0309 18.1888 17.3333 16.9003 17.3333 15.4667C17.3333 13.7749 18.3061 12.288 19.7739 11.4347L21.6 16L19.1467 19.072ZM25.5595 11.4347C27.0272 12.288 28 13.7749 28 15.4667C28 16.9024 27.3003 18.1909 26.1867 19.072L23.7333 16L25.5595 11.4347ZM25.3461 11.3152C24.5568 10.9013 23.6437 10.6667 22.6667 10.6667C21.6896 10.6667 20.7744 10.9013 19.9872 11.3152L22.6667 14.6645L25.3461 11.3152V11.3152Z" fill="#FFF100"/>
<path fill-rule="evenodd" clip-rule="evenodd" d="M22.6667 25.6C27.968 25.6 32.2667 21.3013 32.2667 16C32.2667 10.6987 27.968 6.39999 22.6667 6.39999C17.3653 6.39999 13.0667 10.6987 13.0667 16C13.0667 21.3013 17.3653 25.6 22.6667 25.6ZM22.6667 23.4667C26.7904 23.4667 30.1333 20.1237 30.1333 16C30.1333 11.8763 26.7904 8.53333 22.6667 8.53333C18.5429 8.53333 15.2 11.8763 15.2 16C15.2 20.1237 18.5429 23.4667 22.6667 23.4667Z" fill="#FFF100"/>
<path d="M40.8 1.06667H4.53331C2.766 1.06667 1.33331 2.49935 1.33331 4.26667V27.7333C1.33331 29.5006 2.766 30.9333 4.53331 30.9333H40.8C42.5673 30.9333 44 29.5006 44 27.7333V4.26667C44 2.49935 42.5673 1.06667 40.8 1.06667Z" stroke="black" stroke-opacity="0.1" stroke-width="2.13333"/>
</g>
</g>
<defs>
<clipPath id="clip0_3_122">
<rect width="44.8" height="32" fill="white" transform="translate(0.266693)"/>
</clipPath>
</defs>
</svg>
