<svg width="46" height="32" viewBox="0 0 46 32" fill="none" xmlns="http://www.w3.org/2000/svg">
<g clip-path="url(#clip0_3_121)">
<mask id="mask0_3_121" style="mask-type:alpha" maskUnits="userSpaceOnUse" x="0" y="0" width="46" height="32">
<path d="M40.9333 0H4.66666C2.31025 0 0.399994 1.91025 0.399994 4.26667V27.7333C0.399994 30.0898 2.31025 32 4.66666 32H40.9333C43.2897 32 45.2 30.0898 45.2 27.7333V4.26667C45.2 1.91025 43.2897 0 40.9333 0Z" fill="white"/>
</mask>
<g mask="url(#mask0_3_121)">
<path d="M40.9333 0H4.66666C2.31025 0 0.399994 1.91025 0.399994 4.26667V27.7333C0.399994 30.0898 2.31025 32 4.66666 32H40.9333C43.2897 32 45.2 30.0898 45.2 27.7333V4.26667C45.2 1.91025 43.2897 0 40.9333 0Z" fill="#E3001A"/>
<path fill-rule="evenodd" clip-rule="evenodd" d="M17.4667 10.6667H18.5333L19.6 12.8H17.4667V10.6667ZM19.6 12.8H21.7333V14.9333H19.6V12.8ZM17.4667 14.9333H19.6V17.0667H17.4667V14.9333ZM15.3333 17.0667H17.4667V19.2H15.3333V17.0667ZM15.3333 19.2H17.4667V21.3333H15.3333V19.2ZM14.2667 19.2H15.3333V21.3333H13.2L14.2667 19.2ZM19.6 17.0667H23.8667V21.3333H19.6V17.0667ZM28.1333 10.6667H27.0667L26 12.8H28.1333V10.6667ZM26 12.8H23.8667V14.9333H26V12.8ZM28.1333 14.9333H26V17.0667H28.1333V14.9333ZM30.2667 17.0667H28.1333V19.2H30.2667V17.0667ZM30.2667 19.2H28.1333V21.3333H30.2667V19.2ZM31.3333 19.2H30.2667V21.3333H32.4L31.3333 19.2ZM26 17.0667H23.8667V21.3333H26V17.0667Z" fill="white"/>
<path fill-rule="evenodd" clip-rule="evenodd" d="M19.6 14.9333H21.7333V17.0667H19.6V14.9333ZM17.4666 17.0667H19.6V21.3333H17.4666V17.0667ZM17.4666 12.8H19.6V14.9333H17.4666V12.8ZM16.4 14.9333H17.4666V17.0667H15.3333L16.4 14.9333ZM26 14.9333H23.8666V17.0667H26V14.9333ZM28.1333 17.0667H26V21.3333H28.1333V17.0667ZM28.1333 12.8H26V14.9333H28.1333V12.8ZM29.2 14.9333H28.1333V17.0667H30.2666L29.2 14.9333ZM23.8666 12.8H21.7333V17.0667H23.8666V12.8Z" fill="#F5DDE0"/>
<path fill-rule="evenodd" clip-rule="evenodd" d="M21.7333 10.6667H23.8667V12.8H21.7333V10.6667Z" fill="#B4B4B4"/>
<path fill-rule="evenodd" clip-rule="evenodd" d="M0.399994 0H45.2V8.53333H0.399994V0ZM0.399994 23.4667H45.2V32H0.399994V23.4667Z" fill="#0028A4"/>
<path d="M40.9333 1.06667H4.66668C2.89936 1.06667 1.46667 2.49935 1.46667 4.26667V27.7333C1.46667 29.5006 2.89936 30.9333 4.66668 30.9333H40.9333C42.7007 30.9333 44.1333 29.5006 44.1333 27.7333V4.26667C44.1333 2.49935 42.7007 1.06667 40.9333 1.06667Z" stroke="black" stroke-opacity="0.1" stroke-width="2.13333"/>
</g>
</g>
<defs>
<clipPath id="clip0_3_121">
<rect width="44.8" height="32" fill="white" transform="translate(0.399994)"/>
</clipPath>
</defs>
</svg>
