<svg width="46" height="32" viewBox="0 0 46 32" fill="none" xmlns="http://www.w3.org/2000/svg">
<g clip-path="url(#clip0_3_120)">
<mask id="mask0_3_120" style="mask-type:alpha" maskUnits="userSpaceOnUse" x="0" y="0" width="46" height="32">
<path d="M41.0667 0H4.79999C2.44358 0 0.533325 1.91025 0.533325 4.26667V27.7333C0.533325 30.0898 2.44358 32 4.79999 32H41.0667C43.4231 32 45.3333 30.0898 45.3333 27.7333V4.26667C45.3333 1.91025 43.4231 0 41.0667 0Z" fill="white"/>
</mask>
<g mask="url(#mask0_3_120)">
<path d="M41.0667 0H4.79999C2.44358 0 0.533325 1.91025 0.533325 4.26667V27.7333C0.533325 30.0898 2.44358 32 4.79999 32H41.0667C43.4231 32 45.3333 30.0898 45.3333 27.7333V4.26667C45.3333 1.91025 43.4231 0 41.0667 0Z" fill="#D0091E"/>
<path d="M22.9333 23.4667C27.0571 23.4667 30.4 20.1237 30.4 16C30.4 11.8763 27.0571 8.53333 22.9333 8.53333C18.8096 8.53333 15.4667 11.8763 15.4667 16C15.4667 20.1237 18.8096 23.4667 22.9333 23.4667Z" fill="#FDD200"/>
<path fill-rule="evenodd" clip-rule="evenodd" d="M0.533325 17.0667H45.3333V32H0.533325V17.0667Z" fill="#003D89"/>
<path fill-rule="evenodd" clip-rule="evenodd" d="M0.533325 17.0667H45.3333V19.2H0.533325V17.0667ZM0.533325 21.3333H45.3333V23.4667H0.533325V21.3333ZM0.533325 25.6H45.3333V27.7333H0.533325V25.6Z" fill="white"/>
</g>
<mask id="mask1_3_120" style="mask-type:alpha" maskUnits="userSpaceOnUse" x="1" y="1" width="44" height="30">
<path d="M41.0667 1.06667H4.80001C3.03269 1.06667 1.60001 2.49935 1.60001 4.26667V27.7333C1.60001 29.5006 3.03269 30.9333 4.80001 30.9333H41.0667C42.834 30.9333 44.2667 29.5006 44.2667 27.7333V4.26667C44.2667 2.49935 42.834 1.06667 41.0667 1.06667Z" fill="white"/>
</mask>
<g mask="url(#mask1_3_120)">
<path d="M41.0667 1.06667H4.80001C3.03269 1.06667 1.60001 2.49935 1.60001 4.26667V27.7333C1.60001 29.5006 3.03269 30.9333 4.80001 30.9333H41.0667C42.834 30.9333 44.2667 29.5006 44.2667 27.7333V4.26667C44.2667 2.49935 42.834 1.06667 41.0667 1.06667Z" stroke="black" stroke-opacity="0.1" stroke-width="2.13333"/>
<path fill-rule="evenodd" clip-rule="evenodd" d="M17.6 4.26668L22.9333 6.40001L28.2667 4.26668H17.6Z" fill="#FDD200"/>
</g>
</g>
<defs>
<clipPath id="clip0_3_120">
<rect width="44.8" height="32" fill="white" transform="translate(0.533325)"/>
</clipPath>
</defs>
</svg>
