<svg width="46" height="32" viewBox="0 0 46 32" fill="none" xmlns="http://www.w3.org/2000/svg">
<mask id="mask0_3_119" style="mask-type:alpha" maskUnits="userSpaceOnUse" x="0" y="0" width="46" height="32">
<path d="M41.2 0H4.93332C2.57691 0 0.666656 1.91025 0.666656 4.26667V27.7333C0.666656 30.0898 2.57691 32 4.93332 32H41.2C43.5564 32 45.4667 30.0898 45.4667 27.7333V4.26667C45.4667 1.91025 43.5564 0 41.2 0Z" fill="white"/>
</mask>
<g mask="url(#mask0_3_119)">
<path d="M41.2 0H4.93332C2.57691 0 0.666656 1.91025 0.666656 4.26667V27.7333C0.666656 30.0898 2.57691 32 4.93332 32H41.2C43.5564 32 45.4667 30.0898 45.4667 27.7333V4.26667C45.4667 1.91025 43.5564 0 41.2 0Z" fill="#E3001A"/>
<path fill-rule="evenodd" clip-rule="evenodd" d="M0.666656 0H45.4667V8.53333H0.666656V0Z" fill="#FFC700"/>
<path fill-rule="evenodd" clip-rule="evenodd" d="M0.666656 8.53333H45.4667V17.0667H0.666656V8.53333Z" fill="white"/>
<path fill-rule="evenodd" clip-rule="evenodd" d="M0.666656 23.4667H45.4667V32H0.666656V23.4667Z" fill="#3673C7"/>
<path fill-rule="evenodd" clip-rule="evenodd" d="M0.666656 0L26.2667 16L0.666656 32V0Z" fill="#398F2D"/>
<path fill-rule="evenodd" clip-rule="evenodd" d="M13.4667 23.1253C12.848 23.3472 12.1867 23.4667 11.4976 23.4667C7.87095 23.4667 4.93335 20.1237 4.93335 16C4.93335 11.8763 7.87308 8.53333 11.4976 8.53333C12.1846 8.53333 12.8459 8.65279 13.4667 8.87466C10.8043 9.82612 8.87148 12.6571 8.87148 16C8.87148 19.3429 10.8043 22.1739 13.4667 23.1253ZM13.4667 10.6667H15.6V12.8H13.4667V10.6667ZM13.4667 14.9333H15.6V17.0667H13.4667V14.9333ZM13.4667 19.2H15.6V21.3333H13.4667V19.2Z" fill="white"/>
<path d="M41.2 1.06667H4.93334C3.16603 1.06667 1.73334 2.49935 1.73334 4.26667V27.7333C1.73334 29.5006 3.16603 30.9333 4.93334 30.9333H41.2C42.9673 30.9333 44.4 29.5006 44.4 27.7333V4.26667C44.4 2.49935 42.9673 1.06667 41.2 1.06667Z" stroke="black" stroke-opacity="0.1" stroke-width="2.13333"/>
</g>
</svg>
