<svg width="46" height="32" viewBox="0 0 46 32" fill="none" xmlns="http://www.w3.org/2000/svg">
<g clip-path="url(#clip0_3_118)">
<mask id="mask0_3_118" style="mask-type:alpha" maskUnits="userSpaceOnUse" x="0" y="0" width="46" height="32">
<path d="M41.3333 0H5.06665C2.71024 0 0.799988 1.91025 0.799988 4.26667V27.7333C0.799988 30.0898 2.71024 32 5.06665 32H41.3333C43.6897 32 45.6 30.0898 45.6 27.7333V4.26667C45.6 1.91025 43.6897 0 41.3333 0Z" fill="white"/>
</mask>
<g mask="url(#mask0_3_118)">
<path d="M41.3333 0H5.06665C2.71024 0 0.799988 1.91025 0.799988 4.26667V27.7333C0.799988 30.0898 2.71024 32 5.06665 32H41.3333C43.6897 32 45.6 30.0898 45.6 27.7333V4.26667C45.6 1.91025 43.6897 0 41.3333 0Z" fill="#004DA4"/>
<path fill-rule="evenodd" clip-rule="evenodd" d="M0.799988 6.39999H45.6V8.53333H0.799988V6.39999Z" fill="white"/>
<path fill-rule="evenodd" clip-rule="evenodd" d="M0.799988 8.53333H45.6V23.4667H0.799988V8.53333Z" fill="#F0161B"/>
<path d="M12.5333 21.3333C15.4789 21.3333 17.8667 18.9455 17.8667 16C17.8667 13.0545 15.4789 10.6667 12.5333 10.6667C9.58783 10.6667 7.20001 13.0545 7.20001 16C7.20001 18.9455 9.58783 21.3333 12.5333 21.3333Z" fill="white"/>
<path fill-rule="evenodd" clip-rule="evenodd" d="M12.5291 18.0821L9.96911 19.4261L10.4598 16.5781L8.39044 14.5643L11.2491 14.1483L12.5291 11.5584L13.8091 14.1504L16.6678 14.5685L14.5984 16.5845L15.0891 19.4347" fill="#F0161B"/>
<path fill-rule="evenodd" clip-rule="evenodd" d="M0.799988 23.4667H45.6V25.6H0.799988V23.4667Z" fill="white"/>
<path d="M41.3333 1.06667H5.06664C3.29933 1.06667 1.86664 2.49935 1.86664 4.26667V27.7333C1.86664 29.5006 3.29933 30.9333 5.06664 30.9333H41.3333C43.1006 30.9333 44.5333 29.5006 44.5333 27.7333V4.26667C44.5333 2.49935 43.1006 1.06667 41.3333 1.06667Z" stroke="black" stroke-opacity="0.1" stroke-width="2.13333"/>
</g>
</g>
<defs>
<clipPath id="clip0_3_118">
<rect width="44.8" height="32" fill="white" transform="translate(0.799988)"/>
</clipPath>
</defs>
</svg>
