<svg width="46" height="32" viewBox="0 0 46 32" fill="none" xmlns="http://www.w3.org/2000/svg">
<g clip-path="url(#clip0_3_117)">
<mask id="mask0_3_117" style="mask-type:alpha" maskUnits="userSpaceOnUse" x="0" y="0" width="46" height="32">
<path d="M41.4666 0H5.19995C2.84354 0 0.933289 1.91025 0.933289 4.26667V27.7333C0.933289 30.0898 2.84354 32 5.19995 32H41.4666C43.823 32 45.7333 30.0898 45.7333 27.7333V4.26667C45.7333 1.91025 43.823 0 41.4666 0Z" fill="white"/>
</mask>
<g mask="url(#mask0_3_117)">
<path d="M41.4666 0H5.19995C2.84354 0 0.933289 1.91025 0.933289 4.26667V27.7333C0.933289 30.0898 2.84354 32 5.19995 32H41.4666C43.823 32 45.7333 30.0898 45.7333 27.7333V4.26667C45.7333 1.91025 43.823 0 41.4666 0Z" fill="white"/>
<path fill-rule="evenodd" clip-rule="evenodd" d="M30.8 16C30.8 20.1237 27.457 23.4667 23.3333 23.4667C19.2096 23.4667 15.8666 20.1237 15.8666 16C15.8666 13.6107 20.88 12.608 25.0997 12.9856C25.5477 12.8661 26.0298 12.8 26.5333 12.8C28.8906 12.8 30.8 14.2336 30.8 16Z" fill="#0048AB"/>
<path fill-rule="evenodd" clip-rule="evenodd" d="M22.2666 14.9333C22.2666 14.9333 24.176 12.8 26.5333 12.8C28.8906 12.8 30.8 14.2336 30.8 16C30.8 11.8763 27.457 8.53333 23.3333 8.53333C20.353 8.53333 17.7802 10.2784 16.5834 12.8043C15.8666 14.9333 15.8666 15.5563 15.8666 16C16.9333 17.0667 18.1194 17.0667 19.0666 17.0667C20.0138 17.0667 20.865 16.6549 21.4517 16L22.2666 14.9333Z" fill="#CD0027"/>
<path fill-rule="evenodd" clip-rule="evenodd" d="M32.9333 10.6667H37.2L32.9333 6.39999H30.8L32.9333 10.6667ZM13.7333 10.6667H9.46667L13.7333 6.39999H15.8667L13.7333 10.6667ZM32.9333 21.3333H37.2L32.9333 25.6H30.8L32.9333 21.3333ZM13.7333 21.3333H9.46667L13.7333 25.6H15.8667L13.7333 21.3333Z" fill="#252526"/>
<path d="M41.4667 1.06667H5.2C3.43269 1.06667 2 2.49935 2 4.26667V27.7333C2 29.5006 3.43269 30.9333 5.2 30.9333H41.4667C43.234 30.9333 44.6667 29.5006 44.6667 27.7333V4.26667C44.6667 2.49935 43.234 1.06667 41.4667 1.06667Z" stroke="black" stroke-opacity="0.1" stroke-width="2.13333"/>
</g>
</g>
<defs>
<clipPath id="clip0_3_117">
<rect width="44.8" height="32" fill="white" transform="translate(0.933289)"/>
</clipPath>
</defs>
</svg>
