<svg width="45" height="32" viewBox="0 0 45 32" fill="none" xmlns="http://www.w3.org/2000/svg">
<g clip-path="url(#clip0_3_115)">
<mask id="mask0_3_115" style="mask-type:alpha" maskUnits="userSpaceOnUse" x="0" y="0" width="45" height="32">
<path d="M40.7333 0H4.46668C2.11026 0 0.200012 1.91025 0.200012 4.26667V27.7333C0.200012 30.0898 2.11026 32 4.46668 32H40.7333C43.0898 32 45 30.0898 45 27.7333V4.26667C45 1.91025 43.0898 0 40.7333 0Z" fill="white"/>
</mask>
<g mask="url(#mask0_3_115)">
<path d="M40.7333 0H4.46668C2.11026 0 0.200012 1.91025 0.200012 4.26667V27.7333C0.200012 30.0898 2.11026 32 4.46668 32H40.7333C43.0898 32 45 30.0898 45 27.7333V4.26667C45 1.91025 43.0898 0 40.7333 0Z" fill="#00AFCC"/>
<path fill-rule="evenodd" clip-rule="evenodd" d="M4.46667 5.32268C4.46667 4.74028 4.96161 4.26668 5.53334 4.26668C6.12214 4.26668 6.60001 4.72748 6.60001 5.32268V9.61068C6.60001 10.1931 6.10507 10.6667 5.53334 10.6667C4.94454 10.6667 4.46667 10.2059 4.46667 9.61068V5.32268ZM6.60001 9.58934C6.60001 9.00694 7.09494 8.53334 7.66667 8.53334C8.25547 8.53334 8.73334 8.99414 8.73334 9.58934V13.8773C8.73334 14.4597 8.23841 14.9333 7.66667 14.9333C7.07787 14.9333 6.60001 14.4725 6.60001 13.8773V9.58934ZM6.60001 18.1227C6.60001 17.5403 7.09494 17.0667 7.66667 17.0667C8.25547 17.0667 8.73334 17.5275 8.73334 18.1227V22.4107C8.73334 22.9931 8.23841 23.4667 7.66667 23.4667C7.07787 23.4667 6.60001 23.0059 6.60001 22.4107V18.1227V18.1227ZM4.46667 22.3893C4.46667 21.8069 4.96161 21.3333 5.53334 21.3333C6.12214 21.3333 6.60001 21.7941 6.60001 22.3893V26.6773C6.60001 27.2597 6.10507 27.7333 5.53334 27.7333C4.94454 27.7333 4.46667 27.2725 4.46667 26.6773V22.3893ZM4.46667 13.8667C4.46667 13.2779 4.96161 12.8 5.53334 12.8C6.12214 12.8 6.60001 13.2949 6.60001 13.8667C6.60001 14.4555 6.10507 14.9333 5.53334 14.9333C4.94454 14.9333 4.46667 14.4384 4.46667 13.8667ZM6.60001 5.33334C6.60001 4.74454 7.09494 4.26668 7.66667 4.26668C8.25547 4.26668 8.73334 4.76161 8.73334 5.33334C8.73334 5.92214 8.23841 6.40001 7.66667 6.40001C7.07787 6.40001 6.60001 5.90508 6.60001 5.33334ZM4.46667 16C4.46667 15.4112 4.96161 14.9333 5.53334 14.9333C6.12214 14.9333 6.60001 15.4283 6.60001 16C6.60001 16.5888 6.10507 17.0667 5.53334 17.0667C4.94454 17.0667 4.46667 16.5717 4.46667 16ZM6.60001 26.6667C6.60001 26.0779 7.09494 25.6 7.66667 25.6C8.25547 25.6 8.73334 26.0949 8.73334 26.6667C8.73334 27.2555 8.23841 27.7333 7.66667 27.7333C7.07787 27.7333 6.60001 27.2384 6.60001 26.6667ZM4.46667 18.1333C4.46667 17.5445 4.96161 17.0667 5.53334 17.0667C6.12214 17.0667 6.60001 17.5616 6.60001 18.1333C6.60001 18.7221 6.10507 19.2 5.53334 19.2C4.94454 19.2 4.46667 18.7051 4.46667 18.1333Z" fill="#DAC21D"/>
<path d="M24.7334 19.2C27.6789 19.2 30.0667 16.8122 30.0667 13.8667C30.0667 10.9211 27.6789 8.53333 24.7334 8.53333C21.7878 8.53333 19.4 10.9211 19.4 13.8667C19.4 16.8122 21.7878 19.2 24.7334 19.2Z" fill="#FFC600"/>
<path fill-rule="evenodd" clip-rule="evenodd" d="M17.2667 14.9333L19.4 19.2L24.7333 21.3333L30.0667 19.2L32.2 14.9333V21.3333L24.7333 23.4667L17.2667 21.3333V14.9333Z" fill="#FFC600"/>
<path d="M40.7333 1.06667H4.46666C2.69935 1.06667 1.26666 2.49935 1.26666 4.26667V27.7333C1.26666 29.5006 2.69935 30.9333 4.46666 30.9333H40.7333C42.5006 30.9333 43.9333 29.5006 43.9333 27.7333V4.26667C43.9333 2.49935 42.5006 1.06667 40.7333 1.06667Z" stroke="black" stroke-opacity="0.1" stroke-width="2.13333"/>
</g>
</g>
<defs>
<clipPath id="clip0_3_115">
<rect width="44.8" height="32" fill="white" transform="translate(0.200012)"/>
</clipPath>
</defs>
</svg>
