<svg width="45" height="33" viewBox="0 0 45 33" fill="none" xmlns="http://www.w3.org/2000/svg">
<mask id="mask0_3_114" style="mask-type:alpha" maskUnits="userSpaceOnUse" x="0" y="0" width="45" height="33">
<path d="M40.5333 0.333344H4.26667C1.91025 0.333344 0 2.2436 0 4.60001V28.0667C0 30.4231 1.91025 32.3333 4.26667 32.3333H40.5333C42.8897 32.3333 44.8 30.4231 44.8 28.0667V4.60001C44.8 2.2436 42.8897 0.333344 40.5333 0.333344Z" fill="white"/>
</mask>
<g mask="url(#mask0_3_114)">
<path d="M40.5333 0.333344H4.26667C1.91025 0.333344 0 2.2436 0 4.60001V28.0667C0 30.4231 1.91025 32.3333 4.26667 32.3333H40.5333C42.8897 32.3333 44.8 30.4231 44.8 28.0667V4.60001C44.8 2.2436 42.8897 0.333344 40.5333 0.333344Z" fill="#00256A"/>
<path fill-rule="evenodd" clip-rule="evenodd" d="M22.4 21.6667C25.344 21.6667 27.7333 19.2773 27.7333 16.3333C27.7333 13.3893 25.344 11 22.4 11C19.456 11 17.0667 13.3893 17.0667 16.3333C17.0667 19.2773 19.456 21.6667 22.4 21.6667Z" fill="white"/>
<path fill-rule="evenodd" clip-rule="evenodd" d="M0 23.8H44.8V32.3333H0V23.8ZM0 0.333344H44.8V8.86668H0V0.333344Z" fill="#D0091E"/>
<path d="M40.5333 1.39999H4.26667C2.49935 1.39999 1.06667 2.83268 1.06667 4.59999V28.0667C1.06667 29.834 2.49935 31.2667 4.26667 31.2667H40.5333C42.3006 31.2667 43.7333 29.834 43.7333 28.0667V4.59999C43.7333 2.83268 42.3006 1.39999 40.5333 1.39999Z" stroke="black" stroke-opacity="0.1" stroke-width="2.13333"/>
</g>
</svg>
