<svg width="45" height="33" viewBox="0 0 45 33" fill="none" xmlns="http://www.w3.org/2000/svg">
<mask id="mask0_3_113" style="mask-type:alpha" maskUnits="userSpaceOnUse" x="0" y="0" width="45" height="33">
<path d="M40.6667 0.333344H4.40001C2.0436 0.333344 0.133347 2.2436 0.133347 4.60001V28.0667C0.133347 30.4231 2.0436 32.3333 4.40001 32.3333H40.6667C43.0231 32.3333 44.9333 30.4231 44.9333 28.0667V4.60001C44.9333 2.2436 43.0231 0.333344 40.6667 0.333344Z" fill="white"/>
</mask>
<g mask="url(#mask0_3_113)">
<path d="M40.6667 0.333344H4.40001C2.0436 0.333344 0.133347 2.2436 0.133347 4.60001V28.0667C0.133347 30.4231 2.0436 32.3333 4.40001 32.3333H40.6667C43.0231 32.3333 44.9333 30.4231 44.9333 28.0667V4.60001C44.9333 2.2436 43.0231 0.333344 40.6667 0.333344Z" fill="white"/>
<path fill-rule="evenodd" clip-rule="evenodd" d="M0.133347 23.8H44.9333V32.3333H0.133347V23.8ZM0.133347 0.333344H44.9333V8.86668H0.133347V0.333344Z" fill="#F01616"/>
<path fill-rule="evenodd" clip-rule="evenodd" d="M22.5333 8.86667L15.0667 21.6667H19.3333L22.5333 23.8L25.7333 21.6667H30L22.5333 8.86667Z" fill="#00A74D"/>
<path d="M40.6667 1.39999H4.4C2.63269 1.39999 1.2 2.83268 1.2 4.59999V28.0667C1.2 29.834 2.63269 31.2667 4.4 31.2667H40.6667C42.434 31.2667 43.8667 29.834 43.8667 28.0667V4.59999C43.8667 2.83268 42.434 1.39999 40.6667 1.39999Z" stroke="black" stroke-opacity="0.1" stroke-width="2.13333"/>
</g>
</svg>
