<svg width="46" height="33" viewBox="0 0 46 33" fill="none" xmlns="http://www.w3.org/2000/svg">
<g clip-path="url(#clip0_3_112)">
<mask id="mask0_3_112" style="mask-type:alpha" maskUnits="userSpaceOnUse" x="0" y="0" width="46" height="33">
<path d="M40.8 0.333344H4.53336C2.17694 0.333344 0.266693 2.2436 0.266693 4.60001V28.0667C0.266693 30.4231 2.17694 32.3333 4.53336 32.3333H40.8C43.1564 32.3333 45.0667 30.4231 45.0667 28.0667V4.60001C45.0667 2.2436 43.1564 0.333344 40.8 0.333344Z" fill="white"/>
</mask>
<g mask="url(#mask0_3_112)">
<path d="M40.8 0.333344H4.53336C2.17694 0.333344 0.266693 2.2436 0.266693 4.60001V28.0667C0.266693 30.4231 2.17694 32.3333 4.53336 32.3333H40.8C43.1564 32.3333 45.0667 30.4231 45.0667 28.0667V4.60001C45.0667 2.2436 43.1564 0.333344 40.8 0.333344Z" fill="#72D2FF"/>
<path fill-rule="evenodd" clip-rule="evenodd" d="M13.0667 28.0667L22.6667 4.59999L32.2667 28.0667H13.0667Z" fill="white"/>
<path fill-rule="evenodd" clip-rule="evenodd" d="M15.2 28.0667L22.6667 8.86667L30.1333 28.0667H15.2Z" fill="black"/>
<path fill-rule="evenodd" clip-rule="evenodd" d="M13.0667 28.0667L22.6667 17.4L32.2667 28.0667H13.0667Z" fill="#FCD715"/>
<path d="M40.8 1.39999H4.53331C2.766 1.39999 1.33331 2.83268 1.33331 4.59999V28.0667C1.33331 29.834 2.766 31.2667 4.53331 31.2667H40.8C42.5673 31.2667 44 29.834 44 28.0667V4.59999C44 2.83268 42.5673 1.39999 40.8 1.39999Z" stroke="black" stroke-opacity="0.1" stroke-width="2.13333"/>
</g>
</g>
<defs>
<clipPath id="clip0_3_112">
<rect width="44.8" height="32" fill="white" transform="translate(0.266693 0.333344)"/>
</clipPath>
</defs>
</svg>
