<svg width="46" height="33" viewBox="0 0 46 33" fill="none" xmlns="http://www.w3.org/2000/svg">
<g clip-path="url(#clip0_3_110)">
<mask id="mask0_3_110" style="mask-type:alpha" maskUnits="userSpaceOnUse" x="0" y="0" width="46" height="33">
<path d="M40.9333 0.333344H4.66666C2.31025 0.333344 0.399994 2.2436 0.399994 4.60001V28.0667C0.399994 30.4231 2.31025 32.3333 4.66666 32.3333H40.9333C43.2897 32.3333 45.2 30.4231 45.2 28.0667V4.60001C45.2 2.2436 43.2897 0.333344 40.9333 0.333344Z" fill="white"/>
</mask>
<g mask="url(#mask0_3_110)">
<path d="M40.9333 0.333344H4.66666C2.31025 0.333344 0.399994 2.2436 0.399994 4.60001V28.0667C0.399994 30.4231 2.31025 32.3333 4.66666 32.3333H40.9333C43.2897 32.3333 45.2 30.4231 45.2 28.0667V4.60001C45.2 2.2436 43.2897 0.333344 40.9333 0.333344Z" fill="#D0091E"/>
<path fill-rule="evenodd" clip-rule="evenodd" d="M0.399994 0.333344H45.2V15.2667H0.399994V0.333344Z" fill="#002781"/>
<path fill-rule="evenodd" clip-rule="evenodd" d="M8.93332 11H17.4667V13.1333H8.93332V11Z" fill="#947F1E"/>
<path fill-rule="evenodd" clip-rule="evenodd" d="M11.088 7.03626C10.431 6.86559 9.68002 6.73332 8.93335 6.73332C6.80002 6.73332 6.80002 7.79999 6.80002 8.86666C6.80002 9.93332 8.93335 11 8.93335 11H17.4667C17.4667 11 19.6 9.93332 19.6 8.86666C19.6 7.79999 19.6 6.73332 17.4667 6.73332C16.72 6.73332 15.9691 6.86559 15.312 7.03626C15.327 6.93599 15.3334 6.83572 15.3334 6.73332C15.3334 5.55572 14.3776 4.59999 13.2 4.59999C12.0224 4.59999 11.0667 5.55572 11.0667 6.73332C11.0667 6.83572 11.0731 6.93599 11.088 7.03626Z" fill="#FFD923"/>
<path d="M40.9333 1.39999H4.66668C2.89936 1.39999 1.46667 2.83268 1.46667 4.59999V28.0667C1.46667 29.834 2.89936 31.2667 4.66668 31.2667H40.9333C42.7007 31.2667 44.1333 29.834 44.1333 28.0667V4.59999C44.1333 2.83268 42.7007 1.39999 40.9333 1.39999Z" stroke="black" stroke-opacity="0.1" stroke-width="2.13333"/>
</g>
</g>
<defs>
<clipPath id="clip0_3_110">
<rect width="44.8" height="32" fill="white" transform="translate(0.399994 0.333344)"/>
</clipPath>
</defs>
</svg>
