<svg width="46" height="33" viewBox="0 0 46 33" fill="none" xmlns="http://www.w3.org/2000/svg">
<g clip-path="url(#clip0_3_109)">
<mask id="mask0_3_109" style="mask-type:alpha" maskUnits="userSpaceOnUse" x="0" y="0" width="46" height="33">
<path d="M41.0667 0.333344H4.79999C2.44358 0.333344 0.533325 2.2436 0.533325 4.60001V28.0667C0.533325 30.4231 2.44358 32.3333 4.79999 32.3333H41.0667C43.4231 32.3333 45.3333 30.4231 45.3333 28.0667V4.60001C45.3333 2.2436 43.4231 0.333344 41.0667 0.333344Z" fill="white"/>
</mask>
<g mask="url(#mask0_3_109)">
<path d="M41.0667 0.333344H4.79999C2.44358 0.333344 0.533325 2.2436 0.533325 4.60001V28.0667C0.533325 30.4231 2.44358 32.3333 4.79999 32.3333H41.0667C43.4231 32.3333 45.3333 30.4231 45.3333 28.0667V4.60001C45.3333 2.2436 43.4231 0.333344 41.0667 0.333344Z" fill="#FFBF00"/>
<path fill-rule="evenodd" clip-rule="evenodd" d="M4.79999 4.59999H11.2V28.0667H4.79999V4.59999Z" fill="#00614A"/>
<path fill-rule="evenodd" clip-rule="evenodd" d="M11.2 4.59999H17.6V28.0667H11.2V4.59999Z" fill="#FF6600"/>
<path fill-rule="evenodd" clip-rule="evenodd" d="M19.7333 4.59999H41.0667V28.0667H19.7333V4.59999Z" fill="#98232E"/>
<path fill-rule="evenodd" clip-rule="evenodd" d="M27.2747 22.9808L27.3984 22.8869L27.4496 22.9808C27.52 23.1088 27.7142 23.1045 27.8422 22.9808L27.9424 22.8805L28.0278 22.9765C28.1344 23.1045 28.335 23.1045 28.463 22.9765C28.5568 22.8869 28.5696 22.8848 28.6294 22.9552C28.6635 22.9936 28.768 23.0405 28.8598 23.0555C29.0262 23.0853 29.0304 23.0832 29.1264 22.8891C29.2118 22.7269 29.2224 22.6629 29.2032 22.5051C29.1904 22.3984 29.1755 22.232 29.1712 22.1317C29.167 21.9483 29.167 21.9461 29.3675 21.8544C29.4742 21.8032 29.6022 21.7349 29.6512 21.7008C29.7302 21.6453 29.9499 21.3019 29.9499 21.2315C29.9499 21.2144 29.8646 21.1888 29.7579 21.1717C29.3419 21.1077 29.2715 20.8091 29.5446 20.2544C29.9862 19.3541 30.2528 18.4731 30.255 17.912C30.255 17.6624 30.2656 17.5771 30.2912 17.6347C30.3894 17.8544 30.2123 18.7867 29.9435 19.4587L29.8368 19.7296L29.9392 19.6976C29.9947 19.6763 30.3296 19.4907 30.6795 19.2795C31.6395 18.7035 31.9702 18.5883 32.5931 18.6224C33.1136 18.6523 33.3355 18.7867 33.7024 19.3008C33.8987 19.5717 34.0864 19.7659 34.4278 20.0517C35.1616 20.6619 35.1915 20.7131 35.2256 21.4299C35.2619 22.1552 35.247 22.1979 34.831 22.3173C34.479 22.4197 34.255 22.6373 34.1974 22.9424C34.1675 23.1067 34.2336 23.1131 34.4107 22.9595L34.5387 22.8485L34.5984 22.9595C34.6752 23.1088 34.8374 23.1088 34.9718 22.9595L35.072 22.8528L35.1744 22.9595C35.3366 23.1301 35.552 23.0917 35.6118 22.8741C35.6224 22.8357 35.6544 22.8485 35.7184 22.9211C35.8358 23.0576 36.1366 23.1173 36.1707 23.0064C36.1835 22.968 36.1579 22.8677 36.1174 22.7845C35.9424 22.4347 35.887 22.2661 35.8827 22.0763C35.8827 21.8117 35.9403 21.6837 36.1686 21.4661C36.4459 21.2037 36.5312 20.8688 36.3222 20.8688C36.1942 20.8688 36.0619 20.7131 35.9808 20.4635C35.8102 19.9621 35.8422 19.3968 36.096 18.4581C36.352 17.4981 36.3819 17.3275 36.384 16.6875C36.384 16.1691 36.3776 16.0795 36.288 15.7957C36.2347 15.6251 36.1238 15.3648 36.0448 15.224L35.9019 14.968L36.0875 14.7589C36.6571 14.1317 36.5419 13.1035 35.8528 12.7109C35.6459 12.5872 35.5926 12.5765 35.2256 12.5829C35.0038 12.5829 34.671 12.6213 34.479 12.6683C34.2827 12.7109 33.9542 12.7493 33.728 12.7493C33.3696 12.7493 33.3099 12.7408 33.1734 12.6427C33.0283 12.5403 33.0027 12.4933 32.975 12.2587C32.9707 12.2075 32.9451 12.1605 32.9195 12.152C32.8704 12.1307 32.6422 12.3867 32.6123 12.5061C32.5952 12.5616 32.5803 12.5573 32.5334 12.4848C32.5014 12.4315 32.4566 12.3141 32.4331 12.2245C32.3755 11.9941 32.4459 11.8192 32.6464 11.6912L32.8064 11.5931L32.7168 11.5163C32.5248 11.3584 32.1984 11.4651 32.0811 11.7296C32.047 11.8 32.0107 11.8619 32 11.8619C31.9894 11.8619 31.9254 11.7915 31.8592 11.7061C31.6118 11.3861 31.6971 10.9083 32.0299 10.7611C32.2048 10.6843 32.3606 10.744 32.3926 10.8997C32.4416 11.1387 32.5974 10.8251 32.5696 10.5413C32.5483 10.3536 32.5483 10.3451 32.6486 10.3451C32.7851 10.3451 33.0752 10.584 33.167 10.7717C33.2736 10.9851 33.263 11.3264 33.1456 11.5781L33.0603 11.7765L33.1755 11.7467C33.3462 11.6997 33.5168 11.5547 33.6022 11.384C33.6918 11.2005 33.7024 10.8443 33.6235 10.6501C33.5446 10.4645 33.5531 10.4368 33.6662 10.5008C33.8624 10.6075 33.9648 10.7227 34.0438 10.9275C34.1163 11.1088 34.1206 11.1536 34.0822 11.3435C34.0608 11.4608 34.0075 11.6144 33.967 11.6848C33.903 11.7979 33.903 11.8171 33.952 11.8171C34.0438 11.8171 34.24 11.6997 34.3083 11.6037C34.3424 11.5525 34.3936 11.4331 34.4214 11.3307L34.4704 11.1515L34.528 11.288C34.6091 11.48 34.7627 11.6571 34.9547 11.7659C35.1616 11.8853 35.247 11.8939 35.1403 11.7829C35.0678 11.7083 34.9334 11.1856 34.9739 11.1365C34.9952 11.1067 35.2768 11.3925 35.5926 11.7723C35.8955 12.1349 36.0832 12.2501 36.3606 12.2501C36.7168 12.2501 36.9216 11.8405 36.7659 11.4544C36.6699 11.2283 36.463 11.1984 36.3435 11.3904C36.288 11.48 36.2731 11.5504 36.288 11.6421C36.3094 11.7573 36.3008 11.7701 36.224 11.7701C36.1174 11.7701 35.9168 11.5995 35.5584 11.1984C35.0102 10.5904 34.3424 10.0741 33.8624 9.8864C33.5531 9.76267 32.8939 9.71573 32.5824 9.79253C32.2411 9.8736 31.8358 10.1339 31.6182 10.4112C31.2299 10.9019 31.2256 11.5525 31.6032 12.1477L31.7099 12.3184L31.6374 12.4677C31.5307 12.6896 31.5392 12.9861 31.6587 13.2037C31.712 13.2997 31.7654 13.3787 31.7782 13.3787C31.791 13.3787 31.8038 13.3147 31.808 13.24C31.8187 13.048 31.8806 12.92 31.9872 12.8709C32.0811 12.824 32.143 12.8453 32.5803 13.0757C33.039 13.3211 33.792 13.336 34.5942 13.1184C34.9888 13.016 35.4518 13.0224 35.6566 13.1355C36.0299 13.3445 36.1174 13.8864 35.8422 14.2981C35.7227 14.4731 35.6075 14.5456 35.2235 14.6864C34.9291 14.7931 34.8608 14.8016 34.1931 14.7931C33.6235 14.7845 33.4187 14.7995 33.1862 14.8635C32.9344 14.9339 32.7808 14.9403 32.0384 14.9168L31.1808 14.8869L31.2768 14.9936C31.328 15.0491 31.4048 15.1216 31.4411 15.1493C31.5051 15.1963 31.5051 15.2027 31.407 15.2496C31.3494 15.2795 31.2256 15.3008 31.1296 15.3008H30.9526L30.9312 15.5013C30.9184 15.6123 30.9184 15.736 30.9312 15.7851C30.9526 15.8555 30.9462 15.864 30.8886 15.8384C30.8544 15.8171 30.752 15.7851 30.6624 15.7595C30.5728 15.7339 30.4534 15.6848 30.3958 15.6464C30.2976 15.5824 30.2891 15.5824 30.2507 15.6677C30.2208 15.7445 29.9222 16.0389 29.8774 16.0389C29.871 16.0389 29.8624 15.9813 29.856 15.9109C29.856 15.8427 29.8134 15.6613 29.7622 15.5099C29.7152 15.3605 29.664 15.1941 29.6512 15.1429C29.6299 15.0661 29.6235 15.0619 29.5979 15.1216C29.583 15.1579 29.5595 15.2603 29.5467 15.3499C29.536 15.4352 29.4912 15.5845 29.4486 15.6699L29.3718 15.8277L29.3227 15.6912C29.2715 15.5461 29.184 15.3925 29.152 15.3925C29.1414 15.3925 29.1222 15.4416 29.1094 15.4992C29.088 15.6165 28.8811 15.9472 28.832 15.9472C28.8107 15.9472 28.7958 15.8533 28.7958 15.7403C28.7958 15.6251 28.7808 15.5333 28.7595 15.5333C28.7424 15.5333 28.7254 15.5611 28.7254 15.5973C28.7254 15.6827 28.5483 15.9451 28.4907 15.9451C28.463 15.9451 28.4224 15.9749 28.3968 16.0133C28.3328 16.1115 28.2795 16.0987 28.3051 15.992C28.32 15.9387 28.3115 15.8213 28.288 15.7253L28.2304 15.5013C28.2219 15.4672 28.16 15.4757 28.0256 15.5333C27.808 15.6251 27.7355 15.6101 27.8464 15.4907C27.8891 15.448 27.9531 15.3029 27.9851 15.1664C28.0192 15.0299 28.0704 14.9104 28.1003 14.8955C28.1387 14.8827 28.1366 14.9019 28.0896 14.9851C28.0576 15.0448 28.0299 15.1259 28.0299 15.1643C28.0299 15.2027 28.0022 15.2923 27.9723 15.3669C27.9424 15.4437 27.9232 15.5099 27.9296 15.5163C27.9382 15.5269 28.0192 15.4864 28.1131 15.4267L28.2838 15.32V15.416C28.2838 15.4693 28.3051 15.608 28.3264 15.7275L28.3734 15.9408L28.4886 15.8704C28.6059 15.7979 28.719 15.5397 28.719 15.3413C28.719 15.2389 28.7616 15.256 28.7787 15.3627L28.8384 15.6187L28.8896 15.8192L28.9686 15.6912C29.0112 15.6208 29.0688 15.4843 29.0923 15.3861C29.135 15.2197 29.1947 15.1472 29.1947 15.2688C29.1947 15.3584 29.3782 15.6741 29.4123 15.6485C29.4294 15.6357 29.4635 15.5163 29.487 15.384C29.5382 15.1067 29.6192 14.9189 29.6726 14.9573C29.6939 14.9744 29.6982 15 29.6875 15.0213C29.679 15.0427 29.7195 15.224 29.7814 15.4224C29.8454 15.6208 29.9094 15.8213 29.92 15.8661C29.9414 15.9408 29.9627 15.9301 30.095 15.7744C30.1803 15.6784 30.2528 15.5717 30.2614 15.5355C30.2742 15.4843 30.2934 15.4864 30.368 15.5483C30.4747 15.6379 30.8374 15.7829 30.8651 15.7445C30.8758 15.7317 30.8864 15.6059 30.8864 15.4672L30.8928 15.2112L30.9995 15.2389C31.0571 15.256 31.1766 15.2539 31.2662 15.2389L31.4283 15.2069L31.2854 15.0747C31.2064 15.0021 31.1254 14.9083 31.1062 14.8656C31.0848 14.8229 31.0123 14.7803 30.9355 14.7739C30.7158 14.7483 30.3296 14.4603 30.3296 14.3259C30.3296 14.2981 30.383 14.3408 30.4491 14.4219C30.5942 14.5968 30.7947 14.7077 30.9696 14.7077H31.1019L31.0208 14.5669C30.9739 14.4816 30.9312 14.328 30.9206 14.1979C30.9056 13.9952 30.8886 13.9632 30.7286 13.8139C30.6326 13.7243 30.511 13.5899 30.4619 13.5152L30.3723 13.3808L30.3254 13.5408C30.2998 13.6304 30.2678 13.7008 30.2571 13.7008C30.2443 13.7008 30.1931 13.6496 30.1504 13.5877C30.1014 13.5237 30.0523 13.4725 30.0438 13.4725C30.0288 13.4725 29.9883 13.5579 29.9478 13.6645L29.8774 13.8501L29.8219 13.7435C29.7899 13.6795 29.7195 13.5771 29.6619 13.5088C29.6043 13.4363 29.5723 13.3808 29.5936 13.3808C29.615 13.3808 29.6875 13.4533 29.7536 13.5408L29.8752 13.7029L29.9243 13.5835C29.952 13.5152 29.9627 13.4064 29.9499 13.3189C29.9286 13.1909 29.9328 13.1867 29.9712 13.2656C29.9926 13.3168 30.063 13.4149 30.127 13.4789L30.2422 13.6069L30.3211 13.4149C30.4 13.2229 30.4022 13.2229 30.4363 13.3339C30.4854 13.4875 30.831 13.8672 31.1254 14.0848C31.168 14.1189 31.151 13.9995 31.0678 13.7328C31.0464 13.6624 31.0251 13.5344 31.0251 13.4491C31.0251 13.3211 30.9995 13.2635 30.8758 13.1397C30.7008 12.9605 30.6454 12.8347 30.6112 12.5467C30.5984 12.4293 30.5686 12.2992 30.543 12.2587C30.5067 12.1947 30.5003 12.2309 30.511 12.4464C30.5152 12.5957 30.5003 12.7749 30.4768 12.8517L30.4342 12.9883L30.4 12.8731C30.3787 12.8091 30.2998 12.7024 30.2187 12.6277C30.1334 12.5573 30.08 12.4869 30.0907 12.472C30.1014 12.4592 30.1867 12.5232 30.2763 12.6171C30.415 12.76 30.447 12.7749 30.464 12.7131C30.4854 12.6384 30.464 12.3163 30.4214 12.0944C30.4 11.9792 30.4 11.9792 30.5067 12.1157C30.5835 12.2224 30.624 12.3419 30.656 12.5552C30.6987 12.8261 30.72 12.8752 30.9078 13.0885C31.0208 13.2229 31.1211 13.3232 31.1254 13.3147C31.1339 13.3061 31.1467 12.9648 31.1574 12.5573C31.1787 11.7787 31.1574 11.5931 31.0144 11.352L30.9419 11.2283L31.055 11.064C31.2043 10.8507 31.2726 10.68 31.3024 10.4453L31.328 10.2533L31.2 10.4176C31.0934 10.5499 31.0443 10.5797 30.9227 10.5797C30.8011 10.5797 30.752 10.5541 30.6731 10.4368C30.575 10.2981 30.4 10.1659 30.2336 10.0997C30.1696 10.0784 30.1483 10.0869 30.1483 10.1424C30.1483 10.1851 30.1163 10.3003 30.0736 10.4027L29.999 10.5904L29.8411 10.3813C29.743 10.2533 29.6278 10.1552 29.5424 10.1253C29.3227 10.0485 29.312 10.0549 29.312 10.2747C29.312 10.6011 29.2054 10.6629 29.0134 10.4453C28.8704 10.2747 28.7488 10.2405 28.4736 10.2811L28.2603 10.3131L28.303 10.4411C28.3328 10.5477 28.3243 10.5904 28.256 10.712C28.1451 10.9083 28 10.9936 27.7782 10.9936C27.6758 10.9936 27.5478 11.0213 27.4923 11.0576C27.439 11.0896 27.3046 11.1301 27.1936 11.1429C27.0827 11.1579 26.9654 11.1856 26.9312 11.2005C26.88 11.2261 26.8736 11.2048 26.8886 11.0469C26.9163 10.8037 26.7904 10.6267 26.5899 10.6267C26.3339 10.6267 26.2166 10.9317 26.3168 11.3349C26.3382 11.4117 26.3595 11.5355 26.3723 11.6059C26.3872 11.6805 26.5003 11.8789 26.6454 12.0688C26.7819 12.2523 26.9099 12.4421 26.9312 12.4912C26.9526 12.5403 27.023 12.6192 27.087 12.6661L27.2043 12.7515L27.1894 12.5872C27.1723 12.4037 27.2022 12.3739 27.2747 12.5019C27.3024 12.5509 27.3686 12.6256 27.424 12.6725C27.5094 12.7408 27.5243 12.7429 27.5243 12.6811C27.5243 12.6384 27.5414 12.5531 27.5627 12.4805L27.6054 12.3525L27.6694 12.5275C27.7078 12.6235 27.8315 12.8432 27.9424 13.0181C28.16 13.3488 28.2923 13.7221 28.224 13.8075C28.1963 13.8437 28.1216 13.8395 27.968 13.7989C27.8464 13.7691 27.6971 13.752 27.6352 13.7627C27.5072 13.784 27.5008 13.7627 27.5776 13.6347C27.6587 13.5003 27.6459 13.4789 27.4859 13.4789C27.3003 13.4789 26.8416 13.3595 26.6646 13.2656C26.4939 13.1803 26.4512 13.2016 26.4022 13.4149L26.3104 13.8096L26.2614 14.0229L26.447 14.0016C26.5494 13.9867 26.6816 13.9589 26.7392 13.9333C26.799 13.912 26.8523 13.8992 26.8587 13.9056C26.8651 13.9141 26.8374 13.9995 26.8011 14.0933L26.7286 14.264L26.8459 14.2341C26.9099 14.2171 27.0059 14.1744 27.0592 14.1403C27.1531 14.0805 27.1595 14.0848 27.2342 14.2405C27.3238 14.4325 27.3963 14.4261 27.4112 14.2192C27.4283 14.0101 27.4816 14.0421 27.5819 14.3216C27.6736 14.5904 27.7739 14.6843 27.791 14.5264C27.7974 14.4752 27.8464 14.3877 27.904 14.3344C28.0171 14.2277 28.1024 14.2619 28.1494 14.4283C28.2027 14.5989 28.0896 14.7781 27.7654 15.0427C27.104 15.5717 26.7243 16.2971 26.6134 17.2187C26.5152 18.0507 26.8224 18.9125 27.439 19.5312C27.7334 19.8299 28.2027 20.1392 28.1728 20.0219C28.0491 19.5141 28.0534 18.5499 28.1814 18.3856C28.2027 18.36 28.1942 18.4603 28.1664 18.6075C28.064 19.1579 28.1088 19.5952 28.3734 20.6213C28.608 21.5515 28.5782 21.9483 28.2411 22.2085C28.1344 22.2939 28.0619 22.3067 27.7718 22.3024C27.456 22.2981 27.4219 22.3067 27.3195 22.4133C27.2214 22.52 27.0955 22.8613 27.0955 23.0192C27.0955 23.1045 27.1659 23.0939 27.3088 22.9851L27.2747 22.9808ZM24.8854 21.2741C24.9195 21.2165 24.9451 21.1248 24.9451 21.0715C24.9451 20.9904 24.9728 20.9691 25.1094 20.9435L25.2736 20.9136L25.167 20.7963C25.0347 20.6597 25.0219 20.5531 25.1371 20.5531C25.2502 20.5531 25.4443 20.3952 25.4742 20.2757C25.4891 20.2245 25.4806 20.152 25.4571 20.1136C25.3931 20.0176 25.2715 20.0325 25.2502 20.1392C25.2246 20.2544 25.1862 20.2565 25.0944 20.1392C24.9579 19.9685 24.9536 19.6101 25.088 19.4011C25.1478 19.3029 25.1478 19.2944 25.0667 19.1963C24.9814 19.0853 24.9174 18.8699 24.96 18.8187C24.9728 18.8037 25.0411 18.8187 25.1094 18.8485C25.2118 18.8912 25.2523 18.8955 25.2928 18.8485C25.4208 18.7205 25.2822 18.5499 25.0795 18.5883C25.0006 18.6032 24.9686 18.5883 24.9558 18.5328C24.9472 18.4901 24.8768 18.4325 24.7958 18.4048C24.655 18.3579 24.6528 18.3621 24.6528 18.4901C24.6528 18.6331 24.5888 18.6608 24.4758 18.5691C24.3798 18.4944 24.288 18.552 24.288 18.6864C24.288 18.8101 24.384 18.872 24.5526 18.8571C24.6806 18.8464 24.687 18.9765 24.5632 19.16L24.4736 19.2944L24.544 19.4288C24.6507 19.6272 24.64 19.9579 24.5227 20.1221L24.4374 20.2501L24.3776 20.1477C24.2966 20.0048 24.1856 20.0155 24.1536 20.1691C24.1323 20.2693 24.1536 20.3141 24.2454 20.4208C24.3094 20.4912 24.4011 20.5488 24.4502 20.5488C24.5739 20.5488 24.5696 20.6768 24.4416 20.8091L24.3414 20.9115L24.4992 20.9435C24.5846 20.9605 24.6528 20.9947 24.6528 21.0181C24.6528 21.1035 24.7595 21.3765 24.7958 21.3765C24.8171 21.3765 24.8598 21.3339 24.8875 21.2763L24.8854 21.2741ZM25.4251 16.6448C25.7792 16.4379 25.8091 15.9109 25.4763 15.7701C25.3376 15.7147 25.2502 15.7488 25.199 15.8704C25.1563 15.9664 25.184 16.1392 25.2416 16.1392C25.2587 16.1392 25.2736 16.1691 25.2736 16.2075C25.2736 16.3909 24.7339 16.4741 24.5142 16.3248C24.4374 16.2715 24.4075 16.1371 24.4715 16.1371C24.5142 16.1371 24.5504 15.9963 24.527 15.8981C24.4928 15.7659 24.3904 15.7189 24.2454 15.7701C23.9147 15.8853 23.9254 16.4016 24.2603 16.6235C24.5376 16.8005 25.1435 16.8112 25.4294 16.6448H25.4251ZM25.2054 16.2395C25.2267 16.2181 25.2182 16.1755 25.184 16.1392C25.1094 16.0603 25.1136 15.9429 25.1947 15.8085C25.2587 15.7083 25.2651 15.5589 25.2864 14.0464C25.3227 11.4352 25.4678 9.47467 25.6598 9.00533C25.7366 8.8176 25.7238 8.81333 25.5275 8.99466C25.2715 9.22506 25.0795 9.528 24.9088 9.95467C24.5846 10.7653 24.4715 11.8576 24.4715 14.1872C24.4715 15.5099 24.48 15.6805 24.5355 15.8085C24.591 15.9237 24.5931 15.9685 24.5568 16.0944C24.5312 16.1755 24.5206 16.2544 24.5312 16.2651C24.6038 16.3589 25.1286 16.3355 25.2075 16.2373L25.2054 16.2395Z" fill="#FFB700"/>
<path fill-rule="evenodd" clip-rule="evenodd" d="M21.8667 6.73334H24V8.86667H21.8667V6.73334ZM36.8 6.73334H38.9333V8.86667H36.8V6.73334ZM21.8667 23.8H24V25.9333H21.8667V23.8ZM36.8 23.8H38.9333V25.9333H36.8V23.8Z" fill="#DA8210"/>
<path d="M41.0667 1.39999H4.80001C3.03269 1.39999 1.60001 2.83268 1.60001 4.59999V28.0667C1.60001 29.834 3.03269 31.2667 4.80001 31.2667H41.0667C42.834 31.2667 44.2667 29.834 44.2667 28.0667V4.59999C44.2667 2.83268 42.834 1.39999 41.0667 1.39999Z" stroke="black" stroke-opacity="0.1" stroke-width="2.13333"/>
</g>
</g>
<defs>
<clipPath id="clip0_3_109">
<rect width="44.8" height="32" fill="white" transform="translate(0.533325 0.333344)"/>
</clipPath>
</defs>
</svg>
