<svg width="46" height="33" viewBox="0 0 46 33" fill="none" xmlns="http://www.w3.org/2000/svg">
<mask id="mask0_3_108" style="mask-type:alpha" maskUnits="userSpaceOnUse" x="0" y="0" width="46" height="33">
<path d="M41.2 0.333344H4.93332C2.57691 0.333344 0.666656 2.2436 0.666656 4.60001V28.0667C0.666656 30.4231 2.57691 32.3333 4.93332 32.3333H41.2C43.5564 32.3333 45.4667 30.4231 45.4667 28.0667V4.60001C45.4667 2.2436 43.5564 0.333344 41.2 0.333344Z" fill="white"/>
</mask>
<g mask="url(#mask0_3_108)">
<path d="M41.2 0.333344H4.93332C2.57691 0.333344 0.666656 2.2436 0.666656 4.60001V28.0667C0.666656 30.4231 2.57691 32.3333 4.93332 32.3333H41.2C43.5564 32.3333 45.4667 30.4231 45.4667 28.0667V4.60001C45.4667 2.2436 43.5564 0.333344 41.2 0.333344Z" fill="white"/>
<path fill-rule="evenodd" clip-rule="evenodd" d="M15.6 0.333344H45.4667V2.46668H15.6V0.333344ZM15.6 4.60001H45.4667V6.73334H15.6V4.60001ZM15.6 8.86668H45.4667V11H15.6V8.86668ZM15.6 13.1333H45.4667V15.2667H15.6V13.1333ZM0.666656 17.4H45.4667V19.5333H0.666656V17.4ZM0.666656 21.6667H45.4667V23.8H0.666656V21.6667ZM0.666656 25.9333H45.4667V28.0667H0.666656V25.9333Z" fill="#C1012B"/>
<path d="M45.4667 30.2H0.666656V32.3333H45.4667V30.2Z" fill="#C1012B"/>
<path fill-rule="evenodd" clip-rule="evenodd" d="M0.666656 0.333344H15.6V15.2667H0.666656V0.333344Z" fill="#00256A"/>
<path fill-rule="evenodd" clip-rule="evenodd" d="M8.00532 10.7803L4.78825 12.472L5.40265 8.888L2.79999 6.35573L6.39679 5.83307L8.00532 2.57333L9.61385 5.83093L13.2107 6.3536L10.608 8.89227L11.2224 12.472" fill="white"/>
<path d="M41.2 1.39999H4.93334C3.16603 1.39999 1.73334 2.83268 1.73334 4.59999V28.0667C1.73334 29.834 3.16603 31.2667 4.93334 31.2667H41.2C42.9673 31.2667 44.4 29.834 44.4 28.0667V4.59999C44.4 2.83268 42.9673 1.39999 41.2 1.39999Z" stroke="black" stroke-opacity="0.1" stroke-width="2.13333"/>
</g>
</svg>
