<svg width="46" height="33" viewBox="0 0 46 33" fill="none" xmlns="http://www.w3.org/2000/svg">
<g clip-path="url(#clip0_3_107)">
<mask id="mask0_3_107" style="mask-type:alpha" maskUnits="userSpaceOnUse" x="0" y="0" width="46" height="33">
<path d="M41.3333 0.333344H5.06665C2.71024 0.333344 0.799988 2.2436 0.799988 4.60001V28.0667C0.799988 30.4231 2.71024 32.3333 5.06665 32.3333H41.3333C43.6897 32.3333 45.6 30.4231 45.6 28.0667V4.60001C45.6 2.2436 43.6897 0.333344 41.3333 0.333344Z" fill="white"/>
</mask>
<g mask="url(#mask0_3_107)">
<path d="M41.3333 0.333344H5.06665C2.71024 0.333344 0.799988 2.2436 0.799988 4.60001V28.0667C0.799988 30.4231 2.71024 32.3333 5.06665 32.3333H41.3333C43.6897 32.3333 45.6 30.4231 45.6 28.0667V4.60001C45.6 2.2436 43.6897 0.333344 41.3333 0.333344Z" fill="white"/>
<path fill-rule="evenodd" clip-rule="evenodd" d="M22.3466 12.7067L20 17.4H26.4L24.0533 12.7067C24.1877 12.5275 24.2666 12.3077 24.2666 12.0667C24.2666 11.4779 23.7888 11 23.2 11C22.6112 11 22.1333 11.4779 22.1333 12.0667C22.1333 12.3077 22.2122 12.5275 22.3466 12.7067ZM28.5333 19.5333C28.5333 20.7109 26.144 21.6667 23.2 21.6667C20.256 21.6667 17.8666 20.7109 17.8666 19.5333V17.4H28.5333V19.5333Z" fill="black"/>
<path fill-rule="evenodd" clip-rule="evenodd" d="M0.799988 23.8H45.6V32.3333H0.799988V23.8Z" fill="#00963F"/>
<path fill-rule="evenodd" clip-rule="evenodd" d="M0.799988 0.333344H45.6V8.86668H0.799988V0.333344Z" fill="#0017A2"/>
<path d="M41.3333 1.39999H5.06664C3.29933 1.39999 1.86664 2.83268 1.86664 4.59999V28.0667C1.86664 29.834 3.29933 31.2667 5.06664 31.2667H41.3333C43.1006 31.2667 44.5333 29.834 44.5333 28.0667V4.59999C44.5333 2.83268 43.1006 1.39999 41.3333 1.39999Z" stroke="black" stroke-opacity="0.1" stroke-width="2.13333"/>
</g>
</g>
<defs>
<clipPath id="clip0_3_107">
<rect width="44.8" height="32" fill="white" transform="translate(0.799988 0.333344)"/>
</clipPath>
</defs>
</svg>
