<svg width="45" height="33" viewBox="0 0 45 33" fill="none" xmlns="http://www.w3.org/2000/svg">
<mask id="mask0_3_103" style="mask-type:alpha" maskUnits="userSpaceOnUse" x="0" y="0" width="45" height="33">
<path d="M40.5333 0.666656H4.26667C1.91025 0.666656 0 2.57691 0 4.93332V28.4C0 30.7564 1.91025 32.6667 4.26667 32.6667H40.5333C42.8897 32.6667 44.8 30.7564 44.8 28.4V4.93332C44.8 2.57691 42.8897 0.666656 40.5333 0.666656Z" fill="white"/>
</mask>
<g mask="url(#mask0_3_103)">
<path d="M40.5333 0.666656H4.26667C1.91025 0.666656 0 2.57691 0 4.93332V28.4C0 30.7564 1.91025 32.6667 4.26667 32.6667H40.5333C42.8897 32.6667 44.8 30.7564 44.8 28.4V4.93332C44.8 2.57691 42.8897 0.666656 40.5333 0.666656Z" fill="black"/>
<path fill-rule="evenodd" clip-rule="evenodd" d="M0 24.1333H44.8V32.6667H0V24.1333Z" fill="#179F41"/>
<path fill-rule="evenodd" clip-rule="evenodd" d="M0 0.666656H44.8V9.19999H0V0.666656Z" fill="#EA0000"/>
<path fill-rule="evenodd" clip-rule="evenodd" d="M25.6 15.6H27.7333V17.7333H25.6V15.6Z" fill="#FBDCE2"/>
<path fill-rule="evenodd" clip-rule="evenodd" d="M26.6667 19.8667C25.6939 21.1616 24.1451 22 22.4 22C19.456 22 17.0667 19.6107 17.0667 16.6667C17.0667 13.7227 19.456 11.3333 22.4 11.3333C24.1451 11.3333 25.6939 12.1717 26.6667 13.4667H23.4667C21.7003 13.4667 20.2667 14.9003 20.2667 16.6667C20.2667 18.4331 21.7003 19.8667 23.4667 19.8667H26.6667Z" fill="white"/>
<path d="M40.5333 1.73334H4.26667C2.49935 1.73334 1.06667 3.16603 1.06667 4.93334V28.4C1.06667 30.1673 2.49935 31.6 4.26667 31.6H40.5333C42.3006 31.6 43.7333 30.1673 43.7333 28.4V4.93334C43.7333 3.16603 42.3006 1.73334 40.5333 1.73334Z" stroke="black" stroke-opacity="0.1" stroke-width="2.13333"/>
</g>
</svg>
