<svg width="45" height="33" viewBox="0 0 45 33" fill="none" xmlns="http://www.w3.org/2000/svg">
<mask id="mask0_3_102" style="mask-type:alpha" maskUnits="userSpaceOnUse" x="0" y="0" width="45" height="33">
<path d="M40.6667 0.666656H4.40001C2.0436 0.666656 0.133347 2.57691 0.133347 4.93332V28.4C0.133347 30.7564 2.0436 32.6667 4.40001 32.6667H40.6667C43.0231 32.6667 44.9333 30.7564 44.9333 28.4V4.93332C44.9333 2.57691 43.0231 0.666656 40.6667 0.666656Z" fill="white"/>
</mask>
<g mask="url(#mask0_3_102)">
<path d="M40.6667 0.666656H4.40001C2.0436 0.666656 0.133347 2.57691 0.133347 4.93332V28.4C0.133347 30.7564 2.0436 32.6667 4.40001 32.6667H40.6667C43.0231 32.6667 44.9333 30.7564 44.9333 28.4V4.93332C44.9333 2.57691 43.0231 0.666656 40.6667 0.666656Z" fill="#C32427"/>
<path fill-rule="evenodd" clip-rule="evenodd" d="M22.5333 19.8453L19.3973 21.488L19.9947 18L17.4603 15.5253L20.9653 15.0176L22.5333 11.8432L24.1013 15.0155L27.6064 15.5275L25.0677 17.9979L25.6651 21.488" fill="#006331"/>
<path d="M40.6667 1.73334H4.4C2.63269 1.73334 1.2 3.16603 1.2 4.93334V28.4C1.2 30.1673 2.63269 31.6 4.4 31.6H40.6667C42.434 31.6 43.8667 30.1673 43.8667 28.4V4.93334C43.8667 3.16603 42.434 1.73334 40.6667 1.73334Z" stroke="black" stroke-opacity="0.1" stroke-width="2.13333"/>
</g>
</svg>
