<svg width="46" height="33" viewBox="0 0 46 33" fill="none" xmlns="http://www.w3.org/2000/svg">
<g clip-path="url(#clip0_3_101)">
<mask id="mask0_3_101" style="mask-type:alpha" maskUnits="userSpaceOnUse" x="0" y="0" width="46" height="33">
<path d="M40.8 0.666656H4.53336C2.17694 0.666656 0.266693 2.57691 0.266693 4.93332V28.4C0.266693 30.7564 2.17694 32.6667 4.53336 32.6667H40.8C43.1564 32.6667 45.0667 30.7564 45.0667 28.4V4.93332C45.0667 2.57691 43.1564 0.666656 40.8 0.666656Z" fill="white"/>
</mask>
<g mask="url(#mask0_3_101)">
<path d="M40.8 0.666656H4.53336C2.17694 0.666656 0.266693 2.57691 0.266693 4.93332V28.4C0.266693 30.7564 2.17694 32.6667 4.53336 32.6667H40.8C43.1564 32.6667 45.0667 30.7564 45.0667 28.4V4.93332C45.0667 2.57691 43.1564 0.666656 40.8 0.666656Z" fill="#D0091E"/>
<path fill-rule="evenodd" clip-rule="evenodd" d="M0.266693 17.7333H45.0667V32.6667H0.266693V17.7333Z" fill="white"/>
<path d="M40.8 1.73334H4.53331C2.766 1.73334 1.33331 3.16603 1.33331 4.93334V28.4C1.33331 30.1673 2.766 31.6 4.53331 31.6H40.8C42.5673 31.6 44 30.1673 44 28.4V4.93334C44 3.16603 42.5673 1.73334 40.8 1.73334Z" stroke="black" stroke-opacity="0.1" stroke-width="2.13333"/>
</g>
</g>
<defs>
<clipPath id="clip0_3_101">
<rect width="44.8" height="32" fill="white" transform="translate(0.266693 0.666656)"/>
</clipPath>
</defs>
</svg>
