<svg width="46" height="33" viewBox="0 0 46 33" fill="none" xmlns="http://www.w3.org/2000/svg">
<g clip-path="url(#clip0_3_100)">
<mask id="mask0_3_100" style="mask-type:alpha" maskUnits="userSpaceOnUse" x="0" y="0" width="46" height="33">
<path d="M40.9333 0.666656H4.66666C2.31025 0.666656 0.399994 2.57691 0.399994 4.93332V28.4C0.399994 30.7564 2.31025 32.6667 4.66666 32.6667H40.9333C43.2897 32.6667 45.2 30.7564 45.2 28.4V4.93332C45.2 2.57691 43.2897 0.666656 40.9333 0.666656Z" fill="white"/>
</mask>
<g mask="url(#mask0_3_100)">
<path d="M40.9333 0.666656H4.66666C2.31025 0.666656 0.399994 2.57691 0.399994 4.93332V28.4C0.399994 30.7564 2.31025 32.6667 4.66666 32.6667H40.9333C43.2897 32.6667 45.2 30.7564 45.2 28.4V4.93332C45.2 2.57691 43.2897 0.666656 40.9333 0.666656Z" fill="#FFD300"/>
<path fill-rule="evenodd" clip-rule="evenodd" d="M0.399994 0.666656H15.3333V32.6667H0.399994V0.666656Z" fill="#0042B1"/>
<path fill-rule="evenodd" clip-rule="evenodd" d="M17.4667 11.3333H28.1333V22H17.4667V11.3333ZM17.4667 22L22.8 26.2667L28.1333 22H17.4667ZM21.7333 9.20001H23.8667V11.3333H21.7333V9.20001Z" fill="#B17F51"/>
<path fill-rule="evenodd" clip-rule="evenodd" d="M19.6 13.4667H26V17.7333H19.6V13.4667Z" fill="#D30021"/>
<path fill-rule="evenodd" clip-rule="evenodd" d="M19.6 17.7333H26V20.9333H19.6V17.7333ZM19.6 20.9333L22.8 23.0667L26 20.9333H19.6Z" fill="#0140BE"/>
<path fill-rule="evenodd" clip-rule="evenodd" d="M22.8 15.6C23.3888 15.6 23.8667 16.0565 23.8667 16.6773V18.7893C23.8667 19.3867 23.3717 19.8667 22.8 19.8667C22.2112 19.8667 21.7333 19.4101 21.7333 18.7893V16.6773C21.7333 16.08 22.2283 15.6 22.8 15.6V15.6Z" fill="#FFD300"/>
<path fill-rule="evenodd" clip-rule="evenodd" d="M30.2667 0.666656H45.2V32.6667H30.2667V0.666656Z" fill="#CE0029"/>
<path d="M40.9333 1.73334H4.66668C2.89936 1.73334 1.46667 3.16603 1.46667 4.93334V28.4C1.46667 30.1673 2.89936 31.6 4.66668 31.6H40.9333C42.7007 31.6 44.1333 30.1673 44.1333 28.4V4.93334C44.1333 3.16603 42.7007 1.73334 40.9333 1.73334Z" stroke="black" stroke-opacity="0.1" stroke-width="2.13333"/>
</g>
</g>
<defs>
<clipPath id="clip0_3_100">
<rect width="44.8" height="32" fill="white" transform="translate(0.399994 0.666656)"/>
</clipPath>
</defs>
</svg>
