<svg width="46" height="33" viewBox="0 0 46 33" fill="none" xmlns="http://www.w3.org/2000/svg">
<g clip-path="url(#clip0_3_99)">
<path d="M41.0667 0.666656H4.79999C2.44358 0.666656 0.533325 2.57691 0.533325 4.93332V28.4C0.533325 30.7564 2.44358 32.6667 4.79999 32.6667H41.0667C43.4231 32.6667 45.3333 30.7564 45.3333 28.4V4.93332C45.3333 2.57691 43.4231 0.666656 41.0667 0.666656Z" fill="#D4AF2C"/>
<mask id="mask0_3_99" style="mask-type:alpha" maskUnits="userSpaceOnUse" x="2" y="2" width="42" height="29">
<path d="M41.0667 2.80002H4.80002C3.62181 2.80002 2.66669 3.75514 2.66669 4.93335V28.4C2.66669 29.5782 3.62181 30.5334 4.80002 30.5334H41.0667C42.2449 30.5334 43.2 29.5782 43.2 28.4V4.93335C43.2 3.75514 42.2449 2.80002 41.0667 2.80002Z" fill="white"/>
</mask>
<g mask="url(#mask0_3_99)">
<path d="M41.0667 2.80002H4.80002C3.62181 2.80002 2.66669 3.75514 2.66669 4.93335V28.4C2.66669 29.5782 3.62181 30.5334 4.80002 30.5334H41.0667C42.2449 30.5334 43.2 29.5782 43.2 28.4V4.93335C43.2 3.75514 42.2449 2.80002 41.0667 2.80002Z" fill="#C60000"/>
<path fill-rule="evenodd" clip-rule="evenodd" d="M22.9333 10.8597L20.4437 9.20001L18.7861 10.8597H20.4437L18.7861 12.5195L15.4667 10.8597V19.1584L20.4437 17.4944L18.7861 20.8139H17.1264L18.7861 22.4736L20.4437 20.8139L22.9333 24.1333V10.8597ZM25.4229 9.20001L27.0805 10.8597H25.4229L27.0805 12.5195L30.4 10.8597V19.1584L25.4229 17.4944L27.0805 20.8139H28.7403L27.0805 22.4736L25.4229 20.8139L22.9333 24.1333V10.8597L25.4229 9.20001Z" fill="#D5B02B"/>
<path fill-rule="evenodd" clip-rule="evenodd" d="M19.7333 14.544C19.7333 12.7733 21.1541 11.3333 22.9333 11.3333C24.6997 11.3333 26.1333 12.7691 26.1333 14.544V13.8123C26.1333 15.5829 25.0496 17.9851 23.744 19.1499L22.9333 19.8667L22.1227 19.1499C20.8064 17.9765 19.7333 15.5872 19.7333 13.8123V14.544Z" fill="#185D93"/>
<path fill-rule="evenodd" clip-rule="evenodd" d="M19.7333 13.4667H26.1333V15.6H19.7333V13.4667Z" fill="#C58724"/>
<path d="M41.0667 1.73334H4.80001C3.03269 1.73334 1.60001 3.16603 1.60001 4.93334V28.4C1.60001 30.1673 3.03269 31.6 4.80001 31.6H41.0667C42.834 31.6 44.2667 30.1673 44.2667 28.4V4.93334C44.2667 3.16603 42.834 1.73334 41.0667 1.73334Z" stroke="black" stroke-opacity="0.1" stroke-width="2.13333"/>
</g>
</g>
<defs>
<clipPath id="clip0_3_99">
<rect width="44.8" height="32" fill="white" transform="translate(0.533325 0.666656)"/>
</clipPath>
</defs>
</svg>
