<svg width="46" height="33" viewBox="0 0 46 33" fill="none" xmlns="http://www.w3.org/2000/svg">
<mask id="mask0_3_98" style="mask-type:alpha" maskUnits="userSpaceOnUse" x="0" y="0" width="46" height="33">
<path d="M41.2 0.666656H4.93332C2.57691 0.666656 0.666656 2.57691 0.666656 4.93332V28.4C0.666656 30.7564 2.57691 32.6667 4.93332 32.6667H41.2C43.5564 32.6667 45.4667 30.7564 45.4667 28.4V4.93332C45.4667 2.57691 43.5564 0.666656 41.2 0.666656Z" fill="white"/>
</mask>
<g mask="url(#mask0_3_98)">
<path d="M41.2 0.666656H4.93332C2.57691 0.666656 0.666656 2.57691 0.666656 4.93332V28.4C0.666656 30.7564 2.57691 32.6667 4.93332 32.6667H41.2C43.5564 32.6667 45.4667 30.7564 45.4667 28.4V4.93332C45.4667 2.57691 43.5564 0.666656 41.2 0.666656Z" fill="#FF3A27"/>
<path fill-rule="evenodd" clip-rule="evenodd" d="M0.666656 17.7333H45.4667V32.6667H0.666656V17.7333Z" fill="#007F37"/>
<path fill-rule="evenodd" clip-rule="evenodd" d="M0.666656 0.666656H17.7333V32.6667H0.666656V0.666656Z" fill="white"/>
<path d="M41.2 1.73334H4.93334C3.16603 1.73334 1.73334 3.16603 1.73334 4.93334V28.4C1.73334 30.1673 3.16603 31.6 4.93334 31.6H41.2C42.9673 31.6 44.4 30.1673 44.4 28.4V4.93334C44.4 3.16603 42.9673 1.73334 41.2 1.73334Z" stroke="black" stroke-opacity="0.1" stroke-width="2.13333"/>
</g>
</svg>
