<svg width="46" height="33" viewBox="0 0 46 33" fill="none" xmlns="http://www.w3.org/2000/svg">
<g clip-path="url(#clip0_3_97)">
<mask id="mask0_3_97" style="mask-type:alpha" maskUnits="userSpaceOnUse" x="0" y="0" width="46" height="33">
<path d="M41.3333 0.666656H5.06665C2.71024 0.666656 0.799988 2.57691 0.799988 4.93332V28.4C0.799988 30.7564 2.71024 32.6667 5.06665 32.6667H41.3333C43.6897 32.6667 45.6 30.7564 45.6 28.4V4.93332C45.6 2.57691 43.6897 0.666656 41.3333 0.666656Z" fill="white"/>
</mask>
<g mask="url(#mask0_3_97)">
<path d="M41.3333 0.666656H5.06665C2.71024 0.666656 0.799988 2.57691 0.799988 4.93332V28.4C0.799988 30.7564 2.71024 32.6667 5.06665 32.6667H41.3333C43.6897 32.6667 45.6 30.7564 45.6 28.4V4.93332C45.6 2.57691 43.6897 0.666656 41.3333 0.666656Z" fill="#003495"/>
<path d="M11.4667 15.6C13.8231 15.6 15.7333 13.6897 15.7333 11.3333C15.7333 8.9769 13.8231 7.06665 11.4667 7.06665C9.11026 7.06665 7.20001 8.9769 7.20001 11.3333C7.20001 13.6897 9.11026 15.6 11.4667 15.6Z" fill="white"/>
<path fill-rule="evenodd" clip-rule="evenodd" d="M0.799988 32.6666L45.6 13.4667V7.06665L0.799988 32.6666Z" fill="white"/>
<path fill-rule="evenodd" clip-rule="evenodd" d="M0.799988 32.6667L45.6 0.666656V7.06666L0.799988 32.6667Z" fill="#DF7500"/>
<path d="M41.3333 1.73334H5.06664C3.29933 1.73334 1.86664 3.16603 1.86664 4.93334V28.4C1.86664 30.1673 3.29933 31.6 5.06664 31.6H41.3333C43.1006 31.6 44.5333 30.1673 44.5333 28.4V4.93334C44.5333 3.16603 43.1006 1.73334 41.3333 1.73334Z" stroke="black" stroke-opacity="0.1" stroke-width="2.13333"/>
</g>
</g>
<defs>
<clipPath id="clip0_3_97">
<rect width="44.8" height="32" fill="white" transform="translate(0.799988 0.666656)"/>
</clipPath>
</defs>
</svg>
