<svg width="46" height="33" viewBox="0 0 46 33" fill="none" xmlns="http://www.w3.org/2000/svg">
<g clip-path="url(#clip0_3_96)">
<mask id="mask0_3_96" style="mask-type:alpha" maskUnits="userSpaceOnUse" x="0" y="0" width="46" height="33">
<path d="M41.4666 0.666656H5.19995C2.84354 0.666656 0.933289 2.57691 0.933289 4.93332V28.4C0.933289 30.7564 2.84354 32.6667 5.19995 32.6667H41.4666C43.823 32.6667 45.7333 30.7564 45.7333 28.4V4.93332C45.7333 2.57691 43.823 0.666656 41.4666 0.666656Z" fill="white"/>
</mask>
<g mask="url(#mask0_3_96)">
<path d="M41.4666 0.666656H5.19995C2.84354 0.666656 0.933289 2.57691 0.933289 4.93332V28.4C0.933289 30.7564 2.84354 32.6667 5.19995 32.6667H41.4666C43.823 32.6667 45.7333 30.7564 45.7333 28.4V4.93332C45.7333 2.57691 43.823 0.666656 41.4666 0.666656Z" fill="#D40000"/>
<path fill-rule="evenodd" clip-rule="evenodd" d="M0.933289 0.666656L22.2666 15.6H24.4L9.46662 0.666656H0.933289ZM0.933289 32.6667L22.2666 17.7333H24.4L9.46662 32.6667H0.933289Z" fill="#FFE800"/>
<path fill-rule="evenodd" clip-rule="evenodd" d="M24.4 15.6H22.2666L37.2 0.666656H45.7333L24.4 15.6ZM24.4 17.7333H22.2666L37.2 32.6667H45.7333L24.4 17.7333ZM18 15.6L0.933289 13.4667V19.8667L18 17.7333V15.6ZM28.6666 15.6L45.7333 13.4667V19.8667L28.6666 17.7333V15.6ZM22.2666 11.3333L20.1333 0.666656H26.5333L24.4 11.3333H22.2666ZM22.2666 22L20.1333 32.6667H26.5333L24.4 22" fill="#FFE800"/>
<path d="M23.3333 22C26.2789 22 28.6667 19.6122 28.6667 16.6667C28.6667 13.7212 26.2789 11.3333 23.3333 11.3333C20.3878 11.3333 18 13.7212 18 16.6667C18 19.6122 20.3878 22 23.3333 22Z" fill="#D40000"/>
<path d="M23.3334 19.8667C25.1007 19.8667 26.5334 18.434 26.5334 16.6667C26.5334 14.8994 25.1007 13.4667 23.3334 13.4667C21.5661 13.4667 20.1334 14.8994 20.1334 16.6667C20.1334 18.434 21.5661 19.8667 23.3334 19.8667Z" fill="#FFE800"/>
<path d="M41.4667 1.73334H5.2C3.43269 1.73334 2 3.16603 2 4.93334V28.4C2 30.1673 3.43269 31.6 5.2 31.6H41.4667C43.234 31.6 44.6667 30.1673 44.6667 28.4V4.93334C44.6667 3.16603 43.234 1.73334 41.4667 1.73334Z" stroke="black" stroke-opacity="0.1" stroke-width="2.13333"/>
</g>
</g>
<defs>
<clipPath id="clip0_3_96">
<rect width="44.8" height="32" fill="white" transform="translate(0.933289 0.666656)"/>
</clipPath>
</defs>
</svg>
