<svg width="45" height="33" viewBox="0 0 45 33" fill="none" xmlns="http://www.w3.org/2000/svg">
<g clip-path="url(#clip0_3_94)">
<mask id="mask0_3_94" style="mask-type:alpha" maskUnits="userSpaceOnUse" x="0" y="0" width="45" height="33">
<path d="M40.7333 0.666656H4.46668C2.11026 0.666656 0.200012 2.57691 0.200012 4.93332V28.4C0.200012 30.7564 2.11026 32.6667 4.46668 32.6667H40.7333C43.0898 32.6667 45 30.7564 45 28.4V4.93332C45 2.57691 43.0898 0.666656 40.7333 0.666656Z" fill="white"/>
</mask>
<g mask="url(#mask0_3_94)">
<path d="M40.7333 0.666656H4.46668C2.11026 0.666656 0.200012 2.57691 0.200012 4.93332V28.4C0.200012 30.7564 2.11026 32.6667 4.46668 32.6667H40.7333C43.0898 32.6667 45 30.7564 45 28.4V4.93332C45 2.57691 43.0898 0.666656 40.7333 0.666656Z" fill="#2BB428"/>
<path fill-rule="evenodd" clip-rule="evenodd" d="M0.200012 22H45V32.6667H0.200012V22Z" fill="#ED2432"/>
<path fill-rule="evenodd" clip-rule="evenodd" d="M0.200012 0.666656H45V11.3333H0.200012V0.666656Z" fill="#FFCC00"/>
<path fill-rule="evenodd" clip-rule="evenodd" d="M22.6 21.4666L16.9573 24.432L18.0346 18.1493L13.4693 13.7013L19.7776 12.784L22.6 7.06665L25.4224 12.784L31.7306 13.7013L27.1653 18.1493L28.2426 24.4341" fill="white"/>
<path d="M40.7333 1.73334H4.46666C2.69935 1.73334 1.26666 3.16603 1.26666 4.93334V28.4C1.26666 30.1673 2.69935 31.6 4.46666 31.6H40.7333C42.5006 31.6 43.9333 30.1673 43.9333 28.4V4.93334C43.9333 3.16603 42.5006 1.73334 40.7333 1.73334Z" stroke="black" stroke-opacity="0.1" stroke-width="2.13333"/>
</g>
</g>
<defs>
<clipPath id="clip0_3_94">
<rect width="44.8" height="32" fill="white" transform="translate(0.200012 0.666656)"/>
</clipPath>
</defs>
</svg>
