<svg width="45" height="32" viewBox="0 0 45 32" fill="none" xmlns="http://www.w3.org/2000/svg">
<mask id="mask0_3_92" style="mask-type:alpha" maskUnits="userSpaceOnUse" x="0" y="0" width="45" height="32">
<path d="M40.6667 0H4.40001C2.0436 0 0.133347 1.91025 0.133347 4.26667V27.7333C0.133347 30.0898 2.0436 32 4.40001 32H40.6667C43.0231 32 44.9333 30.0898 44.9333 27.7333V4.26667C44.9333 1.91025 43.0231 0 40.6667 0Z" fill="white"/>
</mask>
<g mask="url(#mask0_3_92)">
<path d="M40.6667 0H4.40001C2.0436 0 0.133347 1.91025 0.133347 4.26667V27.7333C0.133347 30.0898 2.0436 32 4.40001 32H40.6667C43.0231 32 44.9333 30.0898 44.9333 27.7333V4.26667C44.9333 1.91025 43.0231 0 40.6667 0Z" fill="#006331"/>
<path fill-rule="evenodd" clip-rule="evenodd" d="M22.5291 15.4666L19.3931 17.1157L19.9904 13.6234L17.456 11.1488L20.9611 10.6432L22.5291 7.46451L24.0949 10.6432L27.6 11.1488L25.0613 13.6234L25.6629 17.1136" fill="#FFC500"/>
<path fill-rule="evenodd" clip-rule="evenodd" d="M32.0587 12.6678C32.1077 13.0603 32.1333 13.4614 32.1333 13.8667C32.1333 19.168 27.8347 23.4667 22.5333 23.4667C17.232 23.4667 12.9333 19.168 12.9333 13.8667C12.9333 13.4614 12.9589 13.0603 13.008 12.6656C13.5989 16.352 17.6373 19.2 22.5333 19.2C27.4293 19.2 31.4677 16.3499 32.0587 12.6656V12.6678Z" fill="#FFC500"/>
<path d="M40.6667 1.06668H4.4C2.63269 1.06668 1.2 2.49937 1.2 4.26668V27.7333C1.2 29.5007 2.63269 30.9333 4.4 30.9333H40.6667C42.434 30.9333 43.8667 29.5007 43.8667 27.7333V4.26668C43.8667 2.49937 42.434 1.06668 40.6667 1.06668Z" stroke="black" stroke-opacity="0.1" stroke-width="2.13333"/>
</g>
</svg>
