<svg width="46" height="32" viewBox="0 0 46 32" fill="none" xmlns="http://www.w3.org/2000/svg">
<g clip-path="url(#clip0_3_89)">
<mask id="mask0_3_89" style="mask-type:alpha" maskUnits="userSpaceOnUse" x="0" y="0" width="46" height="32">
<path d="M41.0667 0H4.79999C2.44358 0 0.533325 1.91025 0.533325 4.26667V27.7333C0.533325 30.0898 2.44358 32 4.79999 32H41.0667C43.4231 32 45.3333 30.0898 45.3333 27.7333V4.26667C45.3333 1.91025 43.4231 0 41.0667 0Z" fill="white"/>
</mask>
<g mask="url(#mask0_3_89)">
<path d="M41.0667 0H4.79999C2.44358 0 0.533325 1.91025 0.533325 4.26667V27.7333C0.533325 30.0898 2.44358 32 4.79999 32H41.0667C43.4231 32 45.3333 30.0898 45.3333 27.7333V4.26667C45.3333 1.91025 43.4231 0 41.0667 0Z" fill="#D4062E"/>
<path fill-rule="evenodd" clip-rule="evenodd" d="M9.06668 8.53336H36.8V23.4667H9.06668V8.53336Z" fill="#007F37"/>
<path fill-rule="evenodd" clip-rule="evenodd" d="M24.2667 21.1627C23.84 21.2757 23.392 21.3333 22.9333 21.3333C19.9893 21.3333 17.6 18.944 17.6 16C17.6 13.056 19.9893 10.6667 22.9333 10.6667C23.3941 10.6667 23.84 10.7243 24.2667 10.8373C22.8864 11.424 21.8667 13.5125 21.8667 16C21.8667 18.4875 22.8864 20.5739 24.2667 21.1627Z" fill="white"/>
<path d="M41.0667 1.06668H4.80001C3.03269 1.06668 1.60001 2.49937 1.60001 4.26668V27.7333C1.60001 29.5007 3.03269 30.9333 4.80001 30.9333H41.0667C42.834 30.9333 44.2667 29.5007 44.2667 27.7333V4.26668C44.2667 2.49937 42.834 1.06668 41.0667 1.06668Z" stroke="black" stroke-opacity="0.1" stroke-width="2.13333"/>
</g>
</g>
<defs>
<clipPath id="clip0_3_89">
<rect width="44.8" height="32" fill="white" transform="translate(0.533325)"/>
</clipPath>
</defs>
</svg>
