<svg width="46" height="32" viewBox="0 0 46 32" fill="none" xmlns="http://www.w3.org/2000/svg">
<g clip-path="url(#clip0_3_87)">
<mask id="mask0_3_87" style="mask-type:alpha" maskUnits="userSpaceOnUse" x="0" y="0" width="46" height="32">
<path d="M41.3333 0H5.06665C2.71024 0 0.799988 1.91025 0.799988 4.26667V27.7333C0.799988 30.0898 2.71024 32 5.06665 32H41.3333C43.6897 32 45.6 30.0898 45.6 27.7333V4.26667C45.6 1.91025 43.6897 0 41.3333 0Z" fill="white"/>
</mask>
<g mask="url(#mask0_3_87)">
<path d="M41.3333 0H5.06665C2.71024 0 0.799988 1.91025 0.799988 4.26667V27.7333C0.799988 30.0898 2.71024 32 5.06665 32H41.3333C43.6897 32 45.6 30.0898 45.6 27.7333V4.26667C45.6 1.91025 43.6897 0 41.3333 0Z" fill="white"/>
<path fill-rule="evenodd" clip-rule="evenodd" d="M28.5333 16C28.5333 13.056 26.144 10.6667 23.2 10.6667C20.256 10.6667 17.8666 13.056 17.8666 16C17.8666 18.944 20.256 21.3333 23.2 21.3333C26.144 21.3333 28.5333 18.944 28.5333 16ZM23.2 19.2C24.9664 19.2 26.4 17.2907 26.4 14.9333C26.4 12.576 24.9664 10.6667 23.2 10.6667C21.4336 10.6667 20 12.576 20 14.9333C20 17.2907 21.4336 19.2 23.2 19.2Z" fill="#406421"/>
<path d="M23.2 17.0667C23.7891 17.0667 24.2666 16.1115 24.2666 14.9333C24.2666 13.7551 23.7891 12.8 23.2 12.8C22.6109 12.8 22.1333 13.7551 22.1333 14.9333C22.1333 16.1115 22.6109 17.0667 23.2 17.0667Z" fill="#D5B852"/>
<path fill-rule="evenodd" clip-rule="evenodd" d="M0.799988 0H15.7333V32H0.799988V0Z" fill="#006946"/>
<path fill-rule="evenodd" clip-rule="evenodd" d="M30.6666 0H45.6V32H30.6666V0Z" fill="#D0091E"/>
<path d="M41.3333 1.06668H5.06664C3.29933 1.06668 1.86664 2.49937 1.86664 4.26668V27.7333C1.86664 29.5007 3.29933 30.9333 5.06664 30.9333H41.3333C43.1006 30.9333 44.5333 29.5007 44.5333 27.7333V4.26668C44.5333 2.49937 43.1006 1.06668 41.3333 1.06668Z" stroke="black" stroke-opacity="0.1" stroke-width="2.13333"/>
</g>
</g>
<defs>
<clipPath id="clip0_3_87">
<rect width="44.8" height="32" fill="white" transform="translate(0.799988)"/>
</clipPath>
</defs>
</svg>
