<svg width="46" height="32" viewBox="0 0 46 32" fill="none" xmlns="http://www.w3.org/2000/svg">
<g clip-path="url(#clip0_3_86)">
<mask id="mask0_3_86" style="mask-type:alpha" maskUnits="userSpaceOnUse" x="0" y="0" width="46" height="32">
<path d="M41.4666 0H5.19995C2.84354 0 0.933289 1.91025 0.933289 4.26667V27.7333C0.933289 30.0898 2.84354 32 5.19995 32H41.4666C43.823 32 45.7333 30.0898 45.7333 27.7333V4.26667C45.7333 1.91025 43.823 0 41.4666 0Z" fill="white"/>
</mask>
<g mask="url(#mask0_3_86)">
<path d="M41.4666 0H5.19995C2.84354 0 0.933289 1.91025 0.933289 4.26667V27.7333C0.933289 30.0898 2.84354 32 5.19995 32H41.4666C43.823 32 45.7333 30.0898 45.7333 27.7333V4.26667C45.7333 1.91025 43.823 0 41.4666 0Z" fill="white"/>
<path fill-rule="evenodd" clip-rule="evenodd" d="M15.8666 0H45.7333V2.13333H15.8666V0ZM15.8666 4.26667H45.7333V6.4H15.8666V4.26667ZM15.8666 8.53333H45.7333V10.6667H15.8666V8.53333ZM15.8666 12.8H45.7333V14.9333H15.8666V12.8ZM0.933289 17.0667H45.7333V19.2H0.933289V17.0667ZM0.933289 21.3333H45.7333V23.4667H0.933289V21.3333ZM0.933289 25.6H45.7333V27.7333H0.933289V25.6Z" fill="#CE0000"/>
<path fill-rule="evenodd" clip-rule="evenodd" d="M0.933289 0H24.4V19.2H0.933289V0Z" fill="#000068"/>
<path fill-rule="evenodd" clip-rule="evenodd" d="M15.8666 8.53336H18V10.6667H15.8666V8.53336Z" fill="#FFCD00"/>
<path fill-rule="evenodd" clip-rule="evenodd" d="M16.9333 12.8C15.9605 14.0949 14.4117 14.9333 12.6666 14.9333C9.72265 14.9333 7.33331 12.544 7.33331 9.6C7.33331 6.656 9.72265 4.26666 12.6666 4.26666C14.4117 4.26666 15.9605 5.10506 16.9333 6.4H13.7333C11.9669 6.4 10.5333 7.8336 10.5333 9.6C10.5333 11.3664 11.9669 12.8 13.7333 12.8H16.9333Z" fill="#FFCD00"/>
<path d="M41.4667 1.06668H5.2C3.43269 1.06668 2 2.49937 2 4.26668V27.7333C2 29.5007 3.43269 30.9333 5.2 30.9333H41.4667C43.234 30.9333 44.6667 29.5007 44.6667 27.7333V4.26668C44.6667 2.49937 43.234 1.06668 41.4667 1.06668Z" stroke="black" stroke-opacity="0.1" stroke-width="2.13333"/>
</g>
</g>
<defs>
<clipPath id="clip0_3_86">
<rect width="44.8" height="32" fill="white" transform="translate(0.933289)"/>
</clipPath>
</defs>
</svg>
