<svg width="45" height="32" viewBox="0 0 45 32" fill="none" xmlns="http://www.w3.org/2000/svg">
<g clip-path="url(#clip0_3_84)">
<mask id="mask0_3_84" style="mask-type:alpha" maskUnits="userSpaceOnUse" x="0" y="0" width="45" height="32">
<path d="M40.7333 0H4.46668C2.11026 0 0.200012 1.91025 0.200012 4.26667V27.7333C0.200012 30.0898 2.11026 32 4.46668 32H40.7333C43.0898 32 45 30.0898 45 27.7333V4.26667C45 1.91025 43.0898 0 40.7333 0Z" fill="white"/>
</mask>
<g mask="url(#mask0_3_84)">
<path d="M40.7333 0H4.46668C2.11026 0 0.200012 1.91025 0.200012 4.26667V27.7333C0.200012 30.0898 2.11026 32 4.46668 32H40.7333C43.0898 32 45 30.0898 45 27.7333V4.26667C45 1.91025 43.0898 0 40.7333 0Z" fill="#003282"/>
<path fill-rule="evenodd" clip-rule="evenodd" d="M0.200012 32H45V4.26666L0.200012 27.7333V32Z" fill="#00963F"/>
<path fill-rule="evenodd" clip-rule="evenodd" d="M9.79572 11.1573L6.65972 12.8064L7.25706 9.31412L4.72266 6.83945L8.22772 6.33385L9.79572 3.15518L11.3616 6.33385L14.8667 6.83945L12.328 9.31412L12.9296 12.8042" fill="#FFE000"/>
<path fill-rule="evenodd" clip-rule="evenodd" d="M0.200012 29.8667L45 6.4V-2.13333L0.200012 21.3333V29.8667Z" fill="white"/>
<path fill-rule="evenodd" clip-rule="evenodd" d="M0.200012 34.1333L45 10.6667V2.13333L0.200012 25.6V34.1333Z" fill="white"/>
<path fill-rule="evenodd" clip-rule="evenodd" d="M0.200012 32L45 8.53333V0L0.200012 23.4667V32Z" fill="#D4062E"/>
<path d="M40.7333 1.06668H4.46666C2.69935 1.06668 1.26666 2.49937 1.26666 4.26668V27.7333C1.26666 29.5007 2.69935 30.9333 4.46666 30.9333H40.7333C42.5006 30.9333 43.9333 29.5007 43.9333 27.7333V4.26668C43.9333 2.49937 42.5006 1.06668 40.7333 1.06668Z" stroke="black" stroke-opacity="0.1" stroke-width="2.13333"/>
</g>
</g>
<defs>
<clipPath id="clip0_3_84">
<rect width="44.8" height="32" fill="white" transform="translate(0.200012)"/>
</clipPath>
</defs>
</svg>
