<svg width="45" height="33" viewBox="0 0 45 33" fill="none" xmlns="http://www.w3.org/2000/svg">
<mask id="mask0_3_83" style="mask-type:alpha" maskUnits="userSpaceOnUse" x="0" y="0" width="45" height="33">
<path d="M40.5333 0.333313H4.26667C1.91025 0.333313 0 2.24356 0 4.59998V28.0666C0 30.4231 1.91025 32.3333 4.26667 32.3333H40.5333C42.8897 32.3333 44.8 30.4231 44.8 28.0666V4.59998C44.8 2.24356 42.8897 0.333313 40.5333 0.333313Z" fill="white"/>
</mask>
<g mask="url(#mask0_3_83)">
<path d="M40.5333 0.333313H4.26667C1.91025 0.333313 0 2.24356 0 4.59998V28.0666C0 30.4231 1.91025 32.3333 4.26667 32.3333H40.5333C42.8897 32.3333 44.8 30.4231 44.8 28.0666V4.59998C44.8 2.24356 42.8897 0.333313 40.5333 0.333313Z" fill="white"/>
<path fill-rule="evenodd" clip-rule="evenodd" d="M0 21.6667H44.8V32.3334H0V21.6667Z" fill="#00B21D"/>
<path fill-rule="evenodd" clip-rule="evenodd" d="M0 0.333313H44.8V11H0V0.333313Z" fill="#E25100"/>
<path d="M22.4 19.5333C24.1673 19.5333 25.6 18.1006 25.6 16.3333C25.6 14.566 24.1673 13.1333 22.4 13.1333C20.6327 13.1333 19.2 14.566 19.2 16.3333C19.2 18.1006 20.6327 19.5333 22.4 19.5333Z" fill="#E25100"/>
<path d="M40.5333 1.39999H4.26667C2.49935 1.39999 1.06667 2.83268 1.06667 4.59999V28.0667C1.06667 29.834 2.49935 31.2667 4.26667 31.2667H40.5333C42.3006 31.2667 43.7333 29.834 43.7333 28.0667V4.59999C43.7333 2.83268 42.3006 1.39999 40.5333 1.39999Z" stroke="black" stroke-opacity="0.1" stroke-width="2.13333"/>
</g>
</svg>
