<svg width="45" height="33" viewBox="0 0 45 33" fill="none" xmlns="http://www.w3.org/2000/svg">
<mask id="mask0_3_82" style="mask-type:alpha" maskUnits="userSpaceOnUse" x="0" y="0" width="45" height="33">
<path d="M40.6667 0.333313H4.40001C2.0436 0.333313 0.133347 2.24356 0.133347 4.59998V28.0666C0.133347 30.4231 2.0436 32.3333 4.40001 32.3333H40.6667C43.0231 32.3333 44.9333 30.4231 44.9333 28.0666V4.59998C44.9333 2.24356 43.0231 0.333313 40.6667 0.333313Z" fill="white"/>
</mask>
<g mask="url(#mask0_3_82)">
<path d="M40.6667 0.333313H4.40001C2.0436 0.333313 0.133347 2.24356 0.133347 4.59998V28.0666C0.133347 30.4231 2.0436 32.3333 4.40001 32.3333H40.6667C43.0231 32.3333 44.9333 30.4231 44.9333 28.0666V4.59998C44.9333 2.24356 43.0231 0.333313 40.6667 0.333313Z" fill="white"/>
<path fill-rule="evenodd" clip-rule="evenodd" d="M0.133347 0.333313H15.0667V32.3333H0.133347V0.333313ZM30 0.333313H44.9333V32.3333H30V0.333313Z" fill="#00884F"/>
<path d="M40.6667 1.39999H4.4C2.63269 1.39999 1.2 2.83268 1.2 4.59999V28.0667C1.2 29.834 2.63269 31.2667 4.4 31.2667H40.6667C42.434 31.2667 43.8667 29.834 43.8667 28.0667V4.59999C43.8667 2.83268 42.434 1.39999 40.6667 1.39999Z" stroke="black" stroke-opacity="0.1" stroke-width="2.13333"/>
</g>
</svg>
