<svg width="46" height="33" viewBox="0 0 46 33" fill="none" xmlns="http://www.w3.org/2000/svg">
<g clip-path="url(#clip0_3_81)">
<mask id="mask0_3_81" style="mask-type:alpha" maskUnits="userSpaceOnUse" x="0" y="0" width="46" height="33">
<path d="M40.8 0.333313H4.53336C2.17694 0.333313 0.266693 2.24356 0.266693 4.59998V28.0666C0.266693 30.4231 2.17694 32.3333 4.53336 32.3333H40.8C43.1564 32.3333 45.0667 30.4231 45.0667 28.0666V4.59998C45.0667 2.24356 43.1564 0.333313 40.8 0.333313Z" fill="white"/>
</mask>
<g mask="url(#mask0_3_81)">
<path d="M40.8 0.333313H4.53336C2.17694 0.333313 0.266693 2.24356 0.266693 4.59998V28.0666C0.266693 30.4231 2.17694 32.3333 4.53336 32.3333H40.8C43.1564 32.3333 45.0667 30.4231 45.0667 28.0666V4.59998C45.0667 2.24356 43.1564 0.333313 40.8 0.333313Z" fill="white"/>
<path fill-rule="evenodd" clip-rule="evenodd" d="M0.266693 21.6666H45.0667V32.3333H0.266693V21.6666ZM0.266693 0.333313H45.0667V11H0.266693V0.333313Z" fill="#0064C9"/>
<path fill-rule="evenodd" clip-rule="evenodd" d="M19.4666 19.5333L22.6666 13.1333L25.8666 19.5333H19.4666Z" fill="#C1DD1E"/>
<path d="M40.8 1.39999H4.53331C2.766 1.39999 1.33331 2.83268 1.33331 4.59999V28.0667C1.33331 29.834 2.766 31.2667 4.53331 31.2667H40.8C42.5673 31.2667 44 29.834 44 28.0667V4.59999C44 2.83268 42.5673 1.39999 40.8 1.39999Z" stroke="black" stroke-opacity="0.1" stroke-width="2.13333"/>
</g>
</g>
<defs>
<clipPath id="clip0_3_81">
<rect width="44.8" height="32" fill="white" transform="translate(0.266693 0.333313)"/>
</clipPath>
</defs>
</svg>
