<svg width="46" height="33" viewBox="0 0 46 33" fill="none" xmlns="http://www.w3.org/2000/svg">
<g clip-path="url(#clip0_3_80)">
<mask id="mask0_3_80" style="mask-type:alpha" maskUnits="userSpaceOnUse" x="0" y="0" width="46" height="33">
<path d="M40.9333 0.333313H4.66666C2.31025 0.333313 0.399994 2.24356 0.399994 4.59998V28.0666C0.399994 30.4231 2.31025 32.3333 4.66666 32.3333H40.9333C43.2897 32.3333 45.2 30.4231 45.2 28.0666V4.59998C45.2 2.24356 43.2897 0.333313 40.9333 0.333313Z" fill="white"/>
</mask>
<g mask="url(#mask0_3_80)">
<path d="M40.9333 0.333313H4.66666C2.31025 0.333313 0.399994 2.24356 0.399994 4.59998V28.0666C0.399994 30.4231 2.31025 32.3333 4.66666 32.3333H40.9333C43.2897 32.3333 45.2 30.4231 45.2 28.0666V4.59998C45.2 2.24356 43.2897 0.333313 40.9333 0.333313Z" fill="white"/>
<path fill-rule="evenodd" clip-rule="evenodd" d="M0.399994 21.6667H45.2V32.3334H0.399994V21.6667Z" fill="#1E448D"/>
<path fill-rule="evenodd" clip-rule="evenodd" d="M0.399994 0.333313H45.2V11H0.399994V0.333313Z" fill="#B01923"/>
<path d="M40.9333 1.39999H4.66668C2.89936 1.39999 1.46667 2.83268 1.46667 4.59999V28.0667C1.46667 29.834 2.89936 31.2667 4.66668 31.2667H40.9333C42.7007 31.2667 44.1333 29.834 44.1333 28.0667V4.59999C44.1333 2.83268 42.7007 1.39999 40.9333 1.39999Z" stroke="black" stroke-opacity="0.1" stroke-width="2.13333"/>
</g>
</g>
<defs>
<clipPath id="clip0_3_80">
<rect width="44.8" height="32" fill="white" transform="translate(0.399994 0.333313)"/>
</clipPath>
</defs>
</svg>
