<svg width="46" height="33" viewBox="0 0 46 33" fill="none" xmlns="http://www.w3.org/2000/svg">
<g clip-path="url(#clip0_3_79)">
<mask id="mask0_3_79" style="mask-type:alpha" maskUnits="userSpaceOnUse" x="0" y="0" width="46" height="33">
<path d="M41.0667 0.333313H4.79999C2.44358 0.333313 0.533325 2.24356 0.533325 4.59998V28.0666C0.533325 30.4231 2.44358 32.3333 4.79999 32.3333H41.0667C43.4231 32.3333 45.3333 30.4231 45.3333 28.0666V4.59998C45.3333 2.24356 43.4231 0.333313 41.0667 0.333313Z" fill="white"/>
</mask>
<g mask="url(#mask0_3_79)">
<path d="M41.0667 0.333313H4.79999C2.44358 0.333313 0.533325 2.24356 0.533325 4.59998V28.0666C0.533325 30.4231 2.44358 32.3333 4.79999 32.3333H41.0667C43.4231 32.3333 45.3333 30.4231 45.3333 28.0666V4.59998C45.3333 2.24356 43.4231 0.333313 41.0667 0.333313Z" fill="#F22722"/>
<path fill-rule="evenodd" clip-rule="evenodd" d="M13.3333 19.5333H0.533325V13.1333H13.3333V0.333313H19.7333V13.1333H45.3333V19.5333H19.7333V32.3333H13.3333V19.5333Z" fill="white"/>
<path fill-rule="evenodd" clip-rule="evenodd" d="M15.4667 17.4H0.533325V15.2666H15.4667V0.333313H17.6V15.2666H45.3333V17.4H17.6V32.3333H15.4667V17.4Z" fill="#00256A"/>
<path d="M41.0667 1.39999H4.80001C3.03269 1.39999 1.60001 2.83268 1.60001 4.59999V28.0667C1.60001 29.834 3.03269 31.2667 4.80001 31.2667H41.0667C42.834 31.2667 44.2667 29.834 44.2667 28.0667V4.59999C44.2667 2.83268 42.834 1.39999 41.0667 1.39999Z" stroke="black" stroke-opacity="0.1" stroke-width="2.13333"/>
</g>
</g>
<defs>
<clipPath id="clip0_3_79">
<rect width="44.8" height="32" fill="white" transform="translate(0.533325 0.333313)"/>
</clipPath>
</defs>
</svg>
