<svg width="29" height="33" viewBox="0 0 29 33" fill="none" xmlns="http://www.w3.org/2000/svg">
<g clip-path="url(#clip0_3_78)">
<mask id="mask0_3_78" style="mask-type:alpha" maskUnits="userSpaceOnUse" x="0" y="0" width="46" height="33">
<path d="M41.2 0.333313H4.93332C2.57691 0.333313 0.666656 2.24356 0.666656 4.59998V28.0666C0.666656 30.4231 2.57691 32.3333 4.93332 32.3333H41.2C43.5564 32.3333 45.4667 30.4231 45.4667 28.0666V4.59998C45.4667 2.24356 43.5564 0.333313 41.2 0.333313Z" fill="white"/>
</mask>
<g mask="url(#mask0_3_78)">
<path fill-rule="evenodd" clip-rule="evenodd" d="M0.666656 0.333313L28.4 17.4H13.4667L28.4 32.3333H0.666656V0.333313Z" fill="#003495"/>
<path fill-rule="evenodd" clip-rule="evenodd" d="M2.79999 4.60001L19.8667 15.2667H7.06665L22 30.2H4.92905C3.75572 30.2 2.79999 29.2272 2.79999 28.0624V4.60001Z" fill="#DF0A37"/>
<path fill-rule="evenodd" clip-rule="evenodd" d="M11.152 11C11.2693 11.1664 11.3333 11.3456 11.3333 11.5333C11.3333 12.4165 9.89975 13.1333 8.13335 13.1333C6.36695 13.1333 4.93335 12.4165 4.93335 11.5333C4.93335 11.3456 4.99735 11.1664 5.11468 11C5.55415 11.3115 6.74028 11.5333 8.13335 11.5333C9.52642 11.5333 10.7147 11.3115 11.152 11Z" fill="white"/>
<path d="M8.13335 28.0667C9.90066 28.0667 11.3333 26.634 11.3333 24.8667C11.3333 23.0994 9.90066 21.6667 8.13335 21.6667C6.36604 21.6667 4.93335 23.0994 4.93335 24.8667C4.93335 26.634 6.36604 28.0667 8.13335 28.0667Z" fill="white"/>
<path d="M4.4256 3.11307C2.93867 2.168 1.73334 2.84 1.73334 4.59574V28.0709C1.73334 29.8352 3.1584 31.2667 4.93974 31.2667H26.2667L11.3333 16.3333H25.2L4.4256 3.11307Z" stroke="black" stroke-opacity="0.1" stroke-width="2.13333"/>
</g>
</g>
<defs>
<clipPath id="clip0_3_78">
<rect width="27.7333" height="32" fill="white" transform="translate(0.666656 0.333313)"/>
</clipPath>
</defs>
</svg>
