<svg width="46" height="33" viewBox="0 0 46 33" fill="none" xmlns="http://www.w3.org/2000/svg">
<g clip-path="url(#clip0_3_77)">
<mask id="mask0_3_77" style="mask-type:alpha" maskUnits="userSpaceOnUse" x="0" y="0" width="46" height="33">
<path d="M41.3333 0.333313H5.06665C2.71024 0.333313 0.799988 2.24356 0.799988 4.59998V28.0666C0.799988 30.4231 2.71024 32.3333 5.06665 32.3333H41.3333C43.6897 32.3333 45.6 30.4231 45.6 28.0666V4.59998C45.6 2.24356 43.6897 0.333313 41.3333 0.333313Z" fill="white"/>
</mask>
<g mask="url(#mask0_3_77)">
<path d="M41.3333 0.333313H5.06665C2.71024 0.333313 0.799988 2.24356 0.799988 4.59998V28.0666C0.799988 30.4231 2.71024 32.3333 5.06665 32.3333H41.3333C43.6897 32.3333 45.6 30.4231 45.6 28.0666V4.59998C45.6 2.24356 43.6897 0.333313 41.3333 0.333313Z" fill="#002781"/>
<path fill-rule="evenodd" clip-rule="evenodd" d="M0.799988 15.2667H45.6V17.4H0.799988V15.2667Z" fill="#FFC700"/>
<path fill-rule="evenodd" clip-rule="evenodd" d="M16.7957 26.424L13.6597 28.073L14.2571 24.5808L11.7227 22.1061L15.2277 21.6005L16.7957 18.4218L18.3616 21.6005L21.8667 22.1061L19.328 24.5808L19.9296 28.0709" fill="white"/>
<path d="M41.3333 1.39999H5.06664C3.29933 1.39999 1.86664 2.83268 1.86664 4.59999V28.0667C1.86664 29.834 3.29933 31.2667 5.06664 31.2667H41.3333C43.1006 31.2667 44.5333 29.834 44.5333 28.0667V4.59999C44.5333 2.83268 43.1006 1.39999 41.3333 1.39999Z" stroke="black" stroke-opacity="0.1" stroke-width="2.13333"/>
</g>
</g>
<defs>
<clipPath id="clip0_3_77">
<rect width="44.8" height="32" fill="white" transform="translate(0.799988 0.333313)"/>
</clipPath>
</defs>
</svg>
