<svg width="46" height="33" viewBox="0 0 46 33" fill="none" xmlns="http://www.w3.org/2000/svg">
<g clip-path="url(#clip0_3_76)">
<mask id="mask0_3_76" style="mask-type:alpha" maskUnits="userSpaceOnUse" x="0" y="0" width="46" height="33">
<path d="M41.4666 0.333313H5.19995C2.84354 0.333313 0.933289 2.24356 0.933289 4.59998V28.0666C0.933289 30.4231 2.84354 32.3333 5.19995 32.3333H41.4666C43.823 32.3333 45.7333 30.4231 45.7333 28.0666V4.59998C45.7333 2.24356 43.823 0.333313 41.4666 0.333313Z" fill="white"/>
</mask>
<g mask="url(#mask0_3_76)">
<path d="M41.4666 0.333313H5.19995C2.84354 0.333313 0.933289 2.24356 0.933289 4.59998V28.0666C0.933289 30.4231 2.84354 32.3333 5.19995 32.3333H41.4666C43.823 32.3333 45.7333 30.4231 45.7333 28.0666V4.59998C45.7333 2.24356 43.823 0.333313 41.4666 0.333313Z" fill="#00008E"/>
<path fill-rule="evenodd" clip-rule="evenodd" d="M32.9334 8.86667V11H35.0667V8.86667H32.9334ZM37.2 13.1333V15.2667H39.3334V13.1333H37.2ZM28.6667 15.2667V17.4H30.8V15.2667H28.6667ZM32.9334 23.8V25.9333H35.0667V23.8H32.9334Z" fill="#FF7F7F"/>
<path d="M20.1333 2.46667H5.19998C4.02178 2.46667 3.06665 3.4218 3.06665 4.60001V15.2667C3.06665 16.4449 4.02178 17.4 5.19998 17.4H20.1333C21.3115 17.4 22.2667 16.4449 22.2667 15.2667V4.60001C22.2667 3.4218 21.3115 2.46667 20.1333 2.46667Z" fill="white"/>
<path fill-rule="evenodd" clip-rule="evenodd" d="M11.6 11H5.20001V8.86667H11.6V4.60001H13.7333V8.86667H20.1333V11H13.7333V15.2667H11.6V11ZM16.9333 13.1333V15.2667H20.1333V13.1333H16.9333ZM16.9333 4.60001V6.73334H20.1333V4.60001H16.9333ZM5.20001 13.1333V15.2667H8.40001V13.1333H5.20001ZM5.20001 4.60001V6.73334H8.40001V4.60001H5.20001Z" fill="#FF0000"/>
<path d="M41.4667 1.39999H5.2C3.43269 1.39999 2 2.83268 2 4.59999V28.0667C2 29.834 3.43269 31.2667 5.2 31.2667H41.4667C43.234 31.2667 44.6667 29.834 44.6667 28.0667V4.59999C44.6667 2.83268 43.234 1.39999 41.4667 1.39999Z" stroke="black" stroke-opacity="0.1" stroke-width="2.13333"/>
</g>
</g>
<defs>
<clipPath id="clip0_3_76">
<rect width="44.8" height="32" fill="white" transform="translate(0.933289 0.333313)"/>
</clipPath>
</defs>
</svg>
