<svg width="45" height="33" viewBox="0 0 45 33" fill="none" xmlns="http://www.w3.org/2000/svg">
<g clip-path="url(#clip0_3_75)">
<mask id="mask0_3_75" style="mask-type:alpha" maskUnits="userSpaceOnUse" x="0" y="0" width="45" height="33">
<path d="M40.6 0.333313H4.33332C1.9769 0.333313 0.0666504 2.24356 0.0666504 4.59998V28.0666C0.0666504 30.4231 1.9769 32.3333 4.33332 32.3333H40.6C42.9564 32.3333 44.8666 30.4231 44.8666 28.0666V4.59998C44.8666 2.24356 42.9564 0.333313 40.6 0.333313Z" fill="white"/>
</mask>
<g mask="url(#mask0_3_75)">
<path d="M40.6 0.333313H4.33332C1.9769 0.333313 0.0666504 2.24356 0.0666504 4.59998V28.0666C0.0666504 30.4231 1.9769 32.3333 4.33332 32.3333H40.6C42.9564 32.3333 44.8666 30.4231 44.8666 28.0666V4.59998C44.8666 2.24356 42.9564 0.333313 40.6 0.333313Z" fill="#DE0F09"/>
<path fill-rule="evenodd" clip-rule="evenodd" d="M12.8667 21.6667H44.8667V32.3334H12.8667V21.6667Z" fill="#008100"/>
<path fill-rule="evenodd" clip-rule="evenodd" d="M12.8667 0.333313H44.8667V11H12.8667V0.333313ZM9.82879 8.65971C9.71146 8.83678 9.57706 9.00105 9.42346 9.15678C8.17119 10.4069 6.14452 10.4069 4.89652 9.15678C3.64639 7.90878 3.64639 5.88211 4.89652 4.63411C5.05012 4.47625 5.21652 4.34185 5.39359 4.22451C4.91359 5.12051 5.30826 6.55411 6.40479 7.64851C7.50132 8.74078 8.93279 9.13758 9.83092 8.65758L9.82879 8.65971Z" fill="white"/>
<path fill-rule="evenodd" clip-rule="evenodd" d="M5.23791 8.65975C5.35525 8.83681 5.48965 9.00108 5.64325 9.15682C6.89551 10.4069 8.92218 10.4069 10.1702 9.15682C11.4203 7.90882 11.4203 5.88215 10.1702 4.63415C10.0166 4.47628 9.85018 4.34188 9.67311 4.22455C10.1531 5.12055 9.75845 6.55415 8.66191 7.64855C7.56538 8.74081 6.13391 9.13761 5.23578 8.65761L5.23791 8.65975Z" fill="white"/>
<path d="M40.6 1.39999H4.3333C2.56599 1.39999 1.1333 2.83268 1.1333 4.59999V28.0667C1.1333 29.834 2.56599 31.2667 4.3333 31.2667H40.6C42.3673 31.2667 43.8 29.834 43.8 28.0667V4.59999C43.8 2.83268 42.3673 1.39999 40.6 1.39999Z" stroke="black" stroke-opacity="0.1" stroke-width="2.13333"/>
</g>
</g>
<defs>
<clipPath id="clip0_3_75">
<rect width="44.8" height="32" fill="white" transform="translate(0.0666504 0.333313)"/>
</clipPath>
</defs>
</svg>
