<svg width="45" height="33" viewBox="0 0 45 33" fill="none" xmlns="http://www.w3.org/2000/svg">
<g clip-path="url(#clip0_3_74)">
<mask id="mask0_3_74" style="mask-type:alpha" maskUnits="userSpaceOnUse" x="0" y="0" width="45" height="33">
<path d="M40.7333 0.333313H4.46668C2.11026 0.333313 0.200012 2.24356 0.200012 4.59998V28.0666C0.200012 30.4231 2.11026 32.3333 4.46668 32.3333H40.7333C43.0898 32.3333 45 30.4231 45 28.0666V4.59998C45 2.24356 43.0898 0.333313 40.7333 0.333313Z" fill="white"/>
</mask>
<g mask="url(#mask0_3_74)">
<path d="M40.7333 0.333313H4.46668C2.11026 0.333313 0.200012 2.24356 0.200012 4.59998V28.0666C0.200012 30.4231 2.11026 32.3333 4.46668 32.3333H40.7333C43.0898 32.3333 45 30.4231 45 28.0666V4.59998C45 2.24356 43.0898 0.333313 40.7333 0.333313Z" fill="white"/>
<path fill-rule="evenodd" clip-rule="evenodd" d="M12.9445 10.9445C12.8037 12.216 12.4027 13.1333 11.9333 13.1333C11.464 13.1333 11.0629 12.216 10.9221 10.9445C9.65067 10.8037 8.73334 10.4027 8.73334 9.93334C8.73334 9.464 9.65067 9.06294 10.9221 8.92214C11.0629 7.65067 11.464 6.73334 11.9333 6.73334C12.4027 6.73334 12.8037 7.65067 12.9445 8.92214C14.216 9.06294 15.1333 9.464 15.1333 9.93334C15.1333 10.4027 14.216 10.8037 12.9445 10.9445Z" fill="#005095"/>
<path fill-rule="evenodd" clip-rule="evenodd" d="M34.2779 25.8779C34.1371 27.1494 33.736 28.0667 33.2667 28.0667C32.7973 28.0667 32.3963 27.1494 32.2555 25.8779C30.984 25.7371 30.0667 25.336 30.0667 24.8667C30.0667 24.3974 30.984 23.9963 32.2555 23.8555C32.3963 22.584 32.7952 21.6667 33.2667 21.6667C33.736 21.6667 34.1371 22.584 34.2779 23.8555C35.5493 23.9963 36.4667 24.3952 36.4667 24.8667C36.4667 25.336 35.5493 25.7371 34.2779 25.8779Z" fill="#D4062E"/>
<path fill-rule="evenodd" clip-rule="evenodd" d="M0.200012 17.4H21.5333V32.3334H0.200012V17.4Z" fill="#005095"/>
<path fill-rule="evenodd" clip-rule="evenodd" d="M21.5333 0.333313H45V17.4H21.5333V0.333313Z" fill="#D4062E"/>
<path d="M40.7333 1.39999H4.46666C2.69935 1.39999 1.26666 2.83268 1.26666 4.59999V28.0667C1.26666 29.834 2.69935 31.2667 4.46666 31.2667H40.7333C42.5006 31.2667 43.9333 29.834 43.9333 28.0667V4.59999C43.9333 2.83268 42.5006 1.39999 40.7333 1.39999Z" stroke="black" stroke-opacity="0.1" stroke-width="2.13333"/>
</g>
</g>
<defs>
<clipPath id="clip0_3_74">
<rect width="44.8" height="32" fill="white" transform="translate(0.200012 0.333313)"/>
</clipPath>
</defs>
</svg>
