<svg width="45" height="33" viewBox="0 0 45 33" fill="none" xmlns="http://www.w3.org/2000/svg">
<mask id="mask0_3_73" style="mask-type:alpha" maskUnits="userSpaceOnUse" x="0" y="0" width="45" height="33">
<path d="M40.5333 0.666687H4.26667C1.91025 0.666687 0 2.57694 0 4.93335V28.4C0 30.7564 1.91025 32.6667 4.26667 32.6667H40.5333C42.8897 32.6667 44.8 30.7564 44.8 28.4V4.93335C44.8 2.57694 42.8897 0.666687 40.5333 0.666687Z" fill="white"/>
</mask>
<g mask="url(#mask0_3_73)">
<path d="M40.5333 0.666687H4.26667C1.91025 0.666687 0 2.57694 0 4.93335V28.4C0 30.7564 1.91025 32.6667 4.26667 32.6667H40.5333C42.8897 32.6667 44.8 30.7564 44.8 28.4V4.93335C44.8 2.57694 42.8897 0.666687 40.5333 0.666687Z" fill="white"/>
<path fill-rule="evenodd" clip-rule="evenodd" d="M0 0.666687H14.9333V32.6667H0V0.666687ZM29.8667 0.666687H44.8V32.6667H29.8667V0.666687Z" fill="#DC0718"/>
<path d="M40.5333 1.73331H4.26667C2.49935 1.73331 1.06667 3.166 1.06667 4.93331V28.4C1.06667 30.1673 2.49935 31.6 4.26667 31.6H40.5333C42.3006 31.6 43.7333 30.1673 43.7333 28.4V4.93331C43.7333 3.166 42.3006 1.73331 40.5333 1.73331Z" stroke="black" stroke-opacity="0.1" stroke-width="2.13333"/>
</g>
</svg>
