<svg width="45" height="33" viewBox="0 0 45 33" fill="none" xmlns="http://www.w3.org/2000/svg">
<mask id="mask0_3_72" style="mask-type:alpha" maskUnits="userSpaceOnUse" x="0" y="0" width="45" height="33">
<path d="M40.6667 0.666687H4.40001C2.0436 0.666687 0.133347 2.57694 0.133347 4.93335V28.4C0.133347 30.7564 2.0436 32.6667 4.40001 32.6667H40.6667C43.0231 32.6667 44.9333 30.7564 44.9333 28.4V4.93335C44.9333 2.57694 43.0231 0.666687 40.6667 0.666687Z" fill="white"/>
</mask>
<g mask="url(#mask0_3_72)">
<path d="M40.6667 0.666687H4.40001C2.0436 0.666687 0.133347 2.57694 0.133347 4.93335V28.4C0.133347 30.7564 2.0436 32.6667 4.40001 32.6667H40.6667C43.0231 32.6667 44.9333 30.7564 44.9333 28.4V4.93335C44.9333 2.57694 43.0231 0.666687 40.6667 0.666687Z" fill="#D0091E"/>
<path fill-rule="evenodd" clip-rule="evenodd" d="M25.7333 7.06668L30 11.3333C30 11.3333 25.7333 9.20002 23.6 11.3333L21.4667 13.4667H27.8667L38.5333 19.8667L34.2667 13.4667H38.5333C38.5333 13.4667 38.5333 11.3333 36.4 9.20002C34.2667 7.06668 32.1333 7.06668 32.1333 7.06668V4.93335L30 7.06668H25.7333Z" fill="#FDD200"/>
<path fill-rule="evenodd" clip-rule="evenodd" d="M0.133347 0.666687L44.9333 32.6667H0.133347V0.666687Z" fill="black"/>
<path d="M11.8667 17.7333C12.4558 17.7333 12.9333 17.2558 12.9333 16.6667C12.9333 16.0776 12.4558 15.6 11.8667 15.6C11.2776 15.6 10.8 16.0776 10.8 16.6667C10.8 17.2558 11.2776 17.7333 11.8667 17.7333Z" fill="white"/>
<path d="M7.59999 22C8.1891 22 8.66666 21.5224 8.66666 20.9333C8.66666 20.3442 8.1891 19.8667 7.59999 19.8667C7.01089 19.8667 6.53333 20.3442 6.53333 20.9333C6.53333 21.5224 7.01089 22 7.59999 22Z" fill="white"/>
<path d="M16.1333 22C16.7224 22 17.2 21.5224 17.2 20.9333C17.2 20.3442 16.7224 19.8667 16.1333 19.8667C15.5442 19.8667 15.0667 20.3442 15.0667 20.9333C15.0667 21.5224 15.5442 22 16.1333 22Z" fill="white"/>
<path d="M11.8667 28.4C12.4558 28.4 12.9333 27.9224 12.9333 27.3333C12.9333 26.7442 12.4558 26.2667 11.8667 26.2667C11.2776 26.2667 10.8 26.7442 10.8 27.3333C10.8 27.9224 11.2776 28.4 11.8667 28.4Z" fill="white"/>
<path d="M14 26.2667C14.5891 26.2667 15.0667 25.7891 15.0667 25.2C15.0667 24.6109 14.5891 24.1333 14 24.1333C13.4109 24.1333 12.9333 24.6109 12.9333 25.2C12.9333 25.7891 13.4109 26.2667 14 26.2667Z" fill="#C7C7C7"/>
<path d="M40.6667 1.73331H4.4C2.63269 1.73331 1.2 3.166 1.2 4.93331V28.4C1.2 30.1673 2.63269 31.6 4.4 31.6H40.6667C42.434 31.6 43.8667 30.1673 43.8667 28.4V4.93331C43.8667 3.166 42.434 1.73331 40.6667 1.73331Z" stroke="black" stroke-opacity="0.1" stroke-width="2.13333"/>
</g>
</svg>
