<svg width="46" height="33" viewBox="0 0 46 33" fill="none" xmlns="http://www.w3.org/2000/svg">
<g clip-path="url(#clip0_3_71)">
<mask id="mask0_3_71" style="mask-type:alpha" maskUnits="userSpaceOnUse" x="0" y="0" width="46" height="33">
<path d="M40.8 0.666687H4.53336C2.17694 0.666687 0.266693 2.57694 0.266693 4.93335V28.4C0.266693 30.7564 2.17694 32.6667 4.53336 32.6667H40.8C43.1564 32.6667 45.0667 30.7564 45.0667 28.4V4.93335C45.0667 2.57694 43.1564 0.666687 40.8 0.666687Z" fill="white"/>
</mask>
<g mask="url(#mask0_3_71)">
<path d="M40.8 0.666687H4.53336C2.17694 0.666687 0.266693 2.57694 0.266693 4.93335V28.4C0.266693 30.7564 2.17694 32.6667 4.53336 32.6667H40.8C43.1564 32.6667 45.0667 30.7564 45.0667 28.4V4.93335C45.0667 2.57694 43.1564 0.666687 40.8 0.666687Z" fill="#D0091E"/>
<path fill-rule="evenodd" clip-rule="evenodd" d="M0.266693 0.666687H45.0667V17.7334H0.266693V0.666687Z" fill="#0033AB"/>
<path fill-rule="evenodd" clip-rule="evenodd" d="M0.266693 0.666687V32.7371L21.6 16.6667L0.266693 0.666687Z" fill="white"/>
<path fill-rule="evenodd" clip-rule="evenodd" d="M9.83466 17.7013C11.6907 17.584 13.0667 17.168 13.0667 16.6667C13.0667 16.1675 11.6907 15.7493 9.83466 15.632C9.71733 13.776 9.30132 12.4 8.79999 12.4C8.30079 12.4 7.88266 13.776 7.76533 15.632C5.90933 15.7493 4.53333 16.1653 4.53333 16.6667C4.53333 17.1659 5.90933 17.584 7.76533 17.7013C7.88053 19.5573 8.29866 20.9333 8.79999 20.9333C9.29919 20.9333 9.71733 19.5573 9.83466 17.7013V17.7013Z" fill="#FDD200"/>
<path d="M16.2667 17.7333C16.8558 17.7333 17.3333 17.2558 17.3333 16.6667C17.3333 16.0776 16.8558 15.6 16.2667 15.6C15.6776 15.6 15.2 16.0776 15.2 16.6667C15.2 17.2558 15.6776 17.7333 16.2667 17.7333Z" fill="#FDD200"/>
<path d="M5.59999 11.3333C6.1891 11.3333 6.66666 10.8558 6.66666 10.2666C6.66666 9.67754 6.1891 9.19998 5.59999 9.19998C5.01089 9.19998 4.53333 9.67754 4.53333 10.2666C4.53333 10.8558 5.01089 11.3333 5.59999 11.3333Z" fill="#FDD200"/>
<path d="M5.59999 24.1333C6.1891 24.1333 6.66666 23.6558 6.66666 23.0667C6.66666 22.4776 6.1891 22 5.59999 22C5.01089 22 4.53333 22.4776 4.53333 23.0667C4.53333 23.6558 5.01089 24.1333 5.59999 24.1333Z" fill="#FDD200"/>
<path d="M40.8 1.73331H4.53331C2.766 1.73331 1.33331 3.166 1.33331 4.93331V28.4C1.33331 30.1673 2.766 31.6 4.53331 31.6H40.8C42.5673 31.6 44 30.1673 44 28.4V4.93331C44 3.166 42.5673 1.73331 40.8 1.73331Z" stroke="black" stroke-opacity="0.1" stroke-width="2.13333"/>
</g>
</g>
<defs>
<clipPath id="clip0_3_71">
<rect width="44.8" height="32" fill="white" transform="translate(0.266693 0.666687)"/>
</clipPath>
</defs>
</svg>
