<svg width="46" height="33" viewBox="0 0 46 33" fill="none" xmlns="http://www.w3.org/2000/svg">
<g clip-path="url(#clip0_3_70)">
<mask id="mask0_3_70" style="mask-type:alpha" maskUnits="userSpaceOnUse" x="0" y="0" width="46" height="33">
<path d="M40.9333 0.666687H4.66666C2.31025 0.666687 0.399994 2.57694 0.399994 4.93335V28.4C0.399994 30.7564 2.31025 32.6667 4.66666 32.6667H40.9333C43.2897 32.6667 45.2 30.7564 45.2 28.4V4.93335C45.2 2.57694 43.2897 0.666687 40.9333 0.666687Z" fill="white"/>
</mask>
<g mask="url(#mask0_3_70)">
<path d="M40.9333 0.666687H4.66666C2.31025 0.666687 0.399994 2.57694 0.399994 4.93335V28.4C0.399994 30.7564 2.31025 32.6667 4.66666 32.6667H40.9333C43.2897 32.6667 45.2 30.7564 45.2 28.4V4.93335C45.2 2.57694 43.2897 0.666687 40.9333 0.666687Z" fill="#00421A"/>
<path fill-rule="evenodd" clip-rule="evenodd" d="M34.4779 13.4112C34.3371 14.6827 33.936 15.6 33.4667 15.6C32.9973 15.6 32.5963 14.6827 32.4555 13.4112C31.184 13.2704 30.2667 12.8694 30.2667 12.4C30.2667 11.9307 31.184 11.5296 32.4555 11.3888C32.5963 10.1174 32.9973 9.20002 33.4667 9.20002C33.936 9.20002 34.3371 10.1174 34.4779 11.3888C35.7493 11.5296 36.6667 11.9307 36.6667 12.4C36.6667 12.8694 35.7493 13.2704 34.4779 13.4112ZM0.399994 0.666687H13.2V32.6667H0.399994V0.666687Z" fill="white"/>
<path fill-rule="evenodd" clip-rule="evenodd" d="M38.736 15.5317C38.7787 15.9051 38.8 16.2827 38.8 16.6667C38.8 21.968 34.5013 26.2667 29.2 26.2667C23.8987 26.2667 19.6 21.968 19.6 16.6667C19.6 11.3653 23.8987 7.06668 29.2 7.06668C29.584 7.06668 29.9616 7.08801 30.3349 7.13068C26.6827 7.62135 23.8667 10.7509 23.8667 14.5333C23.8667 18.6571 27.2096 22 31.3333 22C35.1179 22 38.2453 19.184 38.736 15.5317Z" fill="white"/>
<path d="M40.9333 1.73331H4.66668C2.89936 1.73331 1.46667 3.166 1.46667 4.93331V28.4C1.46667 30.1673 2.89936 31.6 4.66668 31.6H40.9333C42.7007 31.6 44.1333 30.1673 44.1333 28.4V4.93331C44.1333 3.166 42.7007 1.73331 40.9333 1.73331Z" stroke="black" stroke-opacity="0.1" stroke-width="2.13333"/>
</g>
</g>
<defs>
<clipPath id="clip0_3_70">
<rect width="44.8" height="32" fill="white" transform="translate(0.399994 0.666687)"/>
</clipPath>
</defs>
</svg>
