<svg width="46" height="33" viewBox="0 0 46 33" fill="none" xmlns="http://www.w3.org/2000/svg">
<g clip-path="url(#clip0_3_69)">
<mask id="mask0_3_69" style="mask-type:alpha" maskUnits="userSpaceOnUse" x="0" y="0" width="46" height="33">
<path d="M41.0667 0.666687H4.79999C2.44358 0.666687 0.533325 2.57694 0.533325 4.93335V28.4C0.533325 30.7564 2.44358 32.6667 4.79999 32.6667H41.0667C43.4231 32.6667 45.3333 30.7564 45.3333 28.4V4.93335C45.3333 2.57694 43.4231 0.666687 41.0667 0.666687Z" fill="white"/>
</mask>
<g mask="url(#mask0_3_69)">
<path d="M41.0667 0.666687H4.79999C2.44358 0.666687 0.533325 2.57694 0.533325 4.93335V28.4C0.533325 30.7564 2.44358 32.6667 4.79999 32.6667H41.0667C43.4231 32.6667 45.3333 30.7564 45.3333 28.4V4.93335C45.3333 2.57694 43.4231 0.666687 41.0667 0.666687Z" fill="#DF0A37"/>
<path fill-rule="evenodd" clip-rule="evenodd" d="M0.533325 0.666687H45.3333V17.7334H0.533325V0.666687Z" fill="white"/>
<path d="M41.0667 1.73331H4.80001C3.03269 1.73331 1.60001 3.166 1.60001 4.93331V28.4C1.60001 30.1673 3.03269 31.6 4.80001 31.6H41.0667C42.834 31.6 44.2667 30.1673 44.2667 28.4V4.93331C44.2667 3.166 42.834 1.73331 41.0667 1.73331Z" stroke="black" stroke-opacity="0.1" stroke-width="2.13333"/>
</g>
</g>
<defs>
<clipPath id="clip0_3_69">
<rect width="44.8" height="32" fill="white" transform="translate(0.533325 0.666687)"/>
</clipPath>
</defs>
</svg>
