<svg width="46" height="33" viewBox="0 0 46 33" fill="none" xmlns="http://www.w3.org/2000/svg">
<mask id="mask0_3_68" style="mask-type:alpha" maskUnits="userSpaceOnUse" x="0" y="0" width="46" height="33">
<path d="M41.2 0.666687H4.93332C2.57691 0.666687 0.666656 2.57694 0.666656 4.93335V28.4C0.666656 30.7564 2.57691 32.6667 4.93332 32.6667H41.2C43.5564 32.6667 45.4667 30.7564 45.4667 28.4V4.93335C45.4667 2.57694 43.5564 0.666687 41.2 0.666687Z" fill="white"/>
</mask>
<g mask="url(#mask0_3_68)">
<path d="M41.2 0.666687H4.93332C2.57691 0.666687 0.666656 2.57694 0.666656 4.93335V28.4C0.666656 30.7564 2.57691 32.6667 4.93332 32.6667H41.2C43.5564 32.6667 45.4667 30.7564 45.4667 28.4V4.93335C45.4667 2.57694 43.5564 0.666687 41.2 0.666687Z" fill="white"/>
<path fill-rule="evenodd" clip-rule="evenodd" d="M0.666656 22H45.4667V32.6667H0.666656V22Z" fill="#007B3A"/>
<path fill-rule="evenodd" clip-rule="evenodd" d="M0.666656 0.666687H45.4667V11.3334H0.666656V0.666687Z" fill="black"/>
<path fill-rule="evenodd" clip-rule="evenodd" d="M0.666656 0.666687V32.7371L22 16.6667L0.666656 0.666687Z" fill="#D0091E"/>
<path d="M41.2 1.73331H4.93334C3.16603 1.73331 1.73334 3.166 1.73334 4.93331V28.4C1.73334 30.1673 3.16603 31.6 4.93334 31.6H41.2C42.9673 31.6 44.4 30.1673 44.4 28.4V4.93331C44.4 3.166 42.9673 1.73331 41.2 1.73331Z" stroke="black" stroke-opacity="0.1" stroke-width="2.13333"/>
</g>
</svg>
