<svg width="46" height="33" viewBox="0 0 46 33" fill="none" xmlns="http://www.w3.org/2000/svg">
<g clip-path="url(#clip0_3_67)">
<mask id="mask0_3_67" style="mask-type:alpha" maskUnits="userSpaceOnUse" x="0" y="0" width="46" height="33">
<path d="M41.3333 0.666687H5.06665C2.71024 0.666687 0.799988 2.57694 0.799988 4.93335V28.4C0.799988 30.7564 2.71024 32.6667 5.06665 32.6667H41.3333C43.6897 32.6667 45.6 30.7564 45.6 28.4V4.93335C45.6 2.57694 43.6897 0.666687 41.3333 0.666687Z" fill="white"/>
</mask>
<g mask="url(#mask0_3_67)">
<path d="M41.3333 0.666687H5.06665C2.71024 0.666687 0.799988 2.57694 0.799988 4.93335V28.4C0.799988 30.7564 2.71024 32.6667 5.06665 32.6667H41.3333C43.6897 32.6667 45.6 30.7564 45.6 28.4V4.93335C45.6 2.57694 43.6897 0.666687 41.3333 0.666687Z" fill="#FF0000"/>
<path fill-rule="evenodd" clip-rule="evenodd" d="M0.799988 0.666687H15.7333V32.6667H0.799988V0.666687Z" fill="#006700"/>
<path d="M15.7333 22C19.2679 22 22.1333 19.1346 22.1333 15.6C22.1333 12.0654 19.2679 9.19998 15.7333 9.19998C12.1987 9.19998 9.33331 12.0654 9.33331 15.6C9.33331 19.1346 12.1987 22 15.7333 22Z" fill="#FFFF00"/>
<path fill-rule="evenodd" clip-rule="evenodd" d="M20 17.7333V11.3333H11.4667V17.7333C11.4667 18.9109 13.376 19.8667 15.7333 19.8667C18.0907 19.8667 20 18.9109 20 17.7333Z" fill="#FF0000"/>
<path fill-rule="evenodd" clip-rule="evenodd" d="M13.6 13.4667H17.8667V17.7333H13.6V13.4667Z" fill="white"/>
<path fill-rule="evenodd" clip-rule="evenodd" d="M13.6 13.4667H15.7334V15.6H13.6V13.4667ZM15.7334 15.6H17.8667V17.7333H15.7334V15.6Z" fill="#002E9C"/>
<path d="M41.3333 1.73331H5.06664C3.29933 1.73331 1.86664 3.166 1.86664 4.93331V28.4C1.86664 30.1673 3.29933 31.6 5.06664 31.6H41.3333C43.1006 31.6 44.5333 30.1673 44.5333 28.4V4.93331C44.5333 3.166 43.1006 1.73331 41.3333 1.73331Z" stroke="black" stroke-opacity="0.1" stroke-width="2.13333"/>
</g>
</g>
<defs>
<clipPath id="clip0_3_67">
<rect width="44.8" height="32" fill="white" transform="translate(0.799988 0.666687)"/>
</clipPath>
</defs>
</svg>
