<svg width="46" height="33" viewBox="0 0 46 33" fill="none" xmlns="http://www.w3.org/2000/svg">
<g clip-path="url(#clip0_3_66)">
<mask id="mask0_3_66" style="mask-type:alpha" maskUnits="userSpaceOnUse" x="0" y="0" width="46" height="33">
<path d="M41.4666 0.666687H5.19995C2.84354 0.666687 0.933289 2.57694 0.933289 4.93335V28.4C0.933289 30.7564 2.84354 32.6667 5.19995 32.6667H41.4666C43.823 32.6667 45.7333 30.7564 45.7333 28.4V4.93335C45.7333 2.57694 43.823 0.666687 41.4666 0.666687Z" fill="white"/>
</mask>
<g mask="url(#mask0_3_66)">
<path d="M41.4666 0.666687H5.19995C2.84354 0.666687 0.933289 2.57694 0.933289 4.93335V28.4C0.933289 30.7564 2.84354 32.6667 5.19995 32.6667H41.4666C43.823 32.6667 45.7333 30.7564 45.7333 28.4V4.93335C45.7333 2.57694 43.823 0.666687 41.4666 0.666687Z" fill="#44ACD8"/>
<path d="M21.2 26.2667C26.502 26.2667 30.8 21.9686 30.8 16.6667C30.8 11.3647 26.502 7.06668 21.2 7.06668C15.8981 7.06668 11.6 11.3647 11.6 16.6667C11.6 21.9686 15.8981 26.2667 21.2 26.2667Z" fill="#FFE000"/>
<path d="M41.4667 1.73331H5.2C3.43269 1.73331 2 3.166 2 4.93331V28.4C2 30.1673 3.43269 31.6 5.2 31.6H41.4667C43.234 31.6 44.6667 30.1673 44.6667 28.4V4.93331C44.6667 3.166 43.234 1.73331 41.4667 1.73331Z" stroke="black" stroke-opacity="0.1" stroke-width="2.13333"/>
</g>
</g>
<defs>
<clipPath id="clip0_3_66">
<rect width="44.8" height="32" fill="white" transform="translate(0.933289 0.666687)"/>
</clipPath>
</defs>
</svg>
