<svg width="45" height="33" viewBox="0 0 45 33" fill="none" xmlns="http://www.w3.org/2000/svg">
<g clip-path="url(#clip0_3_65)">
<mask id="mask0_3_65" style="mask-type:alpha" maskUnits="userSpaceOnUse" x="0" y="0" width="45" height="33">
<path d="M40.6 0.666687H4.33332C1.9769 0.666687 0.0666504 2.57694 0.0666504 4.93335V28.4C0.0666504 30.7564 1.9769 32.6667 4.33332 32.6667H40.6C42.9564 32.6667 44.8666 30.7564 44.8666 28.4V4.93335C44.8666 2.57694 42.9564 0.666687 40.6 0.666687Z" fill="white"/>
</mask>
<g mask="url(#mask0_3_65)">
<path d="M40.6 0.666687H4.33332C1.9769 0.666687 0.0666504 2.57694 0.0666504 4.93335V28.4C0.0666504 30.7564 1.9769 32.6667 4.33332 32.6667H40.6C42.9564 32.6667 44.8666 30.7564 44.8666 28.4V4.93335C44.8666 2.57694 42.9564 0.666687 40.6 0.666687Z" fill="white"/>
<path fill-rule="evenodd" clip-rule="evenodd" d="M0.0666504 22H44.8666V32.6667H0.0666504V22Z" fill="#0033AB"/>
<path fill-rule="evenodd" clip-rule="evenodd" d="M25.6027 16.0267C25.6453 16.2336 25.6667 16.4469 25.6667 16.6667C25.6667 18.4331 24.2331 19.8667 22.4667 19.8667C20.7003 19.8667 19.2667 18.4331 19.2667 16.6667C19.2667 16.4469 19.288 16.2336 19.3307 16.0267C19.6293 16.9995 20.9179 17.7333 22.4667 17.7333C24.0155 17.7333 25.304 16.9995 25.6027 16.0267Z" fill="#50B275"/>
<path d="M22.4666 15.6C23.0557 15.6 23.5333 15.1224 23.5333 14.5333C23.5333 13.9442 23.0557 13.4667 22.4666 13.4667C21.8775 13.4667 21.4 13.9442 21.4 14.5333C21.4 15.1224 21.8775 15.6 22.4666 15.6Z" fill="#FFE100"/>
<path fill-rule="evenodd" clip-rule="evenodd" d="M0.0666504 0.666687H44.8666V11.3334H0.0666504V0.666687Z" fill="#D7280F"/>
<path d="M40.6 1.73331H4.3333C2.56599 1.73331 1.1333 3.166 1.1333 4.93331V28.4C1.1333 30.1673 2.56599 31.6 4.3333 31.6H40.6C42.3673 31.6 43.8 30.1673 43.8 28.4V4.93331C43.8 3.166 42.3673 1.73331 40.6 1.73331Z" stroke="black" stroke-opacity="0.1" stroke-width="2.13333"/>
</g>
</g>
<defs>
<clipPath id="clip0_3_65">
<rect width="44.8" height="32" fill="white" transform="translate(0.0666504 0.666687)"/>
</clipPath>
</defs>
</svg>
