<svg width="45" height="33" viewBox="0 0 45 33" fill="none" xmlns="http://www.w3.org/2000/svg">
<g clip-path="url(#clip0_3_64)">
<mask id="mask0_3_64" style="mask-type:alpha" maskUnits="userSpaceOnUse" x="0" y="0" width="45" height="33">
<path d="M40.7333 0.666687H4.46668C2.11026 0.666687 0.200012 2.57694 0.200012 4.93335V28.4C0.200012 30.7564 2.11026 32.6667 4.46668 32.6667H40.7333C43.0898 32.6667 45 30.7564 45 28.4V4.93335C45 2.57694 43.0898 0.666687 40.7333 0.666687Z" fill="white"/>
</mask>
<g mask="url(#mask0_3_64)">
<path d="M40.7333 0.666687H4.46668C2.11026 0.666687 0.200012 2.57694 0.200012 4.93335V28.4C0.200012 30.7564 2.11026 32.6667 4.46668 32.6667H40.7333C43.0898 32.6667 45 30.7564 45 28.4V4.93335C45 2.57694 43.0898 0.666687 40.7333 0.666687Z" fill="#8F183C"/>
<path fill-rule="evenodd" clip-rule="evenodd" d="M10.8667 0.666687L17.2667 2.80002L10.8667 4.93335L17.2667 7.06669L10.8667 9.20002L17.2667 11.3334L10.8667 13.4667L17.2667 15.6L10.8667 17.7334L17.2667 19.8667L10.8667 22L17.2667 24.1334L10.8667 26.2667L17.2667 28.4L10.8667 30.5334L17.2667 32.6667H0.200012V0.666687H10.8667Z" fill="white"/>
<path d="M40.7333 1.73331H4.46666C2.69935 1.73331 1.26666 3.166 1.26666 4.93331V28.4C1.26666 30.1673 2.69935 31.6 4.46666 31.6H40.7333C42.5006 31.6 43.9333 30.1673 43.9333 28.4V4.93331C43.9333 3.166 42.5006 1.73331 40.7333 1.73331Z" stroke="black" stroke-opacity="0.1" stroke-width="2.13333"/>
</g>
</g>
<defs>
<clipPath id="clip0_3_64">
<rect width="44.8" height="32" fill="white" transform="translate(0.200012 0.666687)"/>
</clipPath>
</defs>
</svg>
