<svg width="45" height="32" viewBox="0 0 45 32" fill="none" xmlns="http://www.w3.org/2000/svg">
<mask id="mask0_3_55" style="mask-type:alpha" maskUnits="userSpaceOnUse" x="0" y="0" width="45" height="32">
<path d="M40.5333 0H4.26667C1.91025 0 0 1.91025 0 4.26667V27.7333C0 30.0898 1.91025 32 4.26667 32H40.5333C42.8897 32 44.8 30.0898 44.8 27.7333V4.26667C44.8 1.91025 42.8897 0 40.5333 0Z" fill="white"/>
</mask>
<g mask="url(#mask0_3_55)">
<path d="M40.5333 0H4.26667C1.91025 0 0 1.91025 0 4.26667V27.7333C0 30.0898 1.91025 32 4.26667 32H40.5333C42.8897 32 44.8 30.0898 44.8 27.7333V4.26667C44.8 1.91025 42.8897 0 40.5333 0Z" fill="#FDD200"/>
<path fill-rule="evenodd" clip-rule="evenodd" d="M0 0H14.9333V32H0V0Z" fill="#002781"/>
<path fill-rule="evenodd" clip-rule="evenodd" d="M29.8667 0H44.8V32H29.8667V0Z" fill="#D0091E"/>
<path d="M40.5333 1.06668H4.26667C2.49935 1.06668 1.06667 2.49937 1.06667 4.26668V27.7333C1.06667 29.5007 2.49935 30.9333 4.26667 30.9333H40.5333C42.3006 30.9333 43.7333 29.5007 43.7333 27.7333V4.26668C43.7333 2.49937 42.3006 1.06668 40.5333 1.06668Z" stroke="black" stroke-opacity="0.1" stroke-width="2.13333"/>
</g>
</svg>
