<svg width="45" height="32" viewBox="0 0 45 32" fill="none" xmlns="http://www.w3.org/2000/svg">
<mask id="mask0_3_54" style="mask-type:alpha" maskUnits="userSpaceOnUse" x="0" y="0" width="45" height="32">
<path d="M40.6667 0H4.40001C2.0436 0 0.133347 1.91025 0.133347 4.26667V27.7333C0.133347 30.0898 2.0436 32 4.40001 32H40.6667C43.0231 32 44.9333 30.0898 44.9333 27.7333V4.26667C44.9333 1.91025 43.0231 0 40.6667 0Z" fill="white"/>
</mask>
<g mask="url(#mask0_3_54)">
<path d="M40.6667 0H4.40001C2.0436 0 0.133347 1.91025 0.133347 4.26667V27.7333C0.133347 30.0898 2.0436 32 4.40001 32H40.6667C43.0231 32 44.9333 30.0898 44.9333 27.7333V4.26667C44.9333 1.91025 43.0231 0 40.6667 0Z" fill="#0A4981"/>
<path fill-rule="evenodd" clip-rule="evenodd" d="M0.133347 21.3334H44.9333V32H0.133347V21.3334Z" fill="white"/>
<path fill-rule="evenodd" clip-rule="evenodd" d="M0.133347 0H44.9333V10.6667H0.133347V0ZM17.2 21.3333V10.6667H8.66668V21.3333C8.66668 23.6907 10.576 25.6 12.9333 25.6C15.2907 25.6 17.2 23.6907 17.2 21.3333Z" fill="#CD3E44"/>
<path fill-rule="evenodd" clip-rule="evenodd" d="M10.8 10.6667L8.66667 8.53336C8.66667 8.53336 10.8 6.40002 12.9333 6.40002C15.0667 6.40002 17.2 8.53336 17.2 8.53336L15.0667 10.6667H10.8Z" fill="#ECBE34"/>
<path fill-rule="evenodd" clip-rule="evenodd" d="M10.8 12.8L8.66667 14.9333L12.9333 17.0667L10.8 21.3333L12.9333 25.6L15.0667 21.3333L12.9333 17.0667L17.2 14.9333L15.0667 12.8L12.9333 14.9333L10.8 12.8Z" fill="white"/>
<path fill-rule="evenodd" clip-rule="evenodd" d="M10.8 12.8H8.66667V14.9333L10.8 12.8ZM15.0667 12.8H17.2V14.9333L15.0667 12.8Z" fill="#ECBE34"/>
<path fill-rule="evenodd" clip-rule="evenodd" d="M12.9333 6.40002L10.8 8.53336L12.9333 10.6667L15.0667 8.53336L12.9333 6.40002Z" fill="#A75835"/>
<path fill-rule="evenodd" clip-rule="evenodd" d="M12.9333 17.0667L8.66667 19.2H17.2L12.9333 17.0667Z" fill="#88605F"/>
<path d="M40.6667 1.06668H4.4C2.63269 1.06668 1.2 2.49937 1.2 4.26668V27.7333C1.2 29.5007 2.63269 30.9333 4.4 30.9333H40.6667C42.434 30.9333 43.8667 29.5007 43.8667 27.7333V4.26668C43.8667 2.49937 42.434 1.06668 40.6667 1.06668Z" stroke="black" stroke-opacity="0.1" stroke-width="2.13333"/>
</g>
</svg>
