<svg width="46" height="32" viewBox="0 0 46 32" fill="none" xmlns="http://www.w3.org/2000/svg">
<g clip-path="url(#clip0_3_52)">
<mask id="mask0_3_52" style="mask-type:alpha" maskUnits="userSpaceOnUse" x="0" y="0" width="46" height="32">
<path d="M40.9333 0H4.66666C2.31025 0 0.399994 1.91025 0.399994 4.26667V27.7333C0.399994 30.0898 2.31025 32 4.66666 32H40.9333C43.2897 32 45.2 30.0898 45.2 27.7333V4.26667C45.2 1.91025 43.2897 0 40.9333 0Z" fill="white"/>
</mask>
<g mask="url(#mask0_3_52)">
<path d="M40.9333 0H4.66666C2.31025 0 0.399994 1.91025 0.399994 4.26667V27.7333C0.399994 30.0898 2.31025 32 4.66666 32H40.9333C43.2897 32 45.2 30.0898 45.2 27.7333V4.26667C45.2 1.91025 43.2897 0 40.9333 0Z" fill="#FBD400"/>
<path fill-rule="evenodd" clip-rule="evenodd" d="M0.399994 23.4667H45.2V32H0.399994V23.4667Z" fill="#1D613C"/>
<path fill-rule="evenodd" clip-rule="evenodd" d="M0.399994 0H45.2V14.9333H0.399994V0Z" fill="#00A0E1"/>
<path fill-rule="evenodd" clip-rule="evenodd" d="M36.6112 8.47786C37.8827 8.33706 38.8 7.936 38.8 7.46666C38.8 6.99733 37.8827 6.59626 36.6112 6.45546C36.4704 5.184 36.0694 4.26666 35.6 4.26666C35.1307 4.26666 34.7296 5.184 34.5888 6.45546C33.3174 6.59626 32.4 6.99733 32.4 7.46666C32.4 7.936 33.3174 8.33706 34.5888 8.47786C34.7296 9.74933 35.1307 10.6667 35.6 10.6667C36.0694 10.6667 36.4704 9.74933 36.6112 8.47786Z" fill="#FBD400"/>
<path d="M40.9333 1.06668H4.66668C2.89936 1.06668 1.46667 2.49937 1.46667 4.26668V27.7333C1.46667 29.5007 2.89936 30.9333 4.66668 30.9333H40.9333C42.7007 30.9333 44.1333 29.5007 44.1333 27.7333V4.26668C44.1333 2.49937 42.7007 1.06668 40.9333 1.06668Z" stroke="black" stroke-opacity="0.1" stroke-width="2.13333"/>
</g>
</g>
<defs>
<clipPath id="clip0_3_52">
<rect width="44.8" height="32" fill="white" transform="translate(0.399994)"/>
</clipPath>
</defs>
</svg>
