<svg width="46" height="32" viewBox="0 0 46 32" fill="none" xmlns="http://www.w3.org/2000/svg">
<g clip-path="url(#clip0_3_51)">
<mask id="mask0_3_51" style="mask-type:alpha" maskUnits="userSpaceOnUse" x="0" y="0" width="46" height="32">
<path d="M41.0667 0H4.79999C2.44358 0 0.533325 1.91025 0.533325 4.26667V27.7333C0.533325 30.0898 2.44358 32 4.79999 32H41.0667C43.4231 32 45.3333 30.0898 45.3333 27.7333V4.26667C45.3333 1.91025 43.4231 0 41.0667 0Z" fill="white"/>
</mask>
<g mask="url(#mask0_3_51)">
<path d="M41.0667 0H4.79999C2.44358 0 0.533325 1.91025 0.533325 4.26667V27.7333C0.533325 30.0898 2.44358 32 4.79999 32H41.0667C43.4231 32 45.3333 30.0898 45.3333 27.7333V4.26667C45.3333 1.91025 43.4231 0 41.0667 0Z" fill="#00773C"/>
<path fill-rule="evenodd" clip-rule="evenodd" d="M34.6667 21.3334V19.2H11.2L15.4667 21.3334H28.2667C28.2667 22.511 29.7003 23.4667 31.4667 23.4667C33.2331 23.4667 34.6667 22.511 34.6667 21.3334ZM19.1574 8.33282C19.1318 8.33282 19.0934 8.34563 19.0443 8.37549C18.9291 8.45229 18.703 8.68909 18.6944 8.96216C18.688 9.11789 18.6582 9.11789 18.7584 9.21816C18.831 9.32056 18.9078 9.31203 19.0528 9.23309C19.1382 9.16909 19.1659 9.13282 19.1958 9.02829C19.2299 8.85762 19.0102 9.11362 18.9824 8.91736C18.9334 8.73816 19.0742 8.66136 19.2064 8.49069C19.2107 8.40536 19.2107 8.34136 19.1574 8.33709V8.33282ZM21.2971 8.34349C21.2544 8.35202 21.2054 8.40749 21.135 8.53123C21.0859 8.66349 20.8704 8.86402 21.0283 9.27789C21.152 9.54029 21.2054 9.96483 21.1478 10.4406C21.0582 10.575 21.0411 10.6219 20.9238 10.7563C20.7616 10.9334 20.5824 10.8886 20.4502 10.8203C20.3222 10.735 20.224 10.6923 20.1664 10.4235C20.1771 9.99683 20.2027 9.28856 20.1238 9.13922C20.0086 8.90882 19.8166 8.98989 19.7355 9.06029C19.3451 9.42296 19.151 10.0267 19.0315 10.511C18.9248 10.8608 18.8075 10.7584 18.7264 10.6176C18.528 10.4299 18.5131 8.97496 18.2742 9.21603C17.8902 10.3126 18.4939 11.5136 18.9142 11.3963C19.2128 11.5243 19.4048 10.9483 19.5286 10.319C19.6139 10.1419 19.6779 10.1206 19.7206 10.2123C19.7099 11.0486 19.7846 11.2363 19.9979 11.488C20.4758 11.8592 20.8726 11.535 20.9046 11.5051L21.2779 11.1339C21.3632 11.0486 21.4699 11.04 21.5872 11.1168C21.7024 11.2235 21.6875 11.4006 21.9286 11.5222C22.1376 11.6075 22.575 11.5435 22.6752 11.3664C22.8139 11.1318 22.8459 11.0507 22.9099 10.9611C23.008 10.8331 23.1766 10.8907 23.1766 10.9312C23.1616 11.0059 23.0635 11.0806 23.1296 11.2086C23.247 11.2939 23.2747 11.2384 23.343 11.2192C23.5862 11.104 23.7696 10.575 23.7696 10.575C23.7803 10.3787 23.6694 10.3936 23.599 10.4342C23.503 10.4918 23.4987 10.511 23.407 10.5686C23.2854 10.5856 23.055 10.6646 22.9419 10.4875C22.8246 10.2742 22.8246 9.97976 22.735 9.76216C22.735 9.74936 22.5792 9.42722 22.7222 9.40802C22.7926 9.42082 22.9504 9.46136 22.9739 9.33123C23.0507 9.20323 22.8096 8.84056 22.6454 8.66136C22.5046 8.50562 22.3083 8.48643 22.1184 8.64429C21.984 8.76803 22.0054 8.90456 21.9776 9.03469C21.9456 9.18403 21.952 9.36963 22.1056 9.56803C22.2379 9.82829 22.479 10.1654 22.3979 10.639C22.3979 10.639 22.2592 10.8651 22.0139 10.8352C21.9072 10.8139 21.7408 10.7712 21.6512 10.1099C21.5872 9.61282 21.6683 8.91522 21.4592 8.58882C21.4102 8.46722 21.3696 8.34776 21.3014 8.35416L21.2971 8.34349ZM20.6187 8.39896C20.5547 8.40536 20.4843 8.48002 20.4267 8.62296C20.3776 8.73389 20.3158 9.30562 20.3264 9.30562C20.2838 9.47629 20.5035 9.54883 20.6038 9.33123C20.7531 8.92589 20.7531 8.75522 20.7616 8.58882C20.7403 8.46082 20.6827 8.39682 20.6187 8.40109V8.39896ZM23.1211 8.44162C23.0571 8.45016 23.0038 8.48856 22.9846 8.58669C22.9568 8.81283 22.9718 8.93869 23.0102 9.12856C23.0379 9.25656 23.2235 9.46562 23.3131 9.58936C23.7462 10.1718 24.1664 10.7563 24.5675 11.36C24.6315 11.8123 24.6742 12.2518 24.7062 12.6912C24.7744 13.6512 24.7915 14.8459 24.7339 15.8592C24.9131 15.8656 25.2032 15.567 25.3035 15.1339C25.3675 14.528 25.2822 13.2992 25.2736 12.9408L25.2523 12.4331C25.7216 13.2011 26.1739 14.0118 26.6176 14.8992C26.7819 14.8224 26.7456 13.9072 26.6518 13.7792C26.2934 13.0112 25.7984 12.2518 25.6427 11.9595C25.5851 11.8528 25.391 11.5606 25.1627 11.2214C25.12 10.735 25.0731 10.3254 25.0432 10.2016C24.9686 9.68963 25.2523 10.2592 25.2139 9.96269C25.12 9.45069 24.8384 9.10509 24.5056 8.63576C24.399 8.48642 24.399 8.45229 24.2347 8.67416C24.1387 8.89816 24.1387 9.08589 24.1707 9.26083C24.1238 9.19683 24.0704 9.12429 23.9936 9.03042L23.4496 8.56963C23.375 8.51629 23.2299 8.43522 23.1211 8.44162V8.44162ZM30.5366 8.52056C30.5046 8.51629 30.4726 8.53122 30.4299 8.58882C30.3552 8.65282 30.2763 8.77442 30.2806 8.93016C30.2955 9.19682 30.3446 9.47202 30.3616 9.74082L30.383 9.84749C30.3531 9.81336 30.3275 9.78349 30.3126 9.77069C29.7856 9.21602 30.5536 9.67682 30.2102 9.25229C29.9222 8.93229 29.8368 8.83416 29.5915 8.64216C29.4635 8.56536 29.391 8.41176 29.3504 8.67203C29.3334 8.90029 29.3163 9.16696 29.3291 9.35896C29.3291 9.46563 29.4422 9.66829 29.5382 9.78562C29.888 10.2187 30.2464 10.6774 30.6048 11.1552C30.6816 12.1302 30.7008 13.024 30.7755 14.0011C30.767 14.4192 30.639 14.9739 30.5195 15.0251C30.5195 15.0251 30.3318 15.1318 30.208 15.0144C30.1163 14.9782 29.7558 14.4107 29.7558 14.4107C29.5702 14.24 29.4464 14.2891 29.3163 14.4107C28.9536 14.7606 28.7872 15.4176 28.5419 15.8699C28.4779 15.9702 28.3008 16.0576 28.1024 15.8614C27.5968 15.1702 27.8891 14.1867 27.8294 14.4406C27.3814 14.9483 27.5776 15.7888 27.68 15.9702C27.8294 16.2688 27.9488 16.4608 28.2347 16.6038C28.5014 16.7958 28.704 16.6784 28.8192 16.5398C29.0838 16.2667 29.088 15.5648 29.2118 15.4262C29.2971 15.1702 29.5168 15.2128 29.6235 15.328C29.7302 15.4774 29.8496 15.5734 30.0011 15.6544C30.2486 15.872 30.543 15.9104 30.8331 15.712C31.0315 15.6011 31.1616 15.456 31.2768 15.1702C31.4048 14.8374 31.3408 13.088 31.3131 12.1152L31.8678 12.9174C31.9446 13.7707 31.9808 14.6134 31.9531 15.4198C31.936 15.5798 32.5142 14.9419 32.5078 14.639C32.5078 14.3766 32.512 14.1355 32.5078 13.9136C32.7915 14.3616 33.0624 14.816 33.3184 15.279C33.4784 15.1936 33.4251 14.2912 33.3248 14.1696C33.056 13.7174 32.7104 13.231 32.4438 12.8512C32.3904 12.3755 32.32 11.8144 32.2859 11.6416C32.2368 11.3728 32.1856 10.9696 32.1088 10.6518C32.0875 10.5302 32.0235 10.1334 32.0448 10.0971C32.0747 10.0054 32.1942 10.0971 32.2518 9.99469C32.3371 9.89869 31.9488 8.88536 31.7504 8.59949C31.68 8.47149 31.5499 8.51416 31.392 8.72749C31.2427 8.86403 31.2982 9.17976 31.3536 9.48056C31.4987 10.2486 31.631 11.0251 31.7334 11.8059C31.5414 11.5179 31.3067 11.1723 31.0763 10.8416L31.0464 10.6923C31.0464 10.6752 31.0166 10.063 30.9888 9.91789C30.9824 9.85816 30.9675 9.84109 31.0315 9.84963C31.0955 9.90509 31.104 9.90722 31.1446 9.92642C31.2128 9.93496 31.2726 9.82403 31.2299 9.71949L30.6112 8.58029C30.5899 8.55256 30.56 8.52696 30.5259 8.52269L30.5366 8.52056ZM11.4006 8.54189C11.2832 8.53763 11.1595 8.60589 11.2086 8.74456C11.1787 8.81922 11.4304 9.07096 11.4752 9.20962C11.5115 9.30989 11.4326 9.62562 11.5179 9.65762C11.5926 9.68962 11.6971 9.43576 11.7355 9.20323C11.7568 9.07523 11.7419 8.63576 11.4432 8.54616C11.4283 8.54189 11.4134 8.54189 11.3963 8.53976L11.4006 8.54189ZM33.2032 8.54189C33.1755 8.54616 33.1435 8.58456 33.0966 8.69122C32.9792 8.88322 32.9387 9.22456 32.9856 9.52323C33.263 11.4219 33.4763 13.2608 33.519 14.9419C33.4934 15.104 33.4848 15.1894 33.4123 15.3899C33.2459 15.6032 33.0624 15.8678 32.8896 15.9958C32.719 16.1238 32.352 16.2475 32.2326 16.3414C31.8486 16.559 31.8486 16.8107 32.1558 16.8214C32.6848 16.7574 33.312 16.7147 33.743 16.064C33.8582 15.8827 33.9947 15.3878 33.999 15.0827C34.0416 13.312 33.9776 11.5734 33.711 10.2912C33.6939 10.1632 33.6384 9.87949 33.6598 9.84322C33.6918 9.75362 33.8646 9.84963 33.9264 9.74936C34.0182 9.65549 33.4784 8.96643 33.2907 8.67203C33.2523 8.59949 33.2267 8.53763 33.1968 8.54403L33.2032 8.54189ZM27.6502 8.57176C27.6288 8.57603 27.599 8.61016 27.5392 8.68909C27.3899 9.17122 27.3387 9.56376 27.3963 9.86669C27.7803 11.8507 28.1643 13.6534 28.1046 15.5414C28.2838 15.5414 28.4928 15.1296 28.5824 14.72C28.6315 14.1547 28.5483 13.8112 28.5355 13.4827C28.5206 13.1499 28.16 10.4619 28.0875 10.2123C27.9979 9.73869 28.4374 10.1483 28.3904 9.87523C28.2368 9.52536 27.8571 9.02189 27.7419 8.71682C27.6992 8.63576 27.6907 8.56109 27.6566 8.56749L27.6502 8.57176ZM14.1376 8.61016C14.095 8.61869 14.0459 8.65709 14.031 8.71682C14.0203 8.75949 14.048 8.82989 14.0096 8.85123C13.9883 8.87256 13.9072 8.85762 13.9115 8.74456C13.9115 8.70616 13.8838 8.66776 13.8688 8.64429C13.8518 8.63576 13.8411 8.63362 13.8112 8.63362C13.775 8.63362 13.775 8.64429 13.7558 8.67629C13.7472 8.70616 13.7344 8.73603 13.7344 8.77016C13.7302 8.81283 13.7131 8.82349 13.6854 8.82989C13.6512 8.82989 13.6576 8.83416 13.632 8.81496C13.6107 8.80002 13.5936 8.79362 13.5936 8.76376C13.5936 8.73176 13.5851 8.67842 13.5766 8.66136C13.5616 8.64002 13.5382 8.63149 13.5126 8.62509C13.3718 8.62509 13.3632 8.79149 13.3696 8.85123C13.359 8.86403 13.3547 9.14989 13.5467 9.23096C13.8027 9.35469 14.2891 9.30136 14.272 8.88536C14.272 8.84909 14.2614 8.72536 14.2571 8.69336C14.2315 8.62936 14.1824 8.60803 14.1355 8.61443L14.1376 8.61016ZM17.6064 8.61443C17.5168 8.61869 17.4358 8.64429 17.3718 8.67842C17.2011 8.84269 17.1584 9.10509 17.295 9.26936C17.423 9.33336 17.5574 9.46136 17.4699 9.53602C17.0987 9.93069 16.1323 10.5942 16.0832 10.7158V10.7286H16.0918V10.7328C16.1408 10.7648 16.7467 10.7648 16.8128 10.7328H16.8171C17.0262 10.6539 18.0118 9.52749 18.0118 9.52749C17.9606 9.48483 17.9136 9.45069 17.8624 9.40589C17.807 9.35896 17.8134 9.31202 17.8624 9.26509C18.1056 9.12429 18.0288 8.81069 17.9008 8.66776C17.7942 8.62083 17.696 8.60376 17.6064 8.61016V8.61443ZM26.6731 8.61443C26.6475 8.62083 26.6155 8.65709 26.5664 8.76376C26.4491 8.95576 26.3702 9.28643 26.3808 9.59576C26.6326 11.3451 26.7094 12.8747 26.8758 14.624C26.8886 14.7947 26.863 15.0379 26.752 15.136C26.3339 15.5712 25.7344 16.1046 25.0816 16.352C25.0112 16.431 25.2566 16.7659 25.5723 16.7659C26.1014 16.7019 26.5664 16.4075 27.0016 15.6246C27.1147 15.4432 27.3174 15.0528 27.3216 14.7499C27.3643 12.975 27.2363 11.5926 26.9675 10.3126C26.9526 10.1846 26.9632 10.0352 26.9846 10.0011C27.0187 9.95843 27.1339 10.0011 27.1979 9.90082C27.2875 9.80696 26.9547 9.04109 26.767 8.74882C26.7286 8.67416 26.7072 8.61443 26.6731 8.61656V8.61443ZM12.6272 8.67203C12.5547 8.68056 12.4864 8.73603 12.4523 8.82136C12.4416 9.09869 12.4395 9.37603 12.4736 9.63629C12.6016 10.0907 12.6379 10.4896 12.6998 10.9526C12.7211 11.5755 12.3414 11.2214 12.3584 10.9142C12.4438 10.5131 12.4224 9.88376 12.3456 9.72376C12.2816 9.56376 12.2134 9.52536 12.064 9.55309C11.9467 9.54456 11.6416 9.87309 11.5563 10.4278C11.5563 10.4278 11.4838 10.7094 11.4539 10.9611C11.4112 11.2448 11.2235 11.4475 11.0912 10.9227C10.9782 10.5387 10.9099 9.60003 10.72 9.81763C10.6646 10.5515 10.6006 11.8443 11.2235 11.9766C11.9787 12.0491 11.5606 10.7008 11.8336 10.4555C11.887 10.3382 11.983 10.336 11.9894 10.4875V11.6331C11.9808 12.0043 12.224 12.1152 12.416 12.192C12.6144 12.1771 12.7446 12.1835 12.8214 12.3755L12.9174 14.3595C12.9174 14.3595 13.3739 14.4875 13.3952 13.2438C13.4166 12.512 13.2459 11.8998 13.3462 11.7568C13.3504 11.616 13.5296 11.6075 13.6534 11.6779C13.8518 11.8166 13.9392 11.9872 14.2464 11.919C14.7158 11.791 14.9931 11.5648 14.9995 11.2064C14.9782 10.8651 14.9355 10.5238 14.7862 10.1824C14.8075 10.1227 14.7008 9.96269 14.7222 9.90082C14.8032 10.0288 14.9312 10.0203 14.9568 9.90082C14.88 9.63842 14.7563 9.38882 14.5558 9.28216C14.3915 9.13282 14.1504 9.16483 14.0608 9.46776C14.0182 9.81763 14.1888 10.2315 14.4448 10.5707C14.496 10.703 14.5728 10.9227 14.5387 11.1211C14.4043 11.1979 14.2699 11.1638 14.1547 11.0464C14.1547 11.0464 13.7856 10.7691 13.7856 10.7051C13.8859 10.0758 13.807 10.0011 13.7536 9.83042C13.7152 9.58722 13.6 9.51043 13.5083 9.34403C13.4144 9.24376 13.2886 9.24376 13.231 9.34403C13.0646 9.62776 13.1414 10.24 13.2608 10.511C13.3462 10.7627 13.4784 10.9206 13.4166 10.9206C13.3654 11.0592 13.2587 11.0272 13.1819 10.863C13.0752 10.5216 13.0496 10.0182 13.0496 9.78989C13.0176 9.50829 12.9814 8.90456 12.7936 8.75096C12.7446 8.68269 12.687 8.65922 12.6294 8.66562L12.6272 8.67203ZM15.2768 8.67203C15.2406 8.68056 15.1979 8.70189 15.1488 8.71469C14.9888 8.76376 14.8395 8.90242 14.8864 9.17122C15.0784 10.3232 15.2 11.2043 15.3899 12.3563C15.4176 12.4928 15.3046 12.6699 15.1595 12.655C14.912 12.4843 14.8502 12.143 14.4278 12.16C14.1206 12.16 13.7707 12.4971 13.728 12.8171C13.6768 13.0731 13.6598 13.3504 13.728 13.5723C13.9414 13.8283 14.2016 13.8027 14.4278 13.743C14.6134 13.6683 14.7691 13.487 14.8331 13.5296C14.8758 13.6 14.8288 14.1995 13.9584 14.6603C13.4208 14.9035 12.9942 14.959 12.7638 14.5238C12.623 14.2507 12.7766 13.2096 12.4267 13.4486C11.3899 16.1195 14.8523 16.4907 15.2384 13.5595C15.264 13.4742 15.3387 13.3931 15.3942 13.4144C15.4155 13.4251 15.4368 13.4571 15.4454 13.5168C15.3643 16.1707 12.7659 16.3542 12.3264 15.5179C12.2155 15.3216 12.1835 14.8822 12.1728 14.6219C12.1515 14.4619 12.1131 14.3702 12.0662 14.3339C11.9595 14.255 11.8187 14.4619 11.7888 14.8182C11.7462 15.1062 11.7568 15.1851 11.7568 15.4624C11.8976 17.5595 15.2406 16.6571 15.7846 14.9291C16.0534 14.0331 15.7782 13.3568 15.8699 13.2736L15.8763 13.2694H15.8827L15.8934 13.2651C16.2262 13.6235 16.6912 13.3078 16.7936 13.1862C16.8363 13.1222 16.9472 13.0795 17.024 13.1648C17.28 13.3483 17.7366 13.2608 17.8304 12.9302C17.8859 12.6102 17.9328 12.2816 17.9435 11.9382C17.7728 11.9915 17.6363 12.0299 17.5808 12.0875C17.568 12.1024 17.5595 12.1195 17.5552 12.1366L17.5126 12.4203C17.5126 12.431 17.5083 12.4374 17.504 12.4416C17.4976 12.4566 17.4827 12.4672 17.4742 12.4736C17.4144 12.5056 17.3099 12.4886 17.3035 12.4011C17.2246 12.0384 16.8939 11.9915 16.6934 12.5568C16.559 12.6635 16.3094 12.6848 16.288 12.5227C16.32 12.143 16.1664 12.0918 15.8614 12.271L15.567 10.0523C15.695 10.0459 15.8102 10.1376 15.9296 9.99256C15.8016 9.60003 15.535 8.80216 15.3835 8.72536H15.3792L15.3579 8.70402C15.3579 8.69976 15.3515 8.69763 15.3472 8.69549L15.3387 8.68269C15.3302 8.68269 15.3216 8.67842 15.3174 8.67629C15.3024 8.67202 15.2896 8.67203 15.2747 8.67203H15.2768ZM25.6064 8.68056C25.4742 8.67629 25.3291 8.75949 25.3846 8.92589C25.3504 9.01762 25.6683 9.32482 25.7195 9.49122C25.8112 9.74722 25.6491 9.99683 25.7451 10.0331C25.8347 10.0715 25.9584 9.76643 26.0011 9.48269C26.0566 9.25229 25.8944 8.78296 25.6598 8.68696L25.6064 8.68269V8.68056ZM17.5574 8.96002C17.6171 8.95576 17.6896 9.01123 17.728 9.08803C17.7643 9.17336 17.7451 9.25229 17.6854 9.26722C17.6214 9.28216 17.5403 9.22882 17.5019 9.14349C17.4635 9.05816 17.4806 8.97923 17.5446 8.96429H17.5574V8.96002ZM32.4843 9.34829C32.3627 9.34402 32.2283 9.43362 32.2838 9.61496C32.2539 9.71309 32.5398 10.0459 32.5888 10.2294C32.6315 10.3574 32.5248 10.7755 32.6102 10.8139C32.6912 10.8566 32.8022 10.5238 32.8448 10.2166C32.8704 10.0459 32.7467 9.45923 32.5355 9.35469C32.5206 9.35043 32.5035 9.34616 32.4864 9.34616L32.4843 9.34829ZM24.2283 9.55309C24.2432 9.60216 24.2539 9.65122 24.2603 9.70242C24.2859 9.80909 24.3072 9.91576 24.3286 10.0267C24.2347 9.89442 24.1579 9.78776 24.1216 9.74936C23.9083 9.49336 24.1259 9.58296 24.2283 9.55309V9.55309ZM26.1334 10.4875C26.0864 10.496 26.0416 10.5366 26.0267 10.6006C26.0139 10.639 26.0438 10.7072 26.0054 10.7286C25.984 10.7499 25.8987 10.7371 25.9051 10.6219C25.9051 10.5835 25.8774 10.543 25.8624 10.5216C25.8454 10.511 25.8347 10.5067 25.8048 10.5067C25.7686 10.5067 25.7686 10.5174 25.7494 10.5494C25.7408 10.5792 25.728 10.6091 25.728 10.6454C25.728 10.688 25.711 10.7008 25.6811 10.7094C25.647 10.7094 25.6534 10.7094 25.6256 10.6944C25.6086 10.6731 25.5894 10.6688 25.5894 10.639C25.5894 10.607 25.583 10.5579 25.5723 10.5366C25.5574 10.5152 25.536 10.5088 25.5083 10.5003C25.3696 10.5003 25.359 10.6624 25.3675 10.7222C25.359 10.735 25.3526 11.0251 25.5446 11.1062C25.8048 11.2278 26.2912 11.1702 26.2699 10.7563C26.2699 10.72 26.2592 10.5963 26.2571 10.5643C26.2294 10.5003 26.1803 10.479 26.1355 10.4854L26.1334 10.4875ZM17.4507 10.5728C17.4208 10.5728 17.3782 10.5814 17.3291 10.6112C17.1008 10.735 17.0134 11.1019 17.1584 11.3152C17.2864 11.5072 17.4998 11.4368 17.5275 11.4368C17.7515 11.4667 17.8838 11.0187 17.8838 11.0187C17.8838 11.0187 17.8902 10.8907 17.6278 11.1296C17.5126 11.151 17.4998 11.1083 17.4699 11.0443C17.4443 10.9312 17.4486 10.8096 17.5019 10.6966C17.5275 10.6262 17.5019 10.5814 17.4507 10.5771V10.5728ZM29.7238 10.6304C29.5958 10.624 29.4614 10.7072 29.4251 10.88C29.4251 10.9824 29.472 11.0379 29.4635 11.1318C29.4528 11.1851 29.3995 11.2171 29.2672 11.1574C29.2886 11.136 29.1819 10.991 29.1819 10.991C29.0816 10.927 28.9472 10.991 28.8576 11.0507C28.8086 11.1403 28.7723 11.2918 28.8278 11.4454C28.9728 11.7163 29.4742 12.1771 29.7131 12.1814C29.7174 11.9382 29.7408 11.6139 29.7558 11.4134C29.76 11.3366 29.7771 11.2534 29.8518 11.2342C29.9243 11.2128 30.0502 11.3067 30.0502 11.2278C30.0374 11.0742 30.0075 10.8438 29.9222 10.7371C29.8752 10.6731 29.8006 10.6347 29.7259 10.6304H29.7238ZM19.5627 11.4774L19.5563 11.4838C19.5563 11.4838 19.552 11.4838 19.5499 11.488C19.5243 11.5094 19.4944 11.552 19.4283 11.5947C19.3152 11.7227 19.296 11.8144 19.3003 12.0704C19.3088 12.0982 19.5136 12.6742 19.6907 13.0774C19.8102 13.4976 19.919 13.9798 19.84 14.4342C19.5627 15.0358 19.008 15.5755 18.4683 15.8699C18.191 15.9552 17.9563 15.9254 17.8923 15.8656C17.7344 15.759 17.7323 15.567 17.743 15.5371V15.5307C18.1952 15.215 18.7136 14.959 19.119 14.1078C19.2384 13.7814 19.2768 13.5851 19.1574 13.0838C19.1104 12.8918 19.0507 12.7424 18.9227 12.6059H18.927C19.0038 12.5696 19.2043 12.7168 19.2363 12.6272C19.1872 12.384 19.023 12.0619 18.8416 11.8955C18.6795 11.7462 18.5003 11.7312 18.3552 11.8656C18.1888 11.9595 18.1547 12.2923 18.2336 12.5824C18.3232 12.8 18.5643 12.8384 18.735 13.28C18.7392 13.3099 18.7926 13.6107 18.7072 13.7344C18.6347 13.952 17.7366 14.6603 17.6726 14.703L17.6662 14.7072L17.6619 14.7115H17.6576H17.6534V14.7051C17.6491 14.688 17.6534 14.6411 17.6534 14.5707C17.647 14.4384 17.7024 14.1376 17.696 14.0843V14.08C17.3974 14.272 17.2971 14.8587 17.2438 15.0336C16.4907 15.552 15.6374 15.9382 15.1446 16.463C14.8886 16.8683 16.911 16.0064 17.1456 15.9019L17.152 15.9083C17.199 15.9574 17.2011 16.128 17.3355 16.2838C17.5488 16.5675 17.9926 16.7424 18.4278 16.6336C19.1574 16.3712 19.5798 15.8742 20.0064 15.3216C20.0662 15.2363 20.1622 15.1638 20.2518 15.232C20.544 15.8891 21.3931 16.3584 22.4875 16.4054C22.7435 16.0982 22.6219 15.9467 22.5195 15.8827C22.4875 15.8614 21.9755 15.6608 21.8944 15.4624C21.8454 15.279 21.967 15.1147 22.2102 14.9931C22.9142 14.9078 23.6054 14.8118 24.2752 14.5963C24.2816 14.3702 24.4139 14.0352 24.5035 13.888C24.5675 13.7878 24.6038 13.7771 24.6187 13.7643V13.76H24.623V13.7536V13.7323L24.5078 13.664L22.2614 13.6555C22.2336 13.6448 22.2144 13.6342 22.2016 13.6235L22.1974 13.6171C22.1974 13.6171 22.1931 13.6171 22.1931 13.6128C22.1931 13.6086 22.1888 13.6086 22.1888 13.6086V13.6107V13.6064V13.6022V13.5979L22.1931 13.5915C22.2038 13.5787 22.2315 13.5638 22.2635 13.5488C22.8011 13.4784 23.7526 13.3227 23.8166 12.4075C23.8059 11.9296 23.6118 11.6182 23.0272 11.5328C22.5963 11.5648 22.2891 11.9808 22.3382 12.4374C22.3168 12.559 22.3808 12.8 22.2528 12.8278C21.4294 12.9046 20.5291 13.4208 20.4992 13.792H20.495H20.4907H20.4864C20.4864 13.7963 20.4822 13.7963 20.48 13.7963H20.4715H20.4672H20.4587C20.4054 13.7792 20.3371 13.6896 20.3478 13.568C20.3158 12.928 20.1067 12.2027 19.7824 11.648C19.6651 11.5307 19.6118 11.4838 19.5819 11.4774H19.5755H19.5691H19.5648H19.5627ZM21.7131 11.8144C21.6704 11.823 21.6214 11.8614 21.6064 11.9254C21.5958 11.968 21.6278 12.0363 21.5894 12.0576C21.568 12.079 21.4827 12.0662 21.487 11.951C21.487 11.9147 21.4592 11.8742 21.4443 11.8507C21.4272 11.84 21.4166 11.8379 21.3888 11.8379C21.3526 11.8379 21.3504 11.8464 21.3312 11.8763C21.3206 11.9062 21.3099 11.9403 21.3099 11.9723C21.3056 12.015 21.2886 12.0278 21.2608 12.032C21.2267 12.032 21.2352 12.0384 21.2075 12.0214C21.1904 12.0043 21.1691 11.9958 21.1691 11.9659C21.1691 11.9339 21.1627 11.8806 21.1542 11.8592C21.1392 11.8443 21.1158 11.8379 21.0902 11.8294C20.9472 11.8294 20.9408 11.9894 20.9472 12.0512C20.9366 12.0619 20.9302 12.3499 21.1222 12.431C21.3782 12.5547 21.9968 12.4822 21.8475 12.0832C21.8475 12.047 21.8368 11.9232 21.8347 11.8912C21.807 11.8272 21.7579 11.8059 21.711 11.8123L21.7131 11.8144ZM30.3851 12.1707H30.3638C30.3638 12.1707 29.1648 13.024 29.1371 13.0539C29.0176 13.1606 29.0774 13.5296 29.1371 13.487C29.2224 13.519 30.4278 12.7019 30.4043 12.6059C30.4576 12.6102 30.4832 12.1856 30.383 12.1686L30.3851 12.1707ZM22.8459 12.2987C22.8928 12.2923 22.9568 12.3094 23.0166 12.3414C23.1083 12.3968 23.1659 12.4736 23.1552 12.5334V12.5419C23.151 12.5419 23.151 12.5419 23.151 12.5462V12.5504C23.151 12.5504 23.1467 12.5504 23.1467 12.5547C23.1467 12.559 23.1403 12.5632 23.136 12.5675C23.0934 12.6102 22.9952 12.6016 22.9014 12.5462C22.8118 12.4971 22.7584 12.4182 22.7627 12.3627V12.3563L22.7734 12.335C22.7734 12.335 22.7734 12.3307 22.7776 12.3286L22.7883 12.3158C22.8032 12.3051 22.8224 12.2944 22.8459 12.2944V12.2987ZM12.3542 12.512C11.7355 12.5248 10.8246 13.327 10.8011 13.7707L12.7638 12.832C12.6571 12.6699 12.7574 12.5248 12.3542 12.512V12.512ZM14.3659 12.7894C14.4256 12.7936 14.4896 12.8235 14.5238 12.9088C14.5536 12.9878 14.5238 13.0688 14.4875 13.1094V13.1158C14.4576 13.1499 14.368 13.1371 14.3019 13.1371C14.223 13.1328 14.1846 13.12 14.1376 13.056C14.112 12.9814 14.1803 12.911 14.2123 12.8598L14.2272 12.8384C14.2486 12.8171 14.2912 12.8 14.3339 12.7958L14.3616 12.7915L14.3659 12.7894ZM30.1526 13.039C30.0395 13.0518 29.935 13.1563 29.9819 13.3227C29.952 13.4208 30.1312 13.7643 30.1803 13.9456C30.223 14.0736 30.1248 14.4427 30.2123 14.479C30.2934 14.5216 30.5046 14.2656 30.4982 13.9371C30.5195 13.7664 30.4384 13.1478 30.2272 13.0454C30.2016 13.039 30.176 13.0368 30.1504 13.039H30.1526ZM16.7467 13.6448C16.6486 13.6512 16.5611 13.7024 16.6016 13.8411C16.5952 13.9392 16.879 14.0608 16.8939 14.2891C16.9323 14.3872 16.8299 14.6944 16.9152 14.72C16.992 14.752 17.0987 14.5067 17.1392 14.2848C17.1606 14.1611 17.0411 13.7302 16.8406 13.6512C16.8086 13.6427 16.7766 13.6406 16.7446 13.6427L16.7467 13.6448ZM20.7574 14.191H20.783C21.0347 14.2592 21.4016 14.2678 21.7216 14.2976C21.984 14.319 22.112 14.5195 21.871 14.607C21.6278 14.688 21.3952 14.7563 21.3952 15.1019C21.4251 15.2726 21.4166 15.3622 21.391 15.4006C21.391 15.407 21.3846 15.4112 21.3824 15.4134C21.3824 15.4134 21.3824 15.4176 21.3782 15.4176V15.4219H21.3718L21.3568 15.4283H21.3462C21.2886 15.439 21.2054 15.3856 21.1435 15.3515C20.9942 15.2448 20.5782 14.9888 20.5184 14.4342C20.5099 14.3062 20.6038 14.1995 20.7531 14.1888L20.7574 14.191ZM10.9568 14.6176C10.9419 14.6176 10.9142 14.6646 10.8715 14.7179C10.5003 15.3046 10.4662 16.1814 10.671 16.4459C10.7776 16.5675 10.9568 16.623 11.0891 16.5846C11.3238 16.4843 11.424 16.0128 11.3664 15.8422C11.2918 15.7206 11.2299 15.7014 11.1531 15.8038C10.9888 16.1344 10.9184 15.9062 10.9078 15.7184C10.8822 15.3707 10.9163 15.0464 10.9547 14.7904C10.976 14.6624 10.976 14.6134 10.9547 14.6134L10.9568 14.6176ZM23.5371 15.3899C23.5094 15.3899 23.4816 15.3942 23.4518 15.4112C23.4454 15.4112 23.1872 15.5819 23.104 15.7056C23.0528 15.744 23.0614 15.776 23.0742 15.8443C23.1126 15.936 23.1808 15.9083 23.2619 15.8656C23.3686 15.8486 23.4176 15.919 23.4112 16.0448C23.3622 16.2048 23.4326 16.2624 23.4326 16.2731C23.4326 16.2816 23.5328 16.3691 23.6523 16.3008C23.9019 16.2048 24.0576 16.1088 24.4096 16.0342C24.5014 16.0342 24.495 15.7867 24.3499 15.7782C24.1579 15.7867 23.9872 15.7995 23.7952 15.9488C23.6779 15.9744 23.6587 15.9019 23.631 15.8379C23.6011 15.68 23.6992 15.5691 23.6779 15.4496C23.6822 15.456 23.6182 15.3984 23.535 15.3942L23.5371 15.3899ZM31.5926 15.6886L31.4219 15.7056C31.3451 15.7206 31.3195 15.7547 31.3046 15.8486C31.311 15.9872 31.3963 15.9808 31.4859 16.0363C31.5371 16.1003 31.5712 16.16 31.4816 16.271C31.3963 16.3456 31.3387 16.3883 31.2534 16.463C31.2171 16.5312 31.1894 16.6336 31.3131 16.6678C31.5371 16.7318 32.0555 16.3947 32.0555 16.3904C32.1408 16.3264 32.111 16.2048 32.1046 16.2048C32.0534 16.1494 31.9424 16.1835 31.8699 16.1728C31.8336 16.1728 31.7206 16.1558 31.7718 16.0534C31.8187 15.9894 31.8358 15.9531 31.8678 15.8742C31.8998 15.7974 31.8678 15.7462 31.744 15.7035C31.68 15.6907 31.6374 15.6864 31.5883 15.6886H31.5926ZM28.4928 23.9232C29.0688 23.951 29.6064 23.9296 30.1782 23.9574C30.272 24.0342 30.2272 24.2134 30.1675 24.2432L30.1568 24.2475H30.1504H30.1419L29.6598 24.2347V24.207C29.6128 24.0747 29.2928 24.0832 29.216 24.1856V24.192C29.2118 24.192 29.2096 24.1984 29.2096 24.2006L29.2054 24.2112V24.2368C28.9494 24.2688 28.7254 24.2283 28.4736 24.2198C28.399 24.128 28.4096 23.9638 28.495 23.9211L28.4928 23.9232Z" fill="white"/>
<path d="M41.0667 1.06668H4.80001C3.03269 1.06668 1.60001 2.49937 1.60001 4.26668V27.7333C1.60001 29.5007 3.03269 30.9333 4.80001 30.9333H41.0667C42.834 30.9333 44.2667 29.5007 44.2667 27.7333V4.26668C44.2667 2.49937 42.834 1.06668 41.0667 1.06668Z" stroke="black" stroke-opacity="0.1" stroke-width="2.13333"/>
</g>
</g>
<defs>
<clipPath id="clip0_3_51">
<rect width="44.8" height="32" fill="white" transform="translate(0.533325)"/>
</clipPath>
</defs>
</svg>
