<svg width="46" height="32" viewBox="0 0 46 32" fill="none" xmlns="http://www.w3.org/2000/svg">
<mask id="mask0_3_50" style="mask-type:alpha" maskUnits="userSpaceOnUse" x="0" y="0" width="46" height="32">
<path d="M41.2 0H4.93332C2.57691 0 0.666656 1.91025 0.666656 4.26667V27.7333C0.666656 30.0898 2.57691 32 4.93332 32H41.2C43.5564 32 45.4667 30.0898 45.4667 27.7333V4.26667C45.4667 1.91025 43.5564 0 41.2 0Z" fill="white"/>
</mask>
<g mask="url(#mask0_3_50)">
<path d="M41.2 0H4.93332C2.57691 0 0.666656 1.91025 0.666656 4.26667V27.7333C0.666656 30.0898 2.57691 32 4.93332 32H41.2C43.5564 32 45.4667 30.0898 45.4667 27.7333V4.26667C45.4667 1.91025 43.5564 0 41.2 0Z" fill="#025BC2"/>
<path fill-rule="evenodd" clip-rule="evenodd" d="M0.666656 32H45.4667V0L0.666656 32Z" fill="#FCD715"/>
<path fill-rule="evenodd" clip-rule="evenodd" d="M4.93335 32H45.4667V4.26666L4.93335 32Z" fill="#24663A"/>
<path fill-rule="evenodd" clip-rule="evenodd" d="M11.5936 12.0704L10.2752 12.8L10.5269 11.2555L9.46027 10.1632L10.9323 9.93706L11.5936 8.53333L12.2549 9.93706L13.7269 10.1632L12.6603 11.2555L12.912 12.8L11.5936 12.0704ZM7.32694 7.80373L6.00854 8.53333L6.26027 6.9888L5.1936 5.89653L6.6656 5.6704L7.32694 4.26666L7.98827 5.6704L9.46027 5.89653L8.3936 6.9888L8.64534 8.53333L7.32694 7.80373V7.80373ZM15.8603 7.80373L14.5419 8.53333L14.7936 6.9888L13.7269 5.89653L15.1989 5.6704L15.8603 4.26666L16.5216 5.6704L17.9936 5.89653L16.9269 6.9888L17.1787 8.53333L15.8603 7.80373V7.80373ZM15.8603 16.3371L14.5419 17.0667L14.7936 15.5221L13.7269 14.4299L15.1989 14.2037L15.8603 12.8L16.5216 14.2037L17.9936 14.4299L16.9269 15.5221L17.1787 17.0667L15.8603 16.3371ZM7.32694 16.3371L6.00854 17.0667L6.26027 15.5221L5.1936 14.4299L6.6656 14.2037L7.32694 12.8L7.98827 14.2037L9.46027 14.4299L8.3936 15.5221L8.64534 17.0667L7.32694 16.3371V16.3371Z" fill="white"/>
<path d="M41.2 1.06668H4.93334C3.16603 1.06668 1.73334 2.49937 1.73334 4.26668V27.7333C1.73334 29.5007 3.16603 30.9333 4.93334 30.9333H41.2C42.9673 30.9333 44.4 29.5007 44.4 27.7333V4.26668C44.4 2.49937 42.9673 1.06668 41.2 1.06668Z" stroke="black" stroke-opacity="0.1" stroke-width="2.13333"/>
</g>
</svg>
