<svg width="46" height="32" viewBox="0 0 46 32" fill="none" xmlns="http://www.w3.org/2000/svg">
<g clip-path="url(#clip0_3_49)">
<mask id="mask0_3_49" style="mask-type:alpha" maskUnits="userSpaceOnUse" x="0" y="0" width="46" height="32">
<path d="M41.3333 0H5.06665C2.71024 0 0.799988 1.91025 0.799988 4.26667V27.7333C0.799988 30.0898 2.71024 32 5.06665 32H41.3333C43.6897 32 45.6 30.0898 45.6 27.7333V4.26667C45.6 1.91025 43.6897 0 41.3333 0Z" fill="white"/>
</mask>
<g mask="url(#mask0_3_49)">
<path d="M41.3333 0H5.06665C2.71024 0 0.799988 1.91025 0.799988 4.26667V27.7333C0.799988 30.0898 2.71024 32 5.06665 32H41.3333C43.6897 32 45.6 30.0898 45.6 27.7333V4.26667C45.6 1.91025 43.6897 0 41.3333 0Z" fill="#FCDD60"/>
<path fill-rule="evenodd" clip-rule="evenodd" d="M0.799988 32L20 0H0.799988V32Z" fill="#024892"/>
<path fill-rule="evenodd" clip-rule="evenodd" d="M0.799988 32L34.9333 0H45.6V8.53333L0.799988 32Z" fill="#DB2E2D"/>
<path fill-rule="evenodd" clip-rule="evenodd" d="M0.799988 32L45.6 19.2V8.53333L0.799988 32Z" fill="white"/>
<path fill-rule="evenodd" clip-rule="evenodd" d="M0.799988 32L45.6 19.2V32H0.799988Z" fill="#008545"/>
<path d="M41.3333 1.06668H5.06664C3.29933 1.06668 1.86664 2.49937 1.86664 4.26668V27.7333C1.86664 29.5007 3.29933 30.9333 5.06664 30.9333H41.3333C43.1006 30.9333 44.5333 29.5007 44.5333 27.7333V4.26668C44.5333 2.49937 43.1006 1.06668 41.3333 1.06668Z" stroke="black" stroke-opacity="0.1" stroke-width="2.13333"/>
</g>
</g>
<defs>
<clipPath id="clip0_3_49">
<rect width="44.8" height="32" fill="white" transform="translate(0.799988)"/>
</clipPath>
</defs>
</svg>
