<svg width="45" height="32" viewBox="0 0 45 32" fill="none" xmlns="http://www.w3.org/2000/svg">
<g clip-path="url(#clip0_3_47)">
<mask id="mask0_3_47" style="mask-type:alpha" maskUnits="userSpaceOnUse" x="0" y="0" width="45" height="32">
<path d="M40.6 0H4.33332C1.9769 0 0.0666504 1.91025 0.0666504 4.26667V27.7333C0.0666504 30.0898 1.9769 32 4.33332 32H40.6C42.9564 32 44.8666 30.0898 44.8666 27.7333V4.26667C44.8666 1.91025 42.9564 0 40.6 0Z" fill="white"/>
</mask>
<g mask="url(#mask0_3_47)">
<path d="M40.6 0H4.33332C1.9769 0 0.0666504 1.91025 0.0666504 4.26667V27.7333C0.0666504 30.0898 1.9769 32 4.33332 32H40.6C42.9564 32 44.8666 30.0898 44.8666 27.7333V4.26667C44.8666 1.91025 42.9564 0 40.6 0Z" fill="#0275B0"/>
<path fill-rule="evenodd" clip-rule="evenodd" d="M12.8666 19.2H0.0666504V12.8H12.8666V0H19.2666V12.8H44.8666V19.2H19.2666V32H12.8666V19.2Z" fill="#FED200"/>
<path d="M40.6 1.06668H4.3333C2.56599 1.06668 1.1333 2.49937 1.1333 4.26668V27.7333C1.1333 29.5007 2.56599 30.9333 4.3333 30.9333H40.6C42.3673 30.9333 43.8 29.5007 43.8 27.7333V4.26668C43.8 2.49937 42.3673 1.06668 40.6 1.06668Z" stroke="black" stroke-opacity="0.1" stroke-width="2.13333"/>
</g>
</g>
<defs>
<clipPath id="clip0_3_47">
<rect width="44.8" height="32" fill="white" transform="translate(0.0666504)"/>
</clipPath>
</defs>
</svg>
