<svg width="45" height="32" viewBox="0 0 45 32" fill="none" xmlns="http://www.w3.org/2000/svg">
<g clip-path="url(#clip0_3_46)">
<mask id="mask0_3_46" style="mask-type:alpha" maskUnits="userSpaceOnUse" x="0" y="0" width="45" height="32">
<path d="M40.7333 0H4.46668C2.11026 0 0.200012 1.91025 0.200012 4.26667V27.7333C0.200012 30.0898 2.11026 32 4.46668 32H40.7333C43.0898 32 45 30.0898 45 27.7333V4.26667C45 1.91025 43.0898 0 40.7333 0Z" fill="white"/>
</mask>
<g mask="url(#mask0_3_46)">
<path d="M40.7333 0H4.46668C2.11026 0 0.200012 1.91025 0.200012 4.26667V27.7333C0.200012 30.0898 2.11026 32 4.46668 32H40.7333C43.0898 32 45 30.0898 45 27.7333V4.26667C45 1.91025 43.0898 0 40.7333 0Z" fill="white"/>
<path fill-rule="evenodd" clip-rule="evenodd" d="M0.200012 0H45V19.2H0.200012V0Z" fill="#EF2F41"/>
<path fill-rule="evenodd" clip-rule="evenodd" d="M13 16.7744C12.3813 16.9664 11.72 17.0667 11.0309 17.0667C7.40428 17.0667 4.46667 14.2016 4.46667 10.6667C4.46667 7.13173 7.40641 4.26666 11.0309 4.26666C11.7179 4.26666 12.3792 4.36906 13 4.55893C10.3376 5.376 8.40481 7.8016 8.40481 10.6667C8.40481 13.5317 10.3376 15.9573 13 16.7744ZM17.2667 6.4H19.4V8.53333H17.2667V6.4ZM21.5333 8.53333H23.6667V10.6667H21.5333V8.53333ZM19.4 12.8H21.5333V14.9333H19.4V12.8ZM13 8.53333H15.1333V10.6667H13V8.53333ZM15.1333 12.8H17.2667V14.9333H15.1333V12.8Z" fill="white"/>
<path d="M40.7333 1.06668H4.46666C2.69935 1.06668 1.26666 2.49937 1.26666 4.26668V27.7333C1.26666 29.5007 2.69935 30.9333 4.46666 30.9333H40.7333C42.5006 30.9333 43.9333 29.5007 43.9333 27.7333V4.26668C43.9333 2.49937 42.5006 1.06668 40.7333 1.06668Z" stroke="black" stroke-opacity="0.1" stroke-width="2.13333"/>
</g>
</g>
<defs>
<clipPath id="clip0_3_46">
<rect width="44.8" height="32" fill="white" transform="translate(0.200012)"/>
</clipPath>
</defs>
</svg>
