<svg width="45" height="33" viewBox="0 0 45 33" fill="none" xmlns="http://www.w3.org/2000/svg">
<mask id="mask0_3_45" style="mask-type:alpha" maskUnits="userSpaceOnUse" x="0" y="0" width="45" height="33">
<path d="M40.5333 0.333313H4.26667C1.91025 0.333313 0 2.24356 0 4.59998V28.0666C0 30.4231 1.91025 32.3333 4.26667 32.3333H40.5333C42.8897 32.3333 44.8 30.4231 44.8 28.0666V4.59998C44.8 2.24356 42.8897 0.333313 40.5333 0.333313Z" fill="white"/>
</mask>
<g mask="url(#mask0_3_45)">
<path d="M40.5333 0.333313H4.26667C1.91025 0.333313 0 2.24356 0 4.59998V28.0666C0 30.4231 1.91025 32.3333 4.26667 32.3333H40.5333C42.8897 32.3333 44.8 30.4231 44.8 28.0666V4.59998C44.8 2.24356 42.8897 0.333313 40.5333 0.333313Z" fill="#0268AE"/>
<path fill-rule="evenodd" clip-rule="evenodd" d="M0 21.6667H44.8V32.3334H0V21.6667Z" fill="#EF1F28"/>
<path fill-rule="evenodd" clip-rule="evenodd" d="M0 0.333313H44.8V11H0V0.333313Z" fill="white"/>
<path d="M13.8667 6.73334H9.60001C8.4218 6.73334 7.46667 7.68846 7.46667 8.86667V14.2C7.46667 15.3782 8.4218 16.3333 9.60001 16.3333H13.8667C15.0449 16.3333 16 15.3782 16 14.2V8.86667C16 7.68846 15.0449 6.73334 13.8667 6.73334Z" fill="#EF1F28"/>
<path d="M12.8 6.73334H10.6667C9.48845 6.73334 8.53333 7.68846 8.53333 8.86667V13.1333C8.53333 14.3115 9.48845 15.2667 10.6667 15.2667H12.8C13.9782 15.2667 14.9333 14.3115 14.9333 13.1333V8.86667C14.9333 7.68846 13.9782 6.73334 12.8 6.73334Z" fill="#0268AE"/>
<path fill-rule="evenodd" clip-rule="evenodd" d="M10.6667 8.8667H12.8V11H10.6667V8.8667Z" fill="#FFE200"/>
<path fill-rule="evenodd" clip-rule="evenodd" d="M8.53333 13.1333L11.7333 12.0667L14.9333 13.1333L12.8 15.2667H10.6667L8.53333 13.1333Z" fill="white"/>
<path d="M40.5333 1.40002H4.26667C2.49935 1.40002 1.06667 2.83271 1.06667 4.60002V28.0667C1.06667 29.834 2.49935 31.2667 4.26667 31.2667H40.5333C42.3006 31.2667 43.7333 29.834 43.7333 28.0667V4.60002C43.7333 2.83271 42.3006 1.40002 40.5333 1.40002Z" stroke="black" stroke-opacity="0.1" stroke-width="2.13333"/>
</g>
</svg>
