<svg width="45" height="33" viewBox="0 0 45 33" fill="none" xmlns="http://www.w3.org/2000/svg">
<mask id="mask0_3_44" style="mask-type:alpha" maskUnits="userSpaceOnUse" x="0" y="0" width="45" height="33">
<path d="M40.6667 0.333313H4.40001C2.0436 0.333313 0.133347 2.24356 0.133347 4.59998V28.0666C0.133347 30.4231 2.0436 32.3333 4.40001 32.3333H40.6667C43.0231 32.3333 44.9333 30.4231 44.9333 28.0666V4.59998C44.9333 2.24356 43.0231 0.333313 40.6667 0.333313Z" fill="white"/>
</mask>
<g mask="url(#mask0_3_44)">
<path d="M40.6667 0.333313H4.40001C2.0436 0.333313 0.133347 2.24356 0.133347 4.59998V28.0666C0.133347 30.4231 2.0436 32.3333 4.40001 32.3333H40.6667C43.0231 32.3333 44.9333 30.4231 44.9333 28.0666V4.59998C44.9333 2.24356 43.0231 0.333313 40.6667 0.333313Z" fill="#0A58AC"/>
<path fill-rule="evenodd" clip-rule="evenodd" d="M0.133347 21.6667H44.9333V32.3334H0.133347V21.6667Z" fill="#F01F29"/>
<path fill-rule="evenodd" clip-rule="evenodd" d="M0.133347 0.333313H44.9333V11H0.133347V0.333313ZM21.3173 21.6666H21.4667V11H6.53335V21.6666H6.68268C6.58455 22.0122 6.53335 22.3706 6.53335 22.7333C6.53335 25.6773 14 28.0666 14 28.0666C14 28.0666 21.4667 25.6773 21.4667 22.7333C21.4667 22.3706 21.4155 22.0122 21.3173 21.6666Z" fill="white"/>
<path fill-rule="evenodd" clip-rule="evenodd" d="M19.3333 21.6667V8.8667H8.66667V21.6667C8.66667 24.024 14 25.9334 14 25.9334C14 25.9334 19.3333 24.024 19.3333 21.6667Z" fill="#F01F29"/>
<path fill-rule="evenodd" clip-rule="evenodd" d="M12.9333 17.4V15.2667H10.8V13.1333H12.9333V11H15.0667V13.1333H17.2V15.2667H15.0667V17.4H18.2667V19.5333H15.0667V21.6667H12.9333V19.5333H9.73332V17.4H12.9333Z" fill="white"/>
<path fill-rule="evenodd" clip-rule="evenodd" d="M14 25.9333C14 25.9333 19.3333 24.024 19.3333 21.6667C19.3333 19.3093 17.2 19.5333 14 21.6667C10.8 19.5333 8.66667 19.3093 8.66667 21.6667C8.66667 24.024 14 25.9333 14 25.9333Z" fill="#0A58AC"/>
<path d="M40.6667 1.40002H4.4C2.63269 1.40002 1.2 2.83271 1.2 4.60002V28.0667C1.2 29.834 2.63269 31.2667 4.4 31.2667H40.6667C42.434 31.2667 43.8667 29.834 43.8667 28.0667V4.60002C43.8667 2.83271 42.434 1.40002 40.6667 1.40002Z" stroke="black" stroke-opacity="0.1" stroke-width="2.13333"/>
</g>
</svg>
