<svg width="46" height="33" viewBox="0 0 46 33" fill="none" xmlns="http://www.w3.org/2000/svg">
<g clip-path="url(#clip0_3_42)">
<mask id="mask0_3_42" style="mask-type:alpha" maskUnits="userSpaceOnUse" x="0" y="0" width="46" height="33">
<path d="M40.9333 0.333313H4.66666C2.31025 0.333313 0.399994 2.24356 0.399994 4.59998V28.0666C0.399994 30.4231 2.31025 32.3333 4.66666 32.3333H40.9333C43.2897 32.3333 45.2 30.4231 45.2 28.0666V4.59998C45.2 2.24356 43.2897 0.333313 40.9333 0.333313Z" fill="white"/>
</mask>
<g mask="url(#mask0_3_42)">
<path d="M40.9333 0.333313H4.66666C2.31025 0.333313 0.399994 2.24356 0.399994 4.59998V28.0666C0.399994 30.4231 2.31025 32.3333 4.66666 32.3333H40.9333C43.2897 32.3333 45.2 30.4231 45.2 28.0666V4.59998C45.2 2.24356 43.2897 0.333313 40.9333 0.333313Z" fill="white"/>
<path fill-rule="evenodd" clip-rule="evenodd" d="M0.399994 15.2667H45.2V32.3333H0.399994V15.2667Z" fill="#69BEE7"/>
<path fill-rule="evenodd" clip-rule="evenodd" d="M17.4667 8.8667H28.1333V11L22.8 13.1334L17.4667 11V8.8667Z" fill="#E6BD34"/>
<path fill-rule="evenodd" clip-rule="evenodd" d="M28.1333 18.4666C28.1333 15.5226 25.744 13.1333 22.8 13.1333C19.856 13.1333 17.4667 15.5226 17.4667 18.4666C17.4667 21.4106 19.856 23.8 22.8 23.8C25.744 23.8 28.1333 21.4106 28.1333 18.4666ZM22.8 21.6666C24.5664 21.6666 26 19.7573 26 17.4C26 15.0426 24.5664 13.1333 22.8 13.1333C21.0336 13.1333 19.6 15.0426 19.6 17.4C19.6 19.7573 21.0336 21.6666 22.8 21.6666Z" fill="#406421"/>
<path d="M22.8 19.5333C23.3891 19.5333 23.8667 18.5782 23.8667 17.4C23.8667 16.2218 23.3891 15.2667 22.8 15.2667C22.2109 15.2667 21.7333 16.2218 21.7333 17.4C21.7333 18.5782 22.2109 19.5333 22.8 19.5333Z" fill="#D5B852"/>
<path d="M40.9333 1.40002H4.66668C2.89936 1.40002 1.46667 2.83271 1.46667 4.60002V28.0667C1.46667 29.834 2.89936 31.2667 4.66668 31.2667H40.9333C42.7007 31.2667 44.1333 29.834 44.1333 28.0667V4.60002C44.1333 2.83271 42.7007 1.40002 40.9333 1.40002Z" stroke="black" stroke-opacity="0.1" stroke-width="2.13333"/>
</g>
</g>
<defs>
<clipPath id="clip0_3_42">
<rect width="44.8" height="32" fill="white" transform="translate(0.399994 0.333313)"/>
</clipPath>
</defs>
</svg>
