<svg width="46" height="33" viewBox="0 0 46 33" fill="none" xmlns="http://www.w3.org/2000/svg">
<g clip-path="url(#clip0_3_41)">
<mask id="mask0_3_41" style="mask-type:alpha" maskUnits="userSpaceOnUse" x="0" y="0" width="46" height="33">
<path d="M41.0667 0.333313H4.79999C2.44358 0.333313 0.533325 2.24356 0.533325 4.59998V28.0666C0.533325 30.4231 2.44358 32.3333 4.79999 32.3333H41.0667C43.4231 32.3333 45.3333 30.4231 45.3333 28.0666V4.59998C45.3333 2.24356 43.4231 0.333313 41.0667 0.333313Z" fill="white"/>
</mask>
<g mask="url(#mask0_3_41)">
<path d="M41.0667 0.333313H4.79999C2.44358 0.333313 0.533325 2.24356 0.533325 4.59998V28.0666C0.533325 30.4231 2.44358 32.3333 4.79999 32.3333H41.0667C43.4231 32.3333 45.3333 30.4231 45.3333 28.0666V4.59998C45.3333 2.24356 43.4231 0.333313 41.0667 0.333313Z" fill="#FDF14B"/>
<path fill-rule="evenodd" clip-rule="evenodd" d="M0.533325 0.333313H15.4667V32.3333H0.533325V0.333313Z" fill="#009048"/>
<path fill-rule="evenodd" clip-rule="evenodd" d="M30.4 0.333313H45.3333V32.3333H30.4V0.333313Z" fill="#E71E27"/>
<path fill-rule="evenodd" clip-rule="evenodd" d="M22.9334 19L19.7974 20.6491L20.3947 17.1568L17.8603 14.6821L21.3654 14.1765L22.9334 11L24.5014 14.1787L28.0064 14.6843L25.4678 17.1589L26.0651 20.6491" fill="#009048"/>
<path d="M41.0667 1.40002H4.80001C3.03269 1.40002 1.60001 2.83271 1.60001 4.60002V28.0667C1.60001 29.834 3.03269 31.2667 4.80001 31.2667H41.0667C42.834 31.2667 44.2667 29.834 44.2667 28.0667V4.60002C44.2667 2.83271 42.834 1.40002 41.0667 1.40002Z" stroke="black" stroke-opacity="0.1" stroke-width="2.13333"/>
</g>
</g>
<defs>
<clipPath id="clip0_3_41">
<rect width="44.8" height="32" fill="white" transform="translate(0.533325 0.333313)"/>
</clipPath>
</defs>
</svg>
