<svg width="46" height="33" viewBox="0 0 46 33" fill="none" xmlns="http://www.w3.org/2000/svg">
<mask id="mask0_3_40" style="mask-type:alpha" maskUnits="userSpaceOnUse" x="0" y="0" width="46" height="33">
<path d="M41.2 0.333313H4.93332C2.57691 0.333313 0.666656 2.24356 0.666656 4.59998V28.0666C0.666656 30.4231 2.57691 32.3333 4.93332 32.3333H41.2C43.5564 32.3333 45.4667 30.4231 45.4667 28.0666V4.59998C45.4667 2.24356 43.5564 0.333313 41.2 0.333313Z" fill="white"/>
</mask>
<g mask="url(#mask0_3_40)">
<path d="M41.2 0.333313H4.93332C2.57691 0.333313 0.666656 2.24356 0.666656 4.59998V28.0666C0.666656 30.4231 2.57691 32.3333 4.93332 32.3333H41.2C43.5564 32.3333 45.4667 30.4231 45.4667 28.0666V4.59998C45.4667 2.24356 43.5564 0.333313 41.2 0.333313Z" fill="#4A94E1"/>
<path fill-rule="evenodd" clip-rule="evenodd" d="M23.071 20.2374L18.6123 22.584L19.4656 17.6198L15.8603 14.1062L20.8438 13.3808L23.071 8.8667L25.3003 13.3808L30.2816 14.1062L26.6763 17.6198L27.5296 22.5819" fill="white"/>
<path d="M41.2 1.40002H4.93334C3.16603 1.40002 1.73334 2.83271 1.73334 4.60002V28.0667C1.73334 29.834 3.16603 31.2667 4.93334 31.2667H41.2C42.9673 31.2667 44.4 29.834 44.4 28.0667V4.60002C44.4 2.83271 42.9673 1.40002 41.2 1.40002Z" stroke="black" stroke-opacity="0.1" stroke-width="2.13333"/>
</g>
</svg>
