<svg width="46" height="33" viewBox="0 0 46 33" fill="none" xmlns="http://www.w3.org/2000/svg">
<g clip-path="url(#clip0_3_39)">
<mask id="mask0_3_39" style="mask-type:alpha" maskUnits="userSpaceOnUse" x="0" y="0" width="46" height="33">
<path d="M41.3333 0.333313H5.06665C2.71024 0.333313 0.799988 2.24356 0.799988 4.59998V28.0666C0.799988 30.4231 2.71024 32.3333 5.06665 32.3333H41.3333C43.6897 32.3333 45.6 30.4231 45.6 28.0666V4.59998C45.6 2.24356 43.6897 0.333313 41.3333 0.333313Z" fill="white"/>
</mask>
<g mask="url(#mask0_3_39)">
<path d="M41.3333 0.333313H5.06665C2.71024 0.333313 0.799988 2.24356 0.799988 4.59998V28.0666C0.799988 30.4231 2.71024 32.3333 5.06665 32.3333H41.3333C43.6897 32.3333 45.6 30.4231 45.6 28.0666V4.59998C45.6 2.24356 43.6897 0.333313 41.3333 0.333313Z" fill="white"/>
<path fill-rule="evenodd" clip-rule="evenodd" d="M0.799988 23.8H45.6V32.3333H0.799988V23.8ZM0.799988 0.333313H45.6V8.86665H0.799988V0.333313Z" fill="#3F8948"/>
<path fill-rule="evenodd" clip-rule="evenodd" d="M0.799988 11H45.6V21.6667H0.799988V11Z" fill="#BC0A33"/>
<path fill-rule="evenodd" clip-rule="evenodd" d="M23.2 19L20.064 20.6491L20.6614 17.1568L18.127 14.6821L21.632 14.1765L23.2 11L24.768 14.1787L28.2731 14.6843L25.7344 17.1589L26.3318 20.6491" fill="#EECF1F"/>
<path d="M41.3333 1.40002H5.06664C3.29933 1.40002 1.86664 2.83271 1.86664 4.60002V28.0667C1.86664 29.834 3.29933 31.2667 5.06664 31.2667H41.3333C43.1006 31.2667 44.5333 29.834 44.5333 28.0667V4.60002C44.5333 2.83271 43.1006 1.40002 41.3333 1.40002Z" stroke="black" stroke-opacity="0.1" stroke-width="2.13333"/>
</g>
</g>
<defs>
<clipPath id="clip0_3_39">
<rect width="44.8" height="32" fill="white" transform="translate(0.799988 0.333313)"/>
</clipPath>
</defs>
</svg>
