<svg width="46" height="33" viewBox="0 0 46 33" fill="none" xmlns="http://www.w3.org/2000/svg">
<g clip-path="url(#clip0_3_38)">
<mask id="mask0_3_38" style="mask-type:alpha" maskUnits="userSpaceOnUse" x="0" y="0" width="46" height="33">
<path d="M41.4666 0.333313H5.19995C2.84354 0.333313 0.933289 2.24356 0.933289 4.59998V28.0666C0.933289 30.4231 2.84354 32.3333 5.19995 32.3333H41.4666C43.823 32.3333 45.7333 30.4231 45.7333 28.0666V4.59998C45.7333 2.24356 43.823 0.333313 41.4666 0.333313Z" fill="white"/>
</mask>
<g mask="url(#mask0_3_38)">
<path d="M41.4666 0.333313H5.19995C2.84354 0.333313 0.933289 2.24356 0.933289 4.59998V28.0666C0.933289 30.4231 2.84354 32.3333 5.19995 32.3333H41.4666C43.823 32.3333 45.7333 30.4231 45.7333 28.0666V4.59998C45.7333 2.24356 43.823 0.333313 41.4666 0.333313Z" fill="white"/>
<path fill-rule="evenodd" clip-rule="evenodd" d="M0.933289 0.333313H45.7333V8.86665H0.933289V0.333313Z" fill="black"/>
<path fill-rule="evenodd" clip-rule="evenodd" d="M0.933289 23.8H45.7333V32.3333H0.933289V23.8Z" fill="#059437"/>
<path fill-rule="evenodd" clip-rule="evenodd" d="M0.933289 11H45.7333V21.6667H0.933289V11Z" fill="#DF121B"/>
<path fill-rule="evenodd" clip-rule="evenodd" d="M0.933289 0.333313L26.5333 16.3333L0.933289 32.3333V0.333313Z" fill="#0E50B8"/>
<path fill-rule="evenodd" clip-rule="evenodd" d="M11.0304 18.9616L8.19303 21.08L8.2357 17.5387L5.34503 15.4907L8.72637 14.4411L9.7781 11.0598L11.8261 13.9504L15.3674 13.9078L13.2469 16.7451L14.384 20.0987L11.0304 18.9616V18.9616Z" fill="#FCE206"/>
<path d="M41.4667 1.40002H5.2C3.43269 1.40002 2 2.83271 2 4.60002V28.0667C2 29.834 3.43269 31.2667 5.2 31.2667H41.4667C43.234 31.2667 44.6667 29.834 44.6667 28.0667V4.60002C44.6667 2.83271 43.234 1.40002 41.4667 1.40002Z" stroke="black" stroke-opacity="0.1" stroke-width="2.13333"/>
</g>
</g>
<defs>
<clipPath id="clip0_3_38">
<rect width="44.8" height="32" fill="white" transform="translate(0.933289 0.333313)"/>
</clipPath>
</defs>
</svg>
