<svg width="45" height="33" viewBox="0 0 45 33" fill="none" xmlns="http://www.w3.org/2000/svg">
<g clip-path="url(#clip0_3_37)">
<mask id="mask0_3_37" style="mask-type:alpha" maskUnits="userSpaceOnUse" x="0" y="0" width="45" height="33">
<path d="M40.6 0.333313H4.33332C1.9769 0.333313 0.0666504 2.24356 0.0666504 4.59998V28.0666C0.0666504 30.4231 1.9769 32.3333 4.33332 32.3333H40.6C42.9564 32.3333 44.8666 30.4231 44.8666 28.0666V4.59998C44.8666 2.24356 42.9564 0.333313 40.6 0.333313Z" fill="white"/>
</mask>
<g mask="url(#mask0_3_37)">
<path d="M40.6 0.333313H4.33332C1.9769 0.333313 0.0666504 2.24356 0.0666504 4.59998V28.0666C0.0666504 30.4231 1.9769 32.3333 4.33332 32.3333H40.6C42.9564 32.3333 44.8666 30.4231 44.8666 28.0666V4.59998C44.8666 2.24356 42.9564 0.333313 40.6 0.333313Z" fill="#FFD400"/>
<path fill-rule="evenodd" clip-rule="evenodd" d="M0.0666504 23.8V32.3333H44.8666V23.8H0.0666504ZM0.0666504 0.333313V8.86665H44.8666V0.333313H0.0666504Z" fill="#10B630"/>
<path fill-rule="evenodd" clip-rule="evenodd" d="M0.0666504 0.333313V32.4037L15 16.3333L0.0666504 0.333313Z" fill="#D70F3B"/>
<path fill-rule="evenodd" clip-rule="evenodd" d="M22.4667 18.296L20.024 19.5824L20.4933 16.8624L18.5157 14.936L21.2464 14.5413L22.4667 12.0667L23.6869 14.5413L26.4176 14.936L24.4421 16.8624L24.9115 19.5824L22.4667 18.296ZM35.2667 18.296L32.824 19.5824L33.2933 16.8624L31.3157 14.936L34.0464 14.5413L35.2667 12.0667L36.4869 14.5413L39.2176 14.936L37.2421 16.8624L37.7115 19.5824" fill="black"/>
<path d="M40.6 1.40002H4.3333C2.56599 1.40002 1.1333 2.83271 1.1333 4.60002V28.0667C1.1333 29.834 2.56599 31.2667 4.3333 31.2667H40.6C42.3673 31.2667 43.8 29.834 43.8 28.0667V4.60002C43.8 2.83271 42.3673 1.40002 40.6 1.40002Z" stroke="black" stroke-opacity="0.1" stroke-width="2.13333"/>
</g>
</g>
<defs>
<clipPath id="clip0_3_37">
<rect width="44.8" height="32" fill="white" transform="translate(0.0666504 0.333313)"/>
</clipPath>
</defs>
</svg>
