<svg width="45" height="33" viewBox="0 0 45 33" fill="none" xmlns="http://www.w3.org/2000/svg">
<g clip-path="url(#clip0_3_36)">
<mask id="mask0_3_36" style="mask-type:alpha" maskUnits="userSpaceOnUse" x="0" y="0" width="45" height="33">
<path d="M40.7333 0.333313H4.46668C2.11026 0.333313 0.200012 2.24356 0.200012 4.59998V28.0666C0.200012 30.4231 2.11026 32.3333 4.46668 32.3333H40.7333C43.0898 32.3333 45 30.4231 45 28.0666V4.59998C45 2.24356 43.0898 0.333313 40.7333 0.333313Z" fill="white"/>
</mask>
<g mask="url(#mask0_3_36)">
<path d="M40.7333 0.333313H4.46668C2.11026 0.333313 0.200012 2.24356 0.200012 4.59998V28.0666C0.200012 30.4231 2.11026 32.3333 4.46668 32.3333H40.7333C43.0898 32.3333 45 30.4231 45 28.0666V4.59998C45 2.24356 43.0898 0.333313 40.7333 0.333313Z" fill="white"/>
<path fill-rule="evenodd" clip-rule="evenodd" d="M0.200012 21.6666H45V32.3333H0.200012V21.6666ZM0.200012 0.333313H45V11H0.200012V0.333313Z" fill="#0643B2"/>
<path d="M22.6 19.5333C24.3673 19.5333 25.8 18.1006 25.8 16.3333C25.8 14.566 24.3673 13.1333 22.6 13.1333C20.8327 13.1333 19.4 14.566 19.4 16.3333C19.4 18.1006 20.8327 19.5333 22.6 19.5333Z" fill="#0017A2"/>
<path d="M22.6 17.4C23.1891 17.4 23.6667 16.9224 23.6667 16.3333C23.6667 15.7442 23.1891 15.2667 22.6 15.2667C22.0109 15.2667 21.5333 15.7442 21.5333 16.3333C21.5333 16.9224 22.0109 17.4 22.6 17.4Z" fill="#FFCD00"/>
<path fill-rule="evenodd" clip-rule="evenodd" d="M17.2667 15.2667L19.4 17.4L22.6 19.5333L25.8 17.4L27.9333 15.2667L25.8 19.5333H19.4L17.2667 15.2667Z" fill="#22551E"/>
<path d="M40.7333 1.40002H4.46666C2.69935 1.40002 1.26666 2.83271 1.26666 4.60002V28.0667C1.26666 29.834 2.69935 31.2667 4.46666 31.2667H40.7333C42.5006 31.2667 43.9333 29.834 43.9333 28.0667V4.60002C43.9333 2.83271 42.5006 1.40002 40.7333 1.40002Z" stroke="black" stroke-opacity="0.1" stroke-width="2.13333"/>
</g>
</g>
<defs>
<clipPath id="clip0_3_36">
<rect width="44.8" height="32" fill="white" transform="translate(0.200012 0.333313)"/>
</clipPath>
</defs>
</svg>
