<svg width="45" height="33" viewBox="0 0 45 33" fill="none" xmlns="http://www.w3.org/2000/svg">
<mask id="mask0_3_35" style="mask-type:alpha" maskUnits="userSpaceOnUse" x="0" y="0" width="45" height="33">
<path d="M40.5333 0.666626H4.26667C1.91025 0.666626 0 2.57688 0 4.93329V28.4C0 30.7564 1.91025 32.6666 4.26667 32.6666H40.5333C42.8897 32.6666 44.8 30.7564 44.8 28.4V4.93329C44.8 2.57688 42.8897 0.666626 40.5333 0.666626Z" fill="white"/>
</mask>
<g mask="url(#mask0_3_35)">
<path d="M40.5333 0.666626H4.26667C1.91025 0.666626 0 2.57688 0 4.93329V28.4C0 30.7564 1.91025 32.6666 4.26667 32.6666H40.5333C42.8897 32.6666 44.8 30.7564 44.8 28.4V4.93329C44.8 2.57688 42.8897 0.666626 40.5333 0.666626Z" fill="#012A87"/>
<path d="M44.8 0.666626H0V15.6H44.8V0.666626Z" fill="#DC171D"/>
<path fill-rule="evenodd" clip-rule="evenodd" d="M0 0.666626L21.3333 16.6666L0 32.6666V0.666626Z" fill="white"/>
<path fill-rule="evenodd" clip-rule="evenodd" d="M2.13333 11.3333H6.4L8.53333 13.4666L10.6667 11.3333H14.9333L10.6667 13.4666H6.4L2.13333 11.3333Z" fill="#BC725D"/>
<path d="M8.53333 22C9.71153 22 10.6667 20.0898 10.6667 17.7333C10.6667 15.3769 9.71153 13.4667 8.53333 13.4667C7.35512 13.4667 6.39999 15.3769 6.39999 17.7333C6.39999 20.0898 7.35512 22 8.53333 22Z" fill="#62AFE1"/>
<path fill-rule="evenodd" clip-rule="evenodd" d="M6.40001 15.6V19.8666H8.53334H10.6667V15.6L12.8 19.8666L10.6667 22H6.40001L4.26668 19.8666L6.40001 15.6Z" fill="#FFDF00"/>
<path d="M40.5333 1.73334H4.26667C2.49935 1.73334 1.06667 3.16603 1.06667 4.93334V28.4C1.06667 30.1673 2.49935 31.6 4.26667 31.6H40.5333C42.3006 31.6 43.7333 30.1673 43.7333 28.4V4.93334C43.7333 3.16603 42.3006 1.73334 40.5333 1.73334Z" stroke="black" stroke-opacity="0.1" stroke-width="2.13333"/>
</g>
</svg>
