<svg width="45" height="33" viewBox="0 0 45 33" fill="none" xmlns="http://www.w3.org/2000/svg">
<mask id="mask0_3_34" style="mask-type:alpha" maskUnits="userSpaceOnUse" x="0" y="0" width="45" height="33">
<path d="M40.6667 0.666626H4.40001C2.0436 0.666626 0.133347 2.57688 0.133347 4.93329V28.4C0.133347 30.7564 2.0436 32.6666 4.40001 32.6666H40.6667C43.0231 32.6666 44.9333 30.7564 44.9333 28.4V4.93329C44.9333 2.57688 43.0231 0.666626 40.6667 0.666626Z" fill="white"/>
</mask>
<g mask="url(#mask0_3_34)">
<path d="M40.6667 0.666626H4.40001C2.0436 0.666626 0.133347 2.57688 0.133347 4.93329V28.4C0.133347 30.7564 2.0436 32.6666 4.40001 32.6666H40.6667C43.0231 32.6666 44.9333 30.7564 44.9333 28.4V4.93329C44.9333 2.57688 43.0231 0.666626 40.6667 0.666626Z" fill="white"/>
<path fill-rule="evenodd" clip-rule="evenodd" d="M0.133347 22H44.9333V32.6667H0.133347V22Z" fill="black"/>
<path fill-rule="evenodd" clip-rule="evenodd" d="M0.133347 0.666626H44.9333V11.3333H0.133347V0.666626Z" fill="#D4112A"/>
<path fill-rule="evenodd" clip-rule="evenodd" d="M14 19.3333L10.864 20.9824L11.4613 17.4901L8.92693 15.0154L12.432 14.5098L14 11.3333L15.568 14.512L19.0731 15.0176L16.5344 17.4922L17.1317 20.9824L14 19.3333ZM31.0667 19.3333L27.9307 20.9824L28.528 17.4901L25.9936 15.0154L29.4987 14.5098L31.0667 11.3333L32.6347 14.512L36.1397 15.0176L33.6011 17.4922L34.1984 20.9824" fill="#048849"/>
<path d="M40.6667 1.73334H4.4C2.63269 1.73334 1.2 3.16603 1.2 4.93334V28.4C1.2 30.1673 2.63269 31.6 4.4 31.6H40.6667C42.434 31.6 43.8667 30.1673 43.8667 28.4V4.93334C43.8667 3.16603 42.434 1.73334 40.6667 1.73334Z" stroke="black" stroke-opacity="0.1" stroke-width="2.13333"/>
</g>
</svg>
