<svg width="46" height="33" viewBox="0 0 46 33" fill="none" xmlns="http://www.w3.org/2000/svg">
<g clip-path="url(#clip0_3_33)">
<mask id="mask0_3_33" style="mask-type:alpha" maskUnits="userSpaceOnUse" x="0" y="0" width="46" height="33">
<path d="M40.8 0.666626H4.53336C2.17694 0.666626 0.266693 2.57688 0.266693 4.93329V28.4C0.266693 30.7564 2.17694 32.6666 4.53336 32.6666H40.8C43.1564 32.6666 45.0667 30.7564 45.0667 28.4V4.93329C45.0667 2.57688 43.1564 0.666626 40.8 0.666626Z" fill="white"/>
</mask>
<g mask="url(#mask0_3_33)">
<path d="M40.8 0.666626H4.53336C2.17694 0.666626 0.266693 2.57688 0.266693 4.93329V28.4C0.266693 30.7564 2.17694 32.6666 4.53336 32.6666H40.8C43.1564 32.6666 45.0667 30.7564 45.0667 28.4V4.93329C45.0667 2.57688 43.1564 0.666626 40.8 0.666626Z" fill="#FFDE00"/>
<path fill-rule="evenodd" clip-rule="evenodd" d="M0.266693 26.2666H45.0667V32.6666H0.266693V26.2666ZM0.266693 0.666626H45.0667V7.06663H0.266693V0.666626Z" fill="#4769C1"/>
<path fill-rule="evenodd" clip-rule="evenodd" d="M0.266693 9.20001H45.0667V24.1333H0.266693V9.20001Z" fill="#BC0A33"/>
<path fill-rule="evenodd" clip-rule="evenodd" d="M8.79999 17.7333H36.5333V19.8667H8.79999V17.7333ZM13.0667 13.4667H34.4V15.6H13.0667V13.4667Z" fill="#E1C400"/>
<path fill-rule="evenodd" clip-rule="evenodd" d="M34.4 13.4667H38.6667V15.6H34.4V13.4667Z" fill="#9D9191"/>
<path fill-rule="evenodd" clip-rule="evenodd" d="M22.6667 22C27.968 22 32.2667 16.6666 32.2667 16.6666C32.2667 16.6666 27.968 11.3333 22.6667 11.3333C17.3653 11.3333 13.0667 16.6666 13.0667 16.6666C13.0667 16.6666 17.3653 22 22.6667 22Z" fill="white"/>
<path fill-rule="evenodd" clip-rule="evenodd" d="M22.6666 22C23.7333 22 25.8666 16.6666 25.8666 16.6666C25.8666 16.6666 23.7333 11.3333 22.6666 11.3333C17.3653 11.3333 13.0667 16.6666 13.0667 16.6666C13.0667 16.6666 17.3653 22 22.6666 22Z" fill="black"/>
<path fill-rule="evenodd" clip-rule="evenodd" d="M17.3333 15.6H19.4667V17.7333H17.3333V15.6ZM21.6 15.6H23.7333V17.7333H21.6V15.6Z" fill="#878787"/>
<path fill-rule="evenodd" clip-rule="evenodd" d="M28 15.6H30.1333V17.7333H28V15.6Z" fill="#5B5B5B" stroke="#979797" stroke-width="2.13333"/>
<path d="M40.8 1.73334H4.53331C2.766 1.73334 1.33331 3.16603 1.33331 4.93334V28.4C1.33331 30.1673 2.766 31.6 4.53331 31.6H40.8C42.5673 31.6 44 30.1673 44 28.4V4.93334C44 3.16603 42.5673 1.73334 40.8 1.73334Z" stroke="black" stroke-opacity="0.1" stroke-width="2.13333"/>
</g>
</g>
<defs>
<clipPath id="clip0_3_33">
<rect width="44.8" height="32" fill="white" transform="translate(0.266693 0.666626)"/>
</clipPath>
</defs>
</svg>
