<svg width="46" height="33" viewBox="0 0 46 33" fill="none" xmlns="http://www.w3.org/2000/svg">
<g clip-path="url(#clip0_3_32)">
<mask id="mask0_3_32" style="mask-type:alpha" maskUnits="userSpaceOnUse" x="0" y="0" width="46" height="33">
<path d="M40.9333 0.666626H4.66666C2.31025 0.666626 0.399994 2.57688 0.399994 4.93329V28.4C0.399994 30.7564 2.31025 32.6666 4.66666 32.6666H40.9333C43.2897 32.6666 45.2 30.7564 45.2 28.4V4.93329C45.2 2.57688 43.2897 0.666626 40.9333 0.666626Z" fill="white"/>
</mask>
<g mask="url(#mask0_3_32)">
<path d="M40.9333 0.666626H4.66666C2.31025 0.666626 0.399994 2.57688 0.399994 4.93329V28.4C0.399994 30.7564 2.31025 32.6666 4.66666 32.6666H40.9333C43.2897 32.6666 45.2 30.7564 45.2 28.4V4.93329C45.2 2.57688 43.2897 0.666626 40.9333 0.666626Z" fill="#FFCC00"/>
<path fill-rule="evenodd" clip-rule="evenodd" d="M0.399994 0.666626H15.3333V32.6666H0.399994V0.666626Z" fill="#002466"/>
<path fill-rule="evenodd" clip-rule="evenodd" d="M30.2667 0.666626H45.2V32.6666H30.2667V0.666626Z" fill="#C8032B"/>
<path d="M40.9333 1.73334H4.66668C2.89936 1.73334 1.46667 3.16603 1.46667 4.93334V28.4C1.46667 30.1673 2.89936 31.6 4.66668 31.6H40.9333C42.7007 31.6 44.1333 30.1673 44.1333 28.4V4.93334C44.1333 3.16603 42.7007 1.73334 40.9333 1.73334Z" stroke="black" stroke-opacity="0.1" stroke-width="2.13333"/>
</g>
</g>
<defs>
<clipPath id="clip0_3_32">
<rect width="44.8" height="32" fill="white" transform="translate(0.399994 0.666626)"/>
</clipPath>
</defs>
</svg>
