<svg width="46" height="33" viewBox="0 0 46 33" fill="none" xmlns="http://www.w3.org/2000/svg">
<g clip-path="url(#clip0_3_31)">
<mask id="mask0_3_31" style="mask-type:alpha" maskUnits="userSpaceOnUse" x="0" y="0" width="46" height="33">
<path d="M41.0667 0.666626H4.79999C2.44358 0.666626 0.533325 2.57688 0.533325 4.93329V28.4C0.533325 30.7564 2.44358 32.6666 4.79999 32.6666H41.0667C43.4231 32.6666 45.3333 30.7564 45.3333 28.4V4.93329C45.3333 2.57688 43.4231 0.666626 41.0667 0.666626Z" fill="white"/>
</mask>
<g mask="url(#mask0_3_31)">
<path d="M41.0667 0.666626H4.79999C2.44358 0.666626 0.533325 2.57688 0.533325 4.93329V28.4C0.533325 30.7564 2.44358 32.6666 4.79999 32.6666H41.0667C43.4231 32.6666 45.3333 30.7564 45.3333 28.4V4.93329C45.3333 2.57688 43.4231 0.666626 41.0667 0.666626Z" fill="#FFD400"/>
<path fill-rule="evenodd" clip-rule="evenodd" d="M15.4667 0.666626H45.3333V7.06663H15.4667V0.666626ZM15.4667 13.4666H45.3333V19.8666H15.4667V13.4666ZM0.533325 26.2666H45.3333V32.6666H0.533325V26.2666Z" fill="#007558"/>
<path fill-rule="evenodd" clip-rule="evenodd" d="M0.533325 0.666626H19.7333V19.8666H0.533325V0.666626Z" fill="#D70F3B"/>
<path fill-rule="evenodd" clip-rule="evenodd" d="M10.0053 13.2469L6.78825 14.9386L7.40265 11.3546L4.79999 8.82238L8.39679 8.29971L10.0053 5.03998L11.6139 8.29758L15.2107 8.82024L12.608 11.3589L13.2224 14.9386" fill="white"/>
<path d="M41.0667 1.73334H4.80001C3.03269 1.73334 1.60001 3.16603 1.60001 4.93334V28.4C1.60001 30.1673 3.03269 31.6 4.80001 31.6H41.0667C42.834 31.6 44.2667 30.1673 44.2667 28.4V4.93334C44.2667 3.16603 42.834 1.73334 41.0667 1.73334Z" stroke="black" stroke-opacity="0.1" stroke-width="2.13333"/>
</g>
</g>
<defs>
<clipPath id="clip0_3_31">
<rect width="44.8" height="32" fill="white" transform="translate(0.533325 0.666626)"/>
</clipPath>
</defs>
</svg>
