<svg width="46" height="33" viewBox="0 0 46 33" fill="none" xmlns="http://www.w3.org/2000/svg">
<g clip-path="url(#clip0_3_29)">
<mask id="mask0_3_29" style="mask-type:alpha" maskUnits="userSpaceOnUse" x="0" y="0" width="46" height="33">
<path d="M41.3333 0.666626H5.06665C2.71024 0.666626 0.799988 2.57688 0.799988 4.93329V28.4C0.799988 30.7564 2.71024 32.6666 5.06665 32.6666H41.3333C43.6897 32.6666 45.6 30.7564 45.6 28.4V4.93329C45.6 2.57688 43.6897 0.666626 41.3333 0.666626Z" fill="white"/>
</mask>
<g mask="url(#mask0_3_29)">
<path d="M41.3333 0.666626H5.06665C2.71024 0.666626 0.799988 2.57688 0.799988 4.93329V28.4C0.799988 30.7564 2.71024 32.6666 5.06665 32.6666H41.3333C43.6897 32.6666 45.6 30.7564 45.6 28.4V4.93329C45.6 2.57688 43.6897 0.666626 41.3333 0.666626Z" fill="white"/>
<path fill-rule="evenodd" clip-rule="evenodd" d="M0.799988 22H45.6V32.6667H0.799988V22Z" fill="#007100"/>
<path fill-rule="evenodd" clip-rule="evenodd" d="M26.336 16.0267C26.3787 16.2336 26.4 16.4469 26.4 16.6667C26.4 18.4331 24.9664 19.8667 23.2 19.8667C21.4336 19.8667 20 18.4331 20 16.6667C20 16.4469 20.0213 16.2336 20.064 16.0267C20.3627 16.9995 21.6512 17.7333 23.2 17.7333C24.7488 17.7333 26.0373 16.9995 26.336 16.0267ZM23.2 15.6C23.7888 15.6 24.2667 15.1221 24.2667 14.5333C24.2667 13.9445 23.7888 13.4667 23.2 13.4667C22.6112 13.4667 22.1333 13.9445 22.1333 14.5333C22.1333 15.1221 22.6112 15.6 23.2 15.6Z" fill="#F9CA00"/>
<path fill-rule="evenodd" clip-rule="evenodd" d="M0.799988 0.666626H45.6V11.3333H0.799988V0.666626Z" fill="#D20200"/>
<path d="M41.3333 1.73334H5.06664C3.29933 1.73334 1.86664 3.16603 1.86664 4.93334V28.4C1.86664 30.1673 3.29933 31.6 5.06664 31.6H41.3333C43.1006 31.6 44.5333 30.1673 44.5333 28.4V4.93334C44.5333 3.16603 43.1006 1.73334 41.3333 1.73334Z" stroke="black" stroke-opacity="0.1" stroke-width="2.13333"/>
</g>
</g>
<defs>
<clipPath id="clip0_3_29">
<rect width="44.8" height="32" fill="white" transform="translate(0.799988 0.666626)"/>
</clipPath>
</defs>
</svg>
