<svg width="46" height="33" viewBox="0 0 46 33" fill="none" xmlns="http://www.w3.org/2000/svg">
<g clip-path="url(#clip0_3_28)">
<mask id="mask0_3_28" style="mask-type:alpha" maskUnits="userSpaceOnUse" x="0" y="0" width="46" height="33">
<path d="M41.4666 0.666626H5.19995C2.84354 0.666626 0.933289 2.57688 0.933289 4.93329V28.4C0.933289 30.7564 2.84354 32.6666 5.19995 32.6666H41.4666C43.823 32.6666 45.7333 30.7564 45.7333 28.4V4.93329C45.7333 2.57688 43.823 0.666626 41.4666 0.666626Z" fill="white"/>
</mask>
<g mask="url(#mask0_3_28)">
<path d="M41.4666 0.666626H5.19995C2.84354 0.666626 0.933289 2.57688 0.933289 4.93329V28.4C0.933289 30.7564 2.84354 32.6666 5.19995 32.6666H41.4666C43.823 32.6666 45.7333 30.7564 45.7333 28.4V4.93329C45.7333 2.57688 43.823 0.666626 41.4666 0.666626Z" fill="#DE2110"/>
<path fill-rule="evenodd" clip-rule="evenodd" d="M0.933289 0.666626L30.8 16.6666L0.933289 32.6666V0.666626Z" fill="#FFC800"/>
<path fill-rule="evenodd" clip-rule="evenodd" d="M0.933289 0.666626L22.2666 16.6666L0.933289 32.6666V0.666626Z" fill="black"/>
<path fill-rule="evenodd" clip-rule="evenodd" d="M8.40003 19.3333L5.26403 20.9824L5.86137 17.4901L3.32697 15.0154L6.83203 14.5098L8.40003 11.3333L9.96803 14.512L13.4731 15.0176L10.9344 17.4922L11.5318 20.9824" fill="white"/>
<path d="M41.4667 1.73334H5.2C3.43269 1.73334 2 3.16603 2 4.93334V28.4C2 30.1673 3.43269 31.6 5.2 31.6H41.4667C43.234 31.6 44.6667 30.1673 44.6667 28.4V4.93334C44.6667 3.16603 43.234 1.73334 41.4667 1.73334Z" stroke="black" stroke-opacity="0.1" stroke-width="2.13333"/>
</g>
</g>
<defs>
<clipPath id="clip0_3_28">
<rect width="44.8" height="32" fill="white" transform="translate(0.933289 0.666626)"/>
</clipPath>
</defs>
</svg>
