<svg width="45" height="33" viewBox="0 0 45 33" fill="none" xmlns="http://www.w3.org/2000/svg">
<g clip-path="url(#clip0_3_27)">
<mask id="mask0_3_27" style="mask-type:alpha" maskUnits="userSpaceOnUse" x="0" y="0" width="45" height="33">
<path d="M40.6 0.666626H4.33332C1.9769 0.666626 0.0666504 2.57688 0.0666504 4.93329V28.4C0.0666504 30.7564 1.9769 32.6666 4.33332 32.6666H40.6C42.9564 32.6666 44.8666 30.7564 44.8666 28.4V4.93329C44.8666 2.57688 42.9564 0.666626 40.6 0.666626Z" fill="white"/>
</mask>
<g mask="url(#mask0_3_27)">
<path d="M40.6 0.666626H4.33332C1.9769 0.666626 0.0666504 2.57688 0.0666504 4.93329V28.4C0.0666504 30.7564 1.9769 32.6666 4.33332 32.6666H40.6C42.9564 32.6666 44.8666 30.7564 44.8666 28.4V4.93329C44.8666 2.57688 42.9564 0.666626 40.6 0.666626Z" fill="#2DB771"/>
<path fill-rule="evenodd" clip-rule="evenodd" d="M4.33337 0.666626H6.46671V32.6666H4.33337V0.666626ZM8.60004 0.666626H10.7334V32.6666H8.60004V0.666626ZM12.8667 0.666626H15V32.6666H12.8667V0.666626Z" fill="#D4B339"/>
<path fill-rule="evenodd" clip-rule="evenodd" d="M10.7334 0.666626L15 3.86663L10.7334 7.06663V0.666626ZM10.7334 7.06663L15 10.2666L10.7334 13.4666V7.06663ZM10.7334 13.4666L15 16.6666L10.7334 19.8666V13.4666ZM10.7334 19.8666L15 23.0666L10.7334 26.2666V19.8666ZM10.7334 26.2666L15 29.4666L10.7334 32.6666V26.2666ZM8.60004 0.666626L4.33337 3.86663L8.60004 7.06663V0.666626ZM8.60004 7.06663L4.33337 10.2666L8.60004 13.4666V7.06663ZM8.60004 13.4666L4.33337 16.6666L8.60004 19.8666V13.4666ZM8.60004 19.8666L4.33337 23.0666L8.60004 26.2666V19.8666ZM8.60004 26.2666L4.33337 29.4666L8.60004 32.6666V26.2666ZM8.60004 0.666626H10.7334V4.93329H8.60004V0.666626ZM8.60004 28.4H10.7334V32.6666H8.60004V28.4ZM8.60004 11.3333H10.7334V15.6H8.60004V11.3333ZM8.60004 7.06663H10.7334V9.19996H8.60004V7.06663ZM8.60004 24.1333H10.7334V26.2666H8.60004V24.1333ZM8.60004 17.7333H10.7334V22H8.60004V17.7333Z" fill="#AE6A3E"/>
<path fill-rule="evenodd" clip-rule="evenodd" d="M24.0368 7.09652C24.2224 7.07518 24.4101 7.06665 24.6 7.06665C27.544 7.06665 29.9333 9.45598 29.9333 12.4C29.9333 15.344 27.544 17.7333 24.6 17.7333C21.656 17.7333 19.2667 15.344 19.2667 12.4C19.2667 12.208 19.2773 12.0224 19.2965 11.8368C19.544 13.9573 21.3445 15.6 23.5333 15.6C25.8907 15.6 27.8 13.6907 27.8 11.3333C27.8 9.14665 26.1573 7.34398 24.0368 7.09652V7.09652ZM21.4 9.19998H23.5333V11.3333H21.4V9.19998Z" fill="white"/>
<path fill-rule="evenodd" clip-rule="evenodd" d="M17.1334 9.20002H19.2667V11.3333H17.1334V9.20002ZM21.4 4.93335H23.5334V7.06668H21.4V4.93335Z" fill="#9EE2C0"/>
<path d="M40.6 1.73334H4.3333C2.56599 1.73334 1.1333 3.16603 1.1333 4.93334V28.4C1.1333 30.1673 2.56599 31.6 4.3333 31.6H40.6C42.3673 31.6 43.8 30.1673 43.8 28.4V4.93334C43.8 3.16603 42.3673 1.73334 40.6 1.73334Z" stroke="black" stroke-opacity="0.1" stroke-width="2.13333"/>
</g>
</g>
<defs>
<clipPath id="clip0_3_27">
<rect width="44.8" height="32" fill="white" transform="translate(0.0666504 0.666626)"/>
</clipPath>
</defs>
</svg>
