<svg width="45" height="33" viewBox="0 0 45 33" fill="none" xmlns="http://www.w3.org/2000/svg">
<g clip-path="url(#clip0_3_26)">
<mask id="mask0_3_26" style="mask-type:alpha" maskUnits="userSpaceOnUse" x="0" y="0" width="45" height="33">
<path d="M40.7333 0.666626H4.46668C2.11026 0.666626 0.200012 2.57688 0.200012 4.93329V28.4C0.200012 30.7564 2.11026 32.6666 4.46668 32.6666H40.7333C43.0898 32.6666 45 30.7564 45 28.4V4.93329C45 2.57688 43.0898 0.666626 40.7333 0.666626Z" fill="white"/>
</mask>
<g mask="url(#mask0_3_26)">
<path d="M40.7333 0.666626H4.46668C2.11026 0.666626 0.200012 2.57688 0.200012 4.93329V28.4C0.200012 30.7564 2.11026 32.6666 4.46668 32.6666H40.7333C43.0898 32.6666 45 30.7564 45 28.4V4.93329C45 2.57688 43.0898 0.666626 40.7333 0.666626Z" fill="#EA0312"/>
<path d="M22.6 24.1333C26.7237 24.1333 30.0666 20.7904 30.0666 16.6667C30.0666 12.543 26.7237 9.20001 22.6 9.20001C18.4762 9.20001 15.1333 12.543 15.1333 16.6667C15.1333 20.7904 18.4762 24.1333 22.6 24.1333Z" fill="white"/>
<path fill-rule="evenodd" clip-rule="evenodd" d="M25.8 15.6H27.9334V17.7333H25.8V15.6Z" fill="#EA0312"/>
<path fill-rule="evenodd" clip-rule="evenodd" d="M26.8667 19.8666C25.8939 21.1616 24.3451 22 22.6 22C19.656 22 17.2667 19.6106 17.2667 16.6666C17.2667 13.7226 19.656 11.3333 22.6 11.3333C24.3451 11.3333 25.8939 12.1717 26.8667 13.4666H23.6667C21.9003 13.4666 20.4667 14.9002 20.4667 16.6666C20.4667 18.433 21.9003 19.8666 23.6667 19.8666H26.8667Z" fill="#EA0312"/>
<path d="M40.7333 1.73334H4.46666C2.69935 1.73334 1.26666 3.16603 1.26666 4.93334V28.4C1.26666 30.1673 2.69935 31.6 4.46666 31.6H40.7333C42.5006 31.6 43.9333 30.1673 43.9333 28.4V4.93334C43.9333 3.16603 42.5006 1.73334 40.7333 1.73334Z" stroke="black" stroke-opacity="0.1" stroke-width="2.13333"/>
</g>
</g>
<defs>
<clipPath id="clip0_3_26">
<rect width="44.8" height="32" fill="white" transform="translate(0.200012 0.666626)"/>
</clipPath>
</defs>
</svg>
