<svg width="45" height="32" viewBox="0 0 45 32" fill="none" xmlns="http://www.w3.org/2000/svg">
<mask id="mask0_3_25" style="mask-type:alpha" maskUnits="userSpaceOnUse" x="0" y="0" width="45" height="32">
<path d="M40.5333 0H4.26667C1.91025 0 0 1.91025 0 4.26667V27.7333C0 30.0898 1.91025 32 4.26667 32H40.5333C42.8897 32 44.8 30.0898 44.8 27.7333V4.26667C44.8 1.91025 42.8897 0 40.5333 0Z" fill="white"/>
</mask>
<g mask="url(#mask0_3_25)">
<path d="M40.5333 0H4.26667C1.91025 0 0 1.91025 0 4.26667V27.7333C0 30.0898 1.91025 32 4.26667 32H40.5333C42.8897 32 44.8 30.0898 44.8 27.7333V4.26667C44.8 1.91025 42.8897 0 40.5333 0Z" fill="#C80200"/>
<path fill-rule="evenodd" clip-rule="evenodd" d="M0 0H23.4667V19.2H0V0Z" fill="white"/>
<path fill-rule="evenodd" clip-rule="evenodd" d="M14.9333 8.53333V4.26666H10.6667V8.53333H6.39999V12.8H10.6667V17.0667H14.9333V12.8H19.2V8.53333H14.9333Z" fill="#C80200"/>
<path d="M40.5333 1.06665H4.26667C2.49935 1.06665 1.06667 2.49934 1.06667 4.26665V27.7333C1.06667 29.5006 2.49935 30.9333 4.26667 30.9333H40.5333C42.3006 30.9333 43.7333 29.5006 43.7333 27.7333V4.26665C43.7333 2.49934 42.3006 1.06665 40.5333 1.06665Z" stroke="black" stroke-opacity="0.1" stroke-width="2.13333"/>
</g>
</svg>
