<svg width="45" height="32" viewBox="0 0 45 32" fill="none" xmlns="http://www.w3.org/2000/svg">
<mask id="mask0_3_24" style="mask-type:alpha" maskUnits="userSpaceOnUse" x="0" y="0" width="45" height="32">
<path d="M40.6667 0H4.40001C2.0436 0 0.133347 1.91025 0.133347 4.26667V27.7333C0.133347 30.0898 2.0436 32 4.40001 32H40.6667C43.0231 32 44.9333 30.0898 44.9333 27.7333V4.26667C44.9333 1.91025 43.0231 0 40.6667 0Z" fill="white"/>
</mask>
<g mask="url(#mask0_3_24)">
<path d="M40.6667 0H4.40001C2.0436 0 0.133347 1.91025 0.133347 4.26667V27.7333C0.133347 30.0898 2.0436 32 4.40001 32H40.6667C43.0231 32 44.9333 30.0898 44.9333 27.7333V4.26667C44.9333 1.91025 43.0231 0 40.6667 0Z" fill="#E70B17"/>
<path fill-rule="evenodd" clip-rule="evenodd" d="M30.0043 18.4576L27.5253 19.7589L27.9989 17.0005L25.9936 15.0443L28.7669 14.6389L30.0043 12.1301L31.2416 14.6411L34.0149 15.0464L32.0096 16.9984L32.4832 19.7568" fill="white"/>
<path fill-rule="evenodd" clip-rule="evenodd" d="M20.4 23.4667C24.5237 23.4667 27.8667 20.1237 27.8667 16C27.8667 11.8763 24.5237 8.53333 20.4 8.53333C16.2763 8.53333 12.9333 11.8763 12.9333 16C12.9333 20.1237 16.2763 23.4667 20.4 23.4667ZM22.5333 21.3333C25.4773 21.3333 27.8667 18.944 27.8667 16C27.8667 13.056 25.4773 10.6667 22.5333 10.6667C19.5893 10.6667 17.2 13.056 17.2 16C17.2 18.944 19.5893 21.3333 22.5333 21.3333Z" fill="white"/>
<path d="M40.6667 1.06665H4.4C2.63269 1.06665 1.2 2.49934 1.2 4.26665V27.7333C1.2 29.5006 2.63269 30.9333 4.4 30.9333H40.6667C42.434 30.9333 43.8667 29.5006 43.8667 27.7333V4.26665C43.8667 2.49934 42.434 1.06665 40.6667 1.06665Z" stroke="black" stroke-opacity="0.1" stroke-width="2.13333"/>
</g>
</svg>
