<svg width="46" height="32" viewBox="0 0 46 32" fill="none" xmlns="http://www.w3.org/2000/svg">
<g clip-path="url(#clip0_3_23)">
<mask id="mask0_3_23" style="mask-type:alpha" maskUnits="userSpaceOnUse" x="0" y="0" width="46" height="32">
<path d="M40.8 0H4.53336C2.17694 0 0.266693 1.91025 0.266693 4.26667V27.7333C0.266693 30.0898 2.17694 32 4.53336 32H40.8C43.1564 32 45.0667 30.0898 45.0667 27.7333V4.26667C45.0667 1.91025 43.1564 0 40.8 0Z" fill="white"/>
</mask>
<g mask="url(#mask0_3_23)">
<path d="M40.8 0H4.53336C2.17694 0 0.266693 1.91025 0.266693 4.26667V27.7333C0.266693 30.0898 2.17694 32 4.53336 32H40.8C43.1564 32 45.0667 30.0898 45.0667 27.7333V4.26667C45.0667 1.91025 43.1564 0 40.8 0Z" fill="#D4112A"/>
<path fill-rule="evenodd" clip-rule="evenodd" d="M15.2 0L45.0667 32H30.1334L0.266693 0H15.2Z" fill="white"/>
<path fill-rule="evenodd" clip-rule="evenodd" d="M13.0667 0L42.9333 32H32.2667L2.39999 0H15.2H13.0667Z" fill="black"/>
<path d="M40.8 1.06665H4.53331C2.766 1.06665 1.33331 2.49934 1.33331 4.26665V27.7333C1.33331 29.5006 2.766 30.9333 4.53331 30.9333H40.8C42.5673 30.9333 44 29.5006 44 27.7333V4.26665C44 2.49934 42.5673 1.06665 40.8 1.06665Z" stroke="black" stroke-opacity="0.1" stroke-width="2.13333"/>
</g>
</g>
<defs>
<clipPath id="clip0_3_23">
<rect width="44.8" height="32" fill="white" transform="translate(0.266693)"/>
</clipPath>
</defs>
</svg>
