<svg width="46" height="32" viewBox="0 0 46 32" fill="none" xmlns="http://www.w3.org/2000/svg">
<g clip-path="url(#clip0_3_22)">
<mask id="mask0_3_22" style="mask-type:alpha" maskUnits="userSpaceOnUse" x="0" y="0" width="46" height="32">
<path d="M40.9333 0H4.66666C2.31025 0 0.399994 1.91025 0.399994 4.26667V27.7333C0.399994 30.0898 2.31025 32 4.66666 32H40.9333C43.2897 32 45.2 30.0898 45.2 27.7333V4.26667C45.2 1.91025 43.2897 0 40.9333 0Z" fill="white"/>
</mask>
<g mask="url(#mask0_3_22)">
<path d="M40.9333 0H4.66666C2.31025 0 0.399994 1.91025 0.399994 4.26667V27.7333C0.399994 30.0898 2.31025 32 4.66666 32H40.9333C43.2897 32 45.2 30.0898 45.2 27.7333V4.26667C45.2 1.91025 43.2897 0 40.9333 0Z" fill="#66A1BA"/>
<path fill-rule="evenodd" clip-rule="evenodd" d="M30.2667 10.6667V12.8H32.4V10.6667H30.2667ZM36.6667 10.6667V12.8H38.8V10.6667H36.6667ZM26 17.0667V19.2H28.1333V17.0667H26ZM34.5333 19.2V21.3334H36.6667V19.2H34.5333ZM26 23.4667V25.6H28.1333V23.4667H26ZM17.4667 21.3334V23.4667H19.6V21.3334H17.4667Z" fill="#FFD400"/>
<path d="M19.6 2.13336H4.66666C3.48845 2.13336 2.53333 3.08849 2.53333 4.2667V14.9334C2.53333 16.1116 3.48845 17.0667 4.66666 17.0667H19.6C20.7782 17.0667 21.7333 16.1116 21.7333 14.9334V4.2667C21.7333 3.08849 20.7782 2.13336 19.6 2.13336Z" fill="white"/>
<path fill-rule="evenodd" clip-rule="evenodd" d="M11.0667 10.6667H4.66666V8.53333H11.0667V4.26666H13.2V8.53333H19.6V10.6667H13.2V14.9333H11.0667V10.6667ZM16.4 12.8V14.9333H19.6V12.8H16.4ZM16.4 4.26666V6.4H19.6V4.26666H16.4ZM4.66666 12.8V14.9333H7.86666V12.8H4.66666ZM4.66666 4.26666V6.4H7.86666V4.26666H4.66666Z" fill="#FF0000"/>
<path d="M40.9333 1.06665H4.66668C2.89936 1.06665 1.46667 2.49934 1.46667 4.26665V27.7333C1.46667 29.5006 2.89936 30.9333 4.66668 30.9333H40.9333C42.7007 30.9333 44.1333 29.5006 44.1333 27.7333V4.26665C44.1333 2.49934 42.7007 1.06665 40.9333 1.06665Z" stroke="black" stroke-opacity="0.1" stroke-width="2.13333"/>
</g>
</g>
<defs>
<clipPath id="clip0_3_22">
<rect width="44.8" height="32" fill="white" transform="translate(0.399994)"/>
</clipPath>
</defs>
</svg>
