<svg width="46" height="32" viewBox="0 0 46 32" fill="none" xmlns="http://www.w3.org/2000/svg">
<g clip-path="url(#clip0_3_21)">
<mask id="mask0_3_21" style="mask-type:alpha" maskUnits="userSpaceOnUse" x="0" y="0" width="46" height="32">
<path d="M41.0667 0H4.79999C2.44358 0 0.533325 1.91025 0.533325 4.26667V27.7333C0.533325 30.0898 2.44358 32 4.79999 32H41.0667C43.4231 32 45.3333 30.0898 45.3333 27.7333V4.26667C45.3333 1.91025 43.4231 0 41.0667 0Z" fill="white"/>
</mask>
<g mask="url(#mask0_3_21)">
<path d="M41.0667 0H4.79999C2.44358 0 0.533325 1.91025 0.533325 4.26667V27.7333C0.533325 30.0898 2.44358 32 4.79999 32H41.0667C43.4231 32 45.3333 30.0898 45.3333 27.7333V4.26667C45.3333 1.91025 43.4231 0 41.0667 0Z" fill="#20BD42"/>
<path fill-rule="evenodd" clip-rule="evenodd" d="M0.533325 32H45.3333V4.26666L0.533325 27.7333V32Z" fill="#03ACE1"/>
<path fill-rule="evenodd" clip-rule="evenodd" d="M0.533325 29.8666L45.3333 6.39997V-2.13336L0.533325 21.3333V29.8666Z" fill="#FCD715"/>
<path fill-rule="evenodd" clip-rule="evenodd" d="M0.533325 34.1334L45.3333 10.6667V2.13336L0.533325 25.6V34.1334Z" fill="#FCD715"/>
<path fill-rule="evenodd" clip-rule="evenodd" d="M0.533325 32L45.3333 8.53333V0L0.533325 23.4667V32Z" fill="black"/>
<path d="M41.0667 1.06665H4.80001C3.03269 1.06665 1.60001 2.49934 1.60001 4.26665V27.7333C1.60001 29.5006 3.03269 30.9333 4.80001 30.9333H41.0667C42.834 30.9333 44.2667 29.5006 44.2667 27.7333V4.26665C44.2667 2.49934 42.834 1.06665 41.0667 1.06665Z" stroke="black" stroke-opacity="0.1" stroke-width="2.13333"/>
</g>
</g>
<defs>
<clipPath id="clip0_3_21">
<rect width="44.8" height="32" fill="white" transform="translate(0.533325)"/>
</clipPath>
</defs>
</svg>
