<svg width="46" height="32" viewBox="0 0 46 32" fill="none" xmlns="http://www.w3.org/2000/svg">
<g clip-path="url(#clip0_3_19)">
<mask id="mask0_3_19" style="mask-type:alpha" maskUnits="userSpaceOnUse" x="0" y="0" width="46" height="32">
<path d="M41.3333 0H5.06665C2.71024 0 0.799988 1.91025 0.799988 4.26667V27.7333C0.799988 30.0898 2.71024 32 5.06665 32H41.3333C43.6897 32 45.6 30.0898 45.6 27.7333V4.26667C45.6 1.91025 43.6897 0 41.3333 0Z" fill="white"/>
</mask>
<g mask="url(#mask0_3_19)">
<path d="M41.3333 0H5.06665C2.71024 0 0.799988 1.91025 0.799988 4.26667V27.7333C0.799988 30.0898 2.71024 32 5.06665 32H41.3333C43.6897 32 45.6 30.0898 45.6 27.7333V4.26667C45.6 1.91025 43.6897 0 41.3333 0Z" fill="#FCE102"/>
<path fill-rule="evenodd" clip-rule="evenodd" d="M0.799988 0H45.6V4.26667H0.799988V0Z" fill="black"/>
<path fill-rule="evenodd" clip-rule="evenodd" d="M0.799988 8.53333H45.6V14.9333H0.799988V8.53333Z" fill="#DE0200"/>
<path fill-rule="evenodd" clip-rule="evenodd" d="M0.799988 14.9333H45.6V21.3333H0.799988V14.9333Z" fill="black"/>
<path d="M43.4667 25.6H2.93332C1.75511 25.6 0.799988 26.5551 0.799988 27.7333V29.8666C0.799988 31.0448 1.75511 32 2.93332 32H43.4667C44.6449 32 45.6 31.0448 45.6 29.8666V27.7333C45.6 26.5551 44.6449 25.6 43.4667 25.6Z" fill="#DE0200"/>
<path d="M22.1333 21.3333C25.668 21.3333 28.5333 18.4679 28.5333 14.9333C28.5333 11.3987 25.668 8.53333 22.1333 8.53333C18.5987 8.53333 15.7333 11.3987 15.7333 14.9333C15.7333 18.4679 18.5987 21.3333 22.1333 21.3333Z" fill="white"/>
<path fill-rule="evenodd" clip-rule="evenodd" d="M22.1333 8.53333L20 14.9333L22.1333 19.2L24.2667 14.9333V21.3333L26.4 14.9333L24.2667 12.8L22.1333 14.9333V8.53333Z" fill="black"/>
<path d="M41.3333 1.06665H5.06664C3.29933 1.06665 1.86664 2.49934 1.86664 4.26665V27.7333C1.86664 29.5006 3.29933 30.9333 5.06664 30.9333H41.3333C43.1006 30.9333 44.5333 29.5006 44.5333 27.7333V4.26665C44.5333 2.49934 43.1006 1.06665 41.3333 1.06665Z" stroke="black" stroke-opacity="0.1" stroke-width="2.13333"/>
</g>
</g>
<defs>
<clipPath id="clip0_3_19">
<rect width="44.8" height="32" fill="white" transform="translate(0.799988)"/>
</clipPath>
</defs>
</svg>
