<svg width="46" height="32" viewBox="0 0 46 32" fill="none" xmlns="http://www.w3.org/2000/svg">
<g clip-path="url(#clip0_3_18)">
<mask id="mask0_3_18" style="mask-type:alpha" maskUnits="userSpaceOnUse" x="0" y="0" width="46" height="32">
<path d="M41.4666 0H5.19995C2.84354 0 0.933289 1.91025 0.933289 4.26667V27.7333C0.933289 30.0898 2.84354 32 5.19995 32H41.4666C43.823 32 45.7333 30.0898 45.7333 27.7333V4.26667C45.7333 1.91025 43.823 0 41.4666 0Z" fill="white"/>
</mask>
<g mask="url(#mask0_3_18)">
<path d="M41.4666 0H5.19995C2.84354 0 0.933289 1.91025 0.933289 4.26667V27.7333C0.933289 30.0898 2.84354 32 5.19995 32H41.4666C43.823 32 45.7333 30.0898 45.7333 27.7333V4.26667C45.7333 1.91025 43.823 0 41.4666 0Z" fill="white"/>
<path fill-rule="evenodd" clip-rule="evenodd" d="M0.933289 0H20.1333V14.9333H0.933289V0Z" fill="#444379"/>
<path fill-rule="evenodd" clip-rule="evenodd" d="M3.06665 2.13336V4.2667H5.19998V2.13336H3.06665ZM7.33332 2.13336V4.2667H9.46665V2.13336H7.33332ZM11.6 2.13336V4.2667H13.7333V2.13336H11.6ZM15.8667 2.13336V4.2667H18V2.13336H15.8667ZM13.7333 4.2667V6.40003H15.8667V4.2667H13.7333ZM9.46665 4.2667V6.40003H11.6V4.2667H9.46665ZM5.19998 4.2667V6.40003H7.33332V4.2667H5.19998ZM3.06665 6.40003V8.53336H5.19998V6.40003H3.06665ZM7.33332 6.40003V8.53336H9.46665V6.40003H7.33332ZM11.6 6.40003V8.53336H13.7333V6.40003H11.6ZM15.8667 6.40003V8.53336H18V6.40003H15.8667ZM3.06665 10.6667V12.8H5.19998V10.6667H3.06665ZM7.33332 10.6667V12.8H9.46665V10.6667H7.33332ZM11.6 10.6667V12.8H13.7333V10.6667H11.6ZM15.8667 10.6667V12.8H18V10.6667H15.8667ZM13.7333 8.53336V10.6667H15.8667V8.53336H13.7333ZM9.46665 8.53336V10.6667H11.6V8.53336H9.46665ZM5.19998 8.53336V10.6667H7.33332V8.53336H5.19998Z" fill="#A7B6E7"/>
<path fill-rule="evenodd" clip-rule="evenodd" d="M20.1333 0V2.13333H45.7333V0H20.1333ZM20.1333 4.26667V6.4H45.7333V4.26667H20.1333ZM20.1333 8.53333V10.6667H45.7333V8.53333H20.1333ZM20.1333 12.8V14.9333H45.7333V12.8H20.1333ZM0.933289 17.0667V19.2H45.7333V17.0667H0.933289ZM0.933289 21.3333V23.4667H45.7333V21.3333H0.933289ZM0.933289 25.6V27.7333H45.7333V25.6H0.933289ZM0.933289 29.8667V32H45.7333V29.8667H0.933289Z" fill="#ED4C49"/>
<path d="M41.4667 1.06665H5.2C3.43269 1.06665 2 2.49934 2 4.26665V27.7333C2 29.5006 3.43269 30.9333 5.2 30.9333H41.4667C43.234 30.9333 44.6667 29.5006 44.6667 27.7333V4.26665C44.6667 2.49934 43.234 1.06665 41.4667 1.06665Z" stroke="black" stroke-opacity="0.1" stroke-width="2.13333"/>
</g>
</g>
<defs>
<clipPath id="clip0_3_18">
<rect width="44.8" height="32" fill="white" transform="translate(0.933289)"/>
</clipPath>
</defs>
</svg>
