<svg width="45" height="32" viewBox="0 0 45 32" fill="none" xmlns="http://www.w3.org/2000/svg">
<g clip-path="url(#clip0_3_17)">
<mask id="mask0_3_17" style="mask-type:alpha" maskUnits="userSpaceOnUse" x="0" y="0" width="45" height="32">
<path d="M40.6 0H4.33332C1.9769 0 0.0666504 1.91025 0.0666504 4.26667V27.7333C0.0666504 30.0898 1.9769 32 4.33332 32H40.6C42.9564 32 44.8666 30.0898 44.8666 27.7333V4.26667C44.8666 1.91025 42.9564 0 40.6 0Z" fill="white"/>
</mask>
<g mask="url(#mask0_3_17)">
<path d="M40.6 0H4.33332C1.9769 0 0.0666504 1.91025 0.0666504 4.26667V27.7333C0.0666504 30.0898 1.9769 32 4.33332 32H40.6C42.9564 32 44.8666 30.0898 44.8666 27.7333V4.26667C44.8666 1.91025 42.9564 0 40.6 0Z" fill="white"/>
<path fill-rule="evenodd" clip-rule="evenodd" d="M21.4 6.39996H44.8666V10.6666H21.4V6.39996ZM21.4 14.9333H44.8666V19.2H21.4V14.9333ZM0.0666504 23.4666H44.8666V27.7333H0.0666504V23.4666Z" fill="#005CB2"/>
<path fill-rule="evenodd" clip-rule="evenodd" d="M14.744 14.6773C14.2534 17.3333 13.1227 19.2 11.8 19.2C10.4774 19.2 9.34671 17.3355 8.85604 14.6773C6.20004 14.1867 4.33337 13.056 4.33337 11.7333C4.33337 10.4107 6.19791 9.28 8.85604 8.78933C9.34671 6.13333 10.4774 4.26666 11.8 4.26666C13.1227 4.26666 14.2534 6.1312 14.744 8.78933C17.4 9.28 19.2667 10.4107 19.2667 11.7333C19.2667 13.056 17.4022 14.1867 14.744 14.6773Z" fill="#FFEA7B"/>
<path fill-rule="evenodd" clip-rule="evenodd" d="M13.2656 13.1989C13.1291 16.6187 12.5254 19.2 11.8 19.2C11.0747 19.2 10.471 16.6187 10.3344 13.1989C6.91471 13.0624 4.33337 12.4587 4.33337 11.7333C4.33337 11.008 6.91471 10.4043 10.3344 10.2677C10.471 6.848 11.0747 4.26666 11.8 4.26666C12.5254 4.26666 13.1291 6.848 13.2656 10.2677C16.6854 10.4043 19.2667 11.008 19.2667 11.7333C19.2667 12.4587 16.6854 13.0624 13.2656 13.1989V13.1989Z" fill="#FCD715"/>
<path d="M11.8 14.9333C13.5673 14.9333 15 13.5006 15 11.7333C15 9.96601 13.5673 8.53333 11.8 8.53333C10.0327 8.53333 8.59998 9.96601 8.59998 11.7333C8.59998 13.5006 10.0327 14.9333 11.8 14.9333Z" fill="#FCD715"/>
<path d="M40.6 1.06665H4.3333C2.56599 1.06665 1.1333 2.49934 1.1333 4.26665V27.7333C1.1333 29.5006 2.56599 30.9333 4.3333 30.9333H40.6C42.3673 30.9333 43.8 29.5006 43.8 27.7333V4.26665C43.8 2.49934 42.3673 1.06665 40.6 1.06665Z" stroke="black" stroke-opacity="0.1" stroke-width="2.13333"/>
</g>
</g>
<defs>
<clipPath id="clip0_3_17">
<rect width="44.8" height="32" fill="white" transform="translate(0.0666504)"/>
</clipPath>
</defs>
</svg>
