<svg width="45" height="32" viewBox="0 0 45 32" fill="none" xmlns="http://www.w3.org/2000/svg">
<g clip-path="url(#clip0_3_16)">
<mask id="mask0_3_16" style="mask-type:alpha" maskUnits="userSpaceOnUse" x="0" y="0" width="45" height="32">
<path d="M40.7333 0H4.46668C2.11026 0 0.200012 1.91025 0.200012 4.26667V27.7333C0.200012 30.0898 2.11026 32 4.46668 32H40.7333C43.0898 32 45 30.0898 45 27.7333V4.26667C45 1.91025 43.0898 0 40.7333 0Z" fill="white"/>
</mask>
<g mask="url(#mask0_3_16)">
<path d="M40.7333 0H4.46668C2.11026 0 0.200012 1.91025 0.200012 4.26667V27.7333C0.200012 30.0898 2.11026 32 4.46668 32H40.7333C43.0898 32 45 30.0898 45 27.7333V4.26667C45 1.91025 43.0898 0 40.7333 0Z" fill="#D4112A"/>
<path fill-rule="evenodd" clip-rule="evenodd" d="M0.200012 23.4667H45V32H0.200012V23.4667Z" fill="#20BD42"/>
<path fill-rule="evenodd" clip-rule="evenodd" d="M0.200012 0H45V8.53333H0.200012V0Z" fill="#02A3BD"/>
<path fill-rule="evenodd" clip-rule="evenodd" d="M0.200012 10.6667H45V21.3334H0.200012V10.6667ZM10.8667 8.35203C10.5339 8.46936 10.1733 8.53336 9.80001 8.53336C8.03361 8.53336 6.60001 7.09976 6.60001 5.33336C6.60001 3.56696 8.03361 2.13336 9.80001 2.13336C10.1733 2.13336 10.5339 2.19736 10.8667 2.3147C9.62294 2.75416 8.73335 3.9403 8.73335 5.33336C8.73335 6.72643 9.62294 7.9147 10.8667 8.35203Z" fill="white"/>
<path fill-rule="evenodd" clip-rule="evenodd" d="M13 4.2667H15.1333V6.40003H13V4.2667ZM15.1333 2.13336H17.2667V4.2667H15.1333V2.13336ZM17.2667 4.2667H19.4V6.40003H17.2667V4.2667ZM19.4 2.13336H21.5333V4.2667H19.4V2.13336ZM21.5333 4.2667H23.6667V6.40003H21.5333V4.2667ZM19.4 6.40003H21.5333V8.53336H19.4V6.40003ZM15.1333 6.40003H17.2667V8.53336H15.1333V6.40003Z" fill="#78CDDB"/>
<path d="M40.7333 1.06665H4.46666C2.69935 1.06665 1.26666 2.49934 1.26666 4.26665V27.7333C1.26666 29.5006 2.69935 30.9333 4.46666 30.9333H40.7333C42.5006 30.9333 43.9333 29.5006 43.9333 27.7333V4.26665C43.9333 2.49934 42.5006 1.06665 40.7333 1.06665Z" stroke="black" stroke-opacity="0.1" stroke-width="2.13333"/>
</g>
</g>
<defs>
<clipPath id="clip0_3_16">
<rect width="44.8" height="32" fill="white" transform="translate(0.200012)"/>
</clipPath>
</defs>
</svg>
