<svg width="45" height="33" viewBox="0 0 45 33" fill="none" xmlns="http://www.w3.org/2000/svg">
<mask id="mask0_3_15" style="mask-type:alpha" maskUnits="userSpaceOnUse" x="0" y="0" width="45" height="33">
<path d="M40.6667 0.333374H4.40001C2.0436 0.333374 0.133347 2.24363 0.133347 4.60004V28.0667C0.133347 30.4231 2.0436 32.3334 4.40001 32.3334H40.6667C43.0231 32.3334 44.9333 30.4231 44.9333 28.0667V4.60004C44.9333 2.24363 43.0231 0.333374 40.6667 0.333374Z" fill="white"/>
</mask>
<g mask="url(#mask0_3_15)">
<path d="M40.6667 0.333374H4.40001C2.0436 0.333374 0.133347 2.24363 0.133347 4.60004V28.0667C0.133347 30.4231 2.0436 32.3334 4.40001 32.3334H40.6667C43.0231 32.3334 44.9333 30.4231 44.9333 28.0667V4.60004C44.9333 2.24363 43.0231 0.333374 40.6667 0.333374Z" fill="#FCD715"/>
<path fill-rule="evenodd" clip-rule="evenodd" d="M0.133347 0.333374H12.9333V32.3334H0.133347V0.333374Z" fill="#027DCD"/>
<path fill-rule="evenodd" clip-rule="evenodd" d="M32.1333 0.333374H44.9333V32.3334H32.1333V0.333374ZM17.2 15.2667L19.3333 11L21.4667 15.2667L19.3333 19.5334L17.2 15.2667ZM23.6 15.2667L25.7333 11L27.8667 15.2667L25.7333 19.5334L23.6 15.2667ZM20.4 19.5334L22.5333 15.2667L24.6667 19.5334L22.5333 23.8L20.4 19.5334Z" fill="#00A86B"/>
<path d="M40.6667 1.40002H4.4C2.63269 1.40002 1.2 2.83271 1.2 4.60002V28.0667C1.2 29.834 2.63269 31.2667 4.4 31.2667H40.6667C42.434 31.2667 43.8667 29.834 43.8667 28.0667V4.60002C43.8667 2.83271 42.434 1.40002 40.6667 1.40002Z" stroke="black" stroke-opacity="0.1" stroke-width="2.13333"/>
</g>
</svg>
