<svg width="46" height="33" viewBox="0 0 46 33" fill="none" xmlns="http://www.w3.org/2000/svg">
<g clip-path="url(#clip0_3_14)">
<mask id="mask0_3_14" style="mask-type:alpha" maskUnits="userSpaceOnUse" x="0" y="0" width="46" height="33">
<path d="M40.8 0.333374H4.53336C2.17694 0.333374 0.266693 2.24363 0.266693 4.60004V28.0667C0.266693 30.4231 2.17694 32.3334 4.53336 32.3334H40.8C43.1564 32.3334 45.0667 30.4231 45.0667 28.0667V4.60004C45.0667 2.24363 43.1564 0.333374 40.8 0.333374Z" fill="white"/>
</mask>
<g mask="url(#mask0_3_14)">
<path d="M40.8 0.333374H4.53336C2.17694 0.333374 0.266693 2.24363 0.266693 4.60004V28.0667C0.266693 30.4231 2.17694 32.3334 4.53336 32.3334H40.8C43.1564 32.3334 45.0667 30.4231 45.0667 28.0667V4.60004C45.0667 2.24363 43.1564 0.333374 40.8 0.333374Z" fill="#00207F"/>
<path fill-rule="evenodd" clip-rule="evenodd" d="M13.0667 17.4H15.2V19.5334H13.0667V17.4ZM17.3333 15.2667H19.4667V17.4H17.3333V15.2667ZM25.8667 15.2667H28V17.4H25.8667V15.2667ZM30.1333 17.4H32.2667V19.5334H30.1333V17.4ZM21.6 13.1334H23.7333V15.2667H21.6V13.1334Z" fill="#BCC9F0"/>
<path fill-rule="evenodd" clip-rule="evenodd" d="M0.266693 21.6667H45.0667V32.3334H0.266693V21.6667Z" fill="#D10D24"/>
<path fill-rule="evenodd" clip-rule="evenodd" d="M0.266693 0.333374H45.0667V11H0.266693V0.333374Z" fill="#FFCD00"/>
<path d="M40.8 1.40002H4.53331C2.766 1.40002 1.33331 2.83271 1.33331 4.60002V28.0667C1.33331 29.834 2.766 31.2667 4.53331 31.2667H40.8C42.5673 31.2667 44 29.834 44 28.0667V4.60002C44 2.83271 42.5673 1.40002 40.8 1.40002Z" stroke="black" stroke-opacity="0.1" stroke-width="2.13333"/>
</g>
</g>
<defs>
<clipPath id="clip0_3_14">
<rect width="44.8" height="32" fill="white" transform="translate(0.266693 0.333374)"/>
</clipPath>
</defs>
</svg>
