<svg width="46" height="33" viewBox="0 0 46 33" fill="none" xmlns="http://www.w3.org/2000/svg">
<g clip-path="url(#clip0_3_13)">
<mask id="mask0_3_13" style="mask-type:alpha" maskUnits="userSpaceOnUse" x="0" y="0" width="46" height="33">
<path d="M40.9333 0.333374H4.66666C2.31025 0.333374 0.399994 2.24363 0.399994 4.60004V28.0667C0.399994 30.4231 2.31025 32.3334 4.66666 32.3334H40.9333C43.2897 32.3334 45.2 30.4231 45.2 28.0667V4.60004C45.2 2.24363 43.2897 0.333374 40.9333 0.333374Z" fill="white"/>
</mask>
<g mask="url(#mask0_3_13)">
<path d="M40.9333 0.333374H4.66666C2.31025 0.333374 0.399994 2.24363 0.399994 4.60004V28.0667C0.399994 30.4231 2.31025 32.3334 4.66666 32.3334H40.9333C43.2897 32.3334 45.2 30.4231 45.2 28.0667V4.60004C45.2 2.24363 43.2897 0.333374 40.9333 0.333374Z" fill="white"/>
<path fill-rule="evenodd" clip-rule="evenodd" d="M32.9333 19.5333L34.5333 21.1333L29.7333 25.9333L28.1333 24.3333L32.9333 19.5333Z" fill="#0081C6"/>
<path fill-rule="evenodd" clip-rule="evenodd" d="M14.8 19.5333L13.2 21.1333L18 25.9333L19.6 24.3333L14.8 19.5333Z" fill="#369443"/>
<path fill-rule="evenodd" clip-rule="evenodd" d="M15.3333 19.5333H17.4667V21.6667L13.2 23.8L15.3333 19.5333Z" fill="#F4C53D"/>
<path fill-rule="evenodd" clip-rule="evenodd" d="M6.80002 15.2667H8.93335V21.6667H6.80002V15.2667ZM36.6667 15.2667H38.8V21.6667H36.6667V15.2667Z" fill="#0081C6"/>
<path fill-rule="evenodd" clip-rule="evenodd" d="M23.8667 8.86667V6.73334H19.6V8.86667L21.7333 11V15.2667H23.8667V8.86667ZM8.93332 8.86667L17.4667 11V17.4L8.93332 11V8.86667ZM36.6667 8.86667L28.1333 11V17.4L36.6667 11V8.86667ZM17.4667 23.8L22.8 25.9333L28.1333 23.8L26 21.6667H19.6L17.4667 23.8Z" fill="#F4C53D"/>
<path fill-rule="evenodd" clip-rule="evenodd" d="M17.4667 13.1334H28.1333V21.6667L22.8 23.8L17.4667 21.6667V13.1334Z" fill="#A60032"/>
<path fill-rule="evenodd" clip-rule="evenodd" d="M17.4667 11H28.1333V15.2667H17.4667V11Z" fill="#162667"/>
<path fill-rule="evenodd" clip-rule="evenodd" d="M19.6 15.2667H21.7333V21.6667H19.6V15.2667ZM23.8667 15.2667H26V21.6667H23.8667V15.2667Z" fill="white"/>
<path fill-rule="evenodd" clip-rule="evenodd" d="M30.2667 19.5333H28.1333V21.6667L32.4 23.8L30.2667 19.5333Z" fill="#F4C53D"/>
<path d="M40.9333 1.40002H4.66668C2.89936 1.40002 1.46667 2.83271 1.46667 4.60002V28.0667C1.46667 29.834 2.89936 31.2667 4.66668 31.2667H40.9333C42.7007 31.2667 44.1333 29.834 44.1333 28.0667V4.60002C44.1333 2.83271 42.7007 1.40002 40.9333 1.40002Z" stroke="black" stroke-opacity="0.1" stroke-width="2.13333"/>
</g>
</g>
<defs>
<clipPath id="clip0_3_13">
<rect width="44.8" height="32" fill="white" transform="translate(0.399994 0.333374)"/>
</clipPath>
</defs>
</svg>
