<svg width="46" height="33" viewBox="0 0 46 33" fill="none" xmlns="http://www.w3.org/2000/svg">
<g clip-path="url(#clip0_3_12)">
<mask id="mask0_3_12" style="mask-type:alpha" maskUnits="userSpaceOnUse" x="0" y="0" width="46" height="33">
<path d="M41.0667 0.333374H4.79999C2.44358 0.333374 0.533325 2.24363 0.533325 4.60004V28.0667C0.533325 30.4231 2.44358 32.3334 4.79999 32.3334H41.0667C43.4231 32.3334 45.3333 30.4231 45.3333 28.0667V4.60004C45.3333 2.24363 43.4231 0.333374 41.0667 0.333374Z" fill="white"/>
</mask>
<g mask="url(#mask0_3_12)">
<path d="M41.0667 0.333374H4.79999C2.44358 0.333374 0.533325 2.24363 0.533325 4.60004V28.0667C0.533325 30.4231 2.44358 32.3334 4.79999 32.3334H41.0667C43.4231 32.3334 45.3333 30.4231 45.3333 28.0667V4.60004C45.3333 2.24363 43.4231 0.333374 41.0667 0.333374Z" fill="#DC220D"/>
<path fill-rule="evenodd" clip-rule="evenodd" d="M22.9376 20.2374L18.4789 22.584L19.3323 17.6198L15.7269 14.1062L20.7104 13.3808L22.9376 8.8667L25.1669 13.3808L30.1483 14.1062L26.5429 17.6198L27.3963 22.5819" fill="#FFFF00"/>
<path d="M41.0667 1.40002H4.80001C3.03269 1.40002 1.60001 2.83271 1.60001 4.60002V28.0667C1.60001 29.834 3.03269 31.2667 4.80001 31.2667H41.0667C42.834 31.2667 44.2667 29.834 44.2667 28.0667V4.60002C44.2667 2.83271 42.834 1.40002 41.0667 1.40002Z" stroke="black" stroke-opacity="0.1" stroke-width="2.13333"/>
</g>
</g>
<defs>
<clipPath id="clip0_3_12">
<rect width="44.8" height="32" fill="white" transform="translate(0.533325 0.333374)"/>
</clipPath>
</defs>
</svg>
