<svg width="46" height="33" viewBox="0 0 46 33" fill="none" xmlns="http://www.w3.org/2000/svg">
<mask id="mask0_3_11" style="mask-type:alpha" maskUnits="userSpaceOnUse" x="0" y="0" width="46" height="33">
<path d="M41.2 0.333374H4.93332C2.57691 0.333374 0.666656 2.24363 0.666656 4.60004V28.0667C0.666656 30.4231 2.57691 32.3334 4.93332 32.3334H41.2C43.5564 32.3334 45.4667 30.4231 45.4667 28.0667V4.60004C45.4667 2.24363 43.5564 0.333374 41.2 0.333374Z" fill="white"/>
</mask>
<g mask="url(#mask0_3_11)">
<path d="M41.2 0.333374H4.93332C2.57691 0.333374 0.666656 2.24363 0.666656 4.60004V28.0667C0.666656 30.4231 2.57691 32.3334 4.93332 32.3334H41.2C43.5564 32.3334 45.4667 30.4231 45.4667 28.0667V4.60004C45.4667 2.24363 43.5564 0.333374 41.2 0.333374Z" fill="white"/>
<path fill-rule="evenodd" clip-rule="evenodd" d="M0.666656 19.5333H45.4667V32.3333H0.666656V19.5333Z" fill="#00963F"/>
<path fill-rule="evenodd" clip-rule="evenodd" d="M0.666656 0.333374H45.4667V13.1334H0.666656V0.333374Z" fill="#D4062E"/>
<path fill-rule="evenodd" clip-rule="evenodd" d="M20.3104 19.5334L4.93332 32.4038H0.666656V0.333374H4.93332L20.2933 13.1334H45.4667V19.5334H20.3104Z" fill="black"/>
<path fill-rule="evenodd" clip-rule="evenodd" d="M19.6533 17.4L1.73332 32.3334L0.666656 32.4038V0.333374H1.73332L19.6533 15.2667H45.4667V17.4H19.6533Z" fill="#FECF00"/>
<path fill-rule="evenodd" clip-rule="evenodd" d="M0.666656 2.46661L17.7333 16.3333L0.666656 30.1999V2.46661Z" fill="black"/>
<path fill-rule="evenodd" clip-rule="evenodd" d="M4.19305 20.2736C3.33972 19.2987 2.79999 17.8949 2.79999 16.3333C2.79999 13.3893 4.70932 11 7.06665 11C9.42399 11 11.3333 13.3893 11.3333 16.3333C11.3333 19.2773 9.42399 21.6667 7.06665 21.6667V19.5333C8.24425 19.5333 9.19999 18.0997 9.19999 16.3333C9.19999 14.5669 8.24425 13.1333 7.06665 13.1333C5.88905 13.1333 4.93332 14.5669 4.93332 16.3333C4.93332 17.3147 5.22772 18.1893 5.68852 18.7781L4.19519 20.2715L4.19305 20.2736Z" fill="#FECF00"/>
<path d="M41.2 1.40002H4.93334C3.16603 1.40002 1.73334 2.83271 1.73334 4.60002V28.0667C1.73334 29.834 3.16603 31.2667 4.93334 31.2667H41.2C42.9673 31.2667 44.4 29.834 44.4 28.0667V4.60002C44.4 2.83271 42.9673 1.40002 41.2 1.40002Z" stroke="black" stroke-opacity="0.1" stroke-width="2.13333"/>
</g>
</svg>
