<svg width="46" height="33" viewBox="0 0 46 33" fill="none" xmlns="http://www.w3.org/2000/svg">
<g clip-path="url(#clip0_3_10)">
<mask id="mask0_3_10" style="mask-type:alpha" maskUnits="userSpaceOnUse" x="0" y="0" width="46" height="33">
<path d="M41.3333 0.333374H5.06665C2.71024 0.333374 0.799988 2.24363 0.799988 4.60004V28.0667C0.799988 30.4231 2.71024 32.3334 5.06665 32.3334H41.3333C43.6897 32.3334 45.6 30.4231 45.6 28.0667V4.60004C45.6 2.24363 43.6897 0.333374 41.3333 0.333374Z" fill="white"/>
</mask>
<g mask="url(#mask0_3_10)">
<path d="M41.3333 0.333374H5.06665C2.71024 0.333374 0.799988 2.24363 0.799988 4.60004V28.0667C0.799988 30.4231 2.71024 32.3334 5.06665 32.3334H41.3333C43.6897 32.3334 45.6 30.4231 45.6 28.0667V4.60004C45.6 2.24363 43.6897 0.333374 41.3333 0.333374Z" fill="#D4112A"/>
<path fill-rule="evenodd" clip-rule="evenodd" d="M0.799988 0.333374H24.2667V17.4H0.799988V0.333374Z" fill="#02308A"/>
</g>
<mask id="mask1_3_10" style="mask-type:alpha" maskUnits="userSpaceOnUse" x="1" y="1" width="44" height="31">
<path d="M41.3333 1.40002H5.06664C3.29933 1.40002 1.86664 2.83271 1.86664 4.60002V28.0667C1.86664 29.834 3.29933 31.2667 5.06664 31.2667H41.3333C43.1006 31.2667 44.5333 29.834 44.5333 28.0667V4.60002C44.5333 2.83271 43.1006 1.40002 41.3333 1.40002Z" fill="white"/>
</mask>
<g mask="url(#mask1_3_10)">
<path d="M41.3333 1.40002H5.06664C3.29933 1.40002 1.86664 2.83271 1.86664 4.60002V28.0667C1.86664 29.834 3.29933 31.2667 5.06664 31.2667H41.3333C43.1006 31.2667 44.5333 29.834 44.5333 28.0667V4.60002C44.5333 2.83271 43.1006 1.40002 41.3333 1.40002Z" stroke="black" stroke-opacity="0.1" stroke-width="2.13333"/>
<path opacity="0.5" fill-rule="evenodd" clip-rule="evenodd" d="M11.4666 4.59998H13.6V6.73331H11.4666V4.59998ZM15.7333 6.73331H17.8666V8.86664H15.7333V6.73331ZM13.6 8.86664H15.7333V11H13.6V8.86664ZM11.4666 11H13.6V13.1333H11.4666V11ZM9.33331 6.73331H11.4666V8.86664H9.33331V6.73331Z" fill="white"/>
</g>
</g>
<defs>
<clipPath id="clip0_3_10">
<rect width="44.8" height="32" fill="white" transform="translate(0.799988 0.333374)"/>
</clipPath>
</defs>
</svg>
