<svg width="46" height="33" viewBox="0 0 46 33" fill="none" xmlns="http://www.w3.org/2000/svg">
<g clip-path="url(#clip0_3_9)">
<mask id="mask0_3_9" style="mask-type:alpha" maskUnits="userSpaceOnUse" x="0" y="0" width="46" height="33">
<path d="M41.4666 0.333374H5.19995C2.84354 0.333374 0.933289 2.24363 0.933289 4.60004V28.0667C0.933289 30.4231 2.84354 32.3334 5.19995 32.3334H41.4666C43.823 32.3334 45.7333 30.4231 45.7333 28.0667V4.60004C45.7333 2.24363 43.823 0.333374 41.4666 0.333374Z" fill="white"/>
</mask>
<g mask="url(#mask0_3_9)">
<path d="M41.4666 0.333374H5.19995C2.84354 0.333374 0.933289 2.24363 0.933289 4.60004V28.0667C0.933289 30.4231 2.84354 32.3334 5.19995 32.3334H41.4666C43.823 32.3334 45.7333 30.4231 45.7333 28.0667V4.60004C45.7333 2.24363 43.823 0.333374 41.4666 0.333374Z" fill="white"/>
<path fill-rule="evenodd" clip-rule="evenodd" d="M0.933289 21.6667H45.7333V32.3334H0.933289V21.6667Z" fill="black"/>
<path fill-rule="evenodd" clip-rule="evenodd" d="M0.933289 0.333374H45.7333V11H0.933289V0.333374Z" fill="#D0091E"/>
<path d="M41.4667 1.40002H5.2C3.43269 1.40002 2 2.83271 2 4.60002V28.0667C2 29.834 3.43269 31.2667 5.2 31.2667H41.4667C43.234 31.2667 44.6667 29.834 44.6667 28.0667V4.60002C44.6667 2.83271 43.234 1.40002 41.4667 1.40002Z" stroke="black" stroke-opacity="0.1" stroke-width="2.13333"/>
</g>
</g>
<defs>
<clipPath id="clip0_3_9">
<rect width="44.8" height="32" fill="white" transform="translate(0.933289 0.333374)"/>
</clipPath>
</defs>
</svg>
