<svg width="45" height="33" viewBox="0 0 45 33" fill="none" xmlns="http://www.w3.org/2000/svg">
<g clip-path="url(#clip0_3_8)">
<mask id="mask0_3_8" style="mask-type:alpha" maskUnits="userSpaceOnUse" x="0" y="0" width="45" height="33">
<path d="M40.6 0.333374H4.33332C1.9769 0.333374 0.0666504 2.24363 0.0666504 4.60004V28.0667C0.0666504 30.4231 1.9769 32.3334 4.33332 32.3334H40.6C42.9564 32.3334 44.8666 30.4231 44.8666 28.0667V4.60004C44.8666 2.24363 42.9564 0.333374 40.6 0.333374Z" fill="white"/>
</mask>
<g mask="url(#mask0_3_8)">
<path d="M40.6 0.333374H4.33332C1.9769 0.333374 0.0666504 2.24363 0.0666504 4.60004V28.0667C0.0666504 30.4231 1.9769 32.3334 4.33332 32.3334H40.6C42.9564 32.3334 44.8666 30.4231 44.8666 28.0667V4.60004C44.8666 2.24363 42.9564 0.333374 40.6 0.333374Z" fill="white"/>
<path fill-rule="evenodd" clip-rule="evenodd" d="M0.0666504 21.6667H44.8666V32.3334H0.0666504V21.6667Z" fill="#02269F"/>
<path fill-rule="evenodd" clip-rule="evenodd" d="M0.0666504 0.333374H44.8666V11H0.0666504V0.333374Z" fill="#E24038"/>
<path fill-rule="evenodd" clip-rule="evenodd" d="M17.161 21.6667L4.33332 32.4038H0.0666504V0.333374H4.33332L17.1333 11H44.8666V21.6667H17.161Z" fill="white"/>
<path fill-rule="evenodd" clip-rule="evenodd" d="M16.4933 19.5334L1.13332 32.3334L0.0666504 32.4038V0.333374H1.13332L16.4933 13.1334H44.8666V19.5334H16.4933Z" fill="#008557"/>
<path fill-rule="evenodd" clip-rule="evenodd" d="M0.0666504 6.73334L12.8666 16.3333L0.0666504 25.9333V6.73334Z" fill="#FFBE0F"/>
<path fill-rule="evenodd" clip-rule="evenodd" d="M0.0666504 8.8667L10.2 16.3334L0.0666504 23.8V8.8667Z" fill="black"/>
<path d="M40.6 1.40002H4.3333C2.56599 1.40002 1.1333 2.83271 1.1333 4.60002V28.0667C1.1333 29.834 2.56599 31.2667 4.3333 31.2667H40.6C42.3673 31.2667 43.8 29.834 43.8 28.0667V4.60002C43.8 2.83271 42.3673 1.40002 40.6 1.40002Z" stroke="black" stroke-opacity="0.1" stroke-width="2.13333"/>
</g>
</g>
<defs>
<clipPath id="clip0_3_8">
<rect width="44.8" height="32" fill="white" transform="translate(0.0666504 0.333374)"/>
</clipPath>
</defs>
</svg>
