<svg width="45" height="33" viewBox="0 0 45 33" fill="none" xmlns="http://www.w3.org/2000/svg">
<g clip-path="url(#clip0_3_7)">
<mask id="mask0_3_7" style="mask-type:alpha" maskUnits="userSpaceOnUse" x="0" y="0" width="45" height="33">
<path d="M40.7333 0.333374H4.46668C2.11026 0.333374 0.200012 2.24363 0.200012 4.60004V28.0667C0.200012 30.4231 2.11026 32.3334 4.46668 32.3334H40.7333C43.0898 32.3334 45 30.4231 45 28.0667V4.60004C45 2.24363 43.0898 0.333374 40.7333 0.333374Z" fill="white"/>
</mask>
<g mask="url(#mask0_3_7)">
<path d="M40.7333 0.333374H4.46668C2.11026 0.333374 0.200012 2.24363 0.200012 4.60004V28.0667C0.200012 30.4231 2.11026 32.3334 4.46668 32.3334H40.7333C43.0898 32.3334 45 30.4231 45 28.0667V4.60004C45 2.24363 43.0898 0.333374 40.7333 0.333374Z" fill="#0D8B00"/>
<path fill-rule="evenodd" clip-rule="evenodd" d="M40.7333 13.1334H45V32.3334H40.7333V13.1334Z" fill="#F17D00"/>
<path fill-rule="evenodd" clip-rule="evenodd" d="M36.4667 13.1334H40.7333V32.3334H36.4667V13.1334Z" fill="black"/>
<path fill-rule="evenodd" clip-rule="evenodd" d="M32.2 13.1334H36.4667V32.3334H32.2V13.1334Z" fill="#E11C00"/>
<path fill-rule="evenodd" clip-rule="evenodd" d="M30.0667 6.73331L36.4667 8.86664L38.6 11L40.7333 8.86664L47.1333 6.73331H38.6L36.4667 4.59998V6.73331H30.0667Z" fill="#F17D00"/>
<path d="M40.7333 1.40002H4.46666C2.69935 1.40002 1.26666 2.83271 1.26666 4.60002V28.0667C1.26666 29.834 2.69935 31.2667 4.46666 31.2667H40.7333C42.5006 31.2667 43.9333 29.834 43.9333 28.0667V4.60002C43.9333 2.83271 42.5006 1.40002 40.7333 1.40002Z" stroke="black" stroke-opacity="0.1" stroke-width="2.13333"/>
</g>
</g>
<defs>
<clipPath id="clip0_3_7">
<rect width="44.8" height="32" fill="white" transform="translate(0.200012 0.333374)"/>
</clipPath>
</defs>
</svg>
