<svg width="15" height="18" viewBox="0 0 15 18" fill="none" xmlns="http://www.w3.org/2000/svg">
<path d="M13.0667 9.34839L7.91672 14.5067C7.24156 15.1067 6.36267 15.4261 5.45982 15.3995C4.55697 15.373 3.69839 15.0024 3.0597 14.3637C2.42101 13.7251 2.05048 12.8665 2.0239 11.9636C1.99732 11.0608 2.3167 10.1819 2.91672 9.50672L9.58338 2.84005C9.98141 2.46197 10.5094 2.25116 11.0584 2.25116C11.6074 2.25116 12.1354 2.46197 12.5334 2.84005C12.9212 3.23304 13.1386 3.76294 13.1386 4.31505C13.1386 4.86716 12.9212 5.39706 12.5334 5.79005L6.78338 11.5317C6.72648 11.593 6.65806 11.6425 6.58203 11.6773C6.50601 11.7122 6.42386 11.7317 6.34029 11.7348C6.25672 11.7379 6.17335 11.7245 6.09496 11.6954C6.01656 11.6662 5.94467 11.622 5.88339 11.5651C5.8221 11.5081 5.77263 11.4397 5.73779 11.3637C5.70294 11.2877 5.68342 11.2055 5.68032 11.122C5.67723 11.0384 5.69062 10.955 5.71974 10.8766C5.74887 10.7982 5.79315 10.7263 5.85005 10.6651L10.1251 6.39839C10.282 6.24147 10.3701 6.02864 10.3701 5.80672C10.3701 5.5848 10.282 5.37197 10.1251 5.21505C9.96813 5.05813 9.7553 4.96998 9.53339 4.96998C9.31147 4.96998 9.09864 5.05813 8.94172 5.21505L4.66672 9.49839C4.45281 9.71064 4.28302 9.96314 4.16716 10.2413C4.0513 10.5195 3.99165 10.8179 3.99165 11.1192C3.99165 11.4206 4.0513 11.7189 4.16716 11.9971C4.28302 12.2753 4.45281 12.5278 4.66672 12.7401C5.1037 13.1563 5.68406 13.3885 6.28755 13.3885C6.89104 13.3885 7.47141 13.1563 7.90839 12.7401L13.6501 6.99005C14.3125 6.27918 14.6731 5.33895 14.6559 4.36744C14.6388 3.39593 14.2452 2.46901 13.5582 1.78194C12.8711 1.09488 11.9442 0.701319 10.9727 0.684178C10.0012 0.667037 9.06093 1.02765 8.35005 1.69005L1.68339 8.35672C0.784385 9.35242 0.304242 10.6566 0.342996 11.9975C0.381751 13.3385 0.936413 14.6127 1.89142 15.5549C2.84642 16.497 4.12812 17.0343 5.46946 17.0548C6.8108 17.0753 8.10833 16.5775 9.09172 15.6651L14.2501 10.5151C14.3278 10.4374 14.3894 10.3451 14.4314 10.2436C14.4735 10.1421 14.4951 10.0333 14.4951 9.92339C14.4951 9.8135 14.4735 9.7047 14.4314 9.60318C14.3894 9.50166 14.3278 9.40942 14.2501 9.33172C14.1724 9.25402 14.0801 9.19239 13.9786 9.15034C13.8771 9.10829 13.7683 9.08664 13.6584 9.08664C13.5485 9.08664 13.4397 9.10829 13.3382 9.15034C13.2367 9.19239 13.1444 9.25402 13.0667 9.33172V9.34839Z" fill="#E2E6FF"/>
</svg>
