<svg width="18" height="18" viewBox="0 0 18 18" fill="none" xmlns="http://www.w3.org/2000/svg">
<path d="M15.9502 6.7671L4.28354 0.933766C3.82312 0.704607 3.30322 0.623025 2.79473 0.700142C2.28625 0.77726 1.81392 1.00932 1.44215 1.3647C1.07038 1.72007 0.81725 2.18145 0.717283 2.68594C0.617317 3.19043 0.675374 3.71348 0.883539 4.18377L2.88354 8.65877C2.92892 8.76696 2.95229 8.88311 2.95229 9.00043C2.95229 9.11776 2.92892 9.23391 2.88354 9.3421L0.883539 13.8171C0.714123 14.1977 0.642503 14.6146 0.675187 15.0299C0.707872 15.4452 0.843825 15.8458 1.07069 16.1952C1.29756 16.5446 1.60814 16.8318 1.97423 17.0306C2.34031 17.2295 2.75027 17.3337 3.16687 17.3338C3.55707 17.3299 3.94145 17.2388 4.29187 17.0671L15.9585 11.2338C16.3724 11.0256 16.7202 10.7065 16.9633 10.3122C17.2063 9.91781 17.3351 9.46368 17.3351 9.00043C17.3351 8.53719 17.2063 8.08306 16.9633 7.6887C16.7202 7.29435 16.3724 6.97528 15.9585 6.7671H15.9502ZM15.2085 9.7421L3.54187 15.5754C3.38867 15.649 3.21665 15.674 3.04886 15.647C2.88107 15.62 2.72555 15.5424 2.60313 15.4245C2.48072 15.3066 2.39727 15.1541 2.36398 14.9875C2.33069 14.8208 2.34915 14.648 2.41687 14.4921L4.40854 10.0171C4.43432 9.95734 4.45658 9.89613 4.47521 9.83377H10.2169C10.4379 9.83377 10.6498 9.74597 10.8061 9.58969C10.9624 9.43341 11.0502 9.22145 11.0502 9.00043C11.0502 8.77942 10.9624 8.56746 10.8061 8.41118C10.6498 8.2549 10.4379 8.1671 10.2169 8.1671H4.47521C4.45658 8.10474 4.43432 8.04352 4.40854 7.98377L2.41687 3.50877C2.34915 3.3529 2.33069 3.18006 2.36398 3.01341C2.39727 2.84676 2.48072 2.69427 2.60313 2.57639C2.72555 2.45851 2.88107 2.38087 3.04886 2.35389C3.21665 2.32691 3.38867 2.35187 3.54187 2.42543L15.2085 8.25877C15.345 8.3287 15.4596 8.43494 15.5396 8.5658C15.6196 8.69666 15.6619 8.84706 15.6619 9.00043C15.6619 9.1538 15.6196 9.3042 15.5396 9.43506C15.4596 9.56592 15.345 9.67217 15.2085 9.7421V9.7421Z" fill="#03FF49"/>
</svg>
