<svg width="17" height="12" viewBox="0 0 17 12" fill="none" xmlns="http://www.w3.org/2000/svg">
<path d="M3.49998 3.50019H13.09L11.79 2.21019C11.6017 2.02188 11.4959 1.76649 11.4959 1.50019C11.4959 1.23388 11.6017 0.978489 11.79 0.790185C11.9783 0.601882 12.2337 0.496094 12.5 0.496094C12.7663 0.496094 13.0217 0.601882 13.21 0.790185L16.21 3.79019C16.301 3.88529 16.3724 3.99743 16.42 4.12019C16.52 4.36365 16.52 4.63672 16.42 4.88019C16.3724 5.00294 16.301 5.11508 16.21 5.21019L13.21 8.21019C13.117 8.30391 13.0064 8.37831 12.8846 8.42908C12.7627 8.47985 12.632 8.50598 12.5 8.50598C12.368 8.50598 12.2373 8.47985 12.1154 8.42908C11.9935 8.37831 11.8829 8.30391 11.79 8.21019C11.6963 8.11722 11.6219 8.00662 11.5711 7.88476C11.5203 7.7629 11.4942 7.6322 11.4942 7.50019C11.4942 7.36817 11.5203 7.23747 11.5711 7.11561C11.6219 6.99375 11.6963 6.88315 11.79 6.79019L13.09 5.50019H3.49998C3.23477 5.50019 2.98041 5.60554 2.79287 5.79308C2.60534 5.98062 2.49998 6.23497 2.49998 6.50019V10.5002C2.49998 10.7654 2.39463 11.0198 2.20709 11.2073C2.01955 11.3948 1.7652 11.5002 1.49998 11.5002C1.23477 11.5002 0.980411 11.3948 0.792874 11.2073C0.605338 11.0198 0.499982 10.7654 0.499982 10.5002V6.50019C0.499982 5.70454 0.816052 4.94147 1.37866 4.37886C1.94127 3.81626 2.70433 3.50019 3.49998 3.50019V3.50019Z" fill="#E2E6FF"/>
</svg>
