<svg width="18" height="18" viewBox="0 0 18 18" fill="none" xmlns="http://www.w3.org/2000/svg">
<path d="M14.8333 0.667969H3.16663C2.50358 0.667969 1.8677 0.931361 1.39886 1.4002C0.930018 1.86904 0.666626 2.50493 0.666626 3.16797V11.5013C0.666626 12.1643 0.930018 12.8002 1.39886 13.2691C1.8677 13.7379 2.50358 14.0013 3.16663 14.0013H12.825L15.9083 17.093C15.9862 17.1702 16.0785 17.2313 16.18 17.2728C16.2816 17.3142 16.3903 17.3353 16.5 17.3346C16.6093 17.3375 16.7177 17.3146 16.8166 17.268C16.9688 17.2055 17.0991 17.0993 17.191 16.9629C17.283 16.8264 17.3325 16.6658 17.3333 16.5013V3.16797C17.3333 2.50493 17.0699 1.86904 16.6011 1.4002C16.1322 0.931361 15.4963 0.667969 14.8333 0.667969ZM15.6666 14.493L13.7583 12.5763C13.6804 12.4991 13.5881 12.438 13.4865 12.3965C13.385 12.355 13.2763 12.334 13.1666 12.3346H3.16663C2.94561 12.3346 2.73365 12.2468 2.57737 12.0906C2.42109 11.9343 2.33329 11.7223 2.33329 11.5013V3.16797C2.33329 2.94695 2.42109 2.73499 2.57737 2.57871C2.73365 2.42243 2.94561 2.33464 3.16663 2.33464H14.8333C15.0543 2.33464 15.2663 2.42243 15.4225 2.57871C15.5788 2.73499 15.6666 2.94695 15.6666 3.16797V14.493Z" fill="#E2E6FF"/>
</svg>
