<svg width="17" height="16" viewBox="0 0 17 16" fill="none" xmlns="http://www.w3.org/2000/svg">
<path d="M15.2999 2.16746C14.4166 1.2818 13.2456 0.741239 11.9986 0.643431C10.7515 0.545622 9.51058 0.89701 8.49995 1.63412C7.43966 0.845487 6.11994 0.487882 4.80655 0.63332C3.49315 0.778758 2.28365 1.41644 1.42159 2.41794C0.559534 3.41945 0.108963 4.71039 0.160612 6.0308C0.212261 7.35121 0.762293 8.60301 1.69994 9.53412L6.87495 14.7175C7.30829 15.1439 7.89193 15.383 8.49995 15.383C9.10796 15.383 9.6916 15.1439 10.1249 14.7175L15.2999 9.53412C16.2729 8.55518 16.819 7.23102 16.819 5.85079C16.819 4.47056 16.2729 3.1464 15.2999 2.16746ZM14.1249 8.38412L8.94995 13.5591C8.89106 13.6186 8.82097 13.6658 8.74373 13.698C8.66649 13.7302 8.58363 13.7468 8.49995 13.7468C8.41626 13.7468 8.3334 13.7302 8.25616 13.698C8.17892 13.6658 8.10883 13.6186 8.04995 13.5591L2.87494 8.35912C2.22141 7.69108 1.85545 6.79368 1.85545 5.85912C1.85545 4.92457 2.22141 4.02717 2.87494 3.35912C3.54091 2.70161 4.43909 2.33293 5.37494 2.33293C6.3108 2.33293 7.20898 2.70161 7.87495 3.35912C7.95241 3.43723 8.04458 3.49922 8.14613 3.54153C8.24768 3.58384 8.3566 3.60562 8.46661 3.60562C8.57662 3.60562 8.68554 3.58384 8.78709 3.54153C8.88864 3.49922 8.98081 3.43723 9.05828 3.35912C9.72424 2.70161 10.6224 2.33293 11.5583 2.33293C12.4941 2.33293 13.3923 2.70161 14.0583 3.35912C14.7208 4.01841 15.0988 4.91095 15.1112 5.84553C15.1237 6.78011 14.7696 7.6824 14.1249 8.35912V8.38412Z" fill="#E2E6FF"/>
</svg>
