<svg width="20" height="20" viewBox="0 0 20 20" fill="none" xmlns="http://www.w3.org/2000/svg">
<path d="M14.1666 8.82564L10.5916 12.359C10.5141 12.4371 10.4219 12.4991 10.3204 12.5414C10.2188 12.5837 10.1099 12.6055 9.99992 12.6055C9.88991 12.6055 9.78098 12.5837 9.67944 12.5414C9.57789 12.4991 9.48572 12.4371 9.40825 12.359L5.87492 8.82564C5.79681 8.74817 5.73481 8.656 5.69251 8.55445C5.6502 8.4529 5.62842 8.34398 5.62842 8.23397C5.62842 8.12396 5.6502 8.01504 5.69251 7.91349C5.73481 7.81194 5.79681 7.71977 5.87492 7.6423C6.03105 7.48709 6.24226 7.39998 6.46242 7.39998C6.68257 7.39998 6.89378 7.48709 7.04992 7.6423L9.99992 10.5923L12.9499 7.6423C13.1051 7.48835 13.3146 7.40156 13.5332 7.40064C13.6429 7.4 13.7516 7.42102 13.8532 7.46249C13.9547 7.50396 14.047 7.56507 14.1249 7.6423C14.2058 7.71699 14.2711 7.80696 14.317 7.90702C14.363 8.00708 14.3886 8.11525 14.3925 8.22528C14.3963 8.33531 14.3784 8.44502 14.3396 8.54806C14.3008 8.65111 14.242 8.74545 14.1666 8.82564Z" fill="white"/>
</svg>
