<svg width="13" height="16" viewBox="0 0 13 16" fill="none" xmlns="http://www.w3.org/2000/svg">
<path d="M10.2406 7.00006V4.00003C10.2406 1.79498 8.51852 0 6.40062 0C4.28333 0 2.56067 1.79498 2.56067 4.00003V7.00006C1.50025 7.00006 0.640625 7.8956 0.640625 8.99994V13.9999C0.640625 15.1046 1.50025 16 2.56067 16H10.2406C11.3008 16 12.1606 15.1046 12.1606 13.9999V8.99994C12.1607 7.89557 11.3008 7.00006 10.2406 7.00006ZM6.88066 11.8466V13.4999C6.88066 13.7763 6.666 13.9999 6.40066 13.9999C6.13531 13.9999 5.92062 13.7763 5.92062 13.4999V11.8466C5.63888 11.6729 5.44068 11.3661 5.44068 11C5.44068 10.4472 5.87054 9.99998 6.40062 9.99998C6.93071 9.99998 7.36063 10.4472 7.36063 11C7.36066 11.3661 7.16224 11.6729 6.88066 11.8466ZM8.32054 7.00006H4.48065V4.00003C4.48065 2.89652 5.34169 1.99998 6.40062 1.99998C7.45905 1.99998 8.32051 2.89652 8.32051 4.00003V7.00006H8.32054Z" fill="#E2E6FF"/>
</svg>
