<svg width="17" height="17" viewBox="0 0 17 17" fill="none" xmlns="http://www.w3.org/2000/svg">
<path d="M11.4379 9.06123C12.214 8.45058 12.7805 7.6132 13.0586 6.6656C13.3367 5.71799 13.3125 4.70727 12.9894 3.77405C12.6663 2.84084 12.0603 2.03154 11.2558 1.45874C10.4514 0.885937 9.48836 0.578125 8.50079 0.578125C7.51323 0.578125 6.55021 0.885937 5.74574 1.45874C4.94126 2.03154 4.33531 2.84084 4.01221 3.77405C3.6891 4.70727 3.6649 5.71799 3.94298 6.6656C4.22105 7.6132 4.78756 8.45058 5.56371 9.06123C4.23377 9.59405 3.07335 10.4778 2.20616 11.6182C1.33898 12.7587 0.797528 14.1131 0.639541 15.5371C0.628105 15.641 0.637258 15.7462 0.666478 15.8466C0.695697 15.9471 0.744411 16.0408 0.809837 16.1224C0.941972 16.2872 1.13416 16.3927 1.34412 16.4158C1.55409 16.4389 1.76463 16.3776 1.92942 16.2455C2.09422 16.1134 2.19978 15.9212 2.22287 15.7112C2.39671 14.1637 3.13463 12.7344 4.29563 11.6965C5.45664 10.6586 6.95934 10.0849 8.51662 10.0849C10.0739 10.0849 11.5766 10.6586 12.7376 11.6965C13.8986 12.7344 14.6365 14.1637 14.8104 15.7112C14.8319 15.9058 14.9247 16.0854 15.0709 16.2155C15.2171 16.3456 15.4063 16.417 15.602 16.4158H15.6891C15.8966 16.3919 16.0863 16.287 16.2168 16.1239C16.3473 15.9608 16.408 15.7527 16.3858 15.545C16.2271 14.117 15.6827 12.7591 14.811 11.6169C13.9394 10.4747 12.7733 9.59123 11.4379 9.06123ZM8.50079 8.49914C7.87448 8.49914 7.26224 8.31342 6.74149 7.96546C6.22073 7.6175 5.81485 7.12294 5.57517 6.54431C5.33549 5.96567 5.27278 5.32896 5.39497 4.71469C5.51716 4.10042 5.81875 3.53617 6.26162 3.0933C6.70448 2.65044 7.26873 2.34884 7.883 2.22666C8.49728 2.10447 9.13399 2.16718 9.71262 2.40686C10.2913 2.64653 10.7858 3.05241 11.1338 3.57317C11.4817 4.09393 11.6675 4.70617 11.6675 5.33248C11.6675 6.17233 11.3338 6.97778 10.74 7.57165C10.1461 8.16551 9.34064 8.49914 8.50079 8.49914Z" fill="#E2E6FF"/>
</svg>
