<svg width="20" height="20" viewBox="0 0 20 20" fill="none" xmlns="http://www.w3.org/2000/svg">
<g opacity="0.8">
<path d="M17.8166 4.79847C17.7882 4.69206 17.7389 4.59234 17.6717 4.50509C17.6045 4.41783 17.5206 4.34477 17.425 4.29013L13.0916 1.79013C12.997 1.73469 12.8924 1.69847 12.7837 1.68354C12.6751 1.66861 12.5646 1.67527 12.4585 1.70314C12.3525 1.73101 12.2529 1.77954 12.1657 1.84595C12.0784 1.91236 12.0051 1.99534 11.95 2.09013L9.99996 5.47347L8.04996 2.09013C7.99482 1.99534 7.92152 1.91236 7.83425 1.84595C7.74698 1.77954 7.64746 1.73101 7.5414 1.70314C7.43534 1.67527 7.32482 1.66861 7.21617 1.68354C7.10753 1.69847 7.0029 1.73469 6.90829 1.79013L2.57496 4.29013C2.47932 4.34477 2.39546 4.41783 2.32823 4.50509C2.261 4.59234 2.21174 4.69206 2.18329 4.79847C2.12814 5.00967 2.15806 5.23409 2.26662 5.42347L5.59996 11.1151C5.22808 11.7964 5.02249 12.556 4.99996 13.3318C4.99797 14.0887 5.16786 14.8362 5.4968 15.5179C5.82575 16.1996 6.30517 16.7977 6.89892 17.2671C7.49267 17.7365 8.18524 18.065 8.92443 18.2279C9.66362 18.3907 10.4301 18.3835 11.1662 18.207C11.9022 18.0305 12.5885 17.6891 13.1734 17.2087C13.7583 16.7283 14.2265 16.1214 14.5427 15.4337C14.8589 14.746 15.0149 13.9955 14.9988 13.2387C14.9827 12.482 14.7951 11.7388 14.45 11.0651L17.7 5.4318C17.7604 5.33925 17.8019 5.23559 17.8219 5.12686C17.842 5.01813 17.8402 4.90649 17.8166 4.79847ZM4.16662 5.31513L7.04996 3.64847L9.73329 8.3318C8.58947 8.40247 7.50561 8.86782 6.66662 9.64847L4.16662 5.31513ZM9.99996 16.6651C9.1159 16.6651 8.26805 16.3139 7.64293 15.6888C7.01781 15.0637 6.66662 14.2159 6.66662 13.3318C6.66662 12.4477 7.01781 11.5999 7.64293 10.9748C8.26805 10.3497 9.1159 9.99847 9.99996 9.99847C10.884 9.99847 11.7319 10.3497 12.357 10.9748C12.9821 11.5999 13.3333 12.4477 13.3333 13.3318C13.3333 14.2159 12.9821 15.0637 12.357 15.6888C11.7319 16.3139 10.884 16.6651 9.99996 16.6651ZM13.3333 9.62347C12.8809 9.21023 12.3552 8.8852 11.7833 8.66513L10.9666 7.14013L12.9833 3.64847L15.8666 5.31513L13.3333 9.62347Z" fill="url(#paint0_linear_5_1775)"/>
</g>
<defs>
<linearGradient id="paint0_linear_5_1775" x1="0.0931605" y1="10.0467" x2="18.7796" y2="16.7988" gradientUnits="userSpaceOnUse">
<stop stop-color="#845625"/>
<stop offset="0.1125" stop-color="#A6671E"/>
<stop offset="0.232292" stop-color="#D38E57"/>
<stop offset="0.352083" stop-color="#F3D1B1"/>
<stop offset="0.471875" stop-color="#D38E57"/>
<stop offset="0.586458" stop-color="#A4661E"/>
<stop offset="0.70625" stop-color="#875724"/>
<stop offset="0.8" stop-color="#CF8A52"/>
<stop offset="0.904167" stop-color="#F2CEAD"/>
<stop offset="1" stop-color="#CF8A52"/>
</linearGradient>
</defs>
</svg>
