<svg width="30" height="31" viewBox="0 0 30 31" fill="none" xmlns="http://www.w3.org/2000/svg">
<g clip-path="url(#clip0_32_4069)">
<path d="M14.5779 7.3125C10.4453 7.3125 7.09961 10.7665 7.09961 15.0245C7.09961 19.2862 10.4489 22.7364 14.5779 22.7364C18.7105 22.7364 22.0561 19.2824 22.0561 15.0245C22.0561 10.7627 18.7068 7.3125 14.5779 7.3125ZM14.5779 20.0301C11.8953 20.0301 9.72392 17.7896 9.72392 15.0245C9.72392 12.2593 11.8965 10.0188 14.5779 10.0188C17.2593 10.0188 19.4318 12.2593 19.4318 15.0245C19.433 17.7896 17.2605 20.0301 14.5779 20.0301Z" fill="#E2E6FF"/>
<path d="M20.5819 0.0944103C17.9005 -0.0345815 11.259 -0.0283198 8.57514 0.0944103C6.21678 0.208374 4.13651 0.795725 2.45943 2.52522C-0.343399 5.41563 0.0148488 9.31044 0.0148488 15.0224C0.0148488 20.8684 -0.300895 24.673 2.45943 27.5196C5.27319 30.42 9.10461 30.0405 14.5779 30.0405C20.1933 30.0405 22.1315 30.0443 24.117 29.2516C26.8166 28.1708 28.8544 25.6824 29.0535 21.2127C29.1798 18.4463 29.1725 11.5985 29.0535 8.83079C28.8131 3.55465 26.0673 0.354899 20.5819 0.0944103ZM24.8262 25.6072C22.9888 27.502 20.4398 27.333 14.5427 27.333C8.4707 27.333 6.03583 27.4256 4.25917 25.5884C2.21291 23.4883 2.5833 20.1157 2.5833 15.0024C2.5833 8.08313 1.89474 3.10004 8.62857 2.74438C10.1757 2.68802 10.6311 2.66924 14.5257 2.66924L14.5803 2.70681C21.0519 2.70681 26.1293 2.008 26.4341 8.95101C26.5033 10.5352 26.5191 11.0111 26.5191 15.0211C26.5179 21.2102 26.632 23.7362 24.8262 25.6072Z" fill="#E2E6FF"/>
<path d="M22.353 8.80737C23.3181 8.80737 24.1005 8.00053 24.1005 7.00525C24.1005 6.00996 23.3181 5.20312 22.353 5.20312C21.3879 5.20312 20.6055 6.00996 20.6055 7.00525C20.6055 8.00053 21.3879 8.80737 22.353 8.80737Z" fill="#E2E6FF"/>
</g>
<defs>
<clipPath id="clip0_32_4069">
<rect width="29.1455" height="30.0563" fill="white"/>
</clipPath>
</defs>
</svg>
