<svg width="31" height="26" viewBox="0 0 31 26" fill="none" xmlns="http://www.w3.org/2000/svg">
<path d="M22.4208 0.191406C18.2267 0.191406 14.8053 3.56774 14.7727 7.73054L10.01 14.527C8.68127 14.4068 7.53537 14.6811 6.52223 15.296L0 12.6698V19.842L3.85723 21.3861C4.41452 23.9397 6.71008 25.8645 9.42642 25.8645C12.3795 25.8645 14.8265 23.6065 15.0958 20.7312L22.4283 15.3974C26.6349 15.3974 30.0563 12.0023 30.0563 7.7919L30.0551 7.79065C30.0551 3.6003 26.6337 0.191406 22.4208 0.191406ZM5.72197 22.1338C6.40576 22.3943 7.09705 22.6811 7.78209 22.9491C9.49405 23.6504 11.4389 22.8151 12.1227 21.1106C12.814 19.4062 11.9749 17.4826 10.2655 16.8L8.52097 16.0987C11.1183 15.5226 13.6193 17.4688 13.6205 20.1751C13.6193 22.4945 7.76205 25.9459 5.72197 22.1338ZM22.4283 12.8852C19.5967 12.8852 17.2962 10.6122 17.2962 7.7919C17.2962 4.98414 19.5905 2.69861 22.4283 2.69861C25.2398 2.69861 27.5404 4.98414 27.5404 7.7919C27.5404 10.6197 25.2386 12.8927 22.4283 12.8852Z" fill="#E2E6FF"/>
</svg>
