<svg width="31" height="31" viewBox="0 0 31 31" fill="none" xmlns="http://www.w3.org/2000/svg">
<g clip-path="url(#clip0_32_4075)">
<path d="M4.69004 27.3651H22.5473L21.6944 24.6036L23.7345 26.3544L25.6042 28.0301L29.0106 30.8766V3.91987C28.9255 2.24423 27.4828 0.820312 25.6944 0.820312L4.6963 0.82407C2.9092 0.82407 1.45898 2.25049 1.45898 3.92613V24.2643C1.45898 26.0313 2.9067 27.3651 4.69004 27.3651ZM17.8998 7.9374L17.8585 7.95243L17.8735 7.9374H17.8998ZM8.34314 9.52663C10.6387 7.856 12.7664 7.93615 12.7664 7.93615L12.938 8.10522C10.129 8.77522 8.85535 10.0301 8.85535 10.0301C8.85535 10.0301 9.19599 9.86351 9.79085 9.60929C13.5742 8.1215 17.7057 8.2292 21.5304 10.1127C21.5304 10.1127 20.2542 8.93928 17.618 8.18787L17.851 7.95869C18.2154 7.95994 20.144 8.02757 22.2079 9.53665C22.2079 9.53665 24.5172 13.4815 24.5172 18.3281C24.4408 18.2355 23.0845 20.4145 19.5942 20.4897C19.5942 20.4897 19.0031 19.8209 18.5823 19.2373C20.6237 18.6512 21.3876 17.479 21.3876 17.479C20.7176 17.9011 20.1064 18.1515 19.6105 18.402C18.8478 18.7376 18.0839 18.903 17.3212 19.072C13.7094 19.6581 11.6819 18.6775 9.76581 17.8998L9.11083 17.5667C9.11083 17.5667 9.87351 18.7389 11.8334 19.325C11.3187 19.9123 10.809 20.5798 10.809 20.5798C7.31997 20.4972 6.04759 18.3181 6.04759 18.3181C6.04759 13.464 8.34314 9.52663 8.34314 9.52663Z" fill="#E2E6FF"/>
<path d="M18.1253 16.8149C19.0157 16.8149 19.7408 16.0635 19.7408 15.1367C19.7408 14.2163 19.0195 13.4648 18.1253 13.4648V13.4686C17.2386 13.4686 16.5123 14.2175 16.5098 15.1442C16.5098 16.0635 17.2349 16.8149 18.1253 16.8149Z" fill="#E2E6FF"/>
<path d="M12.3421 16.8149C13.2325 16.8149 13.9576 16.0635 13.9576 15.1367C13.9576 14.2163 13.2375 13.4648 12.3471 13.4648L12.3421 13.4686C11.4517 13.4686 10.7266 14.2175 10.7266 15.1442C10.7266 16.0635 11.4517 16.8149 12.3421 16.8149Z" fill="#E2E6FF"/>
</g>
<defs>
<clipPath id="clip0_32_4075">
<rect width="30.0563" height="30.0563" fill="white" transform="translate(0.207031 0.820312)"/>
</clipPath>
</defs>
</svg>
