<svg width="28" height="28" viewBox="0 0 28 28" fill="none" xmlns="http://www.w3.org/2000/svg">
<path fill-rule="evenodd" clip-rule="evenodd" d="M20.667 2.4013C15.467 -0.532031 9.06699 0.401302 4.80033 4.26797V2.0013C4.80033 1.2013 4.26699 0.667969 3.46699 0.667969C2.66699 0.667969 2.13366 1.2013 2.13366 2.0013V8.0013C2.13366 8.13464 2.13366 8.26797 2.26699 8.4013V8.53464C2.40033 8.8013 2.66699 9.06797 2.93366 9.2013C3.20033 9.33463 3.33366 9.33464 3.46699 9.33464H9.46699C10.267 9.33464 10.8003 8.8013 10.8003 8.0013C10.8003 7.2013 10.267 6.66797 9.46699 6.66797H6.26699C8.26699 4.53464 11.067 3.33464 14.0003 3.33464C19.867 3.33464 24.667 8.13464 24.667 14.0013C24.667 14.8013 25.2003 15.3346 26.0003 15.3346C26.8003 15.3346 27.3337 14.8013 27.3337 14.0013C27.3337 9.2013 24.8003 4.8013 20.667 2.4013ZM24.5337 18.668H18.5337C17.7337 18.668 17.2003 19.2013 17.2003 20.0013C17.2003 20.8013 17.7337 21.3346 18.5337 21.3346H21.7337C19.7337 23.468 16.9337 24.668 14.0003 24.668C8.13366 24.668 3.33366 19.868 3.33366 14.0013C3.33366 13.2013 2.80033 12.668 2.00033 12.668C1.20033 12.668 0.666992 13.2013 0.666992 14.0013C0.666992 21.3346 6.66699 27.3346 14.0003 27.3346C17.467 27.3346 20.667 26.0013 23.2003 23.6013V26.0013C23.2003 26.8013 23.7337 27.3346 24.5337 27.3346C25.3337 27.3346 25.867 26.8013 25.867 26.0013V20.0013C25.867 19.2013 25.2003 18.668 24.5337 18.668Z" fill="#03FF49"/>
</svg>
