<svg width="17" height="19" viewBox="0 0 17 19" fill="none" xmlns="http://www.w3.org/2000/svg">
<path d="M16.7071 4.04054C16.6772 3.92881 16.6255 3.82411 16.5549 3.73249C16.4843 3.64087 16.3962 3.56416 16.2958 3.50679L11.7458 0.881789C11.6465 0.823573 11.5366 0.785537 11.4225 0.769863C11.3085 0.754189 11.1924 0.761185 11.081 0.790449C10.9697 0.819712 10.8652 0.870669 10.7736 0.940398C10.6819 1.01013 10.605 1.09725 10.5471 1.19679L8.49956 4.74929L6.45206 1.19679C6.39417 1.09725 6.3172 1.01013 6.22557 0.940398C6.13394 0.870669 6.02944 0.819712 5.91808 0.790449C5.80671 0.761185 5.69067 0.754189 5.57659 0.769863C5.46252 0.785537 5.35266 0.823573 5.25331 0.881789L0.703313 3.50679C0.602891 3.56416 0.51484 3.64087 0.444251 3.73249C0.373661 3.82411 0.321935 3.92881 0.292063 4.04054C0.234153 4.26231 0.265571 4.49794 0.379563 4.69679L3.87956 10.673C3.48909 11.3884 3.27322 12.1859 3.24956 13.0005C3.24748 13.7953 3.42586 14.5801 3.77125 15.2959C4.11665 16.0117 4.62004 16.6397 5.24347 17.1326C5.86691 17.6255 6.59412 17.9704 7.37026 18.1414C8.14641 18.3124 8.95124 18.3049 9.72407 18.1195C10.4969 17.9341 11.2176 17.5757 11.8317 17.0713C12.4459 16.5669 12.9375 15.9296 13.2695 15.2075C13.6015 14.4854 13.7652 13.6974 13.7484 12.9028C13.7315 12.1082 13.5344 11.3279 13.1721 10.6205L16.5846 4.70554C16.6481 4.60836 16.6916 4.49952 16.7126 4.38535C16.7337 4.27118 16.7318 4.15397 16.7071 4.04054ZM2.37456 4.58304L5.40206 2.83304L8.21956 7.75054C7.01856 7.82474 5.8805 8.31336 4.99956 9.13304L2.37456 4.58304ZM8.49956 16.5005C7.57131 16.5005 6.68107 16.1318 6.02469 15.4754C5.36831 14.819 4.99956 13.9288 4.99956 13.0005C4.99956 12.0723 5.36831 11.182 6.02469 10.5257C6.68107 9.86929 7.57131 9.50054 8.49956 9.50054C9.42782 9.50054 10.3181 9.86929 10.9744 10.5257C11.6308 11.182 11.9996 12.0723 11.9996 13.0005C11.9996 13.9288 11.6308 14.819 10.9744 15.4754C10.3181 16.1318 9.42782 16.5005 8.49956 16.5005ZM11.9996 9.10679C11.5245 8.67289 10.9725 8.33161 10.3721 8.10054L9.51456 6.49929L11.6321 2.83304L14.6596 4.58304L11.9996 9.10679Z" fill="#E2E6FF"/>
</svg>
