<svg width="20" height="21" viewBox="0 0 20 21" fill="none" xmlns="http://www.w3.org/2000/svg">
<path d="M19.3801 3.75894C19.346 3.63125 19.2868 3.51159 19.2062 3.40689C19.1255 3.30218 19.0249 3.21451 18.9101 3.14894L13.7101 0.148942C13.5966 0.082409 13.471 0.0389401 13.3406 0.0210269C13.2103 0.0031137 13.0776 0.0111084 12.9504 0.0445528C12.8231 0.0779972 12.7037 0.136234 12.5989 0.215923C12.4942 0.295613 12.4063 0.395188 12.3401 0.508941L10.0001 4.56894L7.66009 0.508941C7.59393 0.395188 7.50597 0.295613 7.40124 0.215923C7.29652 0.136234 7.1771 0.0779972 7.04982 0.0445528C6.92255 0.0111084 6.78993 0.0031137 6.65955 0.0210269C6.52918 0.0389401 6.40363 0.082409 6.29009 0.148942L1.09009 3.14894C0.975326 3.21451 0.874695 3.30218 0.794022 3.40689C0.713349 3.51159 0.654233 3.63125 0.620094 3.75894C0.55391 4.01239 0.589817 4.28169 0.720094 4.50894L4.72009 11.3389C4.27384 12.1565 4.02713 13.0679 4.00009 13.9989C3.99771 14.9072 4.20158 15.8042 4.59631 16.6222C4.99105 17.4403 5.56635 18.158 6.27885 18.7213C6.99135 19.2846 7.82244 19.6788 8.70947 19.8742C9.59649 20.0696 10.5163 20.061 11.3995 19.8492C12.2828 19.6373 13.1064 19.2277 13.8083 18.6512C14.5102 18.0747 15.072 17.3464 15.4514 16.5212C15.8309 15.6959 16.018 14.7953 15.9987 13.8873C15.9794 12.9792 15.7542 12.0873 15.3401 11.2789L19.2401 4.51894C19.3127 4.40788 19.3624 4.28349 19.3865 4.15301C19.4105 4.02253 19.4083 3.88857 19.3801 3.75894ZM3.00009 4.37894L6.46009 2.37894L9.68009 7.99894C8.30751 8.08374 7.00688 8.64217 6.00009 9.57894L3.00009 4.37894ZM10.0001 17.9989C8.93923 17.9989 7.92181 17.5775 7.17167 16.8274C6.42152 16.0772 6.00009 15.0598 6.00009 13.9989C6.00009 12.9381 6.42152 11.9207 7.17167 11.1705C7.92181 10.4204 8.93923 9.99894 10.0001 9.99894C11.061 9.99894 12.0784 10.4204 12.8285 11.1705C13.5787 11.9207 14.0001 12.9381 14.0001 13.9989C14.0001 15.0598 13.5787 16.0772 12.8285 16.8274C12.0784 17.5775 11.061 17.9989 10.0001 17.9989ZM14.0001 9.54894C13.4572 9.05305 12.8263 8.66302 12.1401 8.39894L11.1601 6.56894L13.5801 2.37894L17.0401 4.37894L14.0001 9.54894Z" fill="#E2E6FF"/>
</svg>
