<svg width="20" height="21" viewBox="0 0 20 21" fill="none" xmlns="http://www.w3.org/2000/svg">
<path d="M19.3798 4.18469C19.3457 4.0554 19.2866 3.93424 19.2059 3.82823C19.1252 3.72222 19.0246 3.63345 18.9098 3.56706L13.7098 0.529563C13.5963 0.462199 13.4708 0.418187 13.3404 0.400049C13.21 0.381912 13.0774 0.390007 12.9501 0.42387C12.8228 0.457732 12.7034 0.516696 12.5987 0.597382C12.494 0.678068 12.406 0.778888 12.3398 0.894063L9.99985 5.00481L7.65985 0.894063C7.59369 0.778888 7.50572 0.678068 7.401 0.597382C7.29628 0.516696 7.17685 0.457732 7.04958 0.42387C6.92231 0.390007 6.78968 0.381912 6.65931 0.400049C6.52894 0.418187 6.40339 0.462199 6.28985 0.529563L1.08985 3.56706C0.975081 3.63345 0.874451 3.72222 0.793778 3.82823C0.713105 3.93424 0.653989 4.0554 0.619849 4.18469C0.553666 4.4413 0.589573 4.71397 0.71985 4.94406L4.71985 11.8594C4.2736 12.6872 4.02689 13.61 3.99985 14.5527C3.99747 15.4723 4.20133 16.3805 4.59607 17.2088C4.9908 18.037 5.56611 18.7637 6.27861 19.3341C6.9911 19.9044 7.8222 20.3036 8.70922 20.5014C9.59625 20.6992 10.5161 20.6905 11.3993 20.476C12.2825 20.2615 13.1061 19.8468 13.808 19.2631C14.5099 18.6794 15.0718 17.942 15.4512 17.1065C15.8306 16.2709 16.0178 15.359 15.9985 14.4396C15.9792 13.5202 15.754 12.6172 15.3398 11.7987L19.2398 4.95419C19.3124 4.84174 19.3622 4.71579 19.3862 4.58368C19.4103 4.45157 19.4081 4.31594 19.3798 4.18469ZM2.99985 4.81244L6.45985 2.78744L9.67985 8.47769C8.30727 8.56355 7.00664 9.12895 5.99985 10.0774L2.99985 4.81244ZM9.99985 18.6027C8.93898 18.6027 7.92157 18.176 7.17142 17.4165C6.42128 16.6569 5.99985 15.6268 5.99985 14.5527C5.99985 13.4786 6.42128 12.4484 7.17142 11.6889C7.92157 10.9294 8.93898 10.5027 9.99985 10.5027C11.0607 10.5027 12.0781 10.9294 12.8283 11.6889C13.5784 12.4484 13.9998 13.4786 13.9998 14.5527C13.9998 15.6268 13.5784 16.6569 12.8283 17.4165C12.0781 18.176 11.0607 18.6027 9.99985 18.6027ZM13.9998 10.0471C13.4569 9.54498 12.8261 9.15007 12.1398 8.88269L11.1598 7.02981L13.5798 2.78744L17.0399 4.81244L13.9998 10.0471Z" fill="#03FF49"/>
</svg>
