<svg width="31" height="31" viewBox="0 0 31 31" fill="none" xmlns="http://www.w3.org/2000/svg">
<g clip-path="url(#clip0_3_6195)">
<path d="M4.69004 26.6436H22.5473L21.6944 23.9227L23.7345 25.6478L25.6042 27.2988L29.0106 30.1037V3.54237C28.9255 1.89131 27.4828 0.488281 25.6944 0.488281L4.6963 0.491983C2.9092 0.491983 1.45898 1.89748 1.45898 3.54854V23.5883C1.45898 25.3294 2.9067 26.6436 4.69004 26.6436ZM17.8998 7.50096L17.8585 7.51577L17.8735 7.50096H17.8998ZM8.34314 9.06687C10.6387 7.42075 12.7664 7.49972 12.7664 7.49972L12.938 7.66631C10.129 8.32649 8.85535 9.56293 8.85535 9.56293C8.85535 9.56293 9.19599 9.39881 9.79085 9.14831C13.5742 7.68235 17.7057 7.78847 21.5304 9.64437C21.5304 9.64437 20.2542 8.48814 17.618 7.74775L17.851 7.52193C18.2154 7.52317 20.144 7.5898 22.2079 9.07674C22.2079 9.07674 24.5172 12.9638 24.5172 17.7392C24.4408 17.6479 23.0845 19.795 19.5942 19.8691C19.5942 19.8691 19.0031 19.2101 18.5823 18.6351C20.6237 18.0576 21.3876 16.9026 21.3876 16.9026C20.7176 17.3185 20.1064 17.5653 19.6105 17.812C18.8478 18.1428 18.0839 18.3056 17.3212 18.4722C13.7094 19.0497 11.6819 18.0835 9.76581 17.3172L9.11083 16.989C9.11083 16.989 9.87351 18.144 11.8334 18.7215C11.3187 19.3002 10.809 19.9579 10.809 19.9579C7.31997 19.8765 6.04759 17.7294 6.04759 17.7294C6.04759 12.9465 8.34314 9.06687 8.34314 9.06687Z" fill="#E2E6FF"/>
<path d="M18.1253 16.2462C19.0157 16.2462 19.7408 15.5058 19.7408 14.5927C19.7408 13.6857 19.0195 12.9453 18.1253 12.9453V12.949C17.2386 12.949 16.5123 13.6869 16.5098 14.6001C16.5098 15.5058 17.2349 16.2462 18.1253 16.2462Z" fill="#E2E6FF"/>
<path d="M12.3421 16.2462C13.2325 16.2462 13.9576 15.5058 13.9576 14.5927C13.9576 13.6857 13.2375 12.9453 12.3471 12.9453L12.3421 12.949C11.4517 12.949 10.7266 13.6869 10.7266 14.6001C10.7266 15.5058 11.4517 16.2462 12.3421 16.2462Z" fill="#E2E6FF"/>
</g>
<defs>
<clipPath id="clip0_3_6195">
<rect width="30.0563" height="29.6154" fill="white" transform="translate(0.207031 0.488281)"/>
</clipPath>
</defs>
</svg>
