<svg width="16" height="18" viewBox="0 0 16 18" fill="none" xmlns="http://www.w3.org/2000/svg">
<path d="M15.8166 3.9626C15.7882 3.85952 15.7389 3.76292 15.6717 3.67839C15.6045 3.59386 15.5206 3.52309 15.425 3.47015L11.0916 1.04828C10.997 0.994568 10.8924 0.959476 10.7837 0.945014C10.6751 0.930553 10.5646 0.937007 10.4585 0.964007C10.3525 0.991006 10.2529 1.03802 10.1657 1.10235C10.0784 1.16669 10.0051 1.24707 9.94996 1.3389L7.99996 4.61651L6.04996 1.3389C5.99482 1.24707 5.92152 1.16669 5.83425 1.10235C5.74698 1.03802 5.64746 0.991006 5.5414 0.964007C5.43534 0.937007 5.32482 0.930553 5.21617 0.945014C5.10753 0.959476 5.0029 0.994568 4.90829 1.04828L0.574956 3.47015C0.479316 3.52309 0.395457 3.59386 0.32823 3.67839C0.261002 3.76292 0.211739 3.85952 0.183289 3.9626C0.128136 4.16721 0.158059 4.38461 0.266623 4.56807L3.59996 10.0819C3.22808 10.7419 3.02249 11.4777 2.99996 12.2293C2.99797 12.9625 3.16786 13.6866 3.4968 14.347C3.82575 15.0074 4.30517 15.5868 4.89892 16.0416C5.49267 16.4964 6.18524 16.8146 6.92443 16.9723C7.66362 17.13 8.43013 17.1231 9.16616 16.9521C9.90218 16.7811 10.5885 16.4504 11.1734 15.985C11.7583 15.5196 12.2265 14.9317 12.5427 14.2655C12.8589 13.5992 13.0149 12.8722 12.9988 12.1391C12.9827 11.406 12.7951 10.686 12.45 10.0334L15.7 4.57614C15.7604 4.48649 15.8019 4.38607 15.8219 4.28073C15.842 4.1754 15.8402 4.06725 15.8166 3.9626ZM2.16662 4.46312L5.04996 2.84854L7.73329 7.38552C6.58947 7.45398 5.50561 7.90479 4.66662 8.66104L2.16662 4.46312ZM7.99996 15.4584C7.1159 15.4584 6.26805 15.1182 5.64293 14.5126C5.01781 13.907 4.66662 13.0857 4.66662 12.2293C4.66662 11.3728 5.01781 10.5515 5.64293 9.9459C6.26805 9.34032 7.1159 9.0001 7.99996 9.0001C8.88401 9.0001 9.73186 9.34032 10.357 9.9459C10.9821 10.5515 11.3333 11.3728 11.3333 12.2293C11.3333 13.0857 10.9821 13.907 10.357 14.5126C9.73186 15.1182 8.88401 15.4584 7.99996 15.4584ZM11.3333 8.63682C10.8809 8.23649 10.3552 7.92162 9.78329 7.70843L8.96662 6.23109L10.9833 2.84854L13.8666 4.46312L11.3333 8.63682Z" fill="url(#paint0_linear_1420_635)"/>
<defs>
<linearGradient id="paint0_linear_1420_635" x1="0.15625" y1="11.7265" x2="15.8969" y2="16.2375" gradientUnits="userSpaceOnUse">
<stop stop-color="#B18718"/>
<stop offset="0.107292" stop-color="#D2A935"/>
<stop offset="0.232292" stop-color="#F2D77C"/>
<stop offset="0.352083" stop-color="#D2A935"/>
<stop offset="0.471875" stop-color="#B78D1D"/>
<stop offset="0.586458" stop-color="#D2A935"/>
<stop offset="0.711458" stop-color="#E9CA67"/>
<stop offset="0.836458" stop-color="#D2A935"/>
<stop offset="0.951042" stop-color="#B88E1E"/>
<stop offset="1" stop-color="#D6AF3E"/>
</linearGradient>
</defs>
</svg>
