<svg width="40" height="40" viewBox="0 0 40 40" fill="none" xmlns="http://www.w3.org/2000/svg">
<path d="M20.0003 5.45312C16.0501 5.45312 15.5544 5.4704 14.0029 5.541C12.4545 5.61191 11.3976 5.85706 10.4727 6.21676C9.5161 6.58828 8.70461 7.08525 7.89615 7.89403C7.08708 8.70252 6.59013 9.51403 6.21741 10.4704C5.85682 11.3955 5.61137 12.4528 5.54167 14.0007C5.47228 15.5522 5.4541 16.0483 5.4541 19.9986C5.4541 23.9489 5.47168 24.4431 5.54198 25.9946C5.61319 27.5431 5.85833 28.6001 6.21771 29.5249C6.58952 30.4816 7.08648 31.2931 7.89524 32.1016C8.7034 32.9107 9.51489 33.4089 10.4709 33.7804C11.3963 34.1401 12.4536 34.3852 14.0017 34.4562C15.5532 34.5268 16.0486 34.544 19.9985 34.544C23.949 34.544 24.4432 34.5268 25.9947 34.4562C27.5431 34.3852 28.6013 34.1401 29.5267 33.7804C30.483 33.4089 31.2933 32.9107 32.1015 32.1016C32.9105 31.2931 33.4075 30.4816 33.7802 29.5252C34.1378 28.6001 34.3832 27.5428 34.456 25.9949C34.5256 24.4434 34.5438 23.9489 34.5438 19.9986C34.5438 16.0483 34.5256 15.5525 34.456 14.001C34.3832 12.4525 34.1378 11.3955 33.7802 10.4707C33.4075 9.51403 32.9105 8.70252 32.1015 7.89403C31.2924 7.08494 30.4833 6.58797 29.5258 6.21676C28.5986 5.85706 27.541 5.61191 25.9926 5.541C24.4411 5.4704 23.9472 5.45312 19.9958 5.45312H20.0003ZM18.6955 8.07434C19.0828 8.07373 19.5149 8.07434 20.0003 8.07434C23.8838 8.07434 24.3441 8.08828 25.8777 8.15797C27.2959 8.22282 28.0655 8.45979 28.5782 8.65888C29.257 8.92252 29.7409 9.23767 30.2497 9.74676C30.7588 10.2559 31.0739 10.7407 31.3382 11.4195C31.5373 11.9316 31.7745 12.7013 31.8391 14.1195C31.9088 15.6528 31.9239 16.1134 31.9239 19.9952C31.9239 23.8771 31.9088 24.3377 31.8391 25.871C31.7742 27.2892 31.5373 28.0589 31.3382 28.571C31.0745 29.2498 30.7588 29.7331 30.2497 30.2419C29.7406 30.751 29.2573 31.0662 28.5782 31.3298C28.0661 31.5298 27.2959 31.7662 25.8777 31.831C24.3444 31.9007 23.8838 31.9159 20.0003 31.9159C16.1165 31.9159 15.6562 31.9007 14.1229 31.831C12.7048 31.7655 11.9351 31.5286 11.4221 31.3295C10.7433 31.0658 10.2585 30.7507 9.74943 30.2416C9.24035 29.7325 8.92521 29.2489 8.66097 28.5698C8.46189 28.0577 8.22462 27.288 8.16008 25.8698C8.09039 24.3365 8.07645 23.8759 8.07645 19.9916C8.07645 16.1074 8.09039 15.6492 8.16008 14.1159C8.22493 12.6977 8.46189 11.928 8.66097 11.4152C8.9246 10.7365 9.24035 10.2516 9.74943 9.74252C10.2585 9.23343 10.7433 8.91828 11.4221 8.65403C11.9348 8.45403 12.7048 8.21767 14.1229 8.15252C15.4647 8.09191 15.9847 8.07373 18.6955 8.0707V8.07434ZM27.7643 10.4895C26.8007 10.4895 26.0189 11.2704 26.0189 12.2343C26.0189 13.198 26.8007 13.9798 27.7643 13.9798C28.7279 13.9798 29.5097 13.198 29.5097 12.2343C29.5097 11.2707 28.7279 10.4889 27.7643 10.4889V10.4895ZM20.0003 12.5289C15.8753 12.5289 12.5309 15.8734 12.5309 19.9986C12.5309 24.1237 15.8753 27.4668 20.0003 27.4668C24.1254 27.4668 27.4686 24.1237 27.4686 19.9986C27.4686 15.8734 24.1251 12.5289 20 12.5289H20.0003ZM20.0003 15.1501C22.6778 15.1501 24.8487 17.3207 24.8487 19.9986C24.8487 22.6762 22.6778 24.8471 20.0003 24.8471C17.3225 24.8471 15.152 22.6762 15.152 19.9986C15.152 17.3207 17.3225 15.1501 20.0003 15.1501Z" fill="#E2E6FF"/>
</svg>
