<svg width="30" height="31" viewBox="0 0 30 31" fill="none" xmlns="http://www.w3.org/2000/svg">
<g clip-path="url(#clip0_3_6191)">
<path d="M15.1365 7.89453C11.0039 7.89453 7.6582 11.2978 7.6582 15.4933C7.6582 19.6926 11.0075 23.0922 15.1365 23.0922C19.2691 23.0922 22.6147 19.6889 22.6147 15.4933C22.6147 11.2941 19.2654 7.89453 15.1365 7.89453ZM15.1365 20.4255C12.4539 20.4255 10.2825 18.218 10.2825 15.4933C10.2825 12.7687 12.4551 10.5612 15.1365 10.5612C17.8179 10.5612 19.9904 12.7687 19.9904 15.4933C19.9916 18.218 17.8191 20.4255 15.1365 20.4255Z" fill="#E2E6FF"/>
<path d="M21.1405 0.784431C18.4591 0.657332 11.8175 0.663502 9.13373 0.784431C6.77537 0.896723 4.69511 1.47546 3.01802 3.17958C0.215195 6.02759 0.573443 9.86525 0.573443 15.4934C0.573443 21.2536 0.257699 25.0024 3.01802 27.8072C5.83178 30.6651 9.66321 30.2912 15.1365 30.2912C20.7519 30.2912 22.69 30.2949 24.6756 29.5138C27.3752 28.4489 29.413 25.997 29.6121 21.5929C29.7384 18.8671 29.7311 12.1197 29.6121 9.39264C29.3717 4.1939 26.6259 1.0411 21.1405 0.784431ZM25.3848 25.923C23.5474 27.79 20.9984 27.6234 15.1013 27.6234C9.02929 27.6234 6.59442 27.7147 4.81776 25.9044C2.7715 23.8351 3.14189 20.512 3.14189 15.4737C3.14189 8.65595 2.45333 3.74597 9.18716 3.39552C10.7343 3.33999 11.1897 3.32148 15.0843 3.32148L15.1389 3.3585C21.6104 3.3585 26.6878 2.66994 26.9927 9.5111C27.0619 11.0721 27.0777 11.541 27.0777 15.4922C27.0765 21.5905 27.1906 24.0794 25.3848 25.923Z" fill="#E2E6FF"/>
<path d="M22.9106 9.37168C23.8757 9.37168 24.6581 8.57668 24.6581 7.596C24.6581 6.61531 23.8757 5.82031 22.9106 5.82031C21.9455 5.82031 21.1631 6.61531 21.1631 7.596C21.1631 8.57668 21.9455 9.37168 22.9106 9.37168Z" fill="#E2E6FF"/>
</g>
<defs>
<clipPath id="clip0_3_6191">
<rect width="29.1455" height="29.6154" fill="white" transform="translate(0.558594 0.691406)"/>
</clipPath>
</defs>
</svg>
