<svg width="31" height="31" viewBox="0 0 31 31" fill="none" xmlns="http://www.w3.org/2000/svg">
<g clip-path="url(#clip0_3_6188)">
<path d="M22.4208 2.85156C18.2267 2.85156 14.8053 6.17836 14.7727 10.2801L10.01 16.9769C8.68127 16.8584 7.53537 17.1286 6.52223 17.7345L0 15.1469V22.2139L3.85723 23.7353C4.41452 26.2514 6.71008 28.148 9.42642 28.148C12.3795 28.148 14.8265 25.9232 15.0958 23.09L22.4283 17.8345C26.6349 17.8345 30.0563 14.4892 30.0563 10.3406L30.0551 10.3393C30.0551 6.21044 26.6337 2.85156 22.4208 2.85156ZM5.72197 24.472C6.40576 24.7287 7.09705 25.0113 7.78209 25.2754C9.49405 25.9664 11.4389 25.1433 12.1227 23.4639C12.814 21.7844 11.9749 19.8891 10.2655 19.2165L8.52097 18.5255C11.1183 17.9579 13.6193 19.8755 13.6205 22.5421C13.6193 24.8274 7.76205 28.2283 5.72197 24.472ZM22.4283 15.3591C19.5967 15.3591 17.2962 13.1195 17.2962 10.3406C17.2962 7.57398 19.5905 5.32198 22.4283 5.32198C25.2398 5.32198 27.5404 7.57398 27.5404 10.3406C27.5404 13.1269 25.2386 15.3665 22.4283 15.3591Z" fill="#E2E6FF"/>
<path d="M22.442 6.3125C20.1815 6.3125 18.3506 8.1104 18.3506 10.3291C18.3506 12.5478 20.1753 14.3457 22.442 14.3457C24.6887 14.3457 26.5334 12.5539 26.5334 10.3291C26.5334 8.10423 24.6887 6.3125 22.442 6.3125Z" fill="#E2E6FF"/>
</g>
<defs>
<clipPath id="clip0_3_6188">
<rect width="30.0563" height="29.6154" fill="white" transform="translate(0 0.691406)"/>
</clipPath>
</defs>
</svg>
