<svg width="13" height="14" viewBox="0 0 13 14" fill="none" xmlns="http://www.w3.org/2000/svg">
<path d="M0.489412 3.11091C-0.0963747 2.52513 -0.0963751 1.57538 0.489411 0.989592C1.0752 0.403806 2.02495 0.403806 2.61073 0.989592L12.5102 10.8891C13.096 11.4749 13.096 12.4246 12.5102 13.0104C11.9244 13.5962 10.9747 13.5962 10.3889 13.0104L0.489412 3.11091Z" fill="#E2E6FF"/>
<path d="M2.61073 13.0104C2.02495 13.5962 1.0752 13.5962 0.489411 13.0104C-0.0963751 12.4246 -0.0963749 11.4749 0.489411 10.8891L10.3889 0.989592C10.9747 0.403807 11.9244 0.403806 12.5102 0.989592C13.096 1.57538 13.096 2.52513 12.5102 3.11091L2.61073 13.0104Z" fill="#E2E6FF"/>
</svg>
