<svg width="16" height="16" viewBox="0 0 16 16" fill="none" xmlns="http://www.w3.org/2000/svg">
<path fill-rule="evenodd" clip-rule="evenodd" d="M8 0C3.58172 0 0 3.58172 0 8C0 12.4183 3.58172 16 8 16C12.4183 16 16 12.4183 16 8C16 3.58172 12.4183 0 8 0ZM6.24116 3.75911C6.69627 3.7384 6.8417 3.73333 8.00047 3.73333H7.99913C9.15826 3.73333 9.30315 3.7384 9.75826 3.75911C10.2125 3.77991 10.5227 3.85182 10.7947 3.95733C11.0756 4.06622 11.3129 4.212 11.5503 4.44934C11.7876 4.6865 11.9334 4.92454 12.0427 5.20517C12.1476 5.47646 12.2196 5.78651 12.241 6.24074C12.2614 6.69585 12.2667 6.84128 12.2667 8.00004C12.2667 9.15881 12.2614 9.30388 12.241 9.759C12.2196 10.213 12.1476 10.5232 12.0427 10.7946C11.9334 11.0751 11.7876 11.3131 11.5503 11.5503C11.3132 11.7876 11.0755 11.9338 10.795 12.0428C10.5235 12.1483 10.2131 12.2202 9.75888 12.241C9.30377 12.2617 9.15879 12.2668 7.99993 12.2668C6.84125 12.2668 6.69592 12.2617 6.2408 12.241C5.78666 12.2202 5.47653 12.1483 5.20506 12.0428C4.92461 11.9338 4.68656 11.7876 4.44949 11.5503C4.21225 11.3131 4.06647 11.0751 3.9574 10.7945C3.85198 10.5232 3.78007 10.2131 3.75918 9.75891C3.73855 9.30379 3.7334 9.15881 3.7334 8.00004C3.7334 6.84128 3.73873 6.69576 3.75909 6.24065C3.77953 5.7866 3.85153 5.47646 3.95731 5.20508C4.06665 4.92454 4.21243 4.6865 4.44976 4.44934C4.68692 4.21209 4.92497 4.06631 5.20559 3.95733C5.47688 3.85182 5.78693 3.77991 6.24116 3.75911Z" fill="#E2E6FF"/>
<path fill-rule="evenodd" clip-rule="evenodd" d="M7.61798 4.50107C7.69231 4.50095 7.77226 4.50099 7.85854 4.50102L8.00074 4.50107C9.13996 4.50107 9.27498 4.50516 9.72485 4.5256C10.1409 4.54462 10.3666 4.61413 10.517 4.67254C10.7162 4.74987 10.8581 4.84231 11.0074 4.99165C11.1567 5.14098 11.2491 5.28321 11.3266 5.48232C11.385 5.63255 11.4546 5.85833 11.4736 6.27433C11.494 6.72411 11.4985 6.85923 11.4985 7.9979C11.4985 9.13658 11.494 9.2717 11.4736 9.72148C11.4546 10.1375 11.385 10.3633 11.3266 10.5135C11.2493 10.7126 11.1567 10.8544 11.0074 11.0036C10.858 11.153 10.7162 11.2454 10.517 11.3227C10.3668 11.3814 10.1409 11.4507 9.72485 11.4698C9.27507 11.4902 9.13996 11.4947 8.00074 11.4947C6.86144 11.4947 6.72642 11.4902 6.27664 11.4698C5.86063 11.4506 5.63485 11.3811 5.48436 11.3227C5.28525 11.2453 5.14303 11.1529 4.99369 11.0035C4.84436 10.8542 4.75191 10.7123 4.6744 10.5131C4.616 10.3629 4.5464 10.1371 4.52746 9.72112C4.50702 9.27134 4.50293 9.13623 4.50293 7.99684C4.50293 6.85745 4.50702 6.72305 4.52746 6.27326C4.54649 5.85726 4.616 5.63148 4.6744 5.48108C4.75173 5.28196 4.84436 5.13974 4.99369 4.99041C5.14303 4.84107 5.28525 4.74862 5.48436 4.67111C5.63476 4.61245 5.86063 4.54311 6.27664 4.524C6.67024 4.50622 6.82278 4.50089 7.61798 4.5V4.50107ZM10.2783 5.20952C9.99561 5.20952 9.76628 5.43859 9.76628 5.72135C9.76628 6.00402 9.99561 6.23335 10.2783 6.23335C10.561 6.23335 10.7903 6.00402 10.7903 5.72135C10.7903 5.43868 10.561 5.20934 10.2783 5.20934V5.20952ZM5.80957 7.99888C5.80957 6.78885 6.7906 5.80779 8.00062 5.80775C9.21067 5.80775 10.1915 6.78882 10.1915 7.99888C10.1915 9.20894 9.21076 10.1896 8.0007 10.1896C6.79065 10.1896 5.80957 9.20894 5.80957 7.99888Z" fill="#E2E6FF"/>
<path d="M8.00036 6.57812C8.78579 6.57812 9.4226 7.21484 9.4226 8.00036C9.4226 8.78579 8.78579 9.4226 8.00036 9.4226C7.21484 9.4226 6.57812 8.78579 6.57812 8.00036C6.57812 7.21484 7.21484 6.57812 8.00036 6.57812Z" fill="#E2E6FF"/>
</svg>
