<svg width="16" height="16" viewBox="0 0 16 16" fill="none" xmlns="http://www.w3.org/2000/svg">
<path fill-rule="evenodd" clip-rule="evenodd" d="M8 0C3.58172 0 0 3.58172 0 8C0 12.4183 3.58172 16 8 16C12.4183 16 16 12.4183 16 8C16 3.58172 12.4183 0 8 0ZM4.81173 6.83696C4.82788 6.85029 4.84554 6.86565 4.86397 6.88215C4.82119 6.67105 4.79875 6.45265 4.79875 6.22907C4.79875 4.40853 6.28568 2.93333 8.11928 2.93333C9.95395 2.93333 11.4406 4.40853 11.4406 6.22907C11.4406 6.55288 11.3935 6.8658 11.3058 7.16146C11.3239 7.14509 11.3419 7.12857 11.3597 7.11189C11.3667 7.10549 11.5515 7.34496 11.6344 7.58843C11.7232 7.84923 11.8131 8.13296 11.7312 8.19776L11.7133 8.21189C11.8537 8.42149 11.9839 8.66255 12.0908 8.92336C12.4825 9.87883 12.3297 10.8764 12.1158 10.9234C11.935 10.9632 11.5891 10.6678 11.2509 10.2053C11.171 10.751 10.8934 11.2459 10.4797 11.6387C11.1325 11.8382 11.5726 12.2323 11.5228 12.6245C11.4612 13.1114 10.6665 13.4112 9.74864 13.2946C9.04879 13.2054 8.47893 12.8994 8.27557 12.543C8.2077 12.5466 8.13927 12.5484 8.07032 12.5484C8.03046 12.5484 7.99076 12.5478 7.95125 12.5466C7.74741 12.9003 7.16362 13.1978 6.44112 13.2762C5.49419 13.3783 4.66885 13.0658 4.59659 12.5775C4.53838 12.1886 4.97647 11.8055 5.63562 11.614C5.21849 11.208 4.94508 10.6965 4.88105 10.1341C4.5001 10.5957 4.11223 10.8442 3.96341 10.7651C3.67355 10.6105 3.60341 9.66192 4.07408 8.72325C4.20624 8.46006 4.36107 8.22339 4.52349 8.02307L4.51893 8.01909C4.49387 7.99723 4.5016 7.92736 4.5016 7.92736C4.5016 7.92736 4.54107 7.77429 4.60667 7.40763C4.65253 7.15136 4.75653 6.83696 4.81173 6.83696Z" fill="white"/>
<path d="M5.71989 8.20312C5.52202 8.60899 5.40869 9.07033 5.40869 9.56046C5.40869 11.1786 6.62762 12.4903 8.13136 12.4903C9.63509 12.4903 10.8538 11.1786 10.8538 9.56046C10.8538 9.08366 10.7458 8.63486 10.558 8.23699C9.17242 8.94339 6.63536 8.42579 5.71989 8.20312Z" fill="white"/>
<path fill-rule="evenodd" clip-rule="evenodd" d="M7.24069 6.26334C7.59989 6.26334 7.89082 5.90708 7.89082 5.46761C7.89082 5.02814 7.59989 4.67188 7.24069 4.67188C6.88175 4.67188 6.59082 5.02814 6.59082 5.46761C6.59082 5.90708 6.88175 6.26334 7.24069 6.26334ZM7.38389 4.9683C7.60815 4.9683 7.79029 5.1939 7.79029 5.47203C7.79029 5.75017 7.60815 5.97577 7.38389 5.97577C7.15935 5.97577 6.97722 5.75017 6.97722 5.47203C6.97722 5.1939 7.15935 4.9683 7.38389 4.9683Z" fill="white"/>
<path fill-rule="evenodd" clip-rule="evenodd" d="M9.10739 6.27115C9.46659 6.27115 9.75752 5.91489 9.75752 5.47542C9.75752 5.03595 9.46659 4.67969 9.10739 4.67969C8.74872 4.67969 8.45752 5.03595 8.45752 5.47542C8.45752 5.91489 8.74872 6.27115 9.10739 6.27115ZM8.80355 5.60494C8.79875 5.60574 8.79421 5.60628 8.78941 5.60628C8.75128 5.60628 8.71768 5.57881 8.71075 5.54014C8.70648 5.51588 8.70435 5.49054 8.70435 5.46468C8.70435 5.25187 8.85528 5.07881 9.04061 5.07881C9.22595 5.07881 9.37688 5.25187 9.37688 5.46468C9.37688 5.48334 9.37581 5.50148 9.37368 5.51934C9.36808 5.56308 9.32755 5.59401 9.28408 5.58868C9.24035 5.58308 9.20941 5.54308 9.21475 5.49934C9.21635 5.48814 9.21715 5.47641 9.21715 5.46468C9.21715 5.34014 9.13795 5.23881 9.04061 5.23881C8.94328 5.23881 8.86408 5.34014 8.86408 5.46468C8.86408 5.48094 8.86568 5.49694 8.86835 5.51214C8.87608 5.55588 8.84701 5.59721 8.80355 5.60494Z" fill="white"/>
<path fill-rule="evenodd" clip-rule="evenodd" d="M10.3624 7.01201C9.9229 6.69841 9.1349 6.48828 8.23277 6.48828C7.3277 6.48828 6.5373 6.69975 6.09863 7.01521C6.2085 7.27415 6.5405 7.47575 6.8661 7.66295C7.25943 7.88908 7.90557 8.04215 8.23063 8.04215C8.53063 8.04215 9.2733 7.84001 9.67437 7.57788C9.71683 7.55019 9.75965 7.52298 9.80212 7.496C10.0418 7.3437 10.2704 7.19845 10.3624 7.01201ZM7.41229 7.59119C6.96855 7.33439 6.52295 6.98719 6.41895 6.88372C6.41895 6.88372 6.91869 7.31172 7.37842 7.43946C7.91602 7.58879 8.69282 7.51839 8.98722 7.41972C9.52242 7.23999 10.0912 6.85279 10.0912 6.85279C10.0912 6.85279 9.58855 7.23732 9.07015 7.57626C9.04751 7.59104 9.02468 7.60638 9.00147 7.62196C8.75764 7.78571 8.47209 7.97748 7.92375 7.85866C7.80149 7.83232 7.6017 7.70816 7.48283 7.6343C7.45366 7.61617 7.42937 7.60107 7.41229 7.59119Z" fill="white"/>
<path d="M7.63865 5.35918C7.63865 5.47145 7.56238 5.56265 7.46825 5.56265C7.37412 5.56265 7.29785 5.47145 7.29785 5.35918C7.29785 5.24718 7.37412 5.15625 7.46825 5.15625C7.56238 5.15625 7.63865 5.24718 7.63865 5.35918Z" fill="white"/>
</svg>
