<svg width="16" height="16" viewBox="0 0 16 16" fill="none" xmlns="http://www.w3.org/2000/svg">
<path d="M5.60007 0C2.51683 0 0 2.51683 0 5.60007C0 8.68331 2.51683 11.2001 5.60007 11.2001C6.99852 11.2001 8.27627 10.6786 9.25949 9.82512L9.60012 10.1657V11.2001L14.0689 15.6689C14.5103 16.1104 15.2275 16.1104 15.6689 15.6689C16.1104 15.2275 16.1104 14.5107 15.6689 14.0689L11.2001 9.60012H10.1658L9.82512 9.25949C10.6786 8.27627 11.2001 6.99852 11.2001 5.60007C11.2001 2.51683 8.68331 0 5.60007 0ZM5.60007 1.60002C7.81885 1.60002 9.60012 3.38129 9.60012 5.60007C9.60012 7.81885 7.81885 9.60012 5.60007 9.60012C3.38129 9.60012 1.60002 7.81885 1.60002 5.60007C1.60002 3.38129 3.38129 1.60002 5.60007 1.60002Z" fill="#03FF49"/>
</svg>
