<svg width="16" height="16" viewBox="0 0 16 16" fill="none" xmlns="http://www.w3.org/2000/svg">
<path fill-rule="evenodd" clip-rule="evenodd" d="M0 8C0 12.4183 3.58172 16 8 16C12.4183 16 16 12.4183 16 8C16 3.58172 12.4183 0 8 0C3.58172 0 0 3.58172 0 8ZM12.1151 8.04427C12.1151 8.34004 12.083 8.62789 12.0213 8.90586C12.1784 9.21746 12.2667 9.56813 12.2667 9.93957C12.2667 11.2245 11.21 12.2667 9.90655 12.2667C9.50267 12.2667 9.12336 12.1663 8.79072 11.9902C8.54889 12.0342 8.30003 12.0575 8.04516 12.0575C5.79743 12.0575 3.97516 10.2611 3.97516 8.04427C3.97516 7.76828 4.00376 7.49823 4.05745 7.23807C3.85174 6.89185 3.73333 6.49023 3.73333 6.06092C3.73333 4.77496 4.78997 3.73333 6.09395 3.73333C6.55503 3.73333 6.98551 3.8644 7.34926 4.09043C7.57604 4.05186 7.80834 4.03158 8.04516 4.03158C10.2934 4.03158 12.1151 5.82846 12.1151 8.04427Z" fill="#E2E6FF"/>
<path d="M10.1329 9.96389C9.94476 10.227 9.6668 10.4348 9.30556 10.5821C8.94884 10.7285 8.52137 10.8032 8.03419 10.8032C7.44968 10.8032 6.9595 10.7018 6.57668 10.5015C6.30324 10.3561 6.07797 10.1593 5.90688 9.91493C5.73378 9.6696 5.64648 9.42577 5.64648 9.18984C5.64648 9.04344 5.70368 8.91583 5.81607 8.81147C5.92745 8.70761 6.07044 8.65567 6.24103 8.65567C6.38051 8.65567 6.50142 8.69673 6.59926 8.77834C6.69308 8.85698 6.77336 8.97321 6.83808 9.12208C6.91033 9.2853 6.9886 9.4228 7.07138 9.53013C7.15166 9.63498 7.26655 9.72253 7.41306 9.79128C7.56056 9.85953 7.75975 9.89514 8.00409 9.89514C8.34075 9.89514 8.61669 9.82392 8.82391 9.68444C9.02711 9.54843 9.12544 9.38422 9.12544 9.18341C9.12544 9.02564 9.07377 8.901 8.9684 8.80307C8.85702 8.70118 8.71102 8.62204 8.53391 8.56665C8.34877 8.51026 8.09791 8.44844 7.78734 8.38414C7.36439 8.29511 7.00566 8.18976 6.72068 8.06957C6.42867 7.94741 6.19336 7.77776 6.02127 7.56558C5.84667 7.34944 5.75787 7.07889 5.75787 6.76086C5.75787 6.45817 5.85069 6.18465 6.03432 5.94922C6.21594 5.71528 6.48186 5.53228 6.82453 5.40813C7.16219 5.28498 7.56357 5.22266 8.01864 5.22266C8.38189 5.22266 8.70149 5.2642 8.9684 5.34631C9.23683 5.42841 9.4626 5.5392 9.64021 5.6762C9.81933 5.81469 9.95279 5.96159 10.0361 6.11491C10.1204 6.26972 10.1635 6.42355 10.1635 6.57242C10.1635 6.71585 10.1073 6.84643 9.99644 6.95969C9.88505 7.07444 9.74407 7.13231 9.5785 7.13231C9.42798 7.13231 9.30958 7.09571 9.2283 7.02448C9.15203 6.95771 9.07276 6.85385 8.98496 6.70547C8.88361 6.51554 8.76069 6.36568 8.6197 6.25983C8.48273 6.15696 8.25445 6.10552 7.93987 6.10552C7.64887 6.10552 7.41105 6.16289 7.23494 6.27714C7.06536 6.38645 6.98258 6.51257 6.98258 6.66194C6.98258 6.75295 7.00917 6.82961 7.06436 6.8949C7.12156 6.96513 7.20334 7.02547 7.30669 7.07691C7.41356 7.12983 7.52394 7.17237 7.63432 7.20205C7.74721 7.23321 7.93686 7.2792 8.19725 7.33856C8.52689 7.4078 8.82943 7.48644 9.09685 7.57102C9.36828 7.65609 9.60208 7.76094 9.79374 7.8841C9.98841 8.00923 10.1424 8.16948 10.2523 8.36139C10.3622 8.55478 10.4179 8.79218 10.4179 9.06867C10.4179 9.39906 10.3216 9.70027 10.1329 9.96389Z" fill="#E2E6FF"/>
</svg>
