<svg width="16" height="16" viewBox="0 0 16 16" fill="none" xmlns="http://www.w3.org/2000/svg">
<path d="M0.328886 10.3337C1.32856 13.6137 4.38098 16 7.99141 16C12.4144 16 16 12.4182 16 8C16 3.58173 12.4144 0 7.99141 0C3.74713 0 0.274286 3.29813 0 7.4685C0.00317087 7.47382 0.00632991 7.47912 0.00947706 7.48442C0.0100529 7.47313 0.0104051 7.46727 0.0104031 7.46727L4.29175 9.24213C4.40822 9.16499 4.53236 9.09819 4.66484 9.04378C4.96536 8.91912 5.28229 8.86333 5.59813 8.87779L7.54788 6.02561C7.5472 6.01294 7.5472 5.99944 7.5472 5.98594C7.5472 4.30267 8.90481 2.93333 10.5736 2.93333C12.2431 2.93333 13.6 4.30267 13.6 5.98594C13.6 7.66906 12.2431 9.03964 10.5736 9.03964C10.551 9.03964 10.5278 9.03896 10.5052 9.03827L7.71545 11.0459C7.72365 11.3559 7.66689 11.6665 7.54515 11.9626C7.07734 13.0956 5.78067 13.6349 4.65608 13.1617C3.96873 12.8731 3.50283 12.2732 3.35087 11.5893L0.328886 10.3337Z" fill="#E2E6FF"/>
<path d="M7.07949 11.7663C6.71741 12.6417 5.71846 13.057 4.85014 12.6927C4.44956 12.5246 4.14713 12.2168 3.97266 11.8497L4.95786 12.2609C5.59823 12.5295 6.33291 12.2237 6.59909 11.579C6.8661 10.9337 6.56319 10.1926 5.92316 9.92399L4.90472 9.49904C5.29771 9.34889 5.74445 9.34338 6.16186 9.51832C6.58268 9.69464 6.90919 10.0266 7.08222 10.4509C7.25526 10.8751 7.25457 11.3435 7.07949 11.7663Z" fill="#E2E6FF"/>
<path fill-rule="evenodd" clip-rule="evenodd" d="M8.55713 5.98689C8.55713 7.10869 9.46197 8.02127 10.5734 8.02127C11.6854 8.02127 12.5903 7.10869 12.5903 5.98689C12.5903 4.86597 11.6854 3.95312 10.5734 3.95312C9.46197 3.95312 8.55713 4.86597 8.55713 5.98689ZM10.5768 7.5116C9.74101 7.5116 9.06255 6.82776 9.06255 5.98379C9.06255 5.13988 9.74101 4.45542 10.5768 4.45542C11.4132 4.45542 12.0917 5.13988 12.0917 5.98379C12.0917 6.82776 11.4132 7.5116 10.5768 7.5116Z" fill="#E2E6FF"/>
</svg>
