<svg width="16" height="16" viewBox="0 0 16 16" fill="none" xmlns="http://www.w3.org/2000/svg">
<path fill-rule="evenodd" clip-rule="evenodd" d="M0 8C0 12.4183 3.58172 16 8 16C12.4183 16 16 12.4183 16 8C16 3.58172 12.4183 0 8 0C3.58172 0 0 3.58172 0 8ZM3.48431 5.40294L4.11038 3.73334H12.665V9.57725L10.1608 12.0805H8.28309L7.0316 13.3333H5.77886V12.0805H3.48431V5.40294Z" fill="white"/>
<path fill-rule="evenodd" clip-rule="evenodd" d="M4.94434 4.56641H11.8304V9.1578L10.3694 10.6189H8.07451L6.82338 11.87V10.6189H4.94434V4.56641ZM7.23982 8.74095H8.0745V6.23689H7.23982V8.74095ZM10.3694 8.74095H9.53489V6.23689H10.3694V8.74095Z" fill="white"/>
</svg>
