<svg width="16" height="16" viewBox="0 0 16 16" fill="none" xmlns="http://www.w3.org/2000/svg">
<path fill-rule="evenodd" clip-rule="evenodd" d="M8 0C3.58172 0 0 3.58172 0 8C0 12.4183 3.58172 16 8 16C12.4183 16 16 12.4183 16 8C16 3.58172 12.4183 0 8 0ZM7.77719 6.77932L7.7604 6.5025C7.71004 5.78503 8.15211 5.12971 8.85159 4.87549C9.109 4.7851 9.54547 4.7738 9.83086 4.85289C9.94277 4.88679 10.1554 4.99977 10.3065 5.10146L10.5807 5.28789L10.8829 5.19185C11.0507 5.14101 11.2746 5.05627 11.3753 4.99977C11.4704 4.94893 11.5544 4.92068 11.5544 4.93763C11.5544 5.03367 11.3473 5.36133 11.1739 5.54211C10.9388 5.79633 11.006 5.81893 11.4816 5.64945C11.767 5.55341 11.7726 5.55341 11.7167 5.66075C11.6831 5.71724 11.5096 5.91497 11.3249 6.09575C11.0116 6.40646 10.9948 6.44036 10.9948 6.70023C10.9948 7.10133 10.8045 7.93744 10.6143 8.39503C10.2617 9.25373 9.5063 10.1407 8.75086 10.587C7.68765 11.2141 6.27191 11.3722 5.08 11.005C4.68269 10.8807 4 10.5644 4 10.5079C4 10.4909 4.20705 10.4683 4.45886 10.4627C4.98487 10.4514 5.51088 10.3045 5.95854 10.0446L6.26072 9.86386L5.91377 9.74523C5.42134 9.57575 4.97927 9.18594 4.86735 8.81873C4.83378 8.7001 4.84497 8.69445 5.15834 8.69445L5.4829 8.6888L5.2087 8.55886C4.88414 8.39503 4.58756 8.11821 4.44207 7.83575C4.33575 7.63237 4.20145 7.11828 4.24062 7.07873C4.25181 7.06179 4.36933 7.09568 4.50362 7.14088C4.88974 7.28211 4.9401 7.24821 4.71627 7.01094C4.29658 6.58159 4.16787 5.94321 4.36933 5.33873L4.46445 5.06757L4.83378 5.43477C5.58922 6.17484 6.47895 6.61549 7.4974 6.74542L7.77719 6.77932Z" fill="#E2E6FF"/>
</svg>
