<svg width="16" height="16" viewBox="0 0 16 16" fill="none" xmlns="http://www.w3.org/2000/svg">
<path fill-rule="evenodd" clip-rule="evenodd" d="M0 8C0 3.58172 3.58172 0 8 0C12.4183 0 16 3.58172 16 8C16 12.4183 12.4183 16 8 16C3.58172 16 0 12.4183 0 8ZM10.0808 6.42853C10.1347 6.42853 10.188 6.42907 10.2411 6.432C9.96053 4.9032 8.3816 3.73333 6.476 3.73333C4.372 3.73333 2.66667 5.15973 2.66667 6.9192C2.66667 7.95093 3.2528 8.868 4.16187 9.45013L4.1968 9.47227L3.8288 10.6251L5.20587 9.92373C5.20587 9.92373 5.24907 9.936 5.27067 9.9424C5.64907 10.0477 6.05493 10.1048 6.476 10.1048C6.56187 10.1048 6.6472 10.1013 6.732 10.0971C6.65387 9.85467 6.61093 9.6 6.61093 9.33707C6.61093 7.7304 8.16506 6.42853 10.0808 6.42853ZM10.1099 12.0475C8.33229 12.0475 6.89096 10.8424 6.89096 9.35576C6.89096 7.86963 8.33229 6.66456 10.1099 6.66456C11.8867 6.66456 13.3275 7.86963 13.3275 9.35576C13.3275 10.2278 12.832 11.0024 12.0643 11.4942L12.0347 11.5126L12.3456 12.487L11.1827 11.8939C11.1827 11.8939 11.1462 11.9048 11.1278 11.9096C10.8083 11.999 10.4654 12.0475 10.1099 12.0475Z" fill="white"/>
<path d="M7.80176 5.30469C8.09722 5.30469 8.33642 5.53615 8.33642 5.82229C8.33642 6.10815 8.09722 6.34042 7.80176 6.34042C7.50602 6.34042 7.26709 6.10815 7.26709 5.82229C7.26709 5.53615 7.50602 5.30469 7.80176 5.30469Z" fill="white"/>
<path d="M10.7773 8.42925C10.7773 8.18819 10.9795 7.99219 11.2291 7.99219C11.4789 7.99219 11.6811 8.18819 11.6811 8.42925C11.6811 8.67139 11.4789 8.86765 11.2291 8.86765C10.9795 8.86765 10.7773 8.67139 10.7773 8.42925Z" fill="white"/>
<path d="M8.5376 8.42925C8.5376 8.18819 8.74026 7.99219 8.9896 7.99219C9.23946 7.99219 9.44187 8.18819 9.44187 8.42925C9.44187 8.67139 9.23946 8.86765 8.9896 8.86765C8.74026 8.86765 8.5376 8.67139 8.5376 8.42925Z" fill="white"/>
<path d="M5.15017 6.34042C4.8547 6.34042 4.61523 6.10815 4.61523 5.82229C4.61523 5.53615 4.8547 5.30469 5.15017 5.30469C5.44563 5.30469 5.68563 5.53615 5.68563 5.82229C5.68563 6.10815 5.44563 6.34042 5.15017 6.34042Z" fill="white"/>
</svg>
