<svg width="40" height="40" viewBox="0 0 40 40" fill="none" xmlns="http://www.w3.org/2000/svg">
<rect width="40" height="40" rx="20" fill="#EA4335"/>
<path d="M6.67498 20.0169C6.40849 13.0006 12.5542 6.5166 19.5776 6.43248C23.1573 6.12716 26.6399 7.51726 29.3489 9.78448C28.2376 11.0063 27.107 12.2141 25.8992 13.3447C23.5144 11.8958 20.643 10.7916 17.8558 11.7723C13.3601 13.0523 10.6376 18.3604 12.3013 22.7583C13.679 27.3516 19.2659 29.8723 23.6444 27.9428C25.9116 27.131 27.4064 25.0391 28.0623 22.7913C25.4639 22.7395 22.8649 22.7718 20.2665 22.7001C20.26 21.1541 20.2536 19.614 20.26 18.068C24.5933 18.0615 28.933 18.0486 33.2727 18.0874C33.5392 21.8753 32.9803 25.9291 30.5178 28.9693C27.1458 33.309 20.916 34.5826 15.848 32.8802C10.4694 31.1136 6.55792 25.695 6.67498 20.0169Z" fill="white"/>
</svg>
