<svg width="40" height="40" viewBox="0 0 40 40" fill="none" xmlns="http://www.w3.org/2000/svg">
<rect width="40" height="40" rx="20" fill="url(#paint0_linear_1_19200)"/>
<mask id="mask0_1_19200" style="mask-type:alpha" maskUnits="userSpaceOnUse" x="0" y="0" width="40" height="40">
<rect width="40" height="40" rx="20" fill="url(#paint1_linear_1_19200)"/>
</mask>
<g mask="url(#mask0_1_19200)">
<path d="M18.9564 14.9917C18.9564 15.0254 18.9564 15.059 18.9581 15.0906L14.0609 22.2C13.2676 22.1639 12.4715 22.303 11.7167 22.6137C11.384 22.7493 11.0722 22.9159 10.7796 23.1081L-0.312456 18.5946C-0.312456 18.5946 -1.55776 22.3686 -0.520788 25.4175L8.41642 28.9588C8.79813 30.6635 9.96832 32.1588 11.6947 32.8781C14.5194 34.0575 17.7762 32.7133 18.9512 29.8893C19.257 29.1511 19.3996 28.3768 19.379 27.6043L26.386 22.6C26.4427 22.6017 26.5011 22.6034 26.5578 22.6034C30.751 22.6034 34.1592 19.1871 34.1592 14.9917C34.1592 10.796 30.751 7.38281 26.5578 7.38281C22.3663 7.38281 18.9564 10.796 18.9564 14.9917ZM17.7814 29.3983C16.872 31.5802 14.3629 32.6154 12.1819 31.7073C11.1758 31.2884 10.4162 30.521 9.97794 29.606L12.4525 30.6309C14.0609 31.3004 15.9062 30.5382 16.5748 28.9313C17.2454 27.3227 16.4846 25.4755 14.877 24.806L12.319 23.7468C13.3061 23.3725 14.4282 23.3588 15.4766 23.7948C16.5335 24.2343 17.3536 25.0618 17.7882 26.1193C18.2229 27.1768 18.2211 28.3442 17.7814 29.3983ZM26.5578 20.0626C23.7663 20.0626 21.4936 17.788 21.4936 14.9917C21.4936 12.1977 23.7663 9.92238 26.5578 9.92238C29.351 9.92238 31.6237 12.1977 31.6237 14.9917C31.6237 17.788 29.351 20.0626 26.5578 20.0626ZM22.7631 14.984C22.7631 12.8805 24.4672 11.1744 26.5664 11.1744C28.6673 11.1744 30.3714 12.8805 30.3714 14.984C30.3714 17.0877 28.6673 18.7923 26.5664 18.7923C24.4672 18.7923 22.7631 17.0877 22.7631 14.984Z" fill="white"/>
</g>
<defs>
<linearGradient id="paint0_linear_1_19200" x1="20" y1="0" x2="20" y2="40" gradientUnits="userSpaceOnUse">
<stop stop-color="#111D2E"/>
<stop offset="0.21248" stop-color="#051839"/>
<stop offset="0.40695" stop-color="#0A1B48"/>
<stop offset="0.5811" stop-color="#132E62"/>
<stop offset="0.7376" stop-color="#144B7E"/>
<stop offset="0.87279" stop-color="#136497"/>
<stop offset="1" stop-color="#1387B8"/>
</linearGradient>
<linearGradient id="paint1_linear_1_19200" x1="20" y1="0" x2="20" y2="40" gradientUnits="userSpaceOnUse">
<stop stop-color="#111D2E"/>
<stop offset="0.21248" stop-color="#051839"/>
<stop offset="0.40695" stop-color="#0A1B48"/>
<stop offset="0.5811" stop-color="#132E62"/>
<stop offset="0.7376" stop-color="#144B7E"/>
<stop offset="0.87279" stop-color="#136497"/>
<stop offset="1" stop-color="#1387B8"/>
</linearGradient>
</defs>
</svg>
