<svg width="30" height="30" viewBox="0 0 30 30" fill="none" xmlns="http://www.w3.org/2000/svg">
<g opacity="0.9" clip-path="url(#clip0_32_15374)">
<path d="M27.9401 9H27.1364V18.3417C27.1364 19.7962 26.3355 21.1114 24.73 21.1114H9V21.5555C9 22.8414 10.3831 24.1395 11.8035 24.1395H23.8298L28.4307 27L27.7635 24.1395H27.9401C29.3595 24.1395 30 22.8444 30 21.5555V11.2176C30 9.93164 29.3595 9 27.9401 9Z" fill="white"/>
<path d="M21.8865 3H3.48269C1.86346 3 0 4.50575 0 5.95715V17.6328C0 18.9694 1.57885 19.9347 3.09327 20.0836L2.10769 24L8.42308 20.1108H21.8865C23.5058 20.1108 25 19.0832 25 17.6328V8.18659V5.95715C25 4.50575 23.5048 3 21.8865 3ZM6.29038 12.8558C5.37212 12.8558 4.62788 12.0768 4.62788 11.1156C4.62788 10.1543 5.37212 9.37529 6.29038 9.37529C7.20769 9.37529 7.95288 10.1543 7.95288 11.1156C7.95288 12.0768 7.20769 12.8558 6.29038 12.8558ZM12.5 12.8558C11.5817 12.8558 10.8375 12.0768 10.8375 11.1156C10.8375 10.1543 11.5817 9.37529 12.5 9.37529C13.4183 9.37529 14.1625 10.1543 14.1625 11.1156C14.1625 12.0768 13.4183 12.8558 12.5 12.8558ZM18.7106 12.8558C17.7923 12.8558 17.0471 12.0768 17.0471 11.1156C17.0471 10.1543 17.7923 9.37529 18.7106 9.37529C19.6269 9.37529 20.3731 10.1543 20.3731 11.1156C20.3731 12.0768 19.6269 12.8558 18.7106 12.8558Z" fill="white"/>
</g>
<defs>
<clipPath id="clip0_32_15374">
<rect width="29.999" height="30" fill="white"/>
</clipPath>
</defs>
</svg>
