<svg width="130" height="43" viewBox="0 0 130 43" fill="none" xmlns="http://www.w3.org/2000/svg">
<rect y="43" width="43" height="130" rx="10" transform="rotate(-90 0 43)" fill="#64C14C"/>
<path d="M73.8428 23.3711H76.2842C76.2061 24.3021 75.9456 25.1322 75.5029 25.8613C75.0602 26.584 74.4385 27.1536 73.6377 27.5703C72.8369 27.987 71.8636 28.1953 70.7178 28.1953C69.8389 28.1953 69.0479 28.0391 68.3447 27.7266C67.6416 27.4076 67.0394 26.9583 66.5381 26.3789C66.0368 25.793 65.6527 25.0866 65.3857 24.2598C65.1253 23.4329 64.9951 22.5085 64.9951 21.4863V20.3047C64.9951 19.2826 65.1286 18.3581 65.3955 17.5312C65.6689 16.7044 66.0596 15.998 66.5674 15.4121C67.0752 14.8197 67.6839 14.3672 68.3936 14.0547C69.1097 13.7422 69.9137 13.5859 70.8057 13.5859C71.9385 13.5859 72.8955 13.7943 73.6768 14.2109C74.458 14.6276 75.0635 15.2038 75.4932 15.9395C75.9294 16.6751 76.1963 17.5182 76.2939 18.4688H73.8525C73.7874 17.8568 73.6442 17.3327 73.4229 16.8965C73.208 16.4603 72.889 16.1283 72.4658 15.9004C72.0426 15.666 71.4893 15.5488 70.8057 15.5488C70.2458 15.5488 69.7575 15.653 69.3408 15.8613C68.9242 16.0697 68.5758 16.3757 68.2959 16.7793C68.016 17.1829 67.8044 17.681 67.6611 18.2734C67.5244 18.8594 67.4561 19.5299 67.4561 20.2852V21.4863C67.4561 22.2025 67.5179 22.8535 67.6416 23.4395C67.7718 24.0189 67.9671 24.5169 68.2275 24.9336C68.4945 25.3503 68.833 25.6725 69.2432 25.9004C69.6533 26.1283 70.1449 26.2422 70.7178 26.2422C71.4144 26.2422 71.9775 26.1315 72.4072 25.9102C72.8434 25.6888 73.1722 25.3665 73.3936 24.9434C73.6214 24.5137 73.7712 23.9896 73.8428 23.3711ZM80.6006 13V28H78.2568V13H80.6006ZM80.1904 22.3262L79.4287 22.3164C79.4352 21.5872 79.5361 20.9134 79.7314 20.2949C79.9333 19.6764 80.2132 19.1393 80.5713 18.6836C80.9359 18.2214 81.3721 17.8665 81.8799 17.6191C82.3877 17.3652 82.9508 17.2383 83.5693 17.2383C84.0902 17.2383 84.5589 17.3099 84.9756 17.4531C85.3988 17.5964 85.7633 17.8275 86.0693 18.1465C86.3753 18.459 86.6064 18.8691 86.7627 19.377C86.9255 19.8783 87.0068 20.4902 87.0068 21.2129V28H84.6436V21.1934C84.6436 20.6855 84.5687 20.2819 84.4189 19.9824C84.2757 19.6829 84.0641 19.4681 83.7842 19.3379C83.5042 19.2012 83.1624 19.1328 82.7588 19.1328C82.3356 19.1328 81.9613 19.2174 81.6357 19.3867C81.3167 19.556 81.0498 19.7871 80.835 20.0801C80.6201 20.373 80.4574 20.7116 80.3467 21.0957C80.2425 21.4798 80.1904 21.89 80.1904 22.3262ZM95.3467 25.8809V20.8418C95.3467 20.4642 95.2783 20.1387 95.1416 19.8652C95.0049 19.5918 94.7965 19.3802 94.5166 19.2305C94.2432 19.0807 93.8981 19.0059 93.4814 19.0059C93.0973 19.0059 92.7653 19.071 92.4854 19.2012C92.2054 19.3314 91.9873 19.5072 91.8311 19.7285C91.6748 19.9499 91.5967 20.2005 91.5967 20.4805H89.2529C89.2529 20.0638 89.3538 19.6602 89.5557 19.2695C89.7575 18.8789 90.0505 18.5306 90.4346 18.2246C90.8187 17.9186 91.2777 17.6777 91.8115 17.502C92.3454 17.3262 92.9443 17.2383 93.6084 17.2383C94.4027 17.2383 95.1058 17.3717 95.7178 17.6387C96.3363 17.9056 96.8213 18.3092 97.1729 18.8496C97.5309 19.3835 97.71 20.054 97.71 20.8613V25.5586C97.71 26.0404 97.7425 26.4733 97.8076 26.8574C97.8792 27.235 97.9801 27.5638 98.1104 27.8438V28H95.6982C95.5876 27.7461 95.4997 27.4238 95.4346 27.0332C95.376 26.6361 95.3467 26.252 95.3467 25.8809ZM95.6885 21.5742L95.708 23.0293H94.0186C93.5824 23.0293 93.1982 23.0716 92.8662 23.1562C92.5342 23.2344 92.2575 23.3516 92.0361 23.5078C91.8148 23.6641 91.6488 23.8529 91.5381 24.0742C91.4274 24.2956 91.3721 24.5462 91.3721 24.8262C91.3721 25.1061 91.4372 25.3633 91.5674 25.5977C91.6976 25.8255 91.8864 26.0046 92.1338 26.1348C92.3877 26.265 92.6937 26.3301 93.0518 26.3301C93.5335 26.3301 93.9535 26.2324 94.3115 26.0371C94.6761 25.8353 94.9626 25.5911 95.1709 25.3047C95.3792 25.0117 95.4899 24.735 95.5029 24.4746L96.2646 25.5195C96.1865 25.7865 96.0531 26.0729 95.8643 26.3789C95.6755 26.6849 95.4281 26.9779 95.1221 27.2578C94.8226 27.5312 94.4613 27.7559 94.0381 27.9316C93.6214 28.1074 93.1396 28.1953 92.5928 28.1953C91.9027 28.1953 91.2874 28.0586 90.7471 27.7852C90.2067 27.5052 89.7835 27.1309 89.4775 26.6621C89.1715 26.1868 89.0186 25.6497 89.0186 25.0508C89.0186 24.4909 89.1227 23.9961 89.3311 23.5664C89.5459 23.1302 89.8584 22.7656 90.2686 22.4727C90.6852 22.1797 91.193 21.9583 91.792 21.8086C92.391 21.6523 93.0745 21.5742 93.8428 21.5742H95.6885ZM105.015 17.4336V19.1523H99.0576V17.4336H105.015ZM100.776 14.8457H103.13V25.0801C103.13 25.4056 103.175 25.6562 103.267 25.832C103.364 26.0013 103.498 26.1152 103.667 26.1738C103.836 26.2324 104.035 26.2617 104.263 26.2617C104.425 26.2617 104.582 26.252 104.731 26.2324C104.881 26.2129 105.002 26.1934 105.093 26.1738L105.103 27.9707C104.907 28.0293 104.679 28.0814 104.419 28.127C104.165 28.1725 103.872 28.1953 103.54 28.1953C103 28.1953 102.521 28.1009 102.104 27.9121C101.688 27.7168 101.362 27.401 101.128 26.9648C100.894 26.5286 100.776 25.9492 100.776 25.2266V14.8457Z" fill="#E2E6FF"/>
<g opacity="0.9" clip-path="url(#clip0_29_679)">
<path d="M46.3147 17.5488H45.6574V24.7737C45.6574 25.8986 45.0024 26.9157 43.6894 26.9157H30.8252V27.2592C30.8252 28.2537 31.9563 29.2576 33.1179 29.2576H42.9532L46.7159 31.47L46.1702 29.2576H46.3147C47.4755 29.2576 47.9993 28.2561 47.9993 27.2592V19.2639C47.9993 18.2694 47.4755 17.5488 46.3147 17.5488Z" fill="#E2E6FF"/>
<path d="M41.7689 12.5293H26.8275C25.5129 12.5293 24 13.6971 24 14.8228V23.8782C24 24.9149 25.2818 25.6636 26.5113 25.7791L25.7112 28.8166L30.8384 25.8002H41.7689C43.0835 25.8002 44.2966 25.0031 44.2966 23.8782V16.5519V14.8228C44.2966 13.6971 43.0827 12.5293 41.7689 12.5293ZM29.1069 20.1733C28.3614 20.1733 27.7572 19.5691 27.7572 18.8236C27.7572 18.0781 28.3614 17.4739 29.1069 17.4739C29.8517 17.4739 30.4567 18.0781 30.4567 18.8236C30.4567 19.5691 29.8517 20.1733 29.1069 20.1733ZM34.1483 20.1733C33.4028 20.1733 32.7986 19.5691 32.7986 18.8236C32.7986 18.0781 33.4028 17.4739 34.1483 17.4739C34.8938 17.4739 35.498 18.0781 35.498 18.8236C35.498 19.5691 34.8938 20.1733 34.1483 20.1733ZM39.1905 20.1733C38.445 20.1733 37.84 19.5691 37.84 18.8236C37.84 18.0781 38.445 17.4739 39.1905 17.4739C39.9344 17.4739 40.5402 18.0781 40.5402 18.8236C40.5402 19.5691 39.9344 20.1733 39.1905 20.1733Z" fill="#E2E6FF"/>
</g>
<defs>
<clipPath id="clip0_29_679">
<rect width="23.9992" height="24" fill="white" transform="translate(24 10)"/>
</clipPath>
</defs>
</svg>
