<svg width="14" height="14" viewBox="0 0 14 14" fill="none" xmlns="http://www.w3.org/2000/svg">
<path d="M1.01041 3.11091C0.424621 2.52513 0.424621 1.57538 1.01041 0.989592C1.59619 0.403806 2.54594 0.403806 3.13173 0.989592L13.0312 10.8891C13.617 11.4749 13.617 12.4246 13.0312 13.0104C12.4454 13.5962 11.4957 13.5962 10.9099 13.0104L1.01041 3.11091Z" fill="#4E4D57"/>
<path d="M3.13173 13.0104C2.54594 13.5962 1.59619 13.5962 1.01041 13.0104C0.424621 12.4246 0.424621 11.4749 1.01041 10.8891L10.9099 0.989592C11.4957 0.403807 12.4454 0.403806 13.0312 0.989592C13.617 1.57538 13.617 2.52513 13.0312 3.11091L3.13173 13.0104Z" fill="#4E4D57"/>
</svg>
