<svg width="1166" height="1212" viewBox="0 0 1166 1212" fill="none" xmlns="http://www.w3.org/2000/svg">
<path d="M341.194 73.6724L310.5 25.5C310.5 15.835 318.335 8 328 8H838.5C848.165 8 856 15.835 856 25.5L828.211 73.0782C824.984 78.6033 819.066 82 812.668 82H356.374C350.224 82 344.499 78.8595 341.194 73.6724Z" fill="#5C56EB"/>
<path d="M22.5 267.5V42.094C22.5 32.1162 30.6161 24.0423 40.5937 24.0942L310.5 25.5M310.5 25.5L341.194 73.6724C344.499 78.8595 350.224 82 356.374 82H812.668C819.066 82 824.984 78.6033 828.211 73.0782L856 25.5M310.5 25.5V25.5C310.5 15.835 318.335 8 328 8H838.5C848.165 8 856 15.835 856 25.5V25.5M856 25.5H1131C1140.94 25.5 1149 33.5589 1149 43.5V269" stroke="url(#paint0_linear_1_1224)" stroke-width="15"/>
<path fill-rule="evenodd" clip-rule="evenodd" d="M12.5 559H32.5V565C31.2856 565.912 30.5 567.364 30.5 569C30.5 570.636 31.2856 572.088 32.5 573V575C31.2856 575.912 30.5 577.364 30.5 579C30.5 580.636 31.2856 582.088 32.5 583V585C31.2856 585.912 30.5 587.364 30.5 589C30.5 590.636 31.2856 592.088 32.5 593V595C31.2856 595.912 30.5 597.364 30.5 599C30.5 600.636 31.2856 602.088 32.5 603V605C31.2856 605.912 30.5 607.364 30.5 609C30.5 610.636 31.2856 612.088 32.5 613V615C31.2856 615.912 30.5 617.364 30.5 619C30.5 620.636 31.2856 622.088 32.5 623V625C31.2856 625.912 30.5 627.364 30.5 629C30.5 630.636 31.2856 632.088 32.5 633V635C31.2856 635.912 30.5 637.364 30.5 639C30.5 640.636 31.2856 642.088 32.5 643V645C31.2856 645.912 30.5 647.364 30.5 649C30.5 650.636 31.2856 652.088 32.5 653V655C31.2856 655.912 30.5 657.364 30.5 659C30.5 660.636 31.2856 662.088 32.5 663V665C31.2856 665.912 30.5 667.364 30.5 669C30.5 670.636 31.2856 672.088 32.5 673V675C31.2856 675.912 30.5 677.364 30.5 679C30.5 680.636 31.2856 682.088 32.5 683V693H12.5V559Z" fill="url(#paint1_linear_1_1224)"/>
<path fill-rule="evenodd" clip-rule="evenodd" d="M1159.5 554H1139.5V560C1140.71 560.912 1141.5 562.364 1141.5 564C1141.5 565.636 1140.71 567.088 1139.5 568V570C1140.71 570.912 1141.5 572.364 1141.5 574C1141.5 575.636 1140.71 577.088 1139.5 578V580C1140.71 580.912 1141.5 582.364 1141.5 584C1141.5 585.636 1140.71 587.088 1139.5 588V590C1140.71 590.912 1141.5 592.364 1141.5 594C1141.5 595.636 1140.71 597.088 1139.5 598V600C1140.71 600.912 1141.5 602.364 1141.5 604C1141.5 605.636 1140.71 607.088 1139.5 608V610C1140.71 610.912 1141.5 612.364 1141.5 614C1141.5 615.636 1140.71 617.088 1139.5 618V620C1140.71 620.912 1141.5 622.364 1141.5 624C1141.5 625.636 1140.71 627.088 1139.5 628V630C1140.71 630.912 1141.5 632.364 1141.5 634C1141.5 635.636 1140.71 637.088 1139.5 638V640C1140.71 640.912 1141.5 642.364 1141.5 644C1141.5 645.636 1140.71 647.088 1139.5 648V650C1140.71 650.912 1141.5 652.364 1141.5 654C1141.5 655.636 1140.71 657.088 1139.5 658V660C1140.71 660.912 1141.5 662.364 1141.5 664C1141.5 665.636 1140.71 667.088 1139.5 668V670C1140.71 670.912 1141.5 672.364 1141.5 674C1141.5 675.636 1140.71 677.088 1139.5 678V688H1159.5V554Z" fill="url(#paint2_linear_1_1224)"/>
<g filter="url(#filter0_f_1_1224)">
<rect x="373.5" y="62" width="409" height="10" fill="#430285"/>
</g>
<path d="M549.953 32.25H554.422L559.5 48.0781L564.578 32.25H569.047L561.312 55H557.688L549.953 32.25ZM547.234 32.25H551.859L552.719 49.6875V55H547.234V32.25ZM567.141 32.25H571.781V55H566.281V49.6875L567.141 32.25ZM583.828 50.75V43.7812C583.828 43.3021 583.76 42.8906 583.625 42.5469C583.49 42.2031 583.276 41.9375 582.984 41.75C582.693 41.5521 582.302 41.4531 581.812 41.4531C581.417 41.4531 581.078 41.5208 580.797 41.6562C580.516 41.7917 580.302 41.9948 580.156 42.2656C580.01 42.5365 579.938 42.8802 579.938 43.2969H574.672C574.672 42.5156 574.844 41.7917 575.188 41.125C575.542 40.4479 576.042 39.8594 576.688 39.3594C577.344 38.8594 578.125 38.474 579.031 38.2031C579.948 37.9219 580.969 37.7812 582.094 37.7812C583.438 37.7812 584.635 38.0052 585.688 38.4531C586.75 38.901 587.589 39.5729 588.203 40.4688C588.818 41.3542 589.125 42.4688 589.125 43.8125V50.7344C589.125 51.8385 589.188 52.6771 589.312 53.25C589.438 53.8125 589.615 54.3073 589.844 54.7344V55H584.562C584.312 54.4792 584.125 53.8438 584 53.0938C583.885 52.3333 583.828 51.5521 583.828 50.75ZM584.469 44.6719L584.5 47.4844H582.172C581.682 47.4844 581.266 47.5521 580.922 47.6875C580.589 47.8229 580.318 48.0104 580.109 48.25C579.911 48.4792 579.766 48.7396 579.672 49.0312C579.589 49.3229 579.547 49.6302 579.547 49.9531C579.547 50.2656 579.62 50.5469 579.766 50.7969C579.922 51.0365 580.13 51.224 580.391 51.3594C580.651 51.4948 580.943 51.5625 581.266 51.5625C581.849 51.5625 582.344 51.4531 582.75 51.2344C583.167 51.0052 583.484 50.7292 583.703 50.4062C583.922 50.0833 584.031 49.7812 584.031 49.5L585.188 51.6562C584.979 52.0729 584.74 52.4948 584.469 52.9219C584.208 53.349 583.88 53.7448 583.484 54.1094C583.099 54.4635 582.625 54.7552 582.062 54.9844C581.5 55.2031 580.818 55.3125 580.016 55.3125C578.974 55.3125 578.016 55.099 577.141 54.6719C576.276 54.2448 575.583 53.651 575.062 52.8906C574.542 52.1198 574.281 51.2344 574.281 50.2344C574.281 49.3594 574.438 48.5781 574.75 47.8906C575.073 47.2031 575.557 46.6198 576.203 46.1406C576.849 45.6615 577.672 45.2969 578.672 45.0469C579.672 44.7969 580.849 44.6719 582.203 44.6719H584.469ZM597.359 42.2812V55H592.094V38.0938H597.016L597.359 42.2812ZM602.359 37.9688L602.266 42.8594C602.057 42.8385 601.776 42.8125 601.422 42.7812C601.068 42.75 600.771 42.7344 600.531 42.7344C599.917 42.7344 599.385 42.8073 598.938 42.9531C598.5 43.0885 598.135 43.2969 597.844 43.5781C597.562 43.849 597.354 44.1927 597.219 44.6094C597.094 45.026 597.036 45.5104 597.047 46.0625L596.094 45.4375C596.094 44.3021 596.203 43.2708 596.422 42.3438C596.651 41.4062 596.974 40.599 597.391 39.9219C597.807 39.2344 598.312 38.7083 598.906 38.3438C599.5 37.9688 600.167 37.7812 600.906 37.7812C601.167 37.7812 601.422 37.7969 601.672 37.8281C601.932 37.8594 602.161 37.9062 602.359 37.9688ZM609.734 38.0938V55H604.453V38.0938H609.734ZM604.141 33.7344C604.141 32.9844 604.411 32.3698 604.953 31.8906C605.495 31.4115 606.198 31.1719 607.062 31.1719C607.927 31.1719 608.63 31.4115 609.172 31.8906C609.714 32.3698 609.984 32.9844 609.984 33.7344C609.984 34.4844 609.714 35.099 609.172 35.5781C608.63 36.0573 607.927 36.2969 607.062 36.2969C606.198 36.2969 605.495 36.0573 604.953 35.5781C604.411 35.099 604.141 34.4844 604.141 33.7344ZM612.328 46.7188V46.3906C612.328 45.151 612.505 44.0104 612.859 42.9688C613.214 41.9167 613.734 41.0052 614.422 40.2344C615.109 39.4635 615.958 38.8646 616.969 38.4375C617.979 38 619.146 37.7812 620.469 37.7812C621.802 37.7812 622.974 38 623.984 38.4375C625.005 38.8646 625.859 39.4635 626.547 40.2344C627.234 41.0052 627.755 41.9167 628.109 42.9688C628.464 44.0104 628.641 45.151 628.641 46.3906V46.7188C628.641 47.9479 628.464 49.0885 628.109 50.1406C627.755 51.1823 627.234 52.0938 626.547 52.875C625.859 53.6458 625.01 54.2448 624 54.6719C622.99 55.099 621.823 55.3125 620.5 55.3125C619.177 55.3125 618.005 55.099 616.984 54.6719C615.964 54.2448 615.109 53.6458 614.422 52.875C613.734 52.0938 613.214 51.1823 612.859 50.1406C612.505 49.0885 612.328 47.9479 612.328 46.7188ZM617.594 46.3906V46.7188C617.594 47.3542 617.641 47.9479 617.734 48.5C617.828 49.0521 617.984 49.5365 618.203 49.9531C618.422 50.3594 618.719 50.6771 619.094 50.9062C619.469 51.1354 619.938 51.25 620.5 51.25C621.052 51.25 621.51 51.1354 621.875 50.9062C622.25 50.6771 622.547 50.3594 622.766 49.9531C622.984 49.5365 623.141 49.0521 623.234 48.5C623.328 47.9479 623.375 47.3542 623.375 46.7188V46.3906C623.375 45.776 623.328 45.1979 623.234 44.6562C623.141 44.1042 622.984 43.6198 622.766 43.2031C622.547 42.776 622.25 42.4427 621.875 42.2031C621.5 41.9635 621.031 41.8438 620.469 41.8438C619.917 41.8438 619.453 41.9635 619.078 42.2031C618.714 42.4427 618.422 42.776 618.203 43.2031C617.984 43.6198 617.828 44.1042 617.734 44.6562C617.641 45.1979 617.594 45.776 617.594 46.3906Z" fill="#E2E6FF"/>
<path d="M372 1204H40.5C30.5589 1204 22.5 1195.94 22.5 1186V693.458C22.5 693.167 22.3733 692.891 22.1529 692.701L14.2471 685.885C10.2807 682.466 8 677.489 8 672.252V575.189C8 569.417 10.7679 563.996 15.4428 560.61L22.0865 555.799C22.3462 555.611 22.5 555.31 22.5 554.989V42.094C22.5 32.1162 30.6161 24.0423 40.5937 24.0942L300.687 25.4489C306.804 25.4807 312.486 28.6172 315.773 33.7762L341.194 73.6724C344.499 78.8595 350.224 82 356.374 82H812.668C819.066 82 824.984 78.6033 828.211 73.0782L850.789 34.4218C854.016 28.8967 859.934 25.5 866.332 25.5H1131C1140.94 25.5 1149 33.5589 1149 43.5V556.586C1149 556.851 1149.11 557.105 1149.29 557.293L1153.23 561.228C1156.6 564.604 1158.5 569.182 1158.5 573.956V674.349C1158.5 679.817 1156.01 684.988 1151.74 688.404L1143.88 694.7C1143.64 694.89 1143.5 695.177 1143.5 695.481V1186C1143.5 1195.94 1135.44 1204 1125.5 1204H801M372 1204L378.595 1195.48C382.004 1191.08 387.26 1188.5 392.828 1188.5H779.003C784.094 1188.5 788.948 1190.66 792.361 1194.43L801 1204M372 1204H801" stroke="url(#paint3_linear_1_1224)" stroke-width="15"/>
<g filter="url(#filter1_i_1_1224)">
<path d="M382.5 1199C382.5 1192.92 387.425 1188 393.5 1188H463.5C463.5 1194.08 458.575 1199 452.5 1199H382.5Z" fill="#3934C2"/>
</g>
<g filter="url(#filter2_i_1_1224)">
<path d="M790.5 1199C790.5 1192.92 785.575 1188 779.5 1188H709.5C709.5 1194.08 714.425 1199 720.5 1199H790.5Z" fill="#3934C2"/>
</g>
<g filter="url(#filter3_i_1_1224)">
<circle cx="586" cy="1192.5" r="4.5" fill="#3934C2"/>
</g>
<g filter="url(#filter4_i_1_1224)">
<circle cx="562" cy="1192.5" r="4.5" fill="#3934C2"/>
</g>
<g filter="url(#filter5_i_1_1224)">
<circle cx="539" cy="1192.5" r="3.5" fill="#3934C2"/>
</g>
<g filter="url(#filter6_i_1_1224)">
<circle cx="633" cy="1192.5" r="3.5" fill="#3934C2"/>
</g>
<g filter="url(#filter7_i_1_1224)">
<circle cx="654" cy="1192.5" r="2.5" fill="#3934C2"/>
</g>
<g filter="url(#filter8_i_1_1224)">
<circle cx="518" cy="1192.5" r="2.5" fill="#3934C2"/>
</g>
<g filter="url(#filter9_i_1_1224)">
<circle cx="610" cy="1192.5" r="4.5" fill="#3934C2"/>
</g>
<circle cx="37.5" cy="39" r="13.5" fill="#0F0747" stroke="#FFDC74" stroke-width="11"/>
<circle cx="37.5" cy="1185" r="13.5" fill="#0F0747" stroke="#FFAE51" stroke-width="11"/>
<circle cx="1129.5" cy="39" r="13.5" fill="#0F0747" stroke="#FFDC74" stroke-width="11"/>
<circle cx="1129.5" cy="1185" r="13.5" fill="#0F0747" stroke="#FFAE51" stroke-width="11"/>
<defs>
<filter id="filter0_f_1_1224" x="333.5" y="22" width="489" height="90" filterUnits="userSpaceOnUse" color-interpolation-filters="sRGB">
<feFlood flood-opacity="0" result="BackgroundImageFix"/>
<feBlend mode="normal" in="SourceGraphic" in2="BackgroundImageFix" result="shape"/>
<feGaussianBlur stdDeviation="20" result="effect1_foregroundBlur_1_1224"/>
</filter>
<filter id="filter1_i_1_1224" x="382.5" y="1184" width="85" height="15" filterUnits="userSpaceOnUse" color-interpolation-filters="sRGB">
<feFlood flood-opacity="0" result="BackgroundImageFix"/>
<feBlend mode="normal" in="SourceGraphic" in2="BackgroundImageFix" result="shape"/>
<feColorMatrix in="SourceAlpha" type="matrix" values="0 0 0 0 0 0 0 0 0 0 0 0 0 0 0 0 0 0 127 0" result="hardAlpha"/>
<feOffset dx="5" dy="-4"/>
<feGaussianBlur stdDeviation="2"/>
<feComposite in2="hardAlpha" operator="arithmetic" k2="-1" k3="1"/>
<feColorMatrix type="matrix" values="0 0 0 0 0 0 0 0 0 0 0 0 0 0 0 0 0 0 0.25 0"/>
<feBlend mode="normal" in2="shape" result="effect1_innerShadow_1_1224"/>
</filter>
<filter id="filter2_i_1_1224" x="709.5" y="1184" width="85" height="15" filterUnits="userSpaceOnUse" color-interpolation-filters="sRGB">
<feFlood flood-opacity="0" result="BackgroundImageFix"/>
<feBlend mode="normal" in="SourceGraphic" in2="BackgroundImageFix" result="shape"/>
<feColorMatrix in="SourceAlpha" type="matrix" values="0 0 0 0 0 0 0 0 0 0 0 0 0 0 0 0 0 0 127 0" result="hardAlpha"/>
<feOffset dx="5" dy="-4"/>
<feGaussianBlur stdDeviation="2"/>
<feComposite in2="hardAlpha" operator="arithmetic" k2="-1" k3="1"/>
<feColorMatrix type="matrix" values="0 0 0 0 0 0 0 0 0 0 0 0 0 0 0 0 0 0 0.25 0"/>
<feBlend mode="normal" in2="shape" result="effect1_innerShadow_1_1224"/>
</filter>
<filter id="filter3_i_1_1224" x="581.5" y="1186" width="11" height="11" filterUnits="userSpaceOnUse" color-interpolation-filters="sRGB">
<feFlood flood-opacity="0" result="BackgroundImageFix"/>
<feBlend mode="normal" in="SourceGraphic" in2="BackgroundImageFix" result="shape"/>
<feColorMatrix in="SourceAlpha" type="matrix" values="0 0 0 0 0 0 0 0 0 0 0 0 0 0 0 0 0 0 127 0" result="hardAlpha"/>
<feOffset dx="2" dy="-2"/>
<feGaussianBlur stdDeviation="2"/>
<feComposite in2="hardAlpha" operator="arithmetic" k2="-1" k3="1"/>
<feColorMatrix type="matrix" values="0 0 0 0 0 0 0 0 0 0 0 0 0 0 0 0 0 0 0.25 0"/>
<feBlend mode="normal" in2="shape" result="effect1_innerShadow_1_1224"/>
</filter>
<filter id="filter4_i_1_1224" x="557.5" y="1186" width="11" height="11" filterUnits="userSpaceOnUse" color-interpolation-filters="sRGB">
<feFlood flood-opacity="0" result="BackgroundImageFix"/>
<feBlend mode="normal" in="SourceGraphic" in2="BackgroundImageFix" result="shape"/>
<feColorMatrix in="SourceAlpha" type="matrix" values="0 0 0 0 0 0 0 0 0 0 0 0 0 0 0 0 0 0 127 0" result="hardAlpha"/>
<feOffset dx="2" dy="-2"/>
<feGaussianBlur stdDeviation="2"/>
<feComposite in2="hardAlpha" operator="arithmetic" k2="-1" k3="1"/>
<feColorMatrix type="matrix" values="0 0 0 0 0 0 0 0 0 0 0 0 0 0 0 0 0 0 0.25 0"/>
<feBlend mode="normal" in2="shape" result="effect1_innerShadow_1_1224"/>
</filter>
<filter id="filter5_i_1_1224" x="535.5" y="1187" width="9" height="9" filterUnits="userSpaceOnUse" color-interpolation-filters="sRGB">
<feFlood flood-opacity="0" result="BackgroundImageFix"/>
<feBlend mode="normal" in="SourceGraphic" in2="BackgroundImageFix" result="shape"/>
<feColorMatrix in="SourceAlpha" type="matrix" values="0 0 0 0 0 0 0 0 0 0 0 0 0 0 0 0 0 0 127 0" result="hardAlpha"/>
<feOffset dx="2" dy="-2"/>
<feGaussianBlur stdDeviation="2"/>
<feComposite in2="hardAlpha" operator="arithmetic" k2="-1" k3="1"/>
<feColorMatrix type="matrix" values="0 0 0 0 0 0 0 0 0 0 0 0 0 0 0 0 0 0 0.25 0"/>
<feBlend mode="normal" in2="shape" result="effect1_innerShadow_1_1224"/>
</filter>
<filter id="filter6_i_1_1224" x="629.5" y="1187" width="9" height="9" filterUnits="userSpaceOnUse" color-interpolation-filters="sRGB">
<feFlood flood-opacity="0" result="BackgroundImageFix"/>
<feBlend mode="normal" in="SourceGraphic" in2="BackgroundImageFix" result="shape"/>
<feColorMatrix in="SourceAlpha" type="matrix" values="0 0 0 0 0 0 0 0 0 0 0 0 0 0 0 0 0 0 127 0" result="hardAlpha"/>
<feOffset dx="2" dy="-2"/>
<feGaussianBlur stdDeviation="2"/>
<feComposite in2="hardAlpha" operator="arithmetic" k2="-1" k3="1"/>
<feColorMatrix type="matrix" values="0 0 0 0 0 0 0 0 0 0 0 0 0 0 0 0 0 0 0.25 0"/>
<feBlend mode="normal" in2="shape" result="effect1_innerShadow_1_1224"/>
</filter>
<filter id="filter7_i_1_1224" x="651.5" y="1188" width="7" height="7" filterUnits="userSpaceOnUse" color-interpolation-filters="sRGB">
<feFlood flood-opacity="0" result="BackgroundImageFix"/>
<feBlend mode="normal" in="SourceGraphic" in2="BackgroundImageFix" result="shape"/>
<feColorMatrix in="SourceAlpha" type="matrix" values="0 0 0 0 0 0 0 0 0 0 0 0 0 0 0 0 0 0 127 0" result="hardAlpha"/>
<feOffset dx="2" dy="-2"/>
<feGaussianBlur stdDeviation="2"/>
<feComposite in2="hardAlpha" operator="arithmetic" k2="-1" k3="1"/>
<feColorMatrix type="matrix" values="0 0 0 0 0 0 0 0 0 0 0 0 0 0 0 0 0 0 0.25 0"/>
<feBlend mode="normal" in2="shape" result="effect1_innerShadow_1_1224"/>
</filter>
<filter id="filter8_i_1_1224" x="515.5" y="1188" width="7" height="7" filterUnits="userSpaceOnUse" color-interpolation-filters="sRGB">
<feFlood flood-opacity="0" result="BackgroundImageFix"/>
<feBlend mode="normal" in="SourceGraphic" in2="BackgroundImageFix" result="shape"/>
<feColorMatrix in="SourceAlpha" type="matrix" values="0 0 0 0 0 0 0 0 0 0 0 0 0 0 0 0 0 0 127 0" result="hardAlpha"/>
<feOffset dx="2" dy="-2"/>
<feGaussianBlur stdDeviation="2"/>
<feComposite in2="hardAlpha" operator="arithmetic" k2="-1" k3="1"/>
<feColorMatrix type="matrix" values="0 0 0 0 0 0 0 0 0 0 0 0 0 0 0 0 0 0 0.25 0"/>
<feBlend mode="normal" in2="shape" result="effect1_innerShadow_1_1224"/>
</filter>
<filter id="filter9_i_1_1224" x="605.5" y="1186" width="11" height="11" filterUnits="userSpaceOnUse" color-interpolation-filters="sRGB">
<feFlood flood-opacity="0" result="BackgroundImageFix"/>
<feBlend mode="normal" in="SourceGraphic" in2="BackgroundImageFix" result="shape"/>
<feColorMatrix in="SourceAlpha" type="matrix" values="0 0 0 0 0 0 0 0 0 0 0 0 0 0 0 0 0 0 127 0" result="hardAlpha"/>
<feOffset dx="2" dy="-2"/>
<feGaussianBlur stdDeviation="2"/>
<feComposite in2="hardAlpha" operator="arithmetic" k2="-1" k3="1"/>
<feColorMatrix type="matrix" values="0 0 0 0 0 0 0 0 0 0 0 0 0 0 0 0 0 0 0.25 0"/>
<feBlend mode="normal" in2="shape" result="effect1_innerShadow_1_1224"/>
</filter>
<linearGradient id="paint0_linear_1_1224" x1="583.25" y1="25.5" x2="583.25" y2="269" gradientUnits="userSpaceOnUse">
<stop stop-color="#FEDB73"/>
<stop offset="1" stop-color="#FFAD50"/>
</linearGradient>
<linearGradient id="paint1_linear_1_1224" x1="32.5" y1="626" x2="12.5" y2="626" gradientUnits="userSpaceOnUse">
<stop stop-color="#4540CD"/>
<stop offset="1" stop-color="#1913A5"/>
</linearGradient>
<linearGradient id="paint2_linear_1_1224" x1="1139.5" y1="621" x2="1159.5" y2="621" gradientUnits="userSpaceOnUse">
<stop stop-color="#4540CD"/>
<stop offset="1" stop-color="#1913A5"/>
</linearGradient>
<linearGradient id="paint3_linear_1_1224" x1="583.25" y1="25.5" x2="583.25" y2="269" gradientUnits="userSpaceOnUse">
<stop stop-color="#FEDB73"/>
<stop offset="1" stop-color="#FFAD50"/>
</linearGradient>
</defs>
</svg>
