<svg width="1288" height="1098" viewBox="0 0 1288 1098" fill="none" xmlns="http://www.w3.org/2000/svg">
<g filter="url(#filter0_d_298_1948)">
<path d="M419.586 1045.81H871.605" stroke="url(#paint0_linear_298_1948)" stroke-width="4.2543"/>
</g>
<g filter="url(#filter1_d_298_1948)">
<path d="M467.447 1044.75L519.562 992.634H768.438L820.553 1044.75" stroke="url(#paint1_linear_298_1948)" stroke-width="2.12715"/>
</g>
<g filter="url(#filter2_d_298_1948)">
<path d="M768.438 992.634H519.562L550.406 1029.86H738.658L768.438 992.634Z" fill="url(#paint2_linear_298_1948)"/>
<path d="M467.447 1044.75L519.562 992.634M519.562 992.634H768.438M519.562 992.634L550.406 1029.86H738.658L768.438 992.634M768.438 992.634L820.553 1044.75" stroke="url(#paint3_linear_298_1948)" stroke-width="2.12715"/>
</g>
<g filter="url(#filter3_d_298_1948)">
<path d="M55.5808 1013.91L32.4451 1047.94H49.271L71.3551 1013.91H55.5808Z" fill="url(#paint4_linear_298_1948)"/>
<path d="M75.5616 1013.91L53.4775 1047.94H75.5616L96.5941 1013.91H75.5616Z" fill="url(#paint5_linear_298_1948)"/>
<path d="M108.162 1047.94L126.04 1013.91H100.801L79.7681 1047.94H108.162Z" fill="url(#paint6_linear_298_1948)"/>
</g>
<g filter="url(#filter4_d_298_1948)">
<path d="M330.246 975.616L310.038 1000.08H330.246L348.326 975.616H330.246Z" fill="url(#paint7_linear_298_1948)"/>
<path fill-rule="evenodd" clip-rule="evenodd" d="M472.765 1000.08L492.973 975.616H394.06L377.043 1000.08H472.765ZM388.742 975.616H352.581L334.5 1000.08H370.662L388.742 975.616Z" fill="url(#paint8_linear_298_1948)"/>
</g>
<g filter="url(#filter5_d_298_1948)">
<path fill-rule="evenodd" clip-rule="evenodd" d="M36.3905 129.184L25 141.947V300.419L62.0192 261.067V100.467L36.3905 129.184ZM25 315.309V340.629L62.0192 303.61V275.957L25 315.309Z" fill="url(#paint9_linear_298_1948)"/>
</g>
<g filter="url(#filter6_d_298_1948)">
<path d="M138.802 1017.1H134.548V1018.06L134.961 1018.92L138.802 1017.1ZM160.074 1061.77L156.233 1063.6L157.388 1066.02H160.074V1061.77ZM410.014 1061.77V1066.02C411.596 1066.02 413.048 1065.14 413.782 1063.74L410.014 1061.77ZM433.412 1017.1L437.181 1019.07L437.667 1018.14V1017.1H433.412ZM134.961 1018.92L156.233 1063.6L163.915 1059.94L142.643 1015.27L134.961 1018.92ZM160.074 1066.02H410.014V1057.51H160.074V1066.02ZM413.782 1063.74L437.181 1019.07L429.644 1015.12L406.245 1059.79L413.782 1063.74ZM143.057 1017.1V1014.97H134.548V1017.1H143.057ZM437.667 1017.1V1014.97H429.158V1017.1H437.667Z" fill="url(#paint10_linear_298_1948)"/>
</g>
<g filter="url(#filter7_d_298_1948)">
<path d="M47.335 798V991.57M495.1 1014.97H47.335V991.57M47.335 991.57L81.3693 943.71H517.435" stroke="url(#paint11_linear_298_1948)" stroke-width="2.12715"/>
</g>
<g filter="url(#filter8_d_298_1948)">
<line x1="172.004" y1="113.891" x2="114.571" y2="41.5684" stroke="url(#paint12_linear_298_1948)" stroke-width="2.12715" stroke-linejoin="round"/>
</g>
<g filter="url(#filter9_d_298_1948)">
<path fill-rule="evenodd" clip-rule="evenodd" d="M36.3905 55.7971V129.184L101.886 55.7971H36.3905Z" fill="url(#paint13_linear_298_1948)"/>
<path d="M113.277 43.0342L101.886 55.7971M148.259 1047.31H25V953.711M25 953.711L76.0516 905.85V682.5L25 633.575M25 953.711V633.575M25 633.575V141.947L36.3905 129.184M36.3905 129.184V55.7971H101.886M36.3905 129.184L101.886 55.7971" stroke="url(#paint14_linear_298_1948)" stroke-width="2.12715"/>
</g>
<g filter="url(#filter10_d_298_1948)">
<path d="M1232.42 1013.91L1255.55 1047.94H1238.73L1216.64 1013.91H1232.42Z" fill="url(#paint15_linear_298_1948)"/>
<path d="M1212.44 1013.91L1234.52 1047.94H1212.44L1191.41 1013.91H1212.44Z" fill="url(#paint16_linear_298_1948)"/>
<path d="M1179.84 1047.94L1161.96 1013.91H1187.2L1208.23 1047.94H1179.84Z" fill="url(#paint17_linear_298_1948)"/>
</g>
<g filter="url(#filter11_d_298_1948)">
<path d="M957.754 975.616L977.962 1000.08H957.754L939.674 975.616H957.754Z" fill="url(#paint18_linear_298_1948)"/>
<path fill-rule="evenodd" clip-rule="evenodd" d="M815.236 1000.08L795.028 975.616H893.94L910.957 1000.08H815.236ZM899.258 975.616H935.419L953.5 1000.08H917.339L899.258 975.616Z" fill="url(#paint19_linear_298_1948)"/>
</g>
<g filter="url(#filter12_d_298_1948)">
<path fill-rule="evenodd" clip-rule="evenodd" d="M1251.61 129.184L1263 141.947V300.419L1225.98 261.067V100.467L1251.61 129.184ZM1263 315.309V340.629L1225.98 303.61V275.957L1263 315.309Z" fill="url(#paint20_linear_298_1948)"/>
</g>
<g filter="url(#filter13_d_298_1948)">
<path fill-rule="evenodd" clip-rule="evenodd" d="M1251.61 55.7971V129.184L1186.11 55.7971H1251.61Z" fill="url(#paint21_linear_298_1948)"/>
<path d="M1174.72 43.0342L1186.11 55.7971M1140.69 1046.96H1263V953.361M1263 953.361L1211.95 905.5V682.149L1263 633.225M1263 953.361V633.225M1263 633.225V141.947L1251.61 129.184M1251.61 129.184V55.7971H1186.11M1251.61 129.184L1186.11 55.7971" stroke="url(#paint22_linear_298_1948)" stroke-width="2.12715"/>
</g>
<g filter="url(#filter14_d_298_1948)">
<path d="M1152.39 1017.1H1156.64V1018.06L1156.23 1018.92L1152.39 1017.1ZM1131.12 1061.77L1134.96 1063.6L1133.8 1066.02H1131.12V1061.77ZM881.177 1061.77V1066.02C879.595 1066.02 878.143 1065.14 877.409 1063.74L881.177 1061.77ZM857.779 1017.1L854.01 1019.07L853.524 1018.14V1017.1H857.779ZM1156.23 1018.92L1134.96 1063.6L1127.28 1059.94L1148.55 1015.27L1156.23 1018.92ZM1131.12 1066.02H881.177V1057.51H1131.12V1066.02ZM877.409 1063.74L854.01 1019.07L861.547 1015.12L884.946 1059.79L877.409 1063.74ZM1148.13 1017.1V1014.97H1156.64V1017.1H1148.13ZM853.524 1017.1V1014.97H862.033V1017.1H853.524Z" fill="url(#paint23_linear_298_1948)"/>
</g>
<g filter="url(#filter15_d_298_1948)">
<path d="M1240.66 798V991.57M792.9 1014.97H1240.66V991.57M1240.66 991.57L1206.63 943.71H770.565" stroke="url(#paint24_linear_298_1948)" stroke-width="2.12715"/>
</g>
<line y1="-1.06357" x2="92.3535" y2="-1.06357" transform="matrix(0.621882 -0.783111 -0.783111 -0.621882 1115.16 113.23)" stroke="url(#paint25_linear_298_1948)" stroke-width="2.12715" stroke-linejoin="round"/>
<g filter="url(#filter16_d_298_1948)">
<line x1="113.277" y1="43.0345" x2="1174.72" y2="43.0345" stroke="url(#paint26_linear_298_1948)" stroke-width="4.2543" stroke-linejoin="round"/>
</g>
<g filter="url(#filter17_d_298_1948)">
<path d="M171.773 78.1323L150.502 51.543H245.16L267.495 78.1323H171.773Z" fill="url(#paint27_linear_298_1948)"/>
<path d="M270.686 78.1323L249.414 51.543H288.766L311.101 78.1323H270.686Z" fill="url(#paint28_linear_298_1948)"/>
<path d="M315.356 78.1323L294.084 51.543H313.76L336.095 78.1323H315.356Z" fill="url(#paint29_linear_298_1948)"/>
<path d="M338.754 78.1323L317.483 51.543H334.5L356.835 78.1323H338.754Z" fill="url(#paint30_linear_298_1948)"/>
</g>
<g filter="url(#filter18_d_298_1948)">
<path d="M1118.35 78.1323L1139.63 51.543H1044.97L1022.63 78.1323H1118.35Z" fill="url(#paint31_linear_298_1948)"/>
<path d="M1019.44 78.1323L1040.71 51.543H1001.36L979.026 78.1323H1019.44Z" fill="url(#paint32_linear_298_1948)"/>
<path d="M974.771 78.1323L996.043 51.543H976.367L954.032 78.1323H974.771Z" fill="url(#paint33_linear_298_1948)"/>
<path d="M951.373 78.1323L972.644 51.543H955.627L933.292 78.1323H951.373Z" fill="url(#paint34_linear_298_1948)"/>
</g>
<g filter="url(#filter19_d_298_1948)">
<line y1="-1.06357" x2="92.3535" y2="-1.06357" transform="matrix(0.621882 -0.783111 -0.783111 -0.621882 1117.29 113.23)" stroke="url(#paint35_linear_298_1948)" stroke-width="2.12715" stroke-linejoin="round"/>
</g>
<g filter="url(#filter20_d_298_1948)">
<path d="M171.773 113.23L150.502 86.6411H379.17L387.679 113.23H171.773Z" fill="url(#paint36_linear_298_1948)"/>
</g>
<g filter="url(#filter21_d_298_1948)">
<path d="M1118.35 113.23L1139.63 86.6411H910.957L902.448 113.23H1118.35Z" fill="url(#paint37_linear_298_1948)"/>
</g>
<g filter="url(#filter22_d_298_1948)">
<path d="M383.139 109.965L363.619 44.7429C362.857 42.1948 364.593 39.5796 367.237 39.2935L646.722 9.05077C647.034 9.01703 647.348 9.01787 647.66 9.05328L922.729 40.3112C925.426 40.6176 927.15 43.3362 926.277 45.9059L904.48 110.113C903.894 111.839 902.274 113 900.451 113H387.215C385.335 113 383.678 111.766 383.139 109.965Z" fill="#1E1D2B"/>
<path d="M385.177 109.356L365.657 44.133C365.276 42.8589 366.144 41.5514 367.466 41.4083L646.951 11.1656C647.106 11.1487 647.264 11.1491 647.42 11.1668L922.489 42.4247C923.837 42.5779 924.699 43.9372 924.263 45.2221L902.466 109.43C902.173 110.292 901.363 110.873 900.451 110.873H387.215C386.275 110.873 385.446 110.256 385.177 109.356Z" stroke="url(#paint38_linear_298_1948)" stroke-width="4.2543" stroke-linejoin="round"/>
</g>
<g filter="url(#filter23_d_298_1948)">
<path d="M544.024 136.502L518.498 110.976H769.502L743.976 136.502H544.024Z" fill="url(#paint39_linear_298_1948)"/>
<path d="M544.024 136.502L518.498 110.976H769.502L743.976 136.502H544.024Z" stroke="url(#paint40_linear_298_1948)" stroke-width="4.2543" stroke-linejoin="round"/>
</g>
<g filter="url(#filter24_d_298_1948)">
<line y1="-2.12715" x2="36.0989" y2="-2.12715" transform="matrix(0.707107 -0.707107 -0.707107 -0.707107 742.913 134.375)" stroke="url(#paint41_linear_298_1948)" stroke-width="4.2543" stroke-linejoin="round"/>
</g>
<g filter="url(#filter25_d_298_1948)">
<line x1="543.584" y1="135.879" x2="518.058" y2="110.353" stroke="url(#paint42_linear_298_1948)" stroke-width="4.2543" stroke-linejoin="round"/>
</g>
<g filter="url(#filter26_d_298_1948)">
<line x1="385.552" y1="110.976" x2="902.448" y2="110.976" stroke="#8103FF" stroke-width="4.2543"/>
</g>
<path d="M574.172 55.2812L567.375 75H563.266L571.828 52.25H574.453L574.172 55.2812ZM579.859 75L573.047 55.2812L572.75 52.25H575.391L583.984 75H579.859ZM579.531 66.5625V69.6719H567.156V66.5625H579.531ZM590.188 51V75H586.406V51H590.188ZM594.328 51H598.094V71.3906L597.734 75H594.328V51ZM609.125 66.3906V66.7188C609.125 67.9688 608.984 69.1198 608.703 70.1719C608.432 71.2135 608.016 72.1198 607.453 72.8906C606.901 73.6615 606.214 74.2604 605.391 74.6875C604.578 75.1042 603.635 75.3125 602.562 75.3125C601.51 75.3125 600.594 75.1146 599.812 74.7188C599.031 74.3229 598.375 73.7604 597.844 73.0312C597.323 72.3021 596.901 71.4323 596.578 70.4219C596.255 69.4115 596.026 68.2969 595.891 67.0781V66.0312C596.026 64.8021 596.255 63.6875 596.578 62.6875C596.901 61.6771 597.323 60.8073 597.844 60.0781C598.375 59.3385 599.026 58.7708 599.797 58.375C600.578 57.9792 601.49 57.7812 602.531 57.7812C603.615 57.7812 604.568 57.9896 605.391 58.4062C606.224 58.8229 606.917 59.4167 607.469 60.1875C608.021 60.9479 608.432 61.8542 608.703 62.9062C608.984 63.9583 609.125 65.1198 609.125 66.3906ZM605.359 66.7188V66.3906C605.359 65.6302 605.297 64.9167 605.172 64.25C605.047 63.5729 604.839 62.9792 604.547 62.4688C604.266 61.9583 603.88 61.5573 603.391 61.2656C602.911 60.9635 602.312 60.8125 601.594 60.8125C600.927 60.8125 600.354 60.9271 599.875 61.1562C599.396 61.3854 598.995 61.6979 598.672 62.0938C598.349 62.4896 598.094 62.9479 597.906 63.4688C597.729 63.9896 597.609 64.5521 597.547 65.1562V67.9844C597.641 68.7656 597.839 69.4844 598.141 70.1406C598.453 70.7865 598.891 71.3073 599.453 71.7031C600.016 72.0885 600.74 72.2812 601.625 72.2812C602.323 72.2812 602.911 72.1406 603.391 71.8594C603.87 71.5781 604.25 71.1875 604.531 70.6875C604.823 70.1771 605.031 69.5833 605.156 68.9062C605.292 68.2292 605.359 67.5 605.359 66.7188ZM622.484 71.0156V58.0938H626.266V75H622.703L622.484 71.0156ZM623.016 67.5L624.281 67.4688C624.281 68.6042 624.156 69.651 623.906 70.6094C623.656 71.5573 623.271 72.3854 622.75 73.0938C622.229 73.7917 621.562 74.3385 620.75 74.7344C619.938 75.1198 618.964 75.3125 617.828 75.3125C617.005 75.3125 616.25 75.1927 615.562 74.9531C614.875 74.7135 614.281 74.3438 613.781 73.8438C613.292 73.3438 612.911 72.6927 612.641 71.8906C612.37 71.0885 612.234 70.1302 612.234 69.0156V58.0938H616V69.0469C616 69.6615 616.073 70.1771 616.219 70.5938C616.365 71 616.562 71.3281 616.812 71.5781C617.062 71.8281 617.354 72.0052 617.688 72.1094C618.021 72.2135 618.375 72.2656 618.75 72.2656C619.823 72.2656 620.667 72.0573 621.281 71.6406C621.906 71.2135 622.349 70.6406 622.609 69.9219C622.88 69.2031 623.016 68.3958 623.016 67.5ZM633.891 61.5312V75H630.125V58.0938H633.672L633.891 61.5312ZM633.281 65.9219L632 65.9062C632 64.7396 632.146 63.6615 632.438 62.6719C632.729 61.6823 633.156 60.8229 633.719 60.0938C634.281 59.3542 634.979 58.7865 635.812 58.3906C636.656 57.9844 637.63 57.7812 638.734 57.7812C639.505 57.7812 640.208 57.8958 640.844 58.125C641.49 58.3438 642.047 58.6927 642.516 59.1719C642.995 59.651 643.359 60.2656 643.609 61.0156C643.87 61.7656 644 62.6719 644 63.7344V75H640.234V64.0625C640.234 63.2396 640.109 62.5938 639.859 62.125C639.62 61.6562 639.271 61.3229 638.812 61.125C638.365 60.9167 637.828 60.8125 637.203 60.8125C636.495 60.8125 635.891 60.9479 635.391 61.2188C634.901 61.4896 634.5 61.8594 634.188 62.3281C633.875 62.7969 633.646 63.3385 633.5 63.9531C633.354 64.5677 633.281 65.224 633.281 65.9219ZM643.766 64.9219L642 65.3125C642 64.2917 642.141 63.3281 642.422 62.4219C642.714 61.5052 643.135 60.7031 643.688 60.0156C644.25 59.3177 644.943 58.7708 645.766 58.375C646.589 57.9792 647.531 57.7812 648.594 57.7812C649.458 57.7812 650.229 57.901 650.906 58.1406C651.594 58.3698 652.177 58.7344 652.656 59.2344C653.135 59.7344 653.5 60.3854 653.75 61.1875C654 61.9792 654.125 62.9375 654.125 64.0625V75H650.344V64.0469C650.344 63.1927 650.219 62.5312 649.969 62.0625C649.729 61.5938 649.385 61.2708 648.938 61.0938C648.49 60.9062 647.953 60.8125 647.328 60.8125C646.745 60.8125 646.229 60.9219 645.781 61.1406C645.344 61.349 644.974 61.6458 644.672 62.0312C644.37 62.4062 644.141 62.8385 643.984 63.3281C643.839 63.8177 643.766 64.349 643.766 64.9219ZM674.953 52.25V75H671.062V52.25H674.953ZM682.094 52.25V55.375H663.984V52.25H682.094ZM688.75 58.0938V75H684.969V58.0938H688.75ZM684.719 53.6562C684.719 53.0833 684.906 52.6094 685.281 52.2344C685.667 51.849 686.198 51.6562 686.875 51.6562C687.542 51.6562 688.068 51.849 688.453 52.2344C688.839 52.6094 689.031 53.0833 689.031 53.6562C689.031 54.2188 688.839 54.6875 688.453 55.0625C688.068 55.4375 687.542 55.625 686.875 55.625C686.198 55.625 685.667 55.4375 685.281 55.0625C684.906 54.6875 684.719 54.2188 684.719 53.6562ZM700.625 58.0938V60.8438H691.094V58.0938H700.625ZM693.844 53.9531H697.609V70.3281C697.609 70.849 697.682 71.25 697.828 71.5312C697.984 71.8021 698.198 71.9844 698.469 72.0781C698.74 72.1719 699.057 72.2188 699.422 72.2188C699.682 72.2188 699.932 72.2031 700.172 72.1719C700.411 72.1406 700.604 72.1094 700.75 72.0781L700.766 74.9531C700.453 75.0469 700.089 75.1302 699.672 75.2031C699.266 75.276 698.797 75.3125 698.266 75.3125C697.401 75.3125 696.635 75.1615 695.969 74.8594C695.302 74.5469 694.781 74.0417 694.406 73.3438C694.031 72.6458 693.844 71.7188 693.844 70.5625V53.9531ZM707.562 51V75H703.781V51H707.562ZM719.141 75.3125C717.891 75.3125 716.76 75.1094 715.75 74.7031C714.75 74.2865 713.896 73.7083 713.188 72.9688C712.49 72.2292 711.953 71.3594 711.578 70.3594C711.203 69.3594 711.016 68.2812 711.016 67.125V66.5C711.016 65.1771 711.208 63.9792 711.594 62.9062C711.979 61.8333 712.516 60.9167 713.203 60.1562C713.891 59.3854 714.703 58.7969 715.641 58.3906C716.578 57.9844 717.594 57.7812 718.688 57.7812C719.896 57.7812 720.953 57.9844 721.859 58.3906C722.766 58.7969 723.516 59.3698 724.109 60.1094C724.714 60.8385 725.161 61.7083 725.453 62.7188C725.755 63.7292 725.906 64.8438 725.906 66.0625V67.6719H712.844V64.9688H722.188V64.6719C722.167 63.9948 722.031 63.3594 721.781 62.7656C721.542 62.1719 721.172 61.6927 720.672 61.3281C720.172 60.9635 719.505 60.7812 718.672 60.7812C718.047 60.7812 717.49 60.9167 717 61.1875C716.521 61.4479 716.12 61.8281 715.797 62.3281C715.474 62.8281 715.224 63.4323 715.047 64.1406C714.88 64.8385 714.797 65.625 714.797 66.5V67.125C714.797 67.8646 714.896 68.5521 715.094 69.1875C715.302 69.8125 715.604 70.3594 716 70.8281C716.396 71.2969 716.875 71.6667 717.438 71.9375C718 72.1979 718.641 72.3281 719.359 72.3281C720.266 72.3281 721.073 72.1458 721.781 71.7812C722.49 71.4167 723.104 70.901 723.625 70.2344L725.609 72.1562C725.245 72.6875 724.771 73.1979 724.188 73.6875C723.604 74.1667 722.891 74.5573 722.047 74.8594C721.214 75.1615 720.245 75.3125 719.141 75.3125Z" fill="#E2E6FF"/>
<path d="M530.613 530.387H533.836C533.75 531.527 533.434 532.539 532.887 533.422C532.34 534.297 531.578 534.984 530.602 535.484C529.625 535.984 528.441 536.234 527.051 536.234C525.98 536.234 525.016 536.047 524.156 535.672C523.305 535.289 522.574 534.746 521.965 534.043C521.363 533.332 520.902 532.48 520.582 531.488C520.262 530.488 520.102 529.367 520.102 528.125V526.824C520.102 525.582 520.266 524.461 520.594 523.461C520.922 522.461 521.391 521.609 522 520.906C522.617 520.195 523.355 519.648 524.215 519.266C525.082 518.883 526.051 518.691 527.121 518.691C528.512 518.691 529.688 518.949 530.648 519.465C531.609 519.973 532.355 520.672 532.887 521.562C533.418 522.453 533.738 523.477 533.848 524.633H530.625C530.562 523.914 530.406 523.305 530.156 522.805C529.914 522.305 529.547 521.926 529.055 521.668C528.57 521.402 527.926 521.27 527.121 521.27C526.496 521.27 525.945 521.387 525.469 521.621C525 521.855 524.609 522.207 524.297 522.676C523.984 523.137 523.75 523.715 523.594 524.41C523.438 525.098 523.359 525.895 523.359 526.801V528.125C523.359 528.992 523.43 529.77 523.57 530.457C523.711 531.145 523.93 531.727 524.227 532.203C524.523 532.68 524.906 533.043 525.375 533.293C525.844 533.543 526.402 533.668 527.051 533.668C527.84 533.668 528.48 533.543 528.973 533.293C529.473 533.043 529.852 532.676 530.109 532.191C530.375 531.707 530.543 531.105 530.613 530.387ZM539.379 518V536H536.273V518H539.379ZM545.613 523.32V536H542.508V523.32H545.613ZM542.297 520.004C542.297 519.543 542.453 519.16 542.766 518.855C543.086 518.551 543.516 518.398 544.055 518.398C544.594 518.398 545.02 518.551 545.332 518.855C545.652 519.16 545.812 519.543 545.812 520.004C545.812 520.457 545.652 520.836 545.332 521.141C545.02 521.445 544.594 521.598 544.055 521.598C543.516 521.598 543.086 521.445 542.766 521.141C542.453 520.836 542.297 520.457 542.297 520.004ZM553.77 533.797C554.207 533.797 554.598 533.711 554.941 533.539C555.285 533.367 555.559 533.125 555.762 532.812C555.973 532.5 556.086 532.137 556.102 531.723H559.02C559.004 532.582 558.762 533.352 558.293 534.031C557.824 534.711 557.199 535.25 556.418 535.648C555.645 536.039 554.777 536.234 553.816 536.234C552.84 536.234 551.988 536.07 551.262 535.742C550.535 535.414 549.93 534.957 549.445 534.371C548.969 533.785 548.609 533.105 548.367 532.332C548.133 531.559 548.016 530.73 548.016 529.848V529.473C548.016 528.59 548.133 527.762 548.367 526.988C548.609 526.215 548.969 525.535 549.445 524.949C549.93 524.363 550.535 523.906 551.262 523.578C551.988 523.25 552.836 523.086 553.805 523.086C554.828 523.086 555.727 523.285 556.5 523.684C557.281 524.082 557.891 524.645 558.328 525.371C558.773 526.098 559.004 526.953 559.02 527.938H556.102C556.086 527.484 555.984 527.078 555.797 526.719C555.609 526.359 555.344 526.07 555 525.852C554.656 525.633 554.238 525.523 553.746 525.523C553.223 525.523 552.785 525.633 552.434 525.852C552.09 526.07 551.82 526.371 551.625 526.754C551.438 527.129 551.305 527.551 551.227 528.02C551.156 528.48 551.121 528.965 551.121 529.473V529.848C551.121 530.363 551.156 530.855 551.227 531.324C551.305 531.793 551.438 532.215 551.625 532.59C551.82 532.957 552.09 533.25 552.434 533.469C552.785 533.688 553.23 533.797 553.77 533.797ZM564.176 517.988V536H561.082V517.988H564.176ZM572.121 523.32L566.602 529.52L563.613 532.555L562.629 530.152L564.938 527.246L568.383 523.32H572.121ZM568.957 536L565.031 530.094L567.094 528.09L572.543 536H568.957ZM586.711 518.938V536H583.5V518.938H586.711ZM592.008 518.938V521.48H578.262V518.938H592.008ZM591.539 529.789V529.543C591.539 528.613 591.672 527.758 591.938 526.977C592.203 526.188 592.59 525.504 593.098 524.926C593.605 524.348 594.227 523.898 594.961 523.578C595.695 523.25 596.531 523.086 597.469 523.086C598.422 523.086 599.266 523.25 600 523.578C600.742 523.898 601.367 524.348 601.875 524.926C602.383 525.504 602.77 526.188 603.035 526.977C603.301 527.758 603.434 528.613 603.434 529.543V529.789C603.434 530.711 603.301 531.566 603.035 532.355C602.77 533.137 602.383 533.82 601.875 534.406C601.367 534.984 600.746 535.434 600.012 535.754C599.277 536.074 598.438 536.234 597.492 536.234C596.555 536.234 595.715 536.074 594.973 535.754C594.23 535.434 593.605 534.984 593.098 534.406C592.59 533.82 592.203 533.137 591.938 532.355C591.672 531.566 591.539 530.711 591.539 529.789ZM594.633 529.543V529.789C594.633 530.344 594.688 530.863 594.797 531.348C594.906 531.832 595.074 532.258 595.301 532.625C595.527 532.992 595.82 533.281 596.18 533.492C596.547 533.695 596.984 533.797 597.492 533.797C597.992 533.797 598.422 533.695 598.781 533.492C599.141 533.281 599.434 532.992 599.66 532.625C599.895 532.258 600.066 531.832 600.176 531.348C600.285 530.863 600.34 530.344 600.34 529.789V529.543C600.34 528.996 600.285 528.484 600.176 528.008C600.066 527.523 599.895 527.098 599.66 526.73C599.434 526.355 599.137 526.062 598.77 525.852C598.41 525.633 597.977 525.523 597.469 525.523C596.969 525.523 596.539 525.633 596.18 525.852C595.82 526.062 595.527 526.355 595.301 526.73C595.074 527.098 594.906 527.523 594.797 528.008C594.688 528.484 594.633 528.996 594.633 529.543ZM621.387 518.938H624.609V530.27C624.609 531.574 624.328 532.672 623.766 533.562C623.203 534.445 622.438 535.113 621.469 535.566C620.5 536.012 619.398 536.234 618.164 536.234C616.914 536.234 615.801 536.012 614.824 535.566C613.848 535.113 613.082 534.445 612.527 533.562C611.973 532.672 611.695 531.574 611.695 530.27V518.938H614.918V530.27C614.918 531.066 615.051 531.719 615.316 532.227C615.582 532.727 615.957 533.098 616.441 533.34C616.926 533.582 617.5 533.703 618.164 533.703C618.836 533.703 619.41 533.582 619.887 533.34C620.371 533.098 620.742 532.727 621 532.227C621.258 531.719 621.387 531.066 621.387 530.27V518.938ZM630.527 525.758V540.875H627.422V523.32H630.293L630.527 525.758ZM638.672 529.531V529.777C638.672 530.699 638.562 531.555 638.344 532.344C638.133 533.125 637.82 533.809 637.406 534.395C636.992 534.973 636.477 535.426 635.859 535.754C635.25 536.074 634.547 536.234 633.75 536.234C632.969 536.234 632.289 536.086 631.711 535.789C631.133 535.484 630.645 535.055 630.246 534.5C629.848 533.945 629.527 533.301 629.285 532.566C629.051 531.824 628.875 531.016 628.758 530.141V529.355C628.875 528.426 629.051 527.582 629.285 526.824C629.527 526.059 629.848 525.398 630.246 524.844C630.645 524.281 631.129 523.848 631.699 523.543C632.277 523.238 632.953 523.086 633.727 523.086C634.531 523.086 635.238 523.238 635.848 523.543C636.465 523.848 636.984 524.285 637.406 524.855C637.828 525.426 638.145 526.105 638.355 526.895C638.566 527.684 638.672 528.562 638.672 529.531ZM635.566 529.777V529.531C635.566 528.969 635.516 528.449 635.414 527.973C635.312 527.488 635.156 527.066 634.945 526.707C634.734 526.34 634.461 526.055 634.125 525.852C633.789 525.648 633.383 525.547 632.906 525.547C632.43 525.547 632.02 525.625 631.676 525.781C631.332 525.938 631.051 526.16 630.832 526.449C630.613 526.738 630.441 527.082 630.316 527.48C630.199 527.871 630.121 528.305 630.082 528.781V530.727C630.152 531.305 630.289 531.824 630.492 532.285C630.695 532.746 630.992 533.113 631.383 533.387C631.781 533.66 632.297 533.797 632.93 533.797C633.406 533.797 633.812 533.691 634.148 533.48C634.484 533.27 634.758 532.98 634.969 532.613C635.18 532.238 635.332 531.809 635.426 531.324C635.52 530.84 635.566 530.324 635.566 529.777ZM644.215 518V536H641.109V518H644.215ZM646.617 529.789V529.543C646.617 528.613 646.75 527.758 647.016 526.977C647.281 526.188 647.668 525.504 648.176 524.926C648.684 524.348 649.305 523.898 650.039 523.578C650.773 523.25 651.609 523.086 652.547 523.086C653.5 523.086 654.344 523.25 655.078 523.578C655.82 523.898 656.445 524.348 656.953 524.926C657.461 525.504 657.848 526.188 658.113 526.977C658.379 527.758 658.512 528.613 658.512 529.543V529.789C658.512 530.711 658.379 531.566 658.113 532.355C657.848 533.137 657.461 533.82 656.953 534.406C656.445 534.984 655.824 535.434 655.09 535.754C654.355 536.074 653.516 536.234 652.57 536.234C651.633 536.234 650.793 536.074 650.051 535.754C649.309 535.434 648.684 534.984 648.176 534.406C647.668 533.82 647.281 533.137 647.016 532.355C646.75 531.566 646.617 530.711 646.617 529.789ZM649.711 529.543V529.789C649.711 530.344 649.766 530.863 649.875 531.348C649.984 531.832 650.152 532.258 650.379 532.625C650.605 532.992 650.898 533.281 651.258 533.492C651.625 533.695 652.062 533.797 652.57 533.797C653.07 533.797 653.5 533.695 653.859 533.492C654.219 533.281 654.512 532.992 654.738 532.625C654.973 532.258 655.145 531.832 655.254 531.348C655.363 530.863 655.418 530.344 655.418 529.789V529.543C655.418 528.996 655.363 528.484 655.254 528.008C655.145 527.523 654.973 527.098 654.738 526.73C654.512 526.355 654.215 526.062 653.848 525.852C653.488 525.633 653.055 525.523 652.547 525.523C652.047 525.523 651.617 525.633 651.258 525.852C650.898 526.062 650.605 526.355 650.379 526.73C650.152 527.098 649.984 527.523 649.875 528.008C649.766 528.484 649.711 528.996 649.711 529.543ZM667.746 533.305V527.457C667.746 527.027 667.672 526.656 667.523 526.344C667.375 526.031 667.148 525.789 666.844 525.617C666.539 525.445 666.152 525.359 665.684 525.359C665.27 525.359 664.906 525.43 664.594 525.57C664.289 525.711 664.055 525.91 663.891 526.168C663.727 526.418 663.645 526.707 663.645 527.035H660.539C660.539 526.512 660.664 526.016 660.914 525.547C661.164 525.07 661.52 524.648 661.98 524.281C662.449 523.906 663.008 523.613 663.656 523.402C664.312 523.191 665.047 523.086 665.859 523.086C666.82 523.086 667.676 523.25 668.426 523.578C669.184 523.898 669.777 524.383 670.207 525.031C670.645 525.68 670.863 526.496 670.863 527.48V533.012C670.863 533.645 670.902 534.188 670.98 534.641C671.066 535.086 671.191 535.473 671.355 535.801V536H668.203C668.055 535.68 667.941 535.273 667.863 534.781C667.785 534.281 667.746 533.789 667.746 533.305ZM668.18 528.277L668.203 530.117H666.246C665.762 530.117 665.336 530.168 664.969 530.27C664.602 530.363 664.301 530.504 664.066 530.691C663.832 530.871 663.656 531.09 663.539 531.348C663.422 531.598 663.363 531.883 663.363 532.203C663.363 532.516 663.434 532.797 663.574 533.047C663.723 533.297 663.934 533.496 664.207 533.645C664.488 533.785 664.816 533.855 665.191 533.855C665.738 533.855 666.215 533.746 666.621 533.527C667.027 533.301 667.344 533.027 667.57 532.707C667.797 532.387 667.918 532.082 667.934 531.793L668.824 533.129C668.715 533.449 668.551 533.789 668.332 534.148C668.113 534.508 667.832 534.844 667.488 535.156C667.145 535.469 666.73 535.727 666.246 535.93C665.762 536.133 665.199 536.234 664.559 536.234C663.738 536.234 663.004 536.07 662.355 535.742C661.707 535.414 661.195 534.965 660.82 534.395C660.445 533.824 660.258 533.176 660.258 532.449C660.258 531.777 660.383 531.184 660.633 530.668C660.883 530.152 661.254 529.719 661.746 529.367C662.238 529.008 662.848 528.738 663.574 528.559C664.309 528.371 665.148 528.277 666.094 528.277H668.18ZM681.258 533.305V518H684.375V536H681.562L681.258 533.305ZM673.113 529.812V529.566C673.113 528.598 673.223 527.719 673.441 526.93C673.668 526.133 673.996 525.449 674.426 524.879C674.855 524.309 675.375 523.867 675.984 523.555C676.602 523.242 677.301 523.086 678.082 523.086C678.84 523.086 679.5 523.238 680.062 523.543C680.633 523.848 681.117 524.281 681.516 524.844C681.922 525.406 682.246 526.074 682.488 526.848C682.73 527.613 682.906 528.457 683.016 529.379V530.047C682.906 530.945 682.73 531.77 682.488 532.52C682.246 533.27 681.922 533.926 681.516 534.488C681.117 535.043 680.633 535.473 680.062 535.777C679.492 536.082 678.824 536.234 678.059 536.234C677.285 536.234 676.59 536.074 675.973 535.754C675.363 535.434 674.844 534.984 674.414 534.406C673.992 533.828 673.668 533.148 673.441 532.367C673.223 531.586 673.113 530.734 673.113 529.812ZM676.219 529.566V529.812C676.219 530.359 676.266 530.871 676.359 531.348C676.453 531.824 676.605 532.246 676.816 532.613C677.027 532.973 677.297 533.254 677.625 533.457C677.961 533.66 678.367 533.762 678.844 533.762C679.453 533.762 679.953 533.629 680.344 533.363C680.742 533.09 681.051 532.719 681.27 532.25C681.488 531.773 681.629 531.238 681.691 530.645V528.805C681.66 528.336 681.578 527.902 681.445 527.504C681.32 527.105 681.141 526.762 680.906 526.473C680.68 526.184 680.398 525.957 680.062 525.793C679.727 525.629 679.328 525.547 678.867 525.547C678.391 525.547 677.984 525.652 677.648 525.863C677.312 526.066 677.039 526.352 676.828 526.719C676.617 527.086 676.461 527.512 676.359 527.996C676.266 528.48 676.219 529.004 676.219 529.566ZM696.82 518.938V536H693.598V518.938H696.82ZM703.148 525.922V536H700.055V523.32H702.973L703.148 525.922ZM702.691 529.203H701.742C701.742 528.32 701.848 527.508 702.059 526.766C702.277 526.023 702.598 525.379 703.02 524.832C703.441 524.277 703.961 523.848 704.578 523.543C705.203 523.238 705.926 523.086 706.746 523.086C707.316 523.086 707.84 523.172 708.316 523.344C708.793 523.508 709.203 523.77 709.547 524.129C709.898 524.48 710.168 524.941 710.355 525.512C710.543 526.074 710.637 526.75 710.637 527.539V536H707.543V527.855C707.543 527.262 707.457 526.797 707.285 526.461C707.121 526.125 706.883 525.891 706.57 525.758C706.258 525.617 705.883 525.547 705.445 525.547C704.961 525.547 704.543 525.645 704.191 525.84C703.848 526.027 703.562 526.289 703.336 526.625C703.117 526.961 702.953 527.348 702.844 527.785C702.742 528.223 702.691 528.695 702.691 529.203ZM710.402 528.629L709.125 528.863C709.133 528.066 709.242 527.32 709.453 526.625C709.664 525.922 709.973 525.309 710.379 524.785C710.793 524.254 711.305 523.84 711.914 523.543C712.531 523.238 713.242 523.086 714.047 523.086C714.672 523.086 715.234 523.176 715.734 523.355C716.242 523.527 716.676 523.805 717.035 524.188C717.395 524.562 717.668 525.051 717.855 525.652C718.051 526.254 718.148 526.988 718.148 527.855V536H715.031V527.844C715.031 527.227 714.945 526.754 714.773 526.426C714.609 526.098 714.371 525.871 714.059 525.746C713.746 525.613 713.379 525.547 712.957 525.547C712.527 525.547 712.152 525.629 711.832 525.793C711.52 525.949 711.254 526.168 711.035 526.449C710.824 526.73 710.664 527.059 710.555 527.434C710.453 527.801 710.402 528.199 710.402 528.629ZM727.91 533.305V527.457C727.91 527.027 727.836 526.656 727.688 526.344C727.539 526.031 727.312 525.789 727.008 525.617C726.703 525.445 726.316 525.359 725.848 525.359C725.434 525.359 725.07 525.43 724.758 525.57C724.453 525.711 724.219 525.91 724.055 526.168C723.891 526.418 723.809 526.707 723.809 527.035H720.703C720.703 526.512 720.828 526.016 721.078 525.547C721.328 525.07 721.684 524.648 722.145 524.281C722.613 523.906 723.172 523.613 723.82 523.402C724.477 523.191 725.211 523.086 726.023 523.086C726.984 523.086 727.84 523.25 728.59 523.578C729.348 523.898 729.941 524.383 730.371 525.031C730.809 525.68 731.027 526.496 731.027 527.48V533.012C731.027 533.645 731.066 534.188 731.145 534.641C731.23 535.086 731.355 535.473 731.52 535.801V536H728.367C728.219 535.68 728.105 535.273 728.027 534.781C727.949 534.281 727.91 533.789 727.91 533.305ZM728.344 528.277L728.367 530.117H726.41C725.926 530.117 725.5 530.168 725.133 530.27C724.766 530.363 724.465 530.504 724.23 530.691C723.996 530.871 723.82 531.09 723.703 531.348C723.586 531.598 723.527 531.883 723.527 532.203C723.527 532.516 723.598 532.797 723.738 533.047C723.887 533.297 724.098 533.496 724.371 533.645C724.652 533.785 724.98 533.855 725.355 533.855C725.902 533.855 726.379 533.746 726.785 533.527C727.191 533.301 727.508 533.027 727.734 532.707C727.961 532.387 728.082 532.082 728.098 531.793L728.988 533.129C728.879 533.449 728.715 533.789 728.496 534.148C728.277 534.508 727.996 534.844 727.652 535.156C727.309 535.469 726.895 535.727 726.41 535.93C725.926 536.133 725.363 536.234 724.723 536.234C723.902 536.234 723.168 536.07 722.52 535.742C721.871 535.414 721.359 534.965 720.984 534.395C720.609 533.824 720.422 533.176 720.422 532.449C720.422 531.777 720.547 531.184 720.797 530.668C721.047 530.152 721.418 529.719 721.91 529.367C722.402 529.008 723.012 528.738 723.738 528.559C724.473 528.371 725.312 528.277 726.258 528.277H728.344ZM741.879 523.32H744.691V535.613C744.691 536.762 744.441 537.734 743.941 538.531C743.449 539.336 742.758 539.945 741.867 540.359C740.977 540.781 739.941 540.992 738.762 540.992C738.254 540.992 737.703 540.922 737.109 540.781C736.523 540.641 735.957 540.418 735.41 540.113C734.871 539.816 734.422 539.43 734.062 538.953L735.457 537.125C735.879 537.617 736.355 537.988 736.887 538.238C737.418 538.496 737.992 538.625 738.609 538.625C739.234 538.625 739.766 538.508 740.203 538.273C740.648 538.047 740.988 537.711 741.223 537.266C741.465 536.828 741.586 536.289 741.586 535.648V526.215L741.879 523.32ZM733.312 529.812V529.566C733.312 528.598 733.43 527.719 733.664 526.93C733.898 526.133 734.234 525.449 734.672 524.879C735.117 524.309 735.652 523.867 736.277 523.555C736.91 523.242 737.621 523.086 738.41 523.086C739.246 523.086 739.949 523.238 740.52 523.543C741.098 523.848 741.574 524.281 741.949 524.844C742.332 525.406 742.629 526.074 742.84 526.848C743.059 527.613 743.227 528.457 743.344 529.379V530.047C743.234 530.945 743.059 531.77 742.816 532.52C742.582 533.27 742.27 533.926 741.879 534.488C741.488 535.043 741.004 535.473 740.426 535.777C739.848 536.082 739.168 536.234 738.387 536.234C737.605 536.234 736.902 536.074 736.277 535.754C735.652 535.434 735.117 534.984 734.672 534.406C734.234 533.828 733.898 533.148 733.664 532.367C733.43 531.586 733.312 530.734 733.312 529.812ZM736.406 529.566V529.812C736.406 530.359 736.461 530.871 736.57 531.348C736.68 531.824 736.848 532.246 737.074 532.613C737.301 532.973 737.586 533.254 737.93 533.457C738.273 533.66 738.684 533.762 739.16 533.762C739.801 533.762 740.324 533.629 740.73 533.363C741.145 533.09 741.457 532.719 741.668 532.25C741.887 531.773 742.027 531.238 742.09 530.645V528.805C742.051 528.336 741.965 527.902 741.832 527.504C741.707 527.105 741.531 526.762 741.305 526.473C741.078 526.184 740.789 525.957 740.438 525.793C740.086 525.629 739.668 525.547 739.184 525.547C738.715 525.547 738.305 525.652 737.953 525.863C737.602 526.066 737.312 526.352 737.086 526.719C736.859 527.086 736.688 527.512 736.57 527.996C736.461 528.48 736.406 529.004 736.406 529.566ZM753.176 536.234C752.215 536.234 751.352 536.078 750.586 535.766C749.82 535.453 749.168 535.02 748.629 534.465C748.098 533.902 747.688 533.25 747.398 532.508C747.117 531.758 746.977 530.953 746.977 530.094V529.625C746.977 528.648 747.117 527.762 747.398 526.965C747.68 526.16 748.078 525.469 748.594 524.891C749.109 524.312 749.727 523.867 750.445 523.555C751.164 523.242 751.957 523.086 752.824 523.086C753.723 523.086 754.516 523.238 755.203 523.543C755.891 523.84 756.465 524.262 756.926 524.809C757.387 525.355 757.734 526.012 757.969 526.777C758.203 527.535 758.32 528.375 758.32 529.297V530.598H748.383V528.465H755.273V528.23C755.258 527.738 755.164 527.289 754.992 526.883C754.82 526.469 754.555 526.141 754.195 525.898C753.836 525.648 753.371 525.523 752.801 525.523C752.34 525.523 751.938 525.625 751.594 525.828C751.258 526.023 750.977 526.305 750.75 526.672C750.531 527.031 750.367 527.461 750.258 527.961C750.148 528.461 750.094 529.016 750.094 529.625V530.094C750.094 530.625 750.164 531.117 750.305 531.57C750.453 532.023 750.668 532.418 750.949 532.754C751.238 533.082 751.582 533.34 751.98 533.527C752.387 533.707 752.848 533.797 753.363 533.797C754.012 533.797 754.598 533.672 755.121 533.422C755.652 533.164 756.113 532.785 756.504 532.285L758.062 533.902C757.797 534.293 757.438 534.668 756.984 535.027C756.539 535.387 756 535.68 755.367 535.906C754.734 536.125 754.004 536.234 753.176 536.234ZM767.367 532.531C767.367 532.266 767.297 532.027 767.156 531.816C767.016 531.605 766.75 531.414 766.359 531.242C765.977 531.062 765.414 530.895 764.672 530.738C764.016 530.598 763.41 530.422 762.855 530.211C762.301 530 761.824 529.746 761.426 529.449C761.027 529.145 760.715 528.789 760.488 528.383C760.27 527.969 760.16 527.492 760.16 526.953C760.16 526.43 760.273 525.938 760.5 525.477C760.727 525.008 761.055 524.598 761.484 524.246C761.914 523.887 762.438 523.605 763.055 523.402C763.672 523.191 764.367 523.086 765.141 523.086C766.219 523.086 767.145 523.262 767.918 523.613C768.699 523.965 769.297 524.449 769.711 525.066C770.125 525.676 770.332 526.363 770.332 527.129H767.238C767.238 526.793 767.16 526.488 767.004 526.215C766.855 525.941 766.625 525.723 766.312 525.559C766 525.387 765.605 525.301 765.129 525.301C764.699 525.301 764.336 525.371 764.039 525.512C763.75 525.652 763.531 525.836 763.383 526.062C763.234 526.289 763.16 526.539 763.16 526.812C763.16 527.016 763.199 527.199 763.277 527.363C763.363 527.52 763.5 527.664 763.688 527.797C763.875 527.93 764.129 528.051 764.449 528.16C764.777 528.27 765.18 528.375 765.656 528.477C766.602 528.664 767.426 528.914 768.129 529.227C768.84 529.531 769.395 529.938 769.793 530.445C770.191 530.953 770.391 531.602 770.391 532.391C770.391 532.953 770.27 533.469 770.027 533.938C769.785 534.398 769.434 534.801 768.973 535.145C768.512 535.488 767.961 535.758 767.32 535.953C766.68 536.141 765.957 536.234 765.152 536.234C763.988 536.234 763.004 536.027 762.199 535.613C761.395 535.191 760.785 534.66 760.371 534.02C759.957 533.371 759.75 532.699 759.75 532.004H762.715C762.738 532.496 762.871 532.891 763.113 533.188C763.355 533.484 763.66 533.699 764.027 533.832C764.402 533.957 764.797 534.02 765.211 534.02C765.68 534.02 766.074 533.957 766.395 533.832C766.715 533.699 766.957 533.523 767.121 533.305C767.285 533.078 767.367 532.82 767.367 532.531Z" fill="#E2E6FF" fill-opacity="0.5"/>
<defs>
<filter id="filter0_d_298_1948" x="396.187" y="1028.8" width="498.816" height="51.0512" filterUnits="userSpaceOnUse" color-interpolation-filters="sRGB">
<feFlood flood-opacity="0" result="BackgroundImageFix"/>
<feColorMatrix in="SourceAlpha" type="matrix" values="0 0 0 0 0 0 0 0 0 0 0 0 0 0 0 0 0 0 127 0" result="hardAlpha"/>
<feOffset dy="8.50859"/>
<feGaussianBlur stdDeviation="11.6993"/>
<feComposite in2="hardAlpha" operator="out"/>
<feColorMatrix type="matrix" values="0 0 0 0 0.443033 0 0 0 0 0.101667 0 0 0 0 1 0 0 0 0.25 0"/>
<feBlend mode="normal" in2="BackgroundImageFix" result="effect1_dropShadow_298_1948"/>
<feBlend mode="normal" in="SourceGraphic" in2="effect1_dropShadow_298_1948" result="shape"/>
</filter>
<filter id="filter1_d_298_1948" x="443.296" y="976.68" width="401.408" height="100.728" filterUnits="userSpaceOnUse" color-interpolation-filters="sRGB">
<feFlood flood-opacity="0" result="BackgroundImageFix"/>
<feColorMatrix in="SourceAlpha" type="matrix" values="0 0 0 0 0 0 0 0 0 0 0 0 0 0 0 0 0 0 127 0" result="hardAlpha"/>
<feOffset dy="8.50859"/>
<feGaussianBlur stdDeviation="11.6993"/>
<feComposite in2="hardAlpha" operator="out"/>
<feColorMatrix type="matrix" values="0 0 0 0 0.443033 0 0 0 0 0.101667 0 0 0 0 1 0 0 0 0.25 0"/>
<feBlend mode="normal" in2="BackgroundImageFix" result="effect1_dropShadow_298_1948"/>
<feBlend mode="normal" in="SourceGraphic" in2="effect1_dropShadow_298_1948" result="shape"/>
</filter>
<filter id="filter2_d_298_1948" x="443.296" y="976.68" width="401.408" height="100.728" filterUnits="userSpaceOnUse" color-interpolation-filters="sRGB">
<feFlood flood-opacity="0" result="BackgroundImageFix"/>
<feColorMatrix in="SourceAlpha" type="matrix" values="0 0 0 0 0 0 0 0 0 0 0 0 0 0 0 0 0 0 127 0" result="hardAlpha"/>
<feOffset dy="8.50859"/>
<feGaussianBlur stdDeviation="11.6993"/>
<feComposite in2="hardAlpha" operator="out"/>
<feColorMatrix type="matrix" values="0 0 0 0 0.443033 0 0 0 0 0.101667 0 0 0 0 1 0 0 0 0.25 0"/>
<feBlend mode="normal" in2="BackgroundImageFix" result="effect1_dropShadow_298_1948"/>
<feBlend mode="normal" in="SourceGraphic" in2="effect1_dropShadow_298_1948" result="shape"/>
</filter>
<filter id="filter3_d_298_1948" x="9.04644" y="999.015" width="140.392" height="80.8314" filterUnits="userSpaceOnUse" color-interpolation-filters="sRGB">
<feFlood flood-opacity="0" result="BackgroundImageFix"/>
<feColorMatrix in="SourceAlpha" type="matrix" values="0 0 0 0 0 0 0 0 0 0 0 0 0 0 0 0 0 0 127 0" result="hardAlpha"/>
<feOffset dy="8.50859"/>
<feGaussianBlur stdDeviation="11.6993"/>
<feComposite in2="hardAlpha" operator="out"/>
<feColorMatrix type="matrix" values="0 0 0 0 0.443033 0 0 0 0 0.101667 0 0 0 0 1 0 0 0 0.25 0"/>
<feBlend mode="normal" in2="BackgroundImageFix" result="effect1_dropShadow_298_1948"/>
<feBlend mode="normal" in="SourceGraphic" in2="effect1_dropShadow_298_1948" result="shape"/>
</filter>
<filter id="filter4_d_298_1948" x="286.639" y="960.726" width="229.732" height="71.2597" filterUnits="userSpaceOnUse" color-interpolation-filters="sRGB">
<feFlood flood-opacity="0" result="BackgroundImageFix"/>
<feColorMatrix in="SourceAlpha" type="matrix" values="0 0 0 0 0 0 0 0 0 0 0 0 0 0 0 0 0 0 127 0" result="hardAlpha"/>
<feOffset dy="8.50859"/>
<feGaussianBlur stdDeviation="11.6993"/>
<feComposite in2="hardAlpha" operator="out"/>
<feColorMatrix type="matrix" values="0 0 0 0 0.443033 0 0 0 0 0.101667 0 0 0 0 1 0 0 0 0.25 0"/>
<feBlend mode="normal" in2="BackgroundImageFix" result="effect1_dropShadow_298_1948"/>
<feBlend mode="normal" in="SourceGraphic" in2="effect1_dropShadow_298_1948" result="shape"/>
</filter>
<filter id="filter5_d_298_1948" x="1.60138" y="85.5773" width="83.8165" height="286.959" filterUnits="userSpaceOnUse" color-interpolation-filters="sRGB">
<feFlood flood-opacity="0" result="BackgroundImageFix"/>
<feColorMatrix in="SourceAlpha" type="matrix" values="0 0 0 0 0 0 0 0 0 0 0 0 0 0 0 0 0 0 127 0" result="hardAlpha"/>
<feOffset dy="8.50859"/>
<feGaussianBlur stdDeviation="11.6993"/>
<feComposite in2="hardAlpha" operator="out"/>
<feColorMatrix type="matrix" values="0 0 0 0 0.101667 0 0 0 0 0.6766 0 0 0 0 1 0 0 0 0.25 0"/>
<feBlend mode="normal" in2="BackgroundImageFix" result="effect1_dropShadow_298_1948"/>
<feBlend mode="normal" in="SourceGraphic" in2="effect1_dropShadow_298_1948" result="shape"/>
</filter>
<filter id="filter6_d_298_1948" x="111.149" y="1000.08" width="349.916" height="97.849" filterUnits="userSpaceOnUse" color-interpolation-filters="sRGB">
<feFlood flood-opacity="0" result="BackgroundImageFix"/>
<feColorMatrix in="SourceAlpha" type="matrix" values="0 0 0 0 0 0 0 0 0 0 0 0 0 0 0 0 0 0 127 0" result="hardAlpha"/>
<feOffset dy="8.50859"/>
<feGaussianBlur stdDeviation="11.6993"/>
<feComposite in2="hardAlpha" operator="out"/>
<feColorMatrix type="matrix" values="0 0 0 0 0.443033 0 0 0 0 0.101667 0 0 0 0 1 0 0 0 0.25 0"/>
<feBlend mode="normal" in2="BackgroundImageFix" result="effect1_dropShadow_298_1948"/>
<feBlend mode="normal" in="SourceGraphic" in2="effect1_dropShadow_298_1948" result="shape"/>
</filter>
<filter id="filter7_d_298_1948" x="22.8727" y="783.11" width="517.96" height="264.83" filterUnits="userSpaceOnUse" color-interpolation-filters="sRGB">
<feFlood flood-opacity="0" result="BackgroundImageFix"/>
<feColorMatrix in="SourceAlpha" type="matrix" values="0 0 0 0 0 0 0 0 0 0 0 0 0 0 0 0 0 0 127 0" result="hardAlpha"/>
<feOffset dy="8.50859"/>
<feGaussianBlur stdDeviation="11.6993"/>
<feComposite in2="hardAlpha" operator="out"/>
<feColorMatrix type="matrix" values="0 0 0 0 0.443033 0 0 0 0 0.101667 0 0 0 0 1 0 0 0 0.25 0"/>
<feBlend mode="normal" in2="BackgroundImageFix" result="effect1_dropShadow_298_1948"/>
<feBlend mode="normal" in="SourceGraphic" in2="effect1_dropShadow_298_1948" result="shape"/>
</filter>
<filter id="filter8_d_298_1948" x="105.229" y="32.3981" width="76.1159" height="90.6632" filterUnits="userSpaceOnUse" color-interpolation-filters="sRGB">
<feFlood flood-opacity="0" result="BackgroundImageFix"/>
<feColorMatrix in="SourceAlpha" type="matrix" values="0 0 0 0 0 0 0 0 0 0 0 0 0 0 0 0 0 0 127 0" result="hardAlpha"/>
<feOffset/>
<feGaussianBlur stdDeviation="4.2543"/>
<feComposite in2="hardAlpha" operator="out"/>
<feColorMatrix type="matrix" values="0 0 0 0 0.524655 0 0 0 0 0.0784758 0 0 0 0 0.970833 0 0 0 0.25 0"/>
<feBlend mode="normal" in2="BackgroundImageFix" result="effect1_dropShadow_298_1948"/>
<feBlend mode="normal" in="SourceGraphic" in2="effect1_dropShadow_298_1948" result="shape"/>
</filter>
<filter id="filter9_d_298_1948" x="0.537777" y="27.4361" width="171.12" height="1052.84" filterUnits="userSpaceOnUse" color-interpolation-filters="sRGB">
<feFlood flood-opacity="0" result="BackgroundImageFix"/>
<feColorMatrix in="SourceAlpha" type="matrix" values="0 0 0 0 0 0 0 0 0 0 0 0 0 0 0 0 0 0 127 0" result="hardAlpha"/>
<feOffset dy="8.50859"/>
<feGaussianBlur stdDeviation="11.6993"/>
<feComposite in2="hardAlpha" operator="out"/>
<feColorMatrix type="matrix" values="0 0 0 0 0.443033 0 0 0 0 0.101667 0 0 0 0 1 0 0 0 0.25 0"/>
<feBlend mode="normal" in2="BackgroundImageFix" result="effect1_dropShadow_298_1948"/>
<feBlend mode="normal" in="SourceGraphic" in2="effect1_dropShadow_298_1948" result="shape"/>
</filter>
<filter id="filter10_d_298_1948" x="1138.56" y="999.015" width="140.392" height="80.8314" filterUnits="userSpaceOnUse" color-interpolation-filters="sRGB">
<feFlood flood-opacity="0" result="BackgroundImageFix"/>
<feColorMatrix in="SourceAlpha" type="matrix" values="0 0 0 0 0 0 0 0 0 0 0 0 0 0 0 0 0 0 127 0" result="hardAlpha"/>
<feOffset dy="8.50859"/>
<feGaussianBlur stdDeviation="11.6993"/>
<feComposite in2="hardAlpha" operator="out"/>
<feColorMatrix type="matrix" values="0 0 0 0 0.443033 0 0 0 0 0.101667 0 0 0 0 1 0 0 0 0.25 0"/>
<feBlend mode="normal" in2="BackgroundImageFix" result="effect1_dropShadow_298_1948"/>
<feBlend mode="normal" in="SourceGraphic" in2="effect1_dropShadow_298_1948" result="shape"/>
</filter>
<filter id="filter11_d_298_1948" x="771.629" y="960.726" width="229.732" height="71.2597" filterUnits="userSpaceOnUse" color-interpolation-filters="sRGB">
<feFlood flood-opacity="0" result="BackgroundImageFix"/>
<feColorMatrix in="SourceAlpha" type="matrix" values="0 0 0 0 0 0 0 0 0 0 0 0 0 0 0 0 0 0 127 0" result="hardAlpha"/>
<feOffset dy="8.50859"/>
<feGaussianBlur stdDeviation="11.6993"/>
<feComposite in2="hardAlpha" operator="out"/>
<feColorMatrix type="matrix" values="0 0 0 0 0.443033 0 0 0 0 0.101667 0 0 0 0 1 0 0 0 0.25 0"/>
<feBlend mode="normal" in2="BackgroundImageFix" result="effect1_dropShadow_298_1948"/>
<feBlend mode="normal" in="SourceGraphic" in2="effect1_dropShadow_298_1948" result="shape"/>
</filter>
<filter id="filter12_d_298_1948" x="1202.58" y="85.5773" width="83.8165" height="286.959" filterUnits="userSpaceOnUse" color-interpolation-filters="sRGB">
<feFlood flood-opacity="0" result="BackgroundImageFix"/>
<feColorMatrix in="SourceAlpha" type="matrix" values="0 0 0 0 0 0 0 0 0 0 0 0 0 0 0 0 0 0 127 0" result="hardAlpha"/>
<feOffset dy="8.50859"/>
<feGaussianBlur stdDeviation="11.6993"/>
<feComposite in2="hardAlpha" operator="out"/>
<feColorMatrix type="matrix" values="0 0 0 0 0.101667 0 0 0 0 0.6766 0 0 0 0 1 0 0 0 0.25 0"/>
<feBlend mode="normal" in2="BackgroundImageFix" result="effect1_dropShadow_298_1948"/>
<feBlend mode="normal" in="SourceGraphic" in2="effect1_dropShadow_298_1948" result="shape"/>
</filter>
<filter id="filter13_d_298_1948" x="1117.29" y="27.4361" width="170.172" height="1052.49" filterUnits="userSpaceOnUse" color-interpolation-filters="sRGB">
<feFlood flood-opacity="0" result="BackgroundImageFix"/>
<feColorMatrix in="SourceAlpha" type="matrix" values="0 0 0 0 0 0 0 0 0 0 0 0 0 0 0 0 0 0 127 0" result="hardAlpha"/>
<feOffset dy="8.50859"/>
<feGaussianBlur stdDeviation="11.6993"/>
<feComposite in2="hardAlpha" operator="out"/>
<feColorMatrix type="matrix" values="0 0 0 0 0.443033 0 0 0 0 0.101667 0 0 0 0 1 0 0 0 0.25 0"/>
<feBlend mode="normal" in2="BackgroundImageFix" result="effect1_dropShadow_298_1948"/>
<feBlend mode="normal" in="SourceGraphic" in2="effect1_dropShadow_298_1948" result="shape"/>
</filter>
<filter id="filter14_d_298_1948" x="830.126" y="1000.08" width="349.916" height="97.849" filterUnits="userSpaceOnUse" color-interpolation-filters="sRGB">
<feFlood flood-opacity="0" result="BackgroundImageFix"/>
<feColorMatrix in="SourceAlpha" type="matrix" values="0 0 0 0 0 0 0 0 0 0 0 0 0 0 0 0 0 0 127 0" result="hardAlpha"/>
<feOffset dy="8.50859"/>
<feGaussianBlur stdDeviation="11.6993"/>
<feComposite in2="hardAlpha" operator="out"/>
<feColorMatrix type="matrix" values="0 0 0 0 0.443033 0 0 0 0 0.101667 0 0 0 0 1 0 0 0 0.25 0"/>
<feBlend mode="normal" in2="BackgroundImageFix" result="effect1_dropShadow_298_1948"/>
<feBlend mode="normal" in="SourceGraphic" in2="effect1_dropShadow_298_1948" result="shape"/>
</filter>
<filter id="filter15_d_298_1948" x="747.166" y="783.11" width="517.96" height="264.83" filterUnits="userSpaceOnUse" color-interpolation-filters="sRGB">
<feFlood flood-opacity="0" result="BackgroundImageFix"/>
<feColorMatrix in="SourceAlpha" type="matrix" values="0 0 0 0 0 0 0 0 0 0 0 0 0 0 0 0 0 0 127 0" result="hardAlpha"/>
<feOffset dy="8.50859"/>
<feGaussianBlur stdDeviation="11.6993"/>
<feComposite in2="hardAlpha" operator="out"/>
<feColorMatrix type="matrix" values="0 0 0 0 0.443033 0 0 0 0 0.101667 0 0 0 0 1 0 0 0 0.25 0"/>
<feBlend mode="normal" in2="BackgroundImageFix" result="effect1_dropShadow_298_1948"/>
<feBlend mode="normal" in="SourceGraphic" in2="effect1_dropShadow_298_1948" result="shape"/>
</filter>
<filter id="filter16_d_298_1948" x="104.768" y="32.3986" width="1078.46" height="21.2716" filterUnits="userSpaceOnUse" color-interpolation-filters="sRGB">
<feFlood flood-opacity="0" result="BackgroundImageFix"/>
<feColorMatrix in="SourceAlpha" type="matrix" values="0 0 0 0 0 0 0 0 0 0 0 0 0 0 0 0 0 0 127 0" result="hardAlpha"/>
<feOffset/>
<feGaussianBlur stdDeviation="4.2543"/>
<feComposite in2="hardAlpha" operator="out"/>
<feColorMatrix type="matrix" values="0 0 0 0 0.524655 0 0 0 0 0.0784758 0 0 0 0 0.970833 0 0 0 0.25 0"/>
<feBlend mode="normal" in2="BackgroundImageFix" result="effect1_dropShadow_298_1948"/>
<feBlend mode="normal" in="SourceGraphic" in2="effect1_dropShadow_298_1948" result="shape"/>
</filter>
<filter id="filter17_d_298_1948" x="127.103" y="36.6529" width="253.131" height="73.3866" filterUnits="userSpaceOnUse" color-interpolation-filters="sRGB">
<feFlood flood-opacity="0" result="BackgroundImageFix"/>
<feColorMatrix in="SourceAlpha" type="matrix" values="0 0 0 0 0 0 0 0 0 0 0 0 0 0 0 0 0 0 127 0" result="hardAlpha"/>
<feOffset dy="8.50859"/>
<feGaussianBlur stdDeviation="11.6993"/>
<feComposite in2="hardAlpha" operator="out"/>
<feColorMatrix type="matrix" values="0 0 0 0 0.101667 0 0 0 0 0.6766 0 0 0 0 1 0 0 0 0.25 0"/>
<feBlend mode="normal" in2="BackgroundImageFix" result="effect1_dropShadow_298_1948"/>
<feBlend mode="normal" in="SourceGraphic" in2="effect1_dropShadow_298_1948" result="shape"/>
</filter>
<filter id="filter18_d_298_1948" x="909.893" y="36.6529" width="253.131" height="73.3866" filterUnits="userSpaceOnUse" color-interpolation-filters="sRGB">
<feFlood flood-opacity="0" result="BackgroundImageFix"/>
<feColorMatrix in="SourceAlpha" type="matrix" values="0 0 0 0 0 0 0 0 0 0 0 0 0 0 0 0 0 0 127 0" result="hardAlpha"/>
<feOffset dy="8.50859"/>
<feGaussianBlur stdDeviation="11.6993"/>
<feComposite in2="hardAlpha" operator="out"/>
<feColorMatrix type="matrix" values="0 0 0 0 0.101667 0 0 0 0 0.6766 0 0 0 0 1 0 0 0 0.25 0"/>
<feBlend mode="normal" in2="BackgroundImageFix" result="effect1_dropShadow_298_1948"/>
<feBlend mode="normal" in="SourceGraphic" in2="effect1_dropShadow_298_1948" result="shape"/>
</filter>
<filter id="filter19_d_298_1948" x="1108.78" y="32.3986" width="76.1161" height="90.6632" filterUnits="userSpaceOnUse" color-interpolation-filters="sRGB">
<feFlood flood-opacity="0" result="BackgroundImageFix"/>
<feColorMatrix in="SourceAlpha" type="matrix" values="0 0 0 0 0 0 0 0 0 0 0 0 0 0 0 0 0 0 127 0" result="hardAlpha"/>
<feOffset/>
<feGaussianBlur stdDeviation="4.2543"/>
<feComposite in2="hardAlpha" operator="out"/>
<feColorMatrix type="matrix" values="0 0 0 0 0.524655 0 0 0 0 0.0784758 0 0 0 0 0.970833 0 0 0 0.25 0"/>
<feBlend mode="normal" in2="BackgroundImageFix" result="effect1_dropShadow_298_1948"/>
<feBlend mode="normal" in="SourceGraphic" in2="effect1_dropShadow_298_1948" result="shape"/>
</filter>
<filter id="filter20_d_298_1948" x="127.103" y="71.7511" width="283.974" height="73.3866" filterUnits="userSpaceOnUse" color-interpolation-filters="sRGB">
<feFlood flood-opacity="0" result="BackgroundImageFix"/>
<feColorMatrix in="SourceAlpha" type="matrix" values="0 0 0 0 0 0 0 0 0 0 0 0 0 0 0 0 0 0 127 0" result="hardAlpha"/>
<feOffset dy="8.50859"/>
<feGaussianBlur stdDeviation="11.6993"/>
<feComposite in2="hardAlpha" operator="out"/>
<feColorMatrix type="matrix" values="0 0 0 0 0.443033 0 0 0 0 0.101667 0 0 0 0 1 0 0 0 0.25 0"/>
<feBlend mode="normal" in2="BackgroundImageFix" result="effect1_dropShadow_298_1948"/>
<feBlend mode="normal" in="SourceGraphic" in2="effect1_dropShadow_298_1948" result="shape"/>
</filter>
<filter id="filter21_d_298_1948" x="879.05" y="71.7511" width="283.974" height="73.3866" filterUnits="userSpaceOnUse" color-interpolation-filters="sRGB">
<feFlood flood-opacity="0" result="BackgroundImageFix"/>
<feColorMatrix in="SourceAlpha" type="matrix" values="0 0 0 0 0 0 0 0 0 0 0 0 0 0 0 0 0 0 127 0" result="hardAlpha"/>
<feOffset dy="8.50859"/>
<feGaussianBlur stdDeviation="11.6993"/>
<feComposite in2="hardAlpha" operator="out"/>
<feColorMatrix type="matrix" values="0 0 0 0 0.443033 0 0 0 0 0.101667 0 0 0 0 1 0 0 0 0.25 0"/>
<feBlend mode="normal" in2="BackgroundImageFix" result="effect1_dropShadow_298_1948"/>
<feBlend mode="normal" in="SourceGraphic" in2="effect1_dropShadow_298_1948" result="shape"/>
</filter>
<filter id="filter22_d_298_1948" x="354.93" y="0.517287" width="580.084" height="120.991" filterUnits="userSpaceOnUse" color-interpolation-filters="sRGB">
<feFlood flood-opacity="0" result="BackgroundImageFix"/>
<feColorMatrix in="SourceAlpha" type="matrix" values="0 0 0 0 0 0 0 0 0 0 0 0 0 0 0 0 0 0 127 0" result="hardAlpha"/>
<feOffset/>
<feGaussianBlur stdDeviation="4.2543"/>
<feComposite in2="hardAlpha" operator="out"/>
<feColorMatrix type="matrix" values="0 0 0 0 0.524655 0 0 0 0 0.0784758 0 0 0 0 0.970833 0 0 0 0.25 0"/>
<feBlend mode="normal" in2="BackgroundImageFix" result="effect1_dropShadow_298_1948"/>
<feBlend mode="normal" in="SourceGraphic" in2="effect1_dropShadow_298_1948" result="shape"/>
</filter>
<filter id="filter23_d_298_1948" x="492.972" y="93.9591" width="302.055" height="76.577" filterUnits="userSpaceOnUse" color-interpolation-filters="sRGB">
<feFlood flood-opacity="0" result="BackgroundImageFix"/>
<feColorMatrix in="SourceAlpha" type="matrix" values="0 0 0 0 0 0 0 0 0 0 0 0 0 0 0 0 0 0 127 0" result="hardAlpha"/>
<feOffset dy="8.50859"/>
<feGaussianBlur stdDeviation="11.6993"/>
<feComposite in2="hardAlpha" operator="out"/>
<feColorMatrix type="matrix" values="0 0 0 0 0.101667 0 0 0 0 0.6766 0 0 0 0 1 0 0 0 0.25 0"/>
<feBlend mode="normal" in2="BackgroundImageFix" result="effect1_dropShadow_298_1948"/>
<feBlend mode="normal" in="SourceGraphic" in2="effect1_dropShadow_298_1948" result="shape"/>
</filter>
<filter id="filter24_d_298_1948" x="734.404" y="100.341" width="45.5512" height="45.5514" filterUnits="userSpaceOnUse" color-interpolation-filters="sRGB">
<feFlood flood-opacity="0" result="BackgroundImageFix"/>
<feColorMatrix in="SourceAlpha" type="matrix" values="0 0 0 0 0 0 0 0 0 0 0 0 0 0 0 0 0 0 127 0" result="hardAlpha"/>
<feOffset/>
<feGaussianBlur stdDeviation="4.2543"/>
<feComposite in2="hardAlpha" operator="out"/>
<feColorMatrix type="matrix" values="0 0 0 0 0.524655 0 0 0 0 0.0784758 0 0 0 0 0.970833 0 0 0 0.25 0"/>
<feBlend mode="normal" in2="BackgroundImageFix" result="effect1_dropShadow_298_1948"/>
<feBlend mode="normal" in="SourceGraphic" in2="effect1_dropShadow_298_1948" result="shape"/>
</filter>
<filter id="filter25_d_298_1948" x="508.045" y="100.341" width="45.5512" height="45.5514" filterUnits="userSpaceOnUse" color-interpolation-filters="sRGB">
<feFlood flood-opacity="0" result="BackgroundImageFix"/>
<feColorMatrix in="SourceAlpha" type="matrix" values="0 0 0 0 0 0 0 0 0 0 0 0 0 0 0 0 0 0 127 0" result="hardAlpha"/>
<feOffset/>
<feGaussianBlur stdDeviation="4.2543"/>
<feComposite in2="hardAlpha" operator="out"/>
<feColorMatrix type="matrix" values="0 0 0 0 0.524655 0 0 0 0 0.0784758 0 0 0 0 0.970833 0 0 0 0.25 0"/>
<feBlend mode="normal" in2="BackgroundImageFix" result="effect1_dropShadow_298_1948"/>
<feBlend mode="normal" in="SourceGraphic" in2="effect1_dropShadow_298_1948" result="shape"/>
</filter>
<filter id="filter26_d_298_1948" x="377.043" y="100.34" width="533.914" height="21.2716" filterUnits="userSpaceOnUse" color-interpolation-filters="sRGB">
<feFlood flood-opacity="0" result="BackgroundImageFix"/>
<feColorMatrix in="SourceAlpha" type="matrix" values="0 0 0 0 0 0 0 0 0 0 0 0 0 0 0 0 0 0 127 0" result="hardAlpha"/>
<feOffset/>
<feGaussianBlur stdDeviation="4.2543"/>
<feComposite in2="hardAlpha" operator="out"/>
<feColorMatrix type="matrix" values="0 0 0 0 0.524655 0 0 0 0 0.0784758 0 0 0 0 0.970833 0 0 0 0.25 0"/>
<feBlend mode="normal" in2="BackgroundImageFix" result="effect1_dropShadow_298_1948"/>
<feBlend mode="normal" in="SourceGraphic" in2="effect1_dropShadow_298_1948" result="shape"/>
</filter>
<linearGradient id="paint0_linear_298_1948" x1="645.595" y1="1045.81" x2="645.595" y2="1046.81" gradientUnits="userSpaceOnUse">
<stop stop-color="#8103FF"/>
<stop offset="1" stop-color="#9F03FF"/>
</linearGradient>
<linearGradient id="paint1_linear_298_1948" x1="644" y1="992.634" x2="644" y2="1044.75" gradientUnits="userSpaceOnUse">
<stop stop-color="#8103FF"/>
<stop offset="1" stop-color="#9F03FF"/>
</linearGradient>
<linearGradient id="paint2_linear_298_1948" x1="512.117" y1="987.316" x2="759.93" y2="1033.05" gradientUnits="userSpaceOnUse">
<stop stop-color="#443EE6"/>
<stop offset="1" stop-color="#2CE6FF"/>
</linearGradient>
<linearGradient id="paint3_linear_298_1948" x1="644" y1="992.634" x2="644" y2="1044.75" gradientUnits="userSpaceOnUse">
<stop stop-color="#8103FF"/>
<stop offset="1" stop-color="#9F03FF"/>
</linearGradient>
<linearGradient id="paint4_linear_298_1948" x1="36.6516" y1="1024.47" x2="117.67" y2="1028.24" gradientUnits="userSpaceOnUse">
<stop stop-color="#6C1EFF"/>
<stop offset="1" stop-color="#9014E2"/>
</linearGradient>
<linearGradient id="paint5_linear_298_1948" x1="36.6516" y1="1024.47" x2="117.67" y2="1028.24" gradientUnits="userSpaceOnUse">
<stop stop-color="#6C1EFF"/>
<stop offset="1" stop-color="#9014E2"/>
</linearGradient>
<linearGradient id="paint6_linear_298_1948" x1="36.6516" y1="1024.47" x2="117.67" y2="1028.24" gradientUnits="userSpaceOnUse">
<stop stop-color="#6C1EFF"/>
<stop offset="1" stop-color="#9014E2"/>
</linearGradient>
<linearGradient id="paint7_linear_298_1948" x1="318.26" y1="983.208" x2="474.453" y2="1002.98" gradientUnits="userSpaceOnUse">
<stop stop-color="#6C1EFF"/>
<stop offset="1" stop-color="#9014E2"/>
</linearGradient>
<linearGradient id="paint8_linear_298_1948" x1="318.26" y1="983.208" x2="474.453" y2="1002.98" gradientUnits="userSpaceOnUse">
<stop stop-color="#6C1EFF"/>
<stop offset="1" stop-color="#9014E2"/>
</linearGradient>
<linearGradient id="paint9_linear_298_1948" x1="59.0344" y1="107.912" x2="17.043" y2="339.197" gradientUnits="userSpaceOnUse">
<stop stop-color="#2A79EE"/>
<stop offset="1" stop-color="#00FAEC"/>
</linearGradient>
<linearGradient id="paint10_linear_298_1948" x1="138.802" y1="1016.03" x2="286.107" y2="1061.77" gradientUnits="userSpaceOnUse">
<stop stop-color="#48C7FA"/>
<stop offset="1" stop-color="#633BFF"/>
</linearGradient>
<linearGradient id="paint11_linear_298_1948" x1="47.335" y1="799.064" x2="363.216" y2="1016.03" gradientUnits="userSpaceOnUse">
<stop stop-color="#03E1FF"/>
<stop offset="1" stop-color="#9F03FF"/>
</linearGradient>
<linearGradient id="paint12_linear_298_1948" x1="117.217" y1="41.462" x2="105.851" y2="54.6015" gradientUnits="userSpaceOnUse">
<stop stop-color="#8103FF"/>
<stop offset="1" stop-color="#DC03FF"/>
</linearGradient>
<linearGradient id="paint13_linear_298_1948" x1="86.1555" y1="43.0342" x2="45.2079" y2="135.565" gradientUnits="userSpaceOnUse">
<stop stop-color="#4341F8"/>
<stop offset="1" stop-color="#605DFF"/>
</linearGradient>
<linearGradient id="paint14_linear_298_1948" x1="86.1555" y1="43.0342" x2="86.1555" y2="787.536" gradientUnits="userSpaceOnUse">
<stop stop-color="#8103FF"/>
<stop offset="1" stop-color="#9F03FF"/>
</linearGradient>
<linearGradient id="paint15_linear_298_1948" x1="1251.35" y1="1024.47" x2="1170.33" y2="1028.24" gradientUnits="userSpaceOnUse">
<stop stop-color="#6C1EFF"/>
<stop offset="1" stop-color="#9014E2"/>
</linearGradient>
<linearGradient id="paint16_linear_298_1948" x1="1251.35" y1="1024.47" x2="1170.33" y2="1028.24" gradientUnits="userSpaceOnUse">
<stop stop-color="#6C1EFF"/>
<stop offset="1" stop-color="#9014E2"/>
</linearGradient>
<linearGradient id="paint17_linear_298_1948" x1="1251.35" y1="1024.47" x2="1170.33" y2="1028.24" gradientUnits="userSpaceOnUse">
<stop stop-color="#6C1EFF"/>
<stop offset="1" stop-color="#9014E2"/>
</linearGradient>
<linearGradient id="paint18_linear_298_1948" x1="969.741" y1="983.208" x2="813.547" y2="1002.98" gradientUnits="userSpaceOnUse">
<stop stop-color="#6C1EFF"/>
<stop offset="1" stop-color="#9014E2"/>
</linearGradient>
<linearGradient id="paint19_linear_298_1948" x1="969.741" y1="983.208" x2="813.547" y2="1002.98" gradientUnits="userSpaceOnUse">
<stop stop-color="#6C1EFF"/>
<stop offset="1" stop-color="#9014E2"/>
</linearGradient>
<linearGradient id="paint20_linear_298_1948" x1="1228.97" y1="107.912" x2="1270.96" y2="339.197" gradientUnits="userSpaceOnUse">
<stop stop-color="#2A79EE"/>
<stop offset="1" stop-color="#00FAEC"/>
</linearGradient>
<linearGradient id="paint21_linear_298_1948" x1="1201.84" y1="43.0342" x2="1242.79" y2="135.565" gradientUnits="userSpaceOnUse">
<stop stop-color="#4341F8"/>
<stop offset="1" stop-color="#605DFF"/>
</linearGradient>
<linearGradient id="paint22_linear_298_1948" x1="1201.84" y1="43.0342" x2="1201.84" y2="787.536" gradientUnits="userSpaceOnUse">
<stop stop-color="#8103FF"/>
<stop offset="1" stop-color="#9F03FF"/>
</linearGradient>
<linearGradient id="paint23_linear_298_1948" x1="1152.39" y1="1016.03" x2="1005.08" y2="1061.77" gradientUnits="userSpaceOnUse">
<stop stop-color="#48C7FA"/>
<stop offset="1" stop-color="#633BFF"/>
</linearGradient>
<linearGradient id="paint24_linear_298_1948" x1="1240.66" y1="799.064" x2="924.783" y2="1016.03" gradientUnits="userSpaceOnUse">
<stop stop-color="#03E1FF"/>
<stop offset="1" stop-color="#9F03FF"/>
</linearGradient>
<linearGradient id="paint25_linear_298_1948" x1="90.7911" y1="1.075" x2="87.5701" y2="-15.9975" gradientUnits="userSpaceOnUse">
<stop stop-color="#8103FF"/>
<stop offset="1" stop-color="#DC03FF"/>
</linearGradient>
<linearGradient id="paint26_linear_298_1948" x1="1156.77" y1="46.2366" x2="1156.48" y2="28.5612" gradientUnits="userSpaceOnUse">
<stop stop-color="#8103FF"/>
<stop offset="1" stop-color="#DC03FF"/>
</linearGradient>
<linearGradient id="paint27_linear_298_1948" x1="151.565" y1="51.543" x2="364.28" y2="79.1959" gradientUnits="userSpaceOnUse">
<stop stop-color="#3445F4"/>
<stop offset="1" stop-color="#15F8F7"/>
</linearGradient>
<linearGradient id="paint28_linear_298_1948" x1="151.565" y1="51.543" x2="364.28" y2="79.1959" gradientUnits="userSpaceOnUse">
<stop stop-color="#3445F4"/>
<stop offset="1" stop-color="#15F8F7"/>
</linearGradient>
<linearGradient id="paint29_linear_298_1948" x1="151.565" y1="51.543" x2="364.28" y2="79.1959" gradientUnits="userSpaceOnUse">
<stop stop-color="#3445F4"/>
<stop offset="1" stop-color="#15F8F7"/>
</linearGradient>
<linearGradient id="paint30_linear_298_1948" x1="151.565" y1="51.543" x2="364.28" y2="79.1959" gradientUnits="userSpaceOnUse">
<stop stop-color="#3445F4"/>
<stop offset="1" stop-color="#15F8F7"/>
</linearGradient>
<linearGradient id="paint31_linear_298_1948" x1="1138.56" y1="51.543" x2="925.847" y2="79.1959" gradientUnits="userSpaceOnUse">
<stop stop-color="#3445F4"/>
<stop offset="1" stop-color="#15F8F7"/>
</linearGradient>
<linearGradient id="paint32_linear_298_1948" x1="1138.56" y1="51.543" x2="925.847" y2="79.1959" gradientUnits="userSpaceOnUse">
<stop stop-color="#3445F4"/>
<stop offset="1" stop-color="#15F8F7"/>
</linearGradient>
<linearGradient id="paint33_linear_298_1948" x1="1138.56" y1="51.543" x2="925.847" y2="79.1959" gradientUnits="userSpaceOnUse">
<stop stop-color="#3445F4"/>
<stop offset="1" stop-color="#15F8F7"/>
</linearGradient>
<linearGradient id="paint34_linear_298_1948" x1="1138.56" y1="51.543" x2="925.847" y2="79.1959" gradientUnits="userSpaceOnUse">
<stop stop-color="#3445F4"/>
<stop offset="1" stop-color="#15F8F7"/>
</linearGradient>
<linearGradient id="paint35_linear_298_1948" x1="90.7911" y1="1.075" x2="87.5701" y2="-15.9975" gradientUnits="userSpaceOnUse">
<stop stop-color="#8103FF"/>
<stop offset="1" stop-color="#DC03FF"/>
</linearGradient>
<linearGradient id="paint36_linear_298_1948" x1="151.565" y1="87.7047" x2="269.09" y2="113.23" gradientUnits="userSpaceOnUse">
<stop stop-color="#9C0EFF"/>
<stop offset="1" stop-color="#6035FA"/>
</linearGradient>
<linearGradient id="paint37_linear_298_1948" x1="1138.56" y1="87.7047" x2="1021.04" y2="113.23" gradientUnits="userSpaceOnUse">
<stop stop-color="#9C0EFF"/>
<stop offset="1" stop-color="#6035FA"/>
</linearGradient>
<linearGradient id="paint38_linear_298_1948" x1="918.402" y1="146.201" x2="379.17" y2="9.00001" gradientUnits="userSpaceOnUse">
<stop stop-color="#8103FF"/>
<stop offset="1" stop-color="#DC03FF"/>
</linearGradient>
<linearGradient id="paint39_linear_298_1948" x1="522.753" y1="114.167" x2="749.294" y2="136.502" gradientUnits="userSpaceOnUse">
<stop stop-color="#3E3CF1"/>
<stop offset="1" stop-color="#3CC6F1"/>
</linearGradient>
<linearGradient id="paint40_linear_298_1948" x1="765.255" y1="138.416" x2="572.085" y2="29.3998" gradientUnits="userSpaceOnUse">
<stop stop-color="#8103FF"/>
<stop offset="1" stop-color="#DC03FF"/>
</linearGradient>
<linearGradient id="paint41_linear_298_1948" x1="35.4882" y1="1.075" x2="28.5669" y2="-13.2645" gradientUnits="userSpaceOnUse">
<stop stop-color="#8103FF"/>
<stop offset="1" stop-color="#DC03FF"/>
</linearGradient>
<linearGradient id="paint42_linear_298_1948" x1="520.754" y1="108.521" x2="515.508" y2="123.555" gradientUnits="userSpaceOnUse">
<stop stop-color="#8103FF"/>
<stop offset="1" stop-color="#DC03FF"/>
</linearGradient>
</defs>
</svg>
