<svg width="8" height="8" viewBox="0 0 8 8" fill="none" xmlns="http://www.w3.org/2000/svg">
<path d="M6.41193 7.72753C6.77523 8.09082 7.36424 8.09082 7.72753 7.72753C8.09082 7.36424 8.09082 6.77522 7.72753 6.41193L5.3156 4L4 5.3156L6.41193 7.72753Z" fill="#03FF49"/>
<path d="M1.58807 0.272469C1.22478 -0.090823 0.635763 -0.090823 0.27247 0.272469C-0.0908223 0.635762 -0.0908239 1.22478 0.272469 1.58807L2.6844 4L4 2.6844L1.58807 0.272469Z" fill="#03FF49"/>
<path d="M2.6844 4L4 5.3156L5.3156 4L4.6578 3.3422L4 2.6844L2.6844 4Z" fill="#03FF49"/>
<path d="M7.72753 1.58807C8.09082 1.22478 8.09082 0.635762 7.72753 0.272469C7.36424 -0.0908231 6.77522 -0.0908231 6.41193 0.272469L4 2.6844L4.6578 3.3422L5.3156 4L7.72753 1.58807Z" fill="#03FF49"/>
<path d="M0.27247 6.41193C-0.0908224 6.77522 -0.0908224 7.36424 0.27247 7.72753C0.635763 8.09082 1.22478 8.09082 1.58807 7.72753L4 5.3156L2.6844 4L0.27247 6.41193Z" fill="#03FF49"/>
</svg>
