<svg width="18" height="18" viewBox="0 0 18 18" fill="none" xmlns="http://www.w3.org/2000/svg">
<path d="M6.50033 0.666626C3.28866 0.666626 0.666992 3.28829 0.666992 6.49996C0.666992 9.71163 3.28866 12.3333 6.50033 12.3333C7.95703 12.3333 9.28801 11.7901 10.3122 10.901L10.667 11.2558V12.3333L15.3219 16.9882C15.7817 17.448 16.5288 17.448 16.9886 16.9882C17.4484 16.5284 17.4484 15.7818 16.9886 15.3216L12.3337 10.6666H11.2562L10.9014 10.3118C11.7904 9.28764 12.3337 7.95667 12.3337 6.49996C12.3337 3.28829 9.712 0.666626 6.50033 0.666626ZM6.50033 2.33329C8.81153 2.33329 10.667 4.18876 10.667 6.49996C10.667 8.81116 8.81153 10.6666 6.50033 10.6666C4.18913 10.6666 2.33366 8.81116 2.33366 6.49996C2.33366 4.18876 4.18913 2.33329 6.50033 2.33329Z" fill="#03FF49"/>
</svg>
