<svg width="12" height="12" viewBox="0 0 12 12" fill="none" xmlns="http://www.w3.org/2000/svg">
<path d="M10.0834 1.33464H8.91675V0.751302C8.91675 0.596592 8.85529 0.448219 8.74589 0.338823C8.6365 0.229427 8.48812 0.167969 8.33341 0.167969C8.17871 0.167969 8.03033 0.229427 7.92094 0.338823C7.81154 0.448219 7.75008 0.596592 7.75008 0.751302V1.33464H4.25008V0.751302C4.25008 0.596592 4.18862 0.448219 4.07923 0.338823C3.96983 0.229427 3.82146 0.167969 3.66675 0.167969C3.51204 0.167969 3.36367 0.229427 3.25427 0.338823C3.14487 0.448219 3.08341 0.596592 3.08341 0.751302V1.33464H1.91675C1.45262 1.33464 1.0075 1.51901 0.679311 1.8472C0.351123 2.17539 0.166748 2.62051 0.166748 3.08464V10.0846C0.166748 10.5488 0.351123 10.9939 0.679311 11.3221C1.0075 11.6503 1.45262 11.8346 1.91675 11.8346H10.0834C10.5475 11.8346 10.9927 11.6503 11.3209 11.3221C11.649 10.9939 11.8334 10.5488 11.8334 10.0846V3.08464C11.8334 2.62051 11.649 2.17539 11.3209 1.8472C10.9927 1.51901 10.5475 1.33464 10.0834 1.33464ZM10.6667 10.0846C10.6667 10.2393 10.6053 10.3877 10.4959 10.4971C10.3865 10.6065 10.2381 10.668 10.0834 10.668H1.91675C1.76204 10.668 1.61367 10.6065 1.50427 10.4971C1.39487 10.3877 1.33341 10.2393 1.33341 10.0846V6.0013H10.6667V10.0846ZM10.6667 4.83464H1.33341V3.08464C1.33341 2.92993 1.39487 2.78155 1.50427 2.67216C1.61367 2.56276 1.76204 2.5013 1.91675 2.5013H3.08341V3.08464C3.08341 3.23934 3.14487 3.38772 3.25427 3.49711C3.36367 3.60651 3.51204 3.66797 3.66675 3.66797C3.82146 3.66797 3.96983 3.60651 4.07923 3.49711C4.18862 3.38772 4.25008 3.23934 4.25008 3.08464V2.5013H7.75008V3.08464C7.75008 3.23934 7.81154 3.38772 7.92094 3.49711C8.03033 3.60651 8.17871 3.66797 8.33341 3.66797C8.48812 3.66797 8.6365 3.60651 8.74589 3.49711C8.85529 3.38772 8.91675 3.23934 8.91675 3.08464V2.5013H10.0834C10.2381 2.5013 10.3865 2.56276 10.4959 2.67216C10.6053 2.78155 10.6667 2.92993 10.6667 3.08464V4.83464Z" fill="#03FF49"/>
</svg>
