<svg width="50" height="50" viewBox="0 0 50 50" fill="none" xmlns="http://www.w3.org/2000/svg">
<circle cx="25" cy="25" r="25" fill="#393E42"/>
<path d="M16.9661 10.7607C16.3954 11.1591 15.9203 11.6952 15.5788 12.3256C15.2374 12.956 15.0391 13.6632 15 14.3905V18.5241C15.0391 19.2513 15.2374 19.9586 15.5788 20.589C15.9203 21.2195 16.3954 21.7554 16.9661 22.1538L21.034 24.716C22.1129 25.3822 23 24.8356 23 23.5032V9.49671C23 8.1644 22.1129 7.61785 21.034 8.28401L16.9661 10.7607Z" fill="url(#paint0_linear_32_15359)"/>
<path d="M16.1577 22.4725C15.5548 22.1619 14.8886 22 14.2129 22C13.5372 22 12.871 22.1619 12.2681 22.4725L8.9488 24.4096C8.3832 24.7861 7.91222 25.2926 7.57371 25.8884C7.23526 26.4842 7.03873 27.1525 7 27.8397V32.5855C7 33.8446 7.87937 34.3611 8.9488 33.7316L20.1979 27.1134C21.2674 26.4839 21.2674 25.4588 20.1979 24.8292L16.1577 22.4725Z" fill="url(#paint1_linear_32_15359)"/>
<path d="M32.034 10.7607C32.6046 11.1591 33.0798 11.6952 33.4212 12.3256C33.7627 12.956 33.961 13.6632 34 14.3905V18.5241C33.961 19.2513 33.7627 19.9586 33.4212 20.589C33.0798 21.2195 32.6046 21.7554 32.034 22.1538L27.9581 24.716C26.8791 25.3822 26 24.8356 26 23.5032V9.49671C26 8.1644 26.8791 7.61785 27.9581 8.28401L32.034 10.7607Z" fill="url(#paint2_linear_32_15359)"/>
<path d="M32.1911 22.4725C32.8375 22.1619 33.5517 22 34.276 22C35.0003 22 35.7146 22.1619 36.361 22.4725L39.9193 24.4096C40.5246 24.7865 41.0282 25.2933 41.3896 25.8891C41.751 26.4849 41.9601 27.1531 42 27.8397V32.5855C42 33.8446 41.0658 34.3611 39.9193 33.7316L27.8599 27.1134C26.7134 26.4839 26.7134 25.4588 27.8599 24.8292L32.1911 22.4725Z" fill="url(#paint3_linear_32_15359)"/>
<path d="M13.8451 40.5281C14.4483 40.8384 15.1149 41 15.7909 41C16.467 41 17.1336 40.8384 17.7369 40.5281L21.0581 38.5856C21.6232 38.2074 22.0932 37.6998 22.4304 37.1035C22.7677 36.5072 22.9627 35.8388 23 35.152V30.4126C23 29.1552 22.1282 28.6393 21.0581 29.268L9.80255 35.8774C8.73248 36.5061 8.73248 37.5297 9.80255 38.1584L13.8451 40.5281Z" fill="url(#paint4_linear_32_15359)"/>
<path d="M25 35.1559C25.0406 35.841 25.25 36.5076 25.6113 37.1021C25.9727 37.6966 26.4759 38.2025 27.0807 38.5792L30.6391 40.5284C31.2855 40.8385 31.9997 41 32.724 41C33.4484 41 34.1625 40.8385 34.8089 40.5284L39.1401 38.1523C40.2866 37.524 40.2866 36.501 39.1401 35.8728L27.0807 29.2678C25.9342 28.6396 25 29.1551 25 30.4116V35.1559Z" fill="url(#paint5_linear_32_15359)"/>
<defs>
<linearGradient id="paint0_linear_32_15359" x1="19" y1="8" x2="19" y2="25" gradientUnits="userSpaceOnUse">
<stop stop-color="#03FF49"/>
<stop offset="1" stop-color="#035F1D"/>
</linearGradient>
<linearGradient id="paint1_linear_32_15359" x1="14" y1="22" x2="14" y2="34" gradientUnits="userSpaceOnUse">
<stop stop-color="#03FF49"/>
<stop offset="1" stop-color="#035F1D"/>
</linearGradient>
<linearGradient id="paint2_linear_32_15359" x1="30" y1="8" x2="30" y2="25" gradientUnits="userSpaceOnUse">
<stop stop-color="#03FF49"/>
<stop offset="1" stop-color="#035F1D"/>
</linearGradient>
<linearGradient id="paint3_linear_32_15359" x1="34.5" y1="22" x2="34.5" y2="34" gradientUnits="userSpaceOnUse">
<stop stop-color="#03FF49"/>
<stop offset="1" stop-color="#035F1D"/>
</linearGradient>
<linearGradient id="paint4_linear_32_15359" x1="16" y1="29" x2="16" y2="41" gradientUnits="userSpaceOnUse">
<stop stop-color="#03FF49"/>
<stop offset="1" stop-color="#035F1D"/>
</linearGradient>
<linearGradient id="paint5_linear_32_15359" x1="32.5" y1="29" x2="32.5" y2="41" gradientUnits="userSpaceOnUse">
<stop stop-color="#03FF49"/>
<stop offset="1" stop-color="#035F1D"/>
</linearGradient>
</defs>
</svg>
