<svg width="28" height="28" viewBox="0 0 28 28" fill="none" xmlns="http://www.w3.org/2000/svg">
<path d="M24.5465 18.6793H18.5065C18.1529 18.6793 17.8137 18.8198 17.5637 19.0699C17.3136 19.3199 17.1732 19.6591 17.1732 20.0127C17.1732 20.3663 17.3136 20.7054 17.5637 20.9555C17.8137 21.2055 18.1529 21.346 18.5065 21.346H21.7065C20.2358 22.883 18.339 23.9451 16.2601 24.3959C14.1811 24.8466 12.0148 24.6655 10.0395 23.8757C8.0643 23.0859 6.37033 21.7235 5.17529 19.9636C3.98025 18.2037 3.33874 16.1266 3.33317 13.9993C3.33317 13.6457 3.19269 13.3066 2.94265 13.0565C2.6926 12.8065 2.35346 12.666 1.99984 12.666C1.64622 12.666 1.30708 12.8065 1.05703 13.0565C0.80698 13.3066 0.666504 13.6457 0.666504 13.9993C0.673553 16.6031 1.4428 19.1478 2.87931 21.3194C4.31582 23.491 6.35672 25.1945 8.75016 26.2196C11.1436 27.2448 13.7848 27.5467 16.3479 27.0882C18.9109 26.6297 21.2836 25.4307 23.1732 23.6393V25.9993C23.1732 26.353 23.3136 26.6921 23.5637 26.9422C23.8137 27.1922 24.1529 27.3327 24.5065 27.3327C24.8601 27.3327 25.1993 27.1922 25.4493 26.9422C25.6994 26.6921 25.8398 26.353 25.8398 25.9993V19.9993C25.8365 19.6549 25.7 19.325 25.4589 19.0789C25.2178 18.8329 24.8909 18.6897 24.5465 18.6793ZM13.9998 0.666016C10.5817 0.675765 7.29782 1.9979 4.8265 4.35935V1.99935C4.8265 1.64573 4.68603 1.30659 4.43598 1.05654C4.18593 0.806491 3.84679 0.666016 3.49317 0.666016C3.13955 0.666016 2.80041 0.806491 2.55036 1.05654C2.30031 1.30659 2.15984 1.64573 2.15984 1.99935V7.99935C2.15984 8.35297 2.30031 8.69211 2.55036 8.94216C2.80041 9.19221 3.13955 9.33268 3.49317 9.33268H9.49317C9.84679 9.33268 10.1859 9.19221 10.436 8.94216C10.686 8.69211 10.8265 8.35297 10.8265 7.99935C10.8265 7.64573 10.686 7.30659 10.436 7.05654C10.1859 6.80649 9.84679 6.66602 9.49317 6.66602H6.29317C7.76312 5.12984 9.65862 4.06802 11.7364 3.61683C13.8141 3.16564 15.9793 3.34568 17.954 4.13383C19.9287 4.92199 21.6228 6.2823 22.8188 8.04015C24.0149 9.79801 24.6583 11.8732 24.6665 13.9993C24.6665 14.353 24.807 14.6921 25.057 14.9422C25.3071 15.1922 25.6462 15.3327 25.9998 15.3327C26.3535 15.3327 26.6926 15.1922 26.9426 14.9422C27.1927 14.6921 27.3332 14.353 27.3332 13.9993C27.3332 12.2484 26.9883 10.5146 26.3182 8.8969C25.6482 7.27923 24.666 5.80937 23.4279 4.57126C22.1898 3.33314 20.72 2.35102 19.1023 1.68096C17.4846 1.01089 15.7508 0.666016 13.9998 0.666016Z" fill="#03FF49"/>
</svg>
