<svg width="248" height="40" viewBox="0 0 248 40" fill="none" xmlns="http://www.w3.org/2000/svg">
<circle cx="20" cy="20" r="20" fill="#03FF49"/>
<path d="M17.1925 24.1925L13.6925 20.6925C13.3025 20.3025 12.6825 20.3025 12.2925 20.6925C11.9025 21.0825 11.9025 21.7025 12.2925 22.0925L16.4825 26.2825C16.8725 26.6725 17.5025 26.6725 17.8925 26.2825L28.4925 15.6925C28.8825 15.3025 28.8825 14.6825 28.4925 14.2925C28.1025 13.9025 27.4825 13.9025 27.0925 14.2925L17.1925 24.1925Z" fill="#1B1A26"/>
<circle cx="124" cy="20" r="19" fill="#03FF49" stroke="#03FF49" stroke-width="2"/>
<path d="M121.193 24.1925L117.693 20.6925C117.303 20.3025 116.683 20.3025 116.292 20.6925C115.903 21.0825 115.903 21.7025 116.292 22.0925L120.483 26.2825C120.872 26.6725 121.503 26.6725 121.892 26.2825L132.492 15.6925C132.882 15.3025 132.882 14.6825 132.492 14.2925C132.102 13.9025 131.483 13.9025 131.092 14.2925L121.193 24.1925Z" fill="#1B1A26"/>
<circle cx="228" cy="20" r="19" fill="#03FF49" stroke="#03FF49" stroke-width="2"/>
<path d="M226.686 19.2783H227.67C228.053 19.2783 228.37 19.2122 228.62 19.0801C228.876 18.9479 229.065 18.7656 229.188 18.5332C229.311 18.3008 229.372 18.0342 229.372 17.7334C229.372 17.4189 229.315 17.1501 229.201 16.9268C229.092 16.6989 228.923 16.5234 228.696 16.4004C228.472 16.2773 228.187 16.2158 227.841 16.2158C227.549 16.2158 227.285 16.2751 227.048 16.3936C226.816 16.5075 226.631 16.6715 226.494 16.8857C226.358 17.0954 226.289 17.346 226.289 17.6377H224.635C224.635 17.109 224.774 16.6396 225.052 16.2295C225.33 15.8193 225.708 15.498 226.187 15.2656C226.67 15.0286 227.212 14.9102 227.814 14.9102C228.456 14.9102 229.017 15.0173 229.495 15.2314C229.978 15.4411 230.354 15.7555 230.623 16.1748C230.892 16.5941 231.027 17.1136 231.027 17.7334C231.027 18.016 230.961 18.3031 230.828 18.5947C230.696 18.8864 230.5 19.153 230.24 19.3945C229.981 19.6315 229.657 19.8252 229.27 19.9756C228.882 20.1214 228.434 20.1943 227.923 20.1943H226.686V19.2783ZM226.686 20.5635V19.6611H227.923C228.506 19.6611 229.003 19.7295 229.413 19.8662C229.828 20.0029 230.165 20.1921 230.425 20.4336C230.685 20.6706 230.874 20.9417 230.992 21.2471C231.115 21.5524 231.177 21.876 231.177 22.2178C231.177 22.6826 231.093 23.0973 230.924 23.4619C230.76 23.8219 230.525 24.1273 230.22 24.3779C229.915 24.6286 229.557 24.8177 229.147 24.9453C228.741 25.0729 228.299 25.1367 227.821 25.1367C227.392 25.1367 226.982 25.0775 226.59 24.959C226.198 24.8405 225.847 24.665 225.537 24.4326C225.227 24.1956 224.981 23.9017 224.799 23.5508C224.621 23.1953 224.532 22.7852 224.532 22.3203H226.18C226.18 22.6165 226.248 22.8786 226.385 23.1064C226.526 23.3298 226.722 23.5052 226.973 23.6328C227.228 23.7604 227.52 23.8242 227.848 23.8242C228.194 23.8242 228.493 23.7627 228.743 23.6396C228.994 23.5166 229.185 23.3343 229.318 23.0928C229.454 22.8512 229.523 22.5596 229.523 22.2178C229.523 21.8304 229.448 21.516 229.297 21.2744C229.147 21.0329 228.933 20.8551 228.655 20.7412C228.377 20.6227 228.048 20.5635 227.67 20.5635H226.686Z" fill="#1B1A26"/>
<line x1="48.5" y1="19.5" x2="95.5" y2="19.5" stroke="#03FF49" stroke-linecap="round"/>
<line x1="152.5" y1="19.5" x2="199.5" y2="19.5" stroke="#03FF49" stroke-linecap="round"/>
</svg>
