<svg width="22" height="28" viewBox="0 0 22 28" fill="none" xmlns="http://www.w3.org/2000/svg">
<path d="M21.6663 9.91984C21.6525 9.79735 21.6256 9.67668 21.5863 9.55984V9.43984C21.5222 9.30274 21.4367 9.17672 21.333 9.0665L13.333 1.0665C13.2228 0.962792 13.0968 0.877279 12.9597 0.81317C12.9199 0.807517 12.8795 0.807517 12.8397 0.81317C12.7042 0.735492 12.5546 0.68563 12.3997 0.666504H4.33301C3.27214 0.666504 2.25473 1.08793 1.50458 1.83808C0.754435 2.58822 0.333008 3.60564 0.333008 4.6665V23.3332C0.333008 24.394 0.754435 25.4115 1.50458 26.1616C2.25473 26.9117 3.27214 27.3332 4.33301 27.3332H17.6663C18.7272 27.3332 19.7446 26.9117 20.4948 26.1616C21.2449 25.4115 21.6663 24.394 21.6663 23.3332V9.99984C21.6663 9.99984 21.6663 9.99984 21.6663 9.91984ZM13.6663 5.21317L17.1197 8.6665H14.9997C14.6461 8.6665 14.3069 8.52603 14.0569 8.27598C13.8068 8.02593 13.6663 7.68679 13.6663 7.33317V5.21317ZM18.9997 23.3332C18.9997 23.6868 18.8592 24.0259 18.6091 24.276C18.3591 24.526 18.02 24.6665 17.6663 24.6665H4.33301C3.97939 24.6665 3.64025 24.526 3.3902 24.276C3.14015 24.0259 2.99967 23.6868 2.99967 23.3332V4.6665C2.99967 4.31288 3.14015 3.97374 3.3902 3.7237C3.64025 3.47365 3.97939 3.33317 4.33301 3.33317H10.9997V7.33317C10.9997 8.39404 11.4211 9.41145 12.1712 10.1616C12.9214 10.9117 13.9388 11.3332 14.9997 11.3332H18.9997V23.3332ZM13.6663 16.6665H12.333V15.3332C12.333 14.9795 12.1925 14.6404 11.9425 14.3904C11.6924 14.1403 11.3533 13.9998 10.9997 13.9998C10.6461 13.9998 10.3069 14.1403 10.0569 14.3904C9.80682 14.6404 9.66634 14.9795 9.66634 15.3332V16.6665H8.33301C7.97939 16.6665 7.64025 16.807 7.3902 17.057C7.14015 17.3071 6.99967 17.6462 6.99967 17.9998C6.99967 18.3535 7.14015 18.6926 7.3902 18.9426C7.64025 19.1927 7.97939 19.3332 8.33301 19.3332H9.66634V20.6665C9.66634 21.0201 9.80682 21.3593 10.0569 21.6093C10.3069 21.8594 10.6461 21.9998 10.9997 21.9998C11.3533 21.9998 11.6924 21.8594 11.9425 21.6093C12.1925 21.3593 12.333 21.0201 12.333 20.6665V19.3332H13.6663C14.02 19.3332 14.3591 19.1927 14.6091 18.9426C14.8592 18.6926 14.9997 18.3535 14.9997 17.9998C14.9997 17.6462 14.8592 17.3071 14.6091 17.057C14.3591 16.807 14.02 16.6665 13.6663 16.6665Z" fill="#03FF49"/>
</svg>
