<svg width="28" height="28" viewBox="0 0 28 28" fill="none" xmlns="http://www.w3.org/2000/svg">
<path d="M25.9998 16.666C25.6462 16.666 25.3071 16.8065 25.057 17.0565C24.807 17.3066 24.6665 17.6457 24.6665 17.9993V23.3327C24.6665 23.6863 24.526 24.0254 24.276 24.2755C24.0259 24.5255 23.6868 24.666 23.3332 24.666H4.6665C4.31288 24.666 3.97374 24.5255 3.7237 24.2755C3.47365 24.0254 3.33317 23.6863 3.33317 23.3327V17.9993C3.33317 17.6457 3.19269 17.3066 2.94265 17.0565C2.6926 16.8065 2.35346 16.666 1.99984 16.666C1.64622 16.666 1.30708 16.8065 1.05703 17.0565C0.80698 17.3066 0.666504 17.6457 0.666504 17.9993V23.3327C0.666504 24.3935 1.08793 25.411 1.83808 26.1611C2.58822 26.9113 3.60564 27.3327 4.6665 27.3327H23.3332C24.394 27.3327 25.4115 26.9113 26.1616 26.1611C26.9117 25.411 27.3332 24.3935 27.3332 23.3327V17.9993C27.3332 17.6457 27.1927 17.3066 26.9426 17.0565C26.6926 16.8065 26.3535 16.666 25.9998 16.666ZM13.0532 18.946C13.18 19.0674 13.3295 19.1626 13.4932 19.226C13.6528 19.2966 13.8253 19.333 13.9998 19.333C14.1743 19.333 14.3469 19.2966 14.5065 19.226C14.6702 19.1626 14.8197 19.0674 14.9465 18.946L20.2798 13.6127C20.5309 13.3616 20.672 13.0211 20.672 12.666C20.672 12.3109 20.5309 11.9704 20.2798 11.7193C20.0288 11.4683 19.6882 11.3272 19.3332 11.3272C18.9781 11.3272 18.6376 11.4683 18.3865 11.7193L15.3332 14.786V1.99935C15.3332 1.64573 15.1927 1.30659 14.9426 1.05654C14.6926 0.806491 14.3535 0.666016 13.9998 0.666016C13.6462 0.666016 13.3071 0.806491 13.057 1.05654C12.807 1.30659 12.6665 1.64573 12.6665 1.99935V14.786L9.61317 11.7193C9.48885 11.595 9.34127 11.4964 9.17884 11.4291C9.01641 11.3619 8.84232 11.3272 8.6665 11.3272C8.49069 11.3272 8.3166 11.3619 8.15417 11.4291C7.99174 11.4964 7.84416 11.595 7.71984 11.7193C7.59552 11.8437 7.49691 11.9913 7.42962 12.1537C7.36234 12.3161 7.32771 12.4902 7.32771 12.666C7.32771 12.8418 7.36234 13.0159 7.42962 13.1783C7.49691 13.3408 7.59552 13.4884 7.71984 13.6127L13.0532 18.946Z" fill="#03FF49"/>
</svg>
