<svg width="32" height="32" viewBox="0 0 32 32" fill="none" xmlns="http://www.w3.org/2000/svg">
<circle cx="16" cy="16" r="16" fill="#4986FD"/>
<path d="M12.8496 11.0469H14.1621V17.7803C14.1621 18.5277 13.9958 19.1497 13.6631 19.6465C13.3304 20.1432 12.8883 20.5169 12.3369 20.7676C11.79 21.0137 11.1953 21.1367 10.5527 21.1367C9.87826 21.1367 9.26758 21.0137 8.7207 20.7676C8.17839 20.5169 7.74772 20.1432 7.42871 19.6465C7.11426 19.1497 6.95703 18.5277 6.95703 17.7803V11.0469H8.2627V17.7803C8.2627 18.2998 8.3584 18.7282 8.5498 19.0654C8.74121 19.4027 9.00781 19.6533 9.34961 19.8174C9.69596 19.9814 10.097 20.0635 10.5527 20.0635C11.013 20.0635 11.4141 19.9814 11.7559 19.8174C12.1022 19.6533 12.3711 19.4027 12.5625 19.0654C12.7539 18.7282 12.8496 18.2998 12.8496 17.7803V11.0469ZM23.8896 11.0469V21H22.5635L17.5527 13.3232V21H16.2334V11.0469H17.5527L22.584 18.7441V11.0469H23.8896Z" fill="#E2E6FF"/>
</svg>
