<svg width="315" height="180" viewBox="0 0 315 180" fill="none" xmlns="http://www.w3.org/2000/svg">
<g filter="url(#filter0_b_15_2846)">
<rect x="0.927734" y="0.662109" width="313.144" height="178.439" rx="10" fill="#252734"/>
</g>
<path opacity="0.5" d="M99.8582 157.428V167.381H99.0242V157.428H99.8582ZM103.269 157.428V158.152H95.6199V157.428H103.269ZM105.607 159.984V167.381H104.794V159.984H105.607ZM104.65 157.845C104.65 157.69 104.698 157.56 104.794 157.455C104.894 157.346 105.031 157.291 105.204 157.291C105.377 157.291 105.514 157.346 105.614 157.455C105.719 157.56 105.771 157.69 105.771 157.845C105.771 157.995 105.719 158.125 105.614 158.234C105.514 158.339 105.377 158.392 105.204 158.392C105.031 158.392 104.894 158.339 104.794 158.234C104.698 158.125 104.65 157.995 104.65 157.845ZM108.615 161.516V167.381H107.795V159.984H108.581L108.615 161.516ZM108.465 163.225L108.068 163.02C108.095 162.582 108.177 162.172 108.314 161.789C108.455 161.406 108.651 161.069 108.902 160.777C109.153 160.486 109.454 160.258 109.804 160.094C110.155 159.93 110.554 159.848 111.001 159.848C111.361 159.848 111.687 159.898 111.978 159.998C112.274 160.094 112.525 160.246 112.73 160.456C112.94 160.661 113.102 160.93 113.216 161.263C113.33 161.595 113.386 161.994 113.386 162.459V167.381H112.573V162.486C112.573 161.994 112.496 161.609 112.341 161.331C112.19 161.053 111.978 160.855 111.705 160.736C111.436 160.618 111.124 160.559 110.768 160.559C110.349 160.559 109.994 160.645 109.702 160.818C109.415 160.987 109.18 161.208 108.998 161.481C108.82 161.75 108.688 162.04 108.601 162.35C108.515 162.655 108.469 162.947 108.465 163.225ZM113.38 162.582L112.833 162.596C112.856 162.236 112.938 161.892 113.079 161.563C113.225 161.235 113.423 160.944 113.674 160.688C113.924 160.429 114.223 160.224 114.569 160.073C114.92 159.923 115.314 159.848 115.752 159.848C116.135 159.848 116.476 159.9 116.777 160.005C117.078 160.105 117.331 160.267 117.536 160.49C117.746 160.709 117.905 160.989 118.014 161.331C118.124 161.673 118.178 162.083 118.178 162.562V167.381H117.358V162.555C117.358 162.031 117.281 161.625 117.126 161.338C116.975 161.046 116.766 160.843 116.497 160.729C116.228 160.616 115.913 160.559 115.553 160.559C115.198 160.563 114.886 160.629 114.617 160.757C114.348 160.88 114.122 161.044 113.94 161.249C113.762 161.45 113.626 161.666 113.53 161.898C113.439 162.131 113.389 162.359 113.38 162.582ZM123.114 167.518C122.631 167.518 122.187 167.429 121.781 167.251C121.38 167.073 121.029 166.823 120.728 166.499C120.432 166.175 120.202 165.793 120.038 165.351C119.878 164.904 119.799 164.416 119.799 163.888V163.594C119.799 163.024 119.883 162.509 120.052 162.049C120.22 161.589 120.453 161.194 120.749 160.866C121.045 160.538 121.382 160.287 121.76 160.114C122.143 159.937 122.544 159.848 122.964 159.848C123.433 159.848 123.85 159.932 124.215 160.101C124.579 160.265 124.885 160.499 125.131 160.805C125.381 161.105 125.57 161.463 125.698 161.878C125.826 162.288 125.889 162.742 125.889 163.238V163.737H120.291V163.04H125.076V162.944C125.067 162.53 124.983 162.142 124.823 161.782C124.668 161.418 124.436 161.121 124.126 160.894C123.816 160.666 123.428 160.552 122.964 160.552C122.617 160.552 122.298 160.625 122.007 160.771C121.719 160.916 121.471 161.126 121.261 161.399C121.056 161.668 120.897 161.99 120.783 162.363C120.674 162.732 120.619 163.143 120.619 163.594V163.888C120.619 164.298 120.678 164.681 120.797 165.036C120.92 165.387 121.093 165.697 121.316 165.966C121.544 166.235 121.813 166.444 122.123 166.595C122.433 166.745 122.774 166.82 123.148 166.82C123.586 166.82 123.973 166.741 124.31 166.581C124.648 166.417 124.951 166.16 125.219 165.809L125.732 166.205C125.573 166.442 125.372 166.661 125.131 166.861C124.894 167.062 124.609 167.221 124.276 167.34C123.943 167.458 123.556 167.518 123.114 167.518ZM131.932 165.494C131.932 165.294 131.882 165.095 131.782 164.899C131.682 164.703 131.488 164.523 131.201 164.359C130.918 164.195 130.501 164.056 129.95 163.942C129.54 163.851 129.173 163.749 128.849 163.635C128.53 163.521 128.261 163.384 128.043 163.225C127.824 163.065 127.658 162.874 127.544 162.65C127.43 162.427 127.373 162.163 127.373 161.857C127.373 161.584 127.432 161.326 127.551 161.085C127.674 160.839 127.847 160.625 128.07 160.442C128.298 160.256 128.571 160.11 128.89 160.005C129.214 159.9 129.576 159.848 129.977 159.848C130.547 159.848 131.035 159.946 131.44 160.142C131.85 160.333 132.163 160.595 132.377 160.928C132.595 161.26 132.705 161.636 132.705 162.056H131.891C131.891 161.8 131.816 161.559 131.666 161.331C131.52 161.103 131.303 160.916 131.016 160.771C130.734 160.625 130.387 160.552 129.977 160.552C129.553 160.552 129.209 160.616 128.945 160.743C128.681 160.871 128.487 161.033 128.364 161.229C128.246 161.424 128.186 161.627 128.186 161.837C128.186 162.001 128.211 162.151 128.261 162.288C128.316 162.42 128.412 162.543 128.549 162.657C128.69 162.771 128.89 162.878 129.15 162.979C129.41 163.079 129.747 163.177 130.162 163.272C130.759 163.405 131.247 163.566 131.625 163.758C132.008 163.945 132.29 164.177 132.472 164.455C132.655 164.729 132.746 165.061 132.746 165.453C132.746 165.758 132.682 166.039 132.554 166.294C132.427 166.545 132.242 166.761 132.001 166.943C131.764 167.126 131.477 167.267 131.139 167.367C130.807 167.467 130.433 167.518 130.018 167.518C129.394 167.518 128.865 167.415 128.432 167.21C128.004 167 127.678 166.727 127.455 166.39C127.236 166.048 127.127 165.686 127.127 165.303H127.94C127.968 165.686 128.088 165.989 128.302 166.212C128.517 166.431 128.779 166.586 129.089 166.677C129.403 166.768 129.713 166.813 130.018 166.813C130.438 166.813 130.788 166.752 131.071 166.629C131.354 166.506 131.568 166.344 131.714 166.144C131.859 165.943 131.932 165.727 131.932 165.494ZM138.926 159.984V167.381H138.112V159.984H138.926ZM137.969 157.845C137.969 157.69 138.016 157.56 138.112 157.455C138.212 157.346 138.349 157.291 138.522 157.291C138.695 157.291 138.832 157.346 138.932 157.455C139.037 157.56 139.09 157.69 139.09 157.845C139.09 157.995 139.037 158.125 138.932 158.234C138.832 158.339 138.695 158.392 138.522 158.392C138.349 158.392 138.212 158.339 138.112 158.234C138.016 158.125 137.969 157.995 137.969 157.845ZM145.591 165.494C145.591 165.294 145.54 165.095 145.44 164.899C145.34 164.703 145.146 164.523 144.859 164.359C144.577 164.195 144.16 164.056 143.608 163.942C143.198 163.851 142.831 163.749 142.508 163.635C142.189 163.521 141.92 163.384 141.701 163.225C141.482 163.065 141.316 162.874 141.202 162.65C141.088 162.427 141.031 162.163 141.031 161.857C141.031 161.584 141.09 161.326 141.209 161.085C141.332 160.839 141.505 160.625 141.728 160.442C141.956 160.256 142.23 160.11 142.549 160.005C142.872 159.9 143.234 159.848 143.635 159.848C144.205 159.848 144.693 159.946 145.098 160.142C145.509 160.333 145.821 160.595 146.035 160.928C146.254 161.26 146.363 161.636 146.363 162.056H145.55C145.55 161.8 145.474 161.559 145.324 161.331C145.178 161.103 144.962 160.916 144.675 160.771C144.392 160.625 144.046 160.552 143.635 160.552C143.212 160.552 142.868 160.616 142.603 160.743C142.339 160.871 142.145 161.033 142.022 161.229C141.904 161.424 141.844 161.627 141.844 161.837C141.844 162.001 141.87 162.151 141.92 162.288C141.974 162.42 142.07 162.543 142.207 162.657C142.348 162.771 142.549 162.878 142.808 162.979C143.068 163.079 143.405 163.177 143.82 163.272C144.417 163.405 144.905 163.566 145.283 163.758C145.666 163.945 145.948 164.177 146.131 164.455C146.313 164.729 146.404 165.061 146.404 165.453C146.404 165.758 146.34 166.039 146.213 166.294C146.085 166.545 145.9 166.761 145.659 166.943C145.422 167.126 145.135 167.267 144.798 167.367C144.465 167.467 144.091 167.518 143.677 167.518C143.052 167.518 142.524 167.415 142.091 167.21C141.662 167 141.336 166.727 141.113 166.39C140.894 166.048 140.785 165.686 140.785 165.303H141.598C141.626 165.686 141.747 165.989 141.961 166.212C142.175 166.431 142.437 166.586 142.747 166.677C143.061 166.768 143.371 166.813 143.677 166.813C144.096 166.813 144.447 166.752 144.729 166.629C145.012 166.506 145.226 166.344 145.372 166.144C145.518 165.943 145.591 165.727 145.591 165.494ZM152.488 161.208V167.381H151.675V159.984H152.468L152.488 161.208ZM155.106 159.93L155.086 160.682C154.995 160.668 154.906 160.657 154.819 160.647C154.733 160.638 154.639 160.634 154.539 160.634C154.183 160.634 153.871 160.7 153.602 160.832C153.338 160.96 153.115 161.14 152.932 161.372C152.75 161.6 152.611 161.869 152.515 162.179C152.42 162.484 152.365 162.812 152.351 163.163L152.051 163.279C152.051 162.796 152.101 162.347 152.201 161.933C152.301 161.518 152.454 161.156 152.659 160.846C152.869 160.531 153.131 160.287 153.445 160.114C153.764 159.937 154.138 159.848 154.566 159.848C154.671 159.848 154.774 159.857 154.874 159.875C154.979 159.889 155.056 159.907 155.106 159.93ZM161.129 165.672V159.984H161.949V167.381H161.163L161.129 165.672ZM161.279 164.305L161.703 164.291C161.703 164.756 161.648 165.184 161.539 165.576C161.429 165.968 161.259 166.31 161.026 166.602C160.794 166.893 160.493 167.119 160.124 167.278C159.755 167.438 159.31 167.518 158.791 167.518C158.431 167.518 158.1 167.467 157.8 167.367C157.503 167.262 157.248 167.098 157.034 166.875C156.82 166.652 156.653 166.362 156.535 166.007C156.421 165.651 156.364 165.221 156.364 164.715V159.984H157.177V164.729C157.177 165.125 157.221 165.455 157.307 165.72C157.399 165.984 157.522 166.196 157.677 166.355C157.836 166.515 158.018 166.629 158.223 166.697C158.428 166.766 158.649 166.8 158.886 166.8C159.488 166.8 159.962 166.684 160.308 166.451C160.659 166.219 160.908 165.913 161.053 165.535C161.204 165.152 161.279 164.742 161.279 164.305ZM164.902 161.563V167.381H164.089V159.984H164.868L164.902 161.563ZM164.718 163.225L164.355 163.02C164.383 162.582 164.471 162.172 164.622 161.789C164.772 161.406 164.975 161.069 165.23 160.777C165.49 160.486 165.793 160.258 166.139 160.094C166.49 159.93 166.878 159.848 167.302 159.848C167.671 159.848 168.001 159.898 168.293 159.998C168.584 160.098 168.833 160.258 169.038 160.477C169.243 160.695 169.398 160.976 169.503 161.317C169.612 161.659 169.667 162.076 169.667 162.568V167.381H168.846V162.562C168.846 162.051 168.776 161.652 168.635 161.365C168.493 161.074 168.293 160.866 168.033 160.743C167.773 160.62 167.466 160.559 167.11 160.559C166.718 160.559 166.374 160.645 166.078 160.818C165.786 160.987 165.54 161.208 165.34 161.481C165.144 161.75 164.993 162.04 164.888 162.35C164.784 162.655 164.727 162.947 164.718 163.225ZM172.599 161.563V167.381H171.786V159.984H172.565L172.599 161.563ZM172.415 163.225L172.052 163.02C172.08 162.582 172.169 162.172 172.319 161.789C172.469 161.406 172.672 161.069 172.927 160.777C173.187 160.486 173.49 160.258 173.837 160.094C174.188 159.93 174.575 159.848 174.999 159.848C175.368 159.848 175.698 159.898 175.99 159.998C176.282 160.098 176.53 160.258 176.735 160.477C176.94 160.695 177.095 160.976 177.2 161.317C177.309 161.659 177.364 162.076 177.364 162.568V167.381H176.544V162.562C176.544 162.051 176.473 161.652 176.332 161.365C176.191 161.074 175.99 160.866 175.73 160.743C175.47 160.62 175.163 160.559 174.807 160.559C174.415 160.559 174.071 160.645 173.775 160.818C173.483 160.987 173.237 161.208 173.037 161.481C172.841 161.75 172.691 162.04 172.586 162.35C172.481 162.655 172.424 162.947 172.415 163.225ZM180.392 159.984V167.381H179.579V159.984H180.392ZM179.435 157.845C179.435 157.69 179.483 157.56 179.579 157.455C179.679 157.346 179.816 157.291 179.989 157.291C180.162 157.291 180.299 157.346 180.399 157.455C180.504 157.56 180.556 157.69 180.556 157.845C180.556 157.995 180.504 158.125 180.399 158.234C180.299 158.339 180.162 158.392 179.989 158.392C179.816 158.392 179.679 158.339 179.579 158.234C179.483 158.125 179.435 157.995 179.435 157.845ZM183.441 161.563V167.381H182.628V159.984H183.407L183.441 161.563ZM183.257 163.225L182.894 163.02C182.922 162.582 183.01 162.172 183.161 161.789C183.311 161.406 183.514 161.069 183.769 160.777C184.029 160.486 184.332 160.258 184.678 160.094C185.029 159.93 185.417 159.848 185.841 159.848C186.21 159.848 186.54 159.898 186.832 159.998C187.123 160.098 187.372 160.258 187.577 160.477C187.782 160.695 187.937 160.976 188.042 161.317C188.151 161.659 188.206 162.076 188.206 162.568V167.381H187.385V162.562C187.385 162.051 187.315 161.652 187.174 161.365C187.032 161.074 186.832 160.866 186.572 160.743C186.312 160.62 186.005 160.559 185.649 160.559C185.257 160.559 184.913 160.645 184.617 160.818C184.325 160.987 184.079 161.208 183.879 161.481C183.683 161.75 183.532 162.04 183.427 162.35C183.323 162.655 183.266 162.947 183.257 163.225ZM195.192 159.984H195.951V167.251C195.951 167.894 195.828 168.445 195.582 168.905C195.34 169.366 194.996 169.719 194.55 169.965C194.108 170.211 193.586 170.334 192.984 170.334C192.679 170.334 192.364 170.286 192.041 170.19C191.722 170.099 191.419 169.958 191.132 169.767C190.849 169.58 190.608 169.347 190.407 169.069L190.865 168.57C191.166 168.935 191.487 169.201 191.829 169.37C192.171 169.543 192.54 169.63 192.936 169.63C193.406 169.63 193.802 169.536 194.126 169.35C194.454 169.163 194.702 168.894 194.871 168.543C195.044 168.192 195.131 167.771 195.131 167.278V161.611L195.192 159.984ZM189.997 163.758V163.614C189.997 163.04 190.061 162.523 190.188 162.062C190.32 161.598 190.51 161.201 190.756 160.873C191.002 160.54 191.3 160.287 191.651 160.114C192.007 159.937 192.408 159.848 192.854 159.848C193.283 159.848 193.663 159.918 193.996 160.06C194.329 160.201 194.616 160.404 194.857 160.668C195.099 160.932 195.292 161.247 195.438 161.611C195.589 161.976 195.698 162.382 195.766 162.828V164.653C195.712 165.073 195.611 165.458 195.466 165.809C195.32 166.155 195.126 166.458 194.885 166.718C194.643 166.973 194.351 167.171 194.01 167.312C193.672 167.449 193.283 167.518 192.841 167.518C192.399 167.518 192.002 167.426 191.651 167.244C191.3 167.062 191.002 166.804 190.756 166.472C190.51 166.134 190.32 165.736 190.188 165.275C190.061 164.815 189.997 164.309 189.997 163.758ZM190.817 163.614V163.758C190.817 164.191 190.86 164.592 190.947 164.961C191.034 165.33 191.166 165.651 191.344 165.925C191.521 166.198 191.747 166.412 192.02 166.567C192.294 166.722 192.615 166.8 192.984 166.8C193.454 166.8 193.848 166.711 194.167 166.533C194.486 166.351 194.739 166.112 194.926 165.815C195.112 165.515 195.249 165.187 195.336 164.831V162.705C195.286 162.464 195.208 162.217 195.103 161.967C195.003 161.716 194.862 161.486 194.679 161.276C194.502 161.062 194.274 160.891 193.996 160.764C193.722 160.632 193.39 160.565 192.998 160.565C192.624 160.565 192.298 160.643 192.02 160.798C191.747 160.953 191.521 161.169 191.344 161.447C191.166 161.721 191.034 162.042 190.947 162.411C190.86 162.78 190.817 163.181 190.817 163.614ZM201.057 163.799V163.573C201.057 163.035 201.135 162.539 201.29 162.083C201.445 161.627 201.666 161.233 201.953 160.9C202.245 160.568 202.593 160.31 202.999 160.128C203.404 159.941 203.856 159.848 204.352 159.848C204.854 159.848 205.307 159.941 205.713 160.128C206.118 160.31 206.467 160.568 206.759 160.9C207.05 161.233 207.274 161.627 207.428 162.083C207.583 162.539 207.661 163.035 207.661 163.573V163.799C207.661 164.337 207.583 164.833 207.428 165.289C207.274 165.74 207.05 166.132 206.759 166.465C206.471 166.798 206.125 167.057 205.719 167.244C205.314 167.426 204.863 167.518 204.366 167.518C203.865 167.518 203.411 167.426 203.006 167.244C202.6 167.057 202.251 166.798 201.96 166.465C201.668 166.132 201.445 165.74 201.29 165.289C201.135 164.833 201.057 164.337 201.057 163.799ZM201.871 163.573V163.799C201.871 164.204 201.926 164.59 202.035 164.954C202.144 165.314 202.304 165.635 202.513 165.918C202.723 166.196 202.983 166.415 203.293 166.574C203.603 166.734 203.96 166.813 204.366 166.813C204.767 166.813 205.12 166.734 205.426 166.574C205.735 166.415 205.995 166.196 206.205 165.918C206.414 165.635 206.572 165.314 206.677 164.954C206.786 164.59 206.841 164.204 206.841 163.799V163.573C206.841 163.172 206.786 162.792 206.677 162.432C206.572 162.072 206.412 161.75 206.198 161.468C205.988 161.185 205.729 160.962 205.419 160.798C205.109 160.634 204.753 160.552 204.352 160.552C203.951 160.552 203.596 160.634 203.286 160.798C202.981 160.962 202.721 161.185 202.507 161.468C202.297 161.75 202.137 162.072 202.028 162.432C201.923 162.792 201.871 163.172 201.871 163.573ZM214.094 165.672V159.984H214.914V167.381H214.128L214.094 165.672ZM214.244 164.305L214.668 164.291C214.668 164.756 214.613 165.184 214.504 165.576C214.394 165.968 214.223 166.31 213.991 166.602C213.759 166.893 213.458 167.119 213.089 167.278C212.719 167.438 212.275 167.518 211.756 167.518C211.396 167.518 211.065 167.467 210.764 167.367C210.468 167.262 210.213 167.098 209.999 166.875C209.785 166.652 209.618 166.362 209.5 166.007C209.386 165.651 209.329 165.221 209.329 164.715V159.984H210.142V164.729C210.142 165.125 210.186 165.455 210.272 165.72C210.363 165.984 210.486 166.196 210.641 166.355C210.801 166.515 210.983 166.629 211.188 166.697C211.393 166.766 211.614 166.8 211.851 166.8C212.453 166.8 212.927 166.684 213.273 166.451C213.624 166.219 213.872 165.913 214.018 165.535C214.169 165.152 214.244 164.742 214.244 164.305ZM219.849 159.984V160.654H216.144V159.984H219.849ZM217.505 158.084H218.318V165.583C218.318 165.925 218.364 166.182 218.455 166.355C218.546 166.529 218.664 166.645 218.81 166.704C218.956 166.763 219.113 166.793 219.282 166.793C219.405 166.793 219.524 166.786 219.637 166.772C219.751 166.754 219.854 166.736 219.945 166.718L219.979 167.408C219.879 167.44 219.749 167.465 219.59 167.483C219.43 167.506 219.271 167.518 219.111 167.518C218.797 167.518 218.519 167.461 218.277 167.347C218.036 167.228 217.846 167.028 217.71 166.745C217.573 166.458 217.505 166.068 217.505 165.576V158.084Z" fill="#E2E6FF"/>
<rect x="70" y="96" width="37.8866" height="53.3001" rx="2" fill="white" fill-opacity="0.1"/>
<rect x="70.2" y="96.2" width="37.4866" height="52.9001" rx="1.8" stroke="white" stroke-opacity="0.35" stroke-width="0.4"/>
<rect x="165.876" y="96" width="37.8866" height="53.3001" rx="2" fill="white" fill-opacity="0.1"/>
<rect x="166.076" y="96.2" width="37.4866" height="52.9001" rx="1.8" stroke="white" stroke-opacity="0.35" stroke-width="0.4"/>
<rect x="109.433" y="96" width="37.8866" height="53.3001" rx="2" fill="white" fill-opacity="0.1"/>
<rect x="109.633" y="96.2" width="37.4866" height="52.9001" rx="1.8" stroke="white" stroke-opacity="0.35" stroke-width="0.4"/>
<rect x="205.309" y="96.4453" width="37.8866" height="53.3001" rx="2" fill="#2D2F3D"/>
<path d="M241.196 96.4453H207.309C206.205 96.4453 205.309 97.3407 205.309 98.4453V126.401C205.309 126.514 205.3 126.628 205.28 126.739L203.391 137.751C203.181 138.973 204.122 140.09 205.362 140.09H243.462C244.724 140.09 245.671 138.935 245.423 137.697L243.235 126.766C243.209 126.637 243.196 126.505 243.196 126.373V98.4453C243.196 97.3407 242.3 96.4453 241.196 96.4453Z" fill="#393B45"/>
<path d="M207.309 96.6453H241.196C242.19 96.6453 242.996 97.4512 242.996 98.4453V126.373C242.996 126.518 243.01 126.663 243.039 126.805L245.227 137.736C245.45 138.85 244.598 139.89 243.462 139.89H205.362C204.246 139.89 203.399 138.885 203.588 137.785L205.478 126.773C205.499 126.65 205.509 126.526 205.509 126.401V98.4453C205.509 97.4512 206.315 96.6453 207.309 96.6453Z" stroke="white" stroke-opacity="0.35" stroke-width="0.4"/>
<path d="M205.024 128.232L203.391 137.75C203.181 138.972 204.122 140.088 205.362 140.088H243.462C244.724 140.088 245.671 138.934 245.423 137.696L243.518 128.178C243.331 127.243 242.51 126.57 241.557 126.57H206.995C206.021 126.57 205.189 127.272 205.024 128.232Z" fill="url(#paint0_linear_15_2846)"/>
<g filter="url(#filter1_d_15_2846)">
<path d="M90.5798 137C90.2864 137 90.0464 136.907 89.8598 136.72C89.6998 136.533 89.6198 136.307 89.6198 136.04V115.32L83.5398 120C83.2998 120.16 83.0598 120.227 82.8198 120.2C82.5798 120.147 82.3664 120 82.1798 119.76L80.4998 117.6C80.3398 117.36 80.2731 117.107 80.2998 116.84C80.3531 116.573 80.4998 116.36 80.7398 116.2L89.6998 109.28C89.8598 109.147 90.0198 109.067 90.1798 109.04C90.3398 109.013 90.5131 109 90.6998 109H94.2198C94.4864 109 94.7131 109.093 94.8998 109.28C95.0864 109.467 95.1798 109.693 95.1798 109.96V136.04C95.1798 136.307 95.0864 136.533 94.8998 136.72C94.7131 136.907 94.4864 137 94.2198 137H90.5798Z" fill="#E2E6FF"/>
</g>
<g filter="url(#filter2_d_15_2846)">
<path d="M185.218 137.4C183.324 137.4 181.711 137.12 180.378 136.56C179.044 136 177.951 135.227 177.098 134.24C176.244 133.253 175.604 132.12 175.178 130.84C174.751 129.533 174.498 128.147 174.418 126.68C174.391 125.96 174.364 125.173 174.338 124.32C174.338 123.44 174.338 122.56 174.338 121.68C174.364 120.8 174.391 119.987 174.418 119.24C174.471 117.773 174.724 116.4 175.178 115.12C175.631 113.813 176.284 112.68 177.138 111.72C178.018 110.76 179.124 110 180.458 109.44C181.791 108.88 183.378 108.6 185.218 108.6C187.084 108.6 188.684 108.88 190.018 109.44C191.351 110 192.444 110.76 193.298 111.72C194.178 112.68 194.831 113.813 195.258 115.12C195.711 116.4 195.964 117.773 196.018 119.24C196.071 119.987 196.098 120.8 196.098 121.68C196.098 122.56 196.098 123.44 196.098 124.32C196.098 125.173 196.071 125.96 196.018 126.68C195.964 128.147 195.724 129.533 195.298 130.84C194.871 132.12 194.231 133.253 193.378 134.24C192.524 135.227 191.418 136 190.058 136.56C188.724 137.12 187.111 137.4 185.218 137.4ZM185.218 132.8C186.951 132.8 188.218 132.24 189.018 131.12C189.844 129.973 190.271 128.427 190.298 126.48C190.351 125.707 190.378 124.933 190.378 124.16C190.378 123.36 190.378 122.56 190.378 121.76C190.378 120.96 190.351 120.2 190.298 119.48C190.271 117.587 189.844 116.067 189.018 114.92C188.218 113.747 186.951 113.16 185.218 113.16C183.511 113.16 182.244 113.747 181.418 114.92C180.618 116.067 180.191 117.587 180.138 119.48C180.138 120.2 180.124 120.96 180.098 121.76C180.098 122.56 180.098 123.36 180.098 124.16C180.124 124.933 180.138 125.707 180.138 126.48C180.191 128.427 180.631 129.973 181.458 131.12C182.284 132.24 183.538 132.8 185.218 132.8Z" fill="#E2E6FF"/>
</g>
<g filter="url(#filter3_d_15_2846)">
<path d="M118.949 137C118.683 137 118.456 136.907 118.269 136.72C118.083 136.533 117.989 136.307 117.989 136.04V134C117.989 133.76 118.043 133.48 118.149 133.16C118.283 132.813 118.563 132.467 118.989 132.12L125.309 125.84C127.069 124.453 128.483 123.28 129.549 122.32C130.643 121.333 131.429 120.44 131.909 119.64C132.416 118.813 132.669 118 132.669 117.2C132.669 116 132.336 115.027 131.669 114.28C131.029 113.533 130.003 113.16 128.589 113.16C127.656 113.16 126.869 113.36 126.229 113.76C125.589 114.133 125.083 114.64 124.709 115.28C124.363 115.92 124.123 116.627 123.989 117.4C123.936 117.747 123.789 117.987 123.549 118.12C123.309 118.253 123.069 118.32 122.829 118.32H119.269C119.029 118.32 118.829 118.24 118.669 118.08C118.509 117.92 118.429 117.733 118.429 117.52C118.456 116.373 118.696 115.267 119.149 114.2C119.603 113.107 120.256 112.147 121.109 111.32C121.989 110.467 123.056 109.787 124.309 109.28C125.563 108.773 126.976 108.52 128.549 108.52C130.763 108.52 132.589 108.893 134.029 109.64C135.496 110.387 136.589 111.4 137.309 112.68C138.056 113.96 138.429 115.4 138.429 117C138.429 118.253 138.189 119.413 137.709 120.48C137.229 121.52 136.536 122.533 135.629 123.52C134.723 124.48 133.629 125.467 132.349 126.48L126.669 132.24H138.069C138.363 132.24 138.589 132.333 138.749 132.52C138.936 132.68 139.029 132.907 139.029 133.2V136.04C139.029 136.307 138.936 136.533 138.749 136.72C138.589 136.907 138.363 137 138.069 137H118.949Z" fill="#E2E6FF"/>
</g>
<g filter="url(#filter4_d_15_2846)">
<path d="M223.164 136.614C220.666 136.614 218.513 136.193 216.707 135.351C214.931 134.508 213.561 133.396 212.598 132.012C211.665 130.629 211.168 129.14 211.108 127.546V127.456C211.108 127.216 211.198 127.02 211.379 126.87C211.56 126.719 211.785 126.644 212.056 126.644H216.256C216.948 126.644 217.4 126.945 217.61 127.546C218.032 128.87 218.724 129.847 219.687 130.479C220.681 131.11 221.84 131.426 223.164 131.426C224.85 131.426 226.25 130.915 227.363 129.892C228.507 128.87 229.079 127.441 229.079 125.607C228.269 124.133 229.079 125.413 228.269 124.451C227.155 123.428 225.755 122.917 224.07 122.917C223.166 122.917 222.429 123.037 221.857 123.278C221.285 123.518 220.728 123.849 220.186 124.27C219.825 124.541 219.539 124.736 219.328 124.857C219.148 124.947 218.922 124.992 218.651 124.992H214.497C214.226 124.992 213.985 124.902 213.775 124.721C213.594 124.511 213.504 124.27 213.504 123.999L215.084 108.572C215.114 108.211 215.234 107.925 215.445 107.714C215.686 107.474 215.987 107.354 216.348 107.354H233.326C233.627 107.354 233.883 107.459 234.094 107.669C234.304 107.88 234.41 108.135 234.41 108.436V111.459C234.41 111.759 234.304 112.015 234.094 112.225C233.883 112.436 233.627 112.541 233.326 112.541H220.277L219.554 119.894C221.029 118.872 223.001 118.361 225.469 118.361C227.426 118.361 229.232 118.782 230.888 119.624C232.573 120.436 233.913 121.624 234.906 123.187C235.464 124.254 235.464 124.254 235.491 125.742C235.491 127.937 234.979 129.862 233.956 131.516C232.932 133.14 231.487 134.403 229.621 135.305C227.785 136.178 225.633 136.614 223.164 136.614Z" fill="#E2E6FF"/>
</g>
<ellipse cx="156.598" cy="120.393" rx="1.54639" ry="1.54493" fill="#3B3D48"/>
<path d="M243.196 126.959H205.309V115.758H243.196V126.959Z" fill="url(#paint1_linear_15_2846)"/>
<ellipse cx="156.598" cy="126.57" rx="1.54639" ry="1.54493" fill="#3B3D48"/>
<path d="M80.7756 50.6816V51.3173H81.0165L81.1969 51.1576L80.7756 50.6816ZM69.0881 50.6816L68.4525 50.6878L68.4587 51.3173H69.0881V50.6816ZM69.0256 44.2441V43.6085H68.3838L68.39 44.2503L69.0256 44.2441ZM83.0881 43.5879L83.3223 44.1789L83.3318 44.1749L83.0881 43.5879ZM85.5569 41.6191L85.0222 41.2754L85.0201 41.2787L85.5569 41.6191ZM85.5881 34.9941L85.0419 35.3193L85.0477 35.3287L85.5881 34.9941ZM83.1194 33.0879L82.9049 33.6862L82.9084 33.6875L83.1194 33.0879ZM72.3381 32.4941V31.8585H71.7025V32.4941H72.3381ZM72.3381 70.6504V71.286H72.9738V70.6504H72.3381ZM62.9631 70.6504H62.3275V71.286H62.9631V70.6504ZM62.9631 25.1504V24.5148H62.3275V25.1504H62.9631ZM85.9319 25.9004L85.7835 26.5185L85.7849 26.5188L85.9319 25.9004ZM91.2756 28.1816L90.9111 28.7024L91.2756 28.1816ZM94.6194 32.0566L94.0493 32.3379L94.0509 32.3409L94.6194 32.0566ZM94.4944 42.7441L93.9349 42.4423L93.9319 42.4481L94.4944 42.7441ZM90.5256 46.6191L90.2186 46.0626L90.2159 46.0641L90.5256 46.6191ZM83.4944 48.2754L83.4715 47.6402L83.2438 47.6484L83.0731 47.7994L83.4944 48.2754ZM66.5256 70.6504L65.9571 70.3661L65.4972 71.286H66.5256V70.6504ZM70.1819 63.3379V62.7023H69.789L69.6134 63.0536L70.1819 63.3379ZM84.4006 62.5566L84.6849 63.1252L84.6939 63.1206L84.4006 62.5566ZM86.7756 53.7441L86.1952 54.0035L86.2 54.0136L86.7756 53.7441ZM84.6506 51.4941L84.3429 52.0504L84.3521 52.0553L84.6506 51.4941ZM71.7444 50.6816L71.1088 50.6755L71.1026 51.3173H71.7444V50.6816ZM71.8069 44.2441V43.6085H71.1774L71.1713 44.238L71.8069 44.2441ZM83.0569 44.2441L83.5407 43.832L83.3504 43.6085H83.0569V44.2441ZM85.2131 46.7754L84.7293 47.1876L84.9234 47.4154L85.2227 47.4109L85.2131 46.7754ZM91.9006 48.2441L91.5716 48.7881L91.5795 48.7927L91.9006 48.2441ZM95.6194 52.1504L95.0464 52.4257L95.0494 52.4317L95.6194 52.1504ZM94.9006 64.6816L95.4355 65.0251L95.4371 65.0225L94.9006 64.6816ZM89.3069 69.1504L89.0674 68.5616L89.0656 68.5623L89.3069 69.1504ZM80.7756 50.046H69.0881V51.3173H80.7756V50.046ZM69.7237 50.6755L69.6612 44.238L68.39 44.2503L68.4525 50.6878L69.7237 50.6755ZM69.0256 44.8798H78.8381V43.6085H69.0256V44.8798ZM78.8381 44.8798C80.6141 44.8798 82.1178 44.6561 83.3223 44.1788L82.854 42.997C81.8501 43.3947 80.5205 43.6085 78.8381 43.6085V44.8798ZM83.3318 44.1749C84.5342 43.6758 85.47 42.9431 86.0937 41.9595L85.0201 41.2787C84.5605 42.0035 83.8504 42.5833 82.8444 43.0008L83.3318 44.1749ZM86.0916 41.9629C86.7322 40.9663 87.0363 39.7787 87.0363 38.4316H85.765C85.765 39.5846 85.5065 40.522 85.0222 41.2754L86.0916 41.9629ZM87.0363 38.4316C87.0363 36.9396 86.7517 35.6661 86.1286 34.6596L85.0477 35.3287C85.5079 36.0721 85.765 37.0904 85.765 38.4316H87.0363ZM86.1343 34.669C85.5247 33.6448 84.5705 32.9247 83.3304 32.4883L82.9084 33.6875C83.9182 34.0428 84.6099 34.5934 85.0419 35.3193L86.1343 34.669ZM83.3339 32.4896C82.1359 32.0601 80.6288 31.8585 78.8381 31.8585V33.1298C80.5474 33.1298 81.8946 33.324 82.9049 33.6862L83.3339 32.4896ZM78.8381 31.8585H72.3381V33.1298H78.8381V31.8585ZM71.7025 32.4941V70.6504H72.9738V32.4941H71.7025ZM72.3381 70.0148H62.9631V71.286H72.3381V70.0148ZM63.5988 70.6504V25.1504H62.3275V70.6504H63.5988ZM62.9631 25.786H78.8381V24.5148H62.9631V25.786ZM78.8381 25.786C81.4452 25.786 83.7586 26.0325 85.7835 26.5185L86.0802 25.2823C83.9385 24.7683 81.5228 24.5148 78.8381 24.5148V25.786ZM85.7849 26.5188C87.8274 27.0041 89.531 27.7362 90.9111 28.7024L91.6401 27.6609C90.1036 26.5854 88.2447 25.7967 86.0788 25.282L85.7849 26.5188ZM90.9111 28.7024C92.2839 29.6633 93.3269 30.8733 94.0494 32.3379L95.1894 31.7754C94.3702 30.1149 93.184 28.7416 91.6401 27.6609L90.9111 28.7024ZM94.0509 32.3409C94.7685 33.7761 95.14 35.5078 95.14 37.5566H96.4113C96.4113 35.3555 96.012 33.4205 95.1879 31.7724L94.0509 32.3409ZM95.14 37.5566C95.14 39.3309 94.737 40.9557 93.935 42.4424L95.0538 43.0459C95.9601 41.3659 96.4113 39.5324 96.4113 37.5566H95.14ZM93.9319 42.4481C93.1651 43.9051 91.9398 45.113 90.2186 46.0626L90.8327 47.1757C92.7365 46.1253 94.157 44.7499 95.0569 43.0402L93.9319 42.4481ZM90.2159 46.0641C88.5408 46.999 86.3056 47.5382 83.4715 47.6402L83.5172 48.9106C86.4748 48.8042 88.9272 48.2392 90.8354 47.1742L90.2159 46.0641ZM83.0731 47.7994L80.3544 50.2057L81.1969 51.1576L83.9157 48.7514L83.0731 47.7994ZM80.3694 70.0148H66.5256V71.286H80.3694V70.0148ZM67.0942 70.9347L70.7504 63.6222L69.6134 63.0536L65.9571 70.3661L67.0942 70.9347ZM70.1819 63.9735H80.3694V62.7023H70.1819V63.9735ZM80.3694 63.9735C82.0757 63.9735 83.5262 63.7045 84.6849 63.1252L84.1164 61.9881C83.1917 62.4504 81.9547 62.7023 80.3694 62.7023V63.9735ZM84.6939 63.1206C85.8332 62.5281 86.7033 61.7146 87.2711 60.6735L86.1551 60.0648C85.723 60.857 85.0514 61.5018 84.1074 61.9927L84.6939 63.1206ZM87.2711 60.6735C87.8287 59.6513 88.0988 58.492 88.0988 57.2129H86.8275C86.8275 58.3088 86.5976 59.2536 86.1551 60.0648L87.2711 60.6735ZM88.0988 57.2129C88.0988 55.8077 87.8572 54.5555 87.3513 53.4747L86.2 54.0136C86.6107 54.8911 86.8275 55.9515 86.8275 57.2129H88.0988ZM87.356 53.4848C86.8587 52.3718 86.0486 51.5178 84.9491 50.933L84.3521 52.0553C85.211 52.5121 85.8176 53.1581 86.1953 54.0034L87.356 53.4848ZM84.9583 50.938C83.8529 50.3264 82.4436 50.046 80.7756 50.046V51.3173C82.316 51.3173 83.49 51.5785 84.343 52.0503L84.9583 50.938ZM80.7756 50.046H71.7444V51.3173H80.7756V50.046ZM72.38 50.6878L72.4425 44.2503L71.1713 44.238L71.1088 50.6755L72.38 50.6878ZM71.8069 44.8798H83.0569V43.6085H71.8069V44.8798ZM82.573 44.6563L84.7293 47.1876L85.697 46.3632L83.5407 43.832L82.573 44.6563ZM85.2227 47.4109C87.9205 47.3704 90.0195 47.8491 91.5716 48.788L92.2296 47.7003C90.4067 46.5976 88.0475 46.0971 85.2036 46.1398L85.2227 47.4109ZM91.5795 48.7927C93.1913 49.7362 94.3365 50.9483 95.0465 52.4257L96.1923 51.8751C95.3606 50.1442 94.0266 48.7521 92.2217 47.6956L91.5795 48.7927ZM95.0494 52.4317C95.7968 53.9461 96.1713 55.5684 96.1713 57.3066H97.4425C97.4425 55.3783 97.0253 53.563 96.1894 51.8691L95.0494 52.4317ZM96.1713 57.3066C96.1713 60.1305 95.5567 62.4639 94.3642 64.3408L95.4371 65.0225C96.7862 62.8994 97.4425 60.3161 97.4425 57.3066H96.1713ZM94.3658 64.3382C93.1747 66.1932 91.4205 67.6044 89.0674 68.5616L89.5464 69.7392C92.1099 68.6964 94.0849 67.1284 95.4355 65.0251L94.3658 64.3382ZM89.0656 68.5623C86.7257 69.5223 83.8337 70.0148 80.3694 70.0148V71.286C83.9467 71.286 87.013 70.7785 89.5481 69.7384L89.0656 68.5623ZM133.088 63.3379H133.724V62.7023H133.088V63.3379ZM133.088 70.6504V71.286H133.724V70.6504H133.088ZM110.182 70.6504H109.546V71.286H110.182V70.6504ZM110.182 63.3379V62.7023H109.546V63.3379H110.182ZM113.213 25.1504H113.849V24.5148H113.213V25.1504ZM113.213 70.6504V71.286H113.849V70.6504H113.213ZM103.838 70.6504H103.203V71.286H103.838V70.6504ZM103.838 25.1504V24.5148H103.203V25.1504H103.838ZM132.453 63.3379V70.6504H133.724V63.3379H132.453ZM133.088 70.0148H110.182V71.286H133.088V70.0148ZM110.818 70.6504V63.3379H109.546V70.6504H110.818ZM110.182 63.9735H133.088V62.7023H110.182V63.9735ZM112.578 25.1504V70.6504H113.849V25.1504H112.578ZM113.213 70.0148H103.838V71.286H113.213V70.0148ZM104.474 70.6504V25.1504H103.203V70.6504H104.474ZM103.838 25.786H113.213V24.5148H103.838V25.786ZM157.588 32.9316L158.192 33.1298L158.212 33.0689L158.219 33.0052L157.588 32.9316ZM145.213 70.6504V71.286H145.674L145.817 70.8485L145.213 70.6504ZM135.244 70.6504L134.649 70.429L134.33 71.286H135.244V70.6504ZM152.151 25.1504V24.5148H151.709L151.555 24.929L152.151 25.1504ZM158.494 25.1504L159.126 25.2239L159.208 24.5148H158.494V25.1504ZM167.869 70.6504L167.266 70.849L167.409 71.286H167.869V70.6504ZM155.463 32.9316L154.833 33.0127L154.84 33.0727L154.859 33.1302L155.463 32.9316ZM154.463 25.1504V24.5148H153.741L153.833 25.2314L154.463 25.1504ZM160.869 25.1504L161.465 24.9279L161.31 24.5148H160.869V25.1504ZM177.869 70.6504V71.286H178.785L178.465 70.4279L177.869 70.6504ZM167.307 53.7129H167.943V53.0773H167.307V53.7129ZM167.307 61.0566V61.6923H167.943V61.0566H167.307ZM143.276 61.0566H142.64V61.6923H143.276V61.0566ZM143.276 53.7129V53.0773H142.64V53.7129H143.276ZM156.984 32.7335L144.609 70.4522L145.817 70.8485L158.192 33.1298L156.984 32.7335ZM145.213 70.0148H135.244V71.286H145.213V70.0148ZM135.84 70.8718L152.746 25.3718L151.555 24.929L134.649 70.429L135.84 70.8718ZM152.151 25.786H158.494V24.5148H152.151V25.786ZM157.863 25.0769L156.957 32.8581L158.219 33.0052L159.126 25.2239L157.863 25.0769ZM168.473 70.4518L156.067 32.733L154.859 33.1302L167.266 70.849L168.473 70.4518ZM156.094 32.8506L155.094 25.0694L153.833 25.2314L154.833 33.0127L156.094 32.8506ZM154.463 25.786H160.869V24.5148H154.463V25.786ZM160.274 25.3729L177.274 70.8729L178.465 70.4279L161.465 24.9279L160.274 25.3729ZM177.869 70.0148H167.869V71.286H177.869V70.0148ZM166.671 53.7129V61.0566H167.943V53.7129H166.671ZM167.307 60.421H143.276V61.6923H167.307V60.421ZM143.911 61.0566V53.7129H142.64V61.0566H143.911ZM143.276 54.3485H167.307V53.0773H143.276V54.3485ZM207.901 55.5566V54.921H207.307L207.266 55.5134L207.901 55.5566ZM217.244 55.5566L217.879 55.5955L217.92 54.921H217.244V55.5566ZM214.713 63.7129L214.176 63.3735L214.174 63.3769L214.713 63.7129ZM208.494 69.2754L208.21 68.7069L208.208 68.7078L208.494 69.2754ZM191.088 69.7754L190.831 70.3569L190.836 70.3588L191.088 69.7754ZM185.151 65.4004L184.668 65.8141L184.671 65.8171L185.151 65.4004ZM181.463 37.3066L180.86 37.107L180.859 37.1099L181.463 37.3066ZM185.276 30.4004L184.798 29.9807L184.796 29.9837L185.276 30.4004ZM208.588 26.5566L208.291 27.1187L208.293 27.1197L208.588 26.5566ZM214.682 32.2441L214.136 32.5691L214.138 32.5725L214.682 32.2441ZM217.307 40.4941V41.1298H218.005L217.94 40.4343L217.307 40.4941ZM207.932 40.4941L207.297 40.5302L207.331 41.1298H207.932V40.4941ZM206.838 35.8379L206.266 36.1147L206.268 36.1184L206.838 35.8379ZM203.994 32.9316L203.695 33.4926L203.706 33.4983L203.994 32.9316ZM190.182 39.9629L189.561 39.8273L189.56 39.8327L190.182 39.9629ZM190.151 55.7129L189.527 55.8362L189.527 55.8375L190.151 55.7129ZM191.776 60.2129L191.229 60.5373L191.236 60.5481L191.776 60.2129ZM194.651 62.9629L194.35 63.5233L194.362 63.5294L194.651 62.9629ZM206.682 60.1504L206.127 59.8401L206.123 59.8473L206.682 60.1504ZM207.901 56.1923H217.244V54.921H207.901V56.1923ZM216.61 55.5178C216.428 58.4836 215.613 61.0971 214.176 63.3735L215.251 64.0523C216.813 61.5787 217.685 58.7546 217.879 55.5955L216.61 55.5178ZM214.174 63.3769C212.761 65.6457 210.779 67.4224 208.21 68.7069L208.779 69.8439C211.543 68.4617 213.707 66.5301 215.253 64.0489L214.174 63.3769ZM208.208 68.7078C205.671 69.9863 202.587 70.6398 198.932 70.6398V71.911C202.735 71.911 206.026 71.2311 208.78 69.843L208.208 68.7078ZM198.932 70.6398C196.088 70.6398 193.562 70.1525 191.34 69.192L190.836 70.3588C193.24 71.3983 195.942 71.911 198.932 71.911V70.6398ZM191.345 69.1939C189.117 68.2106 187.215 66.8083 185.631 64.9837L184.671 65.8171C186.378 67.7841 188.434 69.2985 190.831 70.3569L191.345 69.1939ZM185.633 64.9867C184.07 63.1635 182.869 60.9496 182.038 58.3329L180.826 58.7179C181.703 61.4762 182.981 63.8456 184.668 65.814L185.633 64.9867ZM182.038 58.3329C181.206 55.7178 180.786 52.7737 180.786 49.4941H179.515C179.515 52.8812 179.949 55.958 180.826 58.7179L182.038 58.3329ZM180.786 49.4941V46.3379H179.515V49.4941H180.786ZM180.786 46.3379C180.786 43.0597 181.217 40.1172 182.068 37.5034L180.859 37.1099C179.96 39.8711 179.515 42.9494 179.515 46.3379H180.786ZM182.067 37.5062C182.94 34.8669 184.172 32.6414 185.756 30.8171L184.796 29.9837C183.088 31.9511 181.778 34.3297 180.86 37.107L182.067 37.5062ZM185.753 30.8201C187.359 28.9937 189.273 27.5905 191.501 26.6069L190.988 25.4439C188.591 26.502 186.526 28.0155 184.798 29.9807L185.753 30.8201ZM191.501 26.6069C193.723 25.6261 196.217 25.1298 198.994 25.1298V23.8585C196.063 23.8585 193.391 24.383 190.988 25.4439L191.501 26.6069ZM198.994 25.1298C202.712 25.1298 205.801 25.8039 208.291 27.1187L208.885 25.9946C206.167 24.5594 202.861 23.8585 198.994 23.8585V25.1298ZM208.293 27.1197C210.82 28.4432 212.762 30.2591 214.136 32.5691L215.228 31.9192C213.727 29.3959 211.606 27.4201 208.883 25.9936L208.293 27.1197ZM214.138 32.5725C215.542 34.8998 216.391 37.5563 216.674 40.554L217.94 40.4343C217.64 37.2653 216.738 34.4218 215.226 31.9157L214.138 32.5725ZM217.307 39.8585H207.932V41.1298H217.307V39.8585ZM208.566 40.4581C208.459 38.5639 208.08 36.9236 207.409 35.5574L206.268 36.1184C206.846 37.2939 207.197 38.7578 207.297 40.5302L208.566 40.4581ZM207.41 35.561C206.725 34.1452 205.678 33.0742 204.282 32.365L203.706 33.4983C204.853 34.0807 205.701 34.9472 206.266 36.1147L207.41 35.561ZM204.294 32.3708C202.918 31.6373 201.137 31.296 198.994 31.296V32.5673C201.019 32.5673 202.57 32.8926 203.695 33.4925L204.294 32.3708ZM198.994 31.296C197.353 31.296 195.887 31.6028 194.616 32.2381L195.185 33.3752C196.247 32.8439 197.511 32.5673 198.994 32.5673V31.296ZM194.616 32.2381C193.342 32.8755 192.281 33.8397 191.434 35.1103L192.492 35.8155C193.228 34.7111 194.126 33.9044 195.185 33.3752L194.616 32.2381ZM191.434 35.1103C190.588 36.3803 189.969 37.9594 189.561 39.8273L190.803 40.0985C191.187 38.3414 191.755 36.9205 192.492 35.8155L191.434 35.1103ZM189.56 39.8327C189.173 41.6783 188.984 43.828 188.984 46.2754H190.255C190.255 43.8895 190.44 41.8309 190.804 40.0931L189.56 39.8327ZM188.984 46.2754V49.4941H190.255V46.2754H188.984ZM188.984 49.4941C188.984 51.8785 189.163 53.9942 189.527 55.8362L190.774 55.5896C190.43 53.8482 190.255 51.8181 190.255 49.4941H188.984ZM189.527 55.8375C189.892 57.6611 190.455 59.2324 191.229 60.5372L192.322 59.8886C191.638 58.735 191.118 57.3064 190.774 55.5882L189.527 55.8375ZM191.236 60.5481C192.04 61.8439 193.078 62.8416 194.35 63.5232L194.951 62.4026C193.89 61.8342 193.011 60.9985 192.316 59.8777L191.236 60.5481ZM194.362 63.5294C195.659 64.189 197.19 64.5048 198.932 64.5048V63.2335C197.341 63.2335 196.017 62.9451 194.939 62.3964L194.362 63.5294ZM198.932 64.5048C200.952 64.5048 202.671 64.1831 204.056 63.502L203.495 62.3613C202.338 62.9302 200.828 63.2335 198.932 63.2335V64.5048ZM204.056 63.502C205.444 62.8197 206.51 61.8 207.241 60.4534L206.123 59.8473C205.52 60.9592 204.649 61.7936 203.495 62.3613L204.056 63.502ZM207.237 60.4607C207.982 59.1284 208.405 57.4996 208.535 55.5999L207.266 55.5134C207.146 57.2804 206.757 58.714 206.127 59.8401L207.237 60.4607ZM232.776 25.1504H233.411V24.5148H232.776V25.1504ZM232.776 70.6504V71.286H233.411V70.6504H232.776ZM223.401 70.6504H222.765V71.286H223.401V70.6504ZM223.401 25.1504V24.5148H222.765V25.1504H223.401ZM260.026 25.1504L260.521 25.5482L261.351 24.5148H260.026V25.1504ZM241.994 47.6191L242.46 48.0521L242.476 48.0351L242.49 48.017L241.994 47.6191ZM231.588 58.8066L230.964 58.9254L231.198 60.159L232.054 59.2396L231.588 58.8066ZM229.901 49.9316L229.387 49.5567L229.225 49.7794L229.276 50.0504L229.901 49.9316ZM236.932 40.3066L236.427 39.9204L236.419 39.9317L236.932 40.3066ZM248.526 25.1504V24.5148H248.212L248.021 24.7642L248.526 25.1504ZM249.369 70.6504L248.833 70.9921L249.021 71.286H249.369V70.6504ZM235.963 49.6191L235.555 49.1319L235.127 49.4903L235.427 49.9608L235.963 49.6191ZM242.901 43.8066L243.433 43.4586L243.041 42.8599L242.492 43.3194L242.901 43.8066ZM260.463 70.6504V71.286H261.639L260.995 70.3024L260.463 70.6504ZM232.14 25.1504V70.6504H233.411V25.1504H232.14ZM232.776 70.0148H223.401V71.286H232.776V70.0148ZM224.036 70.6504V25.1504H222.765V70.6504H224.036ZM223.401 25.786H232.776V24.5148H223.401V25.786ZM259.53 24.7526L241.499 47.2213L242.49 48.017L260.521 25.5482L259.53 24.7526ZM241.529 47.1862L231.123 58.3737L232.054 59.2396L242.46 48.0521L241.529 47.1862ZM232.213 58.6879L230.525 49.8129L229.276 50.0504L230.964 58.9254L232.213 58.6879ZM230.414 50.3066L237.445 40.6816L236.419 39.9317L229.387 49.5567L230.414 50.3066ZM237.437 40.6928L249.03 25.5366L248.021 24.7642L236.427 39.9205L237.437 40.6928ZM248.526 25.786H260.026V24.5148H248.526V25.786ZM249.905 70.3087L236.499 49.2775L235.427 49.9608L248.833 70.9921L249.905 70.3087ZM236.371 50.1064L243.309 44.2939L242.492 43.3194L235.555 49.1319L236.371 50.1064ZM242.369 44.1546L259.931 70.9984L260.995 70.3024L243.433 43.4586L242.369 44.1546ZM260.463 70.0148H249.369V71.286H260.463V70.0148Z" fill="white"/>
<g filter="url(#filter5_d_15_2846)">
<path d="M76.7361 46.6465H65.0486L64.9861 40.209H74.7986C76.5278 40.209 77.9444 39.9902 79.0486 39.5527C80.1528 39.0944 80.9757 38.4382 81.5173 37.584C82.0798 36.709 82.3611 35.6465 82.3611 34.3965C82.3611 32.9798 82.0903 31.834 81.5486 30.959C81.0278 30.084 80.2048 29.4486 79.0798 29.0527C77.9757 28.6569 76.5486 28.459 74.7986 28.459H68.2986V66.6152H58.9236V21.1152H74.7986C77.4444 21.1152 79.809 21.3652 81.8923 21.8652C83.9965 22.3652 85.7778 23.1257 87.2361 24.1465C88.6944 25.1673 89.809 26.459 90.5798 28.0215C91.3507 29.5632 91.7361 31.3965 91.7361 33.5215C91.7361 35.3965 91.309 37.1257 90.4548 38.709C89.6215 40.2923 88.2986 41.584 86.4861 42.584C84.6944 43.584 82.3507 44.1361 79.4548 44.2402L76.7361 46.6465ZM76.3298 66.6152H62.4861L66.1423 59.3027H76.3298C77.9757 59.3027 79.3194 59.0423 80.3611 58.5215C81.4028 57.9798 82.1736 57.2507 82.6736 56.334C83.1736 55.4173 83.4236 54.3652 83.4236 53.1777C83.4236 51.8444 83.1944 50.6882 82.7361 49.709C82.2986 48.7298 81.5903 47.9798 80.6111 47.459C79.6319 46.9173 78.3403 46.6465 76.7361 46.6465H67.7048L67.7673 40.209H79.0173L81.1736 42.7402C83.9444 42.6986 86.1736 43.1882 87.8611 44.209C89.5694 45.209 90.809 46.5111 91.5798 48.1152C92.3715 49.7194 92.7673 51.4382 92.7673 53.2715C92.7673 56.1882 92.1319 58.6465 90.8611 60.6465C89.5903 62.6257 87.7257 64.1152 85.2673 65.1152C82.8298 66.1152 79.8507 66.6152 76.3298 66.6152ZM129.049 59.3027V66.6152H106.142V59.3027H129.049ZM109.174 21.1152V66.6152H99.7986V21.1152H109.174ZM153.549 28.8965L141.174 66.6152H131.205L148.111 21.1152H154.455L153.549 28.8965ZM163.83 66.6152L151.424 28.8965L150.424 21.1152H156.83L173.83 66.6152H163.83ZM163.267 49.6777V57.0215H139.236V49.6777H163.267ZM203.861 51.5215H213.205C213.017 54.584 212.174 57.3027 210.674 59.6777C209.194 62.0527 207.122 63.9069 204.455 65.2402C201.809 66.5736 198.622 67.2402 194.892 67.2402C191.976 67.2402 189.361 66.7402 187.049 65.7402C184.736 64.7194 182.757 63.2611 181.111 61.3652C179.486 59.4694 178.247 57.1777 177.392 54.4902C176.538 51.8027 176.111 48.7923 176.111 45.459V42.3027C176.111 38.9694 176.549 35.959 177.424 33.2715C178.319 30.5632 179.59 28.2611 181.236 26.3652C182.903 24.4694 184.892 23.0111 187.205 21.9902C189.517 20.9694 192.101 20.459 194.955 20.459C198.747 20.459 201.944 21.1465 204.549 22.5215C207.174 23.8965 209.205 25.7923 210.642 28.209C212.101 30.6257 212.976 33.3757 213.267 36.459H203.892C203.788 34.6257 203.424 33.0736 202.799 31.8027C202.174 30.5111 201.226 29.5423 199.955 28.8965C198.705 28.2298 197.038 27.8965 194.955 27.8965C193.392 27.8965 192.028 28.1882 190.861 28.7715C189.694 29.3548 188.715 30.2402 187.924 31.4277C187.132 32.6152 186.538 34.1152 186.142 35.9277C185.767 37.7194 185.58 39.8236 185.58 42.2402V45.459C185.58 47.8132 185.757 49.8861 186.111 51.6777C186.465 53.4486 187.007 54.9486 187.736 56.1777C188.486 57.3861 189.444 58.3027 190.611 58.9277C191.799 59.5319 193.226 59.834 194.892 59.834C196.851 59.834 198.465 59.5215 199.736 58.8965C201.007 58.2715 201.976 57.3444 202.642 56.1152C203.33 54.8861 203.736 53.3548 203.861 51.5215ZM228.736 21.1152V66.6152H219.361V21.1152H228.736ZM255.986 21.1152L237.955 43.584L227.549 54.7715L225.861 45.8965L232.892 36.2715L244.486 21.1152H255.986ZM245.33 66.6152L231.924 45.584L238.861 39.7715L256.424 66.6152H245.33Z" fill="white"/>
</g>
<g filter="url(#filter6_d_15_2846)">
<path d="M85.2379 78.656C84.7899 78.0213 84.5659 77.5733 84.5659 77.312C84.5659 77.312 84.5846 77.2187 84.6219 77.032C84.6966 76.8453 84.7526 76.64 84.7899 76.416C84.8646 76.192 84.9206 75.9867 84.9579 75.8C85.0326 75.576 85.0699 75.4267 85.0699 75.352C85.0699 74.9413 85.0326 74.512 84.9579 74.064C84.9206 73.616 84.9019 73.1867 84.9019 72.776C84.9019 72.552 84.9392 72.3467 85.0139 72.16C85.1259 71.936 85.1819 71.7307 85.1819 71.544C85.1819 71.096 85.1072 70.6293 84.9579 70.144C84.8086 69.6213 84.7339 69.0613 84.7339 68.464C84.7339 68.0533 84.7339 67.6613 84.7339 67.288C84.7712 66.8773 84.7899 66.4667 84.7899 66.056C84.7899 65.496 84.7339 64.8613 84.6219 64.152C84.5099 63.4053 84.4539 62.6213 84.4539 61.8C84.4539 61.2773 84.4539 60.7547 84.4539 60.232C84.4912 59.672 84.5099 59.1307 84.5099 58.608C84.5099 58.1973 84.4539 57.7867 84.3419 57.376C84.2299 56.9653 84.1739 56.536 84.1739 56.088C84.1739 55.5653 84.5286 55.192 85.2379 54.968C85.9846 54.7067 86.8806 54.576 87.9259 54.576C88.2619 54.576 88.5419 54.6133 88.7659 54.688C89.0272 54.7253 89.3072 54.744 89.6059 54.744C91.0246 54.744 92.4619 54.5947 93.9179 54.296C95.4112 53.96 96.8486 53.792 98.2299 53.792C99.0512 53.792 99.7792 53.8667 100.414 54.016H100.358C100.358 53.9787 100.489 53.96 100.75 53.96C100.974 53.96 101.254 53.9787 101.59 54.016C101.963 54.0533 102.299 54.128 102.598 54.24C102.934 54.3147 103.214 54.4267 103.438 54.576C103.662 54.7253 103.774 54.9307 103.774 55.192C103.774 55.64 103.681 56.0507 103.494 56.424C103.345 56.7973 102.859 56.984 102.038 56.984C101.59 56.984 101.142 56.928 100.694 56.816C100.246 56.704 99.7979 56.648 99.3499 56.648C99.3499 56.648 99.1259 56.6667 98.6779 56.704C98.2672 56.7413 97.7259 56.7973 97.0539 56.872C96.4192 56.9467 95.7286 57.04 94.9819 57.152C94.2352 57.2267 93.5259 57.3387 92.8539 57.488C92.2192 57.6373 91.6779 57.8053 91.2299 57.992C90.8192 58.1787 90.6139 58.384 90.6139 58.608C90.6512 58.9067 90.7072 59.2427 90.7819 59.616C90.8939 59.952 90.9499 60.3067 90.9499 60.68C90.9499 60.9787 90.9126 61.2773 90.8379 61.576C90.7632 61.8373 90.7259 62.1173 90.7259 62.416C90.7259 62.528 90.7259 62.6587 90.7259 62.808C90.7632 62.92 90.7819 63.032 90.7819 63.144C90.7819 63.4053 90.7446 63.648 90.6699 63.872C90.6326 64.096 90.6139 64.3387 90.6139 64.6C90.6139 64.7867 90.6326 64.9733 90.6699 65.16C90.7072 65.3093 90.7259 65.4773 90.7259 65.664C90.7259 65.9627 90.6512 66.336 90.5019 66.784C90.3899 67.1947 90.3339 67.6053 90.3339 68.016C90.3339 68.8373 90.3339 69.4907 90.3339 69.976C90.3339 70.424 90.3712 70.7787 90.4459 71.04C90.5206 71.264 90.6139 71.4133 90.7259 71.488C90.8752 71.5253 91.0992 71.544 91.3979 71.544C92.1072 71.544 92.6672 71.5253 93.0779 71.488C93.5259 71.4507 93.9179 71.4133 94.2539 71.376C94.5899 71.3387 94.9072 71.3013 95.2059 71.264C95.5419 71.2267 95.9339 71.208 96.3819 71.208C96.7926 71.208 97.2406 71.2453 97.7259 71.32C98.2112 71.3573 98.6592 71.488 99.0699 71.712C99.4806 71.8987 99.8166 72.1787 100.078 72.552C100.339 72.888 100.47 73.3547 100.47 73.952C100.47 74.4747 100.227 74.8107 99.7419 74.96C99.2566 75.1093 98.8086 75.184 98.3979 75.184C98.2112 75.184 98.0432 75.184 97.8939 75.184C97.7446 75.184 97.5766 75.184 97.3899 75.184C97.2406 75.1467 97.0352 75.128 96.7739 75.128C96.5499 75.128 96.2512 75.128 95.8779 75.128C95.3926 75.128 94.8699 75.1467 94.3099 75.184C93.7499 75.184 93.2086 75.24 92.6859 75.352C92.2006 75.4267 91.7712 75.5387 91.3979 75.688C91.0246 75.8373 90.8192 76.0427 90.7819 76.304C90.7819 77.1627 90.6512 78.0213 90.3899 78.88C90.1659 79.7387 90.0539 80.4293 90.0539 80.952C90.0539 81.0267 90.0726 81.12 90.1099 81.232C90.1472 81.344 90.2032 81.4 90.2779 81.4C90.4272 81.4 90.5579 81.3813 90.6699 81.344C90.7819 81.3067 90.8939 81.288 91.0059 81.288C91.0806 81.288 91.1739 81.3253 91.2859 81.4C91.3979 81.4373 91.4539 81.4933 91.4539 81.568C91.4539 81.68 91.4352 81.792 91.3979 81.904C91.3979 81.9787 91.3979 82.0533 91.3979 82.128C91.3979 82.9867 91.4539 83.8267 91.5659 84.648C91.6779 85.432 91.7339 86.2533 91.7339 87.112C91.7339 87.4853 91.7152 87.84 91.6779 88.176C91.6779 88.512 91.6779 88.8667 91.6779 89.24C91.6779 89.688 91.7339 90.1173 91.8459 90.528C91.9952 90.9387 92.0699 91.312 92.0699 91.648C92.0699 91.9467 92.0139 92.32 91.9019 92.768C91.8272 93.1787 91.6406 93.5893 91.3419 94C91.0806 94.448 90.6699 94.8213 90.1099 95.12C89.5872 95.4187 88.8592 95.568 87.9259 95.568C87.7392 95.568 87.5712 95.4933 87.4219 95.344C87.2726 95.1947 87.1046 95.12 86.9179 95.12C86.7686 95.12 86.6006 95.1387 86.4139 95.176C86.2272 95.2507 86.0406 95.3253 85.8539 95.4C85.8166 95.4 85.7606 95.3627 85.6859 95.288C85.6859 95.064 85.7419 94.9147 85.8539 94.84C85.9659 94.7653 86.0219 94.5973 86.0219 94.336C85.7606 93.7013 85.5366 93.1227 85.3499 92.6C85.1632 92.04 85.0699 91.4427 85.0699 90.808C85.0699 90.6213 85.0699 90.4347 85.0699 90.248C85.1072 90.024 85.1259 89.8187 85.1259 89.632C85.1259 89.3333 85.0512 89.0347 84.9019 88.736C84.7526 88.4 84.6779 88.0453 84.6779 87.672C84.6779 87.0373 84.6966 86.4027 84.7339 85.768C84.7712 85.096 84.7899 84.424 84.7899 83.752C84.7899 83.304 84.7526 82.856 84.6779 82.408C84.6406 81.96 84.6219 81.4933 84.6219 81.008C84.6219 80.1493 84.8272 79.3653 85.2379 78.656ZM89.9979 77.928C89.9606 77.6293 89.9419 77.368 89.9419 77.144C89.9419 76.92 89.8486 76.7147 89.6619 76.528C89.4752 76.528 89.3632 76.6773 89.3259 76.976C89.2886 77.2747 89.2699 77.5173 89.2699 77.704C89.2699 78.1147 89.3819 78.544 89.6059 78.992C89.7926 78.88 89.8859 78.712 89.8859 78.488C89.9232 78.264 89.9606 78.0773 89.9979 77.928ZM88.2619 77.76C88.2619 77.648 88.2246 77.4987 88.1499 77.312C88.1126 77.1253 88.0566 77.032 87.9819 77.032C87.8326 77.032 87.7206 77.1067 87.6459 77.256C87.6086 77.368 87.5899 77.4987 87.5899 77.648C87.5899 77.7973 87.6086 77.9467 87.6459 78.096C87.7206 78.208 87.8512 78.264 88.0379 78.264C88.1126 78.264 88.1499 78.208 88.1499 78.096C88.1872 77.984 88.2246 77.872 88.2619 77.76ZM88.0939 82.408C88.2432 82.2213 88.3179 81.9973 88.3179 81.736C88.3179 81.512 88.2619 81.288 88.1499 81.064C88.0752 81.2133 88.0192 81.344 87.9819 81.456C87.9446 81.568 87.9259 81.6987 87.9259 81.848C87.9259 82.072 87.9819 82.2587 88.0939 82.408ZM88.0379 71.264C87.9632 71.4133 87.9072 71.5067 87.8699 71.544C87.8699 71.5813 87.9072 71.6373 87.9819 71.712C88.1312 71.712 88.2059 71.6373 88.2059 71.488C88.2059 71.4507 88.1872 71.432 88.1499 71.432C88.1126 71.3947 88.0752 71.3387 88.0379 71.264ZM106.066 81.232C106.215 81.1947 106.346 81.064 106.458 80.84C106.607 80.616 106.738 80.3733 106.85 80.112C106.962 79.8133 107.074 79.5333 107.186 79.272C107.298 78.9733 107.41 78.768 107.522 78.656C107.484 78.4693 107.466 78.208 107.466 77.872C107.466 77.3867 107.559 76.9013 107.746 76.416C107.97 75.9307 108.082 75.5387 108.082 75.24C108.156 74.1947 108.474 73.1493 109.034 72.104C109.594 71.0213 110.098 69.9947 110.546 69.024C110.62 68.8747 110.751 68.6133 110.938 68.24C111.124 67.8293 111.33 67.4373 111.554 67.064C111.778 66.6533 112.002 66.2987 112.226 66C112.45 65.7013 112.618 65.552 112.73 65.552C112.804 65.552 112.86 65.5707 112.898 65.608C112.972 65.608 113.047 65.608 113.122 65.608C113.42 65.608 113.719 65.5707 114.018 65.496C114.316 65.4213 114.615 65.384 114.914 65.384C115.362 65.384 115.698 65.496 115.922 65.72C116.183 65.944 116.388 66.224 116.538 66.56C116.687 66.896 116.799 67.2507 116.874 67.624C116.986 67.9973 117.079 68.3333 117.154 68.632C117.154 68.8187 117.135 68.9867 117.098 69.136C117.06 69.2853 117.023 69.4907 116.986 69.752C117.471 69.1173 118.012 68.4827 118.61 67.848C119.244 67.2133 119.599 66.7093 119.674 66.336C119.711 66.112 119.879 65.832 120.178 65.496C120.514 65.1227 120.906 64.768 121.354 64.432C121.802 64.0587 122.268 63.76 122.754 63.536C123.276 63.2747 123.78 63.144 124.266 63.144C125.012 63.144 125.628 63.312 126.114 63.648C126.636 63.984 127.047 64.4133 127.346 64.936C127.644 65.4213 127.85 65.9627 127.962 66.56C128.074 67.1573 128.13 67.6987 128.13 68.184C128.13 69.2667 127.98 70.088 127.682 70.648C127.42 71.1707 126.879 71.7307 126.058 72.328C125.796 72.5147 125.61 72.7573 125.498 73.056C125.386 73.3173 125.292 73.5787 125.218 73.84C125.143 74.064 125.05 74.2693 124.938 74.456C124.863 74.6427 124.714 74.736 124.49 74.736C123.892 74.736 123.463 74.3813 123.202 73.672C122.94 72.9627 122.754 72.1973 122.642 71.376C122.53 70.5173 122.436 69.7333 122.362 69.024C122.324 68.3147 122.194 67.96 121.97 67.96C121.932 67.96 121.914 67.9787 121.914 68.016C121.914 68.016 121.895 68.016 121.858 68.016C121.298 68.352 120.7 68.856 120.066 69.528C119.468 70.2 118.89 70.928 118.33 71.712C117.77 72.496 117.247 73.2987 116.762 74.12C116.314 74.9413 115.959 75.688 115.698 76.36C115.511 76.808 115.324 77.2747 115.138 77.76C114.988 78.208 114.764 78.6373 114.466 79.048C114.242 79.384 114.074 79.7387 113.962 80.112C113.85 80.4853 113.738 80.9147 113.626 81.4C113.514 81.848 113.364 82.408 113.178 83.08C112.991 83.752 112.692 84.5733 112.282 85.544C111.871 86.5147 111.61 87.504 111.498 88.512C111.386 89.4827 111.068 90.416 110.546 91.312C110.546 91.2747 110.49 91.5173 110.378 92.04C110.266 92.5253 110.079 93.0667 109.818 93.664C109.556 94.2613 109.22 94.8027 108.81 95.288C108.436 95.8107 107.988 96.072 107.466 96.072C106.756 96.072 106.252 95.68 105.954 94.896C105.692 94.112 105.562 93.2533 105.562 92.32C105.562 92.0587 105.58 91.816 105.618 91.592C105.655 91.368 105.674 91.1067 105.674 90.808C105.674 90.3973 105.636 90.0053 105.562 89.632C105.487 89.2213 105.45 88.7733 105.45 88.288C105.45 87.7653 105.506 87.112 105.618 86.328C105.767 85.5067 106.028 84.872 106.402 84.424C106.402 84.3867 106.402 84.368 106.402 84.368C106.439 84.3307 106.458 84.2747 106.458 84.2C106.458 84.0133 106.402 83.8453 106.29 83.696C106.215 83.5467 106.178 83.3973 106.178 83.248C106.178 82.9867 106.215 82.7067 106.29 82.408C106.364 82.072 106.439 81.792 106.514 81.568L106.066 81.232ZM113.626 76.696L113.514 76.864H113.682L113.626 76.696ZM130.345 80.952C130.345 80.728 130.383 80.2427 130.457 79.496C130.569 78.712 130.7 77.816 130.849 76.808C130.999 75.8 131.167 74.736 131.353 73.616C131.577 72.496 131.801 71.488 132.025 70.592C132.287 69.6587 132.548 68.8933 132.809 68.296C133.108 67.6613 133.407 67.344 133.705 67.344C134.116 67.344 134.564 67.4187 135.049 67.568C135.535 67.7173 135.983 67.848 136.393 67.96C136.767 68.072 137.103 68.3893 137.401 68.912C137.737 69.4347 138.017 70.032 138.241 70.704C138.465 71.376 138.633 72.0667 138.745 72.776C138.857 73.4853 138.913 74.0827 138.913 74.568C138.913 75.2773 138.876 75.968 138.801 76.64C138.764 77.312 138.708 77.984 138.633 78.656C138.447 79.1787 138.372 79.7013 138.409 80.224C138.447 80.7093 138.372 81.2133 138.185 81.736C138.148 81.7733 138.129 81.8667 138.129 82.016C138.129 82.2773 138.129 82.8 138.129 83.584C138.167 84.368 138.223 85.1893 138.297 86.048C138.409 86.8693 138.559 87.616 138.745 88.288C138.969 88.9227 139.268 89.24 139.641 89.24C139.791 89.24 139.903 89.2027 139.977 89.128C141.172 87.7093 142.236 86.328 143.169 84.984C144.14 83.6027 144.831 81.9973 145.241 80.168C145.353 79.608 145.577 79.1787 145.913 78.88C146.287 78.544 146.697 78.376 147.145 78.376C147.519 78.376 147.836 78.4693 148.097 78.656C148.359 78.8053 148.489 79.048 148.489 79.384C148.489 79.608 148.396 79.8507 148.209 80.112C148.06 80.3733 147.873 80.6533 147.649 80.952C147.425 81.2507 147.201 81.5493 146.977 81.848C146.791 82.1467 146.66 82.4453 146.585 82.744C146.548 82.856 146.473 83.024 146.361 83.248C146.287 83.472 146.193 83.7147 146.081 83.976C145.969 84.2373 145.839 84.4987 145.689 84.76C145.54 85.0213 145.391 85.208 145.241 85.32C144.98 85.5067 144.849 85.7493 144.849 86.048C144.849 86.3093 144.775 86.5707 144.625 86.832C144.401 87.3173 144.103 87.7653 143.729 88.176C143.393 88.5493 143.188 88.9227 143.113 89.296C143.113 89.5947 142.908 89.9493 142.497 90.36C142.124 90.7333 141.863 91.1253 141.713 91.536C141.564 91.8347 141.321 92.096 140.985 92.32C140.649 92.544 140.276 92.7493 139.865 92.936C139.492 93.0853 139.1 93.216 138.689 93.328C138.316 93.4027 137.961 93.44 137.625 93.44C137.177 93.44 136.692 93.328 136.169 93.104C135.647 92.8427 135.143 92.5253 134.657 92.152C134.209 91.7787 133.799 91.368 133.425 90.92C133.052 90.4347 132.753 89.9493 132.529 89.464C132.417 89.2027 132.249 88.8853 132.025 88.512C131.801 88.1013 131.577 87.6907 131.353 87.28C131.129 86.8693 130.943 86.44 130.793 85.992C130.644 85.544 130.569 85.1147 130.569 84.704C130.569 84.0693 130.532 83.4533 130.457 82.856C130.383 82.2213 130.345 81.5867 130.345 80.952ZM134.545 59.336C134.545 59.0373 134.601 58.6827 134.713 58.272C134.825 57.8613 135.124 57.656 135.609 57.656C135.945 57.7307 136.263 57.7867 136.561 57.824C136.897 57.8613 137.196 57.936 137.457 58.048C137.756 58.16 137.98 58.3093 138.129 58.496C138.316 58.6827 138.409 58.944 138.409 59.28C138.409 59.9147 138.241 60.5493 137.905 61.184C137.569 61.7813 137.028 62.08 136.281 62.08C135.945 62.08 135.665 61.9867 135.441 61.8C135.217 61.6133 135.031 61.3893 134.881 61.128C134.769 60.8293 134.676 60.5307 134.601 60.232C134.564 59.896 134.545 59.5973 134.545 59.336ZM164.319 63.648C164.394 63.872 164.431 64.0213 164.431 64.096C164.431 64.3947 164.244 64.6933 163.871 64.992C163.498 65.2907 163.311 65.664 163.311 66.112C163.311 66.336 163.33 66.56 163.367 66.784C163.404 67.008 163.423 67.232 163.423 67.456C163.423 67.6427 163.404 67.8667 163.367 68.128C163.33 68.3893 163.218 68.52 163.031 68.52C162.994 68.52 162.956 68.464 162.919 68.352C162.882 68.24 162.863 68.1467 162.863 68.072C162.788 68.1093 162.714 68.1467 162.639 68.184C162.564 68.184 162.527 68.2027 162.527 68.24V68.184C162.527 68.2587 162.508 68.5013 162.471 68.912C162.471 69.2853 162.434 69.696 162.359 70.144C162.284 70.5547 162.191 70.9467 162.079 71.32C161.967 71.656 161.818 71.824 161.631 71.824C161.556 71.824 161.5 71.6373 161.463 71.264C161.426 70.8533 161.314 70.648 161.127 70.648C160.903 70.7227 160.772 70.9093 160.735 71.208C160.698 71.4693 160.679 71.768 160.679 72.104C160.679 72.4027 160.66 72.6827 160.623 72.944C160.586 73.168 160.474 73.28 160.287 73.28C160.063 73.28 159.839 73.4293 159.615 73.728C159.391 74.0267 159.204 74.2133 159.055 74.288C159.018 74.5867 158.98 74.9413 158.943 75.352C158.943 75.7627 158.906 76.1547 158.831 76.528C158.794 76.9013 158.7 77.2373 158.551 77.536C158.402 77.7973 158.178 77.9653 157.879 78.04V78.096C157.879 78.208 157.804 78.432 157.655 78.768C157.543 79.104 157.412 79.4773 157.263 79.888C157.114 80.2613 156.964 80.616 156.815 80.952C156.703 81.288 156.628 81.512 156.591 81.624C156.143 83.08 155.583 84.368 154.911 85.488C154.276 86.5707 153.716 87.7653 153.231 89.072C153.156 89.2587 152.988 89.5013 152.727 89.8C152.466 90.0987 152.186 90.3973 151.887 90.696C151.588 90.9573 151.308 91.2 151.047 91.424C150.786 91.648 150.618 91.76 150.543 91.76C150.244 91.76 149.964 91.7973 149.703 91.872C149.442 91.9467 149.18 91.984 148.919 91.984C148.695 91.984 148.434 91.9467 148.135 91.872C147.239 91.5733 146.604 91.312 146.231 91.088C145.858 90.8267 145.596 90.584 145.447 90.36C145.298 90.136 145.204 89.9307 145.167 89.744C145.167 89.5573 145.074 89.352 144.887 89.128C144.439 88.6053 144.178 87.9147 144.103 87.056C144.028 86.1973 143.991 85.5067 143.991 84.984C143.991 84.6853 144.01 84.3867 144.047 84.088C144.122 83.7893 144.159 83.4907 144.159 83.192C144.159 82.7813 144.308 82.4267 144.607 82.128C144.906 81.792 145.055 81.3813 145.055 80.896C145.13 80.4107 145.26 80 145.447 79.664C145.671 79.328 145.876 78.9173 146.063 78.432C146.138 78.2453 146.25 77.984 146.399 77.648C146.586 77.2747 146.772 76.9013 146.959 76.528C147.183 76.1173 147.407 75.7253 147.631 75.352C147.892 74.9413 148.154 74.6053 148.415 74.344C148.863 73.8587 149.311 73.224 149.759 72.44C150.244 71.6187 150.58 70.8533 150.767 70.144C150.804 69.9947 150.935 69.864 151.159 69.752C151.383 69.64 151.626 69.5093 151.887 69.36C152.186 69.1733 152.466 68.968 152.727 68.744C152.988 68.4827 153.175 68.1653 153.287 67.792C153.287 67.7547 153.38 67.7173 153.567 67.68C153.754 67.6053 153.959 67.5493 154.183 67.512C154.444 67.4373 154.706 67.3813 154.967 67.344C155.228 67.2693 155.415 67.232 155.527 67.232C155.938 67.232 156.404 67.3253 156.927 67.512C157.45 67.6987 157.916 67.792 158.327 67.792C158.738 67.792 159.074 67.6613 159.335 67.4C159.596 67.1013 159.82 66.784 160.007 66.448C160.231 66.0747 160.436 65.72 160.623 65.384C160.847 65.048 161.108 64.8427 161.407 64.768C161.482 64.7307 161.594 64.6 161.743 64.376C161.892 64.152 162.023 63.9093 162.135 63.648C162.284 63.3867 162.415 63.144 162.527 62.92C162.639 62.696 162.695 62.584 162.695 62.584C162.77 62.248 162.863 61.912 162.975 61.576C163.087 61.24 163.143 60.8853 163.143 60.512C163.143 60.1013 163.218 59.7653 163.367 59.504C163.554 59.2053 163.74 58.9627 163.927 58.776C164.151 58.552 164.338 58.3467 164.487 58.16C164.674 57.9733 164.767 57.768 164.767 57.544C164.767 57.0587 164.879 56.6107 165.103 56.2C165.327 55.752 165.588 55.3227 165.887 54.912C166.186 54.5013 166.466 54.0907 166.727 53.68C167.026 53.232 167.212 52.784 167.287 52.336C167.25 51.7387 167.38 51.2533 167.679 50.88C168.015 50.5067 168.22 50.0213 168.295 49.424C168.332 49.0507 168.463 48.6773 168.687 48.304C168.911 47.8933 169.21 47.5387 169.583 47.24C169.956 46.904 170.367 46.6427 170.815 46.456C171.3 46.2693 171.804 46.176 172.327 46.176C172.85 46.176 173.354 46.3627 173.839 46.736C174.362 47.1093 174.623 47.5387 174.623 48.024C174.623 48.7333 174.53 49.424 174.343 50.096C174.194 50.7307 174.007 51.3653 173.783 52C173.559 52.5973 173.335 53.2133 173.111 53.848C172.924 54.4453 172.812 55.0613 172.775 55.696C172.626 56.0693 172.476 56.4427 172.327 56.816C172.215 57.1893 172.066 57.5253 171.879 57.824C171.356 58.608 171.039 59.504 170.927 60.512C170.815 61.4827 170.759 62.3413 170.759 63.088C170.759 63.4613 170.666 63.76 170.479 63.984C170.292 64.1707 170.087 64.3387 169.863 64.488C169.676 64.6 169.49 64.712 169.303 64.824C169.116 64.8987 169.023 65.0107 169.023 65.16C169.023 65.272 169.06 65.3467 169.135 65.384C169.21 65.4213 169.303 65.4587 169.415 65.496C169.527 65.5333 169.62 65.5893 169.695 65.664C169.77 65.7013 169.807 65.7947 169.807 65.944C169.807 66.056 169.751 66.168 169.639 66.28C169.564 66.392 169.527 66.504 169.527 66.616C169.527 66.8027 169.564 67.008 169.639 67.232C169.751 67.4187 169.807 67.5867 169.807 67.736C169.807 68.0347 169.695 68.2027 169.471 68.24C169.284 68.24 169.042 68.3893 168.743 68.688C168.743 69.6587 168.706 70.5547 168.631 71.376C168.556 72.0853 168.444 72.776 168.295 73.448C168.146 74.0827 167.94 74.4933 167.679 74.68C167.53 74.792 167.455 75.0347 167.455 75.408C167.455 75.744 167.436 76.1173 167.399 76.528C167.399 76.9013 167.343 77.2373 167.231 77.536C167.156 77.8347 166.951 77.984 166.615 77.984C166.428 77.984 166.279 77.8907 166.167 77.704C166.092 77.5173 166.036 77.2933 165.999 77.032C165.999 76.7333 165.999 76.4533 165.999 76.192C165.999 75.8933 165.999 75.632 165.999 75.408C165.962 75.408 165.887 75.464 165.775 75.576C165.663 75.688 165.532 75.8187 165.383 75.968C165.271 76.08 165.159 76.2107 165.047 76.36C164.935 76.5093 164.879 76.6027 164.879 76.64C164.879 76.8267 164.954 76.9573 165.103 77.032C165.29 77.1067 165.42 77.1813 165.495 77.256V78.936C165.383 79.2347 165.234 79.4587 165.047 79.608C164.86 79.7573 164.674 79.9067 164.487 80.056C164.3 80.168 164.132 80.3173 163.983 80.504C163.871 80.6907 163.815 80.9707 163.815 81.344C163.666 81.344 163.591 81.2507 163.591 81.064C163.591 80.5413 163.703 80.056 163.927 79.608C164.188 79.1227 164.319 78.6747 164.319 78.264C164.319 78.0773 164.263 77.9093 164.151 77.76C164.076 77.5733 164.039 77.3867 164.039 77.2C164.039 76.8267 164.132 76.3973 164.319 75.912C164.506 75.4267 164.599 74.9787 164.599 74.568C164.599 74.3813 164.562 74.2133 164.487 74.064C164.45 73.8773 164.431 73.6907 164.431 73.504C164.431 73.28 164.45 73.112 164.487 73C164.524 72.888 164.599 72.7387 164.711 72.552C164.748 72.5147 164.842 72.384 164.991 72.16C165.14 71.936 165.29 71.6747 165.439 71.376C165.588 71.0773 165.719 70.7787 165.831 70.48C165.98 70.1813 166.055 69.92 166.055 69.696C166.055 69.6213 166.036 69.4907 165.999 69.304C165.999 69.1173 165.943 69.024 165.831 69.024C165.756 69.024 165.682 69.0427 165.607 69.08C165.532 69.1173 165.476 69.136 165.439 69.136C165.327 69.136 165.271 69.0613 165.271 68.912C165.271 68.0533 165.402 67.232 165.663 66.448C165.962 65.664 166.111 64.8427 166.111 63.984C166.111 63.424 165.999 63.088 165.775 62.976C165.588 62.864 165.308 62.808 164.935 62.808C164.786 62.808 164.599 62.864 164.375 62.976C164.151 63.0507 164.039 63.1813 164.039 63.368C164.039 63.5547 164.132 63.648 164.319 63.648ZM157.823 70.256C156.367 70.6667 154.93 71.5253 153.511 72.832C152.092 74.1387 151.01 75.7813 150.263 77.76C150.151 78.1707 149.983 78.5627 149.759 78.936C149.498 79.3467 149.255 79.832 149.031 80.392C148.844 80.952 148.676 81.512 148.527 82.072C148.378 82.632 148.247 83.1733 148.135 83.696C148.06 84.1813 148.023 84.5733 148.023 84.872C148.023 84.984 148.023 85.1707 148.023 85.432C148.06 85.656 148.098 85.9173 148.135 86.216C148.172 86.4773 148.228 86.72 148.303 86.944C148.415 87.1307 148.564 87.224 148.751 87.224C148.9 87.224 149.162 86.9253 149.535 86.328C149.908 85.6933 150.319 84.9467 150.767 84.088C151.215 83.2293 151.644 82.352 152.055 81.456C152.503 80.56 152.876 79.832 153.175 79.272C153.698 78.3013 154.258 77.3493 154.855 76.416C155.452 75.4453 156.012 74.456 156.535 73.448C156.684 73.336 156.852 73.168 157.039 72.944C157.226 72.72 157.394 72.4773 157.543 72.216C157.692 71.9173 157.823 71.6373 157.935 71.376C158.047 71.1147 158.103 70.928 158.103 70.816C158.103 70.704 158.01 70.5173 157.823 70.256ZM161.687 69.192C161.687 69.1173 161.687 69.0613 161.687 69.024C161.724 68.9493 161.743 68.8747 161.743 68.8C161.743 68.6507 161.706 68.5387 161.631 68.464C161.631 68.576 161.631 68.7067 161.631 68.856C161.668 69.0053 161.687 69.1173 161.687 69.192ZM166.671 72.104C166.596 72.4027 166.559 72.5893 166.559 72.664C166.559 72.7387 166.578 72.7947 166.615 72.832C166.652 72.8693 166.69 72.9253 166.727 73C166.802 72.888 166.858 72.8133 166.895 72.776C166.932 72.7013 166.951 72.5893 166.951 72.44C166.951 72.328 166.932 72.272 166.895 72.272C166.895 72.2347 166.82 72.1787 166.671 72.104ZM167.511 72.272C167.623 72.16 167.679 72.1227 167.679 72.16C167.679 72.0853 167.679 71.992 167.679 71.88C167.679 71.7307 167.623 71.656 167.511 71.656C167.399 71.7307 167.343 71.8427 167.343 71.992C167.343 72.0293 167.343 72.0853 167.343 72.16C167.38 72.2347 167.436 72.272 167.511 72.272ZM164.207 96.24C164.394 96.4267 164.618 96.5573 164.879 96.632C165.14 96.744 165.271 96.8933 165.271 97.08C165.047 97.528 164.898 97.9573 164.823 98.368C164.786 98.816 164.767 99.264 164.767 99.712C164.767 99.7493 164.73 99.936 164.655 100.272C164.618 100.608 164.506 100.963 164.319 101.336C164.17 101.747 163.964 102.101 163.703 102.4C163.442 102.736 163.087 102.904 162.639 102.904C162.415 102.904 162.191 102.773 161.967 102.512C161.743 102.251 161.538 101.952 161.351 101.616C161.202 101.28 161.071 100.925 160.959 100.552C160.884 100.216 160.847 99.936 160.847 99.712C160.847 99.4507 160.903 99.208 161.015 98.984C161.164 98.7973 161.239 98.6107 161.239 98.424C161.239 98.2747 161.202 98.144 161.127 98.032C161.052 97.92 160.978 97.7893 160.903 97.64C160.978 97.08 161.052 96.4827 161.127 95.848C161.239 95.2507 161.295 94.6907 161.295 94.168C161.295 93.832 161.22 93.5707 161.071 93.384C160.959 93.1973 160.903 92.992 160.903 92.768C160.903 92.4693 160.996 92.1707 161.183 91.872C161.37 91.536 161.463 91.2 161.463 90.864C161.463 90.752 161.444 90.6587 161.407 90.584C161.407 90.472 161.407 90.36 161.407 90.248C161.407 90.0613 161.444 89.912 161.519 89.8C161.631 89.6507 161.743 89.5387 161.855 89.464C161.967 89.352 162.06 89.24 162.135 89.128C162.247 88.9787 162.303 88.8107 162.303 88.624C162.303 88.5493 162.284 88.4747 162.247 88.4C162.247 88.288 162.247 88.1947 162.247 88.12C162.247 87.784 162.396 87.5227 162.695 87.336C162.732 87.4107 162.751 87.4853 162.751 87.56C162.751 87.6347 162.788 87.672 162.863 87.672C162.938 87.672 162.975 87.6347 162.975 87.56C162.975 87.4853 162.938 87.448 162.863 87.448C162.788 87.4107 162.714 87.392 162.639 87.392C163.05 86.9813 163.367 86.44 163.591 85.768C163.815 85.096 163.927 84.5733 163.927 84.2C163.927 84.088 163.89 84.032 163.815 84.032C163.703 84.032 163.572 84.1627 163.423 84.424C163.311 84.648 163.199 84.9093 163.087 85.208C162.975 85.5067 162.863 85.7867 162.751 86.048C162.676 86.272 162.583 86.384 162.471 86.384C162.21 86.384 162.079 86.272 162.079 86.048C162.154 85.7493 162.228 85.432 162.303 85.096C162.378 84.7227 162.49 84.3867 162.639 84.088C162.676 84.0133 162.826 83.7893 163.087 83.416C163.348 83.0053 163.61 82.5947 163.871 82.184C164.17 81.736 164.431 81.344 164.655 81.008C164.879 80.6347 165.01 80.448 165.047 80.448C165.122 80.448 165.178 80.4667 165.215 80.504C165.252 80.504 165.308 80.504 165.383 80.504C165.607 80.504 165.756 80.4293 165.831 80.28C165.943 80.1307 166.018 79.9627 166.055 79.776C166.092 79.5893 166.13 79.4213 166.167 79.272C166.204 79.1227 166.279 79.048 166.391 79.048C166.54 79.048 166.671 79.1227 166.783 79.272C166.895 79.4213 166.988 79.608 167.063 79.832C167.138 80.0187 167.194 80.2053 167.231 80.392C167.268 80.5787 167.287 80.7093 167.287 80.784C167.287 80.9707 167.212 81.1573 167.063 81.344C166.951 81.4933 166.82 81.6613 166.671 81.848C166.559 82.0347 166.428 82.2773 166.279 82.576C166.167 82.8373 166.111 83.1733 166.111 83.584C166.111 83.8453 166.148 84.088 166.223 84.312C166.298 84.536 166.335 84.7787 166.335 85.04C166.335 85.376 166.316 85.712 166.279 86.048C166.242 86.384 166.223 86.72 166.223 87.056C166.223 87.4667 166.111 87.8027 165.887 88.064C165.7 88.3253 165.607 88.5493 165.607 88.736C165.607 88.8853 165.663 89.0347 165.775 89.184C165.924 89.296 165.999 89.4453 165.999 89.632C165.999 89.8187 165.906 89.9867 165.719 90.136C165.57 90.2853 165.495 90.416 165.495 90.528C165.495 90.6773 165.57 90.7893 165.719 90.864C165.868 90.9387 165.943 91.0507 165.943 91.2C165.943 91.424 165.831 91.5733 165.607 91.648C165.196 92.0587 164.972 92.6 164.935 93.272C164.898 93.944 164.879 94.4853 164.879 94.896C164.879 95.1573 164.898 95.3253 164.935 95.4C164.935 95.7733 164.804 95.9973 164.543 96.072C164.319 96.1467 164.207 96.3707 164.207 96.744V96.24ZM165.271 82.352C165.047 82.464 164.916 82.5947 164.879 82.744C164.842 82.8933 164.823 83.0613 164.823 83.248C164.823 83.6213 164.898 83.976 165.047 84.312C165.122 83.7893 165.215 83.2853 165.327 82.8C165.476 82.3147 165.551 82.0533 165.551 82.016C165.551 81.8667 165.495 81.792 165.383 81.792C165.308 81.8667 165.271 81.9787 165.271 82.128C165.271 82.24 165.271 82.3147 165.271 82.352ZM162.135 95.4C162.172 95.3253 162.21 95.2693 162.247 95.232C162.322 95.1947 162.359 95.1573 162.359 95.12C162.359 95.0453 162.322 94.9893 162.247 94.952C162.21 94.9147 162.172 94.8587 162.135 94.784C162.098 94.8587 162.042 94.9147 161.967 94.952C161.93 94.9893 161.911 95.0453 161.911 95.12C161.911 95.1573 161.93 95.1947 161.967 95.232C162.042 95.2693 162.098 95.3253 162.135 95.4ZM164.935 86.048H165.047V85.88L164.935 86.048ZM162.975 89.296C163.05 89.2213 163.087 89.128 163.087 89.016C163.087 88.9787 163.012 88.904 162.863 88.792C162.863 88.8293 162.844 88.8667 162.807 88.904C162.77 88.9413 162.751 88.9973 162.751 89.072C162.751 89.1093 162.77 89.1467 162.807 89.184C162.882 89.184 162.938 89.2213 162.975 89.296ZM164.655 63.536C164.655 63.648 164.618 63.704 164.543 63.704C164.431 63.704 164.356 63.6853 164.319 63.648V63.704L164.655 63.536ZM174.069 85.096C174.592 84.984 174.872 84.704 174.909 84.256C174.909 83.3227 175.059 82.408 175.357 81.512C175.656 80.5787 175.973 79.6827 176.309 78.824C176.645 77.9653 176.981 77.0507 177.317 76.08C177.691 75.072 178.363 73.8587 179.333 72.44C179.707 71.88 180.061 71.3013 180.397 70.704C180.733 70.1067 181.107 69.5653 181.517 69.08C181.928 68.5947 182.432 68.2027 183.029 67.904C183.664 67.568 184.467 67.4 185.437 67.4C186.744 67.4 187.771 67.6613 188.517 68.184C189.264 68.7067 189.955 69.3973 190.589 70.256C190.963 70.0693 191.299 69.8267 191.597 69.528C191.933 69.2293 192.251 68.9307 192.549 68.632C192.885 68.3333 193.221 68.0533 193.557 67.792C193.893 67.4933 194.285 67.2507 194.733 67.064C195.219 66.8773 195.648 66.616 196.021 66.28C196.395 65.9067 196.936 65.72 197.645 65.72C197.944 65.72 198.261 65.776 198.597 65.888C198.971 65.9627 199.307 66.1307 199.605 66.392C199.904 66.616 200.147 66.9333 200.333 67.344C200.52 67.7547 200.613 68.296 200.613 68.968C200.613 69.864 200.52 70.816 200.333 71.824C200.184 72.7947 199.997 73.8027 199.773 74.848C199.587 75.856 199.4 76.8827 199.213 77.928C199.064 78.9733 198.989 80.0187 198.989 81.064C198.989 81.4747 198.84 81.96 198.541 82.52C198.243 83.08 198.093 83.6587 198.093 84.256C198.093 85.5627 198 86.9067 197.813 88.288C197.627 89.632 197.533 90.9573 197.533 92.264C197.533 92.712 197.533 93.16 197.533 93.608C197.571 94.0187 197.589 94.4293 197.589 94.84C197.589 95.0267 197.571 95.2133 197.533 95.4C197.533 95.624 197.533 95.8293 197.533 96.016C197.533 96.464 197.683 96.8373 197.981 97.136C197.907 97.4347 197.869 97.6773 197.869 97.864C197.869 97.9387 197.907 98.088 197.981 98.312C198.056 98.536 198.131 98.7787 198.205 99.04C198.28 99.3013 198.355 99.5253 198.429 99.712C198.541 99.936 198.616 100.048 198.653 100.048C198.877 100.048 199.101 99.824 199.325 99.376C199.587 98.928 199.811 98.4053 199.997 97.808C200.221 97.2107 200.408 96.5947 200.557 95.96C200.707 95.3627 200.781 94.9147 200.781 94.616C201.08 93.5333 201.379 92.488 201.677 91.48C201.976 90.4347 202.312 89.408 202.685 88.4C202.723 88.1013 202.835 87.896 203.021 87.784C203.245 87.672 203.395 87.4293 203.469 87.056C203.619 86.5333 203.712 86.048 203.749 85.6C203.824 85.152 203.899 84.7227 203.973 84.312C204.085 83.9013 204.235 83.528 204.421 83.192C204.608 82.8187 204.907 82.4453 205.317 82.072C205.429 81.9973 205.504 81.8853 205.541 81.736C205.616 81.5867 205.672 81.456 205.709 81.344C205.821 80.9707 205.989 80.5973 206.213 80.224C206.437 79.8133 206.699 79.4587 206.997 79.16C207.296 78.824 207.613 78.5627 207.949 78.376C208.285 78.152 208.603 78.04 208.901 78.04C209.088 78.04 209.331 78.1147 209.629 78.264C209.965 78.376 210.133 78.5813 210.133 78.88C210.133 78.992 210.096 79.0853 210.021 79.16C209.909 79.3093 209.667 79.6267 209.293 80.112C208.957 80.5973 208.584 81.1387 208.173 81.736C207.8 82.296 207.445 82.8933 207.109 83.528C206.811 84.1253 206.661 84.648 206.661 85.096C206.549 85.9547 206.307 86.776 205.933 87.56C205.597 88.3067 205.336 89.0907 205.149 89.912C204.963 90.696 204.776 91.5547 204.589 92.488C204.403 93.4213 204.123 94.2427 203.749 94.952C203.563 95.2507 203.488 95.5867 203.525 95.96C203.563 96.3707 203.432 96.7627 203.133 97.136C202.909 97.5467 202.779 98.144 202.741 98.928C202.704 99.7493 202.685 100.459 202.685 101.056C202.611 101.653 202.405 102.139 202.069 102.512C201.771 102.923 201.528 103.352 201.341 103.8C201.117 104.323 200.725 104.621 200.165 104.696C199.605 104.771 199.12 104.808 198.709 104.808C198 104.808 197.44 104.621 197.029 104.248C196.619 103.875 196.171 103.464 195.685 103.016C195.387 102.755 195.237 102.475 195.237 102.176C195.275 101.915 195.219 101.747 195.069 101.672C194.659 101.299 194.435 100.869 194.397 100.384C194.36 99.936 194.323 99.4693 194.285 98.984C194.285 98.6853 194.285 98.4053 194.285 98.144C194.323 97.8827 194.341 97.6027 194.341 97.304C194.341 96.8187 194.192 96.464 193.893 96.24C193.632 96.016 193.501 95.6987 193.501 95.288C193.501 93.0853 193.595 90.696 193.781 88.12C193.968 85.5067 194.136 83.0053 194.285 80.616C194.323 80.056 194.472 79.5333 194.733 79.048C195.032 78.5627 195.181 78.1707 195.181 77.872C195.144 77.7227 195.125 77.5733 195.125 77.424C195.125 77.2747 195.125 77.1253 195.125 76.976C195.125 76.0053 195.144 75.296 195.181 74.848C195.219 74.3627 195.275 74.008 195.349 73.784C195.424 73.56 195.499 73.392 195.573 73.28C195.685 73.168 195.816 72.9813 195.965 72.72C195.965 72.384 195.909 72.0667 195.797 71.768C195.723 71.4693 195.667 71.1707 195.629 70.872C195.368 70.9467 195.125 71.0027 194.901 71.04C194.715 71.0773 194.509 71.1147 194.285 71.152C194.061 71.1893 193.912 71.3013 193.837 71.488C193.763 71.6373 193.688 71.8053 193.613 71.992C193.576 72.1787 193.483 72.3467 193.333 72.496C193.221 72.6453 192.997 72.72 192.661 72.72C192.475 73.168 192.307 73.5413 192.157 73.84C192.008 74.1013 191.747 74.3253 191.373 74.512C191.336 74.512 191.205 74.6053 190.981 74.792C190.757 74.9787 190.515 75.2027 190.253 75.464C189.992 75.7253 189.749 75.9867 189.525 76.248C189.301 76.5093 189.171 76.696 189.133 76.808C189.059 77.144 189.003 77.4613 188.965 77.76C188.928 78.0587 188.853 78.32 188.741 78.544C188.667 78.768 188.536 78.9547 188.349 79.104C188.2 79.2533 187.957 79.384 187.621 79.496C187.509 79.5333 187.323 79.7947 187.061 80.28C186.8 80.7653 186.501 81.3627 186.165 82.072C185.829 82.744 185.475 83.472 185.101 84.256C184.728 85.0027 184.411 85.6747 184.149 86.272C183.44 87.5413 182.88 88.5307 182.469 89.24C182.096 89.912 181.741 90.416 181.405 90.752C181.107 91.088 180.771 91.2933 180.397 91.368C180.024 91.4053 179.501 91.424 178.829 91.424C177.896 91.424 177 91.1253 176.141 90.528C175.32 89.9307 174.909 89.0347 174.909 87.84C174.835 87.6533 174.797 87.448 174.797 87.224C174.835 87 174.592 86.8507 174.069 86.776V85.096ZM189.301 71.376C189.115 71.3013 188.872 71.2267 188.573 71.152C188.312 71.0773 188.088 71.04 187.901 71.04C187.491 71.04 187.099 71.152 186.725 71.376C185.829 71.9733 185.008 72.7387 184.261 73.672C183.515 74.6053 182.824 75.6133 182.189 76.696C181.592 77.7787 181.088 78.9173 180.677 80.112C180.267 81.2693 179.949 82.3707 179.725 83.416C179.725 83.6773 179.837 83.808 180.061 83.808C180.099 83.808 180.285 83.6027 180.621 83.192C180.995 82.744 181.387 82.24 181.797 81.68C182.245 81.12 182.675 80.56 183.085 80C183.496 79.4027 183.795 78.936 183.981 78.6C184.168 78.3013 184.373 78.0027 184.597 77.704C184.859 77.368 185.139 77.0693 185.437 76.808C186.035 76.3227 186.539 75.7627 186.949 75.128C187.36 74.4933 187.883 73.9333 188.517 73.448C188.629 73.224 188.76 73.0187 188.909 72.832C189.021 72.6453 189.115 72.4587 189.189 72.272C189.301 72.0853 189.357 71.9173 189.357 71.768C189.357 71.6933 189.339 71.6373 189.301 71.6C189.301 71.5253 189.301 71.4507 189.301 71.376ZM221.709 106.992C221.373 107.328 221.13 107.701 220.981 108.112C220.869 108.56 220.757 109.008 220.645 109.456C220.57 109.941 220.477 110.408 220.365 110.856C220.253 111.341 220.048 111.789 219.749 112.2C219.749 112.835 219.562 113.525 219.189 114.272C218.853 115.056 218.386 115.765 217.789 116.4C217.229 117.072 216.557 117.613 215.773 118.024C215.026 118.472 214.242 118.696 213.421 118.696C212.749 118.696 212.226 118.621 211.853 118.472C211.48 118.323 211.144 118.136 210.845 117.912C210.584 117.725 210.341 117.52 210.117 117.296C209.93 117.072 209.669 116.867 209.333 116.68C208.624 116.269 208.194 115.672 208.045 114.888C207.933 114.141 207.877 113.339 207.877 112.48C207.877 111.696 207.933 110.669 208.045 109.4C208.194 108.168 208.717 106.768 209.613 105.2C209.8 104.901 209.986 104.36 210.173 103.576C210.397 102.829 210.621 102.195 210.845 101.672C211.069 101.149 211.386 100.459 211.797 99.6C212.245 98.7787 212.842 97.7707 213.589 96.576C213.738 96.3893 213.888 96.2027 214.037 96.016C214.224 95.8293 214.392 95.624 214.541 95.4C214.728 95.1387 214.914 94.8027 215.101 94.392C215.288 94.0187 215.474 93.664 215.661 93.328C215.848 92.9547 216.053 92.6373 216.277 92.376C216.501 92.0773 216.725 91.8907 216.949 91.816C217.434 91.5173 217.789 91.1627 218.013 90.752C218.237 90.304 218.573 89.8933 219.021 89.52C219.768 88.8853 220.346 88.0267 220.757 86.944C221.168 85.8613 221.466 84.7973 221.653 83.752C221.728 83.2293 221.933 82.7813 222.269 82.408C222.642 81.9973 222.829 81.5867 222.829 81.176C222.829 81.1013 222.829 81.0267 222.829 80.952C222.829 80.8773 222.792 80.84 222.717 80.84C222.642 80.84 222.512 80.9147 222.325 81.064C222.176 81.176 222.045 81.232 221.933 81.232C221.784 81.232 221.709 81.1573 221.709 81.008C221.709 80.4107 221.765 79.9253 221.877 79.552C221.989 79.1787 222.12 78.8613 222.269 78.6C222.418 78.3013 222.549 78.04 222.661 77.816C222.773 77.5547 222.829 77.256 222.829 76.92C222.829 76.6587 222.81 76.3227 222.773 75.912C222.773 75.464 222.736 75.0347 222.661 74.624C222.624 74.2133 222.53 73.8773 222.381 73.616C222.232 73.3173 222.045 73.168 221.821 73.168C221.597 73.168 221.41 73.2427 221.261 73.392C221.112 73.504 220.981 73.6533 220.869 73.84C220.757 73.9893 220.664 74.1387 220.589 74.288C220.514 74.4 220.421 74.456 220.309 74.456C220.01 74.68 219.73 74.9227 219.469 75.184C219.245 75.408 219.04 75.6507 218.853 75.912C218.666 76.1733 218.536 76.4347 218.461 76.696C218.461 76.6587 218.368 76.752 218.181 76.976C218.032 77.2 217.826 77.4613 217.565 77.76C217.304 78.0213 217.024 78.3013 216.725 78.6C216.464 78.8987 216.221 79.104 215.997 79.216C215.96 79.2533 215.866 79.384 215.717 79.608C215.568 79.7947 215.4 80.0373 215.213 80.336C215.064 80.6347 214.914 80.952 214.765 81.288C214.616 81.624 214.522 81.9227 214.485 82.184C214.41 82.6693 214.112 83.136 213.589 83.584C213.066 83.9947 212.581 84.4053 212.133 84.816C210.938 84.704 209.949 84.3867 209.165 83.864C208.418 83.3413 207.821 82.688 207.373 81.904C206.925 81.12 206.608 80.2613 206.421 79.328C206.272 78.3573 206.197 77.4053 206.197 76.472C206.197 76.1733 206.197 75.8933 206.197 75.632C206.234 75.3333 206.272 75.0347 206.309 74.736C206.309 74.6987 206.328 74.4373 206.365 73.952C206.402 73.4293 206.458 72.7947 206.533 72.048C206.645 71.3013 206.776 70.4987 206.925 69.64C207.074 68.7813 207.261 67.9973 207.485 67.288C207.709 66.5413 207.97 65.9253 208.269 65.44C208.605 64.9547 208.978 64.712 209.389 64.712C209.949 64.712 210.434 64.8427 210.845 65.104C211.256 65.328 211.61 65.608 211.909 65.944C212.208 66.28 212.432 66.6347 212.581 67.008C212.73 67.3813 212.805 67.7173 212.805 68.016C212.805 69.3227 212.637 70.6667 212.301 72.048C211.965 73.4293 211.797 74.7547 211.797 76.024C211.797 76.5093 211.928 76.752 212.189 76.752C212.376 76.752 212.637 76.64 212.973 76.416C213.346 76.1547 213.72 75.8747 214.093 75.576C214.466 75.24 214.821 74.904 215.157 74.568C215.493 74.232 215.754 73.9707 215.941 73.784C216.352 73.2987 216.781 72.9067 217.229 72.608C217.714 72.272 218.237 71.9733 218.797 71.712C219.021 71.6 219.17 71.488 219.245 71.376C219.32 71.2267 219.376 71.096 219.413 70.984C219.45 70.8347 219.488 70.704 219.525 70.592C219.562 70.48 219.674 70.3867 219.861 70.312C220.048 70.2373 220.178 70.144 220.253 70.032C220.365 69.8827 220.44 69.7333 220.477 69.584C220.552 69.3973 220.626 69.2107 220.701 69.024C220.813 68.8373 220.962 68.6693 221.149 68.52C221.298 68.408 221.504 68.2213 221.765 67.96C222.064 67.6613 222.381 67.3813 222.717 67.12C223.053 66.8213 223.426 66.5787 223.837 66.392C224.248 66.168 224.677 66.056 225.125 66.056C225.461 66.056 225.834 66.1307 226.245 66.28C226.693 66.392 227.104 66.56 227.477 66.784C227.85 67.008 228.168 67.2693 228.429 67.568C228.69 67.8293 228.821 68.0907 228.821 68.352C228.821 68.8373 228.802 69.3227 228.765 69.808C228.728 70.2933 228.69 70.7787 228.653 71.264C228.504 71.7867 228.392 72.384 228.317 73.056C228.242 73.6907 228.168 74.344 228.093 75.016C228.018 75.6507 227.906 76.2667 227.757 76.864C227.645 77.4613 227.477 77.984 227.253 78.432C227.029 78.8427 226.88 79.328 226.805 79.888C226.768 80.448 226.749 80.9893 226.749 81.512C226.749 81.8853 226.917 82.072 227.253 82.072C227.552 82.072 228.018 81.8853 228.653 81.512C229.288 81.1013 229.885 80.7467 230.445 80.448C230.818 80.112 231.117 79.8507 231.341 79.664C231.565 79.4773 231.77 79.328 231.957 79.216C232.144 79.104 232.349 79.0107 232.573 78.936C232.797 78.824 233.077 78.712 233.413 78.6C233.712 78.488 234.01 78.376 234.309 78.264C234.608 78.152 234.85 77.9467 235.037 77.648C235.074 77.6107 235.261 77.5173 235.597 77.368C235.933 77.1813 236.325 77.0133 236.773 76.864C237.221 76.6773 237.65 76.5093 238.061 76.36C238.509 76.2107 238.826 76.136 239.013 76.136C239.162 76.136 239.405 76.1733 239.741 76.248C240.077 76.2853 240.413 76.3787 240.749 76.528C241.085 76.64 241.384 76.808 241.645 77.032C241.906 77.256 242.037 77.536 242.037 77.872C242.037 78.1333 241.962 78.376 241.813 78.6C241.664 78.824 241.458 78.9547 241.197 78.992C240.749 78.992 240.394 79.0293 240.133 79.104C239.872 79.1413 239.629 79.216 239.405 79.328C239.181 79.44 238.938 79.5893 238.677 79.776C238.453 79.9253 238.154 80.0933 237.781 80.28C236.661 80.8773 235.522 81.4933 234.365 82.128C233.245 82.7627 232.181 83.4533 231.173 84.2C230.314 84.6853 229.624 85.152 229.101 85.6C228.616 86.048 228.074 86.4773 227.477 86.888C227.029 87.1867 226.637 87.504 226.301 87.84C225.965 88.1387 225.648 88.512 225.349 88.96C225.05 89.3707 224.752 89.8933 224.453 90.528C224.154 91.1627 223.837 91.928 223.501 92.824C223.426 93.0107 223.258 93.1413 222.997 93.216C222.736 93.2907 222.605 93.4773 222.605 93.776C222.605 93.8507 222.624 93.9627 222.661 94.112C222.698 94.2613 222.754 94.3547 222.829 94.392C222.904 94.392 222.997 94.3547 223.109 94.28C223.221 94.2427 223.296 94.2053 223.333 94.168C223.482 94.6533 223.557 95.1947 223.557 95.792C223.557 96.016 223.538 96.24 223.501 96.464C223.501 96.688 223.482 96.912 223.445 97.136C223.408 97.4347 223.277 97.64 223.053 97.752C222.829 97.864 222.586 97.9573 222.325 98.032C222.101 98.144 221.877 98.2747 221.653 98.424C221.466 98.5733 221.373 98.816 221.373 99.152C221.373 99.264 221.392 99.376 221.429 99.488C221.466 99.6 221.485 99.712 221.485 99.824C221.634 99.712 221.728 99.5813 221.765 99.432C221.802 99.2827 221.84 99.1333 221.877 98.984C221.914 98.872 221.97 98.76 222.045 98.648C222.157 98.536 222.344 98.48 222.605 98.48C222.792 98.48 222.941 98.536 223.053 98.648C223.165 98.7973 223.221 98.9653 223.221 99.152C223.221 99.4507 223.184 99.712 223.109 99.936C223.034 100.16 222.978 100.403 222.941 100.664C222.941 100.739 222.81 100.851 222.549 101C222.288 101.187 222.157 101.448 222.157 101.784C222.157 101.859 222.157 101.933 222.157 102.008C222.194 102.083 222.213 102.176 222.213 102.288C222.213 102.363 222.194 102.419 222.157 102.456C222.157 102.531 222.157 102.605 222.157 102.68C222.157 102.904 222.213 103.128 222.325 103.352C222.437 103.613 222.493 103.856 222.493 104.08C222.493 104.08 222.456 104.229 222.381 104.528C222.344 104.864 222.269 105.2 222.157 105.536C222.082 105.909 221.989 106.245 221.877 106.544C221.765 106.88 221.634 107.048 221.485 107.048C221.41 107.048 221.354 107.029 221.317 106.992C221.317 106.992 221.28 106.992 221.205 106.992C221.093 106.992 220.981 107.048 220.869 107.16L220.813 107.272C220.888 107.16 221.018 107.085 221.205 107.048C221.392 107.048 221.56 107.029 221.709 106.992ZM221.429 104.304C221.056 104.341 220.813 104.397 220.701 104.472C220.626 104.584 220.589 104.808 220.589 105.144C220.589 105.181 220.626 105.237 220.701 105.312C221 105.312 221.168 105.163 221.205 104.864C221.28 104.603 221.392 104.397 221.541 104.248C221.541 104.173 221.522 104.136 221.485 104.136C221.41 104.136 221.373 104.155 221.373 104.192C221.373 104.229 221.373 104.248 221.373 104.248C221.41 104.248 221.429 104.267 221.429 104.304ZM211.685 112.536C211.685 113.059 211.778 113.488 211.965 113.824C212.152 114.197 212.506 114.384 213.029 114.384C213.44 114.384 213.776 114.235 214.037 113.936C214.298 113.637 214.616 113.413 214.989 113.264C215.362 113.115 215.698 112.872 215.997 112.536C216.296 112.237 216.576 111.883 216.837 111.472C217.098 111.099 217.341 110.707 217.565 110.296C217.826 109.885 218.106 109.512 218.405 109.176C218.33 109.027 218.237 108.896 218.125 108.784C218.013 108.709 217.957 108.597 217.957 108.448C217.957 108.187 217.994 107.963 218.069 107.776C218.181 107.589 218.293 107.403 218.405 107.216C218.554 107.067 218.666 106.899 218.741 106.712C218.853 106.563 218.909 106.357 218.909 106.096C218.909 105.984 218.89 105.872 218.853 105.76C218.853 105.648 218.853 105.555 218.853 105.48C218.853 104.957 219.002 104.435 219.301 103.912C219.637 103.389 219.805 102.755 219.805 102.008C219.805 101.859 219.786 101.709 219.749 101.56C219.712 101.448 219.693 101.317 219.693 101.168C219.693 100.421 219.842 99.4507 220.141 98.256C220.44 97.0987 220.589 95.9787 220.589 94.896C220.589 94.8213 220.552 94.672 220.477 94.448C220.44 94.224 220.309 94.112 220.085 94.112C219.973 94.112 219.768 94.2987 219.469 94.672C219.17 95.0453 218.834 95.4747 218.461 95.96C218.125 96.4827 217.789 96.9867 217.453 97.472C217.117 97.9947 216.874 98.4053 216.725 98.704C216.65 98.8907 216.538 99.0587 216.389 99.208C216.053 99.5813 215.698 100.011 215.325 100.496C214.989 101.019 214.672 101.541 214.373 102.064C214.074 102.587 213.813 103.109 213.589 103.632C213.402 104.155 213.309 104.64 213.309 105.088C213.309 105.237 213.234 105.424 213.085 105.648C212.898 105.872 212.73 106.264 212.581 106.824C212.432 107.384 212.301 108 212.189 108.672C212.077 109.344 211.984 110.035 211.909 110.744C211.834 111.453 211.76 112.051 211.685 112.536ZM221.373 101.784C221.298 101.859 221.186 101.933 221.037 102.008C220.925 102.12 220.869 102.213 220.869 102.288C220.869 102.325 220.906 102.363 220.981 102.4C221.093 102.475 221.168 102.512 221.205 102.512C221.28 102.475 221.392 102.419 221.541 102.344C221.69 102.269 221.765 102.157 221.765 102.008C221.616 101.933 221.485 101.859 221.373 101.784ZM221.597 96.184C221.522 96.1467 221.466 96.1093 221.429 96.072C221.429 96.072 221.392 96.0533 221.317 96.016C221.168 96.016 221.093 96.0907 221.093 96.24C221.093 96.3147 221.149 96.352 221.261 96.352C221.336 96.352 221.392 96.3333 221.429 96.296C221.466 96.2587 221.522 96.2213 221.597 96.184ZM219.525 107.944C219.376 107.944 219.301 108 219.301 108.112C219.301 108.187 219.338 108.224 219.413 108.224C219.488 108.224 219.525 108.131 219.525 107.944ZM217.509 112.144C217.472 112.107 217.453 112.069 217.453 112.032C217.453 112.032 217.434 112.013 217.397 111.976C217.322 112.051 217.285 112.107 217.285 112.144C217.285 112.256 217.322 112.312 217.397 112.312C217.472 112.312 217.509 112.256 217.509 112.144ZM222.941 92.768C222.941 92.7307 222.941 92.6747 222.941 92.6C222.941 92.5253 222.904 92.488 222.829 92.488L222.773 92.544C222.736 92.544 222.717 92.5627 222.717 92.6C222.717 92.712 222.792 92.768 222.941 92.768ZM219.413 106.32C219.45 106.283 219.469 106.264 219.469 106.264C219.506 106.264 219.544 106.245 219.581 106.208C219.506 106.133 219.469 106.096 219.469 106.096C219.432 106.096 219.394 106.115 219.357 106.152L219.413 106.32ZM220.813 107.272L220.869 107.16H220.813V107.272Z" fill="#FA3E3E"/>
</g>
<defs>
<filter id="filter0_b_15_2846" x="-21.0723" y="-21.3379" width="357.144" height="222.439" filterUnits="userSpaceOnUse" color-interpolation-filters="sRGB">
<feFlood flood-opacity="0" result="BackgroundImageFix"/>
<feGaussianBlur in="BackgroundImageFix" stdDeviation="11"/>
<feComposite in2="SourceAlpha" operator="in" result="effect1_backgroundBlur_15_2846"/>
<feBlend mode="normal" in="SourceGraphic" in2="effect1_backgroundBlur_15_2846" result="shape"/>
</filter>
<filter id="filter1_d_15_2846" x="71.2598" y="100" width="36.92" height="50" filterUnits="userSpaceOnUse" color-interpolation-filters="sRGB">
<feFlood flood-opacity="0" result="BackgroundImageFix"/>
<feColorMatrix in="SourceAlpha" type="matrix" values="0 0 0 0 0 0 0 0 0 0 0 0 0 0 0 0 0 0 127 0" result="hardAlpha"/>
<feOffset dx="2" dy="2"/>
<feGaussianBlur stdDeviation="5.5"/>
<feComposite in2="hardAlpha" operator="out"/>
<feColorMatrix type="matrix" values="0 0 0 0 0 0 0 0 0 0 0 0 0 0 0 0 0 0 0.5 0"/>
<feBlend mode="normal" in2="BackgroundImageFix" result="effect1_dropShadow_15_2846"/>
<feBlend mode="normal" in="SourceGraphic" in2="effect1_dropShadow_15_2846" result="shape"/>
</filter>
<filter id="filter2_d_15_2846" x="165.338" y="99.5996" width="43.76" height="50.8008" filterUnits="userSpaceOnUse" color-interpolation-filters="sRGB">
<feFlood flood-opacity="0" result="BackgroundImageFix"/>
<feColorMatrix in="SourceAlpha" type="matrix" values="0 0 0 0 0 0 0 0 0 0 0 0 0 0 0 0 0 0 127 0" result="hardAlpha"/>
<feOffset dx="2" dy="2"/>
<feGaussianBlur stdDeviation="5.5"/>
<feComposite in2="hardAlpha" operator="out"/>
<feColorMatrix type="matrix" values="0 0 0 0 0 0 0 0 0 0 0 0 0 0 0 0 0 0 0.5 0"/>
<feBlend mode="normal" in2="BackgroundImageFix" result="effect1_dropShadow_15_2846"/>
<feBlend mode="normal" in="SourceGraphic" in2="effect1_dropShadow_15_2846" result="shape"/>
</filter>
<filter id="filter3_d_15_2846" x="108.99" y="99.5195" width="43.0399" height="50.4805" filterUnits="userSpaceOnUse" color-interpolation-filters="sRGB">
<feFlood flood-opacity="0" result="BackgroundImageFix"/>
<feColorMatrix in="SourceAlpha" type="matrix" values="0 0 0 0 0 0 0 0 0 0 0 0 0 0 0 0 0 0 127 0" result="hardAlpha"/>
<feOffset dx="2" dy="2"/>
<feGaussianBlur stdDeviation="5.5"/>
<feComposite in2="hardAlpha" operator="out"/>
<feColorMatrix type="matrix" values="0 0 0 0 0 0 0 0 0 0 0 0 0 0 0 0 0 0 0.5 0"/>
<feBlend mode="normal" in2="BackgroundImageFix" result="effect1_dropShadow_15_2846"/>
<feBlend mode="normal" in="SourceGraphic" in2="effect1_dropShadow_15_2846" result="shape"/>
</filter>
<filter id="filter4_d_15_2846" x="202.108" y="98.3535" width="46.3829" height="51.2598" filterUnits="userSpaceOnUse" color-interpolation-filters="sRGB">
<feFlood flood-opacity="0" result="BackgroundImageFix"/>
<feColorMatrix in="SourceAlpha" type="matrix" values="0 0 0 0 0 0 0 0 0 0 0 0 0 0 0 0 0 0 127 0" result="hardAlpha"/>
<feOffset dx="2" dy="2"/>
<feGaussianBlur stdDeviation="5.5"/>
<feComposite in2="hardAlpha" operator="out"/>
<feColorMatrix type="matrix" values="0 0 0 0 0 0 0 0 0 0 0 0 0 0 0 0 0 0 0.5 0"/>
<feBlend mode="normal" in2="BackgroundImageFix" result="effect1_dropShadow_15_2846"/>
<feBlend mode="normal" in="SourceGraphic" in2="effect1_dropShadow_15_2846" result="shape"/>
</filter>
<filter id="filter5_d_15_2846" x="44.0803" y="5.61573" width="227.187" height="76.4678" filterUnits="userSpaceOnUse" color-interpolation-filters="sRGB">
<feFlood flood-opacity="0" result="BackgroundImageFix"/>
<feColorMatrix in="SourceAlpha" type="matrix" values="0 0 0 0 0 0 0 0 0 0 0 0 0 0 0 0 0 0 127 0" result="hardAlpha"/>
<feOffset/>
<feGaussianBlur stdDeviation="7.42163"/>
<feComposite in2="hardAlpha" operator="out"/>
<feColorMatrix type="matrix" values="0 0 0 0 1 0 0 0 0 0.993333 0 0 0 0 0.993333 0 0 0 0.3 0"/>
<feBlend mode="normal" in2="BackgroundImageFix" result="effect1_dropShadow_15_2846"/>
<feBlend mode="normal" in="SourceGraphic" in2="effect1_dropShadow_15_2846" result="shape"/>
</filter>
<filter id="filter6_d_15_2846" x="72.419" y="34.4208" width="183.985" height="98.6417" filterUnits="userSpaceOnUse" color-interpolation-filters="sRGB">
<feFlood flood-opacity="0" result="BackgroundImageFix"/>
<feColorMatrix in="SourceAlpha" type="matrix" values="0 0 0 0 0 0 0 0 0 0 0 0 0 0 0 0 0 0 127 0" result="hardAlpha"/>
<feOffset dx="1.30611" dy="1.30611"/>
<feGaussianBlur stdDeviation="6.53055"/>
<feComposite in2="hardAlpha" operator="out"/>
<feColorMatrix type="matrix" values="0 0 0 0 0 0 0 0 0 0 0 0 0 0 0 0 0 0 1 0"/>
<feBlend mode="normal" in2="BackgroundImageFix" result="effect1_dropShadow_15_2846"/>
<feBlend mode="normal" in="SourceGraphic" in2="effect1_dropShadow_15_2846" result="shape"/>
</filter>
<linearGradient id="paint0_linear_15_2846" x1="224.446" y1="126.57" x2="224.446" y2="140.088" gradientUnits="userSpaceOnUse">
<stop stop-color="#656670"/>
<stop offset="0.0001" stop-color="#656670" stop-opacity="0"/>
<stop offset="1" stop-color="#656670"/>
</linearGradient>
<linearGradient id="paint1_linear_15_2846" x1="224.252" y1="115.758" x2="224.252" y2="126.959" gradientUnits="userSpaceOnUse">
<stop stop-opacity="0"/>
<stop offset="1" stop-opacity="0.31"/>
</linearGradient>
</defs>
</svg>
